<?xml version="1.0" encoding="UTF-8"?>
<svg id="_圖層_2" data-name="圖層 2" xmlns="http://www.w3.org/2000/svg" viewBox="0 0 206.84 65.34">
  <g id="menu">
    <g>
      <path d="M6.24,57.77c1.6-.44,6.17-2.49,13.69-6.14,.45-.31,.76-.69,.94-1.14,.09-.13,.22-.2,.4-.2,.22,0,.42,.27,.6,.8,.13,.53-.16,1.09-.87,1.67-7.7,4.19-12.38,6.54-14.03,7.08-1.91,.53-3.36,.78-4.34,.73-1.56-.22-2.4-.42-2.54-.6-.22-.36-.04-.96,.54-1.8,.27-.36,.49-.44,.67-.27,.31,.31,.69,.49,1.14,.53,.89,.09,2.16-.13,3.81-.67Zm31.32,5.74c-.22,1.16-.42,1.67-.6,1.54-.31-.13-.56-.07-.73,.2-.22,.27-.49-.07-.8-1-.22-.71-.31-1.36-.27-1.94,.09-.85,.04-1.43-.13-1.74-.22-.49-.25-.96-.07-1.4,.09-.27,.27-.4,.53-.4,.31-.04,.47-4.41,.47-13.09v-5.01c-.8,1.34-2.09,3.16-3.87,5.48-2.49,3.12-3.94,4.94-4.34,5.48-1.83,2.18-3.03,3.67-3.61,4.47-.58,.67-1.2,1.09-1.87,1.27-.67,.09-1.22-.02-1.67-.33-.45-.36-.58-.69-.4-1,.31-.36,.56-.47,.73-.33,.31,.13,.56,.2,.74,.2,.31-.13,.67-.42,1.07-.87,.53-.62,1.56-1.89,3.07-3.81,.53-.62,1.76-2.16,3.67-4.61,1.51-1.87,3.29-4.5,5.34-7.88,.22-.27,.42-1.22,.6-2.87-.04-.09-.07-.16-.07-.2-.4,.04-.69,.13-.87,.27-3.83,1.56-6.41,2.36-7.75,2.4-1.07,0-1.74-.02-2-.07-.09-.04-.16-.09-.2-.13-.04,.04-.07,.13-.07,.27-1.29,3.25-2.23,5.63-2.8,7.15-.18,.53-.6,1.36-1.27,2.47-.22,.4-.56,.6-1,.6-.53,.04-.87,0-1-.13-.31,0-.56,.02-.74,.07-.93,.09-2.36,.47-4.27,1.14-2.18,.71-3.74,1.16-4.68,1.34-1.51,.27-2.56,.38-3.14,.33-.45-.09-.73-.4-.87-.93-.13-.49-.13-.82,0-1,.13-.22,.42-.24,.87-.07,.04,0,.13,.02,.27,.07-.71-1.34-1.23-2.89-1.54-4.67-.76-3.21-1.6-5.1-2.54-5.68-.45-.22-.67-.67-.67-1.34,.04-.53,.22-.87,.53-1,.27-.09,.62,.07,1.07,.47,.27-.09,1-.4,2.2-.93,1.47-.85,3.29-1.56,5.48-2.14,.22-.18,.42-.33,.6-.47,3.43-2.85,5.56-4.9,6.41-6.14,.22-.27,.27-.47,.13-.6-.13-.18-.4-.24-.8-.2-1.51,.18-3.74,.76-6.68,1.74-.13,0-.2,.02-.2,.07-2.36,1.96-4.14,3.27-5.34,3.94-.49,.18-1.02,.18-1.6,0-.4-.13-.62-.36-.67-.67-.09-.36,.2-.69,.87-1,1.56-.76,3.23-1.83,5.01-3.21,1.74-1.42,3.03-2.89,3.87-4.41,.22-.4,.24-.76,.07-1.07-.18-.36,.13-.76,.93-1.2,.49-.31,1-.13,1.54,.53,.31,.36,.18,1.07-.4,2.14-.4,.71-.89,1.43-1.47,2.14,1.6-.53,2.94-.87,4.01-1,.93-.13,1.56-.18,1.87-.13,1.07,.22,1.58,1.02,1.54,2.4-.04,.4-.29,.89-.73,1.47-1.11,1.43-2.83,2.96-5.14,4.61,.44-.22,.96-.36,1.54-.4,2.94-.71,5.16-.98,6.68-.8,.71,.18,1.49,.73,2.34,1.67,.31,.71,.49,1.36,.53,1.94,0,.09-.02,.2-.07,.33h.07c.18,.09,.54,.13,1.07,.13,1.38,0,2.76-.27,4.14-.8,2.27-.84,4.16-1.54,5.68-2.07-.04-4.5-.16-6.9-.33-7.21-.36-.49-.51-.94-.47-1.34v-.2c-2.67,1.83-5.1,3.56-7.28,5.21-.58,.36-.96,.45-1.14,.27-.04-.09-.13-.11-.27-.07-.31,.13-.56,.07-.74-.2-.13-.36,.2-.82,1-1.4,.62-.62,1.67-1.49,3.14-2.6,1.51-1.2,3.76-2.76,6.75-4.68,.4-.31,.51-.67,.33-1.07-.36-.76-.25-1.2,.33-1.34,.8-.13,1.4-.04,1.8,.27,.53,.45,.78,.96,.73,1.54-.09,.62-.42,1.14-1,1.54-.98,.58-1.83,1.16-2.54,1.74,.31,.04,.62,.22,.93,.53,.62,.49,.91,3.23,.87,8.21,.04-.04,.09-.07,.13-.07,2.85-1.2,4.3-1.87,4.34-2,.09-.09-.09-.76-.53-2-.09-.31-.04-.56,.13-.73,.18-.22,.4-.2,.67,.07,1.11,1.29,1.89,2.03,2.34,2.2,.49,.27,.53,.62,.13,1.07-.27,.4-.4,.76-.4,1.07s-.2,.4-.6,.27c-.27,0-2.16,.69-5.68,2.07-.22,.04-.4,.13-.53,.27v.6c-.09,1.38-.13,2.69-.13,3.94,.8,.45,1.62,1.07,2.47,1.87,1.38,1.25,2.76,2.76,4.14,4.54,1.25,1.6,2.36,2.83,3.34,3.67,.98,.89,1.8,1.54,2.47,1.94,.58,.4,1.42,.69,2.54,.87,1.16,.27,2.43,.62,3.81,1.07,.49,.13,.76,.42,.8,.87,.04,.45-.07,.76-.33,.94-.49,.27-.89,.38-1.2,.33-1.03-.44-2.16-.76-3.41-.94-1.07-.22-1.89-.49-2.47-.8-.85-.44-1.74-1.07-2.67-1.87-1.51-1.34-2.89-2.83-4.14-4.47-1.34-1.87-2.6-3.36-3.81-4.47-.62-.58-1.16-1.02-1.6-1.34-.27,8.41-.33,13.89-.2,16.43,.04,2.54-.07,4.5-.33,5.88ZM4.17,38.87c.49,.8,.89,1.89,1.2,3.27,.44,.09,.94,.07,1.47-.07,1.25-.36,2.83-.96,4.74-1.8-.04-1.56-.16-2.96-.33-4.21-2.4,.76-4.76,1.69-7.08,2.8ZM16.92,11.89c.13-.13,.27-.22,.4-.27,.31-.27,.62-.31,.94-.13,.22,.18,.31,.49,.27,.94-.09,.49-.42,.82-1,1-.18,.04-.29,.09-.33,.13,.09,1.34,.11,2.83,.07,4.47-.04,.8-.22,1.43-.53,1.87-.31,.4-.62,.47-.94,.2-.27-.27-.38-.69-.33-1.27,0-1.65-.09-3.16-.27-4.54-2.49,.89-4.16,1.49-5.01,1.8-1.29,.36-2.03,.53-2.2,.53s-.36,.09-.53,.27c-.31,.31-.67,.38-1.07,.2-.4-.18-.82-.69-1.27-1.54-.27-.62-.25-1.02,.07-1.2,.27-.13,.53-.11,.8,.07,.22,.18,.69,.2,1.4,.07,1.69-.31,3.76-.82,6.21-1.54,.4-.18,.82-.29,1.27-.33-.04-.36-.09-.62-.13-.8-.58-2.54-1.56-4.36-2.94-5.48-.31-.31-.45-.69-.4-1.13,.18-.53,.49-.8,.93-.8,.49,0,.89,.16,1.2,.47,1.38,1.16,2.43,3.03,3.14,5.61,.13,.4,.22,.87,.27,1.4Zm-5.48,30.65c-.98,.36-1.76,.67-2.34,.94-1.51,.58-2.56,.89-3.14,.94,.44,1.51,.89,2.63,1.33,3.34,0,.04,.02,.13,.07,.27,1.11-.71,2.36-1.6,3.74-2.67,.09-1.07,.2-2,.33-2.81Zm3.07-7.41c-.4,.04-.76,.16-1.07,.33,.04,0,.07,.02,.07,.07,.09,1.16,.11,2.43,.07,3.81,1.11-.53,2.03-.87,2.74-1,.44-.09,1,.2,1.67,.87,.62,.58,.91,1.2,.87,1.87-.04,.53-.36,1.07-.93,1.6-.49,.4-2.14,1.56-4.94,3.47v.07c-.09,.49-.36,.89-.8,1.2-.54,.36-.89,.4-1.07,.13-.04-.04-.07-.09-.07-.13-.8,.53-1.63,1.09-2.47,1.67,1.69-.44,3.69-1.09,6.01-1.94,1.87-.71,3.21-1.05,4.01-1,.13,0,.29,.02,.47,.07,.62-1.34,1.09-2.4,1.4-3.21,.53-1.65,1.02-3.03,1.47-4.14,.44-1.2,.69-2.16,.73-2.87,.04-.49-.13-1-.53-1.54-1.02-.53-3.56-.31-7.61,.67Zm-1.27,8.55c.13-.09,.22-.16,.27-.2,1.69-1.42,2.45-2.29,2.27-2.6-.13-.09-.6,.02-1.4,.33-.36,.13-.67,.29-.93,.47-.09,.62-.16,1.29-.2,2ZM34.29,8.55c1.02-.04,1.83-.22,2.4-.53,.53-.22,1.33-.18,2.4,.13,.44,.18,.58,.6,.4,1.27-.27,.71-.69,1.07-1.27,1.07-1.34-.18-2.96-.07-4.88,.33-.93,.04-1.89,.27-2.87,.67-.89,1.51-1.69,2.76-2.4,3.74-.45,.67-.89,1-1.34,1s-.69-.13-.73-.4c-.09-.22,.07-.62,.47-1.2,.45-.76,.96-1.56,1.54-2.4-.62,.13-1.16,.29-1.6,.47-.71,.22-1.22,.2-1.54-.07-.36-.27-.51-.73-.47-1.4,.09-.85,.36-1.11,.8-.8,.36,.22,.8,.27,1.34,.13,1.07-.4,2.03-.69,2.87-.87,.13-.31,.29-.62,.47-.94,1.07-2.23,1.67-3.87,1.8-4.94,.09-.94-.09-1.49-.53-1.67-1.2-.58-1.71-1.09-1.54-1.54,.18-.44,.76-.64,1.74-.6,.84,.04,1.56,.49,2.14,1.34,.49,.62,.64,1.36,.47,2.2-.22,1.07-.94,2.89-2.14,5.48,.94-.27,1.76-.42,2.47-.47Z"/>
      <path d="M127.41,36.4c.58,.36,1.36,1.07,2.34,2.14,.27,.31,.4,1.07,.4,2.27-.04,1.34-.56,3.83-1.54,7.48-1.29,4.5-2.36,7.7-3.21,9.62-1.02,2.14-2.09,3.76-3.21,4.88-.53,.67-1.42,.65-2.67-.07-2.32-1.16-4.3-2.36-5.94-3.61-.04,.09-.09,.22-.13,.4-.98,2-2.16,3.36-3.54,4.07-.8,.44-1.34,.33-1.6-.33-.18-.45,.07-.76,.73-.93,.67-.22,1.49-1.27,2.47-3.14,.22-.45,.42-.87,.6-1.27-.53-.44-1-.89-1.4-1.34-.36-.31-.56-.62-.6-.94-.04-.44-.04-.76,0-.93,.13-.13,.36-.11,.67,.07,.67,.58,1.34,1.14,2,1.67,.53-1.42,.96-2.89,1.27-4.41,.44-2.14,.58-4.07,.4-5.81-.13-1.34-.36-2.09-.67-2.27-.62-.44-.8-.96-.54-1.54,.31-.71,.69-1.09,1.14-1.14,.4,.04,.82,.42,1.27,1.14,.49,.49,.8,1.49,.94,3.01,.13,1.96,.04,3.9-.27,5.81-.45,2.05-1.13,4.16-2.07,6.34,2.98,2.14,5.03,3.18,6.14,3.14,.62,0,1.22-.47,1.8-1.4,.67-1.02,1.27-2.34,1.8-3.94,.8-2.27,1.6-4.76,2.4-7.48,.76-2.76,1.16-5.03,1.2-6.81,0-.89-.29-1.67-.87-2.34-.94-.49-2.69-.64-5.28-.47-2,.22-4.96,.82-8.88,1.8-2.58,.62-5.7,1.63-9.35,3,.18,.18,.36,.47,.53,.87,.67,1.34,1.07,3.07,1.2,5.21,.09,1.51,.2,2.63,.33,3.34,.13,.45,.22,.67,.27,.67,.09,0,.29-.16,.6-.47,.53-.62,1.07-1.42,1.6-2.4,.71-1.47,1.13-2.6,1.27-3.41,.04-.71,.27-1.07,.67-1.07s.6,.33,.6,1c-.13,1.83-.49,3.47-1.07,4.94-.67,1.47-1.83,2.9-3.47,4.27-.45,.53-.89,.82-1.34,.87-.49-.04-.76-.56-.8-1.54-.36-1.82-.56-3.47-.6-4.94-.18-2-.36-3.47-.53-4.41-.27-.8-.49-1.2-.67-1.2-.49,0-.76-.13-.8-.4-.04-.36,.02-.56,.2-.6,.09-.04,.16-.07,.2-.07-1.69,.53-3.36,1.14-5.01,1.8-.49,.18-.94,.25-1.34,.2,.49,3.21,1.2,5.63,2.14,7.28,.85,1.38,1.49,1.98,1.94,1.8,.53-.18,.78-.11,.73,.2-.04,.36,.02,.69,.2,1,.13,.22-.02,.49-.47,.8-.45,.22-.89,.25-1.33,.07-1.11-.27-2.2-1.67-3.27-4.21-1.25-2.71-1.96-5.97-2.14-9.75,.04-.8,.2-1.22,.47-1.27,.22-.13,.49-.07,.8,.2,.4,.4,.6,.82,.6,1.27,0,.27,.02,.53,.07,.8,.4,.04,.82,0,1.27-.13,1.78-.85,3.7-1.6,5.74-2.27-.76-.04-1.11-.36-1.07-.94,.04-.44,.42-.65,1.14-.6,.4,.09,1.16-.29,2.27-1.14,1.25-.98,2.36-2.14,3.34-3.47,.8-1.11,1.4-2.2,1.8-3.27,.27-.8,.33-1.29,.2-1.47-.13-.18-.2-.33-.2-.47-.76,.22-1.4,.49-1.94,.8-3.92,1.74-6.77,2.83-8.55,3.27-.45,.09-.8,.13-1.07,.13-.04,.04-.07,.09-.07,.13-2.4,2.98-5.3,5.83-8.68,8.55-2.98,2.32-5.5,4.01-7.55,5.08-1.83,.93-3.14,1.47-3.94,1.6-.49,.09-.8,.04-.93-.13-.18-.31-.27-.62-.27-.93,.09-.36,.49-1.22,1.2-2.6,.98-1.83,2.07-3.56,3.27-5.21-.89-1.11-1.89-2.07-3-2.87-.36-.31-.4-.62-.13-.94,.18-.22,.42-.27,.73-.13,1.42,.76,2.56,1.63,3.41,2.6,.09-.22,.2-.4,.33-.53,.89-1.29,1.8-2.49,2.74-3.61,.22-1.51,.47-3.21,.73-5.08-1.11,.62-2.23,1.34-3.34,2.14-1.47,1.02-3.03,1.89-4.67,2.6-1.25,.53-2.23,.8-2.94,.8-.53,0-.96-.16-1.27-.47-.27-.31-.38-.62-.33-.94,0-.13,.2-.2,.6-.2,.84,.04,1.69-.13,2.54-.53,1.51-.71,3.29-1.74,5.34-3.07,1.56-1.11,3.03-1.96,4.41-2.54,.22-1.96,.49-4.1,.8-6.41,.4-4.05,.58-6.1,.53-6.14-.27-.13-1.27,.2-3.01,1-2.09,.89-4.16,1.6-6.21,2.14-1.91,.49-3.14,.51-3.67,.07-.93-.4-1.31-.93-1.14-1.6,.18-.8,.56-1,1.14-.6,.44,.36,1.29,.45,2.54,.27,.98-.18,4.3-1.42,9.95-3.74,.58-.36,1.07-.6,1.47-.73,.4-.09,.73,.09,1,.53,.27,.58,.31,1.36,.13,2.34-.27,2.85-.74,6.83-1.4,11.95,.98-.49,1.89-.76,2.74-.8,.4-.09,.76-.04,1.07,.13,.27,.22,.38,.82,.33,1.8-.09,1.25-1.47,3.41-4.14,6.48-.53,.58-1.02,1.16-1.47,1.74-.4,2.09-.76,4.34-1.07,6.75,2.76-2.05,5.36-4.16,7.81-6.34,1.02-.98,2.03-2.03,3-3.14-.18-.27-.27-.56-.27-.87,0-.71,.07-1.09,.2-1.14,.13-.04,.22-.07,.27-.07,.18-.04,.49,.07,.93,.33,.31,.13,.76,.13,1.34,0,1.29-.31,3.56-1.2,6.81-2.67,2.76-1.29,6.7-2.56,11.82-3.81,1.74-.4,2.96-.53,3.67-.4,.49,.09,.76,.29,.8,.6,.09,.49-.22,1.07-.94,1.74-.98,.8-1.62,1.05-1.94,.73-.18-.27-.4-.4-.67-.4-.53,0-1.83,.27-3.87,.8-1.03,.22-1.96,.49-2.8,.8,.04,.22,.09,.42,.13,.6,.13,.45,.04,1.16-.27,2.14-.45,1.25-1.07,2.43-1.87,3.54-1.07,1.51-2.47,2.96-4.21,4.34-.27,.13-.49,.29-.67,.47,3.92-1.38,8.15-2.56,12.69-3.54,4.45-.98,7.75-1.18,9.88-.6Zm-45.55,6.21c-.4,.62-.8,1.23-1.2,1.8-.85,1.29-1.18,2-1,2.14,.44,.18,1.62-.36,3.54-1.6-.31-.31-.56-.69-.73-1.14-.22-.49-.42-.89-.6-1.2Zm2.2-2.87c-.45,.49-.82,.96-1.13,1.4,.13,.22,.33,.33,.6,.33,.09-.04,.27-.62,.53-1.74Zm3.21-7.21c2-2.27,2.87-3.47,2.6-3.61-.45-.31-1.16-.24-2.14,.2-.18,1.07-.33,2.2-.47,3.41Zm12.09-8.42c-.58,0-1.02-.13-1.34-.4s-.38-.69-.2-1.27c.71-4.14,2-8.21,3.87-12.22,.36-.53,.76-.71,1.2-.53,.45,.22,.6,.56,.47,1-1.96,4.59-3.03,7.9-3.21,9.95-.04,.36,.02,.6,.2,.73,.13,.09,1.62,0,4.47-.27,1.11-.22,2.36-.42,3.74-.6-.76-.85-1.6-2.27-2.54-4.27-.09-.44-.04-.73,.13-.87,.27-.09,.49,.02,.67,.33,1.07,1.83,2.03,2.72,2.87,2.67,.36-.13,.62-2.2,.8-6.21,.22-4.72,.24-7.35,.07-7.88-.22-.49-.6-.73-1.14-.73-.67-.09-1-.22-1-.4,.04-.62,.2-1.02,.47-1.2,.31-.27,.76-.38,1.34-.33,.76,.04,1.29,.27,1.6,.67,.31,.4,.53,.89,.67,1.47,.27,1.07,.24,3.74-.07,8.01-.36,4.72-.73,7.44-1.14,8.15,1.56-.49,3.23-1.02,5.01-1.6,3.29-1.16,4.96-2,5.01-2.54,0-.44,.09-.69,.27-.73-.18-1.6-.53-3.36-1.07-5.28-.13-.44,.16-.76,.87-.93,.62-.13,1,0,1.13,.4,.98,3.61,1.38,6.48,1.2,8.62-.09,1.65-.47,2.87-1.13,3.67-.76,.89-1.49,1.36-2.2,1.4-.67,.09-1.09,0-1.27-.27-.13-.22,.07-.53,.6-.94,1.11-.89,1.74-1.96,1.87-3.21v-.27c-.18,.09-.33,.16-.47,.2-3.61,1.6-7.75,2.96-12.42,4.07-4.1,1.02-7.21,1.56-9.35,1.6Z"/>
      <path d="M154.02,44.08c.36,.04,.89-.02,1.6-.2,4.23-1.38,8.68-3.16,13.36-5.34,.85-.4,1.54-.6,2.07-.6,.53-.04,.89,.29,1.07,1,.13,.58-.02,1.29-.47,2.14-1.07,1.87-2.76,4.1-5.08,6.68-2.58,2.85-4.96,5.1-7.15,6.75-1.87,1.43-3.29,2.36-4.27,2.81-.98,.45-1.8,.6-2.47,.47-1.34-.04-2.23-.4-2.67-1.07-.31-.36-.38-.76-.2-1.2,.22-.44,.42-.51,.6-.2,.4,.45,1.16,.69,2.27,.73,.27,.04,.82-.13,1.67-.53,.89-.44,2.27-1.36,4.14-2.74,2.36-1.83,4.96-4.36,7.81-7.61,2.31-2.71,3.32-4.16,3-4.34-.27-.18-.56-.18-.87,0-2.94,1.43-5.97,2.74-9.08,3.94-2.09,.76-3.67,1.23-4.74,1.4-1.11,.09-1.8,0-2.07-.27-.67-.49-.93-1.02-.8-1.6,.09-.44,.27-.73,.54-.87,.22-.04,.53,.09,.93,.4,.22,.18,.49,.27,.8,.27Zm27.71,0c1.51,1.16,3.09,2.49,4.74,4.01,2.18,1.96,4.1,3.47,5.74,4.54,1.6,1.07,2.94,1.8,4.01,2.2,.94,.45,2.23,.69,3.87,.73,1.69,.09,3.63,.29,5.81,.6,.54,.09,.82,.33,.87,.73,.13,.4,.07,.73-.2,1-.4,.36-.76,.51-1.07,.47-1.65-.31-3.36-.49-5.14-.53-1.56-.09-2.83-.27-3.81-.53-1.33-.44-2.76-1.14-4.27-2.07-2.49-1.47-4.83-3.27-7.01-5.41-2.4-2.45-4.61-4.3-6.61-5.54-.22-.13-.36-.22-.4-.27-.18,4.67-.2,10.02-.07,16.03,.04,.84-.02,1.49-.2,1.94-.22,.44-.49,.6-.8,.47-.22-.04-.42-.04-.6,0-.31,.09-.62-.16-.93-.73-.22-.27-.76-.49-1.6-.67-.85-.13-2.2-.82-4.07-2.07-1.69-1.11-3.16-2.43-4.41-3.94-.27-.31-.31-.62-.13-.94,.18-.27,.47-.24,.87,.07,2.18,2.05,4.76,3.67,7.75,4.88,.84,.36,1.42,.44,1.74,.27,.18-.09,.27-.36,.27-.8,.13-6.28,.22-10.97,.27-14.09v-1.6c-1.2-.67-2.16-1.09-2.87-1.27-.49-.09-.76-.36-.8-.8-.04-.44,.07-.73,.33-.87,.31-.22,.69-.27,1.13-.13,.71,.22,1.47,.56,2.27,1,.04-2.4,.04-5.08,0-8.01-.04-.31-.42-.6-1.13-.87-.27-.13-.47-.22-.6-.27-1.96,.53-4.16,1.27-6.61,2.2-.67,.18-1.16,.18-1.47,0-.4-.27-.58-.73-.53-1.4,.04-.89,.29-1.18,.74-.87,.44,.22,.89,.27,1.33,.13,.09-.09,.22-.13,.4-.13-.04-.09-.09-.16-.13-.2-1.43-1.69-2.67-3.9-3.74-6.61-1.87-4.23-3.54-6.63-5.01-7.21-.49-.13-.76-.53-.8-1.2-.09-.53,.02-.89,.33-1.07,.22-.13,.69,0,1.4,.4,.04,.04,.09,.09,.13,.13,1.16-.18,3.61-1.02,7.35-2.54,.04-.04,.09-.09,.13-.13,.98-.76,2.14-1.87,3.47-3.34,1.16-1.34,1.89-2.36,2.2-3.07,.22-.53,.2-.93-.07-1.2-1.02-.89-1.38-1.54-1.07-1.94,.31-.36,.93-.38,1.87-.07,.71,.31,1.27,.96,1.67,1.94,.22,.49,.18,1.02-.13,1.6-.36,.76-1.27,1.94-2.74,3.54-.36,.36-.69,.69-1,1,2.4-.76,4.83-1.27,7.28-1.54,3.12-.31,5.63-.4,7.55-.27,1.56,.18,2.76,.62,3.61,1.34,.8,1.25,1.18,2.56,1.14,3.94-.09,1.2-.89,3.29-2.4,6.28-1.74,3.47-3.5,6.3-5.28,8.48-.58,.67-1.27,1.09-2.07,1.27-.53,.04-.87-.13-1-.53-1.02,0-2.14,.13-3.34,.4,.31,.31,.49,.76,.53,1.34,.22,1.83,.24,4.63,.07,8.41-.04,.36-.07,.73-.07,1.14,.27,.18,.53,.36,.8,.53,.09-.09,.33-.04,.73,.13,.53,.18,1.67-.09,3.41-.8,2-.84,3.87-1.96,5.61-3.34,1.47-1.2,2.63-2.43,3.47-3.67,.58-.98,.85-1.62,.8-1.94-.18-.71,.02-1.22,.6-1.54,.71-.36,1.22-.4,1.54-.13,.27,.27,.38,.82,.33,1.67-.04,.62-.42,1.49-1.13,2.6-.94,1.43-2.07,2.69-3.41,3.81-1.87,1.51-4.1,2.87-6.68,4.07-.98,.4-1.89,.69-2.74,.87Zm-11.95-13.82c.09,.22,.16,.42,.2,.6v.13c3.25-1.25,5.77-1.96,7.55-2.14,1.25-.09,2.23-.36,2.94-.8,.58-.36,1.49-.31,2.74,.13,.93-1.2,2.2-3.36,3.81-6.48,1.78-3.69,2.67-6.17,2.67-7.41,0-.44-.16-.96-.47-1.54-.53-.53-1.27-.82-2.2-.87-1.96-.18-4.43-.11-7.41,.2-4.27,.49-7.9,1.42-10.89,2.8-2.18,.98-4.21,1.83-6.08,2.54,.76,.94,1.54,2.23,2.34,3.87,.18-.18,.42-.24,.73-.2,1.34,.27,3.63-.16,6.88-1.27,3.52-1.29,5.7-1.96,6.54-2,.53-.04,1.02,.02,1.47,.2,.18,.09,.36,.11,.53,.07,1.56,.22,1.71,.94,.47,2.14-.54,.67-1.14,1.34-1.8,2-5.03,4.81-8.37,7.48-10.02,8.01Zm-3.74-6.68c1.07,2.23,2,3.83,2.81,4.81,.13,.18,.27,.4,.4,.67,1.83-1.07,3.81-2.63,5.94-4.67,2.72-2.49,3.98-3.83,3.81-4.01-.22-.31-2.23,.13-6.01,1.34-3.12,1.11-5.43,1.74-6.95,1.87Z"/>
    </g>
  </g>
</svg>