<?xml version="1.0" encoding="utf-8"?>
<svg version="1.1" id="圖層_1" xmlns="http://www.w3.org/2000/svg" xmlns:xlink="http://www.w3.org/1999/xlink" x="0px"
    y="0px" viewBox="0 0 1280 738.88">
    <path style="fill: #fff; stroke: #fff; stroke-miterlimit: 10; transform-origin: 0px 0px;"
        d="M320,184.72L0,369.44V0L320,184.72z" class="anim" data-svg-origin="160 184.72000122070312"
        transform="matrix(1,0,0,1,0,0)"></path>
    <path style="fill: #fff; stroke: #fff; stroke-miterlimit: 10; transform-origin: 0px 0px;"
        d="M640,0v369.44L320,184.72L640,0z" class="anim" data-svg-origin="480 184.72000122070312"
        transform="matrix(1,0,0,1,0,0)"></path>
    <path style="fill: #fff; stroke: #fff; stroke-miterlimit: 10; transform-origin: 0px 0px;"
        d="M960,184.719v369.44l-320-184.72L960,184.719z" class="anim" data-svg-origin="800 369.4389953613281"
        transform="matrix(1,0,0,1,0,0)"></path>
    <path style="fill: #fff; stroke: #fff; stroke-miterlimit: 10; transform-origin: 0px 0px;"
        d="M960,184.72L640,369.44V0L960,184.72z" class="anim" data-svg-origin="800 184.72000122070312"
        transform="matrix(1,0,0,1,0,0)"></path>
    <path style="fill: #fff; stroke: #fff; stroke-miterlimit: 10; transform-origin: 0px 0px;"
        d="M1280,369.439l-320,184.72v-369.44L1280,369.439z" class="anim" data-svg-origin="1120 369.4389953613281"
        transform="matrix(1,0,0,1,0,0)"></path>
    <path style="fill: #fff; stroke: #fff; stroke-miterlimit: 10; transform-origin: 0px 0px;"
        d="M1280,0v369.44L960,184.72L1280,0z" class="anim" data-svg-origin="1120 184.72000122070312"
        transform="matrix(1,0,0,1,0,0)"></path>
    <path style="fill:#fff;stroke:#fff;stroke-miterlimit:10;" d="M320,554.16L0,738.88V369.44L320,554.16z"></path>
    <path style="fill:#fff;stroke:#fff;stroke-miterlimit:10;" d="M320,184.72v369.44L0,369.44L320,184.72z"></path>
    <path style="fill:#fff;stroke:#fff;stroke-miterlimit:10;" d="M640,369.44v369.44L320,554.16L640,369.44z">
    </path>
    <path style="fill:#fff;stroke:#fff;stroke-miterlimit:10;" d="M640,369.44L320,554.16V184.72L640,369.44z">
    </path>
    <path style="fill:#fff;stroke:#fff;stroke-miterlimit:10;" d="M960,554.16L640,738.88V369.44L960,554.16z">
    </path>
    <path style="fill:#fff;stroke:#fff;stroke-miterlimit:10;" d="M1280,369.44v369.44L960,554.16L1280,369.44z">
    </path>
    <path style="fill: #fff; stroke: #fff; stroke-miterlimit: 10; transform-origin: 0px 0px;"
        d="M320,184.721L0,0.001L0.002,0H320V184.721z" class="anim" data-svg-origin="160 92.3604965209961"
        transform="matrix(1,0,0,1,0,0)"></path>
    <path style="fill: #fff; stroke: #fff; stroke-miterlimit: 10; transform-origin: 0px 0px;"
        d="M320,184.721V0h319.998L640,0.001L320,184.721z" class="anim" data-svg-origin="480 92.3604965209961"
        transform="matrix(1,0,0,1,0,0)"></path>
    <path style="fill: #fff; stroke: #fff; stroke-miterlimit: 10; transform-origin: 0px 0px;"
        d="M640,0.001L640.002,0H960v184.721L640,0.001z" class="anim" data-svg-origin="800 92.3604965209961"
        transform="matrix(1,0,0,1,0,0)"></path>
    <path style="fill: #fff; stroke: #fff; stroke-miterlimit: 10; transform-origin: 0px 0px;"
        d="M1279.998,0L1280,0.001l-320,184.72V0H1279.998z" class="anim" data-svg-origin="1120 92.36050415039062"
        transform="matrix(1,0,0,1,0,0)"></path>
    <path style="fill:#fff;stroke:#fff;stroke-miterlimit:10;" d="M320,554.16v184.72H0L320,554.16z"></path>
    <path style="fill:#fff;stroke:#fff;stroke-miterlimit:10;" d="M320,554.16l320,184.72H320V554.16z"></path>
    <path style="fill:#fff;stroke:#fff;stroke-miterlimit:10;" d="M960,554.16v184.72H640L960,554.16z"></path>
    <path style="fill:#fff;stroke:#fff;stroke-miterlimit:10;" d="M960,554.16l320,184.72H960V554.16z"></path>
</svg>