<?xml version="1.0" encoding="UTF-8"?>
<svg id="_圖層_2" data-name="圖層 2" xmlns="http://www.w3.org/2000/svg" viewBox="0 0 568.45 559.35">
  <defs>
    <style>
      .cls-1 {
        fill: none;
        stroke: #e0bd76;
        stroke-miterlimit: 10;
      }
    </style>
  </defs>
  <g id="_圖層_1-2" data-name="圖層 1">
    <polygon class="cls-1" points="86.39 199.99 86.39 242.35 41.14 287.59 118.16 362.69 118.16 168.22 207.69 77.73 207.69 452.22 238.5 483.03 238.5 47.88 283.75 .71 329.96 46.92 329.96 477.25 359.79 452.22 359.79 78.68 449.33 167.26 449.33 363.65 526.35 287.59 478.21 242.35 478.21 197.1 567.74 286.64 418.52 435.85 418.52 182.66 389.64 151.85 389.64 468.58 299.15 558.12 299.15 62.32 283.75 45.96 268.34 62.32 268.34 558.12 176.89 463.77 176.89 152.82 148.96 180.74 148.96 433.93 .71 285.67 86.39 199.99"/>
  </g>
</svg>