<?xml version="1.0" encoding="UTF-8"?>
<svg id="_圖層_2" data-name="圖層 2" xmlns="http://www.w3.org/2000/svg" viewBox="0 0 51 78.91">
  <defs>
    <style>
      .cls-1 {
        fill: #c3a457;
      }
    </style>
  </defs>
  <g id="_圖層_1-2" data-name="圖層 1">
    <path class="cls-1" d="M24.79,70.12C24.79,56.49,13.64,45.34,.02,45.34v-3.33c10.8,0,20.3,8.58,24.26,18.26,.02,.06,.08,.09,.14,.07,.06-.02,.09-.07,.09-.13-1.82-12.47-11.99-22.24-24.5-23.58v-3.3c11.26,1.4,20.82,10.68,24.55,21.22,.02,.06,.08,.09,.14,.08,.06-.01,.1-.06,.1-.12-.37-14.16-10.93-25.77-24.78-27.33v-3.29c11.29,1.5,20.84,10.82,24.56,21.41,.02,.06,.08,.09,.13,.08,.06-.01,.1-.06,.1-.12v-2.35c0-12.56-10.28-22.84-22.84-22.84v-3.33c10.14,0,19.04,8.26,22.61,17.42,.02,.05,.08,.08,.13,.07,.06-.01,.1-.06,.1-.12v-3.07c0-8.72-7.13-15.85-15.85-15.85v-3.33c6.8,0,12.82,5.92,15.62,11.85,.02,.05,.08,.08,.13,.07,.05-.01,.09-.06,.09-.12v-5.19c0-5.02-4.11-9.13-9.13-9.13v-3.33c3.69,0,7.01,3.85,8.91,6.84,.03,.05,.08,.07,.13,.05,.05-.02,.09-.06,.09-.11L23.75,0h3.5l-1.04,12.79c0,.05,.03,.1,.09,.11,.05,.02,.11,0,.13-.05,1.9-2.99,5.21-6.84,8.91-6.84v3.33c-5.01,0-9.12,4.11-9.13,9.1v5.22c0,.06,.04,.1,.09,.12,.06,.01,.11-.01,.13-.07,2.8-5.94,8.82-11.85,15.62-11.85v3.33c-8.71,0-15.84,7.13-15.85,15.83v3.09c0,.06,.04,.11,.1,.12,.06,.01,.11-.02,.13-.07,3.57-9.16,12.47-17.42,22.61-17.42v3.33c-12.56,0-22.84,10.28-22.84,22.82v2.37c0,.06,.04,.11,.1,.12,.06,.01,.11-.02,.13-.08,3.72-10.59,13.28-19.91,24.56-21.41v3.3c-13.69,1.55-24.42,13-24.78,27.32,0,.06,.04,.11,.1,.12,.06,.01,.11-.02,.13-.08,3.73-10.54,13.29-19.82,24.55-21.22v3.3c-12.51,1.34-22.68,11.11-24.5,23.58,0,.06,.03,.12,.09,.13,.06,.02,.12-.01,.14-.07,3.96-9.68,13.46-18.26,24.26-18.26v3.33c-13.63,0-24.78,11.15-24.78,24.78,0,2.93,0,5.86,0,8.79h-1.41v-8.79h0Z"/>
  </g>
</svg>