<?xml version="1.0" encoding="UTF-8"?>
<svg id="_圖層_2" data-name="圖層 2" xmlns="http://www.w3.org/2000/svg" viewBox="0 0 219.01 65.69">
  <defs>
    <style>
      .cls-1 {
        fill: #fff;
      }
    </style>
  </defs>
  <g id="_圖層_4" data-name="圖層 4">
    <g>
      <path class="cls-1" d="M16.09,11.35c-.14-.09-.45-.12-.91-.07-.47,.09-1.2,.24-2.18,.42-1.55,.33-2.88,.73-4.01,1.2-1.03,.42-2.11,.61-3.23,.56-.47-.05-.73-.23-.77-.56-.05-.56,.02-1.05,.21-1.48,.14-.19,.45-.26,.91-.21,.75,0,1.29-.02,1.62-.07,.42-.09,.91-.28,1.48-.56,.61-.28,1.76-.63,3.45-1.05,1.45-.37,2.48-.56,3.09-.56,.19-.05,.38-.07,.56-.07,.61-.14,1.08-.12,1.41,.07,.38,.28,.73,.8,1.05,1.55,.28,.8,.33,1.57,.14,2.32-.47,1.31-1.76,3.12-3.87,5.41-1.5,1.59-3.05,3.12-4.64,4.57,1.41-.7,2.7-1.22,3.87-1.55,.52-.19,1.01-.12,1.48,.21,.7,.47,.96,1.01,.77,1.62-.38,1.92-2.49,5.3-6.33,10.12-.61,.89-.82,1.36-.63,1.41,.14,.05,.56-.09,1.27-.42,1.22-.7,2.98-1.05,5.27-1.05,1.17,.05,1.92,.77,2.25,2.18,.56,2.77,.35,6.26-.63,10.48-.94,4.08-2.67,8.46-5.2,13.15-.24,.61-1.05,.91-2.46,.91-2.3,0-4.24-.84-5.84-2.53-1.55-1.73-2.53-3.61-2.95-5.62-.14-.94-.05-1.43,.28-1.48,.61-.05,1.01,.17,1.2,.63,1.27,3.19,2.67,5.23,4.22,6.12,1.5,.89,2.6,1.2,3.3,.91,.56-.23,1.55-2.06,2.95-5.48,1.73-4.36,2.77-8.23,3.09-11.6,.28-3.14,.14-4.94-.42-5.41-.24-.14-1.05-.12-2.46,.07-3.14,.38-6.77,2.34-10.9,5.91-.75,.52-1.43,.47-2.04-.14-.42-.47-.49-.87-.21-1.2,2.91-2.11,4.95-3.82,6.12-5.13,2.34-3,4.17-5.44,5.48-7.31,1.31-2.11,1.83-3.33,1.55-3.66-.14-.19-1.2,.14-3.16,.98-2.81,1.17-5.51,2.63-8.09,4.36-.61,.33-1.27,.12-1.97-.63-.42-.47-.19-.91,.7-1.34,1.27-.7,2.55-1.34,3.87-1.9,4.59-3.8,8.25-7.62,10.97-11.46,.66-1.03,.77-1.9,.35-2.6Zm6.96,23.34c1.22-.28,4.17-1.36,8.86-3.23,6.51-2.67,11.13-4.38,13.85-5.13,2.86-.75,5.27-.98,7.24-.7,.7,.09,1.08,.24,1.12,.42,.14,.38,.07,.66-.21,.84-.28,.24-.42,.59-.42,1.05-.09,.47-.24,.73-.42,.77-.19,0-.45-.09-.77-.28-.38-.28-1.01-.42-1.9-.42-.98,.05-2.49,.31-4.5,.77-2.53,.7-6.84,2.27-12.94,4.71-5.48,2.2-8.65,3.4-9.49,3.59-.8,.19-1.9,.14-3.3-.14-.75-.14-1.15-.59-1.2-1.34-.09-.56,.02-.94,.35-1.12,.28-.19,.59-.21,.91-.07,.84,.38,1.78,.47,2.81,.28Zm3.8,27.84c.89,.09,1.78-.31,2.67-1.2,1.41-1.41,2.88-2.98,4.43-4.71,3.05-3.52,5.51-6.49,7.38-8.93-2.95-.7-5.98-1.15-9.07-1.34-.94,0-1.43-.28-1.48-.84-.05-.61,.59-.91,1.9-.91,3.42,.09,6.75,.52,9.98,1.27,1.55-2.3,2.48-4.22,2.81-5.77,.14-.47,.38-.7,.7-.7,.52,0,.77,.31,.77,.91-.14,1.55-1.01,3.54-2.6,5.98,3.28,.8,6.42,1.92,9.42,3.38,2.2,1.17,3.47,2.06,3.8,2.67,.19,.33,.35,.56,.49,.7,.75,.47,1.1,1.15,1.05,2.04-.09,.61-.45,.89-1.05,.84-.52,0-1.29,.21-2.32,.63-1.36,.52-2.6,.84-3.73,.98-.7-.05-1.08-.23-1.12-.56,0-.37,.23-.59,.7-.63,2.86-.84,4.38-1.5,4.57-1.97,.23-.47-1.29-1.5-4.57-3.09-2.81-1.36-5.65-2.39-8.51-3.09-3.23,4.74-6.26,8.6-9.07,11.6-2.16,2.2-3.89,3.8-5.2,4.78-.47,.37-.91,.49-1.34,.35-.56-.14-1.08-.12-1.55,.07-.52,.23-.98-.02-1.41-.77-.42-.8-.7-2.06-.84-3.8-.28-2.86-.26-6.49,.07-10.9,.33-4.5,1.01-8.25,2.04-11.25,.14-.52,.38-.8,.7-.84,.33,0,.73,.24,1.2,.7,.56,.52,.7,1.01,.42,1.48-.89,1.92-1.55,4.67-1.97,8.23-.38,2.95-.42,7.13-.14,12.52,.09,1.45,.38,2.18,.84,2.18Zm-.35-54.91c.14-.56,.3-.94,.49-1.12,.28-.14,.59-.14,.91,0,.28,.19,.59,.52,.91,.98,.52,.56,.84,1.29,.98,2.18,.09,.7,.12,1.57,.07,2.6-.14,2.02-.21,5.7-.21,11.04,0,4.36-.24,7.13-.7,8.3-.47,.94-1.01,1.24-1.62,.91-.61-.37-.75-.94-.42-1.69,.52-1.27,.75-3.68,.7-7.24,.05-4.69,.09-7.83,.14-9.42,.09-1.55,.12-2.77,.07-3.66-.09-.89-.35-1.5-.77-1.83-.38-.37-.56-.73-.56-1.05Zm10.05,4.99c2.67-.84,4.73-1.27,6.19-1.27,.52-.05,.75,.14,.7,.56,.05,.24,.09,.45,.14,.63,.09,.33-.02,.59-.35,.77-.42,.33-.84,.77-1.27,1.34-.75,.98-2.04,2.34-3.87,4.08-2.02,1.92-3,2.95-2.95,3.09,.05,.14,.38,.07,.98-.21,2.81-1.17,4.8-1.85,5.98-2.04,1.59-.23,2.04,.45,1.34,2.04-.66,1.97-2.81,3.61-6.47,4.92-.7,.24-1.12,.19-1.27-.14-.09-.23,.02-.44,.35-.63,2.95-1.64,4.22-2.74,3.8-3.3-.19-.33-1.85,.09-4.99,1.27-1.03,.38-1.85,.59-2.46,.63-.66,.24-1.08,.21-1.27-.07-.09-.14-.05-.35,.14-.63,.66-.94,1.22-1.57,1.69-1.9,.47-.37,1.92-1.9,4.36-4.57,1.69-1.92,2.51-2.91,2.46-2.95-.09-.19-.98-.05-2.67,.42-1.45,.42-2.32,.66-2.6,.7-.28,0-.52,.02-.7,.07-1.12,.28-1.71-.09-1.76-1.12-.09-.61,.21-.89,.91-.84,.52,0,1.71-.28,3.59-.84Zm1.05-9c2.3-.94,3.68-1.43,4.15-1.48,.56,0,1.08,.09,1.55,.28,.14,.14,.3,.19,.49,.14,1.69,.38,1.83,1.15,.42,2.32-.47,.42-1.01,.87-1.62,1.34-4.5,3.19-7.41,4.88-8.72,5.06-.75,.09-1.15,0-1.2-.28-.09-.37,.07-.66,.49-.84,1.5-.61,3.19-1.57,5.06-2.88,2.16-1.5,3.21-2.34,3.16-2.53-.09-.14-1.22,.14-3.38,.84-2.63,.84-4.45,1.24-5.48,1.2-.61-.05-.82-.49-.63-1.34,.28-1.03,.73-1.45,1.34-1.27,.8,.24,2.25,.05,4.36-.56Zm10.62,29.04c.33,.14,.59,.56,.77,1.27,.19,.42,.07,.77-.35,1.05-3.56,2.77-8.32,5.55-14.27,8.37-.56,.19-1.08,.19-1.55,0-.56-.28-.82-.59-.77-.91,.09-.28,.38-.52,.84-.7,3.47-1.55,6.28-2.98,8.44-4.29,2.44-1.45,4.45-2.98,6.05-4.57,.28-.33,.56-.4,.84-.21Z"/>
      <path class="cls-1" d="M92.2,50.66c-1.31,2.16-2.98,4.08-4.99,5.77-3.14,2.53-6.21,4.08-9.21,4.64-.7,.14-1.12,.05-1.27-.28-.05-.28,.09-.52,.42-.7,.94-.52,2.13-1.15,3.59-1.9,3.23-1.64,5.72-3.4,7.45-5.27,.84-.89,1.57-1.85,2.18-2.88-3.09-1.08-5.02-1.52-5.77-1.34-.75,.19-1.41,.66-1.97,1.41-.47,.66-.87,.75-1.2,.28-.33-.52-.28-1.05,.14-1.62,.84-1.03,1.64-1.64,2.39-1.83,1.59-.47,4.1-.14,7.52,.98,.61-1.36,1.12-2.77,1.55-4.22,1.12-4.5,1.66-7.05,1.62-7.66-.05-.33-.38-.47-.98-.42-1.55,.09-3.19,.17-4.92,.21-.75,.09-1.15-.59-1.2-2.04-.28-1.41,.66-4.17,2.81-8.3,1.73-3.33,2.46-5.13,2.18-5.41-.33-.42-.8-.54-1.41-.35-1.08,.38-2.81,.98-5.2,1.83-2.91,1.03-4.57,1.38-4.99,1.05-.38-.37-.47-.7-.28-.98,.56-.7,.94-.98,1.12-.84,.47,.24,4.22-.91,11.25-3.45,.8-.33,1.22,.17,1.27,1.48,.47,1.78-.31,4.64-2.32,8.58-1.83,3.52-2.65,5.55-2.46,6.12-.05,.42,1.83,.42,5.62,0,1.31-.23,1.9,.45,1.76,2.04-.24,3.66-1.22,7.59-2.95,11.81-.19,.38-.38,.77-.56,1.2,3.23,1.12,7.05,2.7,11.46,4.71,5.11,3.14,10.01,5.58,14.7,7.31,4.41,1.59,8.37,2.3,11.88,2.11,3.38-.19,6.07-.26,8.09-.21,1.97-.05,3.02,.35,3.16,1.2,.19,.84-.56,1.27-2.25,1.27-2.95-.05-5.93,0-8.93,.14-3.94,.19-7.97-.49-12.09-2.04-4.64-1.78-9.56-4.24-14.77-7.38-5.06-2.2-9.21-3.87-12.45-4.99Zm24.61-33.96c.05-2.11,.09-4.31,.14-6.61-.89,.19-1.85,.42-2.88,.7-4.31,.98-6.92,1.45-7.8,1.41-.7-.05-1.12-.44-1.27-1.2-.09-.8-.05-1.29,.14-1.48,.14-.23,.59-.19,1.34,.14,.84,.14,3.45-.23,7.8-1.12,.94-.28,1.83-.44,2.67-.49,.05-.42,.07-.8,.07-1.12-.05-2.53-.14-3.89-.28-4.08-.19-.33-.7-.66-1.55-.98-.66-.37-.96-.73-.91-1.05,.05-.33,.23-.56,.56-.7,.47-.19,1.12-.12,1.97,.21,.75,.28,1.29,.73,1.62,1.34,.33,.61,.49,1.43,.49,2.46v3.59c2.39-.52,4.15-.8,5.27-.84,1.87-.14,3.12,.14,3.73,.84,.8,1.03,1.17,1.99,1.12,2.88-.19,.66-.59,1.78-1.2,3.38-.24,.28-.38,.59-.42,.91,.94-.14,1.92-.23,2.95-.28,1.92-.14,3.66,.02,5.2,.49,.98,.24,1.57,.59,1.76,1.05,.19,.47,.12,.94-.21,1.41-.33,.52-.8,.63-1.41,.35-.84-.47-1.71-.73-2.6-.77-1.5-.19-3.54-.19-6.12,0-.33,.05-.59,.09-.77,.14-.24,.42-.45,.8-.63,1.12-.61,.75-1.22,1.36-1.83,1.83-.66,.52-1.08,.75-1.27,.7-.75-.23-.84-.66-.28-1.27,.75-.94,1.34-1.64,1.76-2.11-1.83,.14-3.59,.45-5.27,.91-.05,.56-.07,1.12-.07,1.69-.14,1.03-.24,2.06-.28,3.09,2.77-.84,5.06-1.27,6.89-1.27,.56,.05,.82,.31,.77,.77-.05,.33,0,.59,.14,.77,.19,.42,.05,.73-.42,.91-.89,.38-1.78,.94-2.67,1.69-1.27,.94-2.98,2.06-5.13,3.38-.09,1.03-.14,1.99-.14,2.88,3.19-1.08,5.62-1.69,7.31-1.83,1.87-.23,2.37,.56,1.48,2.39-1.36,2.63-4.29,4.71-8.79,6.26,.05,.75,.09,1.48,.14,2.18,3-.7,5.93-1.05,8.79-1.05,.38,0,.59-.07,.63-.21,0-.09-.52-.73-1.55-1.9-.19-.33-.21-.56-.07-.7,.23-.23,.38-.28,.42-.14,1.31,.52,2.41,1.05,3.3,1.62,.98,.7,1.62,1.08,1.9,1.12,.38,.28,.4,.59,.07,.91-.19,.24-.26,.52-.21,.84,.09,.42-.31,.61-1.2,.56-3.47-.37-7.48-.05-12.02,.98,0,2.77-.02,4.5-.07,5.2-.24,.98-.28,1.99-.14,3.02,.05,1.03,.05,1.71,0,2.04-.14,.33-.14,.8,0,1.41,.14,.52,.12,.91-.07,1.2-.24,.33-.73,.35-1.48,.07-.8-.23-1.1-.66-.91-1.27,.23-.8,.28-1.69,.14-2.67-.14-1.41-.07-2.81,.21-4.22,.14-.8,.19-2.2,.14-4.22-4.03,1.08-7.66,2.2-10.9,3.38-1.41,.47-2.63,.68-3.66,.63-1.17-.23-1.31-.87-.42-1.9,.47-.52,.87-.7,1.2-.56,.23,.14,.59,.19,1.05,.14,.89-.09,2.2-.44,3.94-1.05,2.86-1.03,5.79-1.92,8.79-2.67-.05-.7-.07-1.41-.07-2.11-.89,.19-1.71,.38-2.46,.56-.7,.09-1.12-.02-1.27-.35,0-.33,.16-.52,.49-.56,1.08-.42,2.13-.8,3.16-1.12-.09-1.22-.12-2.41-.07-3.59-1.31,.38-2.74,.87-4.29,1.48-2.25,.8-4.1,1.27-5.55,1.41-1.03,.05-1.64-.14-1.83-.56-.09-.28,.07-.59,.49-.91,1.45-1.12,2.62-1.9,3.52-2.32,.75-.42,3.4-2.06,7.95-4.92,.05-1.03,.14-1.99,.28-2.88-.14-.05-.24-.05-.28,0-3.33,1.17-5.34,1.83-6.05,1.97-.61,.19-1.12,.31-1.55,.35-1.08,.28-1.69-.07-1.83-1.05-.09-.61,.21-.91,.91-.91,.89,0,3.05-.59,6.47-1.76,.84-.37,1.69-.66,2.53-.84,.09-1.55,.21-3.19,.35-4.92-3.14,.75-6.21,1.71-9.21,2.88-3.38,1.22-6.19,2.13-8.44,2.74-.66,.09-1.15-.02-1.48-.35-.38-.33-.49-.73-.35-1.2,.05-.33,.38-.56,.98-.7,2.11-.56,6.26-1.85,12.45-3.87,1.92-.66,3.96-1.22,6.12-1.69Zm-1.05,14.06c-.24,.09-.45,.21-.63,.35-4.03,2.3-6.02,3.59-5.98,3.87,.09,.33,.87,.21,2.32-.35,1.5-.66,2.91-1.15,4.22-1.48,0-.84,.02-1.64,.07-2.39Zm2.04,6.33v.49c3.8-1.73,5.46-3.12,4.99-4.15-.28-.52-1.97-.28-5.06,.7,0,1.22,.02,2.2,.07,2.95Zm.21-9.49c2.72-1.78,4.05-2.74,4.01-2.88-.24-.37-1.5-.19-3.8,.56-.14,.8-.21,1.57-.21,2.32Zm7.1-12.45c.19-.47,.38-.94,.56-1.41,.56-1.41,.87-2.39,.91-2.95,0-.52-.28-1.08-.84-1.69-.24-.19-1.08-.26-2.53-.21-.98,.05-2.42,.31-4.29,.77,0,2.39-.02,4.59-.07,6.61,.61-.23,1.22-.37,1.83-.42,1.41-.33,2.88-.56,4.43-.7Z"/>
      <path class="cls-1" d="M161.06,29.98c.42,.56,.66,1.22,.7,1.97,.09,.75-.09,2.06-.56,3.94-.66,3-1.12,5.93-1.41,8.79-.28,3.05-.26,5.23,.07,6.54,1.87-2.58,3.47-5.23,4.78-7.95,1.55-3.09,2.95-6.77,4.22-11.04,.14-.37,.35-.54,.63-.49,.28,.09,.4,.35,.35,.77-.7,3.42-1.85,7.13-3.45,11.11-1.59,3.84-2.98,6.7-4.15,8.58-.8,1.27-1.29,2.13-1.48,2.6-.14,.33-.42,.77-.84,1.34-.28,.38-.59,.54-.91,.49-.28-.09-.49-.35-.63-.77-.38-1.31-.66-2.77-.84-4.36-.09-1.64,.02-4.1,.35-7.38,.38-3.23,.8-5.93,1.27-8.09,.42-1.69,.56-2.95,.42-3.8-.09-1.64-1.62-3.12-4.57-4.43-.38-.19-.4-.63-.07-1.34,.38-.61,.8-.82,1.27-.63,2.39,1.22,4.01,2.6,4.85,4.15Zm7.45-17.65c1.03,1.5,1.71,2.88,2.04,4.15,.33,1.08,.07,1.85-.77,2.32-1.55,1.03-3.16,1.64-4.85,1.83-.75,.09-1.29-.21-1.62-.91-.24-.52-.12-.75,.35-.7,1.03-.14,2.27-.44,3.73-.91,.42-.14,.7-.42,.84-.84s.12-.8-.07-1.12c-.52-1.12-1.2-2.25-2.04-3.38-.66-.89-1.34-1.64-2.04-2.25-.09-.14-.31-.21-.63-.21-.33-.05-.35-.59-.07-1.62,.23-.84,.73-.96,1.48-.35,1.41,1.12,2.62,2.46,3.66,4.01Zm15.61,5.06c.7,.05,1.08,.21,1.12,.49,.09,.33,.05,.59-.14,.77-.28,.28-.45,.63-.49,1.05-.05,.47-.17,.73-.35,.77-.24,.09-.49,.05-.77-.14-.14-.14-.35-.21-.63-.21-.28,.05-.59,.09-.91,.14-.66,4.31-1.92,9.35-3.8,15.12,1.87-1.59,4.73-4.24,8.58-7.95,.33-.52,.52-1.01,.56-1.48,.05-.19,.16-.3,.35-.35,.23-.05,.52,.17,.84,.63,.38,.47,.28,1.12-.28,1.97-5.67,6-9.17,9.49-10.48,10.48-1.5,1.12-2.7,1.78-3.59,1.97-1.69,.33-2.63,.4-2.81,.21-.33-.28-.33-.94,0-1.97,.09-.47,.28-.63,.56-.49,.42,.24,.87,.28,1.34,.14,.52-.14,1.15-.42,1.9-.84,1.5-3.89,2.62-7.19,3.38-9.91,.56-2.48,.91-4.78,1.05-6.89-.75,.28-1.62,.59-2.6,.91-1.83,.7-2.88,1.08-3.16,1.12-.28,0-.66-.02-1.12-.07-.75-.14-1.15-.56-1.2-1.27-.09-.56,0-.94,.28-1.12,.33-.23,.66-.28,.98-.14,.28,.14,.59,.19,.91,.14,.47-.14,1.5-.52,3.09-1.12,2.34-.94,3.96-1.5,4.85-1.69,.98-.23,1.83-.33,2.53-.28Zm-11.18,34.45c.52-.28,.91-.12,1.2,.49,.89,1.73,2.06,2.7,3.52,2.88,.47,.09,1.22-.23,2.25-.98,1.55-1.08,3.09-1.55,4.64-1.41,.98,.09,1.9,.05,2.74-.14,1.08-.23,2.2-.14,3.38,.28,.89,.24,1.76,.12,2.6-.35,3.28-1.97,5.84-3.05,7.66-3.23,2.2-.28,3.75-.12,4.64,.49,.94,.56,1.64,1.29,2.11,2.18,.52,.98,.4,1.57-.35,1.76-.52,.14-1.22,.45-2.11,.91-1.22,.66-3.02,1.2-5.41,1.62-1.03,.24-1.62,.12-1.76-.35-.05-.33,.16-.52,.63-.56,1.17-.19,2.98-.91,5.41-2.18,.75-.52,.68-1.01-.21-1.48-.38-.28-1.34-.33-2.88-.14-1.36,.19-3.61,1.22-6.75,3.09-1.41,.8-2.88,.98-4.43,.56-.98-.33-1.85-.47-2.6-.42-.7,.05-1.48,.05-2.32,0-1.31-.09-2.63,.38-3.94,1.41-1.12,.75-2.2,1.1-3.23,1.05-2.53-.28-4.38-1.64-5.55-4.08-.24-.47,.02-.94,.77-1.41Zm17.09-35.86c-.19-1.59-.45-2.55-.77-2.88-.05-.05-.09-.07-.14-.07-.09,.05-.17,.09-.21,.14-.7,.42-1.27,.61-1.69,.56-.42-.14-.63-.35-.63-.63,0-.23,.28-.59,.84-1.05,1.17-.84,2.48-2.06,3.94-3.66,1.41-1.45,2.27-2.55,2.6-3.3,.28-.61,.26-1.05-.07-1.34-1.03-.98-1.38-1.69-1.05-2.11,.28-.33,.91-.33,1.9,0,.84,.33,1.43,1.01,1.76,2.04,.19,.56,.12,1.15-.21,1.76-.47,.84-1.5,2.13-3.09,3.87-.52,.47-.98,.94-1.41,1.41,3.66-1.31,6.49-2.2,8.51-2.67,1.78-.42,3.75-.54,5.91-.35,.89,.14,1.64,.7,2.25,1.69,.23,.42-.07,2.49-.91,6.19-.98,4.22-1.71,7.17-2.18,8.86-.28,.84-.73,1.36-1.34,1.55-.28,.09-.45,.17-.49,.21v.14c-.09,.33-.49,.59-1.2,.77-.66,.19-1.08,.42-1.27,.7-.19,.28-.38,.33-.56,.14-.24-.19-.94-.07-2.11,.35-.8,.33-1.85,.8-3.16,1.41-1.17,.56-2.13,.98-2.88,1.27-.47,.14-.77,.24-.91,.28-.14,1.64-.21,3.33-.21,5.06,.42,.14,1.22,.05,2.39-.28,1.27-.42,2.77-.94,4.5-1.55,1.69-.61,3.4-1.15,5.13-1.62,1.69-.37,2.84-.56,3.45-.56,.7,0,1.08,.17,1.12,.49,0,.42-.02,.73-.07,.91-.14,.33-.59,.56-1.34,.7-.8,.19-1.36,.45-1.69,.77-.33,.38-.59,.42-.77,.14-.28-.23-1.22-.14-2.81,.28-1.12,.28-2.6,.8-4.43,1.55-1.59,.7-2.91,1.15-3.94,1.34-.75,.14-1.29,.21-1.62,.21-.05,1.64,.09,2.84,.42,3.59,.09,.24,.12,.49,.07,.77,4.12-1.45,8.37-2.48,12.73-3.09,3.61-.47,6.89-.54,9.84-.21,1.83,.28,3.05,.8,3.66,1.55,.8,1.12,1.17,2.27,1.12,3.45-.33,2.2-1.43,5.27-3.3,9.21-.24,.56-.49,1.22-.77,1.97-.94,2.72-2.88,5.72-5.84,9-.61,.66-1.5,.89-2.67,.7-4.92-.89-9.21-3.12-12.87-6.68-.24-.28-.26-.59-.07-.91,.19-.28,.45-.33,.77-.14,2.48,1.97,4.88,3.33,7.17,4.08,3.05,1.08,5.02,1.55,5.91,1.41,.23-.14,.7-.59,1.41-1.34,1.92-2.34,3.26-4.59,4.01-6.75,.19-.47,.52-1.29,.98-2.46,1.83-4.22,2.74-7.03,2.74-8.44-.05-.75-.24-1.29-.56-1.62-.75-.66-2.2-1.01-4.36-1.05-3.56-.05-7.13,.28-10.69,.98-4.74,.98-9.02,2.34-12.87,4.08-.66,.28-1.08-.23-1.27-1.55-.05-.23,.09-.42,.42-.56,.7-.37,1.43-.66,2.18-.84-.09-.28-.14-.63-.14-1.05-.05-7.59,.09-13.52,.42-17.79,.47-4.41,.61-7.41,.42-9Zm1.69-2.74c.19,1.5,.3,3.02,.35,4.57,1.78-.7,3.33-1.22,4.64-1.55,1.83-.47,3.3-.7,4.43-.7,.56,.05,.98,.24,1.27,.56,.75,.8,.7,1.76-.14,2.88-.98,1.31-2.42,2.7-4.29,4.15-1.92,1.41-3.47,2.34-4.64,2.81-.8,.33-1.29,.4-1.48,.21-.05-.05-.05-.07,0-.07-.14,.94-.24,1.85-.28,2.74,.28-.09,.7-.23,1.27-.42,.89-.33,1.97-.77,3.23-1.34s2.53-1.05,3.8-1.48c.84-.37,1.55-.59,2.11-.63,.09-.47,.28-.73,.56-.77,.47-.19,.73-.44,.77-.77,.38-1.27,.87-3.05,1.48-5.34,.56-2.16,1.01-4.15,1.34-5.98,.09-.84-.24-1.57-.98-2.18-.94-.33-2.56-.21-4.85,.35-3.14,.8-6,1.78-8.58,2.95Zm.28,11.46c-.05,.19-.07,.42-.07,.7,.09-.14,.21-.23,.35-.28,1.97-1.31,3.75-2.67,5.34-4.08,1.12-.98,1.9-1.83,2.32-2.53,.19-.56,.14-.98-.14-1.27-.05-.09-.24-.12-.56-.07-.61,.09-1.57,.38-2.88,.84-1.27,.42-2.67,1.08-4.22,1.97-.05,1.59-.09,3.16-.14,4.71Z"/>
    </g>
  </g>
</svg>