<svg width="1" height="1" viewBox="0 0 1 1" fill="none" xmlns="http://www.w3.org/2000/svg">
    <path
        d="M0.891428 0.339487V0.197565L0.499933 0.000427246L0.13864 0.204167L0.140418 0.318209L0.000457764 0.407907V0.800679L0.349372 0.991382H0.39727L0.496483 0.926271L0.636354 0.999547L0.999568 0.79086V0.401396L0.891428 0.339487ZM0.276822 0.802364L0.145719 0.738801V0.360584L0.161584 0.349262L0.276804 0.412763L0.276822 0.802364ZM0.407818 0.72411V0.813443H0.393713V0.365395L0.294519 0.314779L0.290997 0.297006L0.72324 0.51864L0.797872 0.474656L0.80648 0.484446L0.407818 0.72411ZM0.859537 0.720877L0.54166 0.914812L0.507706 0.894885V0.780251L0.683621 0.673069L0.859537 0.565887V0.720877ZM0.781686 0.388328C0.781686 0.388328 0.750809 0.41847 0.689482 0.388328C0.625771 0.357048 0.36353 0.220482 0.36353 0.220482L0.429321 0.170397C0.429321 0.170397 0.481844 0.126611 0.561972 0.168258C0.63374 0.205654 0.726798 0.274256 0.769218 0.297021C0.811816 0.31997 0.859555 0.326435 0.859555 0.326435L0.781686 0.388328Z"
        stroke="#808080" stroke-width="0.5" stroke-miterlimit="10" />
</svg>