<?xml version="1.0" encoding="UTF-8"?>
<svg id="_圖層_2" data-name="圖層 2" xmlns="http://www.w3.org/2000/svg" viewBox="0 0 99.89 21.73">
  <defs>
    <style>
      .cls-1 {
        fill: #fff;
      }
    </style>
  </defs>
  <g id="_圖層_4" data-name="圖層 4">
    <g>
      <path class="cls-1" d="M7.24,21.36c-.33-.02-.76-.04-1.27-.07-.51-.02-1.1-.03-1.74-.03l-2.38,.03c-.42,.02-1.02,.03-1.78,.03-.05,0-.07-.07-.07-.2s.02-.2,.07-.2c.76,0,1.31-.06,1.66-.17,.35-.11,.59-.33,.72-.65,.13-.32,.2-.82,.2-1.49V3.08c0-.67-.06-1.16-.18-1.48-.12-.31-.36-.53-.72-.65-.36-.12-.91-.18-1.64-.18-.04,0-.07-.07-.07-.2s.02-.2,.07-.2l1.78,.03c.98,.04,1.77,.07,2.35,.07,.89,0,1.8-.03,2.72-.1,1.12-.04,1.87-.07,2.25-.07,2.28,0,4.3,.45,6.07,1.34,1.77,.89,3.13,2.11,4.11,3.66,.97,1.54,1.46,3.28,1.46,5.2,0,2.17-.5,4.09-1.51,5.75-1.01,1.67-2.36,2.95-4.06,3.86-1.7,.91-3.57,1.36-5.6,1.36-.69,0-1.5-.03-2.41-.1Zm6.19-1.68c1.2-.74,2.13-1.83,2.8-3.27,.67-1.44,1.01-3.17,1.01-5.18s-.32-3.66-.96-5.21c-.64-1.55-1.54-2.78-2.7-3.69s-2.51-1.36-4.06-1.36c-.94,0-1.67,.06-2.18,.17-.51,.11-.89,.32-1.12,.62-.24,.3-.35,.77-.35,1.39v15.09c0,.92,.24,1.57,.7,1.96,.47,.39,1.39,.59,2.75,.59,1.54,0,2.91-.37,4.11-1.11Z"/>
      <path class="cls-1" d="M30.03,20.27c-1.62-.97-2.87-2.29-3.75-3.96-.88-1.67-1.33-3.48-1.33-5.45,0-2.3,.58-4.28,1.74-5.92,1.16-1.64,2.65-2.88,4.48-3.71,1.82-.83,3.68-1.24,5.58-1.24,2.12,0,3.99,.5,5.6,1.49,1.61,1,2.84,2.31,3.71,3.94,.86,1.63,1.29,3.37,1.29,5.2,0,2.03-.54,3.9-1.61,5.6s-2.51,3.04-4.31,4.02c-1.8,.98-3.75,1.48-5.85,1.48s-3.93-.49-5.55-1.46Zm10.29-.44c1.06-.73,1.9-1.79,2.51-3.2,.61-1.41,.92-3.08,.92-5.03,0-2.06-.34-3.9-1.02-5.53s-1.65-2.91-2.92-3.82c-1.26-.92-2.75-1.37-4.44-1.37-2.17,0-3.85,.78-5.05,2.33-1.2,1.55-1.79,3.71-1.79,6.46,0,2.12,.35,4.05,1.06,5.77s1.68,3.07,2.92,4.04c1.24,.97,2.64,1.46,4.21,1.46,1.34,0,2.54-.36,3.61-1.09Z"/>
      <path class="cls-1" d="M56.55,20.27c-1.62-.97-2.87-2.29-3.75-3.96-.88-1.67-1.33-3.48-1.33-5.45,0-2.3,.58-4.28,1.74-5.92,1.16-1.64,2.65-2.88,4.48-3.71,1.82-.83,3.68-1.24,5.58-1.24,2.12,0,3.99,.5,5.6,1.49,1.61,1,2.84,2.31,3.71,3.94,.86,1.63,1.29,3.37,1.29,5.2,0,2.03-.54,3.9-1.61,5.6s-2.51,3.04-4.31,4.02c-1.8,.98-3.75,1.48-5.85,1.48s-3.93-.49-5.55-1.46Zm10.29-.44c1.06-.73,1.9-1.79,2.51-3.2,.61-1.41,.92-3.08,.92-5.03,0-2.06-.34-3.9-1.02-5.53s-1.65-2.91-2.92-3.82c-1.26-.92-2.74-1.37-4.44-1.37-2.17,0-3.85,.78-5.05,2.33-1.2,1.55-1.79,3.71-1.79,6.46,0,2.12,.35,4.05,1.06,5.77s1.68,3.07,2.92,4.04c1.24,.97,2.64,1.46,4.21,1.46,1.34,0,2.54-.36,3.6-1.09Z"/>
      <path class="cls-1" d="M99.89,21.12c0,.13-.03,.2-.1,.2h-5.4c-.51,0-1.47-.89-2.87-2.68-1.4-1.79-3.09-4.29-5.08-7.51-.49,.04-.87,.07-1.14,.07-.49,0-1.07-.02-1.74-.07v7.48c0,.69,.06,1.2,.18,1.51,.12,.31,.36,.53,.7,.64,.35,.11,.9,.17,1.66,.17,.04,0,.07,.07,.07,.2s-.02,.2-.07,.2c-.74,0-1.31-.01-1.71-.03l-2.48-.03-2.41,.03c-.42,.02-1.01,.03-1.74,.03-.07,0-.1-.07-.1-.2s.03-.2,.1-.2c.76,0,1.31-.06,1.66-.17,.35-.11,.59-.33,.72-.65s.2-.82,.2-1.49V3.08c0-.67-.06-1.16-.18-1.48-.12-.31-.36-.53-.72-.65-.36-.12-.91-.18-1.64-.18-.04,0-.07-.07-.07-.2s.02-.2,.07-.2l1.74,.03c.98,.04,1.78,.07,2.38,.07,.74,0,1.54-.03,2.41-.1,.29-.02,.64-.04,1.06-.07,.41-.02,.88-.03,1.39-.03,1.94,0,3.45,.38,4.51,1.14,1.06,.76,1.59,1.82,1.59,3.19,0,1.23-.34,2.34-1.02,3.32-.68,.98-1.59,1.77-2.73,2.35,1.83,2.71,3.36,4.82,4.59,6.34,1.23,1.52,2.32,2.62,3.27,3.3s1.88,1.02,2.8,1.02c.07,0,.1,.07,.1,.2Zm-14.38-10.76c1.45,0,2.49-.36,3.12-1.09s.94-1.89,.94-3.5c0-1.81-.31-3.07-.92-3.79-.61-.72-1.5-1.07-2.67-1.07-.87,0-1.49,.16-1.86,.49s-.55,.91-.55,1.76v7.08c.54,.09,1.18,.13,1.95,.13Z"/>
    </g>
  </g>
</svg>