<?xml version="1.0" encoding="UTF-8"?>
<svg id="_圖層_2" data-name="圖層 2" xmlns="http://www.w3.org/2000/svg" viewBox="0 0 148.4 22.37">
  <defs>
    <style>
      .cls-1 {
        fill: #fff;
      }
    </style>
  </defs>
  <g id="_圖層_4" data-name="圖層 4">
    <g>
      <path class="cls-1" d="M9.84,22.2c-2.69,0-5.37-.04-8.06,.02-.91,.02-1.2-.22-1.19-1.17,.03-2.42-.02-2.42,2.47-2.42,4.01,0,8.01,.01,12.02,0,1.99,0,2.8-.71,2.8-2.34,0-1.85-1-2.84-2.87-2.85-3.02,0-6.03,.04-9.05-.01C2.71,13.36,.37,11.07,.05,7.73-.31,4.04,1.43,1.12,4.48,.34c.45-.12,.93-.16,1.39-.16,4.62-.01,9.24,.02,13.86-.03,.99-.01,1.27,.24,1.24,1.24-.06,2.38,0,2.38-2.37,2.38-3.86,0-7.73,0-11.59,0-1.84,0-2.04,.18-2.3,2.05-.31,2.25,.43,3.14,2.64,3.14,3.11,0,6.22,0,9.33,0,2.79,0,4.78,1.34,5.88,3.84,1.12,2.55,1.15,5.13-.6,7.47-1.02,1.36-2.5,1.95-4.2,1.95-2.64,0-5.28,0-7.92,0v-.02Z"/>
      <path class="cls-1" d="M95.59,8.56c-.27,2.64,.47,5.85-.47,9.01-.73,2.46-2.33,3.92-4.93,4.09-3.62,.23-7.25,.04-10.88-.05-3-.07-5.11-2.95-5.95-5.65-.63-2-.74-4.05-.7-6.12,.05-2.87,.03-5.75,0-8.62,0-.74,.09-1.14,.97-1.06,1.44,.14,3.31-.59,4.19,.31,.69,.72,.22,2.59,.23,3.94,.01,2.87,0,5.75,0,8.62,0,.66,.04,1.32,.12,1.97,.14,1.05,.64,1.58,1.83,1.68,2.78,.23,5.55,.17,8.33,.15,1.62,0,2.2-.61,2.6-2.23,.17-.7,.21-1.39,.21-2.1,0-3.72,.02-7.44-.02-11.16,0-.84,.1-1.22,1.11-1.21,3.35,.03,3.35-.02,3.35,3.36v5.06Z"/>
      <path class="cls-1" d="M56.03,12.7c0,2.54-.04,5.39,.02,8.25,.02,.95-.19,1.29-1.22,1.28-3.28-.03-3.28,.01-3.28-3.3,0-5.84,.02-11.68-.02-17.52,0-.95,.18-1.28,1.21-1.27,3.29,.04,3.29,0,3.29,3.26,0,1.5,0,3,0,4.51,.1,.08,.2,.17,.3,.25,1.3-1.37,2.59-2.76,3.92-4.11,1.29-1.31,2.41-3.09,3.98-3.71,1.63-.65,3.71-.16,5.6-.17,.14,0,.28,.02,.64,.06-1.56,1.77-3.03,3.44-4.5,5.11-1.19,1.34-2.33,2.72-3.59,3.99-.79,.79-.7,1.33,0,2.11,3.1,3.48,6.15,7,9.44,10.75-2.06,0-3.86,.04-5.65-.04-.33-.01-.64-.49-.95-.78-3.09-2.91-6.17-5.82-9.19-8.67Z"/>
      <path class="cls-1" d="M139.54,3.96c-1.38-3.25-3.24-4.38-6.54-3.83-.68,.11-1.07,.25-1.37,.89-1.1,2.34-2.25,4.65-3.38,6.97-1.94,3.98-3.88,7.96-5.9,12.1-1.83-2.34-3.55-4.55-5.32-6.82,.56-.18,.96-.29,1.36-.44,2.87-1.11,4.64-4.35,4.06-7.45-.63-3.41-2.8-5.21-6.29-5.21-5.05,0-10.09,.03-15.14-.03-1.02-.01-1.22,.29-1.21,1.25,.05,5.98,.02,11.97,.02,17.95,0,2.88,0,2.79,2.94,2.91,1.37,.05,1.7-.3,1.68-1.67-.09-5.23-.04-10.46-.03-15.69,0-.49-.28-1.16,.72-1.15,3.39,.04,6.79,.03,10.18,.03,.9,0,1.48,.46,1.89,1.22,1.05,1.95-.05,3.88-2.31,3.92-2.69,.05-5.37,.01-8.24,.01,.13,.28,.17,.41,.25,.51,3.24,4.04,6.49,8.07,9.72,12.12,.43,.54,.91,.68,1.58,.67,2.69-.03,5.38-.04,8.06,0,.76,.01,1.17-.17,1.48-.91,.51-1.26,1.22-2.43,1.77-3.68,.25-.57,.59-.75,1.19-.74,1.7,.03,3.39,0,5.09,.01,1.55,0,3.39-.47,4.59,.19,1.27,.69,1.5,2.7,2.24,4.11,.07,.12,.15,.24,.19,.38,.15,.47,.45,.64,.95,.64,1.48-.03,2.96,0,4.62,0-3.05-6.2-6.25-12.11-8.86-18.27Zm-7.23,9.29c-.82,0-.45-.53-.31-.86,.94-2.29,1.9-4.57,3-7.18,1.25,2.8,2.36,5.29,3.6,8.05-2.23,0-4.26,0-6.29,0Z"/>
      <path class="cls-1" d="M41.24,4.01c-.62-1.26-.99-3-2.01-3.6-1.09-.64-2.82-.16-4.27-.25-.81-.05-1.22,.21-1.57,.98-2.56,5.63-5.19,11.23-7.79,16.84-.64,1.37-1.25,2.76-1.88,4.17,1.91,0,3.94,.55,5.29-.17,1.14-.61,1.53-2.67,2.18-4.13,.31-.69,.72-.95,1.5-.94,2.87,.05,5.75,.08,8.62,0,1.04-.03,1.48,.39,1.89,1.24,.66,1.37,.9,3.33,2.18,3.93,1.27,.6,3.04,.13,4.79,.13-3.03-6.18-5.98-12.19-8.94-18.19Zm-6.97,9.26c-.61,0-.76-.17-.48-.73,1.04-2.13,2.07-4.27,3.16-6.54,1.16,2.46,2.25,4.77,3.43,7.26-2.18,0-4.15-.01-6.11,0Z"/>
    </g>
  </g>
</svg>