<?xml version="1.0" encoding="UTF-8"?>
<svg id="_圖層_2" data-name="圖層 2" xmlns="http://www.w3.org/2000/svg" viewBox="0 0 196.06 150.74">
  <defs>
    <style>
      .cls-1 {
        fill: #fff;
      }

      .cls-2 {
        fill: none;
        stroke: #fff;
        stroke-miterlimit: 10;
        stroke-width: 2px;
      }
    </style>
  </defs>
  <g id="_圖層_1-2" data-name="圖層 1">
    <g>
      <g>
        <g>
          <path class="cls-1" d="M25.59,97.56l.25,9.1h-.49c-.16-.39-.28-.69-.36-.9-.49-1.3-.9-2.27-1.21-2.91-.55-1.14-1.35-2.18-2.39-3.14-.79-.72-1.61-1.24-2.46-1.57-.85-.33-1.8-.49-2.86-.49-1.6,0-2.98,.33-4.15,1-1.03,.58-1.99,1.42-2.88,2.51-.89,1.09-1.62,2.34-2.18,3.74-.8,1.97-1.21,4.21-1.21,6.72,0,2.13,.28,4.05,.83,5.76,.55,1.71,1.36,3.14,2.41,4.3,1.95,2.14,4.53,3.22,7.75,3.22,1.61,0,3.06-.27,4.34-.8,1.28-.54,2.28-1.29,2.99-2.27,.82-1.13,1.41-2.65,1.78-4.56l.49,.08c-.27,2.14-.88,3.85-1.82,5.11-.9,1.21-2.15,2.13-3.74,2.77-1.59,.64-3.43,.96-5.52,.96-1.95,0-3.81-.28-5.59-.83-2.84-.9-5.05-2.51-6.65-4.86-1.6-2.34-2.39-5.13-2.39-8.38,0-2.48,.47-4.77,1.4-6.87,.93-2.1,2.23-3.78,3.9-5.06,1.28-.98,2.82-1.75,4.61-2.33,1.79-.58,3.57-.87,5.37-.87s3.51,.31,5.42,.94l1.74,.55c.34,.12,.64,.18,.89,.18,.35,0,.64-.14,.87-.43,.1-.14,.22-.36,.36-.67h.51Z"/>
          <path class="cls-1" d="M37.25,125.49v-.49c1.43,0,2.53-.39,3.3-1.16,.44-.43,.74-.99,.9-1.66,.16-.67,.24-1.7,.24-3.08v-15c0-1.44-.09-2.5-.26-3.19-.18-.69-.5-1.24-.98-1.68-.4-.35-.84-.61-1.32-.77-.49-.16-1.11-.26-1.87-.29v-.47h13.53v.47c-.78,.04-1.41,.14-1.91,.31-.49,.16-.93,.42-1.31,.77-.48,.45-.8,1.01-.97,1.69-.17,.68-.25,1.73-.25,3.16v11.75c0,1.81,.05,3.15,.15,4.03,.1,.88,.29,1.6,.57,2.16,.49,.98,1.23,1.69,2.2,2.15,.97,.45,2.27,.68,3.87,.68s3.09-.21,4.25-.64c1.15-.43,2.09-1.09,2.83-1.98,.49-.61,.9-1.3,1.22-2.08,.32-.77,.61-1.79,.88-3.05l.51,.04-.28,8.35h-25.28Z"/>
          <path class="cls-1" d="M104.01,125.49h-13.91v-.47c1.26-.11,2.13-.31,2.63-.61,.88-.53,1.31-1.26,1.31-2.2,0-.56-.2-1.3-.59-2.24l-.36-.86-2.03-4.8h-9.32l-1.1,2.81-.53,1.26c-.64,1.49-.95,2.67-.95,3.52,0,.5,.12,.97,.35,1.4,.23,.43,.55,.79,.94,1.06,.55,.37,1.26,.58,2.12,.65v.47h-9.49v-.47c.75-.04,1.4-.22,1.97-.53,.56-.31,1.11-.81,1.65-1.51,.45-.56,.89-1.27,1.32-2.15,.43-.88,1-2.19,1.7-3.94l7.75-19.2h1.21l9.21,21.4c.69,1.62,1.24,2.77,1.65,3.46,.41,.69,.85,1.21,1.33,1.57,.34,.24,.73,.43,1.16,.56,.44,.13,1.09,.24,1.97,.34v.47Zm-13.3-12.01l-4.45-10.55-4.19,10.55h8.64Z"/>
          <path class="cls-1" d="M174.81,125.49v-.47c.8-.04,1.46-.15,1.97-.33,.51-.18,.96-.46,1.36-.86,.44-.43,.73-.98,.89-1.65,.16-.66,.23-1.7,.23-3.09l.02-3.97c0-.57-.12-1.2-.36-1.89-.27-.8-.82-1.81-1.65-3.01l-5.48-7.92-.97-1.43c-.72-1.03-1.43-1.74-2.12-2.12-.35-.2-.71-.35-1.06-.43-.35-.08-.85-.14-1.48-.16v-.47h13.8v.47c-1.17,.07-1.92,.17-2.24,.31-.79,.33-1.19,.92-1.19,1.77,0,.31,.09,.67,.26,1.06,.18,.39,.46,.89,.86,1.49l5.74,8.63,4.91-7.37,.55-.83c.52-.79,.78-1.56,.78-2.32,0-.87-.29-1.54-.87-2.02-.58-.47-1.39-.71-2.43-.71v-.47h9.74v.47c-.73,.08-1.3,.2-1.69,.36-.4,.16-.8,.41-1.21,.76-.96,.87-2.03,2.16-3.2,3.89l-4.83,7.08c-.58,.84-.93,1.46-1.06,1.85-.13,.39-.19,1.06-.19,2v4.99c0,1.45,.07,2.49,.22,3.12s.45,1.17,.9,1.62c.78,.79,1.88,1.18,3.32,1.18v.47h-13.53Z"/>
        </g>
        <path class="cls-1" d="M129.57,114.57c-.54-.91-1.19-1.64-1.95-2.19-.03-.03-.07-.05-.11-.08-.73-.51-1.47-.9-2.23-1.17-.8-.28-1.46-.5-1.99-.66l-5.01-1.57c-.72-.22-1.43-.48-2.13-.77-.7-.29-1.34-.65-1.91-1.08-.57-.43-1.03-.96-1.38-1.57-.36-.62-.54-1.37-.54-2.26,0-1.11,.23-2.02,.68-2.73,.46-.72,1.03-1.3,1.72-1.74,.69-.44,1.44-.75,2.24-.93,.03,0,.06-.01,.09-.02,.77-.17,1.47-.25,2.11-.25,1.19,0,2.23,.21,3.13,.64,.9,.43,1.66,1,2.3,1.7,1.73,1.9,2.9,5.87,2.9,5.87v-8.45c-.34,1.04-1.14,1.31-1.82,1.28-.39-.02-.77-.08-1.14-.25-.38-.17-.8-.35-1.26-.56-.47-.2-1.03-.4-1.68-.56-.65-.17-1.45-.25-2.42-.25-.77,0-1.5,.09-2.19,.23-.51,.11-1,.24-1.47,.43-.43,.17-.83,.38-1.21,.59-.61,.35-1.17,.76-1.67,1.23-.8,.78-1.42,1.7-1.87,2.75-.44,1.07-.66,2.22-.66,3.46,0,1.91,.57,3.43,1.72,4.56,1.15,1.13,2.84,2.04,5.07,2.73l4.76,1.45c.58,.17,1.19,.4,1.84,.71,.65,.3,1.25,.7,1.8,1.18,.55,.48,1.01,1.07,1.37,1.76,.05,.11,.11,.21,.15,.33,.48,.97,.76,2.06,.76,3.22,0,1.91-.74,3.64-1.93,4.9,2.58-1.84,3.63-3.77,4.03-4.74,.48-1.18,.72-2.41,.72-3.71,0-1.41-.27-2.57-.8-3.48Z"/>
        <path class="cls-1" d="M157.69,114.72c-.54-.91-1.19-1.64-1.95-2.19-.03-.03-.07-.05-.11-.08-.73-.51-1.47-.9-2.23-1.17-.8-.28-1.46-.5-1.99-.66l-5.01-1.57c-.72-.22-1.43-.48-2.13-.77-.7-.29-1.34-.65-1.91-1.08-.57-.43-1.03-.96-1.38-1.57-.36-.62-.54-1.37-.54-2.26,0-1.11,.23-2.02,.68-2.73,.46-.72,1.03-1.3,1.72-1.74,.69-.44,1.44-.75,2.24-.93,.03,0,.06-.01,.09-.02,.77-.17,1.47-.25,2.11-.25,1.19,0,2.23,.21,3.13,.64,.9,.43,1.66,1,2.3,1.7,1.73,1.9,2.9,5.87,2.9,5.87v-8.45c-.34,1.04-1.14,1.31-1.82,1.28-.39-.02-.77-.08-1.14-.25-.38-.17-.8-.35-1.26-.56-.47-.2-1.03-.4-1.68-.56-.65-.17-1.45-.25-2.42-.25-.77,0-1.5,.09-2.19,.23-.51,.11-1,.24-1.47,.43-.43,.17-.83,.38-1.21,.59-.61,.35-1.17,.76-1.67,1.23-.8,.78-1.42,1.7-1.87,2.75-.44,1.07-.66,2.22-.66,3.46,0,1.91,.57,3.43,1.72,4.56,1.15,1.13,2.84,2.04,5.07,2.73l4.76,1.45c.58,.17,1.19,.4,1.84,.71,.65,.3,1.25,.7,1.8,1.18,.55,.48,1.01,1.07,1.37,1.76,.05,.11,.11,.21,.15,.33,.48,.97,.76,2.06,.76,3.22,0,1.91-.74,3.64-1.93,4.9,2.58-1.84,3.63-3.77,4.03-4.74,.48-1.18,.72-2.41,.72-3.71,0-1.41-.27-2.57-.8-3.48Z"/>
      </g>
      <g>
        <path class="cls-1" d="M64.61,81.21c-.13-.19-.31-.34-.54-.43-.22-.09-.46-.14-.71-.14-.15,0-.29,.02-.43,.05-.14,.03-.26,.09-.37,.16-.11,.07-.2,.17-.27,.29-.07,.12-.1,.26-.1,.42,0,.24,.08,.43,.25,.55,.17,.13,.38,.24,.62,.33,.25,.09,.52,.18,.81,.27,.29,.09,.57,.21,.81,.36,.25,.15,.46,.36,.62,.61,.17,.25,.25,.59,.25,1.02,0,.38-.07,.72-.21,1-.14,.28-.33,.52-.57,.71-.24,.19-.51,.33-.83,.42-.32,.09-.65,.14-1,.14-.44,0-.87-.07-1.28-.22-.41-.15-.76-.4-1.06-.74l.95-.92c.15,.23,.36,.42,.61,.55,.25,.13,.52,.2,.8,.2,.15,0,.29-.02,.44-.06,.15-.04,.28-.1,.4-.18,.12-.08,.22-.18,.29-.31,.07-.12,.11-.27,.11-.43,0-.26-.08-.46-.25-.6-.17-.14-.38-.26-.62-.36-.25-.1-.52-.19-.81-.28-.3-.09-.57-.21-.81-.36-.25-.15-.46-.35-.62-.6-.17-.25-.25-.59-.25-1.01,0-.37,.08-.69,.23-.95,.15-.27,.35-.49,.59-.67,.24-.18,.52-.31,.84-.4,.31-.09,.64-.13,.97-.13,.38,0,.74,.06,1.09,.17,.35,.11,.67,.3,.95,.56l-.92,.98Z"/>
        <path class="cls-1" d="M74.61,84.18c0,.43-.07,.82-.22,1.16-.15,.35-.35,.64-.6,.88-.25,.24-.56,.43-.9,.56-.35,.13-.73,.2-1.14,.2s-.79-.07-1.14-.2c-.35-.13-.65-.32-.91-.56-.26-.24-.46-.53-.6-.88-.14-.35-.22-.73-.22-1.16v-4.5h1.27v4.46c0,.17,.03,.36,.08,.55,.05,.19,.14,.37,.27,.53,.12,.16,.29,.29,.49,.4,.2,.1,.46,.16,.76,.16s.55-.05,.76-.16c.2-.1,.37-.24,.49-.4,.12-.16,.21-.34,.27-.53,.05-.19,.08-.37,.08-.55v-4.46h1.27v4.5Z"/>
        <path class="cls-1" d="M78.17,79.68h1.68l3.45,5.29h.02v-5.29h1.27v7.12h-1.61l-3.52-5.46h-.02v5.46h-1.27v-7.12Z"/>
        <path class="cls-1" d="M88.19,79.68h1.27v5.97h3.03v1.15h-4.29v-7.12Z"/>
        <path class="cls-1" d="M97.71,79.68h1.1l3.07,7.12h-1.45l-.66-1.63h-3.09l-.64,1.63h-1.42l3.1-7.12Zm1.61,4.4l-1.1-2.9-1.12,2.9h2.21Z"/>
        <path class="cls-1" d="M104.68,79.68h1.68l3.45,5.29h.02v-5.29h1.27v7.12h-1.61l-3.52-5.46h-.02v5.46h-1.27v-7.12Z"/>
        <path class="cls-1" d="M114.69,79.68h2.8c.47,0,.92,.07,1.36,.22,.44,.14,.82,.36,1.16,.66,.34,.29,.6,.67,.8,1.11,.2,.45,.3,.97,.3,1.57s-.12,1.14-.35,1.58c-.23,.45-.53,.81-.89,1.11-.37,.29-.77,.51-1.22,.65-.45,.14-.88,.22-1.31,.22h-2.65v-7.12Zm2.21,5.97c.4,0,.77-.05,1.12-.14s.66-.23,.92-.42c.26-.19,.47-.44,.62-.74,.15-.3,.23-.68,.23-1.11s-.07-.8-.2-1.11c-.13-.31-.32-.56-.56-.75-.24-.19-.52-.33-.84-.42-.33-.09-.68-.14-1.07-.14h-1.16v4.83h.94Z"/>
        <path class="cls-1" d="M124.13,85.52l2.76-2.67c.08-.08,.16-.17,.25-.26,.09-.09,.17-.19,.24-.29,.07-.1,.13-.21,.18-.32,.05-.11,.07-.23,.07-.35,0-.15-.03-.28-.09-.39-.06-.11-.13-.21-.23-.29-.09-.08-.2-.14-.33-.19-.12-.04-.26-.07-.4-.07-.3,0-.55,.09-.74,.26-.19,.17-.31,.41-.35,.7l-1.27-.1c.03-.33,.11-.62,.24-.87,.13-.25,.3-.46,.51-.63,.21-.17,.45-.29,.72-.38,.27-.09,.57-.13,.89-.13s.62,.04,.9,.13c.28,.08,.52,.21,.73,.37,.21,.16,.37,.37,.49,.63,.12,.25,.18,.55,.18,.89,0,.45-.1,.84-.31,1.16-.2,.33-.47,.64-.79,.93l-2.2,2.04h3.3v1.09h-4.76v-1.28Z"/>
        <path class="cls-1" d="M133.47,79.56c.3,0,.58,.04,.85,.13,.26,.08,.5,.2,.69,.36,.2,.16,.35,.35,.47,.58,.11,.23,.17,.5,.17,.8,0,.38-.09,.72-.27,1.01-.18,.29-.45,.49-.81,.59v.02c.17,.03,.33,.1,.49,.21,.16,.1,.3,.23,.42,.38,.12,.15,.22,.32,.29,.52,.07,.19,.11,.4,.11,.62,0,.36-.06,.67-.19,.93-.13,.26-.3,.49-.51,.67-.21,.18-.47,.32-.76,.41-.29,.09-.61,.14-.93,.14s-.65-.05-.94-.14c-.29-.09-.54-.23-.76-.41-.21-.18-.39-.4-.51-.67-.13-.26-.19-.57-.19-.93,0-.22,.04-.43,.11-.62,.07-.19,.17-.37,.29-.52,.12-.15,.26-.28,.42-.38,.16-.1,.32-.17,.49-.21v-.02c-.36-.11-.63-.3-.81-.59-.18-.29-.27-.62-.27-1.01,0-.3,.06-.57,.17-.8,.11-.23,.27-.43,.47-.58,.2-.16,.43-.28,.69-.36,.26-.08,.55-.13,.85-.13Zm0,3.95c-.16,0-.32,.03-.46,.08-.15,.05-.27,.13-.38,.23-.11,.1-.19,.22-.26,.36-.06,.14-.1,.29-.1,.45,0,.34,.11,.62,.34,.83,.22,.21,.51,.32,.86,.32s.63-.11,.86-.32c.22-.21,.34-.49,.34-.83,0-.16-.03-.31-.1-.45-.06-.14-.15-.26-.26-.36-.11-.1-.23-.18-.38-.23-.15-.05-.3-.08-.46-.08Zm0-2.93c-.31,0-.55,.09-.72,.28-.17,.19-.26,.42-.26,.68,0,.28,.09,.52,.26,.71,.17,.19,.41,.29,.71,.29,.13,0,.26-.03,.38-.08,.12-.05,.22-.12,.31-.21,.09-.09,.16-.2,.21-.32,.05-.12,.08-.25,.08-.39,0-.27-.09-.5-.28-.68-.18-.19-.42-.28-.7-.28Z"/>
      </g>
      <g>
        <path class="cls-1" d="M64.63,143.47h7.02v-3.05c0-.65-.04-1.13-.11-1.45-.08-.31-.22-.57-.42-.77-.18-.18-.39-.32-.63-.4-.23-.08-.54-.13-.92-.15v-.22h6.32v.22c-.38,.02-.68,.07-.91,.15-.23,.08-.44,.22-.63,.4-.2,.2-.34,.46-.42,.78-.08,.31-.11,.79-.11,1.44v7.01c0,.65,.04,1.13,.11,1.44,.08,.31,.22,.57,.42,.78,.18,.18,.39,.31,.63,.39,.23,.09,.54,.14,.91,.16v.22h-6.32v-.22c.38-.02,.69-.07,.92-.16,.23-.09,.44-.22,.63-.39,.2-.2,.34-.46,.42-.77,.08-.31,.11-.79,.11-1.45v-3.51h-7.02v3.51c0,.65,.04,1.13,.11,1.44,.08,.31,.22,.57,.42,.78,.18,.18,.38,.31,.62,.39,.23,.09,.54,.14,.92,.16v.22h-6.32v-.22c.38-.02,.69-.07,.92-.16,.23-.09,.44-.22,.62-.39,.21-.2,.35-.46,.43-.77,.07-.31,.11-.79,.11-1.45v-7.01c0-.65-.04-1.13-.11-1.45-.07-.31-.21-.57-.43-.77-.18-.18-.39-.32-.62-.4-.24-.08-.54-.13-.92-.15v-.22h6.32v.22c-.38,.02-.68,.07-.91,.15-.23,.08-.44,.22-.63,.4-.2,.2-.34,.46-.42,.78-.08,.31-.11,.79-.11,1.44v3.05Z"/>
        <path class="cls-1" d="M81.39,144.01c0-1.07,.24-2.05,.71-2.96,.47-.91,1.17-1.71,2.08-2.38,.68-.5,1.41-.89,2.2-1.16,.78-.27,1.58-.4,2.37-.4,1.02,0,2,.21,2.95,.64s1.78,1.03,2.49,1.81c1.16,1.27,1.74,2.71,1.74,4.33,0,.81-.15,1.6-.45,2.35-.3,.76-.75,1.44-1.33,2.07-.71,.77-1.55,1.37-2.53,1.8-.97,.43-1.99,.64-3.05,.64s-2.05-.21-3.01-.62c-.96-.41-1.78-1-2.47-1.75-.55-.59-.97-1.26-1.26-2.01-.29-.75-.44-1.53-.44-2.35Zm2.39,.14c0,1.84,.52,3.39,1.56,4.65,.47,.56,.96,.98,1.49,1.23,.52,.26,1.13,.39,1.82,.39s1.3-.13,1.82-.38c.52-.25,1.02-.67,1.5-1.24,1.04-1.27,1.56-2.83,1.56-4.69,0-1.02-.14-1.99-.43-2.9s-.69-1.68-1.21-2.32c-.42-.52-.89-.9-1.41-1.14-.52-.24-1.13-.36-1.83-.36s-1.3,.12-1.82,.35c-.51,.23-.98,.62-1.42,1.14-.52,.63-.92,1.4-1.21,2.31-.28,.91-.43,1.89-.43,2.94Z"/>
        <path class="cls-1" d="M118.48,137.65c-.38,.02-.68,.07-.91,.15-.23,.08-.44,.21-.63,.39-.15,.13-.25,.28-.33,.44-.07,.16-.12,.37-.15,.61-.05,.33-.07,.72-.07,1.17v7.01c0,.65,.04,1.14,.12,1.46,.08,.32,.22,.57,.43,.76,.36,.34,.87,.52,1.53,.55v.22h-6.32v-.22c.38-.02,.69-.07,.92-.16,.23-.09,.44-.22,.63-.39,.2-.2,.34-.46,.42-.78,.08-.31,.11-.79,.11-1.44v-8.5l-5.09,11.49h-.21l-5.06-11.32v8.33c0,.65,.04,1.13,.11,1.45,.08,.31,.22,.57,.42,.77,.18,.18,.39,.32,.63,.4,.23,.08,.54,.13,.91,.15v.22h-4.56v-.22c.38-.02,.68-.07,.91-.15,.23-.08,.44-.22,.63-.4,.2-.2,.34-.46,.42-.78,.08-.31,.11-.79,.11-1.44v-7.01c0-.29,0-.57-.03-.83-.03-.47-.11-.81-.23-1.03-.16-.3-.39-.52-.68-.66-.29-.14-.67-.23-1.14-.25v-.22h4.29l4.28,10.17,4.44-10.17h4.07v.22Z"/>
        <path class="cls-1" d="M134.15,137.43l.17,3.14h-.23c-.09-.52-.23-.96-.43-1.31-.2-.35-.48-.66-.86-.92-.31-.22-.68-.38-1.1-.47-.42-.09-.98-.14-1.68-.14h-2.26v5.71h.59c.6,0,1.05-.04,1.36-.11,.3-.08,.55-.21,.74-.41,.18-.18,.32-.4,.41-.65,.09-.25,.16-.62,.22-1.11h.23s-.04,5.11-.04,5.11h-.23c-.06-.49-.15-.88-.26-1.18-.12-.3-.28-.55-.48-.76-.2-.2-.46-.35-.77-.45-.32-.1-.72-.14-1.21-.14h-.56v2.18c0,.87,.02,1.5,.07,1.9,.05,.4,.14,.73,.27,.99,.22,.46,.57,.79,1.02,1,.46,.21,1.06,.32,1.81,.32,.79,0,1.45-.1,1.99-.29,.53-.19,.97-.49,1.31-.9,.24-.27,.43-.58,.58-.93,.15-.35,.29-.81,.41-1.38h.23s-.13,3.79-.13,3.79h-11.8v-.22c.38-.02,.68-.07,.91-.15,.23-.08,.44-.22,.63-.4,.2-.2,.34-.46,.42-.78,.08-.31,.11-.79,.11-1.44v-7.01c0-.65-.04-1.13-.11-1.44-.08-.31-.22-.57-.42-.78-.18-.18-.38-.32-.62-.4-.23-.08-.54-.13-.92-.15v-.22h10.63Z"/>
      </g>
      <line class="cls-2" y1="144.57" x2="55.73" y2="144.57"/>
      <line class="cls-2" x1="139.93" y1="144.57" x2="195.65" y2="144.57"/>
      <path class="cls-1" d="M97.66,64.65c0-12.56-10.28-22.84-22.84-22.84v-3.07c9.96,0,18.72,7.91,22.37,16.83,.02,.05,.08,.08,.13,.06,.05-.02,.09-.07,.08-.12-1.68-11.5-11.05-20.5-22.59-21.74v-3.04c10.39,1.29,19.2,9.85,22.64,19.57,.02,.05,.07,.08,.12,.07,.05-.01,.09-.06,.09-.11-.34-13.05-10.08-23.76-22.85-25.19v-3.04c10.41,1.38,19.22,9.97,22.65,19.74,.02,.05,.07,.08,.12,.07,.05,0,.09-.05,.09-.11v-2.16c0-11.58-9.48-21.06-21.06-21.06v-3.07c9.35,0,17.56,7.61,20.85,16.06,.02,.05,.07,.08,.12,.07,.05-.01,.09-.05,.09-.11v-2.83c0-8.04-6.58-14.61-14.61-14.61v-3.07c6.27,0,11.82,5.46,14.4,10.93,.02,.05,.07,.07,.12,.06,.05-.01,.09-.06,.09-.11v-4.79c0-4.63-3.79-8.41-8.41-8.41v-3.07c3.4,0,6.46,3.55,8.21,6.3,.03,.04,.08,.06,.12,.05,.05-.01,.08-.06,.08-.11l-.96-11.79h3.22l-.96,11.79s.03,.09,.08,.11c.05,.01,.1,0,.12-.05,1.75-2.76,4.81-6.3,8.21-6.3v3.07c-4.62,0-8.41,3.79-8.41,8.39v4.81c0,.05,.03,.1,.09,.11,.05,.01,.1-.01,.12-.06,2.58-5.47,8.14-10.93,14.4-10.93v3.07c-8.03,0-14.61,6.57-14.61,14.59v2.85c0,.05,.04,.1,.09,.11,.05,.01,.1-.02,.12-.07,3.29-8.45,11.5-16.06,20.85-16.06v3.07c-11.58,0-21.06,9.48-21.06,21.04v2.19c0,.05,.04,.1,.09,.11,.05,0,.1-.02,.12-.07,3.43-9.76,12.24-18.36,22.64-19.74v3.04c-12.62,1.43-22.51,11.99-22.85,25.19,0,.05,.04,.1,.09,.11,.05,.01,.11-.02,.12-.07,3.44-9.72,12.25-18.27,22.64-19.57v3.04c-11.54,1.24-20.91,10.24-22.59,21.74,0,.06,.03,.11,.08,.12,.05,.01,.11-.01,.13-.06,3.65-8.92,12.41-16.83,22.37-16.83v3.07c-12.56,0-22.84,10.28-22.84,22.84,0,2.7,0,5.4,0,8.11h-1.3v-8.11h0Z"/>
    </g>
  </g>
</svg>