<svg width="2" height="2" viewBox="0 0 2 2" fill="none" xmlns="http://www.w3.org/2000/svg">
<path d="M0.631416 0.383187C0.616943 0.402032 0.611874 0.424855 0.614434 0.446741C0.61598 0.444599 0.616994 0.442508 0.618667 0.440328C0.630364 0.425108 0.642973 0.413145 0.653225 0.406746C0.649664 0.418341 0.64144 0.43365 0.629793 0.44887C0.628184 0.451049 0.62641 0.452583 0.6248 0.454623C0.646559 0.451379 0.667203 0.440556 0.681726 0.421687C0.698277 0.400156 0.703181 0.373429 0.697618 0.348857C0.672437 0.349871 0.64789 0.361669 0.631416 0.383187ZM0.380256 0.362125L0.378735 0.357538C0.37558 0.345841 0.374515 0.334942 0.375212 0.327339C0.37966 0.333599 0.384121 0.343585 0.387226 0.355257L0.388164 0.359996C0.394982 0.347831 0.397478 0.333358 0.393588 0.318899C0.389178 0.302374 0.377721 0.289663 0.363338 0.283035C0.354163 0.295987 0.350627 0.312727 0.35505 0.329202C0.358928 0.343674 0.368331 0.354965 0.380256 0.362125ZM0.475554 0.636121C0.469738 0.614831 0.45652 0.595467 0.436104 0.583415C0.412774 0.569539 0.385629 0.567777 0.361881 0.576217C0.365873 0.601132 0.380395 0.624044 0.403776 0.63787C0.424293 0.649985 0.447472 0.652342 0.468863 0.647248C0.466595 0.645955 0.464415 0.645207 0.462096 0.643725C0.445584 0.633992 0.432265 0.622853 0.424648 0.613386C0.436573 0.615566 0.452718 0.621928 0.469231 0.631724C0.471601 0.633105 0.473324 0.634638 0.475554 0.636121ZM0.518274 0.390981C0.495083 0.400904 0.47634 0.420584 0.468584 0.446601C0.461817 0.469437 0.46515 0.492476 0.475314 0.512056C0.476061 0.509508 0.476201 0.507151 0.477062 0.504579C0.48255 0.486254 0.490103 0.470578 0.497377 0.460833C0.498226 0.472948 0.495945 0.490157 0.49047 0.508609C0.489684 0.511206 0.48862 0.513247 0.487784 0.515756C0.506945 0.504984 0.522532 0.487483 0.529312 0.464723C0.537068 0.438732 0.532252 0.411942 0.518274 0.390981ZM0.557103 0.496189C0.5532 0.510674 0.555709 0.525134 0.56254 0.5373L0.563465 0.53256C0.566582 0.520863 0.57103 0.510902 0.575478 0.504642C0.576188 0.512258 0.575111 0.523157 0.571955 0.534841L0.570422 0.539429C0.582347 0.532281 0.591775 0.520964 0.595666 0.50648C0.600076 0.490018 0.596566 0.473265 0.587353 0.460326C0.572969 0.466966 0.561513 0.479677 0.557103 0.496189ZM0.429578 0.539429L0.428057 0.534841C0.424889 0.523144 0.423837 0.512258 0.424534 0.504642C0.428982 0.510915 0.433431 0.520876 0.436548 0.53256L0.437473 0.5373C0.444291 0.525134 0.4468 0.510674 0.44291 0.496189C0.4385 0.479677 0.427043 0.466979 0.41266 0.460338C0.403472 0.473277 0.399962 0.49003 0.404372 0.506492C0.408275 0.520977 0.417653 0.532281 0.429578 0.539429ZM0.422203 0.424842C0.425903 0.405998 0.431999 0.389764 0.438195 0.379373C0.440236 0.391349 0.439627 0.408697 0.435927 0.427542C0.43542 0.430228 0.434533 0.432408 0.433975 0.435006C0.452059 0.422434 0.465847 0.403514 0.470397 0.380121C0.475593 0.353546 0.468166 0.327377 0.452249 0.307848C0.430123 0.319963 0.413382 0.341342 0.408237 0.368018C0.403637 0.391348 0.409213 0.414033 0.421214 0.432446C0.421632 0.429848 0.421683 0.427529 0.422203 0.424842ZM0.49559 0.340962C0.49559 0.328898 0.497351 0.318088 0.499987 0.310902C0.502674 0.318088 0.504397 0.328898 0.504397 0.340962L0.504081 0.345778C0.513775 0.335855 0.519934 0.322498 0.519934 0.307455C0.519934 0.290385 0.512191 0.275178 0.499987 0.265015C0.487784 0.275178 0.480041 0.290385 0.480041 0.307455C0.480041 0.322498 0.486212 0.335855 0.495907 0.345778L0.49559 0.340962ZM0.566012 0.434993C0.565454 0.432408 0.564567 0.430228 0.56406 0.427529C0.560347 0.408685 0.559752 0.391336 0.561792 0.37936C0.568014 0.389752 0.574084 0.405985 0.577798 0.42483C0.578304 0.427516 0.578368 0.429823 0.578786 0.432433C0.590787 0.414007 0.596363 0.391336 0.591775 0.368005C0.586618 0.341329 0.569864 0.319938 0.547738 0.307836C0.531834 0.327377 0.524408 0.353533 0.529603 0.380108C0.534153 0.403489 0.547928 0.422409 0.566012 0.434993ZM0.612774 0.355244C0.615879 0.34356 0.62034 0.333574 0.624788 0.327326C0.625485 0.33493 0.62442 0.345841 0.621265 0.357525L0.619744 0.362113C0.631669 0.354965 0.641059 0.343648 0.644975 0.329176C0.649385 0.312702 0.64585 0.295961 0.636675 0.28301C0.622278 0.289638 0.610835 0.302348 0.606425 0.318874C0.602509 0.333333 0.605031 0.347805 0.611849 0.359971L0.612774 0.355244ZM0.784945 0.546475C0.802649 0.539099 0.819541 0.535069 0.831694 0.534689C0.822785 0.54285 0.808035 0.552051 0.790318 0.559363C0.787771 0.56044 0.785502 0.560883 0.783044 0.561872C0.80351 0.570033 0.826841 0.570958 0.848815 0.561872C0.873869 0.55148 0.891547 0.530786 0.899012 0.506746C0.876746 0.495011 0.849652 0.492933 0.824636 0.503324C0.802649 0.51241 0.786795 0.529633 0.778026 0.549807C0.780433 0.548692 0.782372 0.547501 0.784945 0.546475ZM0.519934 0.575153C0.519934 0.558083 0.512191 0.542863 0.499987 0.532699C0.487784 0.542863 0.480041 0.558083 0.480041 0.575153C0.480041 0.590183 0.486212 0.60354 0.495907 0.613475L0.49559 0.608647C0.49559 0.596582 0.497351 0.585772 0.499987 0.578587C0.502674 0.585785 0.504397 0.596582 0.504397 0.608647L0.504081 0.613475C0.513775 0.60354 0.519934 0.590183 0.519934 0.575153ZM0.811646 0.465015C0.820695 0.456853 0.829781 0.45091 0.836979 0.448122C0.833418 0.454902 0.826549 0.463443 0.817577 0.471503L0.813788 0.474532C0.827665 0.475026 0.841706 0.470679 0.85287 0.460643C0.865543 0.44925 0.871727 0.43327 0.871056 0.417416C0.855354 0.415135 0.838791 0.419545 0.826106 0.431001C0.814979 0.441025 0.809188 0.454522 0.80825 0.468436L0.811646 0.465015ZM0.885046 0.572086L0.889494 0.570134C0.900798 0.566003 0.911481 0.563963 0.919186 0.564115C0.91337 0.568969 0.903827 0.574304 0.892422 0.578397L0.887822 0.579791C0.900444 0.585494 0.915106 0.586736 0.929211 0.581641C0.945305 0.5759 0.957027 0.563405 0.962362 0.548477C0.948688 0.540455 0.931656 0.538326 0.915663 0.544117C0.901508 0.549174 0.891078 0.559565 0.885046 0.572086ZM0.729439 0.454623C0.722899 0.477548 0.726511 0.500637 0.736903 0.520039C0.737613 0.517441 0.737841 0.51516 0.738614 0.512512C0.743809 0.494098 0.751134 0.478372 0.758383 0.468538C0.75927 0.480691 0.757255 0.497951 0.752072 0.516314C0.751324 0.519 0.750222 0.521129 0.749474 0.523562C0.768584 0.512601 0.783804 0.494884 0.790344 0.471959C0.797782 0.445942 0.792536 0.419254 0.778292 0.398445C0.755278 0.408685 0.736751 0.428543 0.729439 0.454623ZM0.729401 0.400485C0.731213 0.38856 0.734495 0.378182 0.738297 0.37149C0.739767 0.378917 0.739919 0.389866 0.738056 0.401829L0.737093 0.406556C0.748131 0.398204 0.756241 0.385861 0.758522 0.37106C0.76112 0.35423 0.755798 0.337895 0.745203 0.326059C0.731618 0.334271 0.721645 0.348185 0.719098 0.365027C0.716817 0.379867 0.720847 0.39401 0.72897 0.405288L0.729401 0.400485ZM0.634102 0.483707C0.61963 0.502589 0.614561 0.525413 0.617133 0.547311C0.618654 0.545131 0.619681 0.54304 0.621353 0.540911C0.63305 0.525641 0.645672 0.513716 0.655912 0.507278C0.652338 0.518886 0.644126 0.534182 0.63248 0.549402C0.630871 0.551582 0.629096 0.553153 0.627474 0.555193C0.649233 0.551949 0.669864 0.541089 0.6844 0.522257C0.700963 0.500726 0.70588 0.474012 0.700291 0.449427C0.675123 0.450441 0.650577 0.462189 0.634102 0.483707ZM0.537891 0.643712C0.535572 0.645195 0.533393 0.645942 0.531111 0.647235C0.55249 0.652342 0.575694 0.649972 0.596211 0.637857C0.619592 0.624044 0.634102 0.601119 0.638107 0.576205C0.614346 0.567752 0.587213 0.569526 0.56387 0.583403C0.543467 0.595454 0.53025 0.614806 0.524433 0.636108C0.526663 0.634626 0.528387 0.63308 0.530757 0.631698C0.547269 0.621902 0.563414 0.615541 0.575326 0.613361C0.567723 0.62284 0.554404 0.633992 0.537891 0.643712ZM0.669091 0.573011C0.688113 0.575939 0.704625 0.581261 0.715194 0.587217C0.703333 0.589612 0.685946 0.589802 0.667051 0.586888C0.664263 0.586482 0.662084 0.585684 0.659473 0.585228C0.672703 0.602805 0.692194 0.615705 0.715714 0.619368C0.742517 0.623512 0.768356 0.61497 0.787251 0.598268C0.7743 0.57675 0.752161 0.560871 0.725459 0.55679C0.701939 0.553166 0.67942 0.559616 0.661437 0.572327C0.664086 0.572644 0.666392 0.572542 0.669091 0.573011ZM0.180915 0.619862C0.162362 0.62469 0.145064 0.626173 0.133 0.624969C0.142973 0.618012 0.158839 0.611042 0.17743 0.606315C0.180129 0.60558 0.182398 0.60539 0.185008 0.604845C0.165847 0.593984 0.142834 0.589802 0.119782 0.595746C0.0935622 0.602424 0.0731593 0.62042 0.0624002 0.643167C0.0828412 0.657905 0.109441 0.663811 0.135648 0.657031C0.1587 0.651062 0.176784 0.636298 0.188252 0.617467C0.185705 0.618214 0.183614 0.619216 0.180915 0.619862ZM0.492878 0.798509H0.515777L0.505323 0.709027L0.492878 0.798509ZM0.442124 0.708609C0.431454 0.700561 0.418971 0.694871 0.404727 0.694871H0.380421C0.343302 0.694871 0.335331 0.620153 0.335331 0.620153C0.335331 0.656233 0.315739 0.72886 0.399442 0.72886H0.404727C0.421797 0.72886 0.435623 0.742977 0.435623 0.760364V0.798509H0.468851V0.760364C0.468851 0.747336 0.464162 0.73588 0.457711 0.725704C0.475947 0.707278 0.482727 0.675977 0.490128 0.656816C0.490128 0.656816 0.468369 0.698382 0.442124 0.708609ZM0.272158 0.642698L0.274287 0.646969C0.279166 0.658007 0.281903 0.668677 0.282372 0.67623C0.276986 0.670806 0.271094 0.66153 0.266316 0.650492L0.264631 0.646031C0.259676 0.658944 0.259333 0.673683 0.265467 0.687407C0.272247 0.702995 0.285464 0.713944 0.300735 0.718316C0.30787 0.704199 0.308846 0.687129 0.301977 0.671364C0.295995 0.657728 0.28497 0.647894 0.272158 0.642698ZM0.628146 0.694859H0.60384C0.589596 0.694859 0.577113 0.700549 0.566506 0.708596C0.540274 0.698318 0.518528 0.65679 0.518528 0.65679C0.525954 0.675951 0.532734 0.707265 0.550906 0.725628C0.544405 0.735855 0.539729 0.747324 0.539729 0.760339V0.798483H0.572944V0.760339C0.572944 0.742952 0.586871 0.728834 0.60384 0.728834H0.609137C0.692916 0.728834 0.673248 0.656195 0.673248 0.620128C0.673248 0.620128 0.665264 0.694859 0.628146 0.694859ZM0.332936 0.586875C0.314054 0.589802 0.296654 0.5896 0.284793 0.587204C0.295362 0.581261 0.311887 0.575926 0.330909 0.572998C0.333583 0.572542 0.335902 0.572631 0.338563 0.572301C0.320568 0.559591 0.298048 0.55314 0.274541 0.556765C0.247827 0.560845 0.225688 0.576712 0.212749 0.598242C0.231631 0.614945 0.257458 0.623486 0.284286 0.619342C0.307806 0.61568 0.327297 0.602779 0.340515 0.585202C0.337917 0.585658 0.335737 0.586469 0.332936 0.586875ZM0.966189 0.666485C0.951933 0.661618 0.937283 0.66319 0.924864 0.669235L0.929489 0.670527C0.940907 0.674329 0.950589 0.679385 0.956495 0.684252C0.948929 0.684429 0.938069 0.68268 0.926613 0.678777L0.922165 0.677003C0.928463 0.689346 0.939171 0.699459 0.953339 0.704287C0.969611 0.709775 0.986542 0.707354 1 0.698952C0.994348 0.684163 0.982284 0.671921 0.966189 0.666485ZM0.880205 0.595733C0.857154 0.589802 0.834153 0.593972 0.814992 0.604832C0.817577 0.60539 0.819858 0.60558 0.822557 0.606302C0.841161 0.611029 0.857027 0.617999 0.867 0.624956C0.854936 0.62616 0.837625 0.62469 0.819072 0.619849C0.816399 0.61919 0.814307 0.618189 0.811735 0.617442C0.823191 0.636273 0.841288 0.651024 0.864365 0.657006C0.890572 0.663785 0.917146 0.657893 0.9376 0.643142C0.926853 0.620394 0.906425 0.602412 0.880205 0.595733ZM0.770422 0.64361L0.773844 0.646994C0.781904 0.655852 0.787948 0.66504 0.790686 0.672187C0.784007 0.668664 0.775377 0.661796 0.767305 0.652811L0.764276 0.649098C0.763794 0.662911 0.768192 0.677016 0.778203 0.688066C0.78976 0.700828 0.805715 0.706936 0.821543 0.706201C0.823799 0.690525 0.819262 0.673962 0.807844 0.661327C0.797795 0.65015 0.784197 0.644409 0.770422 0.64361ZM0.733671 0.650479C0.728894 0.661517 0.723001 0.670793 0.717628 0.676217C0.718097 0.668652 0.720834 0.657981 0.725688 0.646956L0.727842 0.642685C0.71503 0.647881 0.703967 0.657715 0.697998 0.671351C0.691142 0.687116 0.692105 0.704199 0.699252 0.718303C0.714523 0.713931 0.72774 0.702982 0.734508 0.687395C0.740641 0.67367 0.740299 0.658919 0.735357 0.646018L0.733671 0.650479ZM0.3752 0.454636C0.373577 0.452595 0.371816 0.451062 0.370181 0.448882C0.358535 0.433662 0.350323 0.418354 0.346762 0.406758C0.357002 0.413171 0.369624 0.425134 0.381308 0.440341C0.382993 0.442521 0.383994 0.444612 0.38554 0.446753C0.388088 0.424855 0.383044 0.402044 0.368559 0.3832C0.352097 0.361682 0.327563 0.349896 0.302357 0.348882C0.296794 0.373455 0.301711 0.400169 0.318261 0.421712C0.332784 0.440582 0.353453 0.451392 0.3752 0.454636ZM0.262869 0.406581L0.261906 0.401854C0.260043 0.389878 0.260182 0.378929 0.261678 0.371516C0.265467 0.378207 0.268762 0.388586 0.270587 0.400511L0.270992 0.405326C0.279103 0.394048 0.283145 0.379905 0.280877 0.365065C0.27833 0.348223 0.268344 0.334309 0.254746 0.326097C0.244164 0.337933 0.238842 0.354256 0.24144 0.371098C0.243708 0.385899 0.251831 0.398242 0.262869 0.406581ZM0.232683 0.652836C0.22461 0.661821 0.21598 0.66869 0.209302 0.672213C0.212026 0.665078 0.218071 0.655878 0.226144 0.64702L0.229565 0.643636C0.215803 0.644434 0.202192 0.650175 0.19213 0.661352C0.180725 0.673974 0.176175 0.690537 0.178456 0.706226C0.194272 0.706961 0.210227 0.70084 0.221784 0.688092C0.231796 0.677041 0.236206 0.662936 0.235699 0.649123L0.232683 0.652836ZM0.3725 0.555219C0.370878 0.553178 0.369117 0.551607 0.367495 0.549427C0.355848 0.534207 0.347636 0.518899 0.344063 0.507303C0.354315 0.513754 0.366937 0.525679 0.378634 0.540937C0.380294 0.543066 0.381308 0.545157 0.382854 0.547336C0.385401 0.525438 0.380345 0.502627 0.365873 0.483732C0.349411 0.462214 0.324864 0.450466 0.29967 0.449453C0.294107 0.474038 0.299024 0.500752 0.315587 0.522282C0.330098 0.541114 0.350754 0.551974 0.3725 0.555219ZM0.147092 0.460655C0.158269 0.470679 0.172336 0.475039 0.186199 0.474545L0.182398 0.471516C0.173451 0.463456 0.166582 0.454915 0.162996 0.448135C0.170194 0.450935 0.179293 0.456866 0.188329 0.465027L0.191712 0.468449C0.190787 0.454534 0.184996 0.441038 0.173856 0.431014C0.161184 0.419558 0.144633 0.415148 0.128894 0.417429C0.128247 0.433282 0.134444 0.449262 0.147092 0.460655ZM0.250513 0.523575C0.249753 0.521155 0.248638 0.519026 0.247915 0.516326C0.242707 0.497951 0.24073 0.480703 0.241592 0.46855C0.24884 0.478384 0.256165 0.494111 0.261361 0.512524C0.262159 0.51516 0.262388 0.517442 0.263085 0.520052C0.273476 0.500638 0.277101 0.477561 0.270561 0.454636C0.263224 0.428555 0.244735 0.408697 0.221708 0.398458C0.207464 0.419279 0.202218 0.445955 0.209644 0.471972C0.216196 0.494897 0.231403 0.512613 0.250513 0.523575ZM0.151185 0.561897C0.173172 0.570983 0.196502 0.570058 0.216969 0.561897C0.21451 0.560909 0.212242 0.560465 0.209682 0.559388C0.191953 0.552063 0.177215 0.542876 0.168306 0.534714C0.180459 0.535082 0.197339 0.539124 0.215068 0.5465C0.217602 0.547526 0.219567 0.54873 0.221974 0.549845C0.213205 0.529671 0.197339 0.512448 0.175352 0.503362C0.150336 0.492971 0.123254 0.495049 0.100989 0.506784C0.108453 0.530824 0.126144 0.551493 0.151185 0.561897ZM0.0435053 0.684277C0.0493981 0.679411 0.0590927 0.674354 0.0705107 0.670553L0.0751489 0.66926C0.0627044 0.663215 0.048042 0.661644 0.0338106 0.66651C0.0177163 0.671947 0.00565201 0.684188 0 0.698977C0.0134584 0.707379 0.0303764 0.7098 0.0466734 0.704313C0.0608161 0.699497 0.0715372 0.689372 0.0778356 0.677028L0.0733874 0.678802C0.0619313 0.682706 0.0510709 0.684454 0.0435053 0.684277ZM0.0708022 0.581654C0.0848942 0.586761 0.0995565 0.585506 0.112166 0.579804L0.107578 0.57841C0.0961729 0.574316 0.0866051 0.568994 0.0808136 0.564128C0.0885186 0.563988 0.0991889 0.566028 0.110506 0.570147L0.114954 0.572099C0.108934 0.559578 0.098492 0.549174 0.0843366 0.54413C0.0683437 0.538339 0.0513117 0.540468 0.0376252 0.54849C0.0429604 0.563418 0.0546953 0.575913 0.0708022 0.581654Z" fill="white" stroke="#808080" stroke-width="0.5" stroke-miterlimit="10"/>
</svg>
