<?xml version="1.0" encoding="UTF-8"?>
<svg id="_圖層_2" data-name="圖層 2" xmlns="http://www.w3.org/2000/svg" xmlns:xlink="http://www.w3.org/1999/xlink" viewBox="0 0 1276 853">
  <defs>
    <style>
      .cls-1 {
        clip-path: url(#clippath);
      }

      .cls-2 {
        fill: none;
      }

      .cls-3 {
        fill: #c3a457;
      }
    </style>
    <clipPath id="clippath">
      <polygon class="cls-2" points="1214.1 496.84 916.15 123.39 430.65 32.96 61.5 264.9 61.5 718.84 231.3 820.04 1214.5 820.04 1214.1 496.84"/>
    </clipPath>
  </defs>
  <g id="_圖層_1-2" data-name="圖層 1">
    <g>
      <g class="cls-1">
        <g>
          <polygon class="cls-3" points="1051.24 659.51 1051.24 819.42 1216.5 739.47 1051.24 659.51"/>
          <polygon class="cls-3" points="1051.24 819.11 1051.24 979.02 1216.5 899.07 1051.24 819.11"/>
          <polygon class="cls-3" points="1216.5 899.22 1216.5 739.31 1051.24 819.27 1216.5 899.22"/>
          <polygon class="cls-3" points="1051.24 180.72 1051.24 340.62 1216.5 260.67 1051.24 180.72"/>
          <polygon class="cls-3" points="1051.24 340.32 1051.24 500.22 1216.5 420.27 1051.24 340.32"/>
          <polygon class="cls-3" points="1051.24 499.92 1051.24 659.82 1216.5 579.87 1051.24 499.92"/>
          <polygon class="cls-3" points="1051.24 340.47 1216.5 420.42 1216.5 260.52 1051.24 340.47"/>
          <polygon class="cls-3" points="1216.5 580.02 1216.5 420.12 1051.24 500.07 1216.5 580.02"/>
          <polygon class="cls-3" points="1216.5 739.62 1216.5 579.72 1051.24 659.67 1216.5 739.62"/>
          <polygon class="cls-3" points="886.23 579.02 886.23 738.93 1051.49 658.97 886.23 579.02"/>
          <polygon class="cls-3" points="886.23 738.62 886.23 898.52 1051.49 818.57 886.23 738.62"/>
          <polygon class="cls-3" points="1051.49 818.73 1051.49 658.82 886.23 738.77 1051.49 818.73"/>
          <polygon class="cls-3" points="1051.49 978.32 1051.49 818.42 886.23 898.37 1051.49 978.32"/>
          <polygon class="cls-3" points="886.23 100.22 886.23 260.13 1051.49 180.18 886.23 100.22"/>
          <polygon class="cls-3" points="886.23 259.82 886.23 419.73 1051.49 339.78 886.23 259.82"/>
          <polygon class="cls-3" points="886.23 419.42 886.23 579.33 1051.49 499.37 886.23 419.42"/>
          <polygon class="cls-3" points="886.23 259.98 1051.49 339.93 1051.49 180.02 886.23 259.98"/>
          <polygon class="cls-3" points="1051.49 499.53 1051.49 339.62 886.23 419.58 1051.49 499.53"/>
          <polygon class="cls-3" points="1051.49 659.13 1051.49 499.22 886.23 579.17 1051.49 659.13"/>
          <polygon class="cls-3" points="721.22 499.53 721.22 659.44 886.48 579.49 721.22 499.53"/>
          <polygon class="cls-3" points="721.22 659.13 721.22 819.04 886.48 739.08 721.22 659.13"/>
          <polygon class="cls-3" points="721.22 818.73 721.22 978.64 886.48 898.68 721.22 818.73"/>
          <polygon class="cls-3" points="886.48 739.24 886.48 579.33 721.22 659.28 886.48 739.24"/>
          <polygon class="cls-3" points="886.48 898.84 886.48 738.93 721.22 818.88 886.48 898.84"/>
          <polygon class="cls-3" points="721.22 20.74 721.22 180.64 886.48 100.69 721.22 20.74"/>
          <polygon class="cls-3" points="721.22 180.34 721.22 340.24 886.48 260.29 721.22 180.34"/>
          <polygon class="cls-3" points="721.22 339.93 721.22 499.84 886.48 419.89 721.22 339.93"/>
          <polygon class="cls-3" points="721.22 180.49 886.48 260.44 886.48 100.54 721.22 180.49"/>
          <polygon class="cls-3" points="886.48 420.04 886.48 260.13 721.22 340.09 886.48 420.04"/>
          <polygon class="cls-3" points="886.48 579.64 886.48 419.73 721.22 499.69 886.48 579.64"/>
          <polygon class="cls-3" points="556.21 419.04 556.21 578.94 721.46 498.99 556.21 419.04"/>
          <polygon class="cls-3" points="556.21 578.64 556.21 738.54 721.46 658.59 556.21 578.64"/>
          <polygon class="cls-3" points="556.21 738.24 556.21 898.14 721.46 818.19 556.21 738.24"/>
          <polygon class="cls-3" points="721.46 658.74 721.46 498.84 556.21 578.79 721.46 658.74"/>
          <polygon class="cls-3" points="721.46 818.34 721.46 658.44 556.21 738.39 721.46 818.34"/>
          <polygon class="cls-3" points="721.46 977.94 721.46 818.04 556.21 897.99 721.46 977.94"/>
          <polygon class="cls-3" points="556.21 -59.76 556.21 100.15 721.46 20.2 556.21 -59.76"/>
          <polygon class="cls-3" points="556.21 99.84 556.21 259.75 721.46 179.79 556.21 99.84"/>
          <polygon class="cls-3" points="556.21 259.44 556.21 419.35 721.46 339.39 556.21 259.44"/>
          <polygon class="cls-3" points="556.21 100 721.46 179.95 721.46 20.04 556.21 100"/>
          <polygon class="cls-3" points="721.46 339.55 721.46 179.64 556.21 259.59 721.46 339.55"/>
          <polygon class="cls-3" points="721.46 499.15 721.46 339.24 556.21 419.19 721.46 499.15"/>
          <polygon class="cls-3" points="391.19 340.56 391.19 500.46 556.45 420.51 391.19 340.56"/>
          <polygon class="cls-3" points="391.19 500.16 391.19 660.06 556.45 580.11 391.19 500.16"/>
          <polygon class="cls-3" points="391.19 659.75 391.19 819.66 556.45 739.71 391.19 659.75"/>
          <polygon class="cls-3" points="556.45 580.26 556.45 420.36 391.19 500.31 556.45 580.26"/>
          <polygon class="cls-3" points="556.45 739.86 556.45 579.96 391.19 659.91 556.45 739.86"/>
          <polygon class="cls-3" points="556.45 899.46 556.45 739.55 391.19 819.51 556.45 899.46"/>
          <polygon class="cls-3" points="391.19 -138.24 391.19 21.67 556.45 -58.29 391.19 -138.24"/>
          <polygon class="cls-3" points="391.19 21.36 391.19 181.27 556.45 101.31 391.19 21.36"/>
          <polygon class="cls-3" points="391.19 180.96 391.19 340.86 556.45 260.91 391.19 180.96"/>
          <polygon class="cls-3" points="391.19 21.51 556.45 101.47 556.45 -58.44 391.19 21.51"/>
          <polygon class="cls-3" points="556.45 261.06 556.45 101.16 391.19 181.11 556.45 261.06"/>
          <polygon class="cls-3" points="556.45 420.66 556.45 260.76 391.19 340.71 556.45 420.66"/>
          <polygon class="cls-3" points="226.18 420.05 226.18 579.95 391.44 500 226.18 420.05"/>
          <polygon class="cls-3" points="226.18 579.64 226.18 739.55 391.44 659.6 226.18 579.64"/>
          <polygon class="cls-3" points="226.18 739.24 226.18 899.15 391.44 819.2 226.18 739.24"/>
          <polygon class="cls-3" points="391.44 659.75 391.44 499.84 226.18 579.8 391.44 659.75"/>
          <polygon class="cls-3" points="391.44 819.35 391.44 659.44 226.18 739.4 391.44 819.35"/>
          <polygon class="cls-3" points="391.44 978.95 391.44 819.04 226.18 898.99 391.44 978.95"/>
          <polygon class="cls-3" points="226.18 -58.75 226.18 101.15 391.44 21.2 226.18 -58.75"/>
          <polygon class="cls-3" points="226.18 100.85 226.18 260.75 391.44 180.8 226.18 100.85"/>
          <polygon class="cls-3" points="226.18 260.45 226.18 420.35 391.44 340.4 226.18 260.45"/>
          <polygon class="cls-3" points="226.18 101 391.44 180.95 391.44 21.05 226.18 101"/>
          <polygon class="cls-3" points="391.44 340.55 391.44 180.65 226.18 260.6 391.44 340.55"/>
          <polygon class="cls-3" points="391.44 500.15 391.44 340.25 226.18 420.2 391.44 500.15"/>
          <polygon class="cls-3" points="61.17 340.56 61.17 500.46 226.43 420.51 61.17 340.56"/>
          <polygon class="cls-3" points="61.17 500.16 61.17 660.06 226.43 580.11 61.17 500.16"/>
          <polygon class="cls-3" points="61.17 659.75 61.17 819.66 226.43 739.71 61.17 659.75"/>
          <polygon class="cls-3" points="226.43 580.26 226.43 420.36 61.17 500.31 226.43 580.26"/>
          <polygon class="cls-3" points="226.43 739.86 226.43 579.96 61.17 659.91 226.43 739.86"/>
          <polygon class="cls-3" points="226.43 899.46 226.43 739.55 61.17 819.51 226.43 899.46"/>
          <polygon class="cls-3" points="61.17 -138.24 61.17 21.67 226.43 -58.29 61.17 -138.24"/>
          <polygon class="cls-3" points="61.17 21.36 61.17 181.27 226.43 101.31 61.17 21.36"/>
          <polygon class="cls-3" points="61.17 180.96 61.17 340.86 226.43 260.91 61.17 180.96"/>
          <polygon class="cls-3" points="61.17 21.51 226.43 101.47 226.43 -58.44 61.17 21.51"/>
          <polygon class="cls-3" points="226.43 261.06 226.43 101.16 61.17 181.11 226.43 261.06"/>
          <polygon class="cls-3" points="226.43 420.66 226.43 260.76 61.17 340.71 226.43 420.66"/>
        </g>
      </g>
      <path class="cls-3" d="M0,0V853H1276V0H0ZM231.3,820.04l-169.8-101.21V264.9L430.65,32.96l485.49,90.43,297.95,373.45,.4,323.21H231.3Z"/>
    </g>
  </g>
</svg>