<?xml version="1.0" encoding="UTF-8"?>
<svg id="_圖層_2" data-name="圖層 2" xmlns="http://www.w3.org/2000/svg" viewBox="0 0 117 117">
  <defs>
    <style>
      .cls-1 {
        fill: none;
        stroke: #9ebb57;
        stroke-miterlimit: 10;
      }

      .cls-2 {
        fill: #9ebb57;
      }
    </style>
  </defs>
  <g id="menu">
    <g>
      <circle class="cls-1" cx="58.5" cy="58.5" r="58"/>
      <g>
        <path class="cls-2" d="M55.69,45.61l-.32,.95-6.57,.04c-2.96,0-5.1-.71-6.39-2.14-.68,.94-1.37,1.75-2.08,2.43l-.7-.64c1.93-1.79,3.1-3.68,3.51-5.67h-3.01v-.87c1.09-1.35,2.04-2.61,2.85-3.78h-3.19v-.88h4.38v.88l-2.81,3.71h2.76v.94c-.44,1.48-.86,2.53-1.25,3.15,.6,.62,1.37,1.1,2.31,1.45s2.27,.51,3.98,.51c1.56,0,3.74-.02,6.56-.07Zm-12.12-11.79l-.72,.57c-.85-1.02-1.69-1.86-2.53-2.52l.66-.62c1.07,.84,1.94,1.7,2.59,2.58Zm11.14,9.83h-9.02v-10.7h2.99c.31-.46,.62-1.06,.91-1.8l.94,.31c-.24,.52-.5,1.02-.77,1.49h4.52v4.23h-7.65v1.95h8.08v4.52Zm-1.37-7.35v-2.44h-6.71v2.44h6.71Zm.42,6.44v-2.75h-7.13v2.75h7.13Z"/>
        <path class="cls-2" d="M65.84,41.07c-2.19,2.04-4.11,3.53-5.78,4.45l-.54-.81c1.78-1.01,3.7-2.5,5.76-4.48l.56,.84Zm9.36,3.61l-.56,.82c-3.18-1.37-5.4-3.23-6.69-5.6v5.62c0,.51-.18,.86-.53,1.06s-1.03,.29-2.03,.29c-.33,0-.66,0-.98-.03l-.41-.97c.5,.02,1.33,.04,2.49,.04,.14,0,.26-.06,.36-.18s.15-.23,.15-.35v-10.26h-7.32v-.93h7.32v-3.01h.96v3.01h7.18v.93h-7.18v2.63c.18,.51,.5,1.14,.97,1.89,1.69-.97,3.15-2.08,4.38-3.33l.76,.65c-1.1,1.14-2.64,2.29-4.61,3.45,.98,1.58,2.9,3,5.76,4.26Zm-10.75-5.45l-.67,.72c-.84-1.03-1.91-2.01-3.2-2.94l.65-.7c1.34,.98,2.41,1.95,3.22,2.92Zm8.72-6.2l-.65,.72c-.61-.58-1.42-1.17-2.42-1.78l.58-.72c1.08,.64,1.91,1.24,2.49,1.78Z"/>
        <path class="cls-2" d="M46.26,55.12h-.89v-.97h-5.6v-.87h5.6v-1.07h.89v2.91Zm8.54,7.81h-.9v-1.82h-6.87c-.28,.4-.6,.83-.94,1.27h6.16v.84c-2.04,2.38-5.5,3.98-10.39,4.81l-.53-.85c1.87-.3,3.38-.64,4.54-1.02-.42-.59-1.06-1.27-1.93-2.02-1.08,.63-1.96,1.05-2.66,1.27l-.54-.77c2.45-.91,4.17-2.08,5.17-3.52h-4.67v1.8h-.91v-2.68h14.47v2.7Zm-1.02-3.96h-12.38v-3.26h12.38v3.26Zm-8.54-.87v-1.53h-2.95v1.53h2.95Zm5.72,5.12h-5.78c-.26,.23-.42,.36-.47,.4,.9,.83,1.59,1.55,2.07,2.16,1.75-.65,3.14-1.5,4.18-2.56Zm-1.93-5.12v-1.53h-2.9v1.53h2.9Zm6.36-3.96h-5.53v.97h-.9v-2.91h.9v1.07h5.53v.87Zm-2.54,3.96v-1.53h-2.88v1.53h2.88Z"/>
        <path class="cls-2" d="M67.1,58.79l-.55,.76c-.79-.89-1.67-1.69-2.66-2.41v4.75h-.9v-4.8c-.89,1.44-1.83,2.6-2.82,3.51l-.65-.67c1.17-1.03,2.29-2.48,3.38-4.38h-3.18v-.86h3.27v-2.56h.9v2.56h2.86v.86h-2.86v.54c1.2,.78,2.27,1.68,3.22,2.7Zm-4.35,4.59c-.62,1.51-1.42,2.8-2.38,3.88l-.72-.62c.87-1,1.63-2.22,2.28-3.67l.83,.41Zm8.85,1.92c0,.58-.1,1.09-.31,1.54s-.5,.72-.87,.82-1.18,.15-2.41,.15c-1.82,0-2.91-.09-3.27-.28s-.55-.54-.55-1.05v-4.07h.91v3.87c0,.27,.1,.45,.29,.53s1.04,.12,2.52,.12c1.28,0,2.02-.04,2.2-.11s.33-.33,.44-.76,.16-.8,.16-1.11l.88,.35Zm-2.27-.32l-.77,.54c-.46-.86-1.06-1.76-1.82-2.7l.72-.56c.76,.86,1.38,1.76,1.87,2.72Zm5.2-3.19h-6.84v-8.8h6.84v8.8Zm-.9-6.21v-1.73h-5.04v1.73h5.04Zm0,2.68v-1.85h-5.04v1.85h5.04Zm0,2.68v-1.84h-5.04v1.84h5.04Zm1.33,5.84l-.79,.53c-.56-1.18-1.36-2.47-2.39-3.87l.77-.53c1.06,1.48,1.86,2.77,2.41,3.87Z"/>
      </g>
      <g>
        <path class="cls-2" d="M35.33,90.27c-.13,0-.3-.02-.5-.03s-.42-.01-.67-.01h-.95c-.17,.02-.4,.03-.7,.03-.02,0-.03-.03-.03-.08s0-.08,.03-.08c.35,0,.61-.02,.78-.07,.16-.05,.27-.14,.34-.27,.06-.14,.09-.34,.09-.62v-6.48c0-.28-.03-.49-.08-.62-.06-.13-.17-.22-.33-.27s-.42-.08-.78-.08c-.02,0-.03-.03-.03-.08s0-.08,.03-.08h.7c.39,.03,.71,.04,.94,.04,.35,0,.7-.01,1.05-.04,.41-.02,.7-.03,.85-.03,.97,0,1.83,.19,2.58,.56,.75,.37,1.33,.88,1.74,1.53,.41,.64,.62,1.37,.62,2.17,0,.91-.21,1.71-.64,2.4-.42,.7-1,1.23-1.73,1.61-.73,.38-1.52,.57-2.38,.57-.27,0-.58-.01-.94-.04Zm2.79-.64c.58-.31,1.03-.77,1.35-1.39,.32-.61,.48-1.35,.48-2.21,0-.81-.15-1.55-.46-2.21-.31-.66-.75-1.19-1.32-1.57s-1.23-.57-1.97-.57c-.4,0-.71,.02-.93,.07-.22,.05-.38,.14-.48,.28-.1,.14-.15,.35-.15,.63v6.3c0,.28,.04,.5,.12,.66,.08,.16,.23,.28,.45,.36,.22,.08,.53,.12,.93,.12,.75,0,1.41-.16,1.99-.47Z"/>
        <path class="cls-2" d="M51.99,90.17c0,.06,0,.08-.03,.08h-1.81c-.23,0-.67-.39-1.32-1.16-.64-.77-1.41-1.84-2.3-3.19-.25,.06-.51,.08-.78,.08-.06,0-.27-.01-.63-.04v3.18c0,.29,.03,.5,.08,.63s.17,.22,.33,.27c.16,.05,.42,.07,.78,.07,.03,0,.04,.03,.04,.08s-.01,.08-.04,.08c-.29,0-.52,0-.69-.01h-.97s-.95,0-.95,0c-.17,0-.41,.01-.71,.01-.02,0-.03-.03-.03-.08s0-.08,.03-.08c.35,0,.62-.02,.78-.07,.17-.05,.28-.14,.34-.27,.06-.14,.09-.34,.09-.62v-6.48c0-.28-.03-.49-.08-.62-.06-.13-.17-.22-.33-.27-.16-.05-.42-.08-.78-.08-.03,0-.04-.03-.04-.08s.01-.08,.04-.08h.69c.39,.03,.71,.04,.95,.04,.21,0,.4,0,.57-.01,.18,0,.33-.02,.45-.03,.34-.03,.66-.04,.94-.04,.74,0,1.31,.17,1.71,.5,.4,.34,.6,.78,.6,1.34,0,.5-.15,.96-.44,1.36s-.68,.73-1.17,.96c.78,1.13,1.44,2.01,1.98,2.65,.54,.64,1.01,1.1,1.43,1.38,.41,.28,.82,.42,1.22,.42,.02,0,.03,.03,.03,.08Zm-6.03-4.51c.73,0,1.25-.16,1.56-.48,.31-.32,.47-.81,.47-1.47,0-.73-.16-1.25-.48-1.57-.32-.32-.79-.48-1.41-.48-.36,0-.62,.07-.76,.2-.14,.13-.21,.4-.21,.8v2.94c.23,.04,.51,.06,.83,.06Z"/>
        <path class="cls-2" d="M59.23,88.14s.05,0,.08,.01c.02,0,.03,.02,.03,.04-.08,.59-.12,1.2-.12,1.85,0,.07-.02,.13-.05,.16-.03,.03-.09,.05-.18,.05h-5.87s-.03-.03-.03-.08,0-.08,.03-.08c.35,0,.61-.02,.78-.07,.16-.05,.28-.14,.34-.27,.06-.14,.09-.34,.09-.62v-6.48c0-.28-.03-.49-.09-.62-.06-.13-.17-.22-.34-.27s-.42-.08-.78-.08c-.02,0-.03-.03-.03-.08s0-.08,.03-.08h5.63c.08,0,.13,.04,.13,.13l.03,1.72s-.02,.04-.07,.05c-.05,0-.07,0-.08-.03-.03-.49-.18-.88-.45-1.16-.27-.28-.63-.41-1.08-.41h-.85c-.33,0-.57,.03-.72,.08-.15,.05-.26,.14-.32,.27-.06,.13-.09,.31-.09,.57v2.84h1.71c.45,0,.77-.07,.96-.22,.19-.15,.29-.4,.29-.76,0-.02,.03-.03,.08-.03s.08,0,.08,.03v1.13c-.01,.27,0,.48,0,.62v.67s-.01,.03-.07,.03-.08,0-.08-.03c0-.41-.1-.7-.3-.88-.2-.18-.53-.27-1-.27h-1.67v3.22c0,.26,.03,.45,.08,.57,.06,.12,.16,.21,.31,.25,.15,.05,.38,.07,.7,.07h1.12c.45,0,.82-.16,1.12-.48,.3-.32,.5-.76,.6-1.32,0-.02,.02-.03,.06-.03Z"/>
        <path class="cls-2" d="M70.58,90.17c0,.06-.02,.08-.06,.08-.18,0-.45,0-.83-.03-.37-.02-.64-.03-.81-.03-.21,0-.47,0-.79,.03-.3,.02-.53,.03-.69,.03-.04,0-.06-.03-.06-.08s.02-.08,.06-.08c.35,0,.6-.03,.76-.1,.16-.07,.24-.18,.24-.34,0-.13-.06-.33-.18-.6l-1.25-2.65h-3.33l-.88,2.07c-.13,.32-.2,.57-.2,.77,0,.29,.11,.5,.34,.64,.23,.14,.57,.2,1.03,.2,.05,0,.07,.03,.07,.08s-.02,.08-.07,.08c-.17,0-.41,0-.73-.03-.36-.02-.66-.03-.92-.03-.24,0-.52,0-.84,.03-.28,.02-.51,.03-.7,.03-.05,0-.07-.03-.07-.08s.02-.08,.07-.08c.26,0,.48-.05,.67-.15,.18-.1,.35-.27,.52-.52,.16-.25,.34-.6,.54-1.07l2.95-6.97s.05-.04,.1-.04,.08,.01,.08,.04l3.3,6.96c.32,.69,.59,1.16,.81,1.39,.22,.24,.49,.36,.8,.36,.04,0,.06,.03,.06,.08Zm-6.82-4.05h3.09l-1.64-3.46-1.46,3.46Z"/>
        <path class="cls-2" d="M82.68,90.17c0,.06-.01,.08-.04,.08-.29,0-.52,0-.69-.01h-.97s-.9,0-.9,0c-.15,0-.36,.01-.63,.01-.02,0-.03-.03-.03-.08s0-.08,.03-.08c.32,0,.55-.03,.71-.08,.15-.05,.26-.14,.31-.27,.05-.13,.07-.34,.05-.62l-.25-6.37-3.19,7.41s-.06,.06-.11,.06c-.05,0-.09-.02-.13-.06l-3.44-7.32-.13,5.89c0,.49,.08,.84,.25,1.05,.18,.21,.49,.31,.94,.31,.02,0,.03,.03,.03,.08s0,.08-.03,.08c-.26,0-.46,0-.6-.01h-.76s-.73,0-.73,0c-.13,0-.32,.01-.56,.01-.02,0-.03-.03-.03-.08s0-.08,.03-.08c.39,0,.67-.1,.85-.31,.17-.21,.26-.56,.27-1.04l.13-6.5c-.28-.37-.66-.56-1.15-.56-.02,0-.03-.03-.03-.08s0-.08,.03-.08h.52c.09,.02,.22,.03,.39,.03s.31,0,.43-.01c.12,0,.21-.01,.27-.01,.12,0,.22,.04,.3,.13,.08,.09,.19,.29,.34,.59l3.12,6.58,3.05-6.96c.1-.23,.24-.35,.42-.35,.05,0,.11,0,.2,.01,.09,0,.21,.01,.36,.01h.66c.1-.02,.26-.03,.46-.03,.03,0,.04,.03,.04,.08s-.01,.08-.04,.08c-.47,0-.8,.07-1,.2s-.3,.39-.29,.76l.28,6.48c0,.29,.04,.5,.1,.63s.17,.22,.33,.27c.16,.05,.41,.07,.77,.07,.03,0,.04,.03,.04,.08Z"/>
      </g>
    </g>
  </g>
</svg>