<?xml version="1.0" encoding="UTF-8"?>
<svg id="_圖層_2" data-name="圖層 2" xmlns="http://www.w3.org/2000/svg" viewBox="0 0 117 117">
  <defs>
    <style>
      .cls-1 {
        fill: none;
        stroke: #9ebb57;
        stroke-miterlimit: 10;
      }

      .cls-2 {
        fill: #9ebb57;
      }
    </style>
  </defs>
  <g id="menu">
    <g>
      <circle class="cls-1" cx="58.5" cy="58.5" r="58"/>
      <g>
        <path class="cls-2" d="M46.56,46.9h-.93v-1.27h-3.98v1.27h-.97v-7.88h5.88v7.88Zm-.95-2.19v-4.75h-3.96v4.75h3.96Zm7.56-7.74h-10.6v-5.34h10.6v5.34Zm-.94-.9v-3.53h-8.71v3.53h8.71Zm2.38,10.83h-.96v-1.27h-4.01v1.27h-.96v-7.88h5.92v7.88Zm-.96-2.19v-4.75h-4.01v4.75h4.01Z"/>
        <path class="cls-2" d="M64.69,43.63h-.94v-.87h-2.71v1.55h-.91v-11.91h4.57v11.23Zm-.94-1.8v-8.5h-2.71v8.5h2.71Zm11.67,2.79l-.69,.72c-1.37-1.04-2.77-2.9-4.22-5.58v7.21h-.91v-7.24c-1.62,2.71-3.16,4.58-4.61,5.62l-.63-.76c1.72-1.25,3.34-3.28,4.86-6.08h-3.9v-.91h4.28v-3.07h-3.76v-.91h3.76v-2.43h.91v2.43h4.09v.91h-4.09v3.07h4.58v.91h-4.14c1.11,2.53,2.6,4.56,4.46,6.12Z"/>
        <path class="cls-2" d="M55.47,67.45h-15.68v-.91h7.62v-4.86h-5.77v-.96h5.77v-4.1h-4.88c-.68,1.25-1.43,2.29-2.25,3.12l-.76-.65c1.59-1.65,2.76-3.76,3.49-6.32l.93,.24c-.24,.87-.55,1.75-.93,2.65h4.39v-3.53h.97v3.53h6.84v.97h-6.84v4.1h6.01v.96h-6.01v4.86h7.09v.91Z"/>
        <path class="cls-2" d="M63.75,61.89c-.98,2.33-2.14,4.34-3.47,6.03l-.72-.68c1.31-1.58,2.45-3.55,3.4-5.92l.79,.57Zm-.38-2.53l-.59,.76c-.98-.98-2.05-1.8-3.21-2.45l.58-.79c1.15,.7,2.23,1.53,3.22,2.49Zm.38-4.7l-.55,.76c-.98-.98-2.04-1.83-3.17-2.54l.62-.74c1.17,.74,2.2,1.58,3.11,2.52Zm11.54,3.52h-5.33v3.07h4.14v6.65h-.93v-1.29h-7.31v1.29h-.93v-6.65h4.14v-3.07h-5.37v-.88h5.37v-3.11c-1.6,.16-3.09,.23-4.48,.21l-.4-.9c3.84,.02,7.1-.4,9.76-1.26l.5,.81c-1.19,.42-2.68,.74-4.48,.98v3.26h5.33v.88Zm-2.12,7.55v-3.57h-7.31v3.57h7.31Z"/>
      </g>
      <g>
        <path class="cls-2" d="M24.62,89.06c0,.27,.03,.47,.08,.59,.06,.12,.16,.2,.31,.25s.39,.06,.73,.06h1.53c.53,0,.96-.16,1.27-.49,.32-.33,.53-.78,.63-1.36,0-.03,.03-.04,.08-.03,.05,0,.08,.02,.08,.05-.08,.77-.13,1.41-.13,1.92,0,.07-.01,.13-.04,.16-.03,.03-.08,.05-.17,.05h-6.47s-.03-.03-.03-.08,0-.08,.03-.08c.36,0,.61-.02,.78-.07,.16-.05,.27-.14,.33-.27,.06-.14,.08-.34,.08-.62v-6.48c0-.28-.03-.49-.08-.62-.06-.13-.17-.22-.33-.27-.16-.05-.42-.08-.78-.08-.02,0-.03-.03-.03-.08s0-.08,.03-.08h.69c.39,.03,.71,.04,.95,.04,.26,0,.59,0,.98-.03h.67s.04,.01,.04,.07-.01,.08-.04,.08c-.34,0-.6,.03-.76,.08-.16,.05-.28,.14-.34,.28-.06,.14-.09,.34-.09,.62v6.41Z"/>
        <path class="cls-2" d="M33.06,89.74c.06,.14,.17,.23,.33,.27,.16,.05,.42,.07,.78,.07,.03,0,.04,.03,.04,.08s-.01,.08-.04,.08c-.28,0-.5,0-.67-.01h-.99s-.97,0-.97,0c-.17,0-.4,.01-.69,.01-.03,0-.04-.03-.04-.08s.01-.08,.04-.08c.35,0,.61-.02,.78-.07,.16-.05,.27-.14,.34-.27,.06-.14,.09-.34,.09-.62v-6.48c0-.28-.03-.49-.09-.62-.06-.13-.17-.22-.34-.27-.16-.05-.42-.08-.78-.08-.03,0-.04-.03-.04-.08s.01-.08,.04-.08h.69c.39,.03,.71,.04,.97,.04,.28,0,.62,0,1.01-.03h.66s.04,.01,.04,.07-.01,.08-.04,.08c-.35,0-.6,.03-.76,.08-.16,.06-.28,.15-.34,.29s-.09,.34-.09,.62v6.45c0,.28,.03,.49,.08,.62Z"/>
        <path class="cls-2" d="M41.92,83.35s-.02,.04-.07,.05c-.05,0-.07,0-.08-.03-.03-.49-.18-.88-.45-1.16-.27-.28-.63-.41-1.08-.41h-.85c-.32,0-.56,.02-.71,.07-.16,.05-.27,.13-.33,.25-.06,.12-.09,.3-.09,.53v3.07h1.41c.49,0,.85-.08,1.06-.23,.21-.15,.31-.4,.31-.75,0-.02,.03-.03,.08-.03s.08,0,.08,.03v1.13c-.01,.27,0,.48,0,.62v.67s-.01,.03-.07,.03-.08,0-.08-.03c0-.41-.11-.7-.33-.88-.22-.18-.59-.27-1.1-.27h-1.37v3.05c0,.3,.04,.52,.12,.65,.08,.14,.24,.23,.47,.29,.23,.06,.6,.08,1.11,.08,.03,0,.04,.03,.04,.08s-.01,.08-.04,.08c-.38,0-.68,0-.9-.01h-1.26s-.95,0-.95,0c-.17,0-.41,.01-.71,.01-.02,0-.03-.03-.03-.08s0-.08,.03-.08c.36,0,.62-.02,.79-.07,.17-.05,.28-.14,.34-.27,.06-.14,.09-.34,.09-.62v-6.48c0-.28-.03-.49-.09-.62-.06-.13-.17-.22-.34-.27-.16-.05-.42-.08-.78-.08-.02,0-.03-.03-.03-.08s0-.08,.03-.08h5.63c.08,0,.13,.04,.13,.13l.03,1.72Z"/>
        <path class="cls-2" d="M50.07,88.14s.05,0,.08,.01c.02,0,.04,.02,.04,.04-.08,.59-.13,1.2-.13,1.85,0,.07-.02,.13-.05,.16-.03,.03-.09,.05-.17,.05h-5.87s-.03-.03-.03-.08,0-.08,.03-.08c.36,0,.61-.02,.78-.07,.16-.05,.28-.14,.34-.27,.06-.14,.09-.34,.09-.62v-6.48c0-.28-.03-.49-.09-.62-.06-.13-.17-.22-.34-.27s-.42-.08-.78-.08c-.02,0-.03-.03-.03-.08s0-.08,.03-.08h5.63c.08,0,.12,.04,.12,.13l.03,1.72s-.02,.04-.07,.05c-.05,0-.08,0-.08-.03-.03-.49-.18-.88-.45-1.16-.27-.28-.63-.41-1.08-.41h-.85c-.33,0-.57,.03-.72,.08s-.26,.14-.32,.27-.09,.31-.09,.57v2.84h1.71c.45,0,.77-.07,.96-.22,.19-.15,.29-.4,.29-.76,0-.02,.03-.03,.08-.03s.08,0,.08,.03v1.13c-.01,.27,0,.48,0,.62v.67s-.01,.03-.07,.03-.08,0-.08-.03c0-.41-.1-.7-.3-.88-.2-.18-.53-.27-1-.27h-1.67v3.22c0,.26,.03,.45,.08,.57s.16,.21,.31,.25c.15,.05,.38,.07,.7,.07h1.12c.45,0,.82-.16,1.12-.48,.3-.32,.5-.76,.6-1.32,0-.02,.02-.03,.06-.03Z"/>
        <path class="cls-2" d="M53.88,84.09c.18,.27,.39,.5,.65,.68,.26,.18,.61,.41,1.06,.68,.5,.3,.88,.55,1.14,.74,.27,.2,.49,.45,.69,.75,.19,.3,.29,.67,.29,1.08,0,.45-.11,.85-.34,1.22-.22,.36-.55,.65-.99,.86s-.95,.31-1.56,.31c-.72,0-1.38-.16-1.97-.49-.05-.03-.08-.06-.09-.1s-.03-.09-.04-.17l-.18-1.9s.01-.06,.06-.07c.05,0,.08,0,.09,.04,.15,.67,.43,1.25,.83,1.74,.41,.49,.95,.73,1.62,.73,.47,0,.86-.13,1.18-.39,.32-.26,.48-.67,.48-1.23,0-.42-.09-.78-.28-1.09-.19-.31-.41-.56-.68-.76-.27-.2-.63-.44-1.08-.71-.45-.27-.8-.5-1.06-.7s-.47-.44-.65-.74c-.18-.3-.27-.65-.27-1.05,0-.47,.12-.87,.37-1.2,.25-.33,.57-.58,.97-.74,.4-.16,.82-.25,1.27-.25,.55,0,1.1,.11,1.64,.34,.14,.05,.21,.13,.21,.24l.1,1.61s-.02,.06-.07,.06-.08-.02-.08-.06c-.08-.49-.28-.94-.6-1.35-.33-.42-.8-.62-1.41-.62-.52,0-.91,.15-1.17,.46-.26,.3-.38,.68-.38,1.13,0,.36,.09,.68,.27,.95Z"/>
        <path class="cls-2" d="M60.48,82.2c-.29,.3-.51,.81-.64,1.53,0,.02-.03,.03-.08,.03s-.08,0-.08-.03c.04-.34,.08-.77,.13-1.32,.05-.54,.07-.95,.07-1.22,0-.05,.03-.07,.08-.07s.08,.02,.08,.07c0,.21,.25,.31,.76,.31,.79,.03,1.73,.04,2.81,.04,.55,0,1.13,0,1.75-.03h.95c.34-.01,.59-.04,.75-.08,.16-.05,.27-.14,.31-.28,0-.04,.04-.06,.08-.06s.07,.02,.07,.06c-.03,.27-.06,.68-.08,1.23-.03,.55-.04,1-.04,1.34,0,.02-.03,.03-.08,.03s-.08,0-.08-.03c-.03-.73-.18-1.24-.45-1.53-.27-.29-.72-.44-1.34-.44-.42,0-.72,.02-.9,.06s-.3,.12-.36,.24c-.07,.12-.1,.33-.1,.62v6.45c0,.29,.03,.5,.1,.63,.06,.13,.19,.22,.38,.27,.19,.05,.48,.07,.88,.07,.03,0,.04,.03,.04,.08s-.01,.08-.04,.08c-.31,0-.56,0-.74-.01h-1.09s-1.05,0-1.05,0c-.19,0-.44,.01-.77,.01-.02,0-.03-.03-.03-.08s0-.08,.03-.08c.4,0,.7-.02,.88-.07,.19-.05,.31-.14,.38-.27,.07-.14,.1-.34,.1-.62v-6.48c0-.29-.03-.49-.1-.61-.06-.12-.19-.19-.36-.22s-.48-.05-.9-.05c-.59,0-1.03,.15-1.32,.45Z"/>
        <path class="cls-2" d="M77.36,81.59c0,.06,0,.08-.03,.08-.34,0-.68,.12-1.02,.37s-.65,.59-.92,1.01l-1.88,2.88v3.18c0,.29,.03,.5,.08,.63s.17,.22,.33,.27c.16,.05,.42,.07,.78,.07,.03,0,.04,.03,.04,.08s-.01,.08-.04,.08c-.29,0-.51,0-.67-.01h-.98s-.97,0-.97,0c-.17,0-.4,.01-.69,.01-.03,0-.04-.03-.04-.08s.01-.08,.04-.08c.36,0,.61-.02,.78-.07,.16-.05,.28-.14,.34-.27,.06-.14,.09-.34,.09-.62v-2.95l-2.32-3.4c-.26-.41-.51-.7-.74-.85-.23-.16-.5-.24-.81-.24-.03,0-.04-.03-.04-.08s.01-.08,.04-.08c.11,0,.28,0,.5,.03h.49c.32,.01,.72,0,1.2-.01h.76s.03,.01,.03,.07,0,.08-.03,.08c-.49,0-.73,.1-.73,.29,0,.1,.05,.22,.14,.35l2.25,3.3,1.71-2.62c.21-.33,.31-.6,.31-.83,0-.34-.25-.5-.76-.5-.02,0-.03-.03-.03-.08s0-.08,.03-.08h.66c.35,.03,.68,.04,.98,.04,.16,0,.35,0,.57-.03h.52s.03,.01,.03,.07Z"/>
        <path class="cls-2" d="M80.55,89.06c0,.27,.03,.47,.08,.59,.06,.12,.16,.2,.31,.25,.15,.04,.39,.06,.73,.06h1.53c.53,0,.96-.16,1.27-.49s.53-.78,.63-1.36c0-.03,.03-.04,.08-.03,.05,0,.08,.02,.08,.05-.08,.77-.13,1.41-.13,1.92,0,.07-.01,.13-.04,.16-.03,.03-.08,.05-.17,.05h-6.47s-.03-.03-.03-.08,0-.08,.03-.08c.35,0,.61-.02,.78-.07,.16-.05,.27-.14,.33-.27,.06-.14,.08-.34,.08-.62v-6.48c0-.28-.03-.49-.08-.62-.06-.13-.17-.22-.33-.27-.16-.05-.42-.08-.78-.08-.02,0-.03-.03-.03-.08s0-.08,.03-.08h.69c.39,.03,.71,.04,.95,.04,.26,0,.59,0,.98-.03h.67s.04,.01,.04,.07-.01,.08-.04,.08c-.34,0-.6,.03-.76,.08-.16,.05-.28,.14-.34,.28-.06,.14-.09,.34-.09,.62v6.41Z"/>
        <path class="cls-2" d="M92.82,88.14s.05,0,.08,.01c.02,0,.03,.02,.03,.04-.08,.59-.13,1.2-.13,1.85,0,.07-.02,.13-.05,.16-.03,.03-.09,.05-.18,.05h-5.87s-.03-.03-.03-.08,0-.08,.03-.08c.35,0,.61-.02,.78-.07,.16-.05,.28-.14,.34-.27,.06-.14,.09-.34,.09-.62v-6.48c0-.28-.03-.49-.09-.62-.06-.13-.17-.22-.34-.27-.16-.05-.42-.08-.78-.08-.02,0-.03-.03-.03-.08s0-.08,.03-.08h5.63c.08,0,.13,.04,.13,.13l.03,1.72s-.02,.04-.07,.05c-.05,0-.08,0-.08-.03-.03-.49-.18-.88-.45-1.16-.27-.28-.63-.41-1.08-.41h-.85c-.33,0-.57,.03-.72,.08s-.26,.14-.32,.27-.09,.31-.09,.57v2.84h1.71c.45,0,.77-.07,.96-.22,.19-.15,.29-.4,.29-.76,0-.02,.03-.03,.08-.03s.08,0,.08,.03v1.13c-.01,.27,0,.48,0,.62v.67s-.01,.03-.07,.03-.08,0-.08-.03c0-.41-.1-.7-.3-.88-.2-.18-.54-.27-1-.27h-1.67v3.22c0,.26,.03,.45,.08,.57,.06,.12,.16,.21,.31,.25,.15,.05,.38,.07,.7,.07h1.12c.45,0,.82-.16,1.12-.48,.3-.32,.5-.76,.6-1.32,0-.02,.02-.03,.06-.03Z"/>
      </g>
    </g>
  </g>
</svg>