<?xml version="1.0" encoding="UTF-8"?>
<svg id="_圖層_2" data-name="圖層 2" xmlns="http://www.w3.org/2000/svg" viewBox="0 0 681.94 78.69">
  <defs>
    <style>
      .cls-1 {
        fill: #fff;
      }
    </style>
  </defs>
  <g id="_圖層_3" data-name="圖層 3">
    <g>
      <g>
        <path class="cls-1" d="M234.65,5.45c-1.97,2.41-4.59,4.68-7.88,6.79-3.68,2.02-6.84,3.33-9.49,3.94l-.42-.6c2.98-1.29,5.7-2.99,8.16-5.1,2.62-2.09,4.64-4.37,6.05-6.86-3.33,0-5.44,.05-6.33,.14l-.53-1.41c.91,.21,1.99,.32,3.23,.32h3.2c.45-.56,.76-.98,.95-1.27,.56-.77,1.01-1.16,1.34-1.16,.47,0,1.29,.5,2.46,1.51,1.17,.91,1.76,1.54,1.76,1.86,0,.38-.39,.7-1.16,.98-.02,.02-.05,.04-.07,.04,1.9,1.73,3.84,3.11,5.84,4.11,2.79,1.31,5.57,2.24,8.33,2.78l-.14,.81c-1.03,.33-1.76,1.05-2.18,2.18-.26,.8-.56,1.2-.91,1.2-.52,0-1.71-.59-3.59-1.76-1.95-1.2-3.8-2.73-5.55-4.61-1.15-1.27-2.17-2.57-3.06-3.9Zm-10.44,8.44c1.12,.19,2.75,.28,4.89,.28h7.35c.07-.02,.42-.43,1.05-1.23,.75-.94,1.2-1.41,1.34-1.41,.38,0,.98,.46,1.83,1.37s1.27,1.49,1.27,1.72c0,.38-.2,.56-.6,.56h-6.19v6.19h2.95c.12-.05,.54-.55,1.27-1.51,.89-1.15,1.42-1.72,1.58-1.72,.49,0,1.24,.55,2.25,1.65,1.03,1.08,1.55,1.73,1.55,1.97,0,.4-.23,.6-.7,.6h-8.89v7.88h6.79c.12-.05,.57-.57,1.37-1.58,.98-1.2,1.56-1.79,1.72-1.79,.49,0,1.27,.57,2.32,1.72,1.05,1.12,1.58,1.8,1.58,2.04,0,.4-.22,.6-.67,.6h-25.45c-2.06,0-3.53,.05-4.39,.14l-.53-1.41c1.12,.19,2.77,.28,4.92,.28h8.26v-7.88h-4.04c-2.04,0-3.49,.05-4.36,.14l-.6-1.41c1.15,.19,2.8,.28,4.96,.28h4.04v-6.19h-1.97c-2.04,0-3.49,.05-4.36,.14l-.53-1.44Z"/>
        <path class="cls-1" d="M261.22,.25c1.66,.42,3.22,.98,4.68,1.69h21.06c.42-.38,.8-.73,1.12-1.05,.52-.49,.88-.74,1.09-.74,.42,0,1.15,.35,2.18,1.05,1.2,.94,1.79,1.57,1.79,1.9,0,.3-.26,.66-.77,1.05-.42,.42-.63,.81-.63,1.16V24.47l.25,7.17c0,.45-.66,.79-1.97,1.02-.56,.07-.97,.11-1.23,.11-.68,0-1.02-.38-1.02-1.12v-.56h-22.5v.7c0,.45-.57,.79-1.72,1.02-.49,.07-.84,.11-1.05,.11-.84,0-1.27-.38-1.27-1.12,.19-2.58,.28-4.83,.28-6.75V6.43c0-1.69-.09-3.75-.28-6.19Zm4.04,29.85h22.5V9.67h-7.66c.12,2.84,.43,5.39,.95,7.66,.63-1.5,1.2-3.34,1.69-5.52,1.03,.49,2.07,1.01,3.13,1.55,1.08,.52,1.62,.94,1.62,1.27,0,.35-.42,.53-1.27,.53-.52,0-.83,.14-.95,.42-1.01,2.32-2.02,4.24-3.02,5.77,.82,2.09,1.63,3.13,2.43,3.13,.28,0,.86-1.69,1.72-5.06l.7,.28c-.38,3.33-.56,5.2-.56,5.62,0,.19,.12,.63,.35,1.34,.23,.54,.35,.93,.35,1.16-.09,.84-.48,1.31-1.16,1.41-1.52,0-3.11-.82-4.75-2.46-.63-.68-1.21-1.48-1.72-2.39-.61,.59-1.24,1.12-1.9,1.62-1.78,1.43-3.76,2.51-5.94,3.23l-.28-.53c1.9-1.15,3.73-2.68,5.48-4.61,.59-.68,1.12-1.41,1.62-2.18-.14-.42-.27-.86-.39-1.3-.68-2.55-1.21-6.2-1.58-10.93h-5.98c-2.06,0-3.53,.05-4.39,.14l-.53-1.41c1.12,.21,2.77,.32,4.92,.32h5.91c-.12-1.62-.21-3.36-.28-5.24,1.17,.19,2.27,.39,3.3,.6,.87,.14,1.51,.29,1.93,.46-.09-.21-.2-.42-.32-.63l.39-.42c1.29,.35,2.17,.64,2.64,.88,.61,.3,.91,.57,.91,.81,0,.75-.18,1.32-.53,1.72-.45,.47-.94,.7-1.48,.7-.28,0-.48-.06-.6-.18-.16-.09-.29-.46-.39-1.09-.05-.23-.09-.46-.14-.67-.23,.12-.55,.23-.95,.35-.68,.19-1.02,.47-1.02,.84,0,.63,.01,1.25,.04,1.86h3.94c.07-.02,.36-.34,.88-.95,.61-.7,.96-1.05,1.05-1.05,.35,0,.86,.36,1.51,1.09,.12,.14,.22,.26,.32,.35V2.95h-22.5V30.09Zm12.13-8.61l.14,.42c-2.65,2.3-5.45,3.95-8.4,4.96-.3,.07-.46,.21-.46,.42-.05,.09-.08,.23-.11,.42-.07,.28-.19,.42-.35,.42-.45,0-1-.79-1.65-2.36-.16-.42-.45-1.14-.84-2.14,4.24-.42,8.13-1.14,11.67-2.14Zm-10.55-9.81c1.29,.33,2.61,.8,3.97,1.41h1.09c.38-.49,.74-.9,1.09-1.23,.26-.33,.49-.49,.7-.49,.23,0,.75,.26,1.55,.77,.96,.66,1.44,1.11,1.44,1.37s-.14,.53-.42,.81c-.19,.26-.28,.55-.28,.88v1.41c0,.91,.05,2.17,.14,3.76,0,.42-.52,.73-1.55,.91-.45,.07-.77,.11-.98,.11-.59,0-.88-.34-.88-1.02h-2.36v.6c0,.4-.48,.69-1.44,.88-.45,.05-.77,.07-.98,.07-.63,0-.95-.32-.95-.95,.09-1.03,.14-2.06,.14-3.09v-2c0-1.43-.09-2.82-.28-4.18Zm3.52,7.73h2.36v-5.38h-2.36v5.38Z"/>
        <path class="cls-1" d="M303.54,13.5c1.15,.19,2.79,.28,4.92,.28h21.55c.09-.05,.47-.47,1.12-1.27,.77-.96,1.24-1.44,1.41-1.44,.4,0,1.03,.47,1.9,1.41,.89,.94,1.34,1.5,1.34,1.69,0,.4-.2,.6-.6,.6h-16v17.3c0,.47-.63,.81-1.9,1.02-.54,.07-.94,.11-1.2,.11-.75,0-1.12-.38-1.12-1.12,.16-1.22,.26-2.89,.28-5.03-2.39,1.2-4.89,2.11-7.49,2.74-.35,.05-.53,.15-.53,.32-.05,.09-.08,.23-.11,.42-.05,.26-.16,.39-.35,.39-.45,0-1-.77-1.65-2.32-.16-.45-.45-1.17-.84-2.18,.96-.02,1.9-.06,2.81-.11V14.77c-1.34,.02-2.32,.07-2.95,.14l-.6-1.41ZM308.64,.25c1.66,.45,3.36,1.05,5.1,1.83h11.92c.52-.56,1.02-1.07,1.51-1.51,.38-.38,.71-.56,1.02-.56s1.01,.34,2.11,1.02c1.29,.84,1.93,1.44,1.93,1.79,0,.33-.28,.67-.84,1.02-.47,.33-.7,.68-.7,1.05v1.83c0,1.2,.05,2.8,.14,4.82,0,.45-.64,.77-1.93,.98-.56,.07-1,.11-1.3,.11-.63,0-.95-.36-.95-1.09v-.32h-13.82v.46c0,.45-.59,.77-1.76,.98-.52,.07-.91,.11-1.2,.11-.73,0-1.09-.36-1.09-1.09,.09-1.29,.14-2.57,.14-3.83v-2.39c0-1.78-.09-3.52-.28-5.2Zm2.36,17.47h4.25v-2.95h-4.25v2.95Zm0,4.18h4.25v-3.23h-4.25v3.23Zm0,4.18c1.48-.09,2.89-.2,4.25-.32v-2.85h-4.25v3.16Zm1.83-20.18h13.82V3.09h-13.82v2.81Zm0,4.36h13.82v-3.41h-13.82v3.41Zm6.93,6.71c1.69,.19,3.27,.28,4.75,.28h4.25c.45-.45,.79-.74,1.02-.88,.59-.54,1.04-.81,1.37-.81,.3,0,1.04,.49,2.21,1.48,1.15,1.05,1.72,1.75,1.72,2.07,0,.3-.41,.5-1.23,.6-.75,.07-1.24,.19-1.48,.35-.54,1.73-1.32,3.33-2.36,4.78-.19,.35-.4,.68-.63,.98,1.97,1.12,4.15,2.03,6.54,2.71l-.28,.67c-1.03,.42-1.71,.95-2.04,1.58-.35,.84-.66,1.27-.91,1.27-.38,0-1.08-.34-2.11-1.02-1.08-.63-2.21-1.51-3.41-2.64-.23,.21-.48,.42-.74,.63-1.55,1.34-3.69,2.43-6.43,3.27l-.25-.67c1.83-1.2,3.62-3.04,5.38-5.52l.04-.04c-.38-.52-.73-1.09-1.05-1.72-.8-1.41-1.45-3.42-1.97-6.05-.7,.02-1.32,.06-1.86,.11l-.53-1.44Zm3.16,1.3c.54,1.34,1.24,2.6,2.11,3.8,.45,.59,.96,1.16,1.55,1.72,.8-1.59,1.52-3.43,2.18-5.52h-5.84Z"/>
        <path class="cls-1" d="M346.74,9.81c2.16,.3,4.12,.46,5.91,.46h7.45c.16-1.57,.26-3.22,.28-4.96,0-1.97-.05-3.61-.14-4.92,1.24,.16,2.47,.38,3.69,.63,1.66,.3,2.5,.61,2.5,.91,0,.33-.26,.63-.77,.91-.61,.26-.91,.52-.91,.77-.16,2.46-.38,4.68-.63,6.64h7.84c.12-.05,.59-.6,1.41-1.65,1.03-1.27,1.64-1.9,1.83-1.9,.52,0,1.32,.61,2.43,1.83,1.1,1.17,1.65,1.89,1.65,2.14,0,.35-.25,.53-.74,.53h-13.18c.56,2.34,1.34,4.55,2.32,6.61,1.08,2.25,2.53,4.21,4.36,5.87,2.2,1.99,4.66,3.56,7.38,4.71l-.14,.81c-1.27,.52-2.1,1.16-2.5,1.93-.45,.98-.84,1.48-1.2,1.48-.38,0-1.11-.52-2.21-1.55-1.24-1.03-2.57-2.52-3.97-4.46-1.05-1.43-2.03-3.34-2.92-5.73-.89-2.25-1.62-5.47-2.18-9.67h-.32c-.59,3.7-1.34,6.52-2.25,8.44-1.43,3.12-3.4,5.74-5.91,7.88-2.11,1.9-5.04,3.69-8.79,5.38l-.28-.74c2.88-1.88,5.39-4.1,7.52-6.68,1.92-2.18,3.47-5.09,4.64-8.72,.49-1.69,.86-3.54,1.09-5.55h-7.88c-1.92,0-3.52,.11-4.78,.32l-.6-1.72Z"/>
        <path class="cls-1" d="M409.28,15.01c0,2.53-1.41,4.8-4.22,6.82l-.7-.74c1.45-1.29,2.18-2.48,2.18-3.59,0-.16-.08-.26-.25-.28-2.18-.3-3.27-1.24-3.27-2.81,0-.8,.32-1.49,.95-2.07,.56-.54,1.27-.81,2.11-.81,.96,0,1.75,.33,2.36,.98,.56,.68,.84,1.51,.84,2.5Z"/>
        <path class="cls-1" d="M439.65,7.73c1.2,.68,2.24,1.25,3.13,1.72,1.2,.66,1.79,1.15,1.79,1.48,0,.3-.3,.48-.91,.53-.68,0-1.09,.12-1.23,.35-.54,.89-1.1,1.72-1.69,2.5,.68,.23,1.02,.43,1.02,.6,0,.35-.23,.63-.7,.84-.3,.19-.46,.47-.46,.84v15.57c0,.42-.53,.73-1.58,.91-.49,.07-.86,.11-1.09,.11-.82,0-1.23-.34-1.23-1.02,.19-2.51,.28-5.04,.28-7.59v-6.15c-1.1,.87-2.43,1.76-3.97,2.67l-.25-.74c1.52-1.73,2.87-3.63,4.04-5.7,1.36-2.46,2.31-4.77,2.85-6.93Zm-1.86-7.49c1.2,.7,2.24,1.29,3.13,1.76,1.22,.63,1.83,1.12,1.83,1.48,0,.3-.3,.49-.91,.56-.7,0-1.11,.11-1.23,.32-.75,1.15-1.55,2.18-2.39,3.09-.96,1.1-2.51,2.23-4.64,3.38l-.28-.7c1.01-1.38,1.9-2.87,2.67-4.46,.89-1.9,1.5-3.7,1.83-5.41Zm7.45,22.78l.88,.14c0,2.72-.09,4.57-.28,5.55-.21,1.08-.56,1.84-1.05,2.29-.28,.23-.6,.35-.95,.35-.75,0-1.39-.23-1.93-.7-.47-.4-.7-.96-.7-1.69,0-.38,.36-.83,1.09-1.37,.8-.52,1.43-1.1,1.9-1.76,.42-.63,.77-1.57,1.05-2.81Zm-2.36-4.5c1.12,.19,2.77,.28,4.92,.28h12.94c.07-.02,.38-.39,.91-1.09,.68-.84,1.08-1.27,1.2-1.27,.35,0,.93,.42,1.72,1.27,.82,.82,1.23,1.34,1.23,1.55,0,.38-.19,.56-.56,.56h-17.44c-2.06,0-3.52,.04-4.36,.11l-.56-1.41Zm.28-14.91c1.12,.19,2.75,.28,4.89,.28h3.52v-.81c0-.96-.09-1.95-.28-2.95,1.48,.14,2.89,.33,4.25,.56,.84,.05,1.27,.28,1.27,.7,0,.14-.26,.32-.77,.53-.52,.23-.77,.53-.77,.88v1.09h4.5c.07-.05,.45-.47,1.12-1.27,.77-1.01,1.24-1.51,1.41-1.51,.42,0,1.09,.48,2,1.44,.91,.98,1.37,1.58,1.37,1.79,0,.35-.2,.53-.6,.53h-9.81v2.95h3.23c.45-.45,.87-.84,1.27-1.2,.3-.3,.57-.46,.81-.46,.28,0,.88,.29,1.79,.88,1.08,.73,1.62,1.23,1.62,1.51,0,.3-.25,.62-.74,.95-.35,.28-.53,.62-.53,1.02v1.27c0,.98,.05,2.33,.14,4.04,0,.47-.56,.82-1.69,1.05-.52,.05-.89,.07-1.12,.07-.68,0-1.02-.32-1.02-.95v-.32h-10.83v.32c0,.4-.48,.69-1.44,.88-.42,.05-.73,.07-.91,.07-.66,0-.98-.27-.98-.81,.07-.56,.11-1.18,.11-1.86v-5.03c0-.73-.08-1.58-.25-2.57,1.05,.3,2.13,.68,3.23,1.12h3.62v-2.95h-3.52c-2.04,0-3.49,.05-4.36,.14l-.53-1.41Zm4.5,18.28c1.05,.12,2.33,.28,3.83,.49,1.1,.16,1.65,.38,1.65,.63,0,.45-.3,.77-.91,.98-.45,.16-.67,.45-.67,.84v3.09c0,.75,.33,1.22,.98,1.41,.56,.21,1.45,.32,2.67,.32s1.95-.09,2.32-.28c.38-.16,.66-.55,.84-1.16,.23-.75,.55-1.77,.95-3.06h.7c.09,1.36,.16,2.31,.21,2.85,.07,.63,.3,1.1,.7,1.41,.68,.42,1.02,.79,1.02,1.09,0,.52-.26,.93-.77,1.23-.47,.28-1.23,.52-2.29,.7-1.12,.21-2.36,.32-3.69,.32-1.78,0-3.18-.06-4.18-.18-.94-.16-1.56-.36-1.86-.6-.75-.38-1.12-1.2-1.12-2.46v-2.81c0-2.11-.13-3.71-.39-4.82Zm.53-7.14h1.55v-5.91h-1.55v5.91Zm4.78,5.45c1.9,.59,3.22,1.22,3.97,1.9,.66,.61,.98,1.35,.98,2.21,0,.56-.25,1.09-.74,1.58-.3,.33-.73,.49-1.27,.49-.4,0-.76-.49-1.09-1.48-.4-1.43-1.11-2.8-2.14-4.11l.28-.6Zm-.14-11.36v5.91h1.55v-5.91h-1.55Zm4.64,0v5.91h1.55v-5.91h-1.55Zm2.81,13.22c2.06,1.1,3.5,2.09,4.32,2.95,.8,.84,1.2,1.59,1.2,2.25,0,.8-.22,1.45-.67,1.97-.42,.56-.9,.84-1.44,.84-.3,0-.56-.09-.77-.28-.19-.26-.41-1.01-.67-2.25-.3-1.41-1.09-3.09-2.36-5.06l.39-.42Z"/>
        <path class="cls-1" d="M477.22,.25c1.66,.42,3.22,.98,4.68,1.69h21.06c.42-.38,.8-.73,1.12-1.05,.52-.49,.88-.74,1.09-.74,.42,0,1.15,.35,2.18,1.05,1.2,.94,1.79,1.57,1.79,1.9,0,.3-.26,.66-.77,1.05-.42,.42-.63,.81-.63,1.16V24.47l.25,7.17c0,.45-.66,.79-1.97,1.02-.56,.07-.97,.11-1.23,.11-.68,0-1.02-.38-1.02-1.12v-.56h-22.5v.7c0,.45-.57,.79-1.72,1.02-.49,.07-.84,.11-1.05,.11-.84,0-1.27-.38-1.27-1.12,.19-2.58,.28-4.83,.28-6.75V6.43c0-1.69-.09-3.75-.28-6.19Zm4.04,29.85h22.5V9.67h-7.66c.12,2.84,.43,5.39,.95,7.66,.63-1.5,1.2-3.34,1.69-5.52,1.03,.49,2.07,1.01,3.13,1.55,1.08,.52,1.62,.94,1.62,1.27,0,.35-.42,.53-1.27,.53-.52,0-.83,.14-.95,.42-1.01,2.32-2.02,4.24-3.02,5.77,.82,2.09,1.63,3.13,2.43,3.13,.28,0,.86-1.69,1.72-5.06l.7,.28c-.38,3.33-.56,5.2-.56,5.62,0,.19,.12,.63,.35,1.34,.23,.54,.35,.93,.35,1.16-.09,.84-.48,1.31-1.16,1.41-1.52,0-3.11-.82-4.75-2.46-.63-.68-1.21-1.48-1.72-2.39-.61,.59-1.24,1.12-1.9,1.62-1.78,1.43-3.76,2.51-5.94,3.23l-.28-.53c1.9-1.15,3.73-2.68,5.48-4.61,.59-.68,1.12-1.41,1.62-2.18-.14-.42-.27-.86-.39-1.3-.68-2.55-1.21-6.2-1.58-10.93h-5.98c-2.06,0-3.53,.05-4.39,.14l-.53-1.41c1.12,.21,2.77,.32,4.92,.32h5.91c-.12-1.62-.21-3.36-.28-5.24,1.17,.19,2.27,.39,3.3,.6,.87,.14,1.51,.29,1.93,.46-.09-.21-.2-.42-.32-.63l.39-.42c1.29,.35,2.17,.64,2.64,.88,.61,.3,.91,.57,.91,.81,0,.75-.18,1.32-.53,1.72-.45,.47-.94,.7-1.48,.7-.28,0-.48-.06-.6-.18-.16-.09-.29-.46-.39-1.09-.05-.23-.09-.46-.14-.67-.23,.12-.55,.23-.95,.35-.68,.19-1.02,.47-1.02,.84,0,.63,.01,1.25,.04,1.86h3.94c.07-.02,.36-.34,.88-.95,.61-.7,.96-1.05,1.05-1.05,.35,0,.86,.36,1.51,1.09,.12,.14,.22,.26,.32,.35V2.95h-22.5V30.09Zm12.13-8.61l.14,.42c-2.65,2.3-5.45,3.95-8.4,4.96-.3,.07-.46,.21-.46,.42-.05,.09-.08,.23-.11,.42-.07,.28-.19,.42-.35,.42-.45,0-1-.79-1.65-2.36-.16-.42-.45-1.14-.84-2.14,4.24-.42,8.13-1.14,11.67-2.14Zm-10.55-9.81c1.29,.33,2.61,.8,3.97,1.41h1.09c.38-.49,.74-.9,1.09-1.23,.26-.33,.49-.49,.7-.49,.23,0,.75,.26,1.55,.77,.96,.66,1.44,1.11,1.44,1.37s-.14,.53-.42,.81c-.19,.26-.28,.55-.28,.88v1.41c0,.91,.05,2.17,.14,3.76,0,.42-.52,.73-1.55,.91-.45,.07-.77,.11-.98,.11-.59,0-.88-.34-.88-1.02h-2.36v.6c0,.4-.48,.69-1.44,.88-.45,.05-.77,.07-.98,.07-.63,0-.95-.32-.95-.95,.09-1.03,.14-2.06,.14-3.09v-2c0-1.43-.09-2.82-.28-4.18Zm3.52,7.73h2.36v-5.38h-2.36v5.38Z"/>
        <path class="cls-1" d="M523.66,.25c1.17,.33,2.32,.66,3.45,.98,1.05,.3,1.58,.63,1.58,.98,0,.4-.29,.64-.88,.74-.63,.12-.98,.25-1.05,.39-.16,.3-.32,.6-.46,.88h3.8s.35-.33,.91-.98c.77-.96,1.28-1.44,1.51-1.44s.94,.54,2.11,1.62c.75,.66,1.12,1.07,1.12,1.23,0,.35-.19,.53-.56,.53h-5.73c.75,.26,1.3,.49,1.65,.7,.84,.49,1.27,.93,1.27,1.3,0,.84-.2,1.52-.6,2.04-.49,.49-1.05,.74-1.69,.74-.42,0-.73-.08-.91-.25-.26-.09-.46-.57-.6-1.44-.16-1.01-.61-2.04-1.34-3.09h-1.58c-.54,.8-1.12,1.51-1.76,2.14-1.03,1.05-2.39,2.13-4.08,3.23l-.42-.42c1.17-1.64,2.06-3.15,2.67-4.54,.63-1.5,1.16-3.28,1.58-5.34Zm-1.02,10.16c1.59,.19,3.52,.28,5.77,.28h15.19c.45-.35,.83-.69,1.16-1.02,.52-.45,.89-.67,1.12-.67,.4,0,1.07,.4,2,1.2,1.1,.82,1.65,1.36,1.65,1.62,0,.35-.22,.67-.67,.95-.52,.42-.77,.8-.77,1.12,0,1.55,.05,2.52,.14,2.92v.6c0,.47-.62,.81-1.86,1.02-.54,.07-.95,.11-1.23,.11-.63,0-.95-.38-.95-1.12v-.53h-6.64v4.22h7.73c.49-.45,.86-.76,1.09-.95,.61-.49,1.05-.74,1.34-.74,.4,0,1.18,.41,2.36,1.23,1.24,.8,1.86,1.42,1.86,1.86,0,.28-.28,.54-.84,.77-.68,.4-1.07,.75-1.16,1.05-.47,3.38-1.27,5.48-2.39,6.33-1.24,.66-2.21,.98-2.92,.98-.38,0-.69-.46-.95-1.37-.26-.96-1.49-1.96-3.69-2.99l.14-.7c1.78,.38,3.09,.56,3.94,.56,.8,0,1.31-.83,1.55-2.5,.14-.89,.28-1.75,.42-2.57h-8.47v9.98c0,.47-.62,.81-1.86,1.02-.56,.07-.97,.11-1.23,.11-.75,0-1.12-.38-1.12-1.12,.21-1.38,.32-3.36,.32-5.94v-.98c-.7,.61-1.36,1.14-1.97,1.58-1.52,1.03-3.28,1.93-5.27,2.71-1.99,.82-4.18,1.51-6.57,2.07l-.28-.6c2.48-.98,4.8-2.23,6.96-3.73,2.02-1.5,3.74-3.2,5.17-5.1h-5.87l-.35,1.37c0,.4-.69,.64-2.07,.74-1.34,0-2-.25-2-.74l2-7.59c.21-.82,.39-1.51,.53-2.07,1.1,.42,2.44,1.11,4.01,2.07h5.73v-4.18h-5.24c-2.44,0-4.16,.05-5.17,.14l-.6-1.41Zm11,10.69v-4.22h-6.61l-.98,4.22h7.59Zm3.8-20.85c1.15,.33,2.26,.66,3.34,.98,1.03,.3,1.55,.63,1.55,.98s-.28,.57-.84,.67c-.56,.07-.89,.19-.98,.35l-.49,.98h6.29s.36-.38,1.02-1.12c.84-1.03,1.39-1.55,1.65-1.55s1,.57,2.21,1.72c.77,.73,1.16,1.18,1.16,1.37,0,.35-.23,.53-.7,.53h-7.95c.52,.14,.91,.29,1.2,.46,.84,.35,1.27,.67,1.27,.95,0,.91-.21,1.64-.63,2.18-.54,.52-1.14,.77-1.79,.77-.4,0-.69-.07-.88-.21-.21-.09-.4-.54-.56-1.34-.14-.91-.55-1.85-1.23-2.81h-1.72c-.38,.54-.76,1.02-1.16,1.44-.87,.91-2.02,1.84-3.45,2.78l-.39-.39c.84-1.48,1.49-2.82,1.93-4.04,.47-1.31,.86-2.88,1.16-4.71Zm.11,11.43v4.18h6.64v-4.18h-6.64Z"/>
        <path class="cls-1" d="M562.6,14.45c2.16,.3,4.12,.46,5.91,.46h19.69c.12-.05,.57-.57,1.37-1.58,.98-1.2,1.56-1.79,1.72-1.79,.52,0,1.3,.57,2.36,1.72,1.08,1.12,1.62,1.82,1.62,2.07,0,.35-.25,.53-.74,.53h-26.54c-1.92,0-3.53,.11-4.82,.32l-.56-1.72Z"/>
        <path class="cls-1" d="M607.49,16.31c1.59,.4,3.2,.96,4.82,1.69h3.23c.54-.61,1.05-1.12,1.55-1.55,.35-.4,.67-.6,.95-.6,.33,0,1.02,.35,2.07,1.05,1.27,.87,1.9,1.45,1.9,1.76,0,.35-.28,.7-.84,1.05-.38,.33-.56,.69-.56,1.09v5.91c0,1.12,.05,2.67,.14,4.64,0,.45-.62,.77-1.86,.98-.56,.07-.97,.11-1.23,.11-.68,0-1.02-.36-1.02-1.09v-1.55h-4.92v1.83c0,.45-.59,.79-1.76,1.02-.54,.07-.94,.11-1.2,.11-.75,0-1.12-.38-1.12-1.12,.09-1.27,.14-2.54,.14-3.83v-6.33c0-1.78-.09-3.5-.28-5.17Zm4.22,12.52h4.92v-9.88h-4.92v9.88Zm1.3-27.7c1.55,.4,3.14,.96,4.78,1.69h8.16c.56-.68,1.1-1.25,1.62-1.72,.38-.47,.71-.7,1.02-.7,.35,0,1.1,.36,2.25,1.09,1.34,.91,2,1.54,2,1.86,0,.35-.27,.7-.81,1.05-.42,.33-.63,.68-.63,1.05v3.83c0,1.15,.05,2.73,.14,4.75,0,.49-.64,.84-1.93,1.05-.59,.07-1.01,.11-1.27,.11-.68,0-1.02-.39-1.02-1.16v-1.27h-10.09v1.41c0,.49-.6,.84-1.79,1.05-.54,.07-.93,.11-1.16,.11-.75,0-1.12-.39-1.12-1.16,.07-1.24,.11-2.5,.11-3.76V6.29c0-1.78-.08-3.5-.25-5.17Zm4.22,10.69h10.09V3.76h-10.09V11.81Zm6.61,4.5c1.57,.4,3.16,.96,4.78,1.69h3.2c.56-.68,1.08-1.25,1.55-1.72,.38-.47,.71-.7,1.02-.7,.28,0,.97,.35,2.07,1.05,1.24,.87,1.86,1.46,1.86,1.79s-.25,.68-.74,1.05c-.35,.3-.53,.66-.53,1.05v6.05c0,1.17,.05,2.77,.14,4.78,0,.45-.66,.77-1.97,.98-.59,.07-1.01,.11-1.27,.11-.68,0-1.02-.36-1.02-1.09v-1.55h-4.89v1.83c0,.45-.6,.79-1.79,1.02-.54,.07-.93,.11-1.16,.11-.77,0-1.16-.38-1.16-1.12,.09-1.27,.14-2.54,.14-3.83v-6.33c0-1.78-.08-3.5-.25-5.17Zm4.22,12.52h4.89v-9.88h-4.89v9.88Z"/>
        <path class="cls-1" d="M650.55,1.12c1.27,.16,2.41,.35,3.45,.56,1.38,.19,2.07,.47,2.07,.84,0,.35-.29,.64-.88,.88-.54,.16-.81,.43-.81,.81,0,2.67-.01,5.05-.04,7.14h2V3.23c0-.91-.09-1.86-.28-2.85,1.41,.14,2.78,.32,4.11,.53,.8,.07,1.2,.28,1.2,.63,0,.14-.23,.32-.7,.53-.56,.23-.84,.53-.84,.88V11.36h.14c.14-.35,.28-.71,.42-1.09,.23-.66,.42-.98,.56-.98,.19,0,.47,.39,.84,1.16,.4,.68,.6,1.14,.6,1.37,0,.35-.05,.53-.14,.53h-7.91c-.05,2.53-.11,4.59-.18,6.19h1.3c.56-.45,1.08-.86,1.55-1.23,.38-.28,.7-.42,.98-.42,.3,0,1,.34,2.07,1.02,1.27,.87,1.9,1.46,1.9,1.79,0,.3-.28,.63-.84,.98-.38,.28-.56,.6-.56,.95v6.05c0,1.1,.05,2.6,.14,4.5,0,.49-.6,.84-1.79,1.05-.54,.07-.93,.11-1.16,.11-.68,0-1.02-.39-1.02-1.16v-12.62h-2.6c-.07,1.22-.15,2.1-.25,2.64-.35,2.16-.84,3.93-1.48,5.31-.77,1.78-1.86,3.49-3.27,5.13l-.39-.56c.45-1.43,.82-3.01,1.12-4.75,.26-1.34,.47-3.07,.63-5.2,.12-2.18,.18-8,.18-17.47,0-.98-.05-2.16-.14-3.52Zm18.28-1.12c1.45,.23,2.62,.45,3.52,.63,1.24,.26,1.86,.56,1.86,.91,0,.21-.33,.4-.98,.56-.49,.09-.77,.23-.84,.42-.66,.61-1.52,1.22-2.6,1.83h5.41c.54-.63,1.05-1.17,1.55-1.62,.35-.45,.67-.67,.95-.67,.33,0,1.03,.35,2.11,1.05,1.24,.87,1.86,1.45,1.86,1.76,0,.33-.25,.67-.74,1.02-.35,.28-.53,.6-.53,.95v5.48c0,1.1,.05,2.61,.14,4.54,0,.47-.6,.81-1.79,1.02-.54,.07-.93,.11-1.16,.11-.68,0-1.02-.38-1.02-1.12v-.42h-4.89l-.35,.63c.94,.09,2.03,.26,3.27,.49,1.12,.14,1.69,.38,1.69,.7,0,.35-.34,.64-1.02,.88-.52,.14-.77,.4-.77,.77v3.69h1.27c.09-.05,.48-.5,1.16-1.37,.87-1.05,1.37-1.58,1.51-1.58,.45,0,1.14,.52,2.07,1.55,.96,1.01,1.44,1.62,1.44,1.83,0,.35-.23,.53-.7,.53h-6.75v7.49c0,.47-.55,.81-1.65,1.02-.47,.07-.82,.11-1.05,.11-.84,0-1.27-.38-1.27-1.12,.21-2.16,.32-4.14,.32-5.94v-1.55h-5.1c-2.04,0-3.49,.05-4.36,.14l-.53-1.41c1.12,.21,2.75,.32,4.89,.32h5.1v-.6c0-1.85-.06-3.52-.18-4.99-.66,.8-1.46,1.52-2.43,2.18-1.38,1.03-3.25,1.93-5.59,2.71l-.25-.42c1.31-.8,2.46-1.68,3.45-2.64,.91-.98,1.64-2.05,2.18-3.2,.02-.07,.06-.14,.11-.21h-1.65v.53c0,.47-.57,.82-1.72,1.05-.52,.07-.88,.11-1.09,.11-.84,0-1.27-.39-1.27-1.16,.16-2.53,.25-4.77,.25-6.71v-1.27c0-1.71-.08-3.77-.25-6.19,1.57,.38,3.02,.89,4.36,1.55h1.65c.26-1.2,.4-2.65,.42-4.36Zm-2.36,9.81h3.09c.07-1.24,.12-2.74,.14-4.5h-3.23v4.5Zm0,5.62h2.07c.28-.77,.5-1.56,.67-2.36,.12-.59,.21-1.34,.28-2.25h-3.02v4.61Zm5.7,0h4.39v-4.61h-3.34c-.09,.75-.19,1.44-.28,2.07-.21,.94-.47,1.78-.77,2.53Zm1.3-10.12c0,1.69-.06,3.19-.18,4.5h3.27V5.31h-3.09Z"/>
      </g>
      <g>
        <path class="cls-1" d="M6,61.72c.09,0,.62,.41,1.59,1.24,0,.22-.12,.37-.38,.45-.22,.06-.36,.16-.42,.28-.67,1.02-1.38,1.9-2.11,2.65v11.53c0,.17-.12,.26-.38,.26h-.94c-.25,0-.38-.09-.38-.26v-9.91c-.52,.45-1.11,.94-1.78,1.45-.45-.5-.8-.84-1.03-1.03-.12-.12-.19-.22-.19-.28,0-.03,.03-.08,.09-.14,1.31-.84,2.47-1.84,3.47-2.98,.78-.88,1.53-1.91,2.25-3.09,.06-.11,.12-.16,.19-.16Zm-1.12-5.25l1.48,1.03c.22,.12,.33,.29,.33,.49,0,.11-.13,.16-.4,.16s-.46,.11-.59,.33c-1.52,2.12-2.91,3.7-4.2,4.73-.16,0-.27-.05-.35-.16-.23-.3-.47-.53-.7-.7-.11-.11-.16-.2-.16-.26,0-.08,.03-.13,.09-.16,.47-.27,.92-.64,1.36-1.12,.62-.53,1.19-1.15,1.69-1.85,.48-.7,.91-1.45,1.27-2.23,.08-.17,.14-.26,.19-.26Zm2.81,16.12l1.29,.54c.2,.09,.3,.2,.3,.3s-.08,.2-.23,.26c-.19,0-.3,.09-.35,.28-.55,1.31-1.09,2.34-1.64,3.07-.12,.16-.23,.23-.3,.23-.11,0-.23-.05-.38-.14-.3-.14-.59-.28-.87-.42-.11-.05-.16-.08-.16-.09,0-.05,.02-.1,.07-.16,.55-.64,.95-1.21,1.2-1.71,.39-.62,.68-1.24,.87-1.85,.06-.2,.13-.3,.21-.3Zm-.19-14.25h5.72v-1.78c0-.19,.12-.28,.38-.28,1.19,0,1.78,.09,1.78,.28,0,.22-.08,.34-.23,.38-.16,.02-.23,.17-.23,.47v.94h6.28c.12,0,.19,.09,.19,.28v.75c0,.25-.06,.38-.19,.38h-6.28v1.78h5.34c.25,0,.38,.09,.38,.28v4.97c0,.2-.12,.3-.38,.3H8.16c-.25,0-.38-.1-.38-.3v-4.97c0-.19,.12-.28,.38-.28h5.06v-1.78H7.5c-.12,0-.19-.12-.19-.38v-.75c0-.19,.06-.28,.19-.28Zm0,10.41h13.59c.12,0,.19,.1,.19,.3v.73c0,.25-.06,.38-.19,.38H7.5c-.12,0-.19-.12-.19-.38v-.73c0-.2,.06-.3,.19-.3Zm4.03-3.09v-2.7h-2.16v2.7h2.16Zm-1.22,6.21l1.52,.14c.17,.02,.26,.05,.26,.12,0,.16-.04,.25-.12,.28-.11,.03-.16,.12-.16,.28v2.62c0,.69,.41,1.03,1.22,1.03h3.19c.69,0,1.1-.09,1.24-.28,.19-.16,.4-.75,.63-1.78,.19,.3,.49,.57,.91,.82,.2,.08,.3,.18,.3,.3-.34,1.23-.61,1.91-.8,2.04-.19,.28-.58,.42-1.17,.42h-4.5c-1.75,0-2.62-.54-2.62-1.62v-4.2c0-.12,.03-.19,.09-.19Zm4.97-6.21v-2.7h-2.25v2.7h2.25Zm-1.03,5.06c.62,.47,1.14,.91,1.55,1.31,.45,.47,.84,.91,1.17,1.31,0,.03-.04,.09-.12,.19-.47,.62-.71,.94-.73,.94-.5-.62-1.03-1.2-1.59-1.73-.44-.41-.81-.7-1.12-.87,0-.09,.22-.42,.66-.98,.08-.11,.14-.16,.19-.16Zm4.78-5.06v-2.7h-2.25v2.7h2.25Zm.38,5.37s.09,.04,.19,.12c.8,.78,1.6,1.77,2.41,2.98,.08,.09,.12,.21,.12,.35,0,.09-.02,.16-.07,.21l-.49,.7c-.14,.08-.27,.12-.38,.12-.05,0-.12-.09-.21-.26-.75-1.11-1.48-2.02-2.2-2.74-.14-.11-.21-.23-.21-.38,0-.08,.02-.16,.05-.23l.54-.8c.09-.05,.18-.07,.26-.07Z"/>
        <path class="cls-1" d="M27.9,57.12h19.12c.25,0,.38,.09,.38,.28v20.46c0,.17-.12,.26-.38,.26h-.94c-.25,0-.38-.09-.38-.26v-.77H29.21v.77c0,.17-.12,.26-.38,.26h-.94c-.25,0-.38-.09-.38-.26v-20.46c0-.19,.12-.28,.38-.28Zm1.31,18.47h16.5v-17.06H29.21v17.06Zm8.25-4.97c.12,0,.19,.1,.19,.3,0,.73-.03,1.13-.09,1.2-1.94,.56-3.91,1.06-5.91,1.5-.22,.44-.41,.66-.56,.66-.14,0-.42-.62-.84-1.88,.94-.14,2.06-.38,3.38-.73,1.31-.3,2.55-.63,3.73-1.01,.05-.03,.09-.05,.12-.05Zm-6.84-9.28h7.83c-.02-.5-.03-1.03-.05-1.59,0-.19,.06-.28,.19-.28l1.45,.12c.28,0,.42,.05,.42,.16,0,.2-.06,.34-.19,.4s-.19,.27-.19,.63v.56h3.09c-.38-.31-.77-.61-1.17-.89-.36-.23-.66-.4-.89-.49,0-.09,.22-.42,.66-.98,.06-.11,.12-.16,.19-.16,.48,.27,.89,.52,1.22,.75,.36,.28,.67,.53,.94,.75,0,.03-.04,.09-.12,.19-.31,.44-.52,.72-.63,.84h1.59c.12,0,.19,.09,.19,.28v.75c0,.25-.06,.38-.19,.38h-4.85c.02,.89,.05,1.66,.09,2.32,.09,1.14,.27,2.2,.54,3.16,.09,.44,.2,.83,.33,1.17,.31-.56,.6-1.2,.87-1.9,.36-.81,.63-1.7,.82-2.65,.03-.16,.11-.23,.23-.23,1.25,.44,1.88,.72,1.88,.84,0,.16-.09,.29-.28,.4-.19,0-.32,.09-.4,.26-.38,1.25-.82,2.38-1.34,3.38-.33,.64-.68,1.23-1.05,1.76,.23,.44,.48,.82,.75,1.15,.27,.19,.48,.28,.63,.28,.11,0,.23-.14,.38-.42,.19-.33,.38-.81,.56-1.45,.09,0,.18,.08,.26,.23,.19,.27,.42,.52,.7,.75,.17,.14,.26,.31,.26,.52-.33,.72-.62,1.28-.89,1.69-.42,.58-.81,.87-1.17,.87-.19,0-.37-.05-.54-.14-.33-.16-.67-.43-1.03-.82-.33-.36-.65-.8-.96-1.31-.67,.7-1.45,1.37-2.32,1.99-.09,.05-.2,.07-.3,.07-.19,0-.34-.09-.45-.26-.16-.25-.34-.47-.56-.66-.14-.06-.21-.16-.21-.3,0-.05,.05-.09,.14-.14,.41-.16,.82-.41,1.24-.75,.64-.45,1.2-.98,1.69-1.59-.23-.58-.44-1.2-.61-1.88-.3-1.19-.52-2.41-.66-3.66-.08-.73-.15-1.62-.21-2.67h-7.88c-.12,0-.19-.12-.19-.38v-.75c0-.19,.06-.28,.19-.28Zm.66,2.91h5.62c.25,0,.38,.09,.38,.28v4.78c0,.19-.12,.28-.38,.28h-5.62c-.25,0-.38-.09-.38-.28v-4.78c0-.19,.12-.28,.38-.28Zm4.41,3.94v-2.53h-3.19v2.53h3.19Z"/>
        <path class="cls-1" d="M53.64,57.12h20.53c.2,0,.3,.12,.3,.38v.75c0,.25-.1,.38-.3,.38h-9.07c-.52,1.19-1.08,2.34-1.69,3.47h8.06c.23,0,.35,.09,.35,.28v15.19c0,.2-.12,.3-.35,.3h-.96c-.25,0-.38-.1-.38-.3v-1.57h-12.28v1.57c0,.2-.12,.3-.38,.3h-.94c-.25,0-.38-.1-.38-.3v-15.09c0-.25,.12-.38,.38-.38h4.76c.5-.69,.89-1.29,1.17-1.8,.25-.45,.5-1.01,.75-1.66h-9.59c-.19,0-.28-.12-.28-.38v-.75c0-.25,.09-.38,.28-.38Zm4.22,10.97h12.28v-4.5h-12.28v4.5Zm0,6.38h12.28v-4.88h-12.28v4.88Z"/>
        <path class="cls-1" d="M85.67,56.47c1.25,.64,1.88,1.02,1.88,1.12,0,.14-.05,.21-.16,.21-.23,.02-.4,.11-.49,.28l-.52,.94h13.64c.19,0,.28,.12,.28,.35v.75c0,.25-.09,.38-.28,.38h-6.38v4.03h5.72c.19,0,.28,.13,.28,.4v.73c0,.27-.09,.4-.28,.4h-5.72v5.23h7.24c.17,0,.26,.09,.26,.28v.92c0,.26-.09,.39-.26,.39h-7.24v5.06c0,.17-.16,.26-.47,.26h-.94c-.23,0-.35-.09-.35-.26v-5.06h-11.93c-.19,0-.28-.13-.28-.39v-.92c0-.18,.09-.28,.28-.28h4.41v-6.35c0-.27,.12-.4,.38-.4h7.15v-4.03h-6.47c-.36,.5-.72,.92-1.08,1.27-.48,.52-1.29,1.26-2.41,2.23-.17,0-.32-.08-.45-.23-.22-.17-.45-.35-.7-.54-.11-.08-.16-.16-.16-.26,.59-.5,1.19-1.03,1.78-1.59,.78-.72,1.45-1.52,2.02-2.39,.52-.8,.91-1.57,1.17-2.32,.02-.12,.05-.19,.09-.19Zm.38,9.59v5.23h5.84v-5.23h-5.84Z"/>
        <path class="cls-1" d="M107.1,68.02h8.53c.25,0,.38,.09,.38,.26v9.47c0,.2-.12,.3-.38,.3h-.94c-.25,0-.38-.1-.38-.3v-1.12h-5.91v1.12c0,.2-.12,.3-.38,.3h-.94c-.25,0-.38-.1-.38-.3v-9.38c0-.23,.12-.35,.38-.35Zm1.31,7.1h5.91v-5.62h-5.91v5.62Zm2.53-18h11.81c.25,0,.38,.09,.38,.28v8.72c0,.19-.12,.28-.38,.28h-.94c-.25,0-.38-.09-.38-.28v-.84h-9.16v.94c0,.19-.13,.28-.4,.28h-.94c-.25,0-.38-.09-.38-.28v-8.72c0-.25,.12-.38,.38-.38Zm1.34,6.66h9.16v-5.16h-9.16v5.16Zm5.79,4.15h8.53c.25,0,.38,.09,.38,.26v9.47c0,.2-.12,.3-.38,.3h-.94c-.25,0-.38-.1-.38-.3v-1.03h-5.91v1.12c0,.2-.12,.3-.38,.3h-.94c-.25,0-.38-.1-.38-.3v-9.47c0-.23,.12-.35,.38-.35Zm1.31,7.2h5.91v-5.72h-5.91v5.72Z"/>
        <path class="cls-1" d="M133.97,56.38l1.73,.16c.22,.05,.33,.12,.33,.21,0,.2-.07,.34-.21,.4-.3,.08-.45,.26-.45,.54,0,2.05,0,3.86-.02,5.44h3.33v-6.47c0-.19,.12-.28,.35-.28,1.19,0,1.78,.09,1.78,.28,0,.22-.08,.34-.23,.38-.16,.02-.23,.17-.23,.47v6.75c0,.25-.12,.38-.38,.38h-4.64c-.03,1.28-.06,2.38-.09,3.3h4.83c.25,0,.38,.09,.38,.26v9.68c0,.17-.12,.26-.38,.26h-.94c-.25,0-.38-.09-.38-.26v-8.46h-3.59c-.11,1.97-.27,3.7-.49,5.2-.2,1.28-.43,2.45-.68,3.52h-.12c-.52-.14-1.01-.3-1.48-.49-.08-.05-.12-.13-.12-.26,.34-1.09,.62-2.28,.82-3.56,.2-1.27,.36-2.88,.47-4.85,.14-2.09,.21-5.6,.21-10.52,0-.34-.03-.97-.09-1.88,0-.12,.09-.19,.28-.19Zm13.12-.56c1.31,.56,1.97,.88,1.97,.94,0,.08-.09,.15-.28,.21-.19,.03-.33,.12-.42,.28-.16,.3-.33,.6-.52,.91h4.78c.25,0,.38,.09,.38,.28v9.49c0,.17-.12,.26-.38,.26h-1.88v4.12h3.19c.19,0,.28,.12,.28,.38v.75c0,.25-.09,.38-.28,.38h-3.19v4.05c0,.17-.12,.26-.38,.26h-.94c-.25,0-.38-.09-.38-.26v-4.05h-7.38c-.2,0-.3-.12-.3-.38v-.75c0-.25,.1-.38,.3-.38h1.43l-.02-.02c-.23-.23-.49-.46-.77-.68-.12-.08-.19-.16-.19-.23,1.19-.64,1.99-1.18,2.41-1.62,.52-.45,.94-.97,1.27-1.55v-.02h-3.3c-.25,0-.38-.09-.38-.26v-9.49c0-.19,.12-.28,.38-.28h3.4c.16-.22,.27-.4,.35-.54,.28-.44,.52-.98,.73-1.62,.02-.12,.05-.19,.12-.19Zm1.97,16.5v-4.12h-1.36c-.09,.19-.2,.37-.3,.54-.41,.78-.95,1.49-1.64,2.13-.45,.44-1.14,.92-2.06,1.45h5.37Zm-5.25-9.94h3v-2.72h-3v2.72Zm2.6,4.31c.06-.23,.12-.47,.16-.7,.14-.69,.22-1.38,.23-2.09h-3v2.79h2.6Zm4.9,0v-2.79h-2.84c0,.67-.06,1.41-.19,2.2-.03,.2-.06,.4-.09,.59h3.12Zm-2.81-7.03v2.72h2.81v-2.72h-2.81Z"/>
        <path class="cls-1" d="M171.43,64.25v2.62c0,1.19-.25,2.22-.75,3.09-.52,.88-1.12,1.44-1.8,1.69l-.94-.94c.44-.17,.84-.51,1.2-1.01,.38-.47,.58-1.07,.61-1.8h-1.9v-3.66h3.59Z"/>
        <path class="cls-1" d="M189.86,56.09l1.85,1.05c.08,.16,.12,.24,.12,.26,0,.14-.13,.21-.4,.21-.38,0-.62,.09-.73,.28-.94,1.41-1.83,2.69-2.67,3.84,.5,.53,1.01,1.12,1.52,1.76,.12-.17,.23-.33,.33-.47,.86-1.17,1.57-2.23,2.13-3.16,1,.84,1.5,1.3,1.5,1.38,0,.09-.09,.14-.26,.14-.34,0-.55,.06-.63,.19-1.23,1.83-2.46,3.52-3.68,5.06,.88-.11,1.9-.23,3.07-.35-.19-.53-.41-1.05-.66-1.57,0-.09,.34-.3,1.03-.63,.45,.94,.82,1.8,1.1,2.6,.27,.73,.49,1.52,.68,2.37,0,.03-.44,.15-1.31,.35-.06-.55-.22-1.2-.47-1.97-.02-.05-.03-.09-.05-.12l-1.64,.4v10.15c0,.17-.12,.26-.38,.26h-.94c-.19,0-.28-.09-.28-.26v-9.75l-3,.75c-.38,.36-.59,.54-.63,.54-.08,0-.24-.69-.49-2.06,0-.09,.66-.23,1.97-.42,.72-.92,1.35-1.74,1.9-2.46-.78-.75-1.38-1.3-1.78-1.64-.59-.44-1.23-.84-1.9-1.2,0-.14,.34-.55,1.01-1.24,.06-.11,.13-.16,.21-.16,.19,.14,.37,.29,.54,.45,.52-.67,.98-1.34,1.38-1.99,.72-1.14,1.23-2,1.55-2.58Zm-3.38,13.8l1.76,.47c.16,.03,.23,.12,.23,.26,0,.11-.16,.27-.49,.47-.23,1.66-.44,2.88-.61,3.68-.17,.73-.38,1.45-.61,2.16-.19,0-.36-.05-.52-.16-.25-.12-.56-.23-.94-.3-.09-.05-.14-.12-.14-.21,.08-.19,.16-.41,.23-.68,.22-.55,.4-1.14,.54-1.78,.11-.61,.22-1.35,.33-2.23,.06-.47,.1-.96,.12-1.48,0-.12,.03-.19,.09-.19Zm6.19,.09s.08,.05,.09,.16c.27,1.05,.58,2.73,.94,5.06,0,.14-.44,.27-1.31,.38-.12,0-.19-.07-.19-.21-.14-1.58-.36-3.26-.66-5.04,0-.11,.38-.23,1.12-.35Zm5.25-13.62l1.29,.33c.2,.05,.3,.16,.3,.35,0,.22-.1,.33-.3,.33-.12,.05-.21,.15-.26,.3-.05,.14-.09,.27-.12,.4h5.74c.22,0,.35,.02,.4,.07,.3,.25,.45,.44,.45,.56l-2.18,6.38h3.3c.12,0,.19,.09,.19,.28v.75c0,.25-.06,.38-.19,.38h-5.16v2.48c.27,.53,.52,1.02,.75,1.48,.47-.25,.88-.52,1.24-.82,.64-.44,1.27-1.03,1.9-1.78,.12-.09,.2-.14,.23-.14,.88,.78,1.31,1.23,1.31,1.34,0,.09-.08,.14-.23,.14-.31,0-.48,.04-.52,.12-1,1-2.05,1.83-3.16,2.48,.06,.09,.12,.18,.16,.26,.66,.98,1.3,1.8,1.92,2.44,.72,.75,1.42,1.25,2.11,1.5,0,.09-.05,.17-.16,.23-.44,.34-.75,.62-.94,.84-.05,.08-.15,.12-.3,.12-1.14-.75-2.23-1.92-3.28-3.52-.3-.39-.64-.95-1.03-1.69v4.55c0,1.12-.91,1.69-2.72,1.69h-.75c-.09,0-.14-.14-.14-.42-.02-.33-.12-.72-.3-1.17v-.09c.38,.12,.74,.19,1.1,.19,.81,0,1.22-.27,1.22-.82v-3.47c-.73,.83-1.45,1.56-2.13,2.2-.55,.52-1.2,1.08-1.97,1.69-.14,.16-.21,.36-.21,.61,0,.11-.03,.16-.09,.16-.11,0-.53-.42-1.27-1.27-.08-.05-.12-.12-.14-.23,0-.09,.05-.17,.14-.23,.59-.31,1.19-.71,1.78-1.2,.81-.66,1.61-1.4,2.39-2.23,.56-.61,1.06-1.17,1.5-1.69v-3.75h-5.62c-.12,0-.19-.12-.19-.38v-.75c0-.19,.06-.28,.19-.28h7.45l.77-2.13h-5.51l-.56,1.12c-.48-.06-.9-.12-1.24-.16-.11-.02-.16-.09-.16-.23,.89-1.84,1.8-4.22,2.72-7.12,.05-.12,.14-.19,.28-.19Zm-2.25,11.16c.56,.45,1.02,.87,1.36,1.24,.44,.48,.8,.92,1.08,1.31,0,.02-.04,.06-.12,.14-.41,.58-.62,.87-.63,.87-.45-.61-.95-1.16-1.48-1.66-.42-.41-.77-.7-1.05-.87,0-.08,.23-.38,.68-.89,.06-.09,.12-.14,.16-.14Zm7.22-5.91l.8-2.16h-5.37c-.27,.77-.55,1.48-.84,2.16h5.41Z"/>
        <path class="cls-1" d="M212.14,58.62h5.25c.23,0,.38,.04,.45,.12,.33,.28,.49,.49,.49,.63l-3.61,5.65h2.86c.14,0,.29,.04,.45,.12,.27,.22,.4,.39,.4,.52-.12,1.31-.26,2.41-.4,3.28-.19,.92-.41,1.82-.66,2.7-.16,.56-.39,1.21-.7,1.95-.11,.28-.23,.55-.35,.82,.22,.25,.48,.47,.8,.66,.44,.28,.99,.49,1.66,.63,.55,.16,1.11,.25,1.69,.28,1.42,.08,3.42,.12,6,.12,1.34,0,3.66-.13,6.96-.4,0,.03-.04,.14-.12,.33-.17,.44-.33,.9-.47,1.38-.03,.17-.15,.26-.35,.26-.83,.06-2.84,.09-6.02,.09-3.45,0-6-.09-7.64-.26-.8-.14-1.48-.37-2.06-.68-.48-.25-.93-.55-1.34-.89-.23,.34-.53,.7-.89,1.08-.34,.38-.86,.81-1.55,1.31-.14,0-.26-.06-.35-.19-.3-.23-.61-.45-.94-.66-.08-.08-.12-.14-.12-.19,0-.06,.02-.11,.07-.14,.72-.42,1.31-.88,1.78-1.36,.36-.31,.67-.68,.94-1.1-.27-.39-.52-.84-.77-1.36-.52-1-.88-2.4-1.08-4.2,0-.17,.09-.26,.28-.26h.87c.28,0,.43,.09,.45,.26,.12,1.08,.38,2.07,.77,2.98,.12,.34,.27,.67,.42,.98,.17-.34,.31-.67,.42-.98,.28-.8,.52-1.63,.73-2.51,.16-.78,.32-1.81,.49-3.09h-3.16l-.75,1.17c-.09,.17-.23,.26-.42,.26-.88-.27-1.31-.49-1.31-.68l4.73-7.12h-3.89c-.17,0-.26-.12-.26-.38v-.73c0-.27,.09-.4,.26-.4Zm8.44-.19h4.22v-1.78c0-.19,.12-.28,.38-.28,1.19,0,1.78,.09,1.78,.28,0,.22-.08,.34-.23,.38-.16,.02-.23,.17-.23,.47v.94h4.69c.25,0,.38,.09,.38,.28v3.09h1.41c.19,0,.28,.12,.28,.38v.77c0,.23-.09,.35-.28,.35h-1.41v3c0,.25-.12,.38-.38,.38h-4.69v1.88h4.69c.19,0,.28,.13,.28,.4v.73c0,.27-.09,.4-.28,.4h-4.69v1.97h6c.19,0,.28,.12,.28,.35v.75c0,.25-.09,.38-.28,.38h-6v1.59c0,.19-.12,.28-.38,.28h-.94c-.25,0-.38-.09-.38-.28v-1.59h-5.91c-.19,0-.28-.12-.28-.38v-.75c0-.23,.09-.35,.28-.35h5.91v-1.97h-4.41c-.19,0-.28-.13-.28-.4v-.73c0-.27,.09-.4,.28-.4h4.41v-1.88h-4.41c-.19,0-.28-.12-.28-.38v-.75c0-.25,.09-.38,.28-.38h4.41v-1.88h-5.91c-.19,0-.28-.12-.28-.35v-.77c0-.25,.09-.38,.28-.38h5.91v-1.85h-4.22c-.19,0-.28-.13-.28-.4v-.75c0-.25,.09-.38,.28-.38Zm5.91,1.52v1.85h3.4v-1.85h-3.4Zm0,3.35v1.88h3.4v-1.88h-3.4Z"/>
        <path class="cls-1" d="M238.35,60.9h4.31v-4.15c0-.19,.12-.28,.38-.28,1.19,0,1.78,.09,1.78,.28,0,.22-.08,.34-.23,.38-.16,.02-.23,.17-.23,.47v3.3h3.09c.19,0,.28,.12,.28,.35v.77c0,.23-.09,.35-.28,.35h-2.84c.52,1.22,.98,2.18,1.38,2.88,.52,.94,1.4,2.01,2.65,3.21,.14,.08,.21,.17,.21,.28,0,.05-.06,.12-.19,.23-.17,.23-.42,.49-.75,.77-.11,.16-.2,.23-.28,.23-.09,0-.23-.07-.4-.21-.83-.91-1.56-1.93-2.2-3.07-.22-.44-.45-.91-.68-1.43v12.59c0,.17-.12,.26-.38,.26h-.94c-.25,0-.38-.09-.38-.26v-11.41c-.05,.17-.09,.34-.12,.49-.48,1.42-.99,2.7-1.52,3.84-.5,1.19-1.11,2.29-1.83,3.3-.19,0-.32-.04-.4-.12-.34-.17-.7-.34-1.08-.52-.14,0-.21-.04-.21-.12,.94-1.31,1.7-2.59,2.27-3.84,.58-1.19,1.02-2.34,1.34-3.47,.28-.77,.59-1.98,.94-3.66h-3.7c-.19,0-.28-.12-.28-.35v-.77c0-.23,.09-.35,.28-.35Zm11.16,.09h5.72v-3c0-.47-.03-.82-.09-1.05-.06-.19-.09-.34-.09-.47s.16-.19,.47-.19l1.9,.26c.17,.08,.26,.15,.26,.21,0,.16-.09,.23-.28,.23-.31,.12-.47,.49-.47,1.1v2.91h2.72c.19,0,.28,.12,.28,.35v.75c0,.25-.09,.38-.28,.38h-2.72v13.78c0,1.14-.84,1.71-2.53,1.71h-1.78c-.12,0-.19-.14-.19-.42-.06-.3-.22-.66-.47-1.1,0-.12,.06-.19,.19-.19,.77,.12,1.45,.19,2.06,.19,.69,0,1.03-.28,1.03-.84v-10.29c-.41,.86-.78,1.59-1.12,2.2-.72,1.28-1.49,2.48-2.32,3.59-.94,1.19-1.88,2.19-2.84,3-.17,0-.31-.05-.42-.14-.31-.3-.62-.57-.91-.82-.05-.11-.07-.19-.07-.23,.91-.72,1.65-1.4,2.23-2.04,.84-.88,1.73-2.08,2.65-3.61,.55-.95,1.33-2.55,2.34-4.78h-5.25c-.19,0-.28-.12-.28-.38v-.75c0-.23,.09-.35,.28-.35Z"/>
        <path class="cls-1" d="M264.75,61.44h2.81v-4.69c0-.19,.12-.28,.38-.28,1.19,0,1.78,.09,1.78,.28,0,.22-.08,.34-.23,.38-.16,.02-.23,.17-.23,.47v3.84h2.16c.19,0,.28,.12,.28,.38v.75c0,.27-.09,.4-.28,.4h-1.85c.31,1.06,.59,1.91,.84,2.53,.34,.88,.91,1.88,1.71,3,.09,.06,.14,.15,.14,.26,0,.05-.05,.12-.16,.21-.14,.19-.35,.4-.63,.63-.09,.12-.17,.19-.23,.19s-.15-.05-.26-.16c-.55-.84-1.03-1.8-1.45-2.86-.09-.23-.18-.48-.26-.73v11.93c0,.17-.12,.26-.38,.26h-.94c-.25,0-.38-.09-.38-.26v-9.61c-.22,.7-.45,1.36-.68,1.97-.39,1.05-.85,2.02-1.38,2.93-.17,0-.3-.04-.38-.12-.34-.16-.68-.33-1.01-.52-.14,0-.21-.04-.21-.12,.7-1.16,1.27-2.28,1.69-3.38,.44-1.05,.77-2.06,1.01-3.05,.2-.67,.43-1.71,.68-3.12h-2.53c-.19,0-.28-.13-.28-.4v-.75c0-.25,.09-.38,.28-.38Zm10.03,11.46l1.24,.89c.11,.12,.16,.23,.16,.3,0,.06-.05,.09-.16,.09-.16,.03-.27,.09-.35,.16-.42,.52-.86,.98-1.31,1.38-.56,.48-1.27,.97-2.11,1.45-.19,0-.3-.05-.35-.16-.31-.27-.58-.49-.8-.68-.11-.05-.16-.11-.16-.19,0-.03,.03-.06,.09-.09,.39-.16,.72-.32,.98-.49,.56-.36,1.05-.76,1.45-1.2,.38-.38,.77-.83,1.17-1.36,.06-.08,.11-.12,.14-.12Zm-2.72-2.55h13.5c.12,0,.19,.09,.19,.28v.75c0,.25-.06,.38-.19,.38h-5.81v4.59c0,1.19-.97,1.78-2.91,1.78h-1.03c-.09,0-.14-.15-.14-.45-.05-.34-.19-.76-.42-1.24v-.09c.53,.12,1.03,.19,1.5,.19,.88,0,1.31-.28,1.31-.84v-3.94h-6c-.12,0-.19-.12-.19-.38v-.75c0-.19,.06-.28,.19-.28Zm.19-12.94h13.43c.11,0,.16,.09,.16,.28v.75c0,.25-.05,.38-.16,.38h-4.24v1.88h3.38c.25,0,.38,.1,.38,.3v4.57c0,.2-.12,.3-.38,.3h-12c-.25,0-.38-.1-.38-.3v-4.57c0-.2,.12-.3,.38-.3h3.28v-1.88h-3.84c-.12,0-.19-.12-.19-.38v-.75c0-.19,.06-.28,.19-.28Zm1.43,10.03h10.38c.12,0,.19,.09,.19,.28v.75c0,.27-.06,.4-.19,.4h-10.38c-.14,0-.21-.13-.21-.4v-.75c0-.19,.07-.28,.21-.28Zm2.41-3v-2.34h-1.97v2.34h1.97Zm3.75-3.75v-1.88h-2.16v1.88h2.16Zm0,3.75v-2.34h-2.16v2.34h2.16Zm3.66,0v-2.34h-2.06v2.34h2.06Zm-1.12,8.46c.81,.56,1.48,1.09,1.99,1.59,.61,.61,1.13,1.16,1.57,1.66,0,.03-.04,.09-.12,.19-.45,.62-.7,.94-.73,.94-.66-.78-1.34-1.5-2.06-2.16-.59-.53-1.09-.9-1.5-1.1,0-.09,.22-.42,.66-.98,.08-.09,.14-.14,.19-.14Z"/>
        <path class="cls-1" d="M294.15,65.02h14.81c.25,0,.38,.09,.38,.26v6.84c0,.19-.12,.28-.38,.28h-6.75v1.69h9.47c.12,0,.19,.09,.19,.28v.75c0,.25-.06,.38-.19,.38h-9.47v2.46c0,.17-.12,.26-.38,.26h-.94c-.25,0-.38-.09-.38-.26v-2.46h-9.19c-.12,0-.19-.12-.19-.38v-.75c0-.19,.06-.28,.19-.28h9.19v-1.69h-6.38c-.25,0-.38-.09-.38-.28v-6.84c0-.17,.12-.26,.38-.26Zm6.84-8.84c1.19,0,1.78,.09,1.78,.28,0,.22-.08,.34-.23,.35-.16,.03-.23,.2-.23,.49v.68h7.78c.12,0,.19,.09,.19,.26v.77c0,.23-.06,.35-.19,.35h-3.7l1.2,.52c.23,.09,.35,.2,.35,.33,0,.06-.06,.11-.19,.14-.16,0-.26,.05-.3,.14-.42,.67-.84,1.2-1.27,1.59h5.51c.12,0,.19,.09,.19,.28v.75c0,.25-.06,.38-.19,.38h-20.25c-.12,0-.19-.12-.19-.38v-.75c0-.19,.06-.28,.19-.28h13.95c-.3-.12-.57-.25-.82-.38-.12-.05-.19-.08-.19-.09,0-.03,.02-.06,.07-.09,.39-.38,.7-.7,.91-.98,.28-.36,.49-.73,.63-1.1,.02-.03,.02-.05,.02-.07h-12.98c-.12,0-.19-.12-.19-.35v-.77c0-.17,.06-.26,.19-.26h7.59v-1.52c0-.19,.12-.28,.38-.28Zm-4.41,3.19c.48,.44,.87,.84,1.15,1.2,.3,.34,.54,.7,.73,1.05,0,.06-.53,.22-1.59,.47-.08-.22-.24-.48-.49-.77-.28-.38-.65-.74-1.1-1.1,0-.11,.44-.39,1.31-.84Zm-1.12,8.65h12.19v-1.62h-12.19v1.62Zm12.19,3v-1.62h-12.19v1.62h12.19Z"/>
        <path class="cls-1" d="M317.36,60.41h8.16c.19,0,.28,.09,.28,.28v.92c0,.26-.09,.39-.28,.39h-8.16c-.19,0-.28-.13-.28-.39v-.92c0-.18,.09-.28,.28-.28Zm.94,9.94h6.19c.25,0,.38,.09,.38,.28v6.94c0,.2-.12,.3-.38,.3h-.94c-.25,0-.38-.1-.38-.3v-.84h-3.56v1.15c0,.17-.12,.26-.38,.26h-.94c-.25,0-.38-.09-.38-.26v-7.15c0-.25,.12-.38,.38-.38Zm.09-6.56h6.09c.19,0,.28,.12,.28,.38v.77c0,.23-.09,.35-.28,.35h-6.09c-.19,0-.28-.12-.28-.35v-.77c0-.25,.09-.38,.28-.38Zm0,3.21h6.09c.19,0,.28,.12,.28,.35v.75c0,.25-.09,.38-.28,.38h-6.09c-.19,0-.28-.12-.28-.38v-.75c0-.23,.09-.35,.28-.35Zm.19-9.94h5.91c.19,0,.28,.12,.28,.35v.75c0,.25-.09,.38-.28,.38h-5.91c-.19,0-.28-.12-.28-.38v-.75c0-.23,.09-.35,.28-.35Zm1.03,18.16h3.56v-3.35h-3.56v3.35Zm7.03-4.88l1.59,.42c.12,.03,.19,.12,.19,.26,0,.09-.16,.24-.47,.45-.27,1.42-.5,2.47-.7,3.14-.2,.62-.44,1.23-.7,1.83-.19,0-.34-.04-.45-.12-.23-.14-.52-.24-.84-.3-.08-.06-.12-.14-.12-.23,.09-.17,.19-.37,.28-.59,.23-.47,.43-.98,.59-1.55,.14-.52,.27-1.16,.4-1.92,.09-.41,.14-.84,.14-1.29,0-.06,.03-.09,.09-.09Zm.47-13.29h10.59c.19,0,.28,.12,.28,.35-.03,2.64-.12,4.54-.26,5.7-.16,1.39-.38,2.41-.68,3.07-.25,.72-.97,1.08-2.16,1.08-.97,0-1.46-.16-1.48-.49-.08-.36-.27-.79-.59-1.29v-.19c.75,.12,1.44,.19,2.06,.19,.5,0,.82-.24,.96-.73,.16-.39,.28-1.15,.38-2.27,.09-.81,.16-2.12,.21-3.94h-3.68c-.11,1-.26,1.89-.45,2.67s-.41,1.48-.68,2.09c-.25,.56-.54,1.06-.87,1.5-.38,.47-.86,.9-1.45,1.29-.56,.36-1.39,.75-2.48,1.17-.12,0-.21-.05-.26-.16-.23-.3-.45-.59-.63-.89-.09-.08-.14-.12-.14-.14,0-.05,.03-.07,.09-.07,.77-.25,1.45-.55,2.06-.89,.44-.23,.81-.51,1.12-.82,.33-.33,.59-.67,.77-1.03,.08-.11,.14-.22,.19-.33-.55-.41-1.11-.78-1.69-1.12-.61-.33-1.12-.56-1.52-.7,0-.09,.25-.45,.75-1.05,.08-.11,.14-.16,.19-.16,.81,.36,1.48,.71,2.02,1.05,.3,.2,.58,.39,.84,.56,.16-.53,.27-1.07,.35-1.62,.06-.44,.11-.88,.14-1.34h-4.01c-.19,0-.28-.12-.28-.38v-.75c0-.23,.09-.35,.28-.35Zm1.97,12.54c1.12,.09,1.69,.23,1.69,.4,0,.12-.06,.27-.19,.45v5.25c0,.27,.06,.4,.19,.4h4.22c.39,0,.77-.72,1.12-2.16l1.5,.94c-.58,1.88-1.29,2.81-2.13,2.81h-5.37c-.81,0-1.22-.38-1.22-1.14v-6.64c0-.2,.06-.3,.19-.3Zm3.28-2.25c.5,.84,.91,1.62,1.22,2.34,.3,.64,.55,1.33,.75,2.06,0,.05-.5,.2-1.5,.47-.08-.47-.26-1.05-.54-1.73-.28-.8-.66-1.59-1.15-2.39,0-.09,.41-.34,1.22-.75Zm4.22,1.03c.62,.97,1.12,1.87,1.5,2.7,.38,.73,.69,1.52,.94,2.37,0,.06-.5,.23-1.5,.49-.11-.56-.34-1.24-.68-2.04-.38-.92-.87-1.84-1.48-2.77,0-.09,.41-.34,1.22-.75Z"/>
        <path class="cls-1" d="M343.88,60.41h6.91c.19,0,.28,.12,.28,.38v.75c0,.27-.09,.4-.28,.4h-6.91c-.2,0-.3-.13-.3-.4v-.75c0-.25,.1-.38,.3-.38Zm.45,10.12h5.62c.25,0,.38,.09,.38,.28v7.05c0,.17-.12,.26-.38,.26h-.94c-.19,0-.28-.09-.28-.26v-1.15h-3.09v1.15c0,.17-.12,.26-.38,.26h-.94c-.19,0-.28-.09-.28-.26v-6.94c0-.27,.09-.4,.28-.4Zm.09-6.75h5.62c.19,0,.28,.12,.28,.38v.77c0,.23-.09,.35-.28,.35h-5.62c-.19,0-.28-.12-.28-.35v-.77c0-.25,.09-.38,.28-.38Zm0,3.38h5.62c.19,0,.28,.12,.28,.38v.75c0,.25-.09,.38-.28,.38h-5.62c-.19,0-.28-.12-.28-.38v-.75c0-.25,.09-.38,.28-.38Zm.28-10.1h5.34c.19,0,.28,.12,.28,.35v.75c0,.25-.09,.38-.28,.38h-5.34c-.19,0-.28-.12-.28-.38v-.75c0-.23,.09-.35,.28-.35Zm.94,18.16h3.09v-3.16h-3.09v3.16Zm7.31-18.26h4.97c.16,0,.29,.04,.4,.12,.3,.33,.45,.53,.45,.61-.3,1.03-.57,1.83-.82,2.39-.33,.7-.65,1.27-.96,1.71-.3,.41-.64,.8-1.03,1.17h5.93c-.23-.31-.45-.62-.66-.94-.56-.8-1.32-2.24-2.27-4.34l1.03-.94c.3,.64,.58,1.22,.84,1.73,.06-.05,.11-.09,.14-.14,.3-.22,.58-.48,.84-.8,.23-.3,.44-.62,.61-.96,.03-.08,.06-.12,.09-.12l1.08,.77c.16,.09,.23,.21,.23,.35,0,.12-.09,.19-.28,.19-.14,0-.23,.05-.28,.14-.64,.72-1.25,1.27-1.83,1.66,.17,.3,.34,.55,.49,.75,.17,.27,.34,.52,.52,.77l.23-.19c.36-.27,.69-.57,.98-.91,.28-.34,.52-.7,.7-1.05,.05-.09,.09-.14,.12-.14l1.08,.77c.16,.09,.23,.22,.23,.38,0,.11-.09,.16-.28,.16-.16,0-.27,.05-.33,.14-.69,.77-1.34,1.38-1.95,1.83,.19,.22,.38,.42,.56,.61,.72,.73,1.41,1.22,2.09,1.45,0,.12-.06,.21-.19,.26-.44,.39-.77,.7-.98,.94-.05,.08-.16,.12-.33,.12-.78-.53-1.53-1.25-2.25-2.16v.77c0,.23-.09,.35-.26,.35h-6.3c-.19,0-.28-.12-.28-.35v-.61c-.45,.34-.92,.63-1.41,.87-.45,.25-1.05,.48-1.78,.68-.2,0-.34-.07-.42-.21-.16-.23-.32-.47-.49-.7-.08-.09-.12-.16-.12-.21,0-.08,.03-.12,.09-.14,.42-.11,.85-.24,1.29-.4,.78-.3,1.44-.68,1.97-1.15-.28-.3-.57-.57-.87-.82-.39-.33-.72-.56-.98-.7,0-.08,.22-.41,.66-.98,.08-.09,.14-.14,.19-.14,.53,.38,.97,.71,1.31,1.01,.25,.25,.47,.48,.66,.68,.12-.14,.24-.29,.35-.45,.34-.47,.62-1.02,.84-1.64,.11-.25,.22-.55,.33-.91h-3.96c-.12,0-.19-.09-.19-.26v-.77c0-.17,.06-.26,.19-.26Zm8.44,15.45l1.43,.61c.23,.09,.35,.2,.35,.33,0,.11-.05,.18-.16,.21-.16,0-.26,.08-.3,.23-.38,1.09-.76,1.95-1.15,2.55h3.33c.17,0,.26,.12,.26,.38v.75c0,.27-.09,.4-.26,.4h-12.59c-.19,0-.28-.13-.28-.4v-.75c0-.25,.09-.38,.28-.38h8.3c-.2-.09-.4-.18-.59-.26-.14-.05-.21-.08-.21-.09,0-.05,.02-.11,.05-.19,.38-.55,.65-1.04,.82-1.48,.27-.56,.46-1.12,.59-1.69,.05-.16,.09-.23,.14-.23Zm-7.41-6h9.09c.25,0,.38,.09,.38,.28v4.88c0,.2-.12,.3-.38,.3h-9.09c-.25,0-.38-.1-.38-.3v-4.88c0-.19,.12-.28,.38-.28Zm1.9,6c.44,.66,.8,1.26,1.08,1.8,.27,.5,.49,1.02,.68,1.57,0,.06-.5,.22-1.5,.47-.06-.36-.22-.79-.47-1.29-.25-.59-.59-1.2-1.03-1.8,0-.09,.41-.34,1.24-.75Zm5.98-1.97v-2.62h-6.66v2.62h6.66Z"/>
        <path class="cls-1" d="M382.63,64.25v2.62c0,1.19-.25,2.22-.75,3.09-.52,.88-1.12,1.44-1.8,1.69l-.94-.94c.44-.17,.84-.51,1.2-1.01,.38-.47,.58-1.07,.61-1.8h-1.9v-3.66h3.59Z"/>
        <path class="cls-1" d="M401.62,56.38c1.31,.69,1.97,1.09,1.97,1.22,0,.14-.06,.21-.19,.21-.28,.02-.47,.11-.56,.28-.62,1.7-1.25,3.12-1.88,4.24v15.54c0,.17-.12,.26-.38,.26h-.91c-.27,0-.4-.09-.4-.26v-12.98c-.45,.58-1.02,1.28-1.69,2.11-.17,0-.34-.09-.49-.26-.22-.19-.47-.38-.75-.59-.11-.08-.16-.17-.16-.28,.62-.75,1.26-1.53,1.9-2.34,.81-1.06,1.52-2.24,2.11-3.54,.55-1.17,.96-2.31,1.24-3.42,.03-.12,.09-.19,.19-.19Zm13.97,1.78c-.16,0-.3,.03-.45,.09-.91,.44-1.89,.8-2.95,1.08-.05,.09-.07,.2-.07,.33,0,1.86,.04,3.48,.12,4.88h5.13c.2,0,.3,.13,.3,.4v.73c0,.27-.1,.4-.3,.4h-5.04c.06,.81,.15,1.53,.26,2.16,.22,1.59,.53,2.99,.94,4.2,.47,1.28,1.02,2.26,1.64,2.93,.41,.44,.73,.66,.98,.66,.11,0,.21-.24,.3-.73,.11-.44,.2-1.29,.28-2.55,.02-.08,.04-.12,.07-.12,.09,0,.19,.05,.28,.14,.28,.12,.55,.28,.8,.47,.22,.12,.33,.2,.33,.23-.36,1.73-.66,2.86-.91,3.38-.17,.36-.34,.62-.49,.77-.22,.19-.41,.28-.56,.28-.48,0-1.01-.2-1.57-.61-.75-.66-1.39-1.47-1.92-2.44-.55-1.14-1.02-2.48-1.41-4.03-.33-1.5-.55-2.95-.68-4.36-.03-.12-.05-.25-.05-.38h-4.95v7.1l.09-.05c1.53-.48,2.98-1.01,4.34-1.57,.05-.05,.09-.07,.14-.07,.12,0,.19,.09,.19,.28,0,.75-.03,1.16-.09,1.24-2.33,.89-4.7,1.7-7.12,2.41-.22,.45-.4,.68-.54,.68-.16,0-.45-.63-.87-1.9,.66-.12,1.38-.3,2.16-.54v-15.12c0-.19,.09-.28,.28-.28l1.12,.45c2-.05,3.6-.18,4.8-.4,1.64-.27,3.12-.76,4.43-1.48,.17-.11,.31-.16,.42-.16,.09,0,.19,.05,.28,.14,.75,.64,1.12,1.07,1.12,1.29,0,.23-.09,.35-.28,.35l-.56-.28Zm-10.88,17.84h7.41c.19,0,.28,.12,.28,.35v.75c0,.25-.09,.38-.28,.38h-7.41c-.19,0-.28-.12-.28-.38v-.75c0-.23,.09-.35,.28-.35Zm5.81-11.46c-.06-1.34-.09-2.95-.09-4.83-1.55,.27-3.13,.41-4.76,.42v4.41h4.85Z"/>
        <path class="cls-1" d="M424.84,57.22h17.53c.25,0,.38,.09,.38,.28v14.37c0,.17-.12,.26-.38,.26h-.94c-.23,0-.35-.09-.35-.26v-1.15h-6.68v7.34c0,.17-.12,.26-.38,.26h-.94c-.25,0-.38-.09-.38-.26v-7.34h-6.56v1.34c0,.17-.12,.26-.38,.26h-.94c-.25,0-.38-.09-.38-.26v-14.46c0-.25,.12-.38,.38-.38Zm1.31,6.09h6.56v-4.59h-6.56v4.59Zm0,5.91h6.56v-4.41h-6.56v4.41Zm8.25-10.5v4.59h6.68v-4.59h-6.68Zm0,6.09v4.41h6.68v-4.41h-6.68Z"/>
        <path class="cls-1" d="M449.36,57.12h9.38c.12,0,.19,.09,.19,.28v.75c0,.25-.06,.38-.19,.38h-3v2.72h2.25c.25,0,.38,.09,.38,.28v6.82c.59-.3,1.09-.59,1.48-.87,.67-.41,1.37-.98,2.09-1.73,.34-.36,.8-.91,1.38-1.66h-2.6c-.19,0-.28-.13-.28-.4v-.73c0-.2,.09-.3,.28-.3h5.72c.12,0,.19,.07,.19,.21,0,1.11,.5,2.16,1.5,3.16,.91,.88,2,1.66,3.28,2.34,0,.16-.06,.27-.19,.33-.53,.47-.88,.7-1.03,.7-.39-.22-.77-.45-1.12-.7v.52c0,.25-.06,.38-.19,.38h-3.56v2.53h3.56c.12,0,.19,.09,.19,.28v.75c0,.25-.06,.38-.19,.38h-3.56v2.72h5.18c.11,0,.16,.09,.16,.28v.75c0,.25-.05,.38-.16,.38h-10.99c-.12,0-.19-.12-.19-.38v-.75c0-.19,.06-.28,.19-.28h4.22v-2.72h-3.28c-.12,0-.19-.12-.19-.38v-.75c0-.19,.06-.28,.19-.28h3.28v-2.53h-3.28c-.12,0-.19-.12-.19-.38v-.19c-.31,.2-.62,.39-.94,.56-.16,0-.27-.05-.35-.14-.2-.19-.4-.37-.59-.54v8.95c0,.17-.12,.26-.38,.26h-.94c-.19,0-.28-.09-.28-.26v-.94h-6v.94c0,.17-.12,.26-.38,.26h-.91c-.2,0-.3-.09-.3-.26v-16.34c0-.19,.1-.28,.3-.28h2.55c.03-.7,.05-1.61,.05-2.72h-2.72c-.12,0-.19-.12-.19-.38v-.75c0-.19,.06-.28,.19-.28Zm1.41,14.53h6v-1.99c-1.62-.12-2.44-.74-2.44-1.85v-5.16h-.96c-.05,.7-.12,1.36-.21,1.97-.12,.89-.32,1.71-.59,2.46-.27,.73-.59,1.36-.98,1.88-.25,.28-.52,.54-.82,.77v1.92Zm0-3.96s.06-.09,.09-.12c.23-.33,.44-.8,.61-1.43,.12-.44,.23-.99,.33-1.66,.08-.55,.14-1.16,.19-1.83h-1.22v5.04Zm0,7.8h6v-2.41h-6v2.41Zm3.56-14.25v-2.72h-.84c0,1.05-.02,1.95-.05,2.72h.89Zm1.41,1.41v4.78c0,.45,.34,.73,1.03,.82v-5.6h-1.03Zm3.28-4.22h2.06v-1.78c0-.19,.13-.28,.4-.28,1.17,0,1.76,.09,1.76,.28,0,.22-.08,.34-.23,.38-.16,.02-.23,.17-.23,.47v.94h3.84v-1.57c0-.2,.12-.3,.38-.3,1.19,0,1.78,.1,1.78,.3s-.08,.32-.23,.35c-.16,.02-.23,.17-.23,.47v.75h2.18c.17,0,.26,.12,.26,.38v.75c0,.27-.09,.4-.26,.4h-2.18v1.76c0,.2-.12,.3-.38,.3h-.94c-.25,0-.38-.1-.38-.3v-1.76h-3.84v1.66c0,.2-.12,.3-.38,.3h-.91c-.27,0-.4-.1-.4-.3v-1.66h-2.06c-.19,0-.28-.13-.28-.4v-.75c0-.25,.09-.38,.28-.38Zm2.37,9.75h6.94c-.78-.58-1.43-1.17-1.95-1.78-.52-.66-.89-1.43-1.12-2.32h-.21c-.64,.92-1.2,1.66-1.66,2.2-.56,.64-1.17,1.24-1.83,1.8-.05,.03-.1,.06-.16,.09Z"/>
        <path class="cls-1" d="M475.95,61.16h3.19v-3.16c0-.47-.03-.82-.09-1.05-.06-.19-.09-.34-.09-.47s.16-.19,.47-.19l1.9,.26c.17,.08,.26,.15,.26,.21,0,.16-.09,.23-.28,.23-.31,.12-.47,.49-.47,1.1v3.07h3c.19,0,.28,.12,.28,.38v.75c0,.25-.09,.38-.28,.38h-3v5.32c1.03-.5,2.02-1.02,2.95-1.57,.06-.06,.11-.09,.14-.09,.12,0,.19,.06,.19,.19,0,.8-.03,1.23-.09,1.31-1.06,.61-2.12,1.2-3.19,1.76v6.59c0,1.14-.84,1.71-2.53,1.71h-1.41c-.14,0-.21-.14-.21-.42-.05-.3-.2-.66-.45-1.1,0-.12,.06-.19,.19-.19,.62,.12,1.19,.19,1.69,.19,.69,0,1.03-.28,1.03-.84v-5.09c-.8,.41-1.61,.79-2.44,1.15-.23,.44-.42,.66-.56,.66s-.45-.66-.94-1.97c1.09-.33,2.41-.83,3.94-1.5v-6.09h-3.19c-.19,0-.28-.12-.28-.38v-.75c0-.25,.09-.38,.28-.38Zm9.38-1.1h4.78v-3.4c0-.19,.12-.28,.38-.28,1.19,0,1.78,.09,1.78,.28,0,.22-.08,.34-.23,.38-.16,.02-.23,.17-.23,.47v2.55h4.97c.19,0,.28,.12,.28,.35v.75c0,.25-.09,.38-.28,.38h-4.97v3.94h3.75c.16,0,.32,.05,.49,.14,.3,.23,.45,.41,.45,.52-.27,1.25-.55,2.27-.84,3.07-.34,.88-.8,1.73-1.38,2.55-.33,.53-.8,1.14-1.43,1.83-.08,.08-.16,.17-.26,.28,.84,.73,1.77,1.33,2.79,1.78,.67,.33,1.29,.56,1.85,.7,.2,.08,.3,.14,.3,.19,0,.16-.05,.27-.14,.35-.25,.31-.48,.59-.7,.84-.06,.16-.16,.23-.28,.23s-.56-.17-1.31-.52c-1.5-.75-2.75-1.57-3.75-2.46-.2,.16-.41,.3-.61,.45-.59,.44-1.38,.88-2.34,1.34-.73,.38-1.81,.8-3.23,1.29-.16,0-.29-.09-.4-.26-.33-.27-.68-.52-1.05-.75-.09-.11-.14-.19-.14-.23,0-.06,.05-.11,.16-.14,1.5-.38,2.73-.79,3.68-1.24,1.05-.44,1.95-.95,2.7-1.52,.02-.03,.04-.06,.07-.09-.72-.83-1.37-1.77-1.95-2.81-.56-1.11-1.09-2.45-1.59-4.01h-1.2c-.19,0-.28-.13-.28-.4v-.73c0-.27,.09-.4,.28-.4h4.69v-3.94h-4.78c-.19,0-.28-.12-.28-.38v-.75c0-.23,.09-.35,.28-.35Zm2.95,6.94c.34,1.14,.76,2.16,1.24,3.05,.52,1,1.16,1.9,1.92,2.7,.25-.23,.48-.47,.68-.7,.59-.73,1.09-1.51,1.5-2.32,.33-.7,.65-1.61,.96-2.72h-6.3Z"/>
        <path class="cls-1" d="M506.47,62.09c.09,0,.62,.44,1.59,1.31,0,.23-.12,.4-.38,.49-.17,.06-.28,.16-.33,.28-.44,.81-.89,1.55-1.36,2.23v11.46c0,.17-.12,.26-.38,.26h-.94c-.25,0-.38-.09-.38-.26v-9.3c-.42,.5-.92,1.03-1.5,1.59-.48-.53-.85-.89-1.1-1.08-.14-.14-.21-.25-.21-.33,0-.03,.02-.09,.07-.16,1.08-.86,2.04-1.9,2.88-3.12,.66-.89,1.28-1.96,1.88-3.21,.05-.11,.09-.16,.14-.16Zm-.19-5.44l1.55,1.03c.22,.14,.33,.3,.33,.47,0,.19-.09,.28-.28,.28-.28,0-.48,.1-.61,.3-1.56,2.02-3.02,3.51-4.36,4.48-.16,0-.28-.06-.38-.19-.27-.31-.52-.56-.75-.75-.12-.12-.19-.21-.19-.26,0-.09,.04-.15,.12-.16,.47-.27,.91-.62,1.34-1.08,.64-.52,1.23-1.11,1.76-1.78,.5-.66,.92-1.35,1.27-2.09,.08-.17,.15-.26,.21-.26Zm2.91,8.37l1.55,.33c.16,.05,.23,.12,.23,.21,0,.2-.06,.32-.19,.35-.2,.08-.33,.34-.38,.77,0,2.86-.12,4.83-.38,5.91-.3,1.08-.61,2.01-.94,2.79,0,.14-.16,.21-.47,.21-.88-.27-1.31-.45-1.31-.54,.59-1.27,.97-2.29,1.12-3.07,.25-1.53,.4-3.78,.45-6.75,0-.14,.1-.21,.3-.21Zm-.28-3.77h2.91v-4.69c0-.19,.12-.28,.38-.28,1.19,0,1.78,.09,1.78,.28,0,.22-.08,.34-.23,.38-.16,.02-.23,.17-.23,.47v3.84h3.19c.19,0,.28,.12,.28,.38v.75c0,.25-.09,.38-.28,.38h-3.19v15c0,.2-.12,.3-.38,.3h-.94c-.25,0-.38-.1-.38-.3v-15h-2.91c-.19,0-.28-.12-.28-.38v-.75c0-.25,.09-.38,.28-.38Zm6.56-3.84c.09,0,.16,.03,.19,.09,.56,.7,1.06,1.45,1.5,2.25,0,.23-.05,.36-.16,.38-.53,.38-.95,.56-1.24,.56-.47-1.02-.91-1.86-1.31-2.53,0-.16,.34-.41,1.03-.75Zm-.38,7.69c1.06,.09,1.59,.22,1.59,.38,0,.09-.09,.23-.28,.4v7.29c0,.19,.06,.28,.19,.28h.47c.23,0,.45-.75,.66-2.25l1.41,.87c-.45,1.94-1.02,2.91-1.69,2.91h-1.41c-.81,0-1.22-.34-1.22-1.03v-8.55c0-.19,.09-.28,.28-.28Zm2.72-1.97h5.91c.19,0,.28,.12,.28,.38v.75c0,.25-.09,.38-.28,.38h-1.59v11.72c0,1.19-.97,1.78-2.91,1.78h-1.03c-.11,0-.16-.15-.16-.45-.03-.34-.16-.76-.4-1.24v-.09c.53,.12,1.03,.19,1.5,.19,.88,0,1.31-.28,1.31-.84v-11.06h-2.62c-.19,0-.28-.12-.28-.38v-.75c0-.25,.09-.38,.28-.38Zm.47-5.04h5.06c.19,0,.28,.12,.28,.35v.75c0,.25-.09,.38-.28,.38h-5.06c-.19,0-.28-.12-.28-.38v-.75c0-.23,.09-.35,.28-.35Z"/>
        <path class="cls-1" d="M541.03,64.25v2.62c0,1.19-.25,2.22-.75,3.09-.52,.88-1.12,1.44-1.8,1.69l-.94-.94c.44-.17,.84-.51,1.2-1.01,.38-.47,.58-1.07,.61-1.8h-1.9v-3.66h3.59Z"/>
        <path class="cls-1" d="M555.24,57.9h6.38c.12,0,.19,.09,.19,.26v.77c0,.23-.06,.35-.19,.35h-2.34v5.34h2.34c.12,0,.19,.1,.19,.3v.73c0,.27-.06,.4-.19,.4h-2.34v5.74c.91-.38,1.77-.77,2.6-1.2,.03-.05,.07-.07,.12-.07,.12,0,.19,.09,.19,.28,0,.75-.03,1.16-.09,1.24-1.97,.95-3.97,1.82-6,2.6-.23,.44-.42,.66-.56,.66-.12,0-.41-.62-.84-1.88,.83-.2,1.8-.52,2.91-.96v-6.42h-2.51c-.14,0-.21-.13-.21-.4v-.73c0-.2,.07-.3,.21-.3h2.51v-5.34h-2.34c-.11,0-.16-.12-.16-.35v-.77c0-.17,.05-.26,.16-.26Zm8.53,8.51h10.97c.25,0,.38,.09,.38,.28v3.84c0,.19-.12,.28-.38,.28h-4.17c.17,.47,.37,.9,.59,1.29,.27,.53,.57,1.01,.91,1.43,.17-.05,.32-.09,.45-.14,.55-.2,1.02-.44,1.43-.7,.36-.2,.74-.45,1.15-.75,.05-.05,.09-.07,.12-.07l1.24,.89c.11,.12,.16,.23,.16,.33,0,.02-.05,.03-.14,.05-.16,0-.28,.02-.38,.07-.39,.27-.82,.52-1.29,.77-.45,.22-1.02,.44-1.69,.66,.3,.28,.62,.52,.98,.73,.73,.48,1.54,.84,2.41,1.08,.06,.03,.09,.06,.09,.09,0,.12-.06,.24-.19,.35-.23,.25-.47,.52-.7,.8-.06,.19-.17,.28-.33,.28-.06,0-.27-.12-.63-.35-1.19-.61-2.17-1.3-2.95-2.06-.62-.64-1.1-1.29-1.43-1.95-.3-.45-.67-1.38-1.12-2.79h-.98c-.41,.53-.83,.99-1.27,1.38l-.23,.23v3.61c1.34-.36,2.62-.74,3.82-1.15,.03-.02,.07-.02,.12-.02,.12,0,.19,.09,.19,.26,0,.75-.03,1.16-.09,1.22-2,.62-4.03,1.2-6.09,1.71-.22,.42-.41,.63-.56,.63-.14,0-.42-.62-.84-1.88,.55-.09,1.14-.21,1.78-.35v-2.67c-.61,.41-1.28,.79-2.02,1.15-1.02,.44-1.59,.66-1.73,.66-.09,0-.2-.09-.3-.28-.2-.27-.45-.55-.73-.84-.12-.12-.19-.22-.19-.28,1.09-.3,2.02-.61,2.79-.94,.78-.34,1.55-.78,2.32-1.31,.33-.27,.73-.64,1.22-1.12h-2.67c-.25,0-.38-.09-.38-.28v-3.84c0-.19,.12-.28,.38-.28Zm-1.03-2.62h12.84c.12,0,.19,.1,.19,.3v.73c0,.25-.06,.38-.19,.38h-12.84c-.12,0-.19-.12-.19-.38v-.73c0-.2,.06-.3,.19-.3Zm.28-6.73h12.19c.25,0,.38,.09,.38,.26v4.78c0,.19-.12,.28-.38,.28h-12.19c-.25,0-.38-.09-.38-.28v-4.78c0-.17,.12-.26,.38-.26Zm3.47,4.03v-2.74h-2.25v2.74h2.25Zm7.03,8.41v-1.78h-8.53v1.78h8.53Zm-3.28-8.41v-2.74h-2.16v2.74h2.16Zm3.75,0v-2.74h-2.16v2.74h2.16Z"/>
        <path class="cls-1" d="M586.71,56.47c1.31,.69,1.97,1.09,1.97,1.22,0,.16-.06,.23-.19,.23-.28,.02-.47,.09-.56,.23-.72,1.75-1.44,3.2-2.16,4.34v15.56c0,.17-.12,.26-.38,.26h-.91c-.27,0-.4-.09-.4-.26v-13.29c-.55,.64-1.23,1.41-2.06,2.32-.17,0-.33-.09-.47-.26-.25-.19-.5-.38-.75-.59-.12-.08-.19-.17-.19-.28,.72-.73,1.43-1.52,2.13-2.34,.91-1.06,1.7-2.24,2.39-3.54,.59-1.17,1.05-2.31,1.38-3.42,.05-.12,.11-.19,.19-.19Zm3.09,1.03h11.34c.25,0,.38,.09,.38,.28v8.09c0,.17-.12,.26-.38,.26h-.94c-.25,0-.38-.09-.38-.26v-1.05h-3.56v3.47h6.38c.19,0,.28,.12,.28,.38v.75c0,.25-.09,.38-.28,.38h-6.02c.7,1,1.34,1.78,1.9,2.34,.69,.77,1.52,1.46,2.51,2.09,.8,.55,1.62,.95,2.46,1.2,0,.12-.08,.21-.23,.26-.33,.34-.62,.66-.87,.96-.09,.12-.16,.19-.21,.19-1.25-.62-2.27-1.29-3.05-1.99-.89-.75-1.65-1.55-2.27-2.39-.19-.22-.38-.47-.59-.75v6.38c0,.17-.12,.26-.38,.26h-.94c-.25,0-.38-.09-.38-.26v-5.98c-.25,.31-.48,.6-.68,.87-.67,.8-1.4,1.53-2.18,2.2-.89,.73-1.78,1.36-2.67,1.88-.17,0-.31-.05-.42-.16-.31-.3-.62-.57-.91-.82-.05-.11-.07-.2-.07-.26,.86-.42,1.55-.83,2.09-1.22,.8-.53,1.62-1.25,2.46-2.16,.52-.53,1.2-1.41,2.04-2.62h-5.65c-.19,0-.28-.12-.28-.38v-.75c0-.25,.09-.38,.28-.38h6v-3.47h-3.47v1.15c0,.17-.12,.26-.38,.26h-.94c-.25,0-.38-.09-.38-.26v-8.06c0-.27,.12-.4,.38-.4Zm1.31,5.81h8.72v-4.29h-8.72v4.29Z"/>
        <path class="cls-1" d="M608.51,57.5h19.69c.19,0,.28,.13,.28,.4v.73c0,.27-.09,.4-.28,.4h-9v.07l-.02,1.9h6.59c.25,0,.38,.09,.38,.26v9.47c0,.2-.12,.3-.38,.3h-.94c-.25,0-.38-.1-.38-.3v-.63h-5.39c-.06,.52-.16,.94-.28,1.27-.2,.95-.61,1.79-1.22,2.51-.08,.09-.16,.18-.23,.26,.2,.12,.43,.24,.68,.35,1.05,.48,2.13,.85,3.26,1.1,1.27,.3,2.64,.52,4.12,.68,1.06,.12,2.19,.19,3.38,.19,0,.11-.06,.25-.19,.42-.17,.38-.33,.74-.47,1.1-.03,.17-.09,.26-.19,.26-1.48-.09-2.77-.23-3.87-.4-1.25-.19-2.38-.42-3.4-.7-1.25-.34-2.38-.76-3.4-1.24-.42-.22-.8-.44-1.12-.66-.27,.2-.54,.4-.82,.59-1.2,.81-2.58,1.46-4.12,1.95-.98,.31-1.66,.47-2.02,.47-.11,0-.2-.07-.26-.21-.22-.44-.45-.82-.68-1.15-.12-.06-.19-.11-.19-.14,0-.09,.05-.14,.14-.14,1.33-.16,2.41-.38,3.23-.68,1.08-.36,1.98-.79,2.7-1.29,.23-.12,.45-.26,.63-.4-.58-.55-1.19-1.3-1.83-2.25,0-.06,.5-.26,1.5-.59,.42,.73,.91,1.33,1.45,1.78l.05,.05,.19-.23c.48-.52,.79-1.08,.91-1.69,.14-.34,.24-.74,.3-1.2h-5.16v.63c0,.2-.12,.3-.38,.3h-.91c-.27,0-.4-.1-.4-.3v-9.38c0-.23,.13-.35,.4-.35h6.61l.02-1.24v-.73h-9c-.19,0-.28-.13-.28-.4v-.73c0-.27,.09-.4,.28-.4Zm3.66,7.31h5.3l.02-2.34h-5.32v2.34Zm0,3.75h5.25l.02-2.25h-5.27v2.25Zm6.96-2.25l-.02,2.25h5.34v-2.25h-5.32Zm.05-3.84l-.02,2.34h5.3v-2.34h-5.27Z"/>
        <path class="cls-1" d="M638.19,56.56c1.31,.69,1.97,1.09,1.97,1.22,0,.16-.06,.23-.19,.23-.28,.02-.47,.09-.56,.23-.5,1.64-1,3.02-1.5,4.12v15.68c0,.17-.12,.26-.38,.26h-.94c-.25,0-.38-.09-.38-.26v-12.63c-.36,.56-.8,1.2-1.31,1.92-.17,0-.33-.07-.47-.21l-.75-.61c-.12-.09-.19-.2-.19-.3,.55-.73,1.09-1.52,1.62-2.34,.7-1.09,1.31-2.3,1.83-3.63,.45-1.19,.8-2.35,1.05-3.49,.03-.12,.09-.19,.19-.19Zm1.78,1.88h3.75c.2,0,.34,.04,.4,.12,.3,.28,.45,.49,.45,.63l-2.48,5.62h1.92c.12,0,.26,.05,.4,.16,.23,.2,.35,.37,.35,.49-.11,1.33-.22,2.42-.33,3.28-.14,.94-.32,1.85-.54,2.74-.12,.56-.3,1.21-.54,1.95-.16,.45-.33,.89-.52,1.31,.11,.12,.22,.23,.33,.3,.36,.28,.81,.49,1.36,.63,.42,.16,.86,.25,1.31,.28,1.12,.08,2.7,.12,4.73,.12,1.05,0,2.89-.13,5.53-.4,0,.03-.05,.14-.14,.33-.16,.41-.3,.84-.42,1.31-.03,.16-.16,.23-.38,.23-.64,.06-2.17,.09-4.59,.09-2.78,0-4.83-.09-6.14-.26-.66-.12-1.22-.35-1.69-.68-.23-.14-.47-.3-.7-.47-.12,.2-.27,.41-.42,.63-.3,.39-.72,.84-1.27,1.34-.14,0-.25-.06-.33-.19-.27-.23-.55-.45-.87-.66-.08-.08-.12-.14-.12-.19,0-.06,.02-.11,.07-.14,.58-.42,1.06-.88,1.45-1.36,.16-.2,.31-.41,.47-.63-.31-.5-.59-1.08-.84-1.73-.41-.97-.7-2.34-.87-4.1,0-.17,.1-.26,.3-.26h.82c.22,0,.34,.09,.38,.26,.09,1.06,.3,2.05,.61,2.95,.12,.44,.28,.84,.47,1.2,.2-.48,.38-.95,.52-1.38,.23-.83,.43-1.67,.59-2.53,.12-.8,.26-1.84,.4-3.14h-1.95l-.45,1.01c-.08,.14-.17,.21-.28,.21-.88-.22-1.31-.4-1.31-.54l3.26-7.03h-2.7c-.19,0-.28-.13-.28-.4v-.75c0-.25,.09-.38,.28-.38Zm6.19,0h3v-1.69c0-.19,.12-.28,.38-.28,1.19,0,1.78,.09,1.78,.28,0,.22-.08,.34-.23,.38-.16,.02-.23,.17-.23,.47v.84h3.47c.25,0,.38,.09,.38,.28v3.09h1.31c.12,0,.19,.09,.19,.28v.77c0,.23-.06,.35-.19,.35h-1.31v3c0,.25-.06,.38-.19,.38h-3.66v1.97h3.84c.12,0,.19,.1,.19,.3v.73c0,.27-.06,.4-.19,.4h-3.84v2.06h4.69c.12,0,.19,.09,.19,.26v.77c0,.23-.06,.35-.19,.35h-4.69v1.62c0,.17-.12,.26-.38,.26h-.94c-.25,0-.38-.09-.38-.26v-1.62h-3.56c-.12,0-.19-.12-.19-.35v-.77c0-.17,.06-.26,.19-.26h3.56v-2.06h-2.81c-.12,0-.19-.13-.19-.4v-.73c0-.2,.06-.3,.19-.3h2.81v-1.97h-2.88c-.14,0-.21-.12-.21-.38v-.75c0-.19,.07-.28,.21-.28h2.88v-1.97h-3.75c-.12,0-.19-.12-.19-.35v-.77c0-.19,.06-.28,.19-.28h3.75v-1.95h-3c-.12,0-.19-.13-.19-.4v-.75c0-.19,.06-.28,.19-.28Zm4.69,1.43v1.95h2.16v-1.95h-2.16Zm0,3.35v1.97h2.16v-1.97h-2.16Z"/>
        <path class="cls-1" d="M671.62,56.56c1.19,0,1.78,.1,1.78,.3s-.08,.32-.23,.35c-.16,.02-.23,.17-.23,.47v.66h8.34c.12,0,.19,.09,.19,.28v.75c0,.25-.06,.38-.19,.38h-8.34v1.59h6.09c.25,0,.38,.09,.38,.28v3h2.16c.19,0,.28,.13,.28,.4v.73c0,.25-.09,.38-.28,.38h-2.16v3c0,.25-.12,.38-.38,.38h-5.74c.58,.92,1.16,1.73,1.76,2.41,.22,.25,.45,.48,.68,.7,1.09-.62,2.03-1.23,2.81-1.83,.2-.11,.37-.16,.49-.16,.11,0,.22,.05,.33,.16,.91,.67,1.36,1.09,1.36,1.27s-.09,.26-.28,.26l-.56-.09c-.17,0-.38,.06-.61,.19-.69,.34-1.49,.76-2.41,1.24,.23,.2,.46,.38,.68,.52,1.14,.89,2.51,1.62,4.1,2.18,.2,.05,.3,.11,.3,.19,0,.11-.04,.2-.12,.28-.36,.3-.68,.58-.96,.84-.08,.14-.16,.21-.23,.21-1.22-.48-2.23-1.02-3.02-1.62-1.12-.72-2.16-1.61-3.09-2.67-.48-.55-1.01-1.2-1.57-1.97v4.92c0,1.19-.97,1.78-2.91,1.78h-.66c-.11,0-.16-.14-.16-.42-.03-.36-.16-.78-.4-1.27v-.09c.39,.12,.77,.19,1.12,.19,.88,0,1.31-.27,1.31-.82v-1.66c-1.95,1.09-3.92,2.08-5.91,2.95-.27,.45-.48,.68-.66,.68-.16,0-.47-.7-.94-2.09,1.06-.3,2.34-.78,3.82-1.45,1.3-.56,2.52-1.17,3.68-1.83v-3h-5.25c-.19,0-.28-.12-.28-.38v-.75c0-.23,.09-.35,.28-.35h5.25v-1.9h-6.56c-.19,0-.28-.12-.28-.38v-.73c0-.27,.09-.4,.28-.4h6.56v-1.76h-5.16c-.19,0-.28-.13-.28-.4v-.75c0-.25,.09-.38,.28-.38h5.16v-1.59h-7.78v5.27c0,2.8-.12,5.01-.38,6.63-.17,1.38-.5,2.74-.98,4.1-.25,.83-.61,1.62-1.08,2.37-.11,0-.19,0-.23-.02-.27-.27-.55-.49-.87-.68-.08-.08-.12-.19-.12-.33,.39-.69,.75-1.63,1.08-2.84,.31-1.27,.53-2.59,.66-3.96,.16-1.45,.23-3.21,.23-5.27v-6.4c0-.19,.12-.28,.38-.28h9.09v-1.48c0-.2,.12-.3,.38-.3Zm-6.19,13.59c.77,.39,1.4,.77,1.9,1.12,.58,.42,1.07,.8,1.48,1.12,0,.03-.04,.09-.12,.19-.45,.62-.7,.94-.73,.94-.61-.55-1.27-1.03-1.97-1.45-.56-.38-1.03-.64-1.41-.8,0-.08,.22-.4,.66-.96,.08-.11,.14-.16,.19-.16Zm7.5-7.29v1.76h4.78v-1.76h-4.78Zm0,3.26v1.9h4.78v-1.9h-4.78Z"/>
      </g>
    </g>
  </g>
</svg>