<?xml version="1.0" encoding="UTF-8"?>
<svg id="_圖層_2" data-name="圖層 2" xmlns="http://www.w3.org/2000/svg" viewBox="0 0 170.27 45.46">
  <defs>
    <style>
      .cls-1 {
        fill: #fff;
      }
    </style>
  </defs>
  <g id="_圖層_2-2" data-name="圖層 2">
    <g>
      <polygon class="cls-1" points="116.17 25.2 116.17 5.81 109.99 5.81 109.99 .41 128.61 .41 128.61 5.81 122.43 5.81 122.43 25.2 116.17 25.2"/>
      <g>
        <polygon class="cls-1" points="130.85 25.11 130.85 .41 145.07 .41 148.18 5.53 137.16 5.53 137.16 9.83 145.48 9.83 145.48 14.91 137.16 14.91 137.16 20.03 147.63 20.03 144.48 25.11 130.85 25.11"/>
        <polygon class="cls-1" points="163.09 25.11 158.7 17.29 154.31 25.11 147.18 25.11 154.9 12.35 147.82 .41 154.86 .41 158.79 7.41 162.63 .41 169.63 .41 162.54 12.35 170.27 25.11 163.09 25.11"/>
        <path class="cls-1" d="M12.94,24.93c-2.97-3.93-6.91-10.06-6.91-10.06h-.05v10.06H.05V.55H5.99V10.52h.05L12.58,.55h6.86L11.16,12.26s3.93,5.81,9.24,12.67h-7.45Z"/>
        <path class="cls-1" d="M30.64,5.21h-2.61v6.22h2.52c2.56,0,3.75-1.23,3.75-3.2s-.96-3.02-3.66-3.02m3.93,19.71l-2.74-6.91c-.5-1.33-1.14-2.01-2.1-2.01h-1.69v8.92h-5.95V.55h9.01c5.26,0,9.1,1.83,9.1,7.18,0,3.48-2.42,5.49-4.76,6.31v.05s1.19,.32,2.2,2.52l3.66,8.37h-6.72v-.05Z"/>
        <path class="cls-1" d="M56.85,11.3c0-4.48-1.37-6.54-4.3-6.54s-4.34,2.06-4.34,6.54v2.93c0,4.48,1.37,6.54,4.3,6.54s4.34-2.06,4.34-6.54v-2.93Zm-4.48,14.22c-8.6,0-10.15-4.85-10.15-12.81S44.09,0,52.73,0s10.15,4.85,10.15,12.71c.05,7.91-1.83,12.81-10.52,12.81"/>
      </g>
      <polygon class="cls-1" points="79.26 24.93 70.93 9.47 70.89 9.47 70.93 24.93 65.58 24.93 65.58 .55 71.9 .55 80.17 16.01 80.26 16.01 80.13 .55 85.57 .55 85.57 24.93 79.26 24.93"/>
      <g>
        <path class="cls-1" d="M102.9,11.3c0-4.48-1.37-6.54-4.3-6.54s-4.34,2.06-4.34,6.54v2.93c0,4.48,1.37,6.54,4.3,6.54s4.34-2.06,4.34-6.54v-2.93Zm-4.48,14.22c-8.6,0-10.15-4.85-10.15-12.81s1.88-12.71,10.52-12.71,10.15,4.85,10.15,12.71-1.88,12.81-10.52,12.81"/>
        <path class="cls-1" d="M169.13,44.59v-4.62h-3.11v1.42h1.37v2.2c-.18,.14-.69,.32-1.37,.32-1.14,0-1.92-.69-1.92-2.74v-1.23c0-1.74,.73-2.74,2.38-2.74,1.05,0,1.83,.32,2.42,.55l.05-1.55c-.73-.32-1.37-.55-2.61-.55-3.29,0-4.16,2.06-4.16,4.94s.55,4.85,3.66,4.85c1.6,0,2.88-.5,3.29-.82m-11.57,.64v-9.42h-1.74l.05,6.54h0l-3.57-6.54h-2.01v9.42h1.74v-6.54h0l3.57,6.54h1.97Zm-12.39-9.42h-1.88v9.42h1.88v-9.42Zm-6.4,0h-1.88l-2.1,7.77h0l-2.06-7.73h-2.01l2.88,9.42h2.38l2.79-9.47Zm-12.58,0h-1.88v9.42h1.88v-9.42Zm-6.45,9.42v-1.51h-3.48v-7.91h-1.88v9.42h5.35Zm-19.57-6.59c0,.87-.55,1.42-1.69,1.42h-1.14v-2.79h1.23c1.14,0,1.6,.5,1.6,1.37m2.38,6.59l-1.42-3.38c-.32-.64-.69-.87-.82-.87h0c1.01-.32,1.88-1.14,1.88-2.42,0-2.01-1.33-2.74-3.38-2.74h-3.25v9.42h1.88v-3.61h.91c.46,0,.73,.32,.91,.82l1.14,2.79s2.15,0,2.15,0Zm-13.67-4.12c0,1.83-.64,2.74-2.01,2.74s-1.92-.91-1.92-2.74v-1.23c0-1.83,.69-2.74,2.01-2.74s1.92,.91,1.92,2.74v1.23Zm1.88-.59c0-2.93-.55-4.94-3.8-4.94s-3.93,1.92-3.93,4.94,.55,4.94,3.8,4.94c3.25-.05,3.93-2.01,3.93-4.94m-11.98-3.16v-1.51h-5.26v9.42h1.88v-3.66h3.11v-1.55h-3.11v-2.7h3.38Zm-17.29,5.17c0-1.51-.87-2.29-2.38-2.88l-.37-.14c-.87-.32-1.37-.64-1.37-1.33,0-.73,.55-1.14,1.42-1.14s1.6,.32,2.2,.55l.05-1.6c-.64-.23-1.37-.5-2.38-.5-2.06,0-3.25,1.14-3.25,2.61,0,1.6,.82,2.38,2.29,2.93l.37,.14c.82,.32,1.42,.69,1.42,1.33,0,.69-.5,1.23-1.69,1.23-.87,0-1.69-.32-2.38-.69l-.14,1.74c.69,.32,1.55,.55,2.61,.55,2.42,.09,3.61-1.19,3.61-2.79m-12.76-3.89c0,.87-.55,1.42-1.69,1.42h-1.14v-2.79h1.23c1.14,0,1.6,.5,1.6,1.37m2.33,6.59l-1.42-3.38c-.32-.64-.69-.87-.82-.87h0c1.01-.32,1.88-1.14,1.88-2.42,0-2.01-1.33-2.74-3.38-2.74h-3.25v9.42h1.88v-3.61h.91c.46,0,.73,.32,.91,.82l1.14,2.79s2.15,0,2.15,0Zm-13.72-4.12c0,1.83-.64,2.74-2.01,2.74s-1.92-.91-1.92-2.74v-1.23c0-1.83,.69-2.74,2.01-2.74s1.92,.91,1.92,2.74v1.23Zm1.97-.59c0-2.93-.55-4.94-3.8-4.94s-3.93,1.92-3.93,4.94,.55,4.94,3.8,4.94c3.25-.05,3.93-2.01,3.93-4.94m-14.04,.59c0,1.83-.64,2.74-2.01,2.74s-1.92-.91-1.92-2.74v-1.23c0-1.83,.69-2.74,2.01-2.74s1.92,.91,1.92,2.74v1.23Zm1.92-.59c0-2.93-.55-4.94-3.8-4.94s-3.93,1.92-3.93,4.94,.55,4.94,3.8,4.94c3.25-.05,3.93-2.01,3.93-4.94m-11.85,4.71v-1.51h-3.48v-7.91h-1.88v9.42h5.35Zm-10.06-7.87v-1.51H0v9.42H1.88v-3.66h3.11v-1.55H1.88v-2.7h3.38Z"/>
      </g>
    </g>
  </g>
</svg>