<?xml version="1.0" encoding="UTF-8"?>
<svg id="_圖層_2" data-name="圖層 2" xmlns="http://www.w3.org/2000/svg" viewBox="0 0 227.72 28.02">
  <defs>
    <style>
      .cls-1 {
        fill: #fff;
      }
    </style>
  </defs>
  <g id="_圖層_2-2" data-name="圖層 2">
    <g>
      <path class="cls-1" d="M0,.44c1.52,0,3.04,.07,4.55-.04,1.09-.07,1.6,.3,1.94,1.32,1.69,5,3.45,9.97,5.18,14.95,.11,.3,.26,.59,.54,1.22,.74-1.86,1.38-3.44,1.99-5.04,1.45-3.78,2.91-7.57,4.31-11.37,.29-.79,.68-1.07,1.53-1.07,3.56-.03,3.56-.05,4.83,3.29,1.63,4.27,3.27,8.54,4.91,12.81,.14,.38,.33,.74,.65,1.44,.96-2.76,1.81-5.19,2.65-7.62,1.04-2.98,2.06-5.97,3.15-8.92,.15-.4,.7-.91,1.1-.93,1.6-.11,3.22-.04,5.07-.04-.8,2.32-1.54,4.52-2.31,6.7-2.3,6.48-4.64,12.95-6.9,19.44-.31,.9-.76,1.12-1.64,1.12-3.32-.01-3.32,.02-4.54-3.07-1.78-4.52-3.56-9.04-5.34-13.55-.08-.21-.23-.38-.49-.79-.97,2.46-1.86,4.72-2.74,6.99-1.22,3.12-2.46,6.23-3.65,9.36-.29,.76-.65,1.14-1.54,1.07-1.08-.09-2.18-.02-3.43-.02-1.17-3.25-2.35-6.51-3.52-9.78C4.4,12.53,2.5,7.15,.58,1.79c-.13-.38-.38-.71-.58-1.07V.44Z"/>
      <path class="cls-1" d="M177.89,11.34c.87-1.76,1.63-3.93,2.89-5.74,3.06-4.41,7.59-5.99,12.78-5.49,2.16,.21,4.28,1.04,6.35,1.77,.46,.16,.91,1.03,.96,1.6,.13,1.54,.05,3.09,.05,4.79-1.28-.61-2.39-1.22-3.56-1.69-2.82-1.14-5.67-1.41-8.55-.18-3.46,1.47-5.38,5.33-4.64,9.28,.72,3.82,3.95,6.52,7.74,6.7,2.94,.14,5.45-.96,7.94-2.25,.37-.19,.73-.39,1.34-.72,0,1.9,.03,3.62-.03,5.34,0,.3-.32,.7-.6,.86-5.38,3.2-13.35,3.49-18.18-.98-2.27-2.11-3.56-4.72-4.18-7.72-.04-.18-.1-.35-.21-.7-1.36,5.6-4.2,9.82-9.89,11.3-5.47,1.42-10.31,.09-14.37-4.6v4.67h-17.98V.55h5.57V22.5h12.04c-3.16-5.33-3.61-10.77-.35-16.16,1.79-2.97,4.34-5.11,7.84-5.9,7.41-1.68,14.79,1.48,17.05,10.91Zm-6,2.64c0-.52,.03-1.04,0-1.55-.33-4.45-4.38-7.55-8.76-6.71-4.03,.77-6.32,3.8-6.28,8.34,.05,6.33,4.71,9.53,10.2,7.92,3.07-.9,5-4.15,4.85-8Z"/>
      <path class="cls-1" d="M63.87,.48h18.12V5.19h-12.08v6.3h12.06v4.94h-12.12v11.25c-3.16,0-6.13,0-9.11,0q-3.17,0-4.25-3.01c-1.99-5.49-3.99-10.99-5.98-16.48-.11-.31-.25-.6-.52-1.21-.39,1.07-.71,1.86-.98,2.67-1.85,5.64-3.7,11.27-5.51,16.92-.25,.78-.57,1.16-1.46,1.12-1.61-.08-3.22-.02-5-.02,.14-.58,.22-1.06,.38-1.52,2.85-8.14,5.74-16.27,8.56-24.41,.36-1.03,.84-1.41,1.93-1.33,1.37,.1,2.76,.1,4.13,0,1.06-.08,1.47,.37,1.83,1.29,3.09,8.06,6.22,16.1,9.34,24.14,.13,.33,.27,.66,.66,.93V.48Z"/>
      <path class="cls-1" d="M131.84,27.67c-2.1,0-3.8,.06-5.5-.04-.41-.02-.98-.46-1.15-.85-.81-1.86-1.45-3.79-2.26-5.65-1.92-4.39-3.06-5-8.06-4.42v10.87h-5.75V.47c4.75,0,9.41-.24,14.04,.08,3.04,.21,4.99,2.4,5.81,5.31,.88,3.11,.22,5.88-2.34,8.05-.32,.27-.67,.53-1,.79-.03,.02-.03,.08-.06,.16,3.27,3.59,3.99,8.4,6.27,12.8Zm-16.92-16.14c2.01,0,3.95,.08,5.87-.03,1.45-.08,2.33-1.22,2.45-2.82,.13-1.7-.45-2.91-1.94-3.14-2.07-.32-4.19-.3-6.38-.42v6.41Z"/>
      <path class="cls-1" d="M91.88,5.21v6.29h13.2v5c-1.19,0-2.31,0-3.44,0-2.85,0-5.7,.04-8.55-.02-.97-.02-1.38,.23-1.33,1.26,.07,1.55,.02,3.11,.02,4.84h13.32v5.01h-18.92V.52h18.86V5.21h-13.17Z"/>
      <path class="cls-1" d="M205.17,27.58V.54h5.67V12.1c.23,.18,.46,.35,.68,.53,.21-.46,.33-.99,.64-1.37,2.68-3.25,5.41-6.47,8.08-9.73,.65-.8,1.33-1.21,2.41-1.13,1.54,.1,3.09,.03,4.97,.03-3.73,4.4-7.22,8.54-10.77,12.73,3.59,4.79,7.13,9.51,10.86,14.5-2.5,0-4.74,.03-6.98-.04-.31,0-.67-.47-.9-.79-2.59-3.49-5.17-7-7.75-10.5-.26-.36-.56-.69-1.16-.92v12.17h-5.76Z"/>
    </g>
  </g>
</svg>