<?xml version="1.0" encoding="UTF-8"?>
<svg id="_圖層_2" data-name="圖層 2" xmlns="http://www.w3.org/2000/svg" viewBox="0 0 526.89 526.89">
  <defs>
    <style>
      .cls-1 {
        fill: #fff;
      }

      .cls-2 {
        fill: none;
        stroke: #fff;
        stroke-miterlimit: 10;
        stroke-width: .5px;
      }
    </style>
  </defs>
  <g id="_圖層_3" data-name="圖層 3">
    <g>
      <g>
        <path class="cls-1" d="M112.47,88.54c-.73,.55-1.44,1.12-2.19,1.64-1.85,1.29-3.92,1.94-6.16,2.13-2.07,.17-4.13,.13-6.11-.52-5.56-1.82-9.14-5.58-10.34-11.3-1.25-5.92,.76-10.86,5.37-14.69,2.86-2.38,6.22-3.44,9.94-3.23,3.31,.18,6.25,1.34,8.8,3.47,.11,.09,.22,.18,.33,.27,.01,0,.04,0,.07,0v-19.11c.11,0,.21-.02,.31-.02,1.49,0,2.98,0,4.47,0,.21,0,.32,.07,.43,.25,4.03,6.76,8.07,13.51,12.11,20.27,.09,.15,.18,.3,.27,.45,.02,0,.05-.02,.07-.03v-20.92h5.22v18.97c.1-.06,.16-.08,.21-.12,2.2-1.85,4.72-3.02,7.57-3.41,3.92-.54,7.51,.36,10.72,2.69,3.05,2.22,5.01,5.18,5.83,8.86,.66,2.98,.39,5.91-.65,8.76-1.65,4.55-4.92,7.37-9.53,8.68-1.44,.41-2.91,.6-4.4,.72-.04,0-.08,0-.13-.01v-5.19c.4-.02,.81-.02,1.21-.06,2.69-.22,4.8-1.49,6.44-3.58,1.15-1.46,1.91-3.1,2.28-4.92,.43-2.05,.03-3.98-1.03-5.76-1.78-3-4.43-4.7-7.92-5-4.46-.39-8.63,2.29-10.12,6.47-.51,1.41-.57,2.87-.42,4.35,.29,2.85,.94,5.63,1.51,8.43,.54,2.65,1.11,5.29,1.58,7.95,.44,2.47,.44,4.94-.16,7.4-.68,2.78-2.18,5.08-4.28,7-2.25,2.06-4.9,3.29-7.91,3.72-3.15,.45-6.17-.03-9-1.48-4.22-2.17-6.87-5.6-7.78-10.25-.92-4.68,.16-8.92,3.23-12.62,.06-.08,.13-.15,.19-.23-.01,0-.02-.02-.03-.03Zm11.31,.13c-.22,0-.39,0-.56,0-1.28,.05-2.56,.19-3.73,.75-4.35,2.1-6.25,6.19-5.39,10.54,.79,4.01,3.24,6.65,7.16,7.81,2.67,.79,5.31,.54,7.71-.92,3.23-1.96,4.5-4.96,4.21-8.65-.1-1.36-.32-2.72-.57-4.06-.62-3.36-1.29-6.7-1.93-10.05-.39-2.07-.72-4.15-.78-6.27,0-.14-.08-.29-.15-.42-1.21-2.06-2.43-4.12-3.64-6.18-2.83-4.79-5.65-9.58-8.48-14.37-.06-.09-.12-.18-.18-.27-.02,.01-.05,.02-.07,.03v20.95h-5.17c-.1-.75-.17-1.48-.31-2.19-1.02-5.02-5.28-7.46-8.94-7.65-2.5-.13-4.69,.75-6.62,2.3-3.38,2.71-4.48,7.04-3.23,10.69,2.38,6.88,10.66,8.5,15.46,4.46,.25-.21,.51-.42,.78-.63,1.17,1.25,2.31,2.48,3.48,3.72,2.95-3.26,6.63-4.7,10.95-4.62v5.04Z"/>
        <path class="cls-1" d="M136.91,49.81c.01-5.75,4.67-10.39,10.42-10.39,5.75,0,10.41,4.68,10.39,10.41-.02,5.74-4.7,10.42-10.42,10.4-5.75-.02-10.4-4.69-10.39-10.43Zm9.56,5.31v-10.65c-.06-.01-.09-.02-.12-.02-1.86,0-3.71,0-5.57,0-.12,0-.28,.11-.35,.22-1.15,1.53-1.72,3.27-1.71,5.18,0,1.85,.56,3.53,1.65,5.02,.07,.1,.18,.23,.28,.24,.31,.03,.62,.01,.96,.01v-5.17h1.75v5.16h3.11Zm1.78,.01h.35c1.69,0,3.39-.01,5.08,0,.32,0,.49-.11,.66-.36,.86-1.24,1.39-2.61,1.53-4.11,.21-2.26-.38-4.29-1.74-6.1-.05-.07-.16-.12-.24-.12-1.75,0-3.51,0-5.26,0-.12,0-.24,0-.36,0v4.61h4.81v1.64h-4.82v4.43Zm-5.89,1.67c2.79,2.17,7.17,2.13,9.89,0h-9.89Zm.07-14.04h9.73c-2.46-1.86-6.63-2.19-9.73,0Z"/>
      </g>
      <g>
        <path class="cls-1" d="M123.53,332.64c-19.5-.01-35.3,15.8-35.34,35.36-.03,19.46,15.82,35.33,35.31,35.33,19.52,0,35.35-15.82,35.35-35.33,0-19.55-15.79-35.34-35.33-35.36Zm0,64.17c-15.9,0-28.77-12.86-28.78-28.78-.01-15.94,12.82-28.81,28.76-28.84,15.93-.03,28.84,12.84,28.85,28.76,.01,15.9-12.92,28.85-28.83,28.86Z"/>
        <path class="cls-1" d="M123.78,349.07h-6.5v.55c0,4.12,0,8.24,0,12.36,0,2.59,0,5.18,0,7.77,0,.67-.1,1.3-.47,1.88-.48,.75-1.35,1.07-2.36,.87-.89-.18-1.42-.68-1.58-1.59-.07-.38-.09-.77-.09-1.15,0-6.71,0-13.42,0-20.13v-.55h-6.5v.43c0,6.59,0,13.18,0,19.77,0,.71,.06,1.43,.18,2.13,.49,2.8,2.02,4.77,4.79,5.6,2.46,.74,4.97,.73,7.44,.03,2.42-.69,4.02-2.27,4.66-4.71,.25-.95,.38-1.96,.39-2.95,.03-6.64,.02-13.27,.02-19.91,0-.12,0-.24,0-.41Z"/>
        <path class="cls-1" d="M140.87,381.38h-7.99v-22.22h-6.44v27.75c.13,.01,.23,.03,.33,.03,4.58,0,9.16,0,13.75,0,.32,0,.4-.12,.39-.42-.01-1.61,0-3.21,0-4.82,0-.1-.02-.2-.04-.34Z"/>
      </g>
      <g>
        <path class="cls-1" d="M339.47,400.3c-.74-.42-1.49-.83-2.23-1.27-3.61-2.15-6.96-4.64-9.89-7.66-2.96-3.05-5.36-6.47-6.87-10.47-.76-2.01-1.25-4.08-1.44-6.22-.38-4.12,.34-8.06,2.01-11.83,1.76-3.96,4.36-7.3,7.48-10.26,4.44-4.2,9.59-7.33,15.14-9.82,4.38-1.97,8.92-3.5,13.6-4.56,2.62-.6,5.28-1.08,7.93-1.51,2.06-.33,4.15-.54,6.23-.7,2.16-.17,4.32-.25,6.49-.31,1.68-.04,3.36-.04,5.03,.04,1.89,.08,3.78,.24,5.67,.39,3.12,.26,6.21,.73,9.27,1.34,5.82,1.16,11.48,2.87,16.91,5.29,4.4,1.96,8.54,4.36,12.33,7.36,.33,.26,.65,.53,.97,.8,.03,.02,.05,.05,.05,.11-.51-.31-1.01-.63-1.52-.94-5.2-3.12-10.76-5.4-16.58-7.07-3.11-.9-6.25-1.61-9.44-2.14-1.76-.29-3.54-.54-5.32-.72-2.2-.22-4.4-.4-6.61-.49-2.5-.09-5.01-.11-7.51-.05-2.06,.05-4.11,.2-6.16,.41-8.22,.82-16.21,2.63-23.86,5.8-5.17,2.14-10.02,4.83-14.38,8.38-3.64,2.96-6.75,6.38-8.99,10.53-1.43,2.64-2.38,5.44-2.78,8.43-.59,4.43,.09,8.66,1.9,12.72,2.04,4.55,5.15,8.28,8.91,11.5,1.12,.96,2.32,1.83,3.49,2.74,.06,.05,.13,.09,.19,.14-.01,.02-.02,.04-.04,.06Z"/>
        <g>
          <path class="cls-1" d="M374.29,358.28c.34,4.82,.69,9.61,1.03,14.4,.03,0,.05,0,.08,0,1.03-4.8,2.06-9.6,3.08-14.41h6.23c-.1,.5-.2,.99-.3,1.47-1.58,7.37-3.16,14.74-4.74,22.1-.04,.19-.06,.32-.31,.32-3.01,0-6.01,0-9.02,0-.03,0-.07-.01-.15-.02-.39-4.65-.77-9.31-1.16-13.98-.03,0-.06,0-.09,0-1,4.66-2,9.33-3,14h-6.23c.17-.82,.34-1.61,.51-2.41,1.51-7.06,3.03-14.12,4.53-21.18,.04-.21,.1-.29,.33-.29,3,0,5.99,0,8.99,0,.06,0,.11,0,.22,.01Z"/>
          <path class="cls-1" d="M358.85,382.15h-7.48c.08-1.23,.16-2.44,.25-3.69-.11-.01-.21-.03-.3-.03-1.14,0-2.28,0-3.43,0-.25,0-.34,.1-.41,.31-.37,1.05-.75,2.1-1.12,3.15-.06,.18-.14,.28-.36,.28-2.35,0-4.71,0-7.06,0-.05,0-.09,0-.19-.02,.05-.13,.09-.24,.13-.35,3.31-7.73,6.61-15.46,9.91-23.2,.11-.25,.23-.33,.51-.33,3.1,.01,6.2,0,9.3,0h.38c-.04,7.98-.08,15.91-.12,23.88Zm-9.67-8.36h2.92c.34-3.69,.68-7.37,1.02-11.05-.03,0-.06-.01-.09-.02-1.28,3.68-2.56,7.36-3.85,11.07Z"/>
          <path class="cls-1" d="M390.08,375.33c-.06,.42-.13,.82-.16,1.23-.02,.35-.03,.7,.02,1.04,.09,.6,.49,.88,1.09,.83,.13-.01,.26-.03,.38-.07,.99-.36,1.47-1.13,1.68-2.11,.2-.95,.02-1.83-.83-2.38-.68-.44-1.43-.76-2.18-1.07-1.08-.44-2.2-.76-3.18-1.41-1.2-.8-1.91-1.91-1.9-3.35,.02-3.31,1.02-6.26,3.61-8.48,1.36-1.17,3.01-1.69,4.76-1.9,1.85-.22,3.7-.2,5.52,.26,.41,.11,.83,.25,1.21,.43,1.59,.74,2.42,2.02,2.48,3.74,.03,.83-.12,1.67-.2,2.5,0,.08-.15,.21-.23,.22-2.17,.01-4.33,0-6.54,0,.04-.24,.07-.45,.1-.67,.02-.16,.04-.32,.05-.49,.02-.45,.01-.92-.47-1.15-.53-.25-1.08-.28-1.59,.08-1.35,.94-1.37,2.85,.02,3.72,.64,.4,1.38,.66,2.08,.97,.8,.35,1.62,.65,2.4,1.05,1.96,1,2.89,2.62,2.72,4.81-.18,2.26-.87,4.35-2.24,6.19-1.41,1.9-3.36,2.96-5.66,3.35-2.36,.4-4.71,.34-7.04-.25-1.28-.33-2.4-.97-2.97-2.22-.24-.53-.38-1.13-.45-1.71-.11-1,.05-2,.31-2.97,.03-.1,.17-.23,.26-.23,2.27-.01,4.54,0,6.82,0,.03,0,.07,.02,.13,.03Z"/>
          <path class="cls-1" d="M408.55,382.15h-7.32c1.7-7.96,3.4-15.91,5.11-23.86h7.32c-1.7,7.96-3.4,15.91-5.11,23.86Z"/>
          <path class="cls-1" d="M397.3,389.67h1.5c.21,1.43,.41,2.86,.62,4.28h.08c.1-.46,.21-.94,.31-1.41,.19-.87,.38-1.75,.55-2.63,.04-.2,.12-.27,.32-.26,.29,.01,.58,0,.92,0-.46,2.18-.92,4.32-1.37,6.47h-1.49c-.21-1.47-.41-2.94-.62-4.41-.02,0-.04,0-.06,0-.14,.65-.28,1.3-.42,1.96-.16,.75-.31,1.5-.49,2.25-.02,.09-.16,.21-.26,.22-.3,.03-.6,.01-.96,.01,.46-2.18,.92-4.32,1.37-6.47Z"/>
          <path class="cls-1" d="M367.82,396.13h-1.23c.2-.95,.4-1.88,.59-2.81,.05-.24,.11-.48,.15-.72,.06-.4-.18-.6-.56-.5-.43,.12-.58,.47-.67,.86-.21,.95-.42,1.91-.61,2.87-.05,.25-.14,.33-.39,.31-.29-.02-.58,0-.93,0,.35-1.65,.69-3.26,1.03-4.87h1.16c-.01,.14-.03,.28-.03,.32,.4-.14,.82-.36,1.27-.44,.54-.1,.84,.15,1.08,.72,.32-.41,.7-.67,1.22-.72,.81-.09,1.27,.36,1.12,1.16-.23,1.21-.49,2.42-.76,3.62-.02,.09-.15,.2-.24,.21-.32,.03-.65,0-1.03,0,.12-.58,.23-1.13,.35-1.68,.12-.57,.25-1.14,.36-1.71,.04-.22,.12-.48-.15-.62-.26-.13-.54-.06-.7,.15-.17,.23-.31,.52-.37,.8-.22,.9-.39,1.82-.59,2.73-.02,.1-.05,.2-.08,.31Z"/>
          <path class="cls-1" d="M428.28,394.14h1.28c-.01,.22-.04,.44-.04,.65,0,.29,.17,.45,.44,.51,.66,.14,1.24-.33,1.25-1.01,0-.31-.16-.51-.41-.64-.28-.14-.57-.25-.86-.38-.91-.39-1.18-.93-.96-1.89,.34-1.5,2.04-2.32,3.44-1.65,.59,.28,.79,.87,.54,1.73-.18,0-.37,0-.56,0s-.39,0-.62,0c0-.08,0-.15,0-.21,.01-.27,.03-.56-.27-.69-.32-.14-.62-.07-.88,.14-.51,.42-.43,1.14,.15,1.43,.39,.2,.8,.38,1.19,.59,.52,.27,.73,.7,.67,1.3-.14,1.33-.99,2.16-2.37,2.25-.34,.02-.7,0-1.04-.06-.71-.12-1.05-.55-1.03-1.27,0-.25,.06-.51,.09-.79Z"/>
          <path class="cls-1" d="M363.73,396.13h-1.34v-1.35c-.58,0-1.12,0-1.66,0-.05,0-.11,.07-.15,.12-.04,.07-.07,.15-.1,.22q-.48,1.13-1.77,.99c.05-.11,.09-.22,.14-.32,.93-1.95,1.87-3.9,2.79-5.86,.1-.22,.23-.31,.47-.29,.32,.02,.65,.02,.98,0,.25-.01,.32,.08,.33,.32,.07,1.49,.15,2.98,.22,4.46,.03,.56,.06,1.11,.09,1.7Zm-1.37-5.2s-.05-.02-.07-.03c-.39,.92-.79,1.84-1.19,2.79h1.27v-2.76Z"/>
          <path class="cls-1" d="M459.85,391.72c.14-.66,.28-1.22,.38-1.79,.04-.22,.14-.28,.35-.27,.3,.02,.6,0,.96,0-.46,2.18-.92,4.32-1.37,6.47h-1.17c.02-.14,.03-.27,.06-.48-.39,.42-.8,.66-1.33,.63-.56-.03-.92-.29-.98-.85-.13-1.31,.16-2.54,.87-3.66,.27-.42,.7-.61,1.19-.63,.43-.03,.77,.13,1.04,.58Zm-.2,1.01c-.12-.2-.19-.47-.37-.58-.25-.16-.51-.01-.7,.21-.03,.03-.06,.07-.08,.11-.36,.74-.52,1.54-.53,2.36,0,.15,.13,.41,.25,.44,.18,.05,.44,0,.61-.1,.15-.09,.27-.3,.32-.48,.18-.62,.33-1.25,.5-1.96Z"/>
          <path class="cls-1" d="M449.55,389.68c-.46,2.17-.91,4.3-1.37,6.45h-1.16c.01-.13,.03-.27,.05-.45-.1,.09-.16,.17-.24,.2-.32,.14-.64,.35-.98,.38-.67,.07-1.08-.29-1.11-.96-.06-1.2,.19-2.34,.8-3.38,.14-.23,.36-.44,.59-.58,.61-.38,1.24-.26,1.75,.34,.15-.69,.29-1.33,.44-2h1.24Zm-1.9,3.13c-.07-.3-.04-.6-.4-.7-.28-.09-.61,.07-.76,.41-.34,.73-.5,1.5-.51,2.3,0,.16,.12,.4,.24,.45,.17,.06,.42,.02,.58-.07,.15-.08,.28-.27,.33-.43,.19-.64,.35-1.3,.52-1.95Z"/>
          <path class="cls-1" d="M486.81,391.27h1.25c-.2,.94-.4,1.87-.59,2.8-.05,.24-.11,.48-.14,.72-.06,.38,.11,.55,.49,.52,.38-.02,.64-.25,.74-.71,.22-.96,.42-1.93,.63-2.9,.03-.14,.06-.27,.1-.42h1.23c-.1,.46-.19,.91-.28,1.35-.23,1.08-.47,2.16-.68,3.24-.04,.23-.14,.28-.35,.27-.28-.01-.56,0-.87,0,.02-.17,.04-.33,.06-.55-.43,.47-.91,.71-1.5,.68-.63-.03-1-.42-.88-1.04,.24-1.32,.53-2.64,.8-3.97Z"/>
          <path class="cls-1" d="M416.02,396.13h-1.24c.2-.94,.39-1.86,.58-2.77,.13-.61,.27-1.23,.39-1.84,.04-.2,.12-.27,.32-.26,.29,.01,.58,0,.9,0-.02,.17-.04,.31-.06,.51,.08-.06,.14-.1,.19-.15,.32-.31,.7-.45,1.13-.48,.76-.05,1.18,.4,1.05,1.15-.14,.8-.33,1.59-.49,2.39-.1,.49-.21,.97-.31,1.46h-1.24c.24-1.13,.47-2.25,.7-3.36,.05-.23,.12-.48-.14-.62-.28-.15-.59-.09-.76,.14-.18,.23-.3,.52-.36,.81-.23,1-.43,2-.65,3.03Z"/>
          <path class="cls-1" d="M471.8,391.26c-.03,.2-.05,.34-.08,.57,.39-.44,.81-.66,1.32-.69,.76-.05,1.19,.38,1.06,1.13-.16,.9-.37,1.8-.55,2.7-.08,.38-.17,.77-.25,1.16h-1.24c.18-.83,.35-1.64,.52-2.46,.07-.34,.15-.68,.21-1.03,.07-.43-.17-.64-.59-.54-.37,.09-.56,.36-.64,.71-.21,.96-.42,1.93-.63,2.9-.03,.13-.06,.27-.1,.41h-1.23c.12-.56,.24-1.1,.35-1.64,.21-.99,.43-1.98,.63-2.97,.04-.2,.12-.27,.32-.26,.29,.01,.58,0,.91,0Z"/>
          <path class="cls-1" d="M389.14,396.15c.35-1.66,.69-3.26,1.04-4.87h1.16c-.02,.16-.04,.32-.07,.53,.49-.51,1.02-.75,1.67-.64,.48,.08,.76,.35,.71,.83-.07,.69-.22,1.37-.36,2.06-.12,.62-.27,1.23-.39,1.84-.04,.21-.13,.26-.32,.26-.31-.01-.62,0-.97,0,.19-.9,.37-1.75,.55-2.6,.07-.33,.15-.66,.18-.99,.04-.35-.13-.49-.48-.47-.41,.03-.67,.3-.79,.85-.19,.87-.38,1.75-.56,2.63-.12,.58-.12,.58-.72,.58h-.65Z"/>
          <path class="cls-1" d="M439.91,396.15c.35-1.65,.69-3.26,1.04-4.87h1.16c-.02,.16-.03,.31-.06,.53,.45-.49,.96-.72,1.57-.66,.57,.06,.86,.36,.8,.93-.06,.62-.21,1.23-.34,1.85-.13,.66-.29,1.32-.41,1.98-.04,.19-.11,.25-.3,.25-.31-.01-.63,0-.99,0,.12-.57,.22-1.09,.33-1.62,.12-.58,.26-1.16,.37-1.74,.04-.23,.13-.51-.17-.65-.28-.13-.57-.06-.76,.17-.15,.18-.26,.42-.31,.65-.22,.96-.43,1.93-.62,2.9-.05,.23-.13,.31-.36,.3-.3-.02-.6,0-.95,0Z"/>
          <path class="cls-1" d="M436.27,392.76c.07-.75,.51-1.34,1.21-1.49,.5-.11,1.04-.12,1.55-.05,.63,.08,.88,.52,.76,1.18-.13,.7-.29,1.39-.43,2.08-.11,.53-.2,1.07-.31,1.64h-1.09c-.02-.14-.04-.27-.07-.48-.38,.48-.85,.66-1.41,.64-.54-.02-.84-.3-.89-.83-.09-.96,.42-1.72,1.36-2.02,.32-.1,.65-.17,.98-.26,.08-.02,.16-.04,.23-.08,.3-.13,.49-.44,.41-.76-.03-.13-.18-.27-.3-.32-.32-.11-.68,.04-.78,.36-.11,.39-.34,.43-.67,.39-.18-.02-.36,0-.55,0Zm2.06,.98c-.26,.09-.42,.14-.58,.2-.17,.06-.36,.11-.51,.2-.3,.18-.5,.67-.39,.97,.05,.13,.19,.27,.32,.3,.31,.07,.77-.21,.89-.55,.12-.35,.18-.71,.28-1.13Z"/>
          <path class="cls-1" d="M422.87,396.13h-1.1c-.03-.14-.06-.28-.09-.46-.38,.46-.85,.63-1.4,.61-.54-.02-.86-.34-.89-.88-.05-.98,.44-1.68,1.38-1.97,.34-.11,.7-.17,1.04-.29,.17-.06,.34-.16,.45-.3,.21-.27,.17-.65-.04-.79-.24-.16-.77-.08-.86,.21-.24,.76-.81,.42-1.27,.5,.02-.69,.46-1.33,1.15-1.48,.52-.11,1.09-.12,1.62-.05,.58,.07,.82,.45,.73,1.03-.13,.8-.32,1.6-.47,2.39-.09,.48-.16,.96-.25,1.48Zm-.74-2.4c-.4,.15-.75,.24-1.07,.4-.33,.17-.53,.7-.4,1.03,.04,.11,.2,.23,.32,.26,.34,.06,.76-.24,.9-.6,0-.02,.02-.04,.02-.07,.07-.33,.14-.65,.23-1.03Z"/>
          <path class="cls-1" d="M452.55,396.13h-1.09c-.02-.14-.04-.28-.07-.45-.08,.07-.15,.12-.21,.18-.4,.39-.9,.47-1.43,.39-.37-.06-.59-.32-.65-.69-.15-.92,.32-1.76,1.2-2.08,.33-.12,.67-.18,1.01-.28,.17-.05,.34-.1,.48-.19,.28-.18,.38-.69,.19-.9-.18-.2-.67-.18-.88,.08-.13,.16-.2,.36-.31,.55h-1.02c.04-.7,.49-1.32,1.19-1.47,.51-.11,1.07-.12,1.58-.04,.63,.09,.86,.52,.73,1.2-.13,.7-.29,1.39-.43,2.08-.1,.52-.19,1.05-.3,1.62Zm-.73-2.38c-.31,.1-.55,.17-.79,.25-.44,.15-.68,.45-.71,.92-.03,.4,.19,.58,.59,.47,.32-.09,.57-.27,.67-.59,.1-.33,.16-.67,.25-1.05Z"/>
          <path class="cls-1" d="M386.53,392.74h-1.02c.05-.71,.49-1.32,1.19-1.47,.51-.11,1.07-.12,1.58-.04,.64,.09,.86,.52,.72,1.23-.13,.7-.3,1.39-.44,2.08-.1,.51-.19,1.02-.29,1.6-.28,0-.62,.03-.96-.02-.09-.01-.16-.25-.26-.42-.3,.4-.76,.58-1.3,.57-.61-.01-.93-.32-.95-.92-.03-.98,.44-1.65,1.38-1.93,.31-.09,.63-.16,.94-.25,.13-.04,.27-.08,.38-.16,.28-.18,.38-.69,.19-.9-.18-.2-.67-.18-.88,.08-.13,.16-.21,.36-.31,.55Zm1.03,1.01c-.31,.1-.54,.16-.77,.24-.46,.15-.71,.47-.74,.94-.03,.38,.19,.57,.56,.48,.32-.08,.58-.25,.69-.58,.11-.34,.17-.69,.26-1.08Z"/>
          <path class="cls-1" d="M401.86,392.76c.11-.85,.61-1.44,1.42-1.55,.48-.07,1-.03,1.48,.05,.46,.08,.69,.4,.63,.86-.09,.7-.25,1.39-.38,2.09-.12,.63-.24,1.25-.37,1.93-.26,0-.6,.03-.93-.02-.11-.02-.19-.24-.29-.4-.31,.4-.78,.57-1.34,.55-.55-.02-.86-.32-.89-.87-.06-1,.43-1.7,1.39-1.99,.31-.09,.63-.17,.94-.25,.08-.02,.16-.05,.23-.08,.33-.13,.45-.42,.41-.73-.02-.13-.2-.31-.34-.35-.32-.09-.65,.04-.74,.36-.11,.39-.35,.42-.67,.39-.18-.02-.36,0-.55,0Zm2.06,.97c-.4,.15-.75,.24-1.06,.39-.33,.17-.54,.69-.42,1.02,.05,.12,.21,.26,.33,.28,.34,.06,.76-.23,.88-.6,.11-.34,.17-.69,.26-1.09Z"/>
          <path class="cls-1" d="M411.96,396.28c-.96,0-1.48-.49-1.35-1.55,.09-.76,.27-1.54,.55-2.25,.5-1.25,1.63-1.5,2.75-1.26,.45,.1,.75,.41,.79,.87,.12,1.24-.13,2.41-.86,3.44-.42,.59-1.06,.76-1.87,.75Zm-.2-1.56c.07,.3,.06,.61,.42,.7,.35,.09,.6-.09,.74-.39,.39-.79,.57-1.65,.57-2.53,0-.16-.14-.44-.27-.46-.19-.04-.45,.04-.64,.14-.12,.07-.22,.25-.26,.4-.2,.71-.38,1.43-.56,2.15Z"/>
          <path class="cls-1" d="M375.17,393.9h-2.57c-.03,.36-.1,.7-.09,1.04,0,.16,.16,.41,.29,.45,.16,.05,.39-.06,.57-.14,.09-.04,.18-.17,.21-.27,.11-.45,.43-.51,.82-.46,.15,.02,.3,0,.45,0-.04,.92-.86,1.68-1.86,1.75-.06,0-.12,0-.17,0-1.14,.01-1.65-.46-1.53-1.59,.08-.75,.26-1.52,.54-2.22,.42-1.08,1.52-1.55,2.64-1.27,.5,.12,.82,.46,.83,1.03,.01,.55-.08,1.1-.13,1.67Zm-2.37-.75c.32,0,.61-.02,.9,0,.34,.03,.47-.1,.45-.42,0-.07,.02-.15,0-.21-.07-.17-.11-.44-.24-.48-.18-.06-.45-.02-.61,.08-.34,.22-.44,.6-.5,1.02Z"/>
          <path class="cls-1" d="M497.15,393.89h-2.59c-.04,.35-.12,.68-.1,1.01,0,.17,.16,.44,.3,.48,.17,.05,.41-.07,.6-.15,.09-.04,.18-.17,.2-.27,.1-.42,.39-.49,.76-.44,.16,.02,.32,0,.49,0-.02,.89-.85,1.67-1.83,1.75-.16,.01-.33,.01-.49,0-.86-.06-1.27-.5-1.25-1.35,.02-.84,.19-1.67,.54-2.44,.47-1.06,1.52-1.56,2.65-1.28,.45,.11,.78,.39,.8,.85,.03,.61-.04,1.21-.07,1.84Zm-1.11-.76c.02-.2,.08-.39,.06-.57-.03-.19-.11-.48-.23-.51-.2-.05-.49,0-.66,.12-.31,.21-.4,.57-.44,.96h1.28Z"/>
          <path class="cls-1" d="M475.37,394.56c0,.09,0,.14-.01,.18-.04,.24-.04,.53,.21,.6,.23,.07,.55,.06,.75-.05,.17-.1,.28-.38,.32-.6,.02-.11-.16-.3-.3-.37-.29-.15-.6-.25-.9-.37-.65-.28-.86-.72-.69-1.41,.16-.64,.56-1.08,1.19-1.25,.37-.1,.78-.15,1.17-.12,.99,.08,1.29,.52,1.07,1.53h-1.07s-.01-.09-.01-.13c0-.44-.11-.58-.46-.57-.39,0-.74,.3-.68,.63,.03,.16,.19,.35,.34,.43,.28,.15,.61,.23,.91,.36,.61,.26,.78,.58,.68,1.24-.12,.75-.55,1.25-1.26,1.49-.59,.2-1.19,.22-1.78,.02-.56-.19-.85-.96-.56-1.48,.03-.06,.12-.1,.19-.11,.29-.01,.58,0,.91,0Z"/>
          <path class="cls-1" d="M465.04,392.7h-1.09c0-.05-.02-.1-.02-.14,0-.45-.11-.58-.46-.57-.39,0-.74,.3-.68,.63,.03,.16,.19,.35,.34,.43,.29,.16,.63,.24,.94,.37,.57,.24,.74,.58,.64,1.19-.13,.81-.59,1.32-1.37,1.55-.57,.17-1.15,.18-1.72-.03-.53-.19-.81-1.01-.51-1.47,.03-.05,.13-.09,.2-.1,.29-.01,.58,0,.89,0,0,.07,0,.12,0,.16-.05,.47,.1,.69,.49,.72,.43,.03,.83-.3,.8-.69-.01-.15-.16-.34-.29-.42-.28-.16-.6-.25-.9-.38-.66-.28-.88-.73-.69-1.43,.27-.99,1.21-1.51,2.44-1.35,.68,.09,1.02,.38,1.05,.91,.01,.2-.04,.41-.06,.63Z"/>
          <path class="cls-1" d="M384.75,392.99h-1.14c0-.15,0-.28,0-.42,0-.49-.36-.7-.77-.44-.17,.1-.34,.29-.38,.47-.19,.74-.35,1.49-.49,2.24-.04,.23,0,.48,.29,.57,.29,.09,.54-.02,.7-.26,.12-.19,.18-.43,.29-.63,.05-.09,.15-.21,.24-.22,.31-.03,.62-.01,.94-.01,0,1.04-.86,1.89-1.95,1.98-.01,0-.02,0-.03,0-1.32,.09-1.9-.5-1.67-1.8,.12-.72,.31-1.46,.61-2.13,.4-.91,1.28-1.31,2.25-1.19,.87,.11,1.29,.65,1.18,1.52-.01,.1-.03,.2-.05,.32Z"/>
          <path class="cls-1" d="M435.39,391.25h.72c-.05,.25-.07,.48-.15,.69-.03,.08-.2,.16-.28,.15-.4-.06-.51,.13-.57,.49-.11,.68-.28,1.34-.42,2.01-.14,.63-.09,.69,.56,.73-.04,.22-.07,.45-.14,.66-.02,.07-.14,.17-.21,.17-.35,.02-.7,.05-1.04,.02-.46-.05-.64-.28-.55-.75,.14-.81,.32-1.62,.48-2.43,.06-.28,.12-.56,.18-.88-.21-.01-.4-.02-.58-.03,.02-.73,.04-.76,.77-.87,.1-.44,.2-.89,.3-1.35h1.23c-.09,.45-.18,.89-.28,1.38Z"/>
          <path class="cls-1" d="M493.19,389.86c-.1,.49-.19,.92-.28,1.4h.71c-.05,.26-.07,.5-.16,.7-.04,.09-.24,.15-.36,.14-.28-.02-.41,.07-.46,.36-.13,.72-.3,1.43-.45,2.15-.13,.64-.12,.66,.56,.73-.05,.22-.08,.45-.15,.67-.02,.07-.12,.15-.18,.15-.38,.01-.77,.03-1.15,0-.34-.03-.53-.26-.48-.6,.11-.69,.25-1.37,.38-2.05,.09-.44,.19-.88,.29-1.37-.21-.02-.39-.03-.62-.05,.06-.28,.11-.53,.16-.77,.04-.02,.06-.04,.08-.04q.58-.04,.7-.62,.16-.79,.97-.79c.13,0,.25,0,.44,0Z"/>
          <path class="cls-1" d="M479.33,392.12c-.23-.01-.41-.03-.6-.04q.07-.78,.78-.85c.1-.44,.2-.89,.3-1.35h1.23c-.09,.45-.18,.89-.27,1.37h.7c-.03,.16-.05,.28-.06,.41-.03,.35-.17,.53-.55,.45-.22-.05-.3,.08-.34,.28-.15,.73-.3,1.46-.46,2.18-.14,.66-.12,.69,.56,.77-.05,.23-.07,.45-.14,.67-.02,.07-.14,.15-.23,.16-.31,.03-.63,.05-.94,.03-.53-.04-.73-.29-.64-.82,.12-.7,.28-1.39,.42-2.09,.08-.37,.16-.75,.25-1.16Z"/>
          <path class="cls-1" d="M408.35,389.88c-.09,.46-.18,.89-.28,1.37h.72c-.06,.27-.08,.5-.16,.71-.03,.07-.2,.15-.29,.14-.38-.06-.5,.12-.56,.47-.12,.67-.28,1.34-.42,2.01-.14,.68-.13,.69,.56,.76-.05,.22-.08,.45-.15,.67-.02,.07-.12,.15-.18,.15-.38,.01-.77,.03-1.15,0-.35-.03-.53-.26-.48-.6,.11-.7,.25-1.39,.39-2.09,.08-.43,.18-.86,.28-1.34-.21-.02-.39-.03-.62-.05,.06-.28,.11-.53,.16-.78,.04-.02,.06-.03,.08-.04q.57-.03,.69-.59c.05-.26,.11-.52,.17-.8h1.23Z"/>
          <path class="cls-1" d="M485.5,395.34c-.04,.22-.07,.43-.14,.64-.02,.07-.13,.16-.21,.17-.3,.03-.6,.05-.91,.04-.59-.03-.8-.29-.69-.87,.12-.7,.28-1.39,.43-2.08,.07-.36,.15-.72,.23-1.12-.22-.01-.4-.02-.62-.03,.06-.28,.11-.53,.16-.78,.04-.02,.06-.04,.08-.04q.57-.04,.7-.62c.05-.24,.11-.48,.16-.71,0-.02,.03-.04,.05-.07h1.19c-.09,.46-.18,.9-.27,1.39h.7c-.05,.25-.05,.48-.14,.67-.04,.09-.23,.18-.35,.17-.32-.03-.44,.09-.5,.41-.13,.74-.31,1.48-.46,2.22-.1,.51-.06,.56,.46,.59,.03,0,.06,.02,.13,.04Z"/>
          <path class="cls-1" d="M467.34,396.15c.46-2.18,.92-4.31,1.38-6.47h1.29c-.14,.66-.27,1.31-.41,1.97-.3,1.4-.61,2.79-.89,4.19-.05,.25-.15,.32-.39,.31-.31-.02-.62,0-.98,0Z"/>
          <path class="cls-1" d="M425.14,389.67h1.24c-.14,.66-.28,1.3-.41,1.94-.3,1.42-.61,2.84-.9,4.26-.04,.22-.13,.29-.34,.28-.3-.02-.6,0-.96,0,.46-2.18,.92-4.32,1.38-6.48Z"/>
          <path class="cls-1" d="M454.45,391.27h1.17c-.03,.18-.05,.35-.09,.61,.43-.46,.84-.81,1.51-.72-.08,.4-.16,.78-.24,1.15-1.27,.13-1.35,.19-1.63,1.45-.16,.7-.31,1.41-.45,2.12-.04,.22-.14,.28-.35,.27-.3-.01-.6,0-.96,0,.35-1.64,.69-3.24,1.03-4.87Z"/>
          <path class="cls-1" d="M377.52,391.26c-.03,.2-.06,.37-.1,.64,.43-.46,.84-.82,1.51-.73-.09,.41-.16,.78-.24,1.17-.13,0-.22,0-.31,0-.66,0-1.07,.32-1.22,.97-.19,.86-.38,1.73-.55,2.59-.04,.2-.11,.27-.32,.26-.31-.02-.62,0-.98,0,.13-.6,.25-1.17,.37-1.73,.21-.97,.42-1.93,.61-2.9,.04-.2,.12-.27,.32-.26,.29,.01,.58,0,.9,0Z"/>
          <path class="cls-1" d="M380.67,391.26c-.35,1.64-.69,3.24-1.03,4.86h-1.24c.12-.56,.24-1.11,.35-1.67,.21-.96,.42-1.93,.61-2.9,.05-.26,.16-.32,.39-.3,.29,.02,.58,0,.92,0Z"/>
          <path class="cls-1" d="M481.98,391.27h1.24c-.35,1.63-.69,3.23-1.03,4.86h-1.24c.35-1.63,.69-3.24,1.03-4.86Z"/>
          <path class="cls-1" d="M410.53,391.26c-.13,.61-.25,1.18-.37,1.74-.21,.96-.42,1.93-.61,2.89-.04,.18-.1,.26-.29,.25-.32-.01-.65,0-1,0,.21-.98,.4-1.93,.6-2.87,.13-.59,.26-1.18,.38-1.77,.03-.18,.09-.26,.29-.25,.31,.01,.63,0,1.01,0Z"/>
          <path class="cls-1" d="M379.57,390.64c.07-.34,.11-.61,.19-.88,.02-.08,.15-.17,.23-.18,.32-.02,.65,0,1.03,0-.07,.34-.13,.65-.2,.96-.01,.04-.1,.1-.16,.1-.34,0-.69,0-1.09,0Z"/>
          <path class="cls-1" d="M409.43,390.64c.07-.34,.12-.64,.2-.92,.02-.06,.13-.13,.2-.13,.33-.01,.67,0,1.05,0-.07,.34-.13,.64-.2,.94-.01,.05-.09,.11-.15,.12-.35,.01-.71,0-1.11,0Z"/>
          <path class="cls-1" d="M482.12,390.6c.08-.35,.15-.67,.22-1h1.2s.02,.06,.02,.08c-.15,1.01-.33,1.13-1.44,.92Z"/>
        </g>
      </g>
      <g>
        <path class="cls-1" d="M410.11,104.63c7.06-11.17,3.27-21.35-2.02-31.43-5.49,10.19-9.04,20.47-2.1,31.4-4.52,1.33-15.29-3.46-20.38-10.18-6.99-9.22-7.56-21.73-3.09-28.87,1.37,2.01,2.7,3.93,4.02,5.86l.61-.21c.51-1.67,.71-3.53,1.59-4.97,1.82-3,3.73-6.03,6.1-8.6,4.31-4.67,6.54-9.92,6.03-16.3-.05-.6-.04-1.57,.29-1.75,.5-.27,1.36-.18,1.95,.06,8.66,3.58,15.04,9.72,19.71,17.74,.74,1.26,1.19,2.69,1.78,4.05,.3-.04,.61-.07,.91-.11,.14-1.26,.25-2.52,.45-3.76,.09-.52,.39-1,.59-1.5,.49,.22,1.12,.31,1.46,.67,8.63,9.31,10.84,20.01,5.91,31.7-3.4,8.06-9.67,13.36-18.23,15.67-1.66,.45-3.31,1.5-5.58,.54Z"/>
        <g>
          <path class="cls-1" d="M392.53,120.99c-.83,0-1.47-.25-1.93-.74s-.68-1.19-.68-2.09h0c0-.41,.06-.84,.17-1.29s.27-.89,.48-1.31l2.04-4.04h1.42l-2.39,4.68v-.23c.23-.43,.63-.64,1.2-.64,.74,0,1.31,.24,1.71,.73s.61,1.18,.61,2.07h0c0,.91-.23,1.62-.68,2.12s-1.1,.75-1.94,.75Zm0-1.26c.42,0,.74-.13,.97-.39s.34-.63,.34-1.1h0c0-.53-.12-.94-.35-1.22s-.57-.43-1.01-.43c-.39,0-.69,.14-.91,.43s-.32,.69-.32,1.22h0c0,.48,.11,.85,.34,1.11s.55,.38,.96,.38Z"/>
          <path class="cls-1" d="M400.34,120.99c-.89,0-1.56-.24-2.01-.72s-.67-1.13-.67-1.95v-4.26c0-.83,.23-1.48,.68-1.95s1.12-.71,2-.71,1.55,.24,2,.71,.67,1.12,.67,1.96v4.26c0,.83-.22,1.48-.67,1.95s-1.12,.71-2,.71Zm0-1.25c.48,0,.83-.13,1.04-.38s.32-.6,.32-1.04v-4.26c0-.44-.11-.79-.32-1.04s-.56-.37-1.04-.37-.83,.12-1.04,.37-.32,.6-.32,1.04v4.26c0,.44,.11,.78,.32,1.04s.56,.38,1.04,.38Z"/>
          <path class="cls-1" d="M406.89,120.89v-6.7h1.32v6.7h-1.32Zm4,0v-4.06c0-.47-.12-.84-.35-1.1s-.56-.39-.99-.39-.76,.11-1,.34-.35,.55-.35,.96l-.14-1.29c.21-.4,.48-.72,.81-.94s.7-.33,1.11-.33c.71,0,1.25,.24,1.64,.71s.58,1.15,.58,2.02v4.06h-1.32Zm4,0v-4.06c0-.47-.12-.84-.36-1.1s-.59-.39-1.04-.39c-.41,0-.72,.12-.95,.37s-.34,.6-.34,1.06l-.26-1.29c.22-.45,.49-.79,.84-1.03s.72-.36,1.14-.36c.73,0,1.29,.24,1.69,.71s.6,1.15,.6,2.02v4.06h-1.32Z"/>
          <path class="cls-1" d="M417.88,112.83v-1.32h1.32v1.32h-1.32Zm0,8.06v-6.7h1.32v6.7h-1.32Z"/>
          <path class="cls-1" d="M420.87,120.89v-6.7h1.32v6.7h-1.32Zm4.06,0v-4.06c0-.47-.12-.84-.36-1.1s-.59-.39-1.04-.39-.76,.11-1,.34-.35,.55-.35,.96l-.14-1.29c.21-.4,.48-.72,.81-.94s.7-.33,1.11-.33c.73,0,1.29,.24,1.69,.71s.6,1.15,.6,2.02v4.06h-1.32Z"/>
        </g>
      </g>
      <line class="cls-2" x1="263.44" x2="263.44" y2="526.89"/>
      <line class="cls-2" y1="263.44" x2="526.89" y2="263.44"/>
      <g>
        <path class="cls-1" d="M383.94,169.15l-.46,1.74c-1.15,.03-2.23,.04-3.24,.04-3.77,0-6.25-.13-7.44-.39s-2.22-.82-3.1-1.67c-.64,.94-1.3,1.76-1.96,2.48l-1.4-1.08c1.78-1.78,2.88-3.67,3.32-5.69h-2.84v-1.71c1.11-1.32,1.95-2.42,2.54-3.29h-2.92v-1.71h5.06v1.71c-.63,.98-1.42,2.08-2.37,3.29h2.42v1.71c-.23,1-.58,1.93-1.04,2.81,.48,.55,1.11,.98,1.88,1.29s1.75,.49,2.92,.52,2.4,.05,3.68,.05c1.86,0,3.51-.03,4.95-.09Zm-12.66-12.99l-1.26,1.16c-1.05-1.06-2.08-1.91-3.11-2.56l1.18-1.24c1.33,.88,2.39,1.76,3.18,2.64Zm12.06,10.53c0,.55-.2,.96-.59,1.24s-1.18,.39-2.35,.34l-.52-1.63c.33,.01,.63,.02,.92,.02,.53,0,.8-.15,.8-.45v-.86h-2.74v2.86h-1.72v-2.86h-2.74v2.9h-1.72v-10.25h3.93c-.68-.34-1.53-.69-2.54-1.04l1.34-1.02c.84,.3,1.56,.59,2.16,.88,.81-.37,1.57-.76,2.28-1.18h-7.43v-1.62h10.52v1.62c-1.33,.85-2.54,1.57-3.64,2.16l.26,.21h3.8v8.7Zm-6.2-5.72v-1.48h-2.74v1.48h2.74Zm0,2.9v-1.45h-2.74v1.45h2.74Zm4.46-2.9v-1.48h-2.74v1.48h2.74Zm0,2.9v-1.45h-2.74v1.45h2.74Z"/>
        <path class="cls-1" d="M405.98,169.31l-.56,1.66c-1.54,.04-2.99,.06-4.34,.06-3.09,0-5.24-.13-6.46-.4s-2.29-.77-3.21-1.53c-.64,.95-1.22,1.71-1.74,2.29l-1.4-1.1c1.78-1.94,2.88-3.84,3.3-5.71h-3v-1.66c1.07-1.11,1.96-2.26,2.68-3.45h-2.88v-1.62h4.92v1.58c-.54,1.04-1.35,2.21-2.44,3.51h2.48v1.64c-.26,1.2-.63,2.26-1.12,3.17,.62,.5,1.33,.87,2.12,1.11s1.53,.4,2.21,.45,2.1,.08,4.25,.08c1.67,0,3.39-.03,5.18-.08Zm-12.71-13.22l-1.26,1.24c-.98-1.06-2.06-1.91-3.22-2.56l1.34-1.24c1.04,.63,2.09,1.48,3.14,2.56Zm12.12,11.12c0,.32-.14,.65-.41,1.01s-1.06,.53-2.35,.53c-.23,0-.45,0-.67,0l-.57-1.6,1.88-.02c.31,0,.46-.15,.46-.46v-5.36h-7.66v7.41h-1.71v-8.92h1.04v-5.72h8.84v5.72h1.14v7.42Zm-2.84-10.3v-1.28h-5.42v4.16h1.72v-2.88h3.7Zm.04,9.62h-5.44v-4.28h5.44v4.28Zm-1.62-1.42v-1.46h-2.22v1.46h2.22Zm1.58-5.32v-1.44h-1.98v1.44h1.98Z"/>
        <path class="cls-1" d="M428.05,160.97l-1.54,1.24c-.38-.61-.79-1.19-1.24-1.76-5.14,.61-9.91,.97-14.3,1.09l-.42-1.68c1.91-.62,3.99-2.72,6.23-6.32l2.02,.4c-1.33,2.15-2.91,4.06-4.74,5.74,2.61-.1,5.91-.36,9.88-.78-.83-.91-1.83-1.85-3.01-2.8l1.54-1.18c2.39,2.07,4.25,4.08,5.57,6.04Zm-1.77,10.2h-1.82v-.9h-10.52v.9h-1.83v-8.27h14.16v8.27Zm-1.82-2.64v-3.9h-10.52v3.9h10.52Z"/>
        <path class="cls-1" d="M435.97,164.8c-.71,2.54-1.46,4.73-2.27,6.58l-1.49-1.16c.85-1.91,1.57-4.03,2.16-6.38l1.6,.96Zm-.21-3.54l-1.26,1.32c-.91-1.17-1.65-1.99-2.24-2.46l1.18-1.3c.85,.7,1.62,1.52,2.31,2.44Zm.34-5.13l-1.26,1.22c-.68-.89-1.45-1.71-2.32-2.44l1.26-1.24c.96,.79,1.74,1.61,2.32,2.46Zm1.2,4.84c-.2,.89-.45,1.69-.76,2.38l-1.07-.28c.43-1.06,.69-1.85,.79-2.36l1.04,.26Zm3.32-.84l-1.03,.38c-.01-.14-.05-.29-.12-.44-.7,.06-1.75,.19-3.13,.4l-.36-1.12c.59-.43,1.21-1,1.86-1.72-.78,.08-1.21,.12-1.3,.12l-.4-1.09c.83-.74,1.59-1.76,2.29-3.07l1.15,.44c-.66,1.06-1.28,1.9-1.88,2.52,.36,.02,.72-.01,1.07-.1l.64-1.02,1.1,.58c-.85,1.26-1.75,2.31-2.71,3.14,.43-.02,.86-.08,1.3-.17-.08-.27-.14-.47-.18-.58l.96-.34c.38,.98,.62,1.66,.72,2.06Zm8.6,7.82c-.05,1.29-.25,2.16-.62,2.61s-.9,.67-1.59,.67h-4.64l-.44-1.28h4.82c.28,0,.46-.27,.54-.8h-11l1.09-3.34h9.37v-.84h-10.32v-1.18h12.06v3.24h-9.64l-.34,.92h10.7Zm-10.4-4.77l-1.08,.22c0-.77-.08-1.56-.22-2.36l.99-.2c.16,.59,.27,1.36,.32,2.33Zm1.7-.44l-1.04,.28c-.07-.72-.2-1.41-.4-2.08l.99-.26c.2,.76,.35,1.45,.46,2.06Zm4.78-6.88h-4.74v-1.12h1.53c-.05-.23-.16-.51-.33-.84l1.38-.36c.18,.29,.35,.69,.52,1.2h1.64v1.12Zm-.6,1.74h-3.8v-1.04h3.8v1.04Zm0,1.7h-3.8v-1.02h3.8v1.02Zm-.04,3.74h-3.76v-3.08h3.76v3.08Zm-1.28-1.04v-1h-1.22v1h1.22Zm3.04-.82c-.1,.95-.24,1.73-.42,2.32l-1.06-.34c.23-.62,.39-1.36,.48-2.2l1.01,.21Zm3.36-.96l-1.08,.38-.14-.5c-1.11,.17-2.18,.3-3.22,.4l-.27-1.08c.69-.48,1.35-1.08,1.97-1.82l-1.57,.1-.36-1.07c.81-.63,1.6-1.63,2.35-3.01l1.18,.55c-.66,.94-1.3,1.72-1.89,2.33,.5,0,.89-.03,1.17-.1,.19-.2,.42-.56,.7-1.06l1.1,.53c-.81,1.3-1.78,2.43-2.9,3.38,.28-.01,.72-.08,1.32-.19-.01-.08-.09-.25-.22-.52l1.04-.42c.42,.85,.69,1.55,.82,2.1Zm-1.74,3.04l-1.1,.24c.05-.44-.03-1.21-.21-2.32l1.02-.14c.15,.58,.25,1.32,.3,2.22Zm1.82-.2l-1.1,.32c-.2-1-.37-1.75-.54-2.25l1.08-.27c.27,.8,.46,1.53,.56,2.2Z"/>
        <path class="cls-1" d="M353.58,193.57c-1.12,.57-2.53,.85-4.23,.85-2.19,0-3.94-.69-5.26-2.07s-1.98-3.2-1.98-5.45,.73-4.3,2.19-5.83,3.34-2.29,5.65-2.29c1.45,0,2.66,.2,3.62,.61v2.37c-1.07-.6-2.25-.9-3.54-.9-1.65,0-2.97,.54-3.96,1.63s-1.49,2.5-1.49,4.25,.47,3.03,1.4,4.06,2.19,1.55,3.75,1.55c1.46,0,2.74-.33,3.85-1.01v2.22Z"/>
        <path class="cls-1" d="M371.18,194.16h-2.62l-7.24-11.15c-.27-.41-.46-.76-.59-1.06h-.06c.06,.39,.09,1.13,.09,2.21v10.01h-2.28v-15.13h2.77l7.02,10.94c.33,.52,.55,.88,.66,1.08h.05c-.07-.47-.11-1.19-.11-2.17v-9.85h2.29v15.13Z"/>
        <path class="cls-1" d="M376.27,191.03c1.16,.94,2.52,1.42,4.09,1.42,2,0,3.01-.69,3.01-2.06,0-.4-.11-.75-.33-1.07s-.52-.6-.89-.83-1.12-.62-2.22-1.15c-1.36-.65-2.31-1.31-2.85-1.98s-.81-1.46-.81-2.36c0-1.3,.51-2.33,1.54-3.08s2.34-1.12,3.95-1.12c1.52,0,2.66,.19,3.44,.56v2.4c-.93-.64-2.09-.97-3.49-.97-.89,0-1.61,.18-2.16,.54s-.82,.85-.82,1.47c0,.57,.2,1.03,.6,1.4s1.25,.85,2.53,1.46c1.5,.7,2.54,1.41,3.12,2.11s.86,1.52,.86,2.44c0,1.37-.5,2.41-1.48,3.13s-2.36,1.08-4.11,1.08c-.64,0-1.36-.08-2.15-.23s-1.39-.36-1.82-.62v-2.53Z"/>
        <path class="cls-1" d="M398.89,181.25c-.77-.42-1.59-.62-2.48-.62-1.3,0-2.33,.55-3.08,1.66s-1.12,2.53-1.12,4.27h.05c.71-1.3,1.83-1.94,3.36-1.94,1.3,0,2.34,.43,3.11,1.29s1.15,1.99,1.15,3.38c0,1.47-.46,2.69-1.38,3.67s-2.1,1.46-3.54,1.46c-1.63,0-2.89-.62-3.76-1.85s-1.31-2.93-1.31-5.09c0-2.56,.57-4.65,1.7-6.26s2.71-2.43,4.73-2.43c1.09,0,1.95,.14,2.58,.43v2.04Zm-6.57,7.95c0,.94,.25,1.74,.74,2.4s1.14,.98,1.93,.98,1.41-.3,1.88-.89,.7-1.33,.7-2.2c0-.98-.22-1.74-.66-2.27s-1.09-.8-1.93-.8c-.75,0-1.39,.27-1.89,.8s-.76,1.19-.76,1.97Z"/>
        <path class="cls-1" d="M403.53,186.89c0-2.66,.45-4.67,1.36-6.04s2.22-2.06,3.95-2.06c3.29,0,4.93,2.58,4.93,7.74,0,2.53-.45,4.47-1.35,5.84s-2.2,2.05-3.91,2.05-2.89-.64-3.73-1.93-1.26-3.15-1.26-5.6Zm2.33-.09c0,3.85,.93,5.78,2.8,5.78s2.76-1.97,2.76-5.9-.9-6.05-2.71-6.05c-1.91,0-2.86,2.06-2.86,6.17Z"/>
        <path class="cls-1" d="M430.76,194.16h-2.58l-1.42-3.94h-6.05l-1.35,3.94h-2.58l5.7-15.13h2.61l5.66,15.13Zm-4.65-5.88l-2.11-5.97c-.08-.21-.16-.6-.23-1.14h-.07c-.06,.45-.14,.82-.24,1.12l-2.1,5.99h4.76Z"/>
        <path class="cls-1" d="M439.46,183.92c1.29,1.46,1.93,2.92,1.93,4.38,0,1.81-.93,2.71-2.8,2.71-.36,0-.71-.03-1.04-.08l-.54-1.7c.39,.04,.82,.06,1.29,.06,.63,0,1.01-.06,1.14-.19s.2-.38,.2-.77c0-1.41-.74-2.77-2.23-4.08,.59-1.3,1.15-2.79,1.68-4.48h-2.48v15.36h-1.76v-17.08h6.02v1.72c-.34,1.27-.81,2.65-1.42,4.14Zm12.29-1.88h-6.14l-.08,2.6h5.4c.04,1.64,0,3.52-.13,5.64s-.3,3.35-.53,3.71-.49,.63-.8,.83-1.07,.3-2.28,.3c-.34,0-.73,0-1.18-.02l-.71-1.8c.68,.03,1.28,.04,1.81,.04,.75,0,1.2-.04,1.32-.11s.23-.19,.31-.36,.16-.92,.26-2.25,.15-2.76,.16-4.29h-3.7c-.31,3.73-1.83,6.71-4.56,8.95l-1.28-1.22c.96-.81,1.78-1.77,2.48-2.86s1.16-2.28,1.4-3.56,.33-3.15,.28-5.61h-2.58v-1.68h4.32c-.24-.64-.65-1.36-1.22-2.16l1.76-.64c.64,1.06,1.11,2,1.41,2.8h4.3v1.68Z"/>
        <path class="cls-1" d="M473.96,193.75l-1.03,1.58c-4.52-2.44-7.15-5.62-7.86-9.52-.57,3.95-3.16,7.09-7.77,9.44l-1.18-1.48c2.83-1.43,4.87-3.14,6.12-5.12s1.88-4.71,1.88-8.2v-2.76h1.88v3.01c0,1.09,.04,1.95,.11,2.58s.26,1.43,.56,2.4c1.99-1.78,3.61-3.59,4.86-5.42l1.42,1.13c-1.15,1.8-3.02,3.81-5.62,6.03,1.18,2.53,3.4,4.65,6.64,6.34Zm-11.39-7.54l-1.51,1.07c-1.05-2.06-2.42-4.07-4.1-6.02l1.51-1.04c1.76,2.08,3.13,4.08,4.1,5.98Z"/>
        <path class="cls-1" d="M394.55,205.11h-6.2v-1.58h2.42c-.14-.5-.35-.98-.64-1.43l1.7-.54c.31,.63,.57,1.29,.78,1.96h1.94v1.58Zm-.32,3h-5.36v-1.6h5.36v1.6Zm0,2.94h-5.36v-1.62h5.36v1.62Zm.04,7.84h-1.7v-.88h-2v1.22h-1.66v-6.87h5.36v6.52Zm-1.7-2.5v-2.42h-2v2.42h2Zm4.54-3.76c-.22,2.12-.58,3.96-1.08,5.52l-1.46-.9c.43-1.48,.74-3.14,.92-4.98l1.62,.36Zm8.1-10.44c-.01,1.43-.06,2.82-.13,4.18s-.15,2.18-.22,2.46-.21,.53-.4,.77-.44,.42-.75,.54-.85,.18-1.62,.18c-.27,0-.55,0-.85-.03l-.68-1.62,1.98-.02c.33,0,.55-.18,.66-.55s.2-1.78,.23-4.22h-2.02c-.32,3.65-2.2,6.08-5.65,7.29l-1.04-1.42c1.3-.43,2.41-1.08,3.32-1.94-.62-.66-1.38-1.31-2.29-1.94l1.11-1.23c.74,.52,1.45,1.13,2.13,1.82,.36-.76,.59-1.62,.69-2.58h-4.41v-1.68h9.95Zm-1.84,13.02c0,.86-.08,1.58-.25,2.18s-.44,1.01-.82,1.25-1.03,.37-1.94,.37c-.8,0-1.34-.04-1.61-.13s-.5-.26-.68-.51-.27-.56-.27-.9v-5.06h1.7v4.54c0,.12,.05,.22,.15,.29s.39,.11,.85,.11c.39,0,.65-.05,.78-.14s.23-.36,.32-.8,.13-1,.13-1.66l1.64,.46Zm-1.1-2.42l-1.26,1.03c-.81-1-1.68-1.85-2.62-2.53l1.2-1.11c1,.74,1.89,1.61,2.68,2.62Zm3.79,4.06l-1.58,.72c-.39-1.65-.92-3.29-1.58-4.92l1.5-.74c.66,1.45,1.22,3.1,1.66,4.94Z"/>
        <path class="cls-1" d="M416.68,205.07h-6.16v-1.64h2.4c-.1-.21-.36-.71-.78-1.48l1.87-.52c.23,.46,.54,1.12,.94,2h1.74v1.64Zm-.54,13.69h-1.72v-.86h-1.76v1.28h-1.73v-6.91h5.21v6.49Zm.02-10.75h-5.18v-1.66h5.18v1.66Zm.02,2.9h-5.2v-1.66h5.2v1.66Zm-1.76,5.35v-2.35h-1.76v2.35h1.76Zm13.74-7.73l-.94,1.36c-.65-.39-1.43-1.08-2.34-2.08v1.08h-5.38v-1.03c-.64,.77-1.3,1.42-1.96,1.96l-1.07-1.32c.74-.57,1.38-1.19,1.91-1.85-.47-.51-.97-.93-1.51-1.28l1.15-1.07c.34,.2,.76,.52,1.26,.98,.3-.45,.57-1.03,.82-1.74h-2.73v-1.5h4.39v1.58c-.55,1.5-1.16,2.72-1.84,3.66h4.58c-1.15-1.56-1.89-3.34-2.22-5.36l1.53-.26c.03,.25,.11,.6,.24,1.04,.49-.34,.88-.66,1.16-.94l1.07,1.07c-.56,.52-1.14,.96-1.74,1.32,.08,.19,.18,.42,.3,.7,.52-.21,1.17-.68,1.96-1.42l1.11,1.15c-.56,.57-1.3,1.11-2.22,1.62,.49,.7,1.3,1.46,2.44,2.3Zm-.48,10.42h-10.91v-1.62h2.74c-.19-.7-.44-1.33-.74-1.88l1.28-.73h-2.04v-4.71h8.32v4.71h-2.26l1.4,.78c-.21,.68-.43,1.29-.63,1.84h2.84v1.62Zm-3.05-5.78v-1.62h-4.89v1.62h4.89Zm-.84,1.54h-3.38c.34,.78,.65,1.65,.94,2.62h1.56c.4-.91,.69-1.78,.88-2.62Z"/>
      </g>
      <g>
        <path class="cls-1" d="M355.61,452.18l-.46,1.74c-1.15,.03-2.23,.04-3.24,.04-3.77,0-6.25-.13-7.44-.39s-2.22-.82-3.1-1.67c-.64,.94-1.3,1.76-1.96,2.48l-1.4-1.08c1.78-1.78,2.88-3.67,3.32-5.69h-2.84v-1.71c1.11-1.32,1.95-2.42,2.54-3.29h-2.92v-1.71h5.06v1.71c-.63,.98-1.42,2.08-2.37,3.29h2.42v1.71c-.23,1-.58,1.93-1.04,2.81,.48,.55,1.11,.98,1.88,1.29s1.75,.49,2.92,.52,2.4,.05,3.68,.05c1.86,0,3.51-.03,4.95-.09Zm-12.66-12.99l-1.26,1.16c-1.05-1.06-2.08-1.91-3.11-2.56l1.18-1.24c1.33,.88,2.39,1.76,3.18,2.64Zm12.06,10.53c0,.55-.2,.96-.59,1.24s-1.18,.39-2.35,.34l-.52-1.63c.33,.01,.63,.02,.92,.02,.53,0,.8-.15,.8-.45v-.86h-2.74v2.86h-1.72v-2.86h-2.74v2.9h-1.72v-10.25h3.93c-.68-.34-1.53-.69-2.54-1.04l1.34-1.02c.84,.3,1.56,.59,2.16,.88,.81-.37,1.57-.76,2.28-1.18h-7.43v-1.62h10.52v1.62c-1.33,.85-2.54,1.57-3.64,2.16l.26,.21h3.8v8.7Zm-6.2-5.72v-1.48h-2.74v1.48h2.74Zm0,2.9v-1.45h-2.74v1.45h2.74Zm4.46-2.9v-1.48h-2.74v1.48h2.74Zm0,2.9v-1.45h-2.74v1.45h2.74Z"/>
        <path class="cls-1" d="M377.64,452.34l-.56,1.66c-1.54,.04-2.99,.06-4.34,.06-3.09,0-5.24-.13-6.46-.4s-2.29-.77-3.21-1.53c-.64,.95-1.22,1.71-1.74,2.29l-1.4-1.1c1.78-1.94,2.88-3.84,3.3-5.71h-3v-1.66c1.07-1.11,1.96-2.26,2.68-3.45h-2.88v-1.62h4.92v1.58c-.54,1.04-1.35,2.21-2.44,3.51h2.48v1.64c-.26,1.2-.63,2.26-1.12,3.17,.62,.5,1.33,.87,2.12,1.11s1.53,.4,2.21,.45,2.1,.08,4.25,.08c1.67,0,3.39-.03,5.18-.08Zm-12.71-13.22l-1.26,1.24c-.98-1.06-2.06-1.91-3.22-2.56l1.34-1.24c1.04,.63,2.09,1.48,3.14,2.56Zm12.12,11.12c0,.32-.14,.65-.41,1.01s-1.06,.53-2.35,.53c-.23,0-.45,0-.67,0l-.57-1.6,1.88-.02c.31,0,.46-.15,.46-.46v-5.36h-7.66v7.41h-1.71v-8.92h1.04v-5.72h8.84v5.72h1.14v7.42Zm-2.84-10.3v-1.28h-5.42v4.16h1.72v-2.88h3.7Zm.04,9.62h-5.44v-4.28h5.44v4.28Zm-1.62-1.42v-1.46h-2.22v1.46h2.22Zm1.58-5.32v-1.44h-1.98v1.44h1.98Z"/>
        <path class="cls-1" d="M399.13,449.28h-7.82c-1.15,2.68-3.93,4.38-8.34,5.1l-.86-1.72c3.88-.68,6.27-1.81,7.18-3.38h-6.7v-1.46h7.21c.09-.42,.14-.86,.14-1.32h1.8c-.02,.53-.05,.97-.08,1.32h7.48v1.46Zm.4-3.36h-17.36v-1.45h7.76v-1.28h-6.08v-1.42h6.08v-1.22h-6.94v-1.45h15.66v1.45h-6.9v1.22h6.06v1.42h-6.06v1.28h7.78v1.45Zm-10.38-7.48l-1.86,.5c-.44-.62-.92-1.2-1.46-1.74l1.78-.59c.57,.55,1.09,1.16,1.54,1.83Zm10.61,14.56l-1.1,1.4c-2.1-1.24-4.58-2.26-7.46-3.06l1.08-1.48c3.15,.96,5.64,2.01,7.48,3.14Zm-3.66-15.99c-.37,.59-.83,1.21-1.38,1.85l-1.96-.49c.63-.65,1.12-1.24,1.47-1.78l1.87,.42Z"/>
        <path class="cls-1" d="M420.82,454.21h-1.8v-.77h-12.44v.77h-1.76v-17.18h16v17.18Zm-1.8-2.33v-13.26h-12.44v13.26h12.44Zm-5.98-2.74c-1.87,.72-3.83,1.32-5.88,1.79l-.21-1.6c1.91-.36,3.92-.93,6.01-1.7l.08,1.51Zm5.73-.78c-.33,1.96-1.02,2.94-2.08,2.94-.66,0-1.25-.46-1.78-1.38-.61,.7-1.2,1.25-1.8,1.66l-1.16-1.14c.76-.59,1.52-1.34,2.27-2.24-.48-1.52-.82-3.58-1.01-6.18h-5.96v-1.42h5.86c-.01-.25-.02-.77-.02-1.54l1.64-.04c-.02,.54,0,1.07,.06,1.58h2.26c-.49-.3-1.06-.55-1.72-.74l.97-1c.65,.22,1.26,.5,1.84,.84l-.86,.9h1.1v1.42h-3.53c.09,1.75,.28,3.16,.58,4.24,.57-1.07,1.07-2.31,1.5-3.7l1.42,.66c-.62,2.16-1.4,3.9-2.33,5.22,.1,.34,.23,.61,.39,.81s.27,.3,.33,.3c.09,0,.21-.19,.36-.56s.27-.95,.37-1.73l1.3,1.09Zm-6.3-1.05h-4.78v-4.26h4.78v4.26Zm-1.64-1.43v-1.38h-1.51v1.38h1.51Z"/>
        <path class="cls-1" d="M438.91,453.2h-2.58l-1.42-3.94h-6.05l-1.35,3.94h-2.58l5.7-15.13h2.61l5.66,15.13Zm-4.65-5.88l-2.11-5.97c-.08-.21-.16-.6-.23-1.14h-.07c-.06,.45-.14,.82-.24,1.12l-2.1,5.99h4.76Z"/>
        <path class="cls-1" d="M455.7,453.2h-2.62l-7.24-11.15c-.27-.41-.46-.76-.59-1.06h-.06c.06,.39,.09,1.13,.09,2.21v10.01h-2.28v-15.13h2.77l7.02,10.94c.33,.52,.55,.88,.66,1.08h.05c-.07-.47-.11-1.19-.11-2.17v-9.85h2.29v15.13Z"/>
        <path class="cls-1" d="M460.79,450.06c1.16,.94,2.52,1.42,4.09,1.42,2,0,3.01-.69,3.01-2.06,0-.4-.11-.75-.33-1.07s-.52-.6-.89-.83-1.12-.62-2.22-1.15c-1.36-.65-2.31-1.31-2.85-1.98s-.81-1.46-.81-2.36c0-1.3,.51-2.33,1.54-3.08s2.34-1.12,3.95-1.12c1.52,0,2.66,.19,3.44,.56v2.4c-.93-.64-2.09-.97-3.49-.97-.89,0-1.61,.18-2.16,.54s-.82,.85-.82,1.47c0,.57,.2,1.03,.6,1.4s1.25,.85,2.53,1.46c1.5,.7,2.54,1.41,3.12,2.11s.86,1.52,.86,2.44c0,1.37-.5,2.41-1.48,3.13s-2.36,1.08-4.11,1.08c-.64,0-1.36-.08-2.15-.23s-1.39-.36-1.82-.62v-2.53Z"/>
        <path class="cls-1" d="M477.52,439.98h0v11.29h0v1.92h-2.34v-1.91h0v-11.29h0v-1.92h2.34v1.91Z"/>
        <path class="cls-1" d="M394.55,464.14h-6.2v-1.58h2.42c-.14-.5-.35-.98-.64-1.43l1.7-.54c.31,.63,.57,1.29,.78,1.96h1.94v1.58Zm-.32,3h-5.36v-1.6h5.36v1.6Zm0,2.94h-5.36v-1.62h5.36v1.62Zm.04,7.84h-1.7v-.88h-2v1.22h-1.66v-6.87h5.36v6.52Zm-1.7-2.5v-2.42h-2v2.42h2Zm4.54-3.76c-.22,2.12-.58,3.96-1.08,5.52l-1.46-.9c.43-1.48,.74-3.14,.92-4.98l1.62,.36Zm8.1-10.44c-.01,1.43-.06,2.82-.13,4.18s-.15,2.18-.22,2.46-.21,.53-.4,.77-.44,.42-.75,.54-.85,.18-1.62,.18c-.27,0-.55,0-.85-.03l-.68-1.62,1.98-.02c.33,0,.55-.18,.66-.55s.2-1.78,.23-4.22h-2.02c-.32,3.65-2.2,6.08-5.65,7.29l-1.04-1.42c1.3-.43,2.41-1.08,3.32-1.94-.62-.66-1.38-1.31-2.29-1.94l1.11-1.23c.74,.52,1.45,1.13,2.13,1.82,.36-.76,.59-1.62,.69-2.58h-4.41v-1.68h9.95Zm-1.84,13.02c0,.86-.08,1.58-.25,2.18s-.44,1.01-.82,1.25-1.03,.37-1.94,.37c-.8,0-1.34-.04-1.61-.13s-.5-.26-.68-.51-.27-.56-.27-.9v-5.06h1.7v4.54c0,.12,.05,.22,.15,.29s.39,.11,.85,.11c.39,0,.65-.05,.78-.14s.23-.36,.32-.8,.13-1,.13-1.66l1.64,.46Zm-1.1-2.42l-1.26,1.03c-.81-1-1.68-1.85-2.62-2.53l1.2-1.11c1,.74,1.89,1.61,2.68,2.62Zm3.79,4.06l-1.58,.72c-.39-1.65-.92-3.29-1.58-4.92l1.5-.74c.66,1.45,1.22,3.1,1.66,4.94Z"/>
        <path class="cls-1" d="M416.68,464.1h-6.16v-1.64h2.4c-.1-.21-.36-.71-.78-1.48l1.87-.52c.23,.46,.54,1.12,.94,2h1.74v1.64Zm-.54,13.69h-1.72v-.86h-1.76v1.28h-1.73v-6.91h5.21v6.49Zm.02-10.75h-5.18v-1.66h5.18v1.66Zm.02,2.9h-5.2v-1.66h5.2v1.66Zm-1.76,5.35v-2.35h-1.76v2.35h1.76Zm13.74-7.73l-.94,1.36c-.65-.39-1.43-1.08-2.34-2.08v1.08h-5.38v-1.03c-.64,.77-1.3,1.42-1.96,1.96l-1.07-1.32c.74-.57,1.38-1.19,1.91-1.85-.47-.51-.97-.93-1.51-1.28l1.15-1.07c.34,.2,.76,.52,1.26,.98,.3-.45,.57-1.03,.82-1.74h-2.73v-1.5h4.39v1.58c-.55,1.5-1.16,2.72-1.84,3.66h4.58c-1.15-1.56-1.89-3.34-2.22-5.36l1.53-.26c.03,.25,.11,.6,.24,1.04,.49-.34,.88-.66,1.16-.94l1.07,1.07c-.56,.52-1.14,.96-1.74,1.32,.08,.19,.18,.42,.3,.7,.52-.21,1.17-.68,1.96-1.42l1.11,1.15c-.56,.57-1.3,1.11-2.22,1.62,.49,.7,1.3,1.46,2.44,2.3Zm-.48,10.42h-10.91v-1.62h2.74c-.19-.7-.44-1.33-.74-1.88l1.28-.73h-2.04v-4.71h8.32v4.71h-2.26l1.4,.78c-.21,.68-.43,1.29-.63,1.84h2.84v1.62Zm-3.05-5.78v-1.62h-4.89v1.62h4.89Zm-.84,1.54h-3.38c.34,.78,.65,1.65,.94,2.62h1.56c.4-.91,.69-1.78,.88-2.62Z"/>
      </g>
      <g>
        <path class="cls-1" d="M84.85,451.02l-.46,1.74c-1.15,.03-2.23,.04-3.24,.04-3.77,0-6.25-.13-7.44-.39s-2.22-.82-3.1-1.67c-.64,.94-1.3,1.76-1.96,2.48l-1.4-1.08c1.78-1.78,2.88-3.67,3.32-5.69h-2.84v-1.71c1.11-1.32,1.95-2.42,2.54-3.29h-2.92v-1.71h5.06v1.71c-.63,.98-1.42,2.08-2.37,3.29h2.42v1.71c-.23,1-.58,1.93-1.04,2.81,.48,.55,1.11,.98,1.88,1.29s1.75,.49,2.92,.52,2.4,.05,3.68,.05c1.86,0,3.51-.03,4.95-.09Zm-12.66-12.99l-1.26,1.16c-1.05-1.06-2.08-1.91-3.11-2.56l1.18-1.24c1.33,.88,2.39,1.76,3.18,2.64Zm12.06,10.53c0,.55-.2,.96-.59,1.24s-1.18,.39-2.35,.34l-.52-1.63c.33,.01,.63,.02,.92,.02,.53,0,.8-.15,.8-.45v-.86h-2.74v2.86h-1.72v-2.86h-2.74v2.9h-1.72v-10.25h3.93c-.68-.34-1.53-.69-2.54-1.04l1.34-1.02c.84,.3,1.56,.59,2.16,.88,.81-.37,1.57-.76,2.28-1.18h-7.43v-1.62h10.52v1.62c-1.33,.85-2.54,1.57-3.64,2.16l.26,.21h3.8v8.7Zm-6.2-5.72v-1.48h-2.74v1.48h2.74Zm0,2.9v-1.45h-2.74v1.45h2.74Zm4.46-2.9v-1.48h-2.74v1.48h2.74Zm0,2.9v-1.45h-2.74v1.45h2.74Z"/>
        <path class="cls-1" d="M106.89,451.18l-.56,1.66c-1.54,.04-2.99,.06-4.34,.06-3.09,0-5.24-.13-6.46-.4s-2.29-.77-3.21-1.53c-.64,.95-1.22,1.71-1.74,2.29l-1.4-1.1c1.78-1.94,2.88-3.84,3.3-5.71h-3v-1.66c1.07-1.11,1.96-2.26,2.68-3.45h-2.88v-1.62h4.92v1.58c-.54,1.04-1.35,2.21-2.44,3.51h2.48v1.64c-.26,1.2-.63,2.26-1.12,3.17,.62,.5,1.33,.87,2.12,1.11s1.53,.4,2.21,.45,2.1,.08,4.25,.08c1.67,0,3.39-.03,5.18-.08Zm-12.71-13.22l-1.26,1.24c-.98-1.06-2.06-1.91-3.22-2.56l1.34-1.24c1.04,.63,2.09,1.48,3.14,2.56Zm12.12,11.12c0,.32-.14,.65-.41,1.01s-1.06,.53-2.35,.53c-.23,0-.45,0-.67,0l-.57-1.6,1.88-.02c.31,0,.46-.15,.46-.46v-5.36h-7.66v7.41h-1.71v-8.92h1.04v-5.72h8.84v5.72h1.14v7.42Zm-2.84-10.3v-1.28h-5.42v4.16h1.72v-2.88h3.7Zm.04,9.62h-5.44v-4.28h5.44v4.28Zm-1.62-1.42v-1.46h-2.22v1.46h2.22Zm1.58-5.32v-1.44h-1.98v1.44h1.98Z"/>
        <path class="cls-1" d="M128.37,448.12h-7.82c-1.15,2.68-3.93,4.38-8.34,5.1l-.86-1.72c3.88-.68,6.27-1.81,7.18-3.38h-6.7v-1.46h7.21c.09-.42,.14-.86,.14-1.32h1.8c-.02,.53-.05,.97-.08,1.32h7.48v1.46Zm.4-3.36h-17.36v-1.45h7.76v-1.28h-6.08v-1.42h6.08v-1.22h-6.94v-1.45h15.66v1.45h-6.9v1.22h6.06v1.42h-6.06v1.28h7.78v1.45Zm-10.38-7.48l-1.86,.5c-.44-.62-.92-1.2-1.46-1.74l1.78-.59c.57,.55,1.09,1.16,1.54,1.83Zm10.61,14.56l-1.1,1.4c-2.1-1.24-4.58-2.26-7.46-3.06l1.08-1.48c3.15,.96,5.64,2.01,7.48,3.14Zm-3.66-15.99c-.37,.59-.83,1.21-1.38,1.85l-1.96-.49c.63-.65,1.12-1.24,1.47-1.78l1.87,.42Z"/>
        <path class="cls-1" d="M150.07,453.05h-1.8v-.77h-12.44v.77h-1.76v-17.18h16v17.18Zm-1.8-2.33v-13.26h-12.44v13.26h12.44Zm-5.98-2.74c-1.87,.72-3.83,1.32-5.88,1.79l-.21-1.6c1.91-.36,3.92-.93,6.01-1.7l.08,1.51Zm5.73-.78c-.33,1.96-1.02,2.94-2.08,2.94-.66,0-1.25-.46-1.78-1.38-.61,.7-1.2,1.25-1.8,1.66l-1.16-1.14c.76-.59,1.52-1.34,2.27-2.24-.48-1.52-.82-3.58-1.01-6.18h-5.96v-1.42h5.86c-.01-.25-.02-.77-.02-1.54l1.64-.04c-.02,.54,0,1.07,.06,1.58h2.26c-.49-.3-1.06-.55-1.72-.74l.97-1c.65,.22,1.26,.5,1.84,.84l-.86,.9h1.1v1.42h-3.53c.09,1.75,.28,3.16,.58,4.24,.57-1.07,1.07-2.31,1.5-3.7l1.42,.66c-.62,2.16-1.4,3.9-2.33,5.22,.1,.34,.23,.61,.39,.81s.27,.3,.33,.3c.09,0,.21-.19,.36-.56s.27-.95,.37-1.73l1.3,1.09Zm-6.3-1.05h-4.78v-4.26h4.78v4.26Zm-1.64-1.43v-1.38h-1.51v1.38h1.51Z"/>
        <path class="cls-1" d="M167.4,445.77c0,4.35-1.99,6.52-5.97,6.52s-5.72-2.1-5.72-6.31v-9.07h2.34v9.01c0,2.87,1.18,4.31,3.55,4.31s3.45-1.39,3.45-4.16v-9.16h2.34v8.86Z"/>
        <path class="cls-1" d="M181.26,452.04h-8.25v-15.13h2.34v13.12h5.91v2.01Z"/>
        <path class="cls-1" d="M110.25,462.98h-6.2v-1.58h2.42c-.14-.5-.35-.98-.64-1.43l1.7-.54c.31,.63,.57,1.29,.78,1.96h1.94v1.58Zm-.32,3h-5.36v-1.6h5.36v1.6Zm0,2.94h-5.36v-1.62h5.36v1.62Zm.04,7.84h-1.7v-.88h-2v1.22h-1.66v-6.87h5.36v6.52Zm-1.7-2.5v-2.42h-2v2.42h2Zm4.54-3.76c-.22,2.12-.58,3.96-1.08,5.52l-1.46-.9c.43-1.48,.74-3.14,.92-4.98l1.62,.36Zm8.1-10.44c-.01,1.43-.06,2.82-.13,4.18s-.15,2.18-.22,2.46-.21,.53-.4,.77-.44,.42-.75,.54-.85,.18-1.62,.18c-.27,0-.55,0-.85-.03l-.68-1.62,1.98-.02c.33,0,.55-.18,.66-.55s.2-1.78,.23-4.22h-2.02c-.32,3.65-2.2,6.08-5.65,7.29l-1.04-1.42c1.3-.43,2.41-1.08,3.32-1.94-.62-.66-1.38-1.31-2.29-1.94l1.11-1.23c.74,.52,1.45,1.13,2.13,1.82,.36-.76,.59-1.62,.69-2.58h-4.41v-1.68h9.95Zm-1.84,13.02c0,.86-.08,1.58-.25,2.18s-.44,1.01-.82,1.25-1.03,.37-1.94,.37c-.8,0-1.34-.04-1.61-.13s-.5-.26-.68-.51-.27-.56-.27-.9v-5.06h1.7v4.54c0,.12,.05,.22,.15,.29s.39,.11,.85,.11c.39,0,.65-.05,.78-.14s.23-.36,.32-.8,.13-1,.13-1.66l1.64,.46Zm-1.1-2.42l-1.26,1.03c-.81-1-1.68-1.85-2.62-2.53l1.2-1.11c1,.74,1.89,1.61,2.68,2.62Zm3.79,4.06l-1.58,.72c-.39-1.65-.92-3.29-1.58-4.92l1.5-.74c.66,1.45,1.22,3.1,1.66,4.94Z"/>
        <path class="cls-1" d="M132.39,462.94h-6.16v-1.64h2.4c-.1-.21-.36-.71-.78-1.48l1.87-.52c.23,.46,.54,1.12,.94,2h1.74v1.64Zm-.54,13.69h-1.72v-.86h-1.76v1.28h-1.73v-6.91h5.21v6.49Zm.02-10.75h-5.18v-1.66h5.18v1.66Zm.02,2.9h-5.2v-1.66h5.2v1.66Zm-1.76,5.35v-2.35h-1.76v2.35h1.76Zm13.74-7.73l-.94,1.36c-.65-.39-1.43-1.08-2.34-2.08v1.08h-5.38v-1.03c-.64,.77-1.3,1.42-1.96,1.96l-1.07-1.32c.74-.57,1.38-1.19,1.91-1.85-.47-.51-.97-.93-1.51-1.28l1.15-1.07c.34,.2,.76,.52,1.26,.98,.3-.45,.57-1.03,.82-1.74h-2.73v-1.5h4.39v1.58c-.55,1.5-1.16,2.72-1.84,3.66h4.58c-1.15-1.56-1.89-3.34-2.22-5.36l1.53-.26c.03,.25,.11,.6,.24,1.04,.49-.34,.88-.66,1.16-.94l1.07,1.07c-.56,.52-1.14,.96-1.74,1.32,.08,.19,.18,.42,.3,.7,.52-.21,1.17-.68,1.96-1.42l1.11,1.15c-.56,.57-1.3,1.11-2.22,1.62,.49,.7,1.3,1.46,2.44,2.3Zm-.48,10.42h-10.91v-1.62h2.74c-.19-.7-.44-1.33-.74-1.88l1.28-.73h-2.04v-4.71h8.32v4.71h-2.26l1.4,.78c-.21,.68-.43,1.29-.63,1.84h2.84v1.62Zm-3.05-5.78v-1.62h-4.89v1.62h4.89Zm-.84,1.54h-3.38c.34,.78,.65,1.65,.94,2.62h1.56c.4-.91,.69-1.78,.88-2.62Z"/>
      </g>
      <g>
        <path class="cls-1" d="M65.71,159.9c-.47,.83-1.04,1.67-1.72,2.54v8.7h-1.72v-6.66c-.53,.57-1.17,1.21-1.92,1.9l-.69-1.78c1.91-1.8,3.36-3.55,4.34-5.24l1.72,.54Zm2.69-3.08h-5.3c-.62,.86-1.34,1.74-2.16,2.64l-1.22-1.24c1.6-1.69,2.73-3.25,3.38-4.68l1.68,.48c-.12,.33-.32,.73-.6,1.18h4.22v1.62Zm-1.62,1.9l-1.64,.67c-.39-.6-.82-1.18-1.28-1.74l1.7-.64c.44,.49,.85,1.06,1.22,1.71Zm10.54,4.49h-2.38v5.78c0,.64-.17,1.16-.5,1.53s-.81,.57-1.44,.57c-1.63,0-2.68,0-3.16-.02l-.48-1.7c.62,.01,1.74,.02,3.34,.02,.31,0,.46-.15,.46-.46v-5.72h-7.98v-1.74h7.98v-2.04h1.78v2.04h2.38v1.74Zm-6.42,3.8l-1.33,1.12c-.9-1.1-2.02-2.16-3.38-3.17l1.26-1.18c1.38,1.06,2.53,2.14,3.45,3.23Zm6.4-10.2h-6.28c-.48,.72-1.19,1.59-2.12,2.62l-1.36-1.04c1.45-1.54,2.61-3.16,3.48-4.84l1.66,.48c-.13,.32-.32,.71-.58,1.16h5.2v1.62Zm-2.36,1.82l-1.72,.59c-.37-.58-.79-1.11-1.26-1.6l1.68-.66c.46,.5,.9,1.06,1.3,1.68Z"/>
        <path class="cls-1" d="M99.65,159.25l-1.04,1.53c-3.14-1.45-5.8-3.09-7.98-4.91-1.99,1.62-4.55,3.23-7.68,4.81l-1.2-1.46c3.76-1.73,6.61-3.61,8.55-5.64l1.9,.68c-.11,.13-.22,.25-.32,.36,1.91,1.63,4.5,3.17,7.76,4.62Zm-2.48,11.98h-1.87v-1.03h-9.34v1.03h-1.9v-8.12h13.11v8.12Zm-1.87-2.78v-3.62h-9.34v3.62h9.34Zm-.06-7.46h-9.14v-1.72h9.14v1.72Z"/>
        <path class="cls-1" d="M120.37,165.39h-6.87v5.77h-1.84v-5.77h-6.84v-8.45h6.84v-3.21h1.84v3.21h6.87v8.45Zm-8.7-1.77v-4.92h-4.98v4.92h4.98Zm6.86,0v-4.92h-5.02v4.92h5.02Z"/>
        <path class="cls-1" d="M134.19,156.75h-2.28v1.05h-1.77v-1.05h-4.24v-1.62h4.24v-1.38h1.77v1.38h2.28v1.62Zm9.2,9.39h-7.79v1.26h6.46v1.52h-6.46v2.22h-1.79v-2.22h-6.44v-1.52h6.44v-1.26h-7.86v-1.55h7.86v-4.82h-6.72v-1.52h15.19v1.52h-6.68v4.82h7.79v1.55Zm-10.54-3.23h-2.18v1.13h-1.7v-1.13h-2.56v-1.48h2.56v-1.04h1.7v1.04h2.18v1.48Zm10.52-6.16h-4.24v1.05h-1.8v-1.05h-2.25v-1.62h2.25v-1.38h1.8v1.38h4.24v1.62Zm-.46,6.16h-2.56v1.13h-1.7v-1.13h-2.14v-1.48h2.14v-1.04h1.7v1.04h2.56v1.48Z"/>
        <path class="cls-1" d="M165.49,167.25c-.73,2.66-1.83,3.98-3.3,3.98-1.02,0-2.12-.64-3.32-1.93s-2.06-3.12-2.59-5.49h-5.33v5.18c1.69-.35,3.46-.82,5.33-1.4l.17,1.84c-2.5,.74-4.94,1.32-7.32,1.76l-.6-1.8c.37-.14,.56-.42,.56-.84v-14.38h14.58v5.58h-5.96c-.02,.84,.03,1.61,.14,2.32h7.04v1.74h-6.7c.36,1.6,.97,2.93,1.85,3.98s1.57,1.58,2.09,1.58c.2,0,.36-.05,.5-.15s.34-.44,.6-1.02,.48-1.23,.64-1.94l1.62,.98Zm-3.68-9.26v-2.06h-10.86v2.06h10.86Zm-5.8,4.08c-.09-.68-.16-1.45-.21-2.32h-4.85v2.32h5.06Z"/>
        <path class="cls-1" d="M186.6,171.18h-1.8v-.77h-12.44v.77h-1.76v-17.18h16v17.18Zm-1.8-2.33v-13.26h-12.44v13.26h12.44Zm-5.98-2.74c-1.87,.72-3.83,1.32-5.88,1.79l-.21-1.6c1.91-.36,3.92-.93,6.01-1.7l.08,1.51Zm5.73-.78c-.33,1.96-1.02,2.94-2.08,2.94-.66,0-1.25-.46-1.78-1.38-.61,.7-1.2,1.25-1.8,1.66l-1.16-1.14c.76-.59,1.52-1.34,2.27-2.24-.48-1.52-.82-3.58-1.01-6.18h-5.96v-1.42h5.86c-.01-.25-.02-.77-.02-1.54l1.64-.04c-.02,.54,0,1.07,.06,1.58h2.26c-.49-.3-1.06-.55-1.72-.74l.97-1c.65,.22,1.26,.5,1.84,.84l-.86,.9h1.1v1.42h-3.53c.09,1.75,.28,3.16,.58,4.24,.57-1.07,1.07-2.31,1.5-3.7l1.42,.66c-.62,2.16-1.4,3.9-2.33,5.22,.1,.34,.23,.61,.39,.81s.27,.3,.33,.3c.09,0,.21-.19,.36-.56s.27-.95,.37-1.73l1.3,1.09Zm-6.3-1.05h-4.78v-4.26h4.78v4.26Zm-1.64-1.43v-1.38h-1.51v1.38h1.51Z"/>
        <path class="cls-1" d="M98.6,195.18h-1.8v-.77h-12.44v.77h-1.76v-17.18h16v17.18Zm-1.8-2.33v-13.26h-12.44v13.26h12.44Zm-5.98-2.74c-1.87,.72-3.83,1.32-5.88,1.79l-.21-1.6c1.91-.36,3.92-.93,6.01-1.7l.08,1.51Zm5.73-.78c-.33,1.96-1.02,2.94-2.08,2.94-.66,0-1.25-.46-1.78-1.38-.61,.7-1.2,1.25-1.8,1.66l-1.16-1.14c.76-.59,1.52-1.34,2.27-2.24-.48-1.52-.82-3.58-1.01-6.18h-5.96v-1.42h5.86c-.01-.25-.02-.77-.02-1.54l1.64-.04c-.02,.54,0,1.07,.06,1.58h2.26c-.49-.3-1.06-.55-1.72-.74l.97-1c.65,.22,1.26,.5,1.84,.84l-.86,.9h1.1v1.42h-3.53c.09,1.75,.28,3.16,.58,4.24,.57-1.07,1.07-2.31,1.5-3.7l1.42,.66c-.62,2.16-1.4,3.9-2.33,5.22,.1,.34,.23,.61,.39,.81s.27,.3,.33,.3c.09,0,.21-.19,.36-.56s.27-.95,.37-1.73l1.3,1.09Zm-6.3-1.05h-4.78v-4.26h4.78v4.26Zm-1.64-1.43v-1.38h-1.51v1.38h1.51Z"/>
        <path class="cls-1" d="M121.46,192.91l-1.02,1.46c-2.31-1.3-4.02-2.66-5.14-4.09,.02,.27,.03,.59,.03,.94,0,1.53-.22,2.58-.66,3.14s-1.3,.84-2.57,.84c-.33,0-.76,0-1.3-.03l-.59-1.7c.92,.03,1.57,.05,1.96,.05,.49,0,.81-.07,.96-.21s.27-.3,.36-.5,.13-.81,.13-1.83c0-.33,0-.63-.02-.91-2.51,2.12-5.52,3.62-9.04,4.52l-.78-1.5c3.63-.75,6.81-2.36,9.54-4.81-.11-.38-.25-.73-.42-1.04-2.38,1.84-5.11,3.08-8.18,3.72l-.76-1.46c2.88-.48,5.61-1.65,8.18-3.51-.04-.05-.27-.3-.68-.75-1.84,.96-3.97,1.65-6.4,2.08l-.8-1.52c2.71-.28,5.22-1.06,7.52-2.34h-4.85v-1.55h11.3v1.55h-4.1c-.33,.33-.73,.63-1.22,.92,.83,.91,1.43,1.86,1.8,2.84,1.37-.68,2.69-1.64,3.95-2.88l1.26,1.12c-1.18,1.13-2.58,2.12-4.18,2.96,1.24,1.68,3.15,3.18,5.73,4.5Zm-.65-10.12h-1.74v-2.04h-12.98v2.04h-1.77v-3.62h7.21c-.17-.34-.42-.74-.76-1.18l1.89-.38c.32,.5,.62,1.02,.9,1.56h7.25v3.62Z"/>
        <path class="cls-1" d="M131.91,186.11l-1.16,1.13c-.27-.57-.58-1.13-.92-1.68v9.58h-1.77v-8.59c-.35,1.3-.84,2.46-1.47,3.48l-.96-1.76c.91-1.38,1.66-3.21,2.24-5.5h-2.02v-1.75h2.22v-3.34h1.77v3.34h1.8v1.75h-1.8v.31c.66,.81,1.35,1.82,2.08,3.03Zm3.94,5.27c-.96,1.45-1.94,2.59-2.92,3.43l-1.42-1.16c1.02-.77,1.96-1.79,2.82-3.07l1.51,.8Zm7.42-1.3h-5.02v5.06h-1.72v-5.06h-4.68v-1.53h11.42v1.53Zm0-10.54h-3.42v1.14h2.94v4.41h-10.36v-4.41h2.9v-1.14h-3.46v-1.56h11.4v1.56Zm-.58,7.98h-9.96v-1.54h9.96v1.54Zm-7.36-3.88v-1.6h-1.26v1.6h1.26Zm2.9-2.96v-1.14h-1.28v1.14h1.28Zm0,2.96v-1.6h-1.28v1.6h1.28Zm5.12,10.2l-1.32,1.06c-.75-1.09-1.67-2.19-2.74-3.28l1.37-.98c1.13,1.13,2.03,2.2,2.7,3.19Zm-2.22-10.2v-1.6h-1.28v1.6h1.28Z"/>
        <path class="cls-1" d="M151.85,183.52l-1.12,1.39c-.79-.74-1.81-1.48-3.06-2.21l1.04-1.46c1.2,.7,2.25,1.46,3.14,2.28Zm13.5,8.68h-7.86v2.96h-1.74v-2.96h-7.86v-1.66h7.86v-1.36h-1.89v-5.96c-.48,.48-.75,.75-.82,.8l-1.04-1.5c1.43-1.32,2.57-3.01,3.42-5.08l1.6,.58c-.36,.82-.66,1.44-.9,1.85h2.76c-.2-.55-.45-1.2-.74-1.94l1.78-.46c.35,.87,.63,1.67,.84,2.4h4.08v1.46h-4.34v1.12h3.55v1.44h-3.55v1.16h3.55v1.43h-3.55v1.19h4.62v1.52h-7.63v1.36h7.86v1.66Zm-12.29-6.07c-1.15,1.43-2.43,2.72-3.87,3.88l-1.22-1.34c1.22-.99,2.51-2.25,3.89-3.78l1.2,1.24Zm.1-6.22l-1.14,1.38c-.94-.89-2.05-1.67-3.34-2.34l1.04-1.4c1.1,.5,2.25,1.29,3.44,2.36Zm5.62,2.54v-1.12h-3.17v1.12h3.17Zm0,2.6v-1.16h-3.17v1.16h3.17Zm0,2.62v-1.19h-3.17v1.19h3.17Z"/>
      </g>
    </g>
  </g>
</svg>