<?xml version="1.0" encoding="UTF-8"?>
<svg xmlns="http://www.w3.org/2000/svg" viewBox="0 0 8.47 12.6">
  <defs>
    <style>
      .cls-1 {
        fill: #565253;
        opacity: .68;
      }

      .cls-2 {
        fill: #b8b6b6;
        opacity: .29;
      }

      .cls-3, .cls-4 {
        fill: #fff;
      }

      .cls-5 {
        fill: #dbdbdb;
        opacity: .14;
      }

      .cls-4 {
        opacity: 0;
      }

      .cls-6 {
        fill: #949292;
        opacity: .43;
      }

      .cls-7 {
        isolation: isolate;
      }

      .cls-8 {
        fill: #211b1c;
        opacity: .89;
      }

      .cls-9 {
        fill: #8b8989;
        opacity: .46;
      }

      .cls-10 {
        fill: #322e2e;
        opacity: .82;
      }

      .cls-11 {
        fill: #afadad;
        opacity: .32;
      }

      .cls-12 {
        fill: #0f090a;
        opacity: .96;
      }

      .cls-13 {
        fill: #7a7677;
        opacity: .54;
      }

      .cls-14 {
        fill: #c1bfbf;
        opacity: .25;
      }

      .cls-15 {
        fill: #444041;
        opacity: .75;
      }

      .cls-16 {
        fill: #716d6e;
        opacity: .57;
      }

      .cls-17 {
        fill: #5f5b5c;
        opacity: .64;
      }

      .cls-18 {
        fill: #686465;
        opacity: .61;
      }

      .cls-19 {
        mix-blend-mode: multiply;
        opacity: .85;
      }

      .cls-20 {
        fill: #ededed;
        opacity: .07;
      }

      .cls-21 {
        fill: #d3d1d2;
        opacity: .18;
      }

      .cls-22 {
        fill: #181213;
        opacity: .93;
      }

      .cls-23 {
        fill: #060001;
      }

      .cls-24 {
        fill: #e4e4e4;
        opacity: .11;
      }

      .cls-25 {
        fill: #ed1c24;
      }

      .cls-26 {
        fill: #827f80;
        opacity: .5;
      }

      .cls-27 {
        fill: #a6a4a4;
        opacity: .36;
      }

      .cls-28 {
        fill: #4d494a;
        opacity: .71;
      }

      .cls-29 {
        fill: #3b3737;
        opacity: .79;
      }

      .cls-30 {
        fill: #cac8c9;
        opacity: .21;
      }

      .cls-31 {
        fill: #f6f6f6;
        opacity: .04;
      }

      .cls-32 {
        fill: #2a2425;
        opacity: .86;
      }

      .cls-33 {
        fill: #9d9b9b;
        opacity: .39;
      }
    </style>
  </defs>
  <g class="cls-7">
    <g id="_圖層_2" data-name="圖層 2">
      <g id="_圖層_1-2" data-name="圖層 1">
        <g>
          <g>
            <circle class="cls-3" cx="4.14" cy="4.86" r="3.48"/>
            <path class="cls-25" d="M4.17,0C1.84,.03-.04,1.98,0,4.32c.03,1.59,.94,2.97,2.27,3.67,.37,.19,.65,.51,.8,.9l1.16,2.95,1.16-2.95c.15-.39,.44-.71,.81-.9,1.34-.71,2.26-2.12,2.26-3.75C8.47,1.88,6.54-.03,4.17,0Zm.05,6.79c-1.43,0-2.59-1.16-2.59-2.59S2.79,1.62,4.22,1.62s2.59,1.16,2.59,2.59-1.16,2.59-2.59,2.59Z"/>
          </g>
          <g class="cls-19">
            <path class="cls-4" d="M5.92,12.23c0,.21-.76,.37-1.69,.37s-1.69-.17-1.69-.37,.76-.37,1.69-.37,1.69,.17,1.69,.37Z"/>
            <path class="cls-31" d="M5.86,12.23c0,.2-.73,.36-1.63,.36s-1.63-.16-1.63-.36,.73-.36,1.63-.36,1.63,.16,1.63,.36Z"/>
            <path class="cls-20" d="M5.8,12.23c0,.19-.7,.35-1.57,.35s-1.57-.15-1.57-.35,.7-.35,1.57-.35,1.57,.15,1.57,.35Z"/>
            <path class="cls-24" d="M5.74,12.23c0,.18-.67,.33-1.51,.33s-1.51-.15-1.51-.33,.67-.33,1.51-.33,1.51,.15,1.51,.33Z"/>
            <path class="cls-5" d="M5.68,12.23c0,.18-.65,.32-1.45,.32s-1.45-.14-1.45-.32,.65-.32,1.45-.32,1.45,.14,1.45,.32Z"/>
            <path class="cls-21" d="M5.62,12.23c0,.17-.62,.31-1.39,.31s-1.39-.14-1.39-.31,.62-.31,1.39-.31,1.39,.14,1.39,.31Z"/>
            <path class="cls-30" d="M5.56,12.23c0,.16-.59,.29-1.33,.29s-1.33-.13-1.33-.29,.59-.29,1.33-.29,1.33,.13,1.33,.29Z"/>
            <path class="cls-14" d="M5.5,12.23c0,.15-.57,.28-1.27,.28s-1.27-.13-1.27-.28,.57-.28,1.27-.28,1.27,.13,1.27,.28Z"/>
            <path class="cls-2" d="M5.44,12.23c0,.15-.54,.27-1.21,.27s-1.21-.12-1.21-.27,.54-.27,1.21-.27,1.21,.12,1.21,.27Z"/>
            <path class="cls-11" d="M5.38,12.23c0,.14-.51,.25-1.15,.25s-1.15-.11-1.15-.25,.51-.25,1.15-.25,1.15,.11,1.15,.25Z"/>
            <path class="cls-27" d="M5.32,12.23c0,.13-.49,.24-1.09,.24s-1.09-.11-1.09-.24,.49-.24,1.09-.24,1.09,.11,1.09,.24Z"/>
            <path class="cls-33" d="M5.26,12.23c0,.13-.46,.23-1.03,.23s-1.03-.1-1.03-.23,.46-.23,1.03-.23,1.03,.1,1.03,.23Z"/>
            <path class="cls-6" d="M5.2,12.23c0,.12-.43,.21-.97,.21s-.97-.1-.97-.21,.43-.21,.97-.21,.97,.1,.97,.21Z"/>
            <path class="cls-9" d="M5.14,12.23c0,.11-.41,.2-.91,.2s-.91-.09-.91-.2,.41-.2,.91-.2,.91,.09,.91,.2Z"/>
            <path class="cls-26" d="M5.08,12.23c0,.1-.38,.19-.85,.19s-.85-.08-.85-.19,.38-.19,.85-.19,.85,.08,.85,.19Z"/>
            <path class="cls-13" d="M5.02,12.23c0,.1-.35,.17-.79,.17s-.79-.08-.79-.17,.35-.17,.79-.17,.79,.08,.79,.17Z"/>
            <path class="cls-16" d="M4.96,12.23c0,.09-.33,.16-.73,.16s-.73-.07-.73-.16,.33-.16,.73-.16,.73,.07,.73,.16Z"/>
            <path class="cls-18" d="M4.9,12.23c0,.08-.3,.15-.67,.15s-.67-.07-.67-.15,.3-.15,.67-.15,.67,.07,.67,.15Z"/>
            <path class="cls-17" d="M4.84,12.23c0,.07-.27,.13-.61,.13s-.61-.06-.61-.13,.27-.13,.61-.13,.61,.06,.61,.13Z"/>
            <path class="cls-1" d="M4.78,12.23c0,.07-.25,.12-.55,.12s-.55-.05-.55-.12,.25-.12,.55-.12,.55,.05,.55,.12Z"/>
            <ellipse class="cls-28" cx="4.23" cy="12.23" rx=".49" ry=".11"/>
            <path class="cls-15" d="M4.66,12.23c0,.05-.19,.09-.43,.09s-.43-.04-.43-.09,.19-.09,.43-.09,.43,.04,.43,.09Z"/>
            <path class="cls-29" d="M4.6,12.23s-.16,.08-.37,.08-.37-.04-.37-.08,.16-.08,.37-.08,.37,.04,.37,.08Z"/>
            <path class="cls-10" d="M4.54,12.23s-.14,.07-.31,.07-.31-.03-.31-.07,.14-.07,.31-.07,.31,.03,.31,.07Z"/>
            <path class="cls-32" d="M4.48,12.23s-.11,.05-.25,.05-.25-.02-.25-.05,.11-.05,.25-.05,.25,.02,.25,.05Z"/>
            <path class="cls-8" d="M4.42,12.23s-.08,.04-.19,.04-.19-.02-.19-.04,.08-.04,.19-.04,.19,.02,.19,.04Z"/>
            <path class="cls-22" d="M4.36,12.23s-.06,.03-.13,.03-.13-.01-.13-.03,.06-.03,.13-.03,.13,.01,.13,.03Z"/>
            <path class="cls-12" d="M4.3,12.23s-.03,.01-.07,.01-.07,0-.07-.01,.03-.01,.07-.01,.07,0,.07,.01Z"/>
            <path class="cls-23" d="M4.24,12.23s0,0,0,0,0,0,0,0,0,0,0,0,0,0,0,0Z"/>
          </g>
        </g>
      </g>
    </g>
  </g>
</svg>