<?xml version="1.0" encoding="UTF-8"?>
<svg id="_圖層_2" data-name="圖層 2" xmlns="http://www.w3.org/2000/svg" viewBox="0 0 119.15 22.08">
  <defs>
    <style>
      .cls-1 {
        fill: #c0a157;
      }
    </style>
  </defs>
  <g id="_圖層_1-2" data-name="圖層 1">
    <g>
      <g>
        <path class="cls-1" d="M20.07,2.82c0,.12-.03,.18-.09,.18-.84,0-1.45,.23-1.83,.69-.38,.46-.57,1.21-.57,2.25v15.81s-.05,.07-.15,.09c-.1,.02-.17,0-.21-.03L3.42,5.1l-.27-.3v13.32c0,1.04,.18,1.78,.55,2.23s.96,.67,1.79,.67c.06,0,.09,.06,.09,.18s-.03,.18-.09,.18c-.5,0-.88,0-1.14-.03l-1.5-.03-1.53,.03c-.28,.02-.69,.03-1.23,.03-.04,0-.06-.06-.06-.18s.02-.18,.06-.18c.86,0,1.47-.22,1.83-.67,.36-.45,.54-1.19,.54-2.23V4.08C1.68,3.36,.89,3,.09,3c-.06,0-.09-.06-.09-.18s.03-.18,.09-.18l1.11,.03c.24,.02,.57,.03,.99,.03s.8,0,1.08-.03c.28-.02,.5-.03,.66-.03s.27,.04,.34,.11c.07,.07,.18,.22,.34,.46,.24,.36,.48,.69,.72,.99l11.55,14.19V5.94c0-1.04-.18-1.79-.53-2.25-.35-.46-.93-.69-1.75-.69-.04,0-.06-.06-.06-.18s.02-.18,.06-.18l1.17,.03c.6,.04,1.09,.06,1.47,.06,.36,0,.86-.02,1.5-.06l1.23-.03c.06,0,.09,.06,.09,.18Z"/>
        <path class="cls-1" d="M36.54,16.86c.06,0,.11,.01,.17,.03,.05,.02,.08,.05,.08,.09-.18,1.26-.27,2.58-.27,3.96,0,.16-.04,.28-.1,.34s-.2,.11-.38,.11h-12.57s-.06-.06-.06-.18,.02-.18,.06-.18c.76,0,1.31-.05,1.67-.15,.35-.1,.59-.29,.72-.58s.2-.74,.2-1.33V5.07c0-.6-.07-1.04-.2-1.32s-.37-.48-.72-.58c-.35-.11-.91-.17-1.67-.17-.04,0-.06-.06-.06-.18s.02-.18,.06-.18h12.06c.18,0,.27,.09,.27,.27l.06,3.69c0,.06-.05,.09-.15,.11-.1,0-.16-.02-.18-.08-.06-1.06-.38-1.88-.96-2.48-.58-.59-1.35-.88-2.31-.88h-1.83c-.7,0-1.21,.06-1.54,.17-.33,.11-.56,.3-.69,.57-.13,.27-.19,.67-.19,1.21v6.09h3.66c.96,0,1.64-.16,2.05-.48,.41-.32,.62-.86,.62-1.62,0-.04,.06-.06,.18-.06s.18,.02,.18,.06l-.03,2.43c0,.58,0,1.02,.03,1.32l.03,1.44s-.06,.06-.18,.06-.18-.02-.18-.06c0-.88-.21-1.51-.64-1.89-.43-.38-1.15-.57-2.15-.57h-3.57v6.9c0,.56,.06,.97,.18,1.23,.12,.26,.34,.44,.66,.54,.32,.1,.82,.15,1.5,.15h2.4c.96,0,1.76-.34,2.4-1.02,.64-.68,1.07-1.62,1.29-2.82,0-.04,.04-.06,.12-.06Z"/>
        <path class="cls-1" d="M58.89,21.21c0,.12-.02,.18-.06,.18-.52,0-.93,0-1.23-.03l-1.65-.03-2.31,.03c-.36,.02-.85,.03-1.47,.03-.04,0-.06-.06-.06-.18s.02-.18,.06-.18c.54,0,.93-.04,1.17-.12,.24-.08,.36-.21,.36-.39s-.09-.4-.27-.66l-4.56-6.9-3.81,5.37c-.48,.68-.72,1.23-.72,1.65,0,.7,.59,1.05,1.77,1.05,.06,0,.09,.06,.09,.18s-.03,.18-.09,.18c-.6,0-1.06,0-1.38-.03l-2.07-.03-1.26,.03c-.22,.02-.59,.03-1.11,.03-.06,0-.09-.06-.09-.18s.03-.18,.09-.18c.66,0,1.34-.23,2.04-.69s1.38-1.14,2.04-2.04l4.23-5.79-4.83-7.32c-.54-.8-1.07-1.37-1.58-1.69-.51-.33-1.11-.5-1.79-.5-.04,0-.06-.06-.06-.18s.02-.18,.06-.18l1.14,.03c.52,.04,.9,.06,1.14,.06,.68,0,1.5-.02,2.46-.06l1.56-.03c.06,0,.09,.06,.09,.18s-.03,.18-.09,.18c-.52,0-.91,.04-1.15,.12-.25,.08-.38,.22-.38,.42,0,.16,.09,.38,.27,.66l4.44,6.69,3.51-4.98c.54-.76,.81-1.38,.81-1.86,0-.7-.56-1.05-1.68-1.05-.06,0-.09-.06-.09-.18s.03-.18,.09-.18l1.35,.03c.76,.04,1.45,.06,2.07,.06,.36,0,.78-.02,1.26-.06l1.11-.03c.06,0,.09,.06,.09,.18s-.03,.18-.09,.18c-.66,0-1.35,.25-2.07,.75-.72,.5-1.44,1.24-2.16,2.22l-3.93,5.37,5.01,7.56c.52,.78,1.05,1.33,1.61,1.65,.55,.32,1.23,.48,2.05,.48,.04,0,.06,.06,.06,.18Z"/>
        <path class="cls-1" d="M63.67,4.14c-.63,.64-1.08,1.73-1.37,3.27,0,.04-.05,.06-.17,.06s-.17-.02-.17-.06c.08-.72,.17-1.66,.27-2.82,.1-1.16,.15-2.03,.15-2.61,0-.1,.06-.15,.17-.15s.17,.05,.17,.15c0,.44,.54,.66,1.62,.66,1.7,.06,3.71,.09,6.03,.09,1.18,0,2.43-.02,3.75-.06l2.04-.03c.72,0,1.25-.05,1.6-.15,.35-.1,.58-.3,.68-.6,.02-.08,.08-.12,.18-.12s.15,.04,.15,.12c-.06,.58-.12,1.46-.18,2.64-.06,1.18-.09,2.14-.09,2.88,0,.04-.06,.06-.18,.06s-.18-.02-.18-.06c-.06-1.56-.38-2.65-.96-3.28s-1.54-.95-2.88-.95c-.9,0-1.54,.04-1.92,.12s-.64,.25-.78,.51c-.14,.26-.21,.7-.21,1.32v13.83c0,.62,.07,1.07,.21,1.35,.14,.28,.41,.47,.81,.57,.4,.1,1.03,.15,1.89,.15,.06,0,.09,.06,.09,.18s-.03,.18-.09,.18c-.66,0-1.19,0-1.59-.03l-2.34-.03-2.25,.03c-.4,.02-.95,.03-1.65,.03-.04,0-.06-.06-.06-.18s.02-.18,.06-.18c.86,0,1.49-.05,1.89-.15,.4-.1,.67-.29,.83-.58,.15-.29,.22-.74,.22-1.33V5.07c0-.62-.07-1.05-.21-1.3-.14-.25-.4-.41-.78-.48-.38-.07-1.02-.1-1.92-.1-1.26,0-2.21,.32-2.83,.96Z"/>
      </g>
      <path class="cls-1" d="M108.04,22.08c-.19,0-.38-.07-.52-.22-.29-.29-.29-.76,0-1.05l9.85-9.85L107.66,1.26c-.29-.29-.29-.76,0-1.05s.76-.29,1.05,0l10.23,10.23c.29,.29,.29,.76,0,1.05l-10.37,10.37c-.14,.14-.34,.22-.52,.22h0Z"/>
    </g>
  </g>
</svg>