<?xml version="1.0" encoding="UTF-8"?>
<svg id="_圖層_2" data-name="圖層 2" xmlns="http://www.w3.org/2000/svg" viewBox="0 0 115.27 22.22">
  <defs>
    <style>
      .cls-1 {
        fill: #c0a157;
      }
    </style>
  </defs>
  <g id="_圖層_1-2" data-name="圖層 1">
    <g>
      <g>
        <path class="cls-1" d="M47.22,12.84c.97,.93,1.46,2.08,1.46,3.47,0,1.06-.26,2.02-.78,2.88-.52,.86-1.24,1.54-2.14,2.02-.91,.49-1.93,.74-3.05,.74-.66,0-1.38-.03-2.16-.09-.28-.02-.61-.04-.99-.06-.38-.02-.8-.03-1.26-.03l-2.04,.03c-.36,.02-.87,.03-1.53,.03-.04,0-.06-.06-.06-.18s.02-.18,.06-.18c.74,0,1.29-.05,1.65-.17,.36-.11,.61-.3,.75-.58,.14-.28,.21-.72,.21-1.32V5.51c0-.6-.07-1.04-.2-1.32-.13-.28-.37-.48-.72-.58-.35-.11-.9-.17-1.64-.17-.06,0-.09-.06-.09-.18s.03-.18,.09-.18l1.47,.03c.84,.04,1.52,.06,2.04,.06,.36,0,.69,0,1-.03,.31-.02,.57-.04,.79-.06,.62-.06,1.2-.09,1.74-.09,1.68,0,2.94,.37,3.78,1.09,.84,.73,1.26,1.69,1.26,2.87,0,.96-.31,1.81-.93,2.56s-1.47,1.33-2.55,1.76c1.58,.12,2.85,.64,3.83,1.57Zm-7.19-9.27c-.26,.09-.45,.28-.57,.57s-.18,.76-.18,1.42v5.7l1.35,.03c1.46,0,2.54-.38,3.24-1.12,.7-.75,1.05-1.74,1.05-2.98,0-1.12-.31-2.03-.92-2.72-.61-.69-1.54-1.03-2.81-1.03-.52,0-.91,.04-1.17,.13Zm5.48,16.71c.71-.75,1.06-1.83,1.06-3.22,0-1.52-.45-2.75-1.33-3.69-.89-.94-2.11-1.42-3.67-1.44-.64-.02-1.4,0-2.28,.06v7.41c0,.52,.08,.92,.23,1.2,.15,.28,.44,.49,.87,.62,.43,.13,1.05,.2,1.88,.2,1.46,0,2.54-.38,3.25-1.12Z"/>
        <path class="cls-1" d="M72.76,21.65c0,.12-.04,.18-.12,.18-.38,0-.97-.02-1.77-.06-.8-.04-1.38-.06-1.74-.06-.44,0-1,.02-1.68,.06-.64,.04-1.13,.06-1.47,.06-.08,0-.12-.06-.12-.18s.04-.18,.12-.18c.74,0,1.28-.07,1.62-.21,.34-.14,.51-.38,.51-.72,0-.28-.13-.71-.39-1.29l-2.67-5.67h-7.14l-1.89,4.44c-.28,.68-.42,1.23-.42,1.65,0,.62,.25,1.08,.74,1.37s1.22,.43,2.21,.43c.1,0,.15,.06,.15,.18s-.05,.18-.15,.18c-.36,0-.88-.02-1.56-.06-.76-.04-1.42-.06-1.98-.06-.52,0-1.12,.02-1.8,.06-.6,.04-1.1,.06-1.5,.06-.1,0-.15-.06-.15-.18s.05-.18,.15-.18c.56,0,1.04-.1,1.42-.31s.76-.58,1.11-1.11c.35-.53,.73-1.29,1.15-2.29l6.33-14.94c.04-.06,.11-.09,.21-.09s.16,.03,.18,.09l7.08,14.91c.68,1.48,1.26,2.48,1.74,2.99,.48,.51,1.05,.76,1.71,.76,.08,0,.12,.06,.12,.18Zm-14.61-8.67h6.63l-3.51-7.41-3.12,7.41Z"/>
        <path class="cls-1" d="M89.38,3.02c.86,.18,1.72,.49,2.58,.93,.14,.08,.22,.15,.24,.21,.02,.06,.05,.21,.09,.45l.36,3.57c0,.06-.06,.1-.17,.11-.11,0-.18-.01-.2-.08-.92-3.34-2.98-5.01-6.18-5.01-1.68,0-3.16,.37-4.44,1.11-1.28,.74-2.27,1.79-2.97,3.16-.7,1.37-1.05,2.97-1.05,4.79s.38,3.34,1.15,4.79c.77,1.45,1.81,2.59,3.12,3.44,1.31,.84,2.74,1.26,4.28,1.26,1.64,0,2.97-.4,3.99-1.2,1.02-.8,1.8-2.02,2.34-3.66,0-.04,.05-.06,.15-.06,.14,0,.21,.03,.21,.09l-.3,3.3c-.02,.24-.05,.39-.09,.45-.04,.06-.12,.13-.24,.21-1.04,.5-2.01,.85-2.92,1.05-.91,.2-1.96,.3-3.13,.3-2.1,0-3.97-.41-5.62-1.25-1.65-.83-2.94-1.99-3.86-3.49s-1.38-3.22-1.38-5.16,.47-3.54,1.41-5,2.24-2.58,3.88-3.38c1.65-.8,3.5-1.2,5.57-1.2,1.26,0,2.32,.09,3.18,.27Z"/>
        <path class="cls-1" d="M115.27,21.65c0,.12-.03,.18-.09,.18h-3.36c-.16,0-.45,0-.86,.01s-.99-.5-1.72-1.53c-.74-1.03-1.45-1.98-2.13-2.83l-4.59-5.79-.99,.96v6.75c0,.6,.06,1.04,.18,1.33s.36,.49,.71,.58,.91,.15,1.67,.15c.06,0,.09,.06,.09,.18s-.03,.18-.09,.18c-.6,0-1.08,0-1.44-.03l-2.1-.03-2.04,.03c-.36,.02-.86,.03-1.5,.03-.04,0-.06-.06-.06-.18s.02-.18,.06-.18c.76,0,1.32-.05,1.67-.15s.59-.29,.72-.58,.2-.74,.2-1.33V5.51c0-.6-.06-1.04-.18-1.32s-.36-.48-.71-.58c-.35-.11-.91-.17-1.67-.17-.04,0-.06-.06-.06-.18s.02-.18,.06-.18l1.5,.03c.84,.04,1.51,.06,2.01,.06,.58,0,1.29-.02,2.13-.06l1.41-.03c.06,0,.09,.06,.09,.18s-.03,.18-.09,.18c-.74,0-1.29,.06-1.63,.18-.35,.12-.59,.33-.72,.62-.13,.29-.2,.73-.2,1.33v6.33l6.42-6.39c.66-.66,.99-1.15,.99-1.47,0-.4-.59-.6-1.77-.6-.04,0-.06-.06-.06-.18s.02-.18,.06-.18l1.29,.03c.8,.04,1.53,.06,2.19,.06s1.35-.02,2.07-.06l1.11-.03c.06,0,.09,.06,.09,.18s-.03,.18-.09,.18c-.82,0-1.69,.18-2.61,.54-.92,.36-1.78,.93-2.58,1.71l-4.74,4.65,4.32,5.52c1.46,1.9,2.58,3.24,3.35,4.02,.77,.78,1.37,1.24,1.79,1.38,.42,.14,1.03,.21,1.83,.21,.06,0,.09,.06,.09,.18Z"/>
      </g>
      <path class="cls-1" d="M11.11,22.08c-.19,0-.38-.07-.52-.22L.22,11.49c-.29-.29-.29-.76,0-1.05L10.44,.22c.29-.29,.76-.29,1.05,0s.29,.76,0,1.05L1.78,10.96l9.85,9.85c.29,.29,.29,.76,0,1.05-.14,.14-.34,.22-.52,.22h0Z"/>
    </g>
  </g>
</svg>