<?xml version="1.0" encoding="UTF-8"?>
<svg id="_圖層_2" data-name="圖層 2" xmlns="http://www.w3.org/2000/svg" viewBox="0 0 14.56 22.53">
  <defs>
    <style>
      .cls-1 {
        fill: #846b40;
      }
    </style>
  </defs>
  <g id="_圖層_1-2" data-name="圖層 1">
    <path class="cls-1" d="M7.08,20.02C7.08,16.13,3.9,12.95,0,12.95v-.95c3.08,0,5.8,2.45,6.93,5.21,0,.02,.02,.02,.04,.02,.02,0,.03-.02,.02-.04-.52-3.56-3.42-6.35-7-6.73v-.94c3.22,.4,5.95,3.05,7.01,6.06,0,.02,.02,.03,.04,.02,.02,0,.03-.02,.03-.03-.11-4.04-3.12-7.36-7.08-7.8v-.94c3.22,.43,5.95,3.09,7.01,6.11,0,.02,.02,.03,.04,.02,.02,0,.03-.02,.03-.03v-.67c0-3.59-2.94-6.52-6.52-6.52v-.95c2.9,0,5.44,2.36,6.46,4.97,0,.02,.02,.02,.04,.02,.02,0,.03-.02,.03-.03v-.88c0-2.49-2.04-4.53-4.53-4.53v-.95c1.94,0,3.66,1.69,4.46,3.38,0,.01,.02,.02,.04,.02,.02,0,.03-.02,.03-.03v-1.48c0-1.43-1.17-2.61-2.61-2.61v-.95c1.05,0,2,1.1,2.54,1.95,0,.01,.02,.02,.04,.01,.01,0,.02-.02,.02-.03l-.3-3.65h1l-.3,3.65s0,.03,.02,.03c.01,0,.03,0,.04-.01,.54-.85,1.49-1.95,2.54-1.95v.95c-1.43,0-2.6,1.17-2.61,2.6v1.49s.01,.03,.03,.03c.02,0,.03,0,.04-.02,.8-1.69,2.52-3.38,4.46-3.38v.95c-2.49,0-4.52,2.04-4.53,4.52v.88s.01,.03,.03,.03c.02,0,.03,0,.04-.02,1.02-2.62,3.56-4.97,6.46-4.97v.95c-3.59,0-6.52,2.93-6.52,6.52v.68s.01,.03,.03,.03c.02,0,.03,0,.04-.02,1.06-3.02,3.79-5.68,7.01-6.11v.94c-3.91,.44-6.97,3.71-7.08,7.8,0,.02,.01,.03,.03,.03,.02,0,.03,0,.04-.02,1.06-3.01,3.79-5.66,7.01-6.06v.94c-3.57,.38-6.48,3.17-7,6.73,0,.02,0,.03,.02,.04,.02,0,.03,0,.04-.02,1.13-2.76,3.84-5.21,6.93-5.21v.95c-3.89,0-7.07,3.18-7.07,7.07,0,.84,0,1.67,0,2.51h-.4v-2.51h0Z"/>
  </g>
</svg>