<?xml version="1.0" encoding="UTF-8"?>
<svg id="_圖層_2" data-name="圖層 2" xmlns="http://www.w3.org/2000/svg" xmlns:xlink="http://www.w3.org/1999/xlink" viewBox="0 0 238 305">
  <defs>
    <style>
      .cls-1 {
        fill: #0d3b41;
      }

      .cls-2 {
        fill: #262626;
      }

      .cls-3 {
        fill: #fff;
      }

      .cls-4 {
        fill: none;
        stroke: #0d3b41;
        stroke-miterlimit: 10;
        stroke-width: .75px;
      }

      .cls-5 {
        fill: url(#_未命名漸層_38);
        filter: url(#drop-shadow-1);
      }
    </style>
    <linearGradient id="_未命名漸層_38" data-name="未命名漸層 38" x1="74.9" y1="16.68" x2="165.48" y2="241.97" gradientUnits="userSpaceOnUse">
      <stop offset="0" stop-color="#f7cc77"/>
      <stop offset=".07" stop-color="#f2c874"/>
      <stop offset=".68" stop-color="#ceac5f"/>
      <stop offset="1" stop-color="#c1a257"/>
    </linearGradient>
    <filter id="drop-shadow-1" filterUnits="userSpaceOnUse">
      <feOffset dx="5" dy="6"/>
      <feGaussianBlur result="blur" stdDeviation="5"/>
      <feFlood flood-color="#000" flood-opacity=".6"/>
      <feComposite in2="blur" operator="in"/>
      <feComposite in="SourceGraphic"/>
    </filter>
  </defs>
  <g id="_圖層_5" data-name="圖層 5">
    <g>
      <path class="cls-5" d="M217.87,120.47c0,61.54-103.6,163.02-103.6,163.02,0,0-103.6-101.48-103.6-163.02S49.52,9.04,114.27,9.04s103.6,49.89,103.6,111.43Z"/>
      <path class="cls-4" d="M211.25,122.11c0,57.61-96.98,152.62-96.98,152.62,0,0-96.98-95-96.98-152.62S53.66,17.8,114.27,17.8s96.98,46.7,96.98,104.31Z"/>
      <g>
        <path class="cls-1" d="M71.9,188c.92,4.94,3.78,10.11,11.45,13.5l-.03,.32c-1.13,.16-1.86,.68-2.13,1.89-6.93-3.91-9.01-10.22-9.77-15.47-.76,6.15-3.23,11.55-12.34,15.44l-.31-.42c7.59-4.2,9.77-9.35,10.43-15.26h-9.95l-.18-.76h10.21c.21-2.44,.18-5.04,.18-7.72l3.26,.34c-.08,.39-.29,.66-.89,.74-.05,2.28-.08,4.49-.29,6.64h7.09l1.55-1.94s1.81,1.37,2.86,2.28c-.05,.29-.34,.42-.68,.42h-10.45Z"/>
        <path class="cls-1" d="M111.47,181.67c-.18,.24-.6,.42-1.13,.52v20.48c-.03,.21-1.02,.79-1.79,.79h-.32v-1.73h-16.86v1.1c0,.29-.79,.84-1.68,.84h-.39v-23.63l2.28,1.02h16.39l1.13-1.26,2.36,1.86Zm-3.23,.16h-16.86v19.14h16.86v-19.14Zm-6.91,15.99c-1,.53-2.97,1.68-4.94,2.73-.11,.18-.26,.34-.39,.42l-1.18-1.6c.74-.5,.87-.68,.87-1.05v-1.79c-1.21,.52-2.47,.95-3.83,1.31l-.24-.45c2.34-.89,4.46-2.15,6.01-3.6h-1.73v.39c0,.16-.84,.53-1.55,.53h-.26v-5.72l1.94,.81h7.35l.92-.92,1.97,1.44c-.13,.16-.45,.37-.84,.42v2.97l1.58,1.47c-.13,.18-.34,.21-.81,.03-.6,.34-1.52,.81-2.36,1.21,4.2,2.1,3.2,4.33,1.73,3.6-.92-1.21-3.28-3.2-6.25-4.75l.18-.39c1.44,.37,2.65,.79,3.62,1.23,.66-.63,1.39-1.42,1.92-2.05-.34,.16-.79,.29-1.16,.29h-.29v-.55h-3.68c-.68,.68-1.52,1.26-2.44,1.81v2.94c1.1-.31,2.42-.71,3.75-1.13l.11,.39Zm4.2-11.76s1.31,.97,2.1,1.73c-.08,.29-.32,.42-.68,.42h-14.65l-.21-.76h6.7v-1.92h-5.2l-.21-.79h5.41v-2.26l2.68,.26c-.05,.31-.24,.52-.76,.6v1.39h2.6l1.1-1.31s1.23,.95,2.05,1.68c-.08,.29-.32,.42-.68,.42h-5.07v1.92h3.7l1.13-1.39Zm-9.64,6.96h7.69v-2.44h-7.69v2.44Z"/>
        <path class="cls-1" d="M136.29,187.27c-.26,.21-.6,.26-1.37,.31-1.13,1.42-2.7,2.78-4.52,4.04,3.07,1.44,6.83,2.34,10.64,2.78l-.05,.32c-.92,.16-1.58,.84-1.79,1.89-1.23-.24-2.42-.55-3.55-.89l.74,.55c-.16,.18-.53,.39-1.02,.5v6.09c-.03,.16-1.05,.6-1.76,.6h-.34v-1.58h-8.9v.97c0,.16-.68,.71-1.71,.71h-.37v-7.88c-1.81,.66-3.7,1.21-5.54,1.6l-.18-.39c3.99-1.21,7.96-3.12,11.08-5.38-1.1-1-2.1-2.1-2.86-3.39-2,1.97-4.31,3.41-6.54,4.36l-.29-.37c2.63-1.71,5.51-4.81,7.38-8.43h-4.96c.11,1.76-.6,2.97-1.42,3.47-.71,.5-1.71,.47-2.02-.24-.26-.63,.16-1.23,.76-1.55,1-.58,1.97-2.05,1.86-3.7h.42c.16,.45,.26,.87,.31,1.26h16.91l1.23-1.23,2.23,2.13c-.21,.18-.52,.26-1.02,.29-.63,.92-1.81,2.21-2.73,2.99l-.29-.18c.21-.87,.53-2.18,.74-3.23h-11.92l2.71,1.39c-.16,.26-.53,.45-1.08,.32-.24,.34-.47,.66-.74,.97h6.12l1.55-1.34,2.29,2.23Zm-2.65,7.75c-1.73-.66-3.28-1.47-4.67-2.47-1.65,1-3.52,1.92-5.44,2.65l1.16,.47h8.35l.6-.66Zm-.37,6.12v-4.7h-8.9v4.7h8.9Zm-7.56-14c-.18,.18-.34,.39-.5,.58,.92,1.16,2.13,2.15,3.52,2.99,1.44-1.13,2.68-2.36,3.57-3.57h-6.59Zm.95-7.72c5.49,.39,3.86,4.52,1.76,3.18-.18-1.05-1.1-2.31-2-2.99l.24-.18Z"/>
        <path class="cls-1" d="M153.78,192.41c-.21,.21-.47,.29-1,.31-.5,1.86-1.47,4.04-2.94,5.67,.13,.05,.26,.16,.42,.29,2.23,2.15,5.25,2.52,10.58,2.52,3.12,0,5.72-.03,8.93-.16v.34c-.92,.16-1.44,.87-1.55,1.68h-8.01c-5.46,0-7.93-.81-10.29-3.6-.37-.39-.63-.34-.84,.03-.5,.79-1.42,2.31-2.05,3.44,.11,.21,.05,.39-.13,.53l-1.65-2.1c1.16-.81,2.94-2.5,3.78-2.92,.89-1.65,1.55-3.94,1.81-5.86h-2.31l-.79,.68-1.68-1.44c.26-.16,.68-.31,1.05-.42,.89-1.23,2.13-3.12,2.94-4.46h-4.1l-.24-.76h4.44l.97-1.02,2,1.81c-.21,.24-.68,.37-1.23,.42-.79,1.18-2.05,3.1-3.05,4.44h1.84l1.13-1.1,1.97,1.68Zm-6.64-12.74c5.83,1.58,4.15,5.54,2.21,4.15-.26-1.34-1.44-2.99-2.47-3.94l.26-.21Zm8.06,2.21c-.05,1.26-.63,2.13-1.31,2.52-.68,.37-1.6,.29-1.87-.42-.21-.66,.24-1.18,.84-1.5,.81-.39,1.63-1.52,1.55-2.71h.45c.16,.45,.26,.89,.31,1.31h11.03l1.13-1.16,2.1,2c-.18,.21-.47,.26-.97,.29-.45,.58-1.21,1.44-1.86,2,.42,.34,.89,.74,1.26,1.08-.05,.29-.32,.42-.66,.42h-5.83v2h2.94l1.05-1.1,2.23,1.71c-.16,.21-.58,.42-1.1,.53v5.91c-.03,.18-.97,.63-1.63,.63h-.29v-.84h-3.2v2.21h3.81l1.29-1.6s1.44,1.1,2.36,1.94c-.05,.29-.34,.42-.71,.42h-6.75v2.65c0,.26-.84,.68-1.58,.68h-.37v-3.33h-6.25l-.18-.76h6.43v-2.21h-3.2v.5c0,.21-.84,.63-1.6,.63h-.29v-8.85l2.05,.89h3.05v-2h-5.57l-.21-.76h5.78v-2.55l2.92,.32c-.08,.37-.29,.63-.97,.74v1.5h3.02l1.21-1.5,.5,.37c.1-.55,.21-1.31,.29-1.94h-11.19Zm1.02,6.59v2.23h3.2v-2.23h-3.2Zm3.2,5.28v-2.28h-3.2v2.28h3.2Zm1.94-5.28v2.23h3.2v-2.23h-3.2Zm3.2,5.28v-2.28h-3.2v2.28h3.2Z"/>
      </g>
      <g>
        <path d="M97.43,149.94v1.02h-12.1v-1.02l4.67-.66c.03-1.74,.06-3.5,.06-5.24v-12.1l-4.37,.42v-1.14l6.74-1.74,.45,.33-.12,4.7v9.53c0,1.74,.03,3.5,.06,5.24l4.61,.66Z"/>
        <path d="M117.23,145.8c0,3.32-2.85,5.57-6.71,5.57s-6.74-1.83-6.74-5.21c0-2.43,1.68-4.1,4.76-5.6-2.85-1.53-4.07-3.5-4.07-5.78,0-3.38,2.73-5.45,6.14-5.45s5.63,2.1,5.63,5.03c0,1.62-.93,3.53-3.95,5.21,3.35,1.65,4.94,3.35,4.94,6.23Zm-2.64,.33c0-1.95-1.23-3.23-5.03-5.06-2.13,1.35-3.18,2.55-3.18,4.76,0,2.61,1.71,4.31,4.22,4.31s3.98-1.68,3.98-4.01Zm-3.29-7.04c1.89-1.47,2.61-2.79,2.61-4.64,0-2.13-1.23-3.83-3.35-3.83-1.92,0-3.59,1.32-3.59,3.44,0,1.77,.9,3.38,4.34,5.03Z"/>
      </g>
      <g>
        <path class="cls-3" d="M110.7,86.55v5.57h-25.21v-4.1c3.05-3.31,6.09-6.51,8.67-9.14,5.94-6.2,8.3-10.03,8.3-15.18,0-4.83-2.52-7.98-6.78-7.98-.79,0-1.63,.1-2.47,.32l-1.26,4.83c-.58,3.1-2,3.99-3.52,3.99-1.42,0-2.52-.79-3.1-2,.63-5.88,6.15-9.03,12.61-9.03,7.93,0,11.55,4.2,11.55,10.14,0,5.2-3.78,9.61-13.24,16.91-1.68,1.31-4.15,3.47-6.72,5.67h21.17Z"/>
        <path class="cls-3" d="M143.21,54.67v3.52l-13.39,33.93h-6.46l-.53-.53,17.02-31.35h-21.06v-5.57h24.42Z"/>
      </g>
      <line class="cls-4" x1="83.49" y1="171.27" x2="145.05" y2="171.27"/>
      <path class="cls-2" d="M159.25,88.32l1.21,.91c-.07,.08-.26,.2-.5,.24v2.36c0,.72-.19,1.16-1.56,1.28-.04-.32-.1-.56-.28-.71-.18-.14-.46-.28-1.03-.36v-.17s1.2,.08,1.5,.08c.19,0,.25-.08,.25-.24v-2.46h-2.95v1.24l1.28-.05c-.19-.32-.44-.61-.68-.82l.12-.1c2.7,.66,1.88,2.59,.96,1.91-.02-.22-.11-.46-.22-.68-1.06,.23-2.42,.5-4.21,.84-.08,.14-.22,.24-.34,.25l-.44-1.28c.5,.01,1.39-.01,2.45-.05v-1.26h-2.94v3.53c0,.08-.35,.34-.89,.34h-.19v-3.86h-.55l-.11-.35h.66v-.49l1.22,.49h2.79v-1.01h-1.97v.22c0,.11-.48,.35-.94,.35h-.16v-4.16l.52,.2-.11-.85h-2.18l-.1-.35h2.23l-.17-1.3,1.49,.12c-.01,.13-.1,.25-.34,.32l.12,.85h.54l.59-.79s.67,.55,1.07,.95c-.02,.13-.16,.19-.31,.19h-1.83l.08,.64c-.14,.18-.47,.29-.86,.31l.44,.18h4.86l.55-.58,1.15,.88c-.07,.1-.25,.19-.48,.24v2.64c-.01,.1-.55,.36-.92,.36h-.18v-.42h-2.01v1.01h2.84l.52-.6Zm-6.4-3.18v1.04h1.97v-1.04h-1.97Zm1.97,2.42v-1.03h-1.97v1.03h1.97Zm4.91-5.04s.68,.55,1.08,.95c-.02,.13-.14,.19-.31,.19h-2.39l-.12,.71c-.2,.16-.64,.22-1.1,.13l.13-.84h-1.27l-.1-.35h1.43l.2-1.31,1.48,.29c-.04,.14-.14,.28-.47,.29l-.12,.73h.98l.58-.79Zm-3.83,2.61v1.04h2.01v-1.04h-2.01Zm2.01,2.42v-1.03h-2.01v1.03h2.01Z"/>
    </g>
  </g>
</svg>