<?xml version="1.0" encoding="UTF-8"?>
<svg xmlns="http://www.w3.org/2000/svg" xmlns:xlink="http://www.w3.org/1999/xlink" viewBox="0 0 218.26 218.26">
  <defs>
    <style>
      .cls-1 {
        fill: url(#linear-gradient-2);
      }

      .cls-2 {
        fill: #604c3f;
      }

      .cls-3 {
        fill: url(#linear-gradient);
        mix-blend-mode: multiply;
        opacity: .5;
      }

      .cls-4 {
        isolation: isolate;
      }

      .cls-5 {
        fill: none;
        stroke: url(#linear-gradient-3);
        stroke-miterlimit: 10;
        stroke-width: 16px;
      }
    </style>
    <linearGradient id="linear-gradient" x1="-85.11" y1="113.39" x2="28.97" y2="108.13" gradientUnits="userSpaceOnUse">
      <stop offset=".03" stop-color="#fadaa3"/>
      <stop offset=".18" stop-color="#ae8657"/>
      <stop offset=".51" stop-color="#e7c690"/>
      <stop offset=".71" stop-color="#fff"/>
      <stop offset=".79" stop-color="#b48d5d"/>
      <stop offset=".95" stop-color="#fadaa3"/>
      <stop offset="1" stop-color="#b38c5b"/>
    </linearGradient>
    <linearGradient id="linear-gradient-2" x1="-40.05" y1="6.89" x2="321.16" y2="258.23" xlink:href="#linear-gradient"/>
    <linearGradient id="linear-gradient-3" x1="31.96" y1="31.96" x2="186.3" y2="186.3" gradientTransform="translate(109.13 -45.2) rotate(45)" xlink:href="#linear-gradient"/>
  </defs>
  <g class="cls-4">
    <g id="_圖層_2" data-name="圖層 2">
      <g id="_圖層_1-2" data-name="圖層 1">
        <g>
          <path class="cls-3" d="M11.69,109.13c0-9.72,1.44-19.12,4.1-27.99-.53-1.24-1-2.5-1.08-3.86-.07-1.19,.17-2.42-.17-3.57-.27-.93-.91-1.74-1.04-2.7-.19-1.36,.66-2.62,1.05-3.93,.29-.96,.28-2.05-.06-2.98-6.52,13.65-10.18,28.93-10.18,45.04s3.55,30.9,9.88,44.39c.42-1.43,.63-2.95,.68-4.43,.11-3.28-.43-6.54-.54-9.82-.04-1.37,.13-2.96,.94-3.96-2.33-8.33-3.58-17.11-3.58-26.18Z"/>
          <g>
            <circle class="cls-1" cx="110.88" cy="111.91" r="99.16"/>
            <circle class="cls-5" cx="109.13" cy="109.13" r="101.13" transform="translate(-45.2 109.13) rotate(-45)"/>
            <g>
              <path class="cls-2" d="M87.73,95.91c-.24,.31-.55,.44-1.33,.48-1.6,5.63-5.02,10.89-11.61,13.93l-.31-.44c4.71-3.31,7.44-8.5,8.64-13.86h-7.54l-.31-.99h7.68l1.78-1.74,3,2.63Zm17.24-3.96c-.21,.34-.55,.51-1.33,.31-2.01,1.71-5.26,3.96-8.43,5.6,2.94,4.81,7.27,7.41,11.54,9.05l-.1,.38c-1.37,.27-2.36,1.4-2.77,2.97-5.56-3.48-9.52-8.12-11.47-17.68v16.28c0,2.32-.55,3.72-4.74,4.13-.14-1.02-.34-1.84-.92-2.35-.61-.51-1.47-.89-3.35-1.16v-.51s4.06,.31,4.92,.31c.65,0,.82-.27,.82-.79v-18.36h-8.5l-.31-.99h8.46l1.57-1.81,3.48,2.66c-.24,.27-.75,.55-1.43,.68v.1c.58,2.49,1.4,4.64,2.42,6.45,2.32-2.35,4.95-5.63,6.18-7.78l3.96,2.53Zm-20.31-10.55c13,.1,11.57,7.27,8.19,5.94-1.23-1.54-4.23-3.93-8.33-5.46l.14-.48Z"/>
              <path class="cls-2" d="M115.48,103.55c1.06,3.41,.61,6.01-.31,7.24-.65,.82-2.15,.99-2.7,.07-.41-.82-.03-1.71,.72-2.32,.89-.85,1.88-3.11,1.71-5.02l.58,.03Zm-3.04-4.44s.72-.14,1.02-.34c1.5-1.3,3.31-3.62,4.81-6.04-1.06,.41-2.25,.82-3.52,1.23-.21,.34-.44,.55-.75,.68l-1.5-3.62s.68-.17,.96-.34c1.71-1.88,3.92-6.76,4.64-9.35l3.99,2.01c-.14,.31-.55,.55-1.23,.48-1.4,2.25-3.89,5.33-6.14,7.37,1.26,0,2.87,0,4.51-.03,.75-1.33,1.37-2.56,1.77-3.55l3.65,2.39c-.17,.31-.61,.55-1.3,.41-1.81,2.59-5.26,6.28-8.36,8.81,1.74-.1,4.06-.27,6.52-.44-.34-1.26-.82-2.49-1.3-3.38l.44-.17c6.18,3.65,3.34,8.33,1.23,6.18,0-.51-.07-1.09-.17-1.64-1.88,.68-4.44,1.57-7.13,2.39-.27,.27-.55,.51-.85,.61l-1.3-3.65Zm5.56,3.89c4.74,4.44,1.64,8.84-.21,6.45,.34-2.05,.14-4.61-.27-6.35l.48-.1Zm3.14-.68c6.04,3.21,3.45,7.92,1.3,5.87,.03-1.88-.82-4.2-1.74-5.67l.44-.21Zm1.6,10.24c2.7-1.4,5.94-3.82,7.54-5.43l3.31,2.32c-.27,.34-.58,.44-1.3,.2-2.18,1.19-5.94,2.56-9.22,3.35l-.34-.44Zm.92-28.23h8.16v-3l4.13,.38c-.07,.48-.38,.79-1.19,.92v1.71h4.16l1.67-2.08s1.88,1.47,3.07,2.53c-.1,.38-.44,.55-.92,.55h-7.99v2.46h2.7l1.57-1.95s1.77,1.37,2.9,2.39c-.1,.38-.44,.55-.92,.55h-15.19l-.27-.99h6.28v-2.46h-7.92l-.24-.99Zm17.24,4.78l2.8,2.12c-.17,.2-.55,.41-1.06,.48v4.3c-.03,.24-1.43,.82-2.36,.82h-.03l1.98,1.54c-.17,.21-.58,.44-1.13,.55v8.06c-.03,.24-1.47,.96-2.42,.96h-.51v-.99h-9.28v.55c0,.21-.89,.85-2.32,.85h-.48v-11.26c-.27,.07-.61,.1-.96,.1l-.44-.03v-7.89l2.94,1.23h11.91l1.37-1.37Zm-1.09,7.37v-.75h-12.42v.55c0,.07-.17,.24-.44,.41l2.18,.85h8.77l1.4-1.47,.51,.41Zm-12.42-5.02v3.28h2.87v-3.28h-2.87Zm1.5,8.88h9.28v-1.81h-9.28v1.81Zm0,2.8h9.28v-1.81h-9.28v1.81Zm9.28,2.8v-1.81h-9.28v1.81h9.28Zm-3.14-11.2v-3.28h-2.63v3.28h2.63Zm-.55,12.97c13.35,1.37,8.06,7.17,5.6,4.61-.99-1.3-2.94-2.9-5.77-4.16l.17-.44Zm2.7-16.25v3.28h2.63v-3.28h-2.63Z"/>
            </g>
            <g>
              <path class="cls-2" d="M58.82,127.12c.22,.33,.48,.61,.79,.83,.31,.22,.74,.5,1.29,.83,.6,.36,1.07,.67,1.39,.9,.32,.24,.6,.54,.84,.91,.23,.37,.35,.81,.35,1.32,0,.55-.14,1.04-.41,1.48s-.67,.79-1.2,1.05c-.53,.26-1.16,.38-1.9,.38-.88,0-1.68-.2-2.41-.6-.06-.03-.09-.07-.11-.12-.02-.05-.03-.11-.04-.2l-.22-2.32s.01-.07,.08-.08,.1,0,.11,.05c.18,.82,.52,1.53,1.02,2.12,.5,.59,1.15,.89,1.97,.89,.57,0,1.05-.16,1.44-.47s.59-.81,.59-1.49c0-.51-.11-.96-.34-1.33s-.5-.69-.83-.93c-.32-.24-.76-.53-1.32-.86-.55-.33-.98-.61-1.29-.85-.31-.24-.58-.54-.79-.9-.22-.36-.32-.79-.32-1.28,0-.57,.15-1.06,.45-1.46,.3-.4,.69-.71,1.18-.9,.48-.2,1-.3,1.54-.3,.67,0,1.34,.14,2,.41,.17,.06,.26,.15,.26,.29l.12,1.96s-.03,.07-.08,.07-.09-.02-.1-.07c-.09-.59-.34-1.14-.73-1.65s-.97-.76-1.72-.76c-.64,0-1.11,.19-1.43,.55-.31,.37-.47,.83-.47,1.37,0,.44,.11,.83,.33,1.16Z"/>
              <path class="cls-2" d="M72.68,124.17s-.05-.03-.05-.1,.02-.1,.05-.1l.73,.02c.41,.02,.73,.03,.97,.03,.19,0,.47-.01,.84-.03l.72-.02s.03,.03,.03,.1-.01,.1-.03,.1c-.91,0-1.37,.56-1.37,1.67v4.85c0,1.31-.36,2.33-1.09,3.06-.73,.73-1.71,1.1-2.94,1.1-.84,0-1.58-.17-2.21-.49-.63-.33-1.12-.8-1.47-1.41-.35-.61-.52-1.32-.52-2.14v-5.46c0-.34-.03-.59-.1-.75-.07-.16-.2-.27-.4-.33s-.51-.09-.95-.09c-.02,0-.03-.03-.03-.1s.01-.1,.03-.1l.84,.02c.48,.02,.87,.03,1.16,.03,.32,0,.72-.01,1.2-.03l.82-.02s.05,.03,.05,.1-.02,.1-.05,.1c-.42,0-.73,.03-.94,.1s-.34,.19-.41,.35-.1,.42-.1,.76v4.83c0,1.33,.3,2.35,.91,3.06,.61,.71,1.46,1.07,2.55,1.07,1.02,0,1.82-.32,2.39-.96s.85-1.53,.85-2.67v-4.87c0-1.11-.5-1.67-1.49-1.67Z"/>
              <path class="cls-2" d="M79,127.12c.22,.33,.48,.61,.79,.83,.31,.22,.74,.5,1.29,.83,.6,.36,1.07,.67,1.39,.9,.32,.24,.6,.54,.84,.91,.23,.37,.35,.81,.35,1.32,0,.55-.14,1.04-.41,1.48s-.67,.79-1.2,1.05c-.53,.26-1.16,.38-1.9,.38-.88,0-1.68-.2-2.41-.6-.06-.03-.09-.07-.11-.12-.02-.05-.03-.11-.04-.2l-.22-2.32s.01-.07,.08-.08,.1,0,.11,.05c.18,.82,.52,1.53,1.02,2.12,.5,.59,1.15,.89,1.97,.89,.57,0,1.05-.16,1.44-.47s.59-.81,.59-1.49c0-.51-.11-.96-.34-1.33s-.5-.69-.83-.93c-.32-.24-.76-.53-1.32-.86-.55-.33-.98-.61-1.29-.85-.31-.24-.58-.54-.79-.9-.22-.36-.32-.79-.32-1.28,0-.57,.15-1.06,.45-1.46,.3-.4,.69-.71,1.18-.9,.48-.2,1-.3,1.54-.3,.67,0,1.34,.14,2,.41,.17,.06,.26,.15,.26,.29l.12,1.96s-.03,.07-.08,.07-.09-.02-.1-.07c-.09-.59-.34-1.14-.73-1.65s-.97-.76-1.72-.76c-.64,0-1.11,.19-1.43,.55-.31,.37-.47,.83-.47,1.37,0,.44,.11,.83,.33,1.16Z"/>
              <path class="cls-2" d="M86.19,124.81c-.36,.36-.62,.98-.78,1.86,0,.02-.03,.03-.09,.03s-.09-.01-.09-.03c.05-.41,.1-.94,.15-1.6,.06-.66,.08-1.15,.08-1.48,0-.06,.03-.09,.09-.09s.09,.03,.09,.09c0,.25,.31,.38,.92,.38,.97,.03,2.11,.05,3.43,.05,.67,0,1.38-.01,2.13-.03l1.16-.02c.41,0,.71-.03,.91-.09,.2-.06,.33-.17,.38-.34,.01-.05,.05-.07,.1-.07s.09,.02,.09,.07c-.03,.33-.07,.83-.1,1.5-.03,.67-.05,1.22-.05,1.64,0,.02-.03,.03-.1,.03s-.1-.01-.1-.03c-.03-.89-.22-1.51-.55-1.87-.33-.36-.88-.54-1.64-.54-.51,0-.88,.02-1.09,.07-.22,.05-.36,.14-.44,.29-.08,.15-.12,.4-.12,.75v7.87c0,.35,.04,.61,.12,.77,.08,.16,.23,.27,.46,.32s.59,.08,1.08,.08c.03,0,.05,.03,.05,.1s-.02,.1-.05,.1c-.38,0-.68,0-.9-.02l-1.33-.02-1.28,.02c-.23,.01-.54,.02-.94,.02-.02,0-.03-.03-.03-.1s.01-.1,.03-.1c.49,0,.85-.03,1.08-.08s.38-.17,.47-.33,.13-.42,.13-.76v-7.9c0-.35-.04-.6-.12-.74-.08-.14-.23-.23-.44-.27s-.58-.06-1.09-.06c-.72,0-1.25,.18-1.61,.55Z"/>
              <path class="cls-2" d="M106.21,134.53c0,.07-.02,.1-.07,.1-.22,0-.55-.01-1.01-.03-.46-.02-.79-.03-.99-.03-.25,0-.57,.01-.96,.03-.36,.02-.64,.03-.84,.03-.05,0-.07-.03-.07-.1s.02-.1,.07-.1c.42,0,.73-.04,.92-.12s.29-.22,.29-.41c0-.16-.07-.4-.22-.73l-1.52-3.23h-4.06l-1.08,2.53c-.16,.39-.24,.7-.24,.94,0,.35,.14,.61,.42,.78,.28,.17,.7,.25,1.25,.25,.06,0,.08,.03,.08,.1s-.03,.1-.08,.1c-.21,0-.5-.01-.89-.03-.43-.02-.81-.03-1.13-.03-.3,0-.64,.01-1.02,.03-.34,.02-.63,.03-.85,.03-.06,0-.08-.03-.08-.1s.03-.1,.08-.1c.32,0,.59-.06,.81-.18,.22-.12,.43-.33,.63-.63,.2-.3,.42-.74,.66-1.31l3.6-8.5s.06-.05,.12-.05,.09,.02,.1,.05l4.03,8.48c.39,.84,.72,1.41,.99,1.7,.27,.29,.6,.44,.97,.44,.04,0,.07,.03,.07,.1Zm-8.31-4.93h3.77l-2-4.22-1.77,4.22Z"/>
              <path class="cls-2" d="M109.69,134.01c.07,.17,.2,.28,.4,.33s.51,.08,.95,.08c.03,0,.05,.03,.05,.1s-.02,.1-.05,.1c-.34,0-.61,0-.82-.02l-1.21-.02-1.18,.02c-.21,.01-.48,.02-.84,.02-.03,0-.05-.03-.05-.1s.02-.1,.05-.1c.43,0,.75-.03,.95-.08,.2-.06,.33-.17,.41-.33s.11-.42,.11-.76v-7.9c0-.34-.04-.59-.11-.75-.07-.16-.21-.27-.41-.33-.2-.06-.52-.09-.95-.09-.03,0-.05-.03-.05-.1s.02-.1,.05-.1l.84,.02c.48,.02,.87,.03,1.18,.03,.34,0,.75-.01,1.23-.03l.8-.02s.05,.03,.05,.1-.02,.1-.05,.1c-.42,0-.73,.03-.93,.1s-.33,.19-.41,.35-.11,.42-.11,.76v7.87c0,.34,.03,.59,.1,.76Z"/>
              <path class="cls-2" d="M123.93,124.06c0,.07-.02,.1-.05,.1-.48,0-.83,.13-1.04,.39s-.32,.69-.32,1.28v9s-.03,.04-.08,.05c-.06,.01-.1,0-.12-.02l-7.85-9.51-.15-.17v7.58c0,.59,.1,1.02,.32,1.27,.21,.26,.55,.38,1.02,.38,.03,0,.05,.03,.05,.1s-.02,.1-.05,.1c-.29,0-.5,0-.65-.02l-.85-.02-.87,.02c-.16,.01-.39,.02-.7,.02-.02,0-.03-.03-.03-.1s.01-.1,.03-.1c.49,0,.84-.13,1.04-.38s.31-.68,.31-1.27v-7.99c-.44-.41-.89-.61-1.35-.61-.03,0-.05-.03-.05-.1s.02-.1,.05-.1l.63,.02c.14,.01,.32,.02,.56,.02s.46,0,.61-.02,.29-.02,.38-.02,.16,.02,.2,.06c.04,.04,.11,.13,.2,.26,.14,.21,.27,.39,.41,.56l6.57,8.07v-7.08c0-.59-.1-1.02-.3-1.28s-.53-.39-1-.39c-.02,0-.03-.03-.03-.1s.01-.1,.03-.1l.67,.02c.34,.02,.62,.03,.84,.03,.2,0,.49-.01,.85-.03l.7-.02s.05,.03,.05,.1Z"/>
              <path class="cls-2" d="M136.27,134.53c0,.07-.02,.1-.07,.1-.22,0-.55-.01-1.01-.03-.46-.02-.79-.03-.99-.03-.25,0-.57,.01-.96,.03-.36,.02-.64,.03-.84,.03-.05,0-.07-.03-.07-.1s.02-.1,.07-.1c.42,0,.73-.04,.92-.12s.29-.22,.29-.41c0-.16-.07-.4-.22-.73l-1.52-3.23h-4.06l-1.08,2.53c-.16,.39-.24,.7-.24,.94,0,.35,.14,.61,.42,.78,.28,.17,.7,.25,1.25,.25,.06,0,.08,.03,.08,.1s-.03,.1-.08,.1c-.21,0-.5-.01-.89-.03-.43-.02-.81-.03-1.13-.03-.3,0-.64,.01-1.02,.03-.34,.02-.63,.03-.85,.03-.06,0-.08-.03-.08-.1s.03-.1,.08-.1c.32,0,.59-.06,.81-.18,.22-.12,.43-.33,.63-.63,.2-.3,.42-.74,.66-1.31l3.6-8.5s.06-.05,.12-.05,.09,.02,.1,.05l4.03,8.48c.39,.84,.72,1.41,.99,1.7,.27,.29,.6,.44,.97,.44,.04,0,.07,.03,.07,.1Zm-8.31-4.93h3.77l-2-4.22-1.77,4.22Z"/>
              <path class="cls-2" d="M144.09,129.52c.55,.53,.83,1.19,.83,1.97,0,.6-.15,1.15-.44,1.64s-.7,.87-1.22,1.15c-.52,.28-1.09,.42-1.73,.42-.38,0-.79-.02-1.23-.05-.16-.01-.35-.02-.56-.03-.22-.01-.46-.02-.72-.02l-1.16,.02c-.21,.01-.5,.02-.87,.02-.02,0-.03-.03-.03-.1s.01-.1,.03-.1c.42,0,.73-.03,.94-.09,.21-.06,.35-.17,.43-.33,.08-.16,.12-.41,.12-.75v-7.9c0-.34-.04-.59-.11-.75-.07-.16-.21-.27-.41-.33s-.51-.09-.93-.09c-.03,0-.05-.03-.05-.1s.02-.1,.05-.1l.84,.02c.48,.02,.86,.03,1.16,.03,.2,0,.39,0,.57-.02s.33-.02,.45-.03c.35-.03,.68-.05,.99-.05,.96,0,1.67,.21,2.15,.62,.48,.42,.72,.96,.72,1.63,0,.55-.18,1.03-.53,1.46-.35,.43-.84,.76-1.45,1,.9,.07,1.62,.37,2.18,.9Zm-4.09-5.27c-.15,.05-.26,.16-.32,.32s-.1,.44-.1,.81v3.24l.77,.02c.83,0,1.45-.21,1.84-.64s.6-.99,.6-1.7c0-.64-.17-1.15-.52-1.54-.35-.39-.88-.59-1.6-.59-.3,0-.52,.03-.67,.08Zm3.12,9.51c.4-.43,.61-1.04,.61-1.83,0-.86-.25-1.56-.76-2.1-.51-.53-1.2-.81-2.09-.82-.36-.01-.8,0-1.3,.03v4.22c0,.3,.04,.52,.13,.68,.08,.16,.25,.28,.49,.35,.25,.07,.6,.11,1.07,.11,.83,0,1.45-.21,1.85-.64Z"/>
              <path class="cls-2" d="M148.93,133.18c0,.33,.03,.57,.1,.72,.07,.15,.19,.25,.38,.3,.18,.05,.48,.08,.89,.08h1.86c.65,0,1.17-.2,1.55-.6,.39-.4,.64-.95,.77-1.66,0-.03,.03-.05,.09-.04,.06,0,.09,.03,.09,.06-.1,.94-.15,1.72-.15,2.34,0,.09-.02,.16-.05,.2s-.1,.06-.21,.06h-7.89s-.03-.03-.03-.1,.01-.1,.03-.1c.43,0,.75-.03,.95-.08s.33-.17,.4-.33,.1-.42,.1-.76v-7.9c0-.34-.03-.59-.1-.75-.07-.16-.2-.27-.4-.33s-.52-.09-.95-.09c-.02,0-.03-.03-.03-.1s.01-.1,.03-.1l.84,.02c.48,.02,.87,.03,1.16,.03,.32,0,.72-.01,1.19-.03l.82-.02s.05,.03,.05,.1-.02,.1-.05,.1c-.42,0-.73,.03-.93,.09s-.34,.18-.41,.34-.11,.42-.11,.76v7.82Z"/>
              <path class="cls-2" d="M163.05,132.05s.06,0,.09,.02c.03,.01,.04,.03,.04,.05-.1,.72-.15,1.47-.15,2.25,0,.09-.02,.16-.06,.2s-.11,.06-.21,.06h-7.15s-.03-.03-.03-.1,.01-.1,.03-.1c.43,0,.75-.03,.95-.08,.2-.06,.33-.17,.41-.33s.11-.42,.11-.76v-7.9c0-.34-.04-.59-.11-.75-.07-.16-.21-.27-.41-.33-.2-.06-.52-.09-.95-.09-.02,0-.03-.03-.03-.1s.01-.1,.03-.1h6.86c.1,0,.15,.05,.15,.15l.03,2.1s-.03,.05-.09,.06-.09,0-.1-.04c-.03-.6-.22-1.07-.55-1.41-.33-.34-.77-.5-1.31-.5h-1.04c-.4,0-.69,.03-.88,.09-.19,.06-.32,.17-.39,.32-.07,.15-.11,.38-.11,.69v3.47h2.08c.55,0,.94-.09,1.17-.27,.23-.18,.35-.49,.35-.92,0-.02,.03-.03,.1-.03s.1,.01,.1,.03l-.02,1.38c0,.33,0,.58,.02,.75l.02,.82s-.03,.03-.1,.03-.1-.01-.1-.03c0-.5-.12-.86-.37-1.08-.25-.22-.65-.32-1.22-.32h-2.03v3.93c0,.32,.03,.55,.1,.7s.19,.25,.38,.31c.18,.06,.47,.09,.85,.09h1.37c.55,0,1-.19,1.37-.58,.36-.39,.61-.92,.73-1.6,0-.02,.02-.03,.07-.03Z"/>
            </g>
          </g>
        </g>
      </g>
    </g>
  </g>
</svg>