<?xml version="1.0" encoding="UTF-8"?>
<svg xmlns="http://www.w3.org/2000/svg" xmlns:xlink="http://www.w3.org/1999/xlink" viewBox="0 0 218.26 218.26">
  <defs>
    <style>
      .cls-1 {
        fill: url(#linear-gradient-2);
      }

      .cls-2 {
        fill: #604c3f;
      }

      .cls-3 {
        fill: url(#linear-gradient-3);
        mix-blend-mode: multiply;
        opacity: .5;
      }

      .cls-4 {
        isolation: isolate;
      }

      .cls-5 {
        fill: none;
        stroke: url(#linear-gradient);
        stroke-miterlimit: 10;
        stroke-width: 16px;
      }
    </style>
    <linearGradient id="linear-gradient" x1="31.96" y1="31.96" x2="186.3" y2="186.3" gradientTransform="translate(109.13 -45.2) rotate(45)" gradientUnits="userSpaceOnUse">
      <stop offset=".03" stop-color="#fadaa3"/>
      <stop offset=".18" stop-color="#ae8657"/>
      <stop offset=".51" stop-color="#e7c690"/>
      <stop offset=".71" stop-color="#fff"/>
      <stop offset=".79" stop-color="#b48d5d"/>
      <stop offset=".95" stop-color="#fadaa3"/>
      <stop offset="1" stop-color="#b38c5b"/>
    </linearGradient>
    <linearGradient id="linear-gradient-2" x1="-40.05" y1="6.89" x2="321.16" y2="258.23" gradientTransform="matrix(1, 0, 0, 1, 0, 0)" xlink:href="#linear-gradient"/>
    <linearGradient id="linear-gradient-3" x1="-85.11" y1="113.39" x2="28.97" y2="108.13" gradientTransform="matrix(1, 0, 0, 1, 0, 0)" xlink:href="#linear-gradient"/>
  </defs>
  <g class="cls-4">
    <g id="_圖層_2" data-name="圖層 2">
      <g id="_圖層_1-2" data-name="圖層 1">
        <g>
          <circle class="cls-5" cx="109.13" cy="109.13" r="101.13" transform="translate(-45.2 109.13) rotate(-45)"/>
          <g>
            <circle class="cls-1" cx="110.88" cy="111.91" r="99.16"/>
            <path class="cls-3" d="M11.69,109.13c0-9.72,1.44-19.12,4.1-27.99-.53-1.24-1-2.5-1.08-3.86-.07-1.19,.17-2.42-.17-3.57-.27-.93-.91-1.74-1.04-2.7-.19-1.36,.66-2.62,1.05-3.93,.29-.96,.28-2.05-.06-2.98-6.52,13.65-10.18,28.93-10.18,45.04s3.55,30.9,9.88,44.39c.42-1.43,.63-2.95,.68-4.43,.11-3.28-.43-6.54-.54-9.82-.04-1.37,.13-2.96,.94-3.96-2.33-8.33-3.58-17.11-3.58-26.18Z"/>
            <g>
              <path class="cls-2" d="M84.31,86.04s1.67,1.33,2.7,2.32c-.1,.38-.44,.55-.89,.55h-11.16l-.27-.99h8.19l1.43-1.88Zm-2.42,6.21l1.37-1.71s1.5,1.23,2.42,2.15c-.07,.38-.41,.55-.85,.55h-8.71l-.27-.99h6.04Zm-5.77,5.36l-.27-.99h5.97l1.33-1.71s1.5,1.23,2.46,2.15c-.1,.38-.41,.55-.89,.55h-8.6Zm8.71,12.83c-.03,.24-1.33,.92-2.25,.92h-.44v-1.57h-3.31v2.05c0,.27-1.2,.89-2.32,.89h-.41v-13.04l2.87,1.23h2.83l1.4-1.47,2.9,2.22c-.21,.24-.68,.51-1.26,.61v8.16Zm-7.41-28.5c7.75,.99,5.22,6.55,2.25,4.61-.38-1.5-1.57-3.31-2.56-4.4l.31-.21Zm4.71,26.86v-6.9h-3.31v6.9h3.31Zm23.72,.72c.89,1.67,1.06,2.53,.58,2.97-1.26,1.09-3.41-.27-4.54-1.71-1.09-1.26-1.98-2.76-2.7-4.4-2.05,2.66-4.64,4.78-7.95,6.49l-.34-.58c3.17-2.22,5.56-4.92,7.37-8.23-.82-2.59-1.37-5.5-1.74-8.64-.2,.24-.61,.38-1.19,.48-.14,7.03-.31,9.93-1.43,10.96-.61,.55-1.4,.79-2.29,.82,0-.51-.14-1.19-.44-1.5-.27-.34-.89-.61-1.57-.79v-.55c.65,.07,1.64,.14,2.05,.14,.24,0,.34-.07,.44-.24,.48-.61,.65-3.17,.78-9.18h-2.83v.14c0,5.19-.31,12.39-5.22,17.27l-.48-.34c2.73-5.05,2.94-11.33,2.94-16.93v-8.5l3.24,1.33h5.53c-.07-2.25-.1-4.57-.1-6.96l4.23,.51c-.03,.44-.34,.85-1.23,.96-.03,1.84-.03,3.69,0,5.5h2.73l1.64-2.05c-.14-.07-.24-.14-.34-.21-.31-1.26-1.47-2.76-2.42-3.65l.31-.24c6.21,.61,5.19,4.51,3.04,4.27,.68,.51,1.88,1.54,2.73,2.32-.07,.38-.41,.55-.92,.55h-6.76c.14,3.75,.44,7.37,1.13,10.51,.85-2.22,1.5-4.74,2.05-7.54l3.96,1.16c-.14,.44-.48,.61-1.37,.61-.96,3.58-2.12,6.62-3.62,9.28,.61,1.71,1.47,3.21,2.53,4.4,.44,.55,.58,.55,.92-.14,.41-.85,1.06-2.49,1.54-3.86l.38,.07-.61,5.5Zm-9.32-14.23c-.2-1.88-.34-3.79-.44-5.77h-6.04v5.05h2.49l1.4-1.43,2.59,2.15Z"/>
              <path class="cls-2" d="M123.85,82.63c-.14,.41-.58,.72-1.37,.72-.89,2.56-1.98,4.98-3.21,7.17l1.54,.58c-.1,.31-.41,.55-1.06,.65v20.24c-.03,.24-1.37,.99-2.59,.99h-.61v-18.06c-1.26,1.71-2.63,3.24-4.1,4.57l-.44-.31c2.76-4.33,5.6-11.26,7.07-17.99l4.78,1.43Zm17.17,2.42s2.15,1.71,3.41,2.94c-.1,.38-.44,.55-.89,.55h-21.44l-.27-.99h17.31l1.88-2.49Zm-16.76,8.23l-.27-.99h13.38l1.78-2.29s1.95,1.6,3.14,2.73c-.07,.38-.41,.55-.92,.55h-17.1Zm14.85,1.54s1.98,1.57,3.17,2.73c-.1,.38-.44,.55-.92,.55h-16.93l-.27-.99h13.18l1.78-2.29Zm.07,5.02l3.35,2.59c-.21,.24-.72,.55-1.37,.68v8.5c-.03,.27-1.64,.92-2.73,.92h-.51v-2.35h-10.17v1.81c0,.27-1.4,.99-2.73,.99h-.44v-12.8l3.38,1.4h9.63l1.6-1.74Zm-1.26,9.39v-6.66h-10.17v6.66h10.17Zm-8.33-28.26c8.57,1.6,5.8,8.02,2.7,5.73-.27-1.91-1.71-4.16-3-5.5l.31-.24Z"/>
            </g>
            <g>
              <path class="cls-2" d="M84.99,134.53c0,.07-.02,.1-.05,.1-.35,0-.63,0-.84-.02l-1.18-.02-1.26,.02c-.19,.01-.46,.02-.8,.02-.03,0-.05-.03-.05-.1s.02-.1,.05-.1c.44,0,.77-.03,.97-.08s.34-.17,.42-.33,.11-.42,.11-.76v-3.99h-6.55v3.99c0,.34,.04,.59,.11,.76s.21,.28,.42,.33c.21,.06,.53,.08,.97,.08,.02,0,.03,.03,.03,.1s-.01,.1-.03,.1c-.35,0-.63,0-.84-.02l-1.23-.02-1.18,.02c-.21,.01-.49,.02-.85,.02-.02,0-.03-.03-.03-.1s.01-.1,.03-.1c.43,0,.75-.03,.96-.08,.21-.06,.35-.17,.43-.33s.11-.42,.11-.76v-7.9c0-.34-.04-.59-.11-.75-.07-.16-.21-.27-.42-.33s-.52-.09-.96-.09c-.02,0-.03-.03-.03-.1s.01-.1,.03-.1l.87,.02c.48,.02,.86,.03,1.14,.03,.33,0,.75-.01,1.25-.03l.82-.02s.03,.03,.03,.1-.01,.1-.03,.1c-.43,0-.75,.03-.96,.1s-.35,.19-.43,.35-.11,.42-.11,.76v3.52h6.55v-3.52c0-.34-.04-.59-.11-.76s-.21-.28-.42-.35-.53-.1-.97-.1c-.03,0-.05-.03-.05-.1s.02-.1,.05-.1l.8,.02c.5,.02,.92,.03,1.26,.03,.31,0,.7-.01,1.18-.03l.84-.02s.05,.03,.05,.1-.02,.1-.05,.1c-.43,0-.75,.03-.96,.09s-.34,.17-.42,.33c-.07,.16-.11,.41-.11,.75v7.9c0,.34,.04,.59,.11,.76s.21,.28,.42,.33,.52,.08,.96,.08c.03,0,.05,.03,.05,.1Z"/>
              <path class="cls-2" d="M88.99,134.09c-.83-.5-1.46-1.17-1.91-2.01-.45-.85-.67-1.77-.67-2.77,0-1.17,.3-2.18,.89-3.01s1.35-1.47,2.28-1.89c.93-.42,1.88-.63,2.84-.63,1.08,0,2.03,.25,2.85,.76s1.45,1.18,1.89,2.01c.44,.83,.66,1.71,.66,2.65,0,1.04-.27,1.99-.82,2.85-.55,.87-1.28,1.55-2.19,2.05-.92,.5-1.91,.75-2.98,.75s-2-.25-2.82-.74Zm5.51-.18c.62-.38,1.11-.93,1.47-1.66,.36-.73,.54-1.59,.54-2.59,0-1.07-.2-2.02-.6-2.85-.4-.83-.96-1.48-1.68-1.95s-1.57-.7-2.54-.7c-1.25,0-2.23,.4-2.94,1.21-.71,.81-1.06,1.92-1.06,3.33,0,1.07,.2,2.05,.6,2.93,.4,.88,.96,1.58,1.67,2.08s1.53,.76,2.44,.76c.77,0,1.47-.19,2.09-.56Z"/>
              <path class="cls-2" d="M110.71,124.06c0,.07-.02,.1-.05,.1-.48,0-.83,.13-1.04,.39s-.32,.69-.32,1.28v9s-.03,.04-.08,.05c-.06,.01-.1,0-.12-.02l-7.85-9.51-.15-.17v7.58c0,.59,.1,1.02,.32,1.27,.21,.26,.55,.38,1.02,.38,.03,0,.05,.03,.05,.1s-.02,.1-.05,.1c-.29,0-.5,0-.65-.02l-.85-.02-.87,.02c-.16,.01-.39,.02-.7,.02-.02,0-.03-.03-.03-.1s.01-.1,.03-.1c.49,0,.84-.13,1.04-.38s.31-.68,.31-1.27v-7.99c-.44-.41-.89-.61-1.35-.61-.03,0-.05-.03-.05-.1s.02-.1,.05-.1l.63,.02c.14,.01,.32,.02,.56,.02s.46,0,.61-.02,.29-.02,.38-.02,.16,.02,.2,.06c.04,.04,.11,.13,.2,.26,.14,.21,.27,.39,.41,.56l6.57,8.07v-7.08c0-.59-.1-1.02-.3-1.28s-.53-.39-1-.39c-.02,0-.03-.03-.03-.1s.01-.1,.03-.1l.67,.02c.34,.02,.62,.03,.84,.03,.2,0,.49-.01,.85-.03l.7-.02s.05,.03,.05,.1Z"/>
              <path class="cls-2" d="M119.23,132.05s.06,0,.09,.02c.03,.01,.04,.03,.04,.05-.1,.72-.15,1.47-.15,2.25,0,.09-.02,.16-.06,.2s-.11,.06-.21,.06h-7.15s-.03-.03-.03-.1,.01-.1,.03-.1c.43,0,.75-.03,.95-.08,.2-.06,.33-.17,.41-.33s.11-.42,.11-.76v-7.9c0-.34-.04-.59-.11-.75-.07-.16-.21-.27-.41-.33-.2-.06-.52-.09-.95-.09-.02,0-.03-.03-.03-.1s.01-.1,.03-.1h6.86c.1,0,.15,.05,.15,.15l.03,2.1s-.03,.05-.09,.06-.09,0-.1-.04c-.03-.6-.22-1.07-.55-1.41-.33-.34-.77-.5-1.31-.5h-1.04c-.4,0-.69,.03-.88,.09-.19,.06-.32,.17-.39,.32-.07,.15-.11,.38-.11,.69v3.47h2.08c.55,0,.94-.09,1.17-.27,.23-.18,.35-.49,.35-.92,0-.02,.03-.03,.1-.03s.1,.01,.1,.03l-.02,1.38c0,.33,0,.58,.02,.75l.02,.82s-.03,.03-.1,.03-.1-.01-.1-.03c0-.5-.12-.86-.37-1.08-.25-.22-.65-.32-1.22-.32h-2.03v3.93c0,.32,.03,.55,.1,.7s.19,.25,.38,.31c.18,.06,.47,.09,.85,.09h1.37c.55,0,1-.19,1.37-.58,.36-.39,.61-.92,.73-1.6,0-.02,.02-.03,.07-.03Z"/>
              <path class="cls-2" d="M123.02,127.12c.22,.33,.48,.61,.79,.83,.31,.22,.74,.5,1.29,.83,.6,.36,1.07,.67,1.39,.9,.32,.24,.6,.54,.84,.91,.23,.37,.35,.81,.35,1.32,0,.55-.14,1.04-.41,1.48s-.67,.79-1.2,1.05c-.53,.26-1.16,.38-1.9,.38-.88,0-1.68-.2-2.41-.6-.06-.03-.09-.07-.11-.12-.02-.05-.03-.11-.04-.2l-.22-2.32s.01-.07,.08-.08,.1,0,.11,.05c.18,.82,.52,1.53,1.02,2.12,.5,.59,1.15,.89,1.97,.89,.57,0,1.05-.16,1.44-.47s.59-.81,.59-1.49c0-.51-.11-.96-.34-1.33s-.5-.69-.83-.93c-.32-.24-.76-.53-1.32-.86-.55-.33-.98-.61-1.29-.85-.31-.24-.58-.54-.79-.9-.22-.36-.32-.79-.32-1.28,0-.57,.15-1.06,.45-1.46,.3-.4,.69-.71,1.18-.9,.48-.2,1-.3,1.54-.3,.67,0,1.34,.14,2,.41,.17,.06,.26,.15,.26,.29l.12,1.96s-.03,.07-.08,.07-.09-.02-.1-.07c-.09-.59-.34-1.14-.73-1.65s-.97-.76-1.72-.76c-.64,0-1.11,.19-1.43,.55-.31,.37-.47,.83-.47,1.37,0,.44,.11,.83,.33,1.16Z"/>
              <path class="cls-2" d="M130.21,124.81c-.36,.36-.62,.98-.78,1.86,0,.02-.03,.03-.09,.03s-.09-.01-.09-.03c.05-.41,.1-.94,.15-1.6,.06-.66,.08-1.15,.08-1.48,0-.06,.03-.09,.09-.09s.09,.03,.09,.09c0,.25,.31,.38,.92,.38,.97,.03,2.11,.05,3.43,.05,.67,0,1.38-.01,2.13-.03l1.16-.02c.41,0,.71-.03,.91-.09,.2-.06,.33-.17,.38-.34,.01-.05,.05-.07,.1-.07s.09,.02,.09,.07c-.03,.33-.07,.83-.1,1.5-.03,.67-.05,1.22-.05,1.64,0,.02-.03,.03-.1,.03s-.1-.01-.1-.03c-.03-.89-.22-1.51-.55-1.87-.33-.36-.88-.54-1.64-.54-.51,0-.88,.02-1.09,.07-.22,.05-.36,.14-.44,.29-.08,.15-.12,.4-.12,.75v7.87c0,.35,.04,.61,.12,.77,.08,.16,.23,.27,.46,.32s.59,.08,1.08,.08c.03,0,.05,.03,.05,.1s-.02,.1-.05,.1c-.38,0-.68,0-.9-.02l-1.33-.02-1.28,.02c-.23,.01-.54,.02-.94,.02-.02,0-.03-.03-.03-.1s.01-.1,.03-.1c.49,0,.85-.03,1.08-.08s.38-.17,.47-.33,.13-.42,.13-.76v-7.9c0-.35-.04-.6-.12-.74-.08-.14-.23-.23-.44-.27s-.58-.06-1.09-.06c-.72,0-1.25,.18-1.61,.55Z"/>
              <path class="cls-2" d="M149.93,124.06c0,.07-.01,.1-.03,.1-.41,0-.83,.15-1.25,.45-.42,.3-.8,.71-1.13,1.24l-2.29,3.52v3.87c0,.35,.03,.61,.1,.77,.07,.16,.2,.27,.4,.32s.51,.08,.95,.08c.03,0,.05,.03,.05,.1s-.02,.1-.05,.1c-.35,0-.63,0-.82-.02l-1.19-.02-1.18,.02c-.21,.01-.48,.02-.84,.02-.03,0-.05-.03-.05-.1s.02-.1,.05-.1c.43,0,.75-.03,.95-.08s.34-.17,.41-.33c.07-.17,.11-.42,.11-.76v-3.6l-2.83-4.15c-.32-.5-.62-.85-.91-1.04s-.61-.29-.99-.29c-.03,0-.05-.03-.05-.1s.02-.1,.05-.1c.14,0,.34,.01,.61,.03l.6,.02c.39,0,.88-.01,1.47-.03l.92-.02s.03,.03,.03,.1-.01,.1-.03,.1c-.59,0-.89,.12-.89,.36,0,.12,.06,.27,.17,.43l2.75,4.03,2.08-3.19c.25-.4,.38-.73,.38-1.01,0-.41-.31-.61-.92-.61-.02,0-.03-.03-.03-.1s.01-.1,.03-.1l.8,.02c.43,.02,.83,.03,1.2,.03,.19,0,.43-.01,.7-.03l.63-.02s.03,.03,.03,.1Z"/>
            </g>
          </g>
        </g>
      </g>
    </g>
  </g>
</svg>