<?xml version="1.0" encoding="UTF-8"?>
<svg id="_圖層_2" data-name="圖層 2" xmlns="http://www.w3.org/2000/svg" viewBox="0 0 41.01 67.75">
  <defs>
    <style>
      .cls-1 {
        fill: #fff;
      }
    </style>
  </defs>
  <g id="_圖層_1-2" data-name="圖層 1">
    <g>
      <path class="cls-1" d="M24.29,62.19h-7.67c-2.42-.01-4.37-1.98-4.37-4.4v-13.34c-.85-1.56-1.8-3.06-2.84-4.5C5.92,34.76,.64,26.91,.14,21.79c-.65-5.3,1.04-10.62,4.64-14.57C8.71,2.83,14.86,0,20.42,0c6.33,.07,12.33,2.86,16.45,7.67,3.36,3.9,4.78,9.11,3.86,14.17-1.04,5.75-6.08,13.25-9.41,18.22-1,1.37-1.9,2.81-2.68,4.32v13.41c0,2.41-1.94,4.38-4.36,4.4ZM20.4,1.61c-5.56,.21-10.8,2.62-14.57,6.69C2.53,11.92,.97,16.8,1.57,21.67c.49,4.75,5.65,12.4,9.07,17.46,2.32,3.43,3.1,4.63,3.1,5.36v13.36c-.01,1.56,1.25,2.84,2.82,2.85,0,0,0,0,0,0h7.68c1.57-.01,2.83-1.29,2.83-2.86v-13.46c0-.71,.77-1.88,2.94-5.12,3.27-4.86,8.2-12.21,9.19-17.63,.84-4.61-.47-9.36-3.54-12.91-3.82-4.45-9.38-7.05-15.26-7.12h0Z"/>
      <path class="cls-1" d="M30.59,46.54H10.31c-.36,0-.69-.24-.77-.6-.12-.52,.26-.97,.75-.97H30.57c.36,0,.69,.24,.77,.6,.12,.52-.26,.97-.75,.97Z"/>
      <path class="cls-1" d="M18.3,51.08h-5.3c-.36,0-.69-.24-.77-.6-.12-.52,.27-.98,.76-.98h5.3c.36,0,.69,.24,.77,.6,.12,.52-.27,.98-.76,.98Z"/>
      <path class="cls-1" d="M27.92,57.19h-5.39c-.36,0-.69-.24-.77-.6-.12-.52,.27-.98,.76-.98h5.39c.36,0,.69,.24,.77,.6,.12,.52-.27,.98-.76,.98Z"/>
      <path class="cls-1" d="M20.43,67.75h-.05c-2.24,0-4.05-1.81-4.05-4.05v-2.99h8.15v2.99c0,2.24-1.81,4.05-4.05,4.05Zm-2.62-5.46v1.4c0,1.38,1.12,2.49,2.5,2.49h.09c1.38,0,2.5-1.12,2.5-2.49v-1.4h-5.09Z"/>
    </g>
  </g>
</svg>