<?xml version="1.0" encoding="UTF-8"?>
<svg id="_圖層_2" data-name="圖層 2" xmlns="http://www.w3.org/2000/svg" viewBox="0 0 48.16 62.34">
  <defs>
    <style>
      .cls-1 {
        fill: #fff;
      }
    </style>
  </defs>
  <g id="_圖層_1-2" data-name="圖層 1">
    <g id="Layer_2" data-name="Layer 2">
      <g id="Layer_1-2" data-name="Layer 1-2">
        <path class="cls-1" d="M43.17,23.56L25.67,.73c-.71-.86-1.99-.98-2.85-.26-.1,.08-.18,.17-.26,.26L5.06,23.56C-3.09,34.04-1.19,49.14,9.29,57.29s25.58,6.25,33.73-4.23c1.03-1.32,1.91-2.75,2.64-4.25,4.09-8.19,3.12-18-2.49-25.24Zm-1.01,23.33c-3.25,7.02-10.31,11.49-18.05,11.43-7.7,.08-14.74-4.32-18.05-11.28-3.47-6.84-2.67-15.08,2.06-21.12L24.11,5.09l15.98,20.85c4.73,6.04,5.53,14.28,2.06,21.12v-.16Zm-2.49-8.01c0,8.59-6.96,15.56-15.56,15.56-1.07,0-1.94-.87-1.94-1.94s.87-1.94,1.94-1.94c6.44,0,11.67-5.22,11.67-11.67,0-1.07,.87-1.94,1.94-1.94s1.94,.87,1.94,1.94Z"/>
      </g>
    </g>
  </g>
</svg>