<?xml version="1.0" encoding="UTF-8"?>
<svg id="_圖層_2" data-name="圖層 2" xmlns="http://www.w3.org/2000/svg" viewBox="0 0 67.18 67.18">
  <defs>
    <style>
      .cls-1 {
        fill: #fff;
      }
    </style>
  </defs>
  <g id="_圖層_1-2" data-name="圖層 1">
    <g id="Layer">
      <g>
        <path class="cls-1" d="M37.84,67.18h-8.49c-.58,0-1.07-.42-1.17-.99l-1.16-7.21c-2.37-.61-4.63-1.55-6.73-2.79l-5.92,4.28c-.47,.34-1.12,.29-1.53-.12l-6-6c-.41-.41-.46-1.06-.12-1.53l4.28-5.92c-1.24-2.11-2.18-4.37-2.79-6.73l-7.21-1.16c-.57-.09-.99-.59-.99-1.17v-8.49c0-.58,.42-1.07,.99-1.17l7.21-1.16c.61-2.37,1.55-4.63,2.79-6.73l-4.28-5.92c-.34-.47-.29-1.12,.12-1.53l6-6c.41-.41,1.06-.46,1.53-.12l5.92,4.28c2.11-1.25,4.37-2.18,6.73-2.79l1.16-7.21c.09-.57,.59-.99,1.17-.99h8.49c.58,0,1.07,.42,1.17,.99l1.16,7.21c2.37,.61,4.63,1.55,6.73,2.79l5.92-4.28c.47-.34,1.12-.29,1.53,.12l6,6c.41,.41,.46,1.06,.12,1.53l-4.28,5.92c1.25,2.11,2.18,4.37,2.79,6.73l7.21,1.16c.57,.09,.99,.59,.99,1.17v8.49c0,.58-.42,1.07-.99,1.17l-7.21,1.16c-.61,2.37-1.55,4.63-2.79,6.73l4.28,5.92c.34,.47,.29,1.12-.12,1.53l-6,6c-.41,.41-1.06,.46-1.53,.12l-5.92-4.28c-2.11,1.24-4.37,2.18-6.73,2.79l-1.16,7.21c-.09,.57-.59,.99-1.17,.99Zm-7.44-2.38h6.48l1.13-6.99c.08-.48,.44-.86,.91-.97,2.65-.6,5.16-1.64,7.47-3.09,.41-.26,.93-.24,1.32,.04l5.74,4.15,4.58-4.58-4.15-5.74c-.28-.39-.3-.92-.04-1.32,1.46-2.3,2.5-4.82,3.1-7.47,.11-.47,.49-.83,.97-.91l6.99-1.13v-6.48l-6.99-1.13c-.48-.08-.86-.44-.97-.91-.6-2.65-1.64-5.16-3.09-7.47-.26-.41-.24-.93,.04-1.32l4.15-5.74-4.58-4.58-5.74,4.15c-.39,.28-.92,.3-1.32,.04-2.3-1.46-4.81-2.5-7.47-3.09-.47-.11-.83-.49-.91-.97l-1.13-6.99h-6.48l-1.13,6.99c-.08,.48-.44,.86-.91,.97-2.65,.6-5.16,1.64-7.47,3.09-.41,.26-.93,.24-1.32-.04l-5.74-4.15-4.58,4.58,4.15,5.74c.28,.39,.3,.92,.04,1.32-1.46,2.3-2.5,4.81-3.09,7.47-.11,.47-.49,.83-.97,.91l-6.99,1.13v6.48l6.99,1.13c.48,.08,.86,.44,.97,.91,.6,2.65,1.64,5.16,3.09,7.47,.26,.41,.24,.93-.04,1.32l-4.15,5.74,4.58,4.58,5.74-4.15c.39-.28,.92-.3,1.32-.04,2.3,1.46,4.82,2.5,7.47,3.09,.47,.11,.83,.49,.91,.97l1.13,6.99Z"/>
        <path class="cls-1" d="M33.6,51.74c-10.02,0-18.18-8.16-18.18-18.18S23.58,15.38,33.6,15.38s18.18,8.16,18.18,18.18-8.16,18.18-18.18,18.18Zm0-33.99c-8.72,0-15.82,7.09-15.82,15.82s7.09,15.82,15.82,15.82,15.82-7.09,15.82-15.82-7.09-15.82-15.82-15.82Z"/>
      </g>
    </g>
  </g>
</svg>