<?xml version="1.0" encoding="UTF-8"?>
<svg id="_圖層_2" data-name="圖層 2" xmlns="http://www.w3.org/2000/svg" viewBox="0 0 52.12 46.08">
  <defs>
    <style>
      .cls-1 {
        fill: #fff;
      }
    </style>
  </defs>
  <g id="_圖層_1-2" data-name="圖層 1">
    <g>
      <path class="cls-1" d="M26.06,46.08c-.82,0-1.59-.32-2.17-.9L4.4,25.69C-1.47,19.82-1.47,10.27,4.4,4.4,7.24,1.56,11.02,0,15.05,0s7.8,1.56,10.64,4.4l.37,.37,.37-.37c2.84-2.84,6.62-4.4,10.64-4.4s7.81,1.56,10.65,4.4c5.87,5.87,5.87,15.42,0,21.29l-19.49,19.49c-.58,.58-1.35,.9-2.17,.9ZM15.05,2.16c-3.45,0-6.69,1.34-9.12,3.77-2.43,2.43-3.77,5.67-3.77,9.12s1.34,6.69,3.77,9.12l19.49,19.49c.17,.17,.4,.26,.64,.26,.24,0,.47-.09,.65-.27l19.49-19.49c2.43-2.43,3.77-5.67,3.77-9.12s-1.34-6.69-3.77-9.12c-2.43-2.43-5.67-3.77-9.12-3.77s-6.68,1.34-9.12,3.77l-1.9,1.9-1.9-1.9c-2.43-2.43-5.67-3.77-9.12-3.77Z"/>
      <path class="cls-1" d="M26.06,45.36c-.6,0-1.2-.23-1.66-.69L4.91,25.18C-.68,19.59-.68,10.5,4.91,4.91,10.5-.68,19.59-.68,25.18,4.91l.88,.88,.88-.88c5.59-5.59,14.68-5.59,20.27,0,5.59,5.59,5.59,14.68,0,20.27l-19.49,19.49c-.46,.46-1.06,.69-1.66,.69Zm-1.15-1.19c.64,.63,1.67,.63,2.31,0l19.49-19.49c5.31-5.31,5.31-13.95,0-19.25C41.4,.11,32.76,.11,27.45,5.42l-1.39,1.39-1.39-1.39C19.36,.11,10.73,.11,5.42,5.42,2.85,7.99,1.44,11.41,1.44,15.05s1.41,7.06,3.98,9.63l19.49,19.49Z"/>
    </g>
  </g>
</svg>