<?xml version="1.0" encoding="UTF-8"?>
<svg id="_圖層_2" data-name="圖層 2" xmlns="http://www.w3.org/2000/svg" viewBox="0 0 51.9 37.85">
  <defs>
    <style>
      .cls-1 {
        fill: #fff;
      }

      .cls-2 {
        stroke: #fff;
        stroke-miterlimit: 10;
        stroke-width: .75px;
      }

      .cls-2, .cls-3 {
        fill: none;
      }
    </style>
  </defs>
  <g id="_圖層_1-2" data-name="圖層 1">
    <g>
      <rect class="cls-2" x=".38" y="28.95" width="51.15" height="8.52" rx="3" ry="3"/>
      <g>
        <path class="cls-3" d="M36.37,.36c-.49,0-.89,.4-.89,.89V7.7c.61,.36,1.2,.74,1.78,1.15V1.24c0-.49-.4-.89-.89-.89Z"/>
        <path class="cls-3" d="M22.69,5.32l-.05,1.09c1.08-.22,2.18-.37,3.31-.37s2.23,.15,3.31,.37l-.05-1.09c-1.07-.2-2.15-.34-3.26-.34s-2.19,.14-3.26,.34Z"/>
        <path class="cls-3" d="M12.75,19.71c0,.49,.4,.89,.89,.89s.89-.4,.89-.89V10.1c-.62,.45-1.2,.94-1.78,1.45v8.16Z"/>
        <path class="cls-3" d="M13.64,.36c-.49,0-.89,.4-.89,.89V10.34c.57-.5,1.17-.97,1.78-1.41V1.24c0-.49-.4-.89-.89-.89Z"/>
        <path class="cls-3" d="M35.48,19.71c0,.49,.4,.89,.89,.89s.89-.4,.89-.89V10.13c-.57-.44-1.17-.85-1.78-1.23v10.82Z"/>
        <path class="cls-3" d="M22.64,6.41l-1.1,22.01h8.82l-1.1-22.01c-1.08-.22-2.18-.37-3.31-.37s-2.23,.15-3.31,.37Z"/>
        <path class="cls-3" d="M22.9,1.07l-.21,4.25c1.07-.2,2.15-.34,3.26-.34s2.19,.14,3.26,.34l-.21-4.25h-6.09Z"/>
        <path class="cls-1" d="M3.39,29.66l1.01-.71c0-5.77,2.82-11.92,7.28-16.4v-1.21C6.62,16.29,3.39,23.34,3.39,29.66Z"/>
        <path class="cls-1" d="M12.75,11.55c.57-.51,1.16-1,1.78-1.45v-1.17c-.61,.44-1.2,.91-1.78,1.41v1.21Z"/>
        <path class="cls-1" d="M15.59,8.21v1.16c1.85-1.21,3.85-2.16,5.97-2.74l.05-1.1c-2.14,.54-4.15,1.48-6.03,2.68Z"/>
        <path class="cls-1" d="M38.32,9.67v1.33c5.52,4.74,9.12,12.11,9.12,18.66h1.07c0-7.08-4.05-15.07-10.18-19.99Z"/>
        <path class="cls-1" d="M35.48,8.9c.61,.38,1.2,.79,1.78,1.23v-1.28c-.58-.41-1.17-.79-1.78-1.15v1.2Z"/>
        <path class="cls-1" d="M30.29,5.53l.05,1.1c1.42,.38,2.78,.96,4.08,1.67v-1.18c-1.32-.68-2.7-1.22-4.13-1.58Z"/>
        <path class="cls-1" d="M22.9,1.07h6.09l.21,4.25c.36,.07,.72,.13,1.08,.21l-.28-5.53h-8.12l-.28,5.53c.35-.09,.72-.15,1.08-.21l.21-4.25Z"/>
        <path class="cls-1" d="M30.36,28.42h-8.82l1.1-22.01c-.36,.07-.72,.13-1.08,.22l-1.14,22.85h11.07l-1.14-22.85c-.35-.1-.72-.15-1.08-.22l1.1,22.01Z"/>
        <path class="cls-1" d="M29.21,5.32l.05,1.09c.36,.07,.72,.13,1.08,.22l-.05-1.1c-.35-.09-.72-.15-1.08-.21Z"/>
        <path class="cls-1" d="M22.69,5.32c-.36,.07-.72,.13-1.08,.21l-.05,1.1c.35-.1,.72-.15,1.08-.22l.05-1.09Z"/>
        <path class="cls-1" d="M14.52,19.71c0,.49-.4,.89-.89,.89s-.89-.4-.89-.89V11.55c-.36,.32-.72,.65-1.07,1v7.17c0,1.08,.88,1.95,1.95,1.95s1.95-.88,1.95-1.95V9.37c-.36,.24-.72,.47-1.07,.73v9.62Z"/>
        <path class="cls-1" d="M14.52,8.93v1.17c.35-.26,.71-.49,1.07-.73v-1.16c-.36,.23-.72,.46-1.07,.72Z"/>
        <path class="cls-1" d="M12.75,11.55v-1.21c-.37,.32-.72,.66-1.07,1v1.21c.34-.35,.7-.67,1.07-1Z"/>
        <path class="cls-1" d="M37.26,19.71c0,.49-.4,.89-.89,.89s-.89-.4-.89-.89V8.9c-.35-.22-.71-.41-1.07-.6v11.42c0,1.08,.88,1.95,1.95,1.95s1.95-.88,1.95-1.95V11c-.35-.3-.7-.6-1.07-.87v9.59Z"/>
        <path class="cls-1" d="M37.26,8.85v1.28c.36,.28,.72,.57,1.07,.87v-1.33c-.35-.28-.7-.56-1.07-.82Z"/>
        <path class="cls-1" d="M35.48,7.7c-.35-.2-.71-.4-1.07-.58v1.18c.36,.19,.72,.39,1.07,.6v-1.2Z"/>
      </g>
    </g>
  </g>
</svg>