<?xml version="1.0" encoding="UTF-8"?>
<svg id="_圖層_2" data-name="圖層 2" xmlns="http://www.w3.org/2000/svg" viewBox="0 0 205.32 60.26">
  <defs>
    <style>
      .cls-1, .cls-2 {
        fill: #fff;
      }

      .cls-2 {
        fill-rule: evenodd;
      }
    </style>
  </defs>
  <g id="_圖層_2-2" data-name="圖層 2">
    <g>
      <polygon class="cls-1" points="176.24 12.22 170.97 27.34 179.32 27.34 179.32 59.14 196.38 59.14 196.38 27.34 205.32 27.34 205.32 12.22 176.24 12.22"/>
      <polygon class="cls-2" points="156.89 12.18 149.62 32.85 144.1 12.18 131.25 12.18 125.73 32.85 118.46 12.18 101.12 12.18 117.49 59.1 131.61 59.1 137.67 36.27 143.74 59.1 157.86 59.1 174.23 12.18 156.89 12.18"/>
      <path class="cls-2" d="M95.48,35.02c3.49-2.18,5.81-6.06,5.81-10.48,0-6.82-5.53-12.35-12.35-12.35h-25.56V59.1h28.06c6.84,0,12.38-5.54,12.38-12.38,0-5.42-3.49-10.03-8.35-11.71m-17.79-11.2h4.57c1.36,0,2.47,1.41,2.47,3.15s-1.1,3.15-2.47,3.15h-4.57v-6.31Zm6.98,24.99h-6.93v-6.86h6.93c1.52,0,2.75,1.54,2.75,3.43s-1.23,3.43-2.75,3.43"/>
      <path class="cls-2" d="M42.49,18.64l-.02-.02L9.31,0V5.9L0,.97V38.34c0,12.11,9.81,21.92,21.92,21.92,2.46,0,4.82-.41,7.03-1.16,.92,.12,1.85,.19,2.81,.19,12.01,0,21.74-9.73,21.74-21.74,0-8.1-4.43-15.16-11.01-18.9M21.92,56.92c-10.26,0-18.59-8.32-18.59-18.59V6.42l10.37,5.76v26.15c0,4.54,3.68,8.22,8.22,8.22s8.22-3.68,8.22-8.22c0-3.74-2.5-6.89-5.91-7.89v-10.55c9.18,1.14,16.28,8.96,16.28,18.44,0,10.27-8.32,18.59-18.59,18.59"/>
    </g>
  </g>
</svg>