<?xml version="1.0" encoding="UTF-8"?>
<svg id="_圖層_2" data-name="圖層 2" xmlns="http://www.w3.org/2000/svg" viewBox="0 0 224.76 66.69">
  <defs>
    <style>
      .cls-1 {
        fill: #fff;
      }
    </style>
  </defs>
  <g id="_圖層_4" data-name="圖層 4">
    <g>
      <path class="cls-1" d="M19.14,3.9c.23-.05,.52,.02,.84,.21,.52,.33,.98,.63,1.41,.91,.66,.56,1.12,1.15,1.41,1.76,.52,1.03,.54,2.56,.07,4.57-.52,2.06-1.64,4.31-3.38,6.75-4.45,6.14-10.08,12.26-16.88,18.35-.56,.47-1.05,.73-1.48,.77-.47,.05-.8-.07-.98-.35-.28-.42-.19-.8,.28-1.12,8.95-8.44,15.14-15.42,18.56-20.95,1.17-1.92,1.83-3.52,1.97-4.78,.05-1.12-.09-1.99-.42-2.6-.33-.42-.87-.84-1.62-1.27-.47-.19-.73-.44-.77-.77-.05-.23,.02-.52,.21-.84,.19-.37,.45-.59,.77-.63Zm-6.75,25.38c-.61,.38-.98,.33-1.12-.14-.09-.33,.21-.73,.91-1.2,.61-.37,1.08-.84,1.41-1.41,.33-.47,.7-.54,1.12-.21,.38,.33,.66,1.01,.84,2.04,.19,.66,.14,1.99-.14,4.01-.52,3.66-.8,6.56-.84,8.72-.19,3.98-.49,7.27-.91,9.84-.33,2.44-.4,3.94-.21,4.5,.19,.52,.28,1.27,.28,2.25-.05,.94-.24,1.41-.56,1.41-.42-.05-.7,.07-.84,.35-.09,.28-.24,.35-.42,.21-.19-.09-.38-.63-.56-1.62-.19-1.55-.19-3.16,0-4.85,.47-2.58,.73-5.06,.77-7.45,.19-3.23,.56-6.98,1.12-11.25,.28-2.77,.4-4.43,.35-4.99-.09-.47-.49-.54-1.2-.21Zm40.78-.56c-.05,.66-.31,1.01-.77,1.05-.94,.19-2.13,.87-3.59,2.04-2.06,1.64-4.17,3.19-6.33,4.64,.28,1.36,.19,3.3-.28,5.84,2.3-.75,5.16-1.57,8.58-2.46,.47-.09,.68-.3,.63-.63-.05-.33,.09-.56,.42-.7,.42-.14,.98-.12,1.69,.07,.61,.14,1.29,.24,2.04,.28,.52,0,.68,.24,.49,.7-.19,.33-.26,.66-.21,.98-.05,.47-.31,.68-.77,.63-.56,.05-1.64,.24-3.23,.56-4.45,1.17-7.88,2.18-10.27,3.02-.05,.19-.09,.42-.14,.7-1.69,5.44-4.03,9.45-7.03,12.02-3.05,2.58-5.72,3.94-8.02,4.08-.98,.33-1.92,.26-2.81-.21-.42-.42-.7-.87-.84-1.34-.24-.52-.21-.8,.07-.84,.33-.14,.59-.14,.77,0,.52,.56,.98,.87,1.41,.91,.7,.19,1.71-.02,3.02-.63,2.16-.94,4.17-2.46,6.05-4.57,2.06-2.3,3.73-5.3,4.99-9,0-.19,.02-.3,.07-.35-.33,.05-.52,.09-.56,.14-4.69,1.69-8.18,2.7-10.48,3.02-2.02,.24-3.61-.16-4.78-1.2-.47-.42-.4-1.01,.21-1.76,.47-.42,.8-.54,.98-.35,1.27,.84,2.77,1.1,4.5,.77,2.39-.37,5.34-1.2,8.86-2.46,.47-.23,1.12-.44,1.97-.63,.52-2.3,.68-4.03,.49-5.2-3.33,2.06-6.77,3.89-10.34,5.48-.56,.24-.87,.19-.91-.14-.09-.28,0-.49,.28-.63,4.12-2.01,8.51-4.78,13.15-8.3,3-2.3,4.41-3.61,4.22-3.94-.19-.19-3.23,.8-9.14,2.95-4.64,1.73-7.55,2.7-8.72,2.88-.75,.09-1.22-.14-1.41-.7-.19-.47-.14-.87,.14-1.2,2.01-2.53,3.05-4.59,3.09-6.19,.05-1.08-.42-1.99-1.41-2.74-.14-.14-.12-.37,.07-.7-1.64,.42-3.05,.8-4.22,1.12-.66,.09-1.15-.02-1.48-.35-.33-.33-.42-.73-.28-1.2,.09-.33,.42-.56,.98-.7,1.83-.52,5.3-1.5,10.41-2.95,1.87-1.08,3.3-1.99,4.29-2.74,.94-.8,2.53-2.55,4.78-5.27,1.83-2.3,2.95-3.89,3.38-4.78,.09-.42-.02-.91-.35-1.48-.24-.14-.87-.14-1.9,0-1.12,.19-3.33,.8-6.61,1.83-3.09,.94-4.99,1.41-5.7,1.41-.7-.05-1.12-.42-1.27-1.12-.14-.75-.12-1.27,.07-1.55,.14-.14,.59-.12,1.34,.07,.7,.09,2.7-.23,5.98-.98,3.75-.94,6.28-1.43,7.59-1.48,1.41-.19,2.34,0,2.81,.56,.61,1.27,.75,2.39,.42,3.38-.52,1.03-1.71,2.7-3.59,4.99-2.16,2.53-3.87,4.38-5.13,5.55,1.55-.42,3.26-.77,5.13-1.05,2.95-.52,6.05-.84,9.28-.98,1.92-.09,3.61,.07,5.06,.49,.94,.33,1.5,.7,1.69,1.12,.19,.47,.12,.94-.21,1.41-.38,.52-.84,.61-1.41,.28-.84-.37-1.71-.63-2.6-.77-1.45-.23-3.4-.28-5.84-.14-2.77,.28-5.51,.66-8.23,1.12-3.42,.75-6.92,1.71-10.48,2.88-.89,.24-1.62,.49-2.18,.77,.05,.05,.14,.09,.28,.14,1.03,.66,1.57,1.71,1.62,3.16,.05,1.17-.49,2.7-1.62,4.57-.33,.75-.47,1.15-.42,1.2,.19,.19,1.15-.07,2.88-.77,7.69-3.14,13.29-4.85,16.8-5.13,1.83-.05,2.67,.45,2.53,1.48Zm4.08,29.18c1.22,1.22,1.85,2.06,1.9,2.53,.05,.33,.09,.52,.14,.56,.61,.7,.75,1.43,.42,2.18-.19,.56-.56,.75-1.12,.56-.38-.09-.94-.12-1.69-.07-.98,.09-1.83,.07-2.53-.07-.7-.19-1.03-.45-.98-.77,0-.33,.28-.49,.84-.49,1.78-.05,2.77-.24,2.95-.56,.28-.24-.45-1.2-2.18-2.88-3.09-3.19-6.77-5.65-11.04-7.38-.84-.37-1.2-.8-1.05-1.27,.19-.61,.87-.7,2.04-.28,4.83,1.88,8.93,4.52,12.3,7.95Z"/>
      <path class="cls-1" d="M87.44,38s-.05-.07,0-.07c.84-2.91,1.71-4.94,2.6-6.12,.23-.33,.52-.66,.84-.98-.56,.19-1.08,.38-1.55,.56-4.88,1.88-7.69,2.88-8.44,3.02-.8,.19-1.78,.14-2.95-.14-.75-.14-1.15-.59-1.2-1.34-.05-.56,.07-.94,.35-1.12,.33-.19,.63-.21,.91-.07,.7,.38,1.55,.47,2.53,.28,.33-.09,.8-.21,1.41-.35,3.28-1.45,6.91-3.87,10.9-7.24,.33-1.27,.66-2.6,.98-4.01-3.56,1.69-6.07,2.56-7.52,2.6-.7-.05-.98-.44-.84-1.2,.14-1.03,.52-1.52,1.12-1.48,1.31,.19,3.59-.49,6.82-2.04,.23-.19,.52-.3,.84-.35,.33-1.36,.59-2.69,.77-4.01-1.03,.28-2.13,.66-3.3,1.12-3.28,1.22-5.16,1.85-5.62,1.9-.52,.09-1.2,.05-2.04-.14-.7-.19-1.08-.63-1.12-1.34-.05-.56,.07-.94,.35-1.12,.33-.23,.66-.26,.98-.07,.47,.28,1.01,.35,1.62,.21,.75-.14,2.55-.73,5.41-1.76,1.5-.61,2.84-1.08,4.01-1.41,.19-2.44,.12-4.52-.21-6.26-.24-.94-.77-1.5-1.62-1.69-.89-.28-1.31-.66-1.27-1.12,.14-.75,.63-1.05,1.48-.91,.47,.05,.91,.07,1.34,.07,.94,0,1.62,.73,2.04,2.18,.47,1.69,.61,4.03,.42,7.03,.89-.37,1.64-.59,2.25-.63,1.73-.37,3.19-.47,4.36-.28,.61,.05,.98,.21,1.12,.49,.09,.33,0,.59-.28,.77-.28,.28-.45,.63-.49,1.05-.05,.47-.17,.73-.35,.77-.24,0-.49-.09-.77-.28-.28-.14-.66-.23-1.12-.28-.61-.05-1.5,.07-2.67,.35-.7,.14-1.5,.38-2.39,.7-.05,.19-.07,.42-.07,.7-.28,.98-.45,1.92-.49,2.81,1.64-.8,2.74-1.22,3.3-1.27,.56-.05,1.08,.02,1.55,.21,.19,.14,.38,.19,.56,.14,1.73,.19,1.94,.94,.63,2.25-.94,.98-1.99,1.97-3.16,2.95-1.69,1.31-3.19,2.56-4.5,3.73-.28,.89-.52,1.64-.7,2.25,2.91-1.12,5.16-1.85,6.75-2.18,2.58-.66,4.73-.84,6.47-.56,.61,.05,.98,.21,1.12,.49,.09,.33,0,.59-.28,.77-.28,.24-.42,.59-.42,1.05-.09,.47-.24,.73-.42,.77-.24,0-.49-.09-.77-.28-.38-.23-.94-.37-1.69-.42-.94,0-2.27,.21-4.01,.63-1.5,.28-3.54,.94-6.12,1.97-1.73,1.45-2.95,2.84-3.66,4.15-.38,.56-.7,1.29-.98,2.18,1.92-1.41,3.4-2.34,4.43-2.81,1.27-.75,2.34-1.22,3.23-1.41,1.27-.28,2.27-.26,3.02,.07,1.27,.61,2.06,2.06,2.39,4.36v8.09c.28-.23,.52-.44,.7-.63,.23-.28,.49-.4,.77-.35,.42,0,.7,.28,.84,.84,.19,.61,.05,1.08-.42,1.41-.66,.52-1.29,1.01-1.9,1.48,.09,3.8,.16,6.82,.21,9.07,0,2.91-.17,5.02-.49,6.33-.24,.8-.66,1.2-1.27,1.2-.98-.05-2.34-.63-4.08-1.76-1.97-1.27-3.38-2.46-4.22-3.59-.8-1.12-.89-1.66-.28-1.62,.61,0,1.15,.21,1.62,.63,2.91,2.44,4.8,3.63,5.7,3.59,.33-.14,.47-1.08,.42-2.81-.09-4.22-.12-7.05-.07-8.51v-.98c-2.39,1.27-5.06,2.39-8.02,3.38-.47,.05-.77,.05-.91,0-.42-.23-.61-.63-.56-1.2,.47-1.64,1.64-3.89,3.52-6.75,.61-.98,.75-1.57,.42-1.76-.28-.23-1.36,.14-3.23,1.12-1.59,.84-2.84,1.57-3.73,2.18-.42,4.5-.47,9.31-.14,14.41,.09,1.03-.02,1.48-.35,1.34-.33-.14-.63-.07-.91,.21-.33,.28-.59,.4-.77,.35-.28-.09-.4-.45-.35-1.05-.14-9.14,.38-16.55,1.55-22.22,0-.14,.02-.23,.07-.28Zm13.01-2.46c0-.98-.21-1.64-.63-1.97-.61-.28-1.41-.26-2.39,.07-.89,.33-1.9,.84-3.02,1.55-1.36,.7-3.05,1.97-5.06,3.8-.28,1.22-.52,2.53-.7,3.94,2.58-1.64,4.66-2.62,6.26-2.95,.75-.14,1.34-.05,1.76,.28,.66,.47,1.01,.98,1.05,1.55-.09,.7-.8,2.04-2.11,4.01-1.41,2.02-2.02,3.12-1.83,3.3,.33,.19,1.48-.16,3.45-1.05,1.22-.61,2.41-1.29,3.59-2.04-.05-2.44-.17-5.93-.35-10.48Zm-10.83-6.68c.61-.37,1.34-.66,2.18-.84,.09-.37,.21-.7,.35-.98-.94,.66-1.78,1.27-2.53,1.83Zm10.05-10.62c-.24-.23-1.43,.14-3.59,1.12-.24,1.03-.42,1.99-.56,2.88,2.91-2.48,4.29-3.82,4.15-4.01Zm26.86,45.84c-.52,1.73-1.2,2.6-2.04,2.6-.75,.05-1.5-.17-2.25-.63-5.62-2.72-9.28-4.95-10.97-6.68-.47-.52-.56-.91-.28-1.2,.28-.33,.63-.35,1.05-.07,3.56,2.53,6.35,4.24,8.37,5.13,1.97,.84,3.19,1.12,3.66,.84,.28-.09,.59-1.01,.91-2.74,.33-2.39,.47-5.77,.42-10.12-.19-3.23-.28-6.82-.28-10.76-1.59,.42-3.4,.98-5.41,1.69-4.22,1.41-6.63,2.13-7.24,2.18-.66,.14-1.5,.05-2.53-.28-.66-.14-1.01-.59-1.05-1.34-.05-.56,.07-.94,.35-1.12,.33-.19,.63-.19,.91,0,.56,.28,1.27,.4,2.11,.35,.94-.19,3.23-.87,6.89-2.04,2.25-.8,4.24-1.43,5.98-1.9v-4.99c-.05-.47-.07-.87-.07-1.2-.24,.05-.42,.09-.56,.14-2.91,.84-5.7,1.78-8.37,2.81-3.05,1.17-5.09,1.78-6.12,1.83-1.31,0-2.53-.16-3.66-.49-.56-.19-.87-.52-.91-.98-.09-.75,.02-1.29,.35-1.62,.23-.14,.45-.14,.63,0,.66,.42,1.57,.66,2.74,.7,1.27,.09,3.52-.44,6.75-1.62,3.33-1.17,6.14-2.04,8.44-2.6,.14-.09,.35-.14,.63-.14-.19-2.58-.45-3.96-.77-4.15-.33-.19-.56-.35-.7-.49-.98,.24-1.92,.49-2.81,.77-4.92,1.45-7.95,2.16-9.07,2.11-.7-.05-1.15-.42-1.34-1.12-.14-.75-.14-1.27,0-1.55,.19-.14,.66-.12,1.41,.07,1.03,.14,4.03-.44,9-1.76,.28-.09,.52-.14,.7-.14,.09-.23,.3-.37,.63-.42,4.45-3.14,7.59-5.62,9.42-7.45,1.12-1.22,1.69-2.06,1.69-2.53-.14-.61-1.12-1.2-2.95-1.76-1.08-.33-1.59-.7-1.55-1.12,.14-.52,.73-.75,1.76-.7,1.5,.05,2.88,.45,4.15,1.2,1.45,1.22,1.66,2.6,.63,4.15-2.02,2.11-5.09,4.59-9.21,7.45,2.81-.7,4.88-1.12,6.19-1.27,2.16-.23,3.61,.02,4.36,.77,.89,.89,1.34,1.78,1.34,2.67-.05,.66-.31,1.9-.77,3.73,.89,0,1.83,.02,2.81,.07,2.16,.19,3.82,.59,4.99,1.2,.66,.47,.84,.87,.56,1.2-.33,.42-.47,.84-.42,1.27,.05,.38-.31,.47-1.05,.28-.52-.09-2.2,.24-5.06,.98-1.12,.24-1.99,.26-2.6,.07-.28-.19-.4-.37-.35-.56,.05-.23,.16-.35,.35-.35,1.08-.09,2.34-.52,3.8-1.27,.19-.09,.3-.23,.35-.42-.05-.09-.94-.23-2.67-.42-.42-.05-.84-.05-1.27,0-.52,1.83-.98,3.19-1.41,4.08-.42,.7-.87,1.34-1.34,1.9,.56,.05,1.08,.09,1.55,.14,.7,.09,1.08,.28,1.12,.56,.09,.33,0,.59-.28,.77-.28,.24-.45,.56-.49,.98-.09,.47-.24,.73-.42,.77-.24,0-.49-.09-.77-.28-.33-.23-.8-.37-1.41-.42-.75-.05-1.9,.07-3.45,.35-.75,.14-1.57,.35-2.46,.63,.14,4.45,.3,9.24,.49,14.34,.14,4.03-.24,7.34-1.12,9.91Zm-12.02-45.49c.14-.05,.45-.3,.91-.77,.56-.7,1.12-1.43,1.69-2.18,.23-.47,.45-.47,.63,0,.19,.56,.19,1.08,0,1.55-.42,1.12-1.01,2.27-1.76,3.45-.28,.38-.49,.59-.63,.63-.56,.14-1.15,.12-1.76-.07-.56-.19-1.01-.49-1.34-.91-.38-.84-.59-1.64-.63-2.39-.09-.56-.14-1.01-.14-1.34-.09-.8-.05-1.27,.14-1.41,.28-.09,.59-.05,.91,.14,.38,.19,.59,.42,.63,.7,.7,1.78,1.15,2.65,1.34,2.6ZM129.56,1.79c.84,.09,1.43,.35,1.76,.77,.47,.56,.56,1.15,.28,1.76-.28,.7-.84,1.2-1.69,1.48-5.62,1.88-10.76,3.68-15.4,5.41-.61,.19-1.01,.19-1.2,0-.05-.14-.14-.19-.28-.14-.38,.05-.59-.09-.63-.42-.09-.33,.38-.7,1.41-1.12,.94-.52,2.46-1.2,4.57-2.04,2.3-.94,5.51-2.04,9.63-3.3,.66-.19,.91-.56,.77-1.12-.19-.89,.07-1.31,.77-1.27Zm-5.91,13.22c.14-.05,.45-.3,.91-.77,.56-.56,1.08-1.22,1.55-1.97,.23-.47,.45-.47,.63,0,.19,.56,.19,1.08,0,1.55-.28,.98-.8,2.04-1.55,3.16-.24,.38-.42,.59-.56,.63-.56,.19-1.15,.19-1.76,0-.56-.14-1.01-.42-1.34-.84-.38-.75-.63-1.5-.77-2.25-.14-.56-.21-1.01-.21-1.34-.14-.75-.12-1.2,.07-1.34,.23-.19,.52-.19,.84,0,.42,.19,.66,.42,.7,.7,.84,1.64,1.34,2.46,1.48,2.46Zm9.35,13.5c.66-.09,1.29-.14,1.9-.14,.38-1.64,.56-2.74,.56-3.3-.05-.56-.38-1.12-.98-1.69-.33-.23-1.34-.26-3.02-.07-1.22,.19-3.05,.59-5.48,1.2,.52,.7,.87,2.34,1.05,4.92,1.73-.42,3.73-.73,5.98-.91Zm-5.91,2.81c0,.47,.02,.94,.07,1.41v4.64c1.03-.33,1.92-.56,2.67-.7,.61-.14,1.2-.21,1.76-.21,.94-1.27,1.57-2.25,1.9-2.95,.33-.66,.66-1.71,.98-3.16-.66,0-1.34,.02-2.04,.07-1.97,.14-3.75,.45-5.34,.91Z"/>
      <path class="cls-1" d="M175.57,43.48c1.64,.98,3.05,1.99,4.22,3.02,.66,.56,1.08,.68,1.27,.35,.28-.37,.49-.35,.63,.07,.14,.47,.42,.98,.84,1.55,.52,.7,.68,1.15,.49,1.34-.24,.24-.38,.52-.42,.84-.09,.56-.52,.54-1.27-.07-2.49-2.16-4.88-3.89-7.17-5.2-1.5,1.92-2.84,3.19-4.01,3.8-1.78,.89-3.47,1.34-5.06,1.34-.84-.19-1.43-.59-1.76-1.2-.38-.66-.56-1.48-.56-2.46,0-.89-.02-1.55-.07-1.97,0-.61,.16-.91,.49-.91,.33,.05,.52,.31,.56,.77,.09,.84,.14,1.5,.14,1.97,.05,.52,.16,.98,.35,1.41,.19,.42,.52,.66,.98,.7,1.36,0,2.62-.35,3.8-1.05,1.27-.75,2.48-1.85,3.66-3.3-2.72-1.45-5.09-2.41-7.1-2.88-1.27-.33-1.69-1.22-1.27-2.67,.75-2.39,1.48-4.57,2.18-6.54-.7,.19-1.22,.35-1.55,.49-2.44,.61-4.29,.84-5.55,.7-1.69-.33-2.6-.59-2.74-.77-.14-.37,.09-.98,.7-1.83,.28-.33,.52-.4,.7-.21,.33,.33,.73,.52,1.2,.56,1.08,.14,2.74-.07,4.99-.63,.61-.28,1.69-.66,3.23-1.12,2.06-6.33,3.47-11.06,4.22-14.2,.84-3.98,1.17-6.56,.98-7.73-.09-.61-.31-1.01-.63-1.2-.94-.37-.75-.87,.56-1.48,1.03-.42,1.64-.4,1.83,.07,.28,.8,.4,2.11,.35,3.94-.14,2.3-.73,5.65-1.76,10.05-.84,2.91-1.78,6.07-2.81,9.49,2.39-1.03,5.44-2.27,9.14-3.73,.05-.8,.09-1.55,.14-2.25-.05-.61-.09-1.15-.14-1.62-.28-.94-.19-1.62,.28-2.04,.56-.42,1.08-.4,1.55,.07,.52,.47,.75,1.2,.7,2.18-.09,.84-.17,1.71-.21,2.6,.28-.14,.52-.23,.7-.28,.52-.28,.87-.66,1.05-1.12,.09-.14,.23-.21,.42-.21s.38,.31,.56,.91c.14,.56-.17,1.12-.91,1.69-.75,.33-1.43,.66-2.04,.98-.38,3.05-1.05,6.14-2.04,9.28-1.12,3.42-2.42,6.26-3.87,8.51Zm-6.33-12.23c-.14,.38-.28,.8-.42,1.27-1.5,3.94-2.23,6.05-2.18,6.33,.19,.33,.73,.66,1.62,.98,1.55,.56,3.47,1.48,5.77,2.74,1.36-2.25,2.55-5.09,3.59-8.51,.7-2.53,1.22-4.94,1.55-7.24-4.36,1.92-7.66,3.4-9.91,4.43Zm29.74-2.53c.33-1.17,.28-2.04-.14-2.6-.09-.09-.17-.16-.21-.21-4.92,2.02-8.39,3.02-10.41,3.02-.7-.09-.96-.52-.77-1.27,.19-.98,.59-1.45,1.2-1.41,2.11,.38,5.79-.63,11.04-3.02,.61-.37,1.22-.59,1.83-.63,.05-.42,.42-.61,1.12-.56h.21c.09-.05,.16-.07,.21-.07,.47-.23,1.22-.8,2.25-1.69,1.5-1.41,2.77-2.98,3.8-4.71,.89-1.5,1.5-2.91,1.83-4.22,.28-1.08,.33-1.71,.14-1.9-.47-.61-.47-1.2,0-1.76,.56-.61,1.05-.84,1.48-.7s.73,.66,.91,1.55c.23,.61,.19,1.5-.14,2.67-.38,1.55-.98,3.05-1.83,4.5-.98,1.55-2.2,3.12-3.66,4.71,1.12-.37,1.97-.59,2.53-.63,.56,0,1.08,.09,1.55,.28,.19,.14,.38,.21,.56,.21,1.73,.38,1.87,1.15,.42,2.32-1.41,1.17-2.91,2.32-4.5,3.45-3.05,1.83-5.72,3.52-8.02,5.06-.33,.7-.59,1.41-.77,2.11,3.33-1.17,7.48-2.32,12.45-3.45,1.87-.37,3.19-.49,3.94-.35,.52,.09,.8,.31,.84,.63,.09,.52-.28,1.12-1.12,1.83-1.03,.8-1.69,1.03-1.97,.7-.24-.28-.49-.42-.77-.42-.7,.05-2.46,.38-5.27,.98-3.89,.89-6.92,1.78-9.07,2.67-.84,1.97-1.78,4.01-2.81,6.12-.09,.14-.14,.24-.14,.28,0-.05,.02-.07,.07-.07,5.2-1.92,9.09-3.23,11.67-3.94,2.39-.56,3.94-.61,4.64-.14,1.08,.7,1.48,1.78,1.2,3.23-.52,1.97-2.13,4.71-4.85,8.23-.66,.75-1.22,1.43-1.69,2.04,.61,.38,1.2,.73,1.76,1.05,1.97,1.31,3.47,2.18,4.5,2.6,1.08,.42,2.11,.87,3.09,1.34,.89,.52,2.91,1.57,6.05,3.16,.98,.52,1.71,.94,2.18,1.27,.66,1.08,.61,1.64-.14,1.69-.61,.09-1.55,.52-2.81,1.27-1.27,.8-1.97,.98-2.11,.56-.19-.42-.07-.84,.35-1.27,.7-.7,1.08-1.22,1.12-1.55,.05-.42-.31-.73-1.05-.91-1.64-.7-3.05-1.36-4.22-1.97-1.22-.75-2.46-1.34-3.73-1.76-1.45-.52-3.02-1.34-4.71-2.46-.61-.42-1.29-.8-2.04-1.12-1.36,1.31-2.67,2.42-3.94,3.3-2.02,1.31-3.73,2.11-5.13,2.39-.89,.24-1.85,.21-2.88-.07-1.12,.33-2.18,.07-3.16-.77-.52-.37-.87-.77-1.05-1.2-.38-.75-.56-1.62-.56-2.6-.14,.09-.24,.21-.28,.35-2.49,2.91-4.38,4.59-5.7,5.06-1.55,.47-2.09-.23-1.62-2.11,.28-1.12,.52-1.71,.7-1.76,.23,.05,.38,.31,.42,.77,.14,.42,.45,.56,.91,.42,.75-.33,2.06-1.64,3.94-3.94,1.97-2.34,4.38-6.47,7.24-12.38,.61-1.45,1.22-2.77,1.83-3.94-4.36,1.83-7.59,2.98-9.7,3.45-1.03,.24-1.76,.19-2.18-.14-.42-.33-.66-.77-.7-1.34,.05-.75,.14-1.15,.28-1.2,.14-.05,.23-.07,.28-.07s.16,.02,.35,.07c4.17-1.45,8.93-3.82,14.27-7.1,.28-.75,.52-1.41,.7-1.97Zm-10.9-16.31c-.14-.19-.21-.35-.21-.49,.05-.33,.28-.4,.7-.21,.38,.14,.77,.12,1.2-.07,.33-.14,.59,.14,.77,.84,1.31,3.98,2.55,6,3.73,6.05,.56-.14,1.5-1.36,2.81-3.66,.23-.37,.45-.42,.63-.14,.33,.33,.47,.59,.42,.77-.33,1.41-1.05,3.02-2.18,4.85-.47,.56-1.05,.87-1.76,.91-.8-.05-1.36-.23-1.69-.56-1.5-1.69-2.84-4.17-4.01-7.45-.09-.37-.24-.66-.42-.84ZM211.01,.03c.8,.24,1.34,.56,1.62,.98,.38,.61,.4,1.22,.07,1.83-.42,.8-1.2,1.29-2.32,1.48-7.17,1.41-13.71,2.77-19.62,4.08-.66,.14-1.05,.07-1.2-.21,0-.09-.09-.14-.28-.14-.33,0-.52-.16-.56-.49,0-.33,.52-.66,1.55-.98,1.31-.42,3.33-.98,6.05-1.69,2.95-.75,7.17-1.57,12.66-2.46,.8-.09,1.17-.52,1.12-1.27,0-.89,.3-1.27,.91-1.12Zm-11.88,55.27c1.17-.75,2.34-1.69,3.52-2.81-1.41-.56-2.98-1.08-4.71-1.55-3-.8-5.23-1.1-6.68-.91-.47,.7-.91,1.41-1.34,2.11-.09,.38-.14,.8-.14,1.27-.09,.75,.16,1.62,.77,2.6,.56,.94,1.12,1.38,1.69,1.34,.28,.24,.94,.28,1.97,.14,1.31-.28,2.95-1.01,4.92-2.18Zm-8.37-18.56c1.41-.56,3.09-1.27,5.06-2.11,.28-.23,.63-.37,1.05-.42,.14-.47,.3-.87,.49-1.2-2.58,1.5-4.78,2.74-6.61,3.73Zm5.34,7.31c-.66,.24-1.2,.35-1.62,.35-.61,1.03-1.15,1.99-1.62,2.88,1.78,.19,4.43,.8,7.95,1.83,1.36,.38,2.6,.84,3.73,1.41,.84-.94,1.69-1.92,2.53-2.95,2.11-2.62,3.33-4.66,3.66-6.12,.19-.8,.12-1.36-.21-1.69-.24-.23-1.43-.05-3.59,.56-2.95,.8-6.56,2.04-10.83,3.73Zm2.67-33.61c-.14-.19-.21-.35-.21-.49,.05-.33,.28-.4,.7-.21,.33,.14,.73,.12,1.2-.07,.33-.14,.59,.14,.77,.84,.8,2.2,1.55,3.3,2.25,3.3,.47,.05,1.48-.77,3.02-2.46,.23-.28,.45-.28,.63,0,.19,.42,.26,.73,.21,.91-.47,1.17-1.29,2.42-2.46,3.73-.56,.47-1.15,.68-1.76,.63-.75-.05-1.29-.28-1.62-.7-.94-1.08-1.71-2.62-2.32-4.64-.09-.37-.24-.66-.42-.84Zm2.18,14.55c.52,.98,.56,2.27,.14,3.87-.05,0-.07,.02-.07,.07,6.14-3.94,9.12-6.12,8.93-6.54-.33-.42-3.33,.45-9,2.6Z"/>
    </g>
  </g>
</svg>