<?xml version="1.0" encoding="UTF-8"?>
<svg id="_圖層_2" data-name="圖層 2" xmlns="http://www.w3.org/2000/svg" viewBox="0 0 618.79 243.95">
  <defs>
    <style>
      .cls-1 {
        fill: #fff;
      }

      .cls-2 {
        fill: none;
        stroke: #e0bd76;
        stroke-miterlimit: 10;
      }

      .cls-3 {
        fill: #e0bd76;
      }
    </style>
  </defs>
  <g id="_圖層_4" data-name="圖層 4">
    <g>
      <g>
        <path class="cls-3" d="M31.63,96.99v-3.41h-7.82v3.07c0,.53-1.92,1.49-3.65,1.49h-.82v-18.19h-7.39v24.15h23.86l2.93-3.84s3.26,2.64,5.28,4.46c-.14,.53-.62,.77-1.34,.77H12.29l-1.54,2.45-4.8-2.98c.34-.38,.91-.86,1.44-1.25v-23.76H.38l-.38-1.34H7.39v-13.15l6.29,.67c-.1,.67-.58,1.15-1.73,1.34v11.14h7.39v-14.11l6.24,.62c-.1,.67-.48,1.2-1.78,1.39v12.1h7.82v-13.35l6.34,.62c-.14,.67-.53,1.15-1.78,1.34v11.38h1.58l2.64-3.55s3.07,2.4,4.85,4.13c-.1,.53-.58,.77-1.3,.77h-7.78v15.7c0,.43-2.02,1.34-3.7,1.34h-.86Zm0-4.8v-12.24h-7.82v12.24h7.82Z"/>
        <path class="cls-3" d="M77.57,84.42c3.89,3.94,11.19,6.29,17.71,7.3l-.05,.53c-1.82,.48-2.93,1.97-3.41,4.13-3.65-1.3-7.06-3.02-9.89-5.33l-.24,.05v16.56c0,.43-2.06,1.3-3.6,1.3h-.86v-19.39l3.36,.34c-1.73-1.58-3.17-3.41-4.27-5.47h-4.66c-1.39,2.06-3.22,3.84-5.38,5.42l3.74,.38c-.1,.58-.43,1.06-1.58,1.2v3.84c-.1,5.47-2.5,11.09-15.94,13.73l-.34-.58c9.94-3.26,11.81-8.26,11.81-13.25v-3.79c-3.7,2.26-8.11,3.94-13.15,5.14l-.34-.77c6.82-2.54,12.15-6.58,15.36-11.33h-4.32v1.06c0,.48-1.97,1.54-3.79,1.54h-.72v-21.79l4.85,2.02h21.99l2.26-2.45,4.8,3.6c-.34,.38-1.01,.82-2.02,1.01v15.84c-.05,.34-2.35,1.25-3.79,1.25h-.77v-2.06h-6.77Zm-16.03-15.84v6.38h8.98v-6.38h-8.98Zm0,14.45h8.98v-6.67h-8.98v6.67Zm13.39-14.45v6.38h9.41v-6.38h-9.41Zm9.41,14.45v-6.67h-9.41v6.67h9.41Z"/>
        <path class="cls-3" d="M111.94,97.95c3.94,3.94,9.26,4.8,18.91,4.8,5.23,0,9.46,0,14.74-.29v.58c-2.11,.43-3.22,2.26-3.5,4.46h-12.87c-9.74,0-13.87-2.02-18-7.87-.62-.96-1.1-.82-1.63,0-1.01,1.58-3.36,5.04-4.94,7.63,.14,.43-.1,.82-.43,1.1l-3.7-5.42c3.26-1.87,8.45-5.66,9.65-5.66h.24c8.98-4.9,18.34-12.58,23.33-19.87h-30.05l-.43-1.39h30.77l2.93-2.69,4.56,4.22c-.38,.48-.86,.62-2.16,.67-5.95,7.87-16.08,15.22-27.6,19.59l.19,.14Zm4.27-33.55c13.39,3.26,9.55,13.06,4.8,9.65-.53-3.22-2.98-7.01-5.28-9.31l.48-.34Z"/>
        <path class="cls-3" d="M188.16,75.73c.48-1.2,1.01-3.02,1.39-4.51h-7.97v5.23c0,.53,.1,.72,1.49,.72h3.79c1.44,0,2.83,0,3.41-.05,.43,0,.96-.05,1.2-.1,.34-.05,.86-.14,1.25-.24h.38l.24,.05c1.3,.38,1.63,.86,1.63,1.63,0,1.63-1.44,2.21-8.64,2.21h-4.42c-4.13,0-4.75-.86-4.75-3.6v-5.86h-8.45l3.98,2.78c-.24,.53-.86,.82-2.26,.67-3.89,3.65-9.75,6.62-17.76,7.78l-.29-.62c6.82-2.35,12.15-6.58,14.83-10.61h-9.6c.24,3.07-1.06,5.23-2.59,6.05-1.44,.72-3.26,.43-3.79-1.1-.43-1.39,.53-2.45,1.78-3.07,1.68-.82,3.22-3.02,2.93-5.57l.77-.05c.34,.82,.58,1.63,.72,2.35h15.51l-.19-.14c-.1-1.92-1.34-4.08-2.78-5.28l.38-.34c7.3,.43,7.73,4.27,5.9,5.76h13.11l2.59-2.54,4.51,4.27c-.34,.38-.86,.48-1.82,.58-1.49,1.3-4.03,2.93-5.95,3.94l-.53-.34Zm.58,5.52l4.42,3.46c-.34,.38-.86,.72-1.92,.91v21.55c0,.24-1.58,1.15-3.74,1.15h-.77v-2.69h-26.26v2.06c0,.34-1.34,1.2-3.55,1.2h-.72v-26.98l4.85,1.92h6.91c.53-1.68,1.2-4.22,1.63-5.86l6.38,1.58c-.24,.67-.91,1.01-1.92,1.01-1.06,.96-2.54,2.21-3.79,3.26h16.27l2.21-2.59Zm-2.02,22.99v-19.01h-26.26v19.01h26.26Zm-1.58-13.87c-.29,.48-.72,.72-1.78,.53-.96,1.44-2.21,2.83-3.65,4.13,6.38,4.75,4.22,8.74,1.2,7.06-.91-1.3-2.3-2.88-4.22-4.56-3.55,2.54-7.92,4.56-12.82,5.76l-.34-.67c4.13-1.63,7.87-4.18,10.8-7.01-1.2-.91-2.45-1.82-3.89-2.74-2.3,1.68-4.99,3.12-7.82,4.13l-.43-.67c2.11-1.3,4.13-3.02,5.86-4.9-1.54-.86-3.12-1.73-4.8-2.5l.34-.72c2.06,.53,4.03,1.1,5.76,1.73,1.2-1.49,2.21-2.93,2.88-4.32l4.7,2.35c-.29,.48-.67,.72-1.78,.53-.72,.86-1.58,1.78-2.54,2.64,1.54,.67,2.88,1.34,4.08,1.97,1.44-1.68,2.59-3.46,3.41-5.14l5.04,2.4Z"/>
        <path class="cls-3" d="M318.82,68.57c-.34,.43-1.06,.82-1.97,1.01v37.54c-.1,.43-2.11,1.49-3.74,1.49h-.67v-3.17h-31.01v1.87c0,.58-1.68,1.68-3.6,1.68h-.72v-43.59l4.7,2.02h30.15l2.26-2.5,4.61,3.65Zm-6.38,35.48v-35.23h-31.01v35.23h31.01Zm-15.17-10.94c-2.4,1.25-6.1,3.02-11.19,5.28-.24,.62-.62,1.01-1.1,1.15l-2.45-4.75c2.59-.29,8.64-1.25,14.64-2.35l.1,.67Zm3.31-15.65c.24,3.79,.77,7.49,1.78,10.8,1.39-2.69,2.54-5.62,3.36-8.83l5.28,2.16c-.29,.53-.82,.91-1.92,.77-1.39,3.79-3.17,7.01-5.23,9.74,.86,1.68,1.92,3.17,3.22,4.42,.58,.62,.82,.62,1.15-.14,.53-1.01,1.3-2.98,1.82-4.66l.53,.1-.67,6.38c1.2,1.97,1.39,2.88,.82,3.46-1.34,1.58-4.18,.1-5.76-1.44-1.49-1.49-2.74-3.17-3.74-4.99-3.12,3.17-6.72,5.47-10.8,7.15l-.43-.62c3.65-2.26,7.06-5.42,9.89-9.41-1.78-4.32-2.64-9.36-3.07-14.88h-13.68l-.38-1.39h13.97c-.1-2.11-.14-4.27-.19-6.48l5.57,1.06c-.1,.58-.58,1.06-1.63,1.15,0,1.39,.05,2.83,.1,4.27h4.94l1.06-1.34c-.24-.05-.53-.19-.82-.34-.58-1.49-2.06-3.36-3.41-4.32l.43-.43c5.62,.38,6.58,3.12,5.62,4.42,.86,.67,2.16,1.73,3.02,2.64-.14,.53-.62,.77-1.25,.77h-9.55Zm-8.59,13.63v-1.49h-3.89v1.39c0,.24-1.44,1.01-2.78,1.01h-.53v-12.43l3.55,1.44h3.31l1.63-1.63,3.6,2.59c-.24,.29-.82,.62-1.49,.72v7.25c-.05,.34-1.73,1.15-2.88,1.15h-.53Zm0-2.88v-5.81h-3.89v5.81h3.89Z"/>
        <path class="cls-3" d="M341.91,65.65l4.46,3.36c-.29,.34-.96,.72-1.78,.86v14.88c-.1,.34-2.21,1.25-3.6,1.25h-.67v-2.74h-8.11v23.95c0,.62-1.68,1.73-3.74,1.73h-.82v-43.16l4.75,2.11h7.44l2.06-2.26Zm-9.7,3.65v5.47h8.11v-5.47h-8.11Zm8.11,12.58v-5.71h-8.11v5.71h8.11Zm28.61-12.82c-.29,.43-1.06,.82-1.97,1.01v32.98c0,3.26-.77,5.28-7.01,5.86-.19-1.44-.58-2.54-1.49-3.26-1.01-.72-2.4-1.3-5.28-1.73v-.67s6.62,.43,7.87,.43c1.01,0,1.3-.38,1.3-1.15v-19.25h-8.4v1.15c0,.38-1.87,1.39-3.74,1.39h-.62v-19.78l4.56,1.87h7.73l2.21-2.59,4.85,3.74Zm-14.98,.24v5.47h8.4v-5.47h-8.4Zm8.4,12.58v-5.71h-8.4v5.71h8.4Z"/>
        <path class="cls-3" d="M394.75,85.76c-1.73,1.1-3.84,2.4-6.48,3.94v17.57c0,.58-1.87,1.63-3.46,1.63h-.86v-16.75c-1.34,.77-2.74,1.54-4.22,2.3-.19,.62-.62,1.1-1.1,1.3l-2.93-5.18c1.68-.38,4.7-1.2,8.26-2.21v-10.51h-3.55c-1.01,3.84-2.35,7.34-4.13,10.08l-.77-.38c1.3-5.04,2.11-12.05,2.3-18.34l5.71,.91c-.14,.62-.62,1.1-1.73,1.2-.29,1.73-.67,3.46-1.06,5.14h3.22v-11.95l6.05,.62c-.1,.67-.48,1.15-1.73,1.34v9.98h.53l2.3-3.41s2.64,2.35,4.08,4.03c-.1,.53-.58,.77-1.25,.77h-5.66v9.22c2.06-.62,4.13-1.2,6.29-1.87l.19,.58Zm21.55,.34s2.83,2.26,4.56,3.89c-.14,.53-.62,.77-1.3,.77h-7.54v12.87c0,3.17-.86,4.99-6.72,5.47-.19-1.3-.48-2.26-1.3-2.93-.96-.62-2.26-1.1-4.94-1.49v-.62s6.14,.38,7.34,.38c.91,0,1.15-.29,1.15-1.01v-12.67h-16.03l-.38-1.39h16.42v-5.47l6.14,.58c-.14,.72-.58,1.1-1.68,1.25v3.65h1.82l2.45-3.26Zm-24.15-13.44h10.51v-8.4l6,.58c-.05,.62-.43,1.06-1.58,1.25v6.58h5.57l2.59-3.31s2.93,2.26,4.75,3.94c-.14,.53-.62,.77-1.34,.77h-11.57v7.39h4.66l2.54-3.22s2.78,2.26,4.56,3.84c-.1,.53-.58,.77-1.3,.77h-23.23l-.38-1.39h8.74v-7.39h-10.08l-.43-1.39Zm2.88,19.35c12.1,3.46,8.64,11.71,4.46,8.78-.72-2.83-3.07-6.29-4.94-8.5l.48-.29Z"/>
        <path class="cls-3" d="M466.47,102.99c2.21,.38,2.78,1.01,2.78,1.82,0,2.3-3.02,2.69-19.01,2.69h-11.14c-7.39,0-10.32-.86-10.32-5.81v-32.69h-1.82l-.38-1.39h34.23l2.64-3.31s2.88,2.3,4.7,3.94c-.14,.53-.62,.77-1.3,.77h-33.89v32.16c0,2.11,1.1,2.83,5.66,2.83h12c4.7,0,8.74-.1,10.23-.19,.96-.05,1.82-.19,2.5-.29,.58-.05,1.44-.29,2.3-.62h.58l.24,.1Zm-21.22-1.68v-2.3h-5.28v2.06c0,.34-1.68,1.2-3.26,1.2h-.58v-15.94l4.03,1.68h4.66l1.92-1.97,3.94,3.02c-.24,.29-.82,.67-1.58,.77v10.37c-.05,.34-1.92,1.1-3.22,1.1h-.62Zm0-3.7v-8.21h-5.28v8.21h5.28Zm11.14-14.74h-11.04v1.44c0,.38-1.92,1.3-3.7,1.3h-.62v-14.45l4.56,1.87h10.32l2.16-2.3,4.46,3.41c-.29,.34-.91,.72-1.78,.91v8.69c-.05,.34-2.26,1.2-3.65,1.2h-.72v-2.06Zm0-1.39v-7.06h-11.04v7.06h11.04Zm5.09,19.63v-2.11h-5.42v1.39c0,.38-1.73,1.15-3.26,1.15h-.58v-15.22l4.08,1.68h4.75l1.92-2.06,4.13,3.17c-.24,.29-.91,.67-1.68,.82v10.08c-.05,.29-2.02,1.1-3.31,1.1h-.62Zm0-3.5v-8.21h-5.42v8.21h5.42Z"/>
      </g>
      <g>
        <line class="cls-2" x1="216.97" y1="69.47" x2="254.97" y2="107.47"/>
        <line class="cls-2" x1="254.97" y1="69.47" x2="216.97" y2="107.47"/>
      </g>
      <g>
        <path class="cls-1" d="M17.43,151.91h-5.61v9.19h-1.3v-10.42h6.91v1.23Z"/>
        <path class="cls-1" d="M30.09,164.85c-.75,1.91-1.66,3.55-2.73,4.92l-1.05-.73c.9-1.08,1.79-2.66,2.68-4.75l1.1,.55Zm7.32-1.92h-4.85v8.81h-1.2v-8.81h-4.9v-1.15h4.9v-2.36h-4.63v-1.2h2.93c-.14-.75-.56-1.94-1.25-3.56l.84-.57h-2.36v-1.24h4.42c-.23-.55-.57-1.13-1.01-1.73l1.15-.5c.38,.52,.79,1.27,1.23,2.24h4.2v1.24h-1.92l.89,.55c-.29,.88-.79,2.08-1.49,3.59h2.79v1.2h-4.59v2.36h4.85v1.15Zm-2.81-8.84h-4.99c.64,1.56,1.1,2.94,1.37,4.14h2.02c.68-1.34,1.21-2.72,1.61-4.14Zm2.1,13.44l-1.11,.67c-.37-.98-.92-2.11-1.65-3.4l1.01-.57c.67,1.02,1.26,2.12,1.76,3.3Zm10.54-7.88h-2.59v12.11h-1.23v-12.11h-3.57c0,5.35-1.02,9.41-3.05,12.18l-1.01-.77c1.04-1.55,1.78-3.12,2.22-4.73s.66-3.73,.66-6.38v-7.2c3.02-.41,5.48-1.1,7.38-2.05l.94,.98c-2.12,.98-4.5,1.68-7.12,2.1v4.68h7.37v1.2Z"/>
        <path class="cls-1" d="M73.92,170.73l-.86,1.08c-2.58-1.65-4.64-3.56-6.18-5.72s-2.69-4.85-3.45-8.06c-.97,5.62-4.24,10.19-9.81,13.71l-.82-1.09c1.41-.9,2.78-1.98,4.09-3.23s2.4-2.58,3.26-3.98,1.52-3.31,1.99-5.75h-8.91v-1.24h9.14c.25-1.97,.39-3.91,.41-5.84h1.37c-.08,2.09-.23,4.04-.46,5.84h9.83v1.24h-8.89c.86,3.43,2.04,6.12,3.55,8.06s3.42,3.6,5.73,4.99Z"/>
        <path class="cls-1" d="M99.22,171.68h-1.22v-1.2h-16.46v1.2h-1.23v-20.41h18.91v20.41Zm-1.22-2.37v-16.88h-16.46v16.88h16.46Zm-2.7-6h-5.93c-.38,.53-.96,1.13-1.75,1.79v2.12c.95-.19,1.98-.48,3.09-.87l.16,1.1c-1.44,.49-2.9,.88-4.38,1.17l-.46-1.05c.27-.11,.41-.31,.41-.6v-1.05c-1.53,.8-2.77,1.32-3.7,1.54l-.67-1.05c2.44-.55,4.35-1.58,5.73-3.09h-3.6v-3.82h11.09v3.82Zm1.58-5.31h-14.27v-1.05h6.55v-1.61h-5.59v-1.03h5.59v-1.23h1.17v1.23h5.62v1.03h-5.62v1.61h6.55v1.05Zm-2.78,4.23v-1.66h-8.7v1.66h8.7Zm2.73,5.39l-.76,.89c-1.69-1.2-3.75-2.39-6.2-3.6l.7-.94c.82,.38,1.68,.82,2.59,1.32,.55-.39,1.13-.86,1.72-1.39l.87,.71c-.65,.62-1.16,1.06-1.54,1.3,.8,.48,1.68,1.04,2.61,1.7Z"/>
        <path class="cls-1" d="M109.2,170.58h5.61v-9.19h1.3v10.42h-6.91v-1.23Z"/>
        <path class="cls-1" d="M142.1,155.69l-.89,.89c-1.09-1.41-2.33-2.64-3.71-3.69-1.51,2.48-3.07,4.39-4.7,5.71l-.7-1.08c1.92-1.57,3.67-3.88,5.24-6.94l1.22,.36c-.2,.43-.35,.72-.43,.87,1.8,1.41,3.13,2.7,3.98,3.88Zm-.53,6.39c0,.25-.31,1.04-.92,2.36s-1.41,2.64-2.38,3.96c.87,.89,1.6,1.72,2.2,2.5l-.96,.79c-1.47-1.94-3.42-3.82-5.86-5.66l.87-.84c.84,.64,1.8,1.43,2.86,2.38,1.59-2.22,2.56-4.04,2.91-5.47h-7.71v-1.2h9v1.2Zm-.79-3.6h-5.88v-1.22h5.88v1.22Zm12.26-5.95h-4.72c-.37,1.44-.62,2.37-.75,2.79h4.35v11.71h-5.61l.76,.7c-1.55,1.71-3.08,3.04-4.58,3.97l-.87-.95c1.4-.79,2.87-2.03,4.42-3.73h-2.86v-11.71h3.08c.36-1.1,.61-2.03,.74-2.79h-4.92v-1.15h10.97v1.15Zm-2.36,6.07v-2.16h-6.3v2.16h6.3Zm0,3.46v-2.32h-6.3v2.32h6.3Zm0,3.75v-2.62h-6.3v2.62h6.3Zm2.47,4.97l-.79,.9c-1.16-1.12-2.54-2.19-4.12-3.21l.79-.91c1.66,1.05,3.03,2.12,4.12,3.22Z"/>
        <path class="cls-1" d="M168.89,161.34c-.44,.09-.95,.18-1.54,.26v8.62c0,.47-.19,.86-.56,1.17s-1.41,.42-3.11,.35l-.41-1.3c.51,.06,1.04,.09,1.58,.09,.58,0,.94-.04,1.08-.13s.22-.21,.22-.38v-8.23c-1.31,.22-2.87,.41-4.66,.57-.2,4.12-.89,7.25-2.09,9.36l-1.01-.73c1.09-2.05,1.72-4.88,1.88-8.47-.6,.04-1.18,.09-1.73,.14l-.07-1.2c.48-.05,1.1-.11,1.88-.16v-7.78h2.09c.52-1.06,.9-1.97,1.12-2.73l1.23,.23c-.2,.73-.52,1.56-.98,2.5h3.55v6.89c.65-.08,1.16-.17,1.54-.27v1.18Zm-2.73-.73v-5.87h-4.57v6.42c2.38-.28,3.91-.46,4.57-.55Zm-1.32,6.61l-1.12,.47c-.2-1.12-.6-2.38-1.18-3.79l1.16-.48c.48,1.09,.86,2.36,1.15,3.8Zm.07-7.99l-1.12,.38c-.08-.74-.41-1.9-.98-3.48l1.1-.46c.45,1.12,.79,2.3,1.01,3.56Zm14.4,7.27c0,1.45-.08,2.57-.24,3.36s-.37,1.28-.62,1.48-.74,.29-1.46,.29c-.84,0-1.41-.12-1.71-.35s-.44-.6-.44-1.12v-10.17h-3.41v2.57c0,3.64-.81,6.74-2.43,9.29l-1.1-.7c1.55-2.22,2.33-5.1,2.33-8.64v-3.71h5.8v11.13c0,.19,.07,.31,.2,.38s.46,.1,.98,.1c.18,0,.33-.07,.45-.2s.22-.62,.31-1.45,.12-1.73,.09-2.7l1.23,.43Zm-.18-10.61h-10.79v-1.21h4.61c-.16-.87-.61-2.07-1.32-3.6l1.18-.33c.66,1.44,1.13,2.75,1.42,3.93h4.91v1.21Z"/>
        <path class="cls-1" d="M205.71,157.93l-.68,1.12c-4.58-2.02-7.83-4.21-9.76-6.6-1.9,2.59-5.2,4.79-9.89,6.6l-.64-1.2c4.11-1.45,7.09-3.29,8.95-5.5h-2.33v-1.23h4.56c1.77,2.59,5.03,4.86,9.8,6.8Zm-.57,13.22h-19.8v-1.2h9.29v-4.61h-6.61v-1.21h6.61v-4.44h-6.57v-1.17h14.37v1.17h-6.55v4.44h6.53v1.21h-6.53v4.61h9.27v1.2Z"/>
        <path class="cls-1" d="M218.74,165.66c-1.93,1.11-4.3,2.37-7.1,3.77l-.53-1.05c1.45-.71,2.6-1.3,3.43-1.76v-6.53h-2.84v-1.12h2.84v-5.52h-3.07v-1.15h7.22v1.15h-2.95v5.52h2.52v1.12h-2.52v5.86c.88-.41,1.86-.96,2.93-1.63l.07,1.34Zm4.49-.74c-2.04,2.26-3.7,3.82-4.97,4.7l-.79-.98c1.55-1.11,3.26-2.7,5.11-4.77l.64,1.05Zm9.07,3.91l-.71,1.03c-2.58-2.29-4.48-5.11-5.72-8.45v8.27c0,.55-.17,1.04-.5,1.45s-1.1,.62-2.3,.62c-.52,0-1.02-.03-1.49-.09l-.34-1.2c.7,.06,1.32,.09,1.89,.09,.63,0,1.04-.07,1.24-.21s.29-.38,.29-.73v-13.51h-6.12v-1.15h6.12v-4.28h1.22v4.28h6.36v1.15h-6.36v1.18c.13,1.36,.54,2.76,1.23,4.2,1.42-1.05,2.64-2.24,3.64-3.57l.96,.79c-.99,1.29-2.37,2.59-4.12,3.91,.85,1.86,2.43,3.93,4.72,6.22Zm-8.95-7.37l-1.03,.74c-.74-1.31-1.75-2.61-3.02-3.9l1.01-.75c1.41,1.49,2.43,2.8,3.05,3.91Zm7.78-8.13l-.98,.83c-.58-.78-1.36-1.54-2.33-2.27l.87-.87c.93,.67,1.75,1.44,2.45,2.31Z"/>
        <path class="cls-1" d="M250.89,163.72h-5.13v5.11h-1.62v-5.11h-5.11v-1.64h5.11v-5.11h1.62v5.11h5.13v1.64Z"/>
        <path class="cls-1" d="M278.46,171.13h-19.57v-19.79h19.51v1.15h-18.28v17.47h18.34v1.17Zm-14.07-10.89l-.79,.93c-.71-.75-1.62-1.47-2.72-2.16l.82-.91c1.23,.83,2.13,1.54,2.68,2.14Zm1.18,3.62c-1.21,2.14-2.36,3.86-3.46,5.16l-.89-.84c1.32-1.6,2.47-3.35,3.46-5.25l.89,.94Zm.09-7.54l-.87,.86c-1.09-1.31-2.05-2.27-2.88-2.87l.96-.8c.88,.69,1.8,1.62,2.79,2.81Zm12.19,11.68h-10.54v-8.09c-.52,.82-1.07,1.54-1.65,2.16l-.91-.86c1.64-1.82,3.03-4.45,4.17-7.88l1.14,.3c-.19,.71-.45,1.46-.77,2.26h3.34c-.2-.64-.48-1.34-.84-2.09l1.18-.43c.41,.89,.73,1.73,.95,2.52h3.61v1.17h-3.98v2.43h3.62v1.15h-3.62v2.5h3.62v1.16h-3.62v2.54h4.31v1.15Zm-5.59-8.5v-2.43h-3.46c-.03,.14-.11,.3-.23,.48v1.95h3.69Zm0,3.64v-2.5h-3.69v2.5h3.69Zm0,3.7v-2.54h-3.69v2.54h3.69Z"/>
        <path class="cls-1" d="M293.19,169.89l-.76,.98c-1.32-1.38-2.55-2.46-3.68-3.27-.97,1.2-2.14,2.29-3.53,3.25l-.86-.98c2.37-1.5,3.9-3.25,4.61-5.26l1.15,.46c-.22,.64-.45,1.16-.69,1.56,1.28,.9,2.54,1.99,3.76,3.27Zm2.19-17.5h-1.21v9.48h-1.2v-1.58c-2.62,.44-5.31,.77-8.09,1.01l-.36-1.03c.78-.05,1.55-.13,2.3-.25v-7.63h-1.77v-1.1h10.32v1.1Zm7.38,9.91c-2.33,.62-4.83,1.06-7.51,1.31v8.14h-1.2v-8.02c-2.2,.2-4.53,.3-6.98,.3l-.5-1.15c6.69-.02,11.85-.57,15.48-1.63l.71,1.03Zm-9.79-8.26v-1.65h-4.97v1.65h4.97Zm0,2.77v-1.71h-4.97v1.71h4.97Zm0,2.37v-1.31h-4.97v2.02c1.24-.15,2.9-.38,4.97-.7Zm12.19,1.14l-.62,1.08c-.88-1.07-1.95-2.2-3.22-3.39-1.6,1.56-3.51,2.74-5.73,3.53l-.67-1.01c2.26-.75,4.09-1.86,5.5-3.34-1.02-.92-2.42-2.03-4.21-3.33l.84-.82h-.71v-1.12h7.72v1.12c-.45,1.59-1.11,2.95-1.99,4.05,1.07,.98,2.1,2.05,3.09,3.22Zm-.34,9.6l-.74,.98c-1.07-1.28-2.31-2.5-3.71-3.64-.87,1.33-2,2.55-3.39,3.67l-.89-.87c2.26-1.78,3.68-3.76,4.28-5.93l1.15,.46c-.11,.54-.3,1.07-.57,1.58,1.66,1.38,2.95,2.63,3.88,3.75Zm-2.04-16.88h-5.61c1.39,1.04,2.74,2.14,4.05,3.29,.7-1.14,1.22-2.24,1.56-3.29Z"/>
        <path class="cls-1" d="M331.59,170.73l-.94,.95c-4.99-3.52-8.2-8.35-9.62-14.5-1.02,5.61-4.2,10.43-9.55,14.45l-.87-1.03c1.82-1.24,3.48-2.8,4.99-4.66s2.66-3.92,3.45-6.17,1.21-5.28,1.27-9.11h1.34c-.05,4.43,.84,8.35,2.65,11.77s4.24,6.19,7.29,8.3Z"/>
        <path class="cls-1" d="M357.85,156.26h-7.03v13.49c0,.48-.11,.86-.33,1.15s-.54,.49-.96,.62-1.38,.18-2.89,.18c-.76,0-1.31-.03-1.65-.08l-.48-1.29c.84,.03,1.62,.05,2.34,.05,1.3,0,2.06-.05,2.3-.16s.35-.33,.35-.66v-12.48c-2.84,5.51-6.69,9.51-11.57,12l-.76-1.05c4.97-2.48,8.73-6.39,11.3-11.75h-11.32v-1.3h12.35v-4.32h1.32v4.32h7.03v1.3Z"/>
        <path class="cls-1" d="M376.58,163.72h-5.13v5.11h-1.62v-5.11h-5.11v-1.64h5.11v-5.11h1.62v5.11h5.13v1.64Z"/>
        <path class="cls-1" d="M404.44,171.1h-20.88v-1.17h3.8v-12.98h13.17v12.98h3.91v1.17Zm-.89-13.22h-1.24v-3.77h-16.69v3.77h-1.27v-4.99h9.09c-.13-.6-.39-1.28-.79-2.04l1.34-.29c.33,.82,.59,1.6,.8,2.33h8.75v4.99Zm-4.29,3.14v-2.88h-10.64v2.88h10.64Zm0,4.32v-3.07h-10.64v3.07h10.64Zm0,4.58v-3.32h-10.64v3.32h10.64Z"/>
        <path class="cls-1" d="M429.81,156.9h-16.12v3.74c0,4.61-.96,8.24-2.88,10.9l-1.03-.76c1.77-2.46,2.66-5.66,2.66-9.59v-9.95h17.38v5.66Zm-1.27-1.21v-3.21h-14.86v3.21h14.86Zm2.25,5.62h-7.68v3.16h6.16v7.25h-1.28v-1.28h-11.06v1.28h-1.27v-7.25h6.19v-3.16h-7.29v-1.16h7.29v-2.37h1.25v2.37h7.68v1.16Zm-2.79,7.95v-3.59h-11.06v3.59h11.06Z"/>
        <path class="cls-1" d="M442.33,165.35c-2.38,1.5-4.37,2.59-5.95,3.28l-.3-1.27c1.17-.52,2.11-.99,2.82-1.42v-7.63h-2.3v-1.23h2.3v-6.35h1.25v6.35h2.18v1.23h-2.18v6.94c.64-.34,1.37-.77,2.18-1.28v1.37Zm14.88,1.95c-.38,1.86-.74,3.07-1.08,3.64s-.78,.85-1.32,.85c-.45,0-.94-.29-1.49-.88s-1.1-1.67-1.65-3.25c-1.58,1.84-2.98,3.21-4.2,4.09l-.91-.89c1.8-1.34,3.36-2.91,4.7-4.71-.49-2.23-.82-5.87-.98-10.91h-5.59v3.71h4.25c-.02,1.79-.07,3.48-.15,5.06s-.15,2.54-.24,2.87-.25,.61-.48,.85-.52,.41-.86,.52-.92,.13-1.75,.09l-.43-1.28c.46,.05,.95,.07,1.46,.07,.43,0,.71-.17,.84-.52s.26-2.48,.38-6.42h-3.05c.08,4.5-1.02,8.41-3.29,11.72l-1.03-.84c2.1-2.64,3.15-6.27,3.15-10.9v-6.12h6.76c-.04-1-.05-2.1-.02-3.3h1.23v3.3h5.44v1.18h-5.39c.09,4.16,.33,7.25,.71,9.28,1.09-1.85,1.94-4.17,2.57-6.96l1.12,.48c-.74,3.16-1.84,5.92-3.3,8.29,.09,.54,.4,1.37,.91,2.5s.91,1.69,1.2,1.69c.12,0,.23-.05,.33-.16s.27-.52,.48-1.25,.38-1.58,.51-2.55l1.17,.75Zm-1.08-14.33l-1.01,.67c-.62-.88-1.25-1.62-1.9-2.23l.96-.67c.61,.52,1.26,1.27,1.95,2.23Z"/>
        <path class="cls-1" d="M483.45,154.96h-9.8v3.8h8.13v8.98c0,.53-.15,.95-.45,1.26s-.66,.49-1.1,.53-1.43,.05-2.99,.02l-.64-1.29c.56,.03,1.12,.05,1.69,.05,1.05,0,1.69-.06,1.92-.17s.33-.31,.33-.58v-7.56h-6.89v11.74h-1.27v-11.74h-6.82v9.55h-1.3v-10.79h8.12v-3.8h-9.82v-1.25h10.1c-.41-.76-1.03-1.61-1.85-2.57l1.18-.6c.64,.65,1.38,1.7,2.23,3.16h9.22v1.25Z"/>
        <path class="cls-1" d="M499.2,163.41c-.58-.3-.87-.69-.87-1.16,0-.23,.1-.46,.29-.7s.47-.36,.83-.36c.75,0,1.12,.49,1.12,1.48,0,.8-.47,1.58-1.42,2.33l-.5-.39c.36-.48,.54-.88,.54-1.21Z"/>
        <path class="cls-1" d="M10.49,197.34c-.44,.09-.95,.18-1.54,.26v8.62c0,.47-.19,.86-.56,1.17s-1.41,.42-3.11,.35l-.41-1.3c.51,.06,1.04,.09,1.58,.09,.58,0,.94-.04,1.08-.13s.22-.21,.22-.38v-8.23c-1.31,.22-2.87,.41-4.66,.57-.2,4.12-.89,7.25-2.09,9.36l-1.01-.73c1.09-2.05,1.72-4.88,1.88-8.47-.6,.04-1.18,.09-1.73,.14l-.07-1.2c.48-.05,1.1-.11,1.88-.16v-7.78h2.09c.52-1.06,.9-1.97,1.12-2.73l1.23,.23c-.2,.73-.52,1.56-.98,2.5h3.55v6.89c.65-.08,1.16-.17,1.54-.27v1.18Zm-2.73-.73v-5.87H3.19v6.42c2.38-.28,3.91-.46,4.57-.55Zm-1.32,6.61l-1.12,.47c-.2-1.12-.6-2.38-1.18-3.79l1.16-.48c.48,1.09,.86,2.36,1.15,3.8Zm.07-7.99l-1.12,.38c-.08-.74-.41-1.9-.98-3.48l1.1-.46c.45,1.12,.79,2.3,1.01,3.56Zm14.4,7.27c0,1.45-.08,2.57-.24,3.36s-.37,1.28-.62,1.48-.74,.29-1.46,.29c-.84,0-1.41-.12-1.71-.35s-.44-.6-.44-1.12v-10.17h-3.41v2.57c0,3.64-.81,6.74-2.43,9.29l-1.1-.7c1.55-2.22,2.33-5.1,2.33-8.64v-3.71h5.8v11.13c0,.19,.07,.31,.2,.38s.46,.1,.98,.1c.18,0,.33-.07,.45-.2s.22-.62,.31-1.45,.12-1.73,.09-2.7l1.23,.43Zm-.18-10.61H9.94v-1.21h4.61c-.16-.87-.61-2.07-1.32-3.6l1.18-.33c.66,1.44,1.13,2.75,1.42,3.93h4.91v1.21Z"/>
        <path class="cls-1" d="M47.61,206.8l-.81,1.22c-4.88-3.23-8.14-7.41-9.77-12.55-.76,2.62-1.91,4.9-3.46,6.82,1.55,1.4,2.88,2.88,4.01,4.44l-1.01,.83c-1.17-1.7-2.43-3.12-3.79-4.27-1.59,1.73-3.37,3.23-5.36,4.51l-.98-1.03c5.65-3.48,8.86-7.92,9.62-13.32h-9.28v-1.25h9.43c.17-1.84,.28-3.66,.33-5.46h1.3c-.05,1.96-.17,3.78-.34,5.46h9.62v1.25h-9.4c.57,2.69,1.73,5.22,3.49,7.59s3.89,4.29,6.39,5.76Z"/>
        <path class="cls-1" d="M65.64,198.66l-.84,.91c-1.16-1.27-2.45-2.42-3.87-3.43l.89-.94c1.59,1.2,2.87,2.35,3.82,3.46Z"/>
        <path class="cls-1" d="M84.79,199.72c-1.45,3.12-3,5.76-4.65,7.91l-.96-1.01c1.66-2.08,3.17-4.61,4.51-7.61l1.1,.7Zm-.48-3.63l-.86,1.05c-1.07-.99-2.49-1.99-4.25-3l.77-1.08c1.77,1.01,3.21,2.02,4.34,3.02Zm1.05-6.46l-.71,1.11c-1.05-.95-2.57-1.99-4.54-3.13l.76-1.05c1.8,.99,3.3,2.02,4.49,3.07Zm14.4,1.01h-11.25c-1.05,1.41-2.21,2.69-3.48,3.82l-.89-.96c2.24-2.02,4.04-4.35,5.38-7.01l1.17,.53c-.24,.53-.68,1.33-1.3,2.4h10.37v1.22Zm.34,12.68c-.44,2.98-1.19,4.46-2.25,4.46-.61,0-1.08-.35-1.41-1.04s-.58-1.46-.74-2.29-.25-2.97-.25-6.4h-9.94v-1.2h11.3c-.06,1.3-.09,2.6-.09,3.89,0,1.95,.14,3.37,.42,4.25s.52,1.32,.72,1.32c.11,0,.21-.05,.3-.15s.23-.53,.42-1.29,.3-1.49,.32-2.2l1.21,.63Zm-1.95-9.07h-10.35v-1.21h10.35v1.21Z"/>
        <path class="cls-1" d="M126.58,204.37h-9.75v3.28h-1.24v-3.28h-9.8v-1.25h9.8v-2.09h-7.72v-8.71h7.72v-2.11h-9.29v-1.21h9.29v-2.36h1.24v2.36h9.27v1.21h-9.27v2.11h7.66v8.71h-7.66v2.09h9.75v1.25Zm-10.99-8.38v-2.45h-6.48v2.45h6.48Zm0,3.82v-2.65h-6.48v2.65h6.48Zm7.65-3.82v-2.45h-6.41v2.45h6.41Zm0,1.17h-6.41v2.65h6.39l.02-2.65Z"/>
        <path class="cls-1" d="M153.12,199.45l-.6,1.12c-2.9-.67-5.2-1.38-6.89-2.13v.98h-6.28v-.91c-2.32,.95-4.55,1.63-6.7,2.04l-.62-1.1c4.73-.91,8.29-2.37,10.68-4.37l1.21,.55c-.2,.16-.33,.29-.41,.36,2.41,1.48,5.61,2.64,9.62,3.46Zm-.62-3.96h-1.22v-4.3h-8.05v3.32h-1.22v-3.32h-8.16v4.23h-1.23v-5.4h9.39v-1.65h-8.59v-1.21h18.23v1.21h-8.43v1.65h9.27v5.47Zm-2.38,6.5c-1.41,1.05-3.29,2.18-5.64,3.36,.7,.29,1.72,.77,3.05,1.44l-.76,1.01c-2.74-1.49-5.93-2.67-9.56-3.53l.7-1.05c2.33,.65,4.02,1.17,5.06,1.56,1.8-.77,3.49-1.7,5.09-2.79h-13.72v-1.12h15.79v1.12Zm-9.07-6.62c-1.7,.4-3.63,.7-5.78,.91l-.39-1.05c1.9-.14,3.8-.42,5.71-.84l.46,.98Zm-.07-2.47l-.55,.98c-2.07-.55-3.86-.87-5.36-.94l.43-1.05c2.19,.25,4.01,.59,5.47,1.01Zm4.42,5.43c-1.08-.5-2.04-1.02-2.88-1.56-.78,.56-1.7,1.08-2.75,1.56h5.64Zm4.72-5.33c-1.67,.47-3.47,.77-5.4,.89l-.47-1.05c1.98-.1,3.79-.39,5.41-.87l.46,1.03Zm.32,2.45l-.55,1.03c-1.79-.5-3.57-.84-5.36-1.03l.5-1.03c2.42,.34,4.22,.68,5.4,1.03Z"/>
        <path class="cls-1" d="M164.67,187.09c-.27,.74-.63,1.64-1.09,2.7l-.69,1.54v16.44h-1.17v-14.24c-.9,1.51-1.8,2.8-2.72,3.89l-.74-1.39c1.93-2.09,3.66-5.23,5.18-9.41l1.23,.48Zm14.87,13.01h-6.76v7.66h-1.23v-7.66h-7.17v-1.31h7.17v-5.98h-4.22c-.58,1.12-1.35,2.37-2.31,3.76l-.94-.83c1.61-2.29,2.92-4.97,3.94-8.05l1.3,.43c-.56,1.47-1.03,2.61-1.39,3.43h3.62v-4.92h1.23v4.92h6.21v1.25h-6.21v5.98h6.76v1.31Z"/>
        <path class="cls-1" d="M197.64,198.66l-.84,.91c-1.16-1.27-2.45-2.42-3.87-3.43l.89-.94c1.59,1.2,2.87,2.35,3.82,3.46Z"/>
        <path class="cls-1" d="M219.74,198.49c-1.04,.51-1.95,.92-2.73,1.23v7.98h-1.21v-7.51c-1.52,.62-2.89,1.11-4.1,1.46l-.32-1.22c1.62-.46,3.09-.96,4.42-1.51v-6.09h-2.06c-.3,1.64-.7,3.04-1.17,4.2l-1.1-.46c1-2.61,1.56-5.28,1.68-8.02l1.15,.2c-.05,.88-.17,1.84-.36,2.89h1.88v-4.99h1.21v4.99h2.5v1.18h-2.5v5.59c.88-.34,1.79-.75,2.73-1.23v1.3Zm11.91-8.38c-.02,3.45-.12,6.82-.32,10.12s-.41,5.23-.63,5.79-.57,.98-1.04,1.29-1.29,.46-2.47,.46c-.59,0-1.19-.03-1.82-.09l-.46-1.22c.7,.08,1.38,.12,2.04,.12,1.03,0,1.71-.11,2.04-.32s.56-.54,.69-.98,.29-2.15,.46-5.13,.26-5.93,.26-8.87h-1.45c-.65,6.54-3.22,11.73-7.71,15.57l-1.01-.8c4.5-3.62,7.02-8.54,7.56-14.78h-1.9c-.85,4.29-2.75,7.92-5.71,10.89l-.98-.71c2.93-2.89,4.76-6.28,5.5-10.17h-1.95c-.91,1.91-1.79,3.37-2.64,4.36l-1.01-.69c1.76-2,3.05-4.77,3.89-8.31l1.15,.22c-.35,1.45-.66,2.53-.94,3.26h8.43Z"/>
        <path class="cls-1" d="M242.36,199.98c-.88,2.55-2.11,5.16-3.68,7.8l-1.05-.87c1.37-2.16,2.56-4.7,3.57-7.61l1.16,.67Zm-.06-3.64l-.88,.94c-1.09-1.16-2.34-2.21-3.77-3.18l.77-.98c1.6,1.12,2.89,2.19,3.88,3.22Zm.43-6.43l-.83,1.01c-1.45-1.57-2.63-2.68-3.55-3.32l.83-.98c1.42,1.14,2.61,2.24,3.55,3.29Zm3.68,7.7c0,2.85-.24,4.97-.71,6.35s-1.5,2.63-3.06,3.75l-.98-.93c.91-.52,1.73-1.38,2.46-2.58s1.07-3.39,1.02-6.6h1.28Zm12.26-.98l-1.05,.82c-.38-.61-.86-1.26-1.44-1.95-4.72,.55-8.81,.95-12.28,1.2l-.32-1.24c1.85-1.01,3.47-2.69,4.85-5.04h-5.02v-1.25h5.73c.3-.58,.68-1.43,1.12-2.57l1.3,.34c-.15,.4-.48,1.14-.98,2.23h7.7v1.25h-8.34c-1.19,2.11-2.52,3.73-4.01,4.88,3.07-.2,6.16-.48,9.28-.84-.65-.74-1.36-1.43-2.13-2.06l.98-.84c1.82,1.6,3.36,3.3,4.61,5.09Zm-8.2,11.09h-1.25v-10.1h1.25v10.1Zm8.11-.28h-3.19c-1.2,0-1.8-.57-1.8-1.7v-8.12h1.22v7.95c0,.43,.24,.64,.73,.64h3.05v1.23Z"/>
        <path class="cls-1" d="M276.84,198.66l-.84,.91c-1.16-1.27-2.45-2.42-3.87-3.43l.89-.94c1.59,1.2,2.87,2.35,3.82,3.46Z"/>
        <path class="cls-1" d="M311.31,201.97c-.07,2.46-.36,3.97-.88,4.52s-1.17,.83-1.96,.83h-3.87c-.6,0-1.07-.2-1.41-.59s-.5-.9-.5-1.52v-8.21h-4.11c-.05,2.45-.6,4.56-1.64,6.35s-2.91,3.28-5.6,4.48l-.94-1.14c4.65-1.7,6.93-4.93,6.84-9.69h-6.53v-1.3h9.48v-9.05h1.29v9.05h9.6v1.3h-7.1v8.21c0,.23,.08,.44,.23,.6s.35,.25,.59,.25h3.6c.62,0,1.05-.33,1.27-.99s.33-1.83,.33-3.5l1.3,.39Zm-14.24-8.33l-1.1,.73c-.77-1.79-1.87-3.61-3.28-5.45l1.05-.77c1.7,2.4,2.8,4.23,3.33,5.5Zm11.95-5.13c-1.12,2.42-2.24,4.35-3.35,5.79l-1.09-.73c1.36-1.77,2.43-3.63,3.22-5.59l1.22,.53Z"/>
        <path class="cls-1" d="M337.34,195.35h-1.22v-4.1h-8.4v4.75h-1.21v-4.75h-7.84v4.1h-1.25v-5.24h9.09v-1.77h-8.23v-1.12h18.27v1.12h-8.84v1.77h9.62v5.24Zm.73,9.43c-.11,.98-.36,1.67-.74,2.09s-1.07,.65-2.05,.71-2.08,.09-3.31,.09c-1.06,0-2.07-.02-3.01-.07s-1.58-.23-1.91-.54-.49-.81-.49-1.49v-1.77h-7.66v-6.87h16.61v6.87h-7.68v1.86c0,.2,.07,.36,.21,.46s.65,.18,1.53,.24,1.86,.09,2.94,.09c1.87,0,2.96-.04,3.29-.13s.57-.33,.72-.72,.25-.88,.29-1.46l1.28,.66Zm-12.54-9.53c-1.92,.5-3.73,.8-5.41,.9l-.39-1.1c1.78-.09,3.58-.33,5.4-.74l.4,.94Zm0-2.45l-.4,1.03c-1.33-.33-3.07-.58-5.24-.75l.53-1.03c2,.17,3.7,.42,5.11,.75Zm1.02,6.98v-1.73h-6.41v1.73h6.41Zm0,2.87v-1.79h-6.41v1.79h6.41Zm7.68-2.87v-1.73h-6.41v1.73h6.41Zm0,2.87v-1.79h-6.41v1.79h6.41Zm.71-7.38l-.55,1.01c-1.68-.45-3.57-.76-5.66-.94l.53-.96c2.46,.21,4.36,.51,5.68,.89Zm-.16-2.17c-1.98,.35-3.81,.59-5.47,.7l-.36-.98c1.66-.12,3.46-.38,5.4-.75l.43,1.03Z"/>
        <path class="cls-1" d="M356.04,198.66l-.84,.91c-1.16-1.27-2.45-2.42-3.87-3.43l.89-.94c1.59,1.2,2.87,2.35,3.82,3.46Z"/>
        <path class="cls-1" d="M390.26,190h-20.2v-1.15h9.5c-.06-.46-.29-1.1-.69-1.92l1.22-.39c.27,.55,.53,1.32,.77,2.31h9.4v1.15Zm-1.03,15.8c0,.56-.14,1.02-.43,1.36s-.98,.52-2.09,.52c-.36,0-.8-.01-1.31-.04l-.41-1.24c.97,.04,1.62,.06,1.95,.06,.7,0,1.05-.29,1.05-.88v-6.67h-15.6v8.75h-1.23v-9.96h18.07v8.1Zm-2.34-9.7h-13.44v-4.56h13.44v4.56Zm-1.32-1.17v-2.18h-10.83v2.18h10.83Zm-.48,10.3h-9.84v-4.69h9.84v4.69Zm-1.28-1.16v-2.36h-7.27v2.36h7.27Z"/>
        <path class="cls-1" d="M405.75,187.52c-1.02,.46-2.27,.87-3.73,1.23v3.83h3.55v1.23h-3.55v1.22c1.51,1.48,2.69,2.85,3.55,4.12l-.89,1.01c-.73-1.16-1.61-2.3-2.66-3.42v10.86h-1.22v-11.25c-1.02,2.05-2.32,4.07-3.89,6.05l-.87-1.05c2.1-2.43,3.64-4.94,4.63-7.54h-4.54v-1.23h4.66v-3.5c-.67,.15-1.83,.36-3.48,.62l-.68-1.2c3.15-.34,5.91-1.01,8.29-1.99l.82,1.01Zm11.41,13.71l-2.45,.38v6.02h-1.27v-5.82l-7.9,1.2-.09-1.24,7.99-1.23v-13.88h1.27v13.64l2.4-.32,.05,1.25Zm-5.71-3.11l-.87,.96c-1.01-1.38-2.48-2.79-4.42-4.22l.8-.96c1.87,1.34,3.36,2.75,4.49,4.22Zm.55-6.46l-.76,1.07c-1.33-1.45-2.76-2.7-4.3-3.73l.71-.96c1.48,.93,2.93,2.14,4.35,3.62Z"/>
        <path class="cls-1" d="M430.27,197.1c-.92,.41-1.93,.83-3.02,1.25v7.72c0,.45-.18,.85-.54,1.18s-1.37,.47-3.04,.43l-.5-1.34c.48,.02,.94,.04,1.37,.04,.67,0,1.09-.05,1.24-.15s.23-.27,.23-.51v-6.91c-.87,.3-1.93,.62-3.19,.98l-.43-1.14c1.34-.4,2.54-.78,3.62-1.15v-5.4h-3.43v-1.24h3.43v-4.23h1.23v4.23h2.71v1.24h-2.71v4.9c.67-.2,1.56-.55,2.66-1.05l.36,1.15Zm13.27,9.6l-.71,1.09c-2.54-1.12-4.54-2.34-6-3.66-2.04,1.43-4.41,2.64-7.12,3.63,0,0-.01,0-.02,0s-.02-.02-.04-.05-.09-.11-.19-.25-.28-.42-.53-.81c2.5-.77,4.84-1.9,7.01-3.38-1.6-1.82-2.79-4.05-3.57-6.7h-1.1v-1.22h4.97v-3.91h-5.31v-1.22h5.31v-3.59h1.29v3.59h5.59v1.22h-5.59v3.91h4.49v1.22c-.48,1.76-1.07,3.15-1.79,4.17s-1.52,1.9-2.41,2.63c1.34,1.25,3.25,2.36,5.73,3.33Zm-2.78-10.12h-7.08c.7,2.33,1.77,4.3,3.21,5.93,1.93-1.55,3.22-3.52,3.87-5.93Z"/>
        <path class="cls-1" d="M461.64,198.66l-.84,.91c-1.16-1.27-2.45-2.42-3.87-3.43l.89-.94c1.59,1.2,2.87,2.35,3.82,3.46Z"/>
        <path class="cls-1" d="M496.25,207.06h-20.91v-1.22h10.16v-6.48h-7.69v-1.28h7.69v-5.47h-6.5c-.91,1.67-1.91,3.06-3,4.16l-1.01-.87c2.12-2.2,3.68-5.01,4.65-8.43l1.24,.32c-.32,1.16-.73,2.33-1.24,3.53h5.86v-4.71h1.29v4.71h9.12v1.29h-9.12v5.47h8.02v1.28h-8.02v6.48h9.46v1.22Z"/>
        <path class="cls-1" d="M509.48,197.1c-.92,.41-1.93,.83-3.02,1.25v7.72c0,.45-.18,.85-.54,1.18s-1.37,.47-3.04,.43l-.5-1.34c.48,.02,.94,.04,1.37,.04,.67,0,1.09-.05,1.24-.15s.23-.27,.23-.51v-6.91c-.87,.3-1.93,.62-3.19,.98l-.43-1.14c1.34-.4,2.54-.78,3.62-1.15v-5.4h-3.43v-1.24h3.43v-4.23h1.23v4.23h2.71v1.24h-2.71v4.9c.67-.2,1.56-.55,2.66-1.05l.36,1.15Zm13.27,9.6l-.71,1.09c-2.54-1.12-4.54-2.34-6-3.66-2.04,1.43-4.41,2.64-7.12,3.63,0,0-.01,0-.02,0s-.02-.02-.04-.05-.09-.11-.19-.25-.28-.42-.53-.81c2.5-.77,4.84-1.9,7.01-3.38-1.6-1.82-2.79-4.05-3.57-6.7h-1.1v-1.22h4.97v-3.91h-5.31v-1.22h5.31v-3.59h1.29v3.59h5.59v1.22h-5.59v3.91h4.49v1.22c-.48,1.76-1.07,3.15-1.79,4.17s-1.52,1.9-2.41,2.63c1.34,1.25,3.25,2.36,5.73,3.33Zm-2.78-10.12h-7.08c.7,2.33,1.77,4.3,3.21,5.93,1.93-1.55,3.22-3.52,3.87-5.93Z"/>
        <path class="cls-1" d="M540.84,198.66l-.84,.91c-1.16-1.27-2.45-2.42-3.87-3.43l.89-.94c1.59,1.2,2.87,2.35,3.82,3.46Z"/>
        <path class="cls-1" d="M556.92,202.14c-.45,2.52-.97,4.37-1.56,5.57l-1.12-.4c.7-1.65,1.23-3.47,1.58-5.47l1.1,.3Zm5.91-1.77l-1.08,.48c-.16-.62-.3-1.11-.43-1.46-2.36,.71-4.47,1.22-6.34,1.54l-.39-1.03c1.66-1.65,3.16-3.58,4.51-5.79-2.05,.48-3.37,.79-3.95,.91l-.5-1.05c1.69-2.3,3.03-4.67,4.03-7.1l1.2,.48c-1.12,2.36-2.36,4.45-3.69,6.28,1.41-.22,2.63-.47,3.64-.76,.5-.84,1.07-1.86,1.72-3.07l1.03,.57c-2.05,3.83-4.12,6.88-6.21,9.16,.91-.08,2.44-.44,4.61-1.08-.21-.59-.43-1.11-.67-1.58l1.01-.46c.81,1.73,1.32,3.05,1.51,3.96Zm-3.12,6.36l-1.16,.28c.05-1.14-.11-2.8-.48-4.99l1.11-.19c.41,2.04,.58,3.67,.53,4.9Zm2.71-2.7l-.96,.5c-.24-.88-.56-1.77-.96-2.68l.98-.43c.59,1.6,.9,2.47,.94,2.61Zm12.89-7.61h-5.88v9.76c0,1.05-.74,1.57-2.21,1.57-.45,0-.95-.02-1.5-.06l-.34-1.24c.44,.03,.83,.05,1.17,.05,.78,0,1.27-.06,1.45-.19s.28-.38,.28-.75v-9.14h-5.77v-1.2h7.66l.55-1.8h-6.7l2.29-6.64,1.24,.12-.53,1.54h6.34l-1.95,6.8h3.89v1.2Zm-8.06,6.39c-1.36,1.3-2.59,2.35-3.7,3.14l-.83-.98c1.19-.79,2.43-1.81,3.74-3.07l.8,.91Zm-.13-2.98l-.79,.91c-.77-.7-1.66-1.34-2.68-1.9l.76-.91c.91,.49,1.81,1.12,2.71,1.9Zm4.69-10.18h-5.16l-.89,2.6h5.3l.75-2.6Zm3.28,15.32l-.81,.94c-1.12-1.14-2.34-2.12-3.66-2.95l.75-.94c1.84,1.28,3.07,2.27,3.71,2.95Zm-.48-6.14c-.95,.83-1.93,1.52-2.92,2.06l-.89-.91c1.13-.62,2.09-1.32,2.86-2.09l.95,.94Z"/>
        <path class="cls-1" d="M592.18,192.95l-.98,.8c-.26-.48-.56-.96-.91-1.44-2.9,.41-5.88,.7-8.95,.86l-.46-1.03c1.47-1.13,2.76-2.94,3.87-5.43l1.24,.32c-.95,2-1.99,3.63-3.14,4.9,2.51-.2,4.72-.43,6.64-.69-.42-.59-1.09-1.35-2.02-2.26l1.09-.69c1.8,1.81,3,3.37,3.62,4.68Zm-1.56,13.35c0,.4-.15,.73-.44,1.01s-.62,.43-.97,.46-1.12,.05-2.29,.05l-.5-1.21c.38,.02,.76,.04,1.12,.04,.77,0,1.27-.03,1.49-.08s.33-.2,.33-.43v-3.9c-2.3,1.04-4.18,1.81-5.66,2.32l-.55-.81c-.18,1.42-.56,2.77-1.14,4.03l-1.1-.63c.73-1.89,1.1-3.8,1.1-5.73v-6.46h8.6v11.36Zm-1.25-5.43v-4.73h-6.07v1.71c1.66,.3,3.39,.77,5.2,1.42l-.57,1.08c-1.85-.62-3.39-1.04-4.63-1.28v2.33c0,.67-.03,1.33-.09,1.97,1.56-.48,3.62-1.32,6.16-2.5Zm12.48,2.73c-.08,1.21-.25,2.1-.5,2.65s-.56,.92-.91,1.08-1,.25-1.95,.25l-3.6-.05c-.54,0-.97-.15-1.3-.46s-.49-.72-.49-1.24v-9.02h1.22v3.48h6.89v1.15h-6.89v4.28c0,.46,.29,.69,.87,.69,2.44,0,3.83-.02,4.17-.06s.62-.2,.82-.47,.36-1.14,.48-2.58l1.2,.3Zm-.26-7.77h-6.98c-.44,0-.79-.16-1.07-.47s-.42-.68-.42-1.11v-7.46h1.2v3h6.87v1.15h-6.87v3.14c0,.38,.21,.57,.64,.57h6.63v1.18Z"/>
        <path class="cls-1" d="M617.41,199.41c-.58-.3-.87-.69-.87-1.16,0-.23,.1-.46,.29-.7s.47-.36,.83-.36c.75,0,1.12,.49,1.12,1.48,0,.8-.47,1.58-1.42,2.33l-.5-.39c.36-.48,.54-.88,.54-1.21Z"/>
        <path class="cls-1" d="M7.63,228.15h-2.82v5.02c1.08-.46,1.8-.79,2.18-.98l.29,1.21c-.86,.47-1.68,.86-2.47,1.17v7.23c0,.55-.14,.98-.41,1.29s-.61,.48-1.01,.53-1.17,.07-2.31,.07l-.46-1.29c.48,.02,.88,.02,1.2,.02,.76,0,1.24-.05,1.44-.16s.3-.29,.3-.57v-6.6c-1.12,.44-2.14,.8-3.05,1.1l-.43-1.24c1.01-.31,2.17-.72,3.48-1.22v-5.58H.21v-1.24H3.55v-4.21h1.25v4.21h2.82v1.24Zm13.46,13.92H10.46v1.54h-1.3v-13.46c-.38,.61-.77,1.19-1.17,1.73l-1.01-.96c1.72-2.18,3.12-5,4.22-8.45l1.28,.5c-.39,1.19-.92,2.5-1.58,3.94h4.24c-.17-.86-.55-2.07-1.12-3.62l1.2-.63c.54,1.34,.98,2.76,1.32,4.25h3.98v1.29h-4.3v3.39h4.01v1.25h-4.01v3.26h4.01v1.28h-4.01v3.46h4.88v1.24Zm-6.12-10.49v-3.39h-4.51v3.39h4.51Zm0,4.51v-3.26h-4.51v3.26h4.51Zm0,4.73v-3.46h-4.51v3.46h4.51Z"/>
        <path class="cls-1" d="M47.42,232.75h-5.54v10.99h-1.25v-10.99h-6.69c-.23,4.86-2.36,8.53-6.41,11.02l-.96-1.01c3.85-2.22,5.89-5.55,6.13-10.01h-6.13v-1.23h6.15v-5.59c-1.81,.52-3.44,.92-4.88,1.2l-.69-1.15c3.77-.56,7.04-1.65,9.79-3.27l.8,.98c-1.29,.73-2.55,1.3-3.77,1.73v6.09h6.67v-8.88h1.25v8.88h5.54v1.23Z"/>
        <path class="cls-1" d="M73.82,232.57h-17.64v2.38c0,4.08-.82,7.03-2.47,8.86l-.87-.87c.67-.82,1.19-1.83,1.56-3.04s.55-2.37,.55-3.49v-5.04h18.87v1.2Zm-.6-6.62h-3.67c-.82,.96-1.68,1.73-2.58,2.31,2.05,.53,3.76,1.07,5.12,1.61l-.68,.98c-1.84-.72-3.81-1.33-5.93-1.83-2.41,1.02-5.25,1.58-8.52,1.68l-.42-1.1c3.09-.23,5.43-.58,7.01-1.05-1.88-.43-3.75-.79-5.62-1.08l.55-.98c2.49,.39,4.77,.85,6.84,1.37,.99-.52,1.85-1.16,2.57-1.9h-13.72v-1.17h9c-.22-.52-.56-1.08-1.03-1.66l1.12-.5c.56,.77,.98,1.49,1.27,2.17h8.7v1.17Zm.39,17.16h-17.24v-1.15h8.26v-2.26h-5.86v-1.17h5.86v-2.11h-5.14c-.55,.74-1.17,1.41-1.86,1.99l-.75-1.01c1.23-1.04,2.27-2.41,3.14-4.12l1.16,.38c-.31,.64-.61,1.18-.89,1.62h4.35v-1.97h1.2v1.97h6.6v1.15h-6.6v2.11h6.09v1.17h-6.09v2.26h7.78v1.15Z"/>
        <path class="cls-1" d="M100.22,237.66h-9.74v6.11h-1.28v-6.11h-9.87v-1.2h9.87v-1.97h-8.81v-1.12h8.81v-1.88h-9.32v-1.17h6.27c-.39-.7-.84-1.32-1.35-1.88l.91-.57h-6.39v-1.21h7.92v-3.88h1.23v3.88h2.71v-3.88h1.2v3.88h7.78v1.21h-6.25l.87,.6c-.27,.6-.67,1.22-1.2,1.85h6.07v1.17h-9.19v1.88h8.61v1.12h-8.61v1.97h9.74v1.2Zm-13.15,1.83c-1.77,1.39-4.05,2.61-6.87,3.67l-.8-1.05c3.02-1.08,5.27-2.22,6.75-3.43l.91,.82Zm-2.26-13.97l-1.05,.62c-.59-.77-1.37-1.58-2.36-2.41l1.09-.75c.94,.87,1.71,1.71,2.32,2.54Zm8.81,2.36h-7.61c.73,1.01,1.26,1.82,1.58,2.45h4.51c.77-.99,1.27-1.81,1.51-2.45Zm6.62,14.52l-.71,.98c-2.45-1.59-4.79-2.86-7.01-3.8l.71-.96c2.7,1.17,5.04,2.43,7.01,3.77Zm-1.95-18.82c-.66,.94-1.47,1.77-2.43,2.5l-1.1-.62c1.07-.91,1.87-1.72,2.4-2.43l1.12,.55Z"/>
        <path class="cls-1" d="M126.81,242.03l-.35,1.28-9.29-.02c-4.06,0-7.06-1.25-9-3.75-.55,1.91-1.09,3.27-1.63,4.08l-.91-.91c1.27-2.48,2.06-5.71,2.36-9.69l1.2,.22c-.17,1.91-.38,3.42-.62,4.54,.53,1.18,1.39,2.15,2.59,2.92v-9.33h-5.3v-1.18h5.3v-3.3h-4.77v-1.25h4.77v-2.95h1.23v2.95h3.48v1.25h-3.48v3.3h4.08v1.18h-4.08v3.09h3.6v1.17h-3.6v5.67c.91,.45,2.2,.7,3.84,.74s3.63,.06,5.95,.06,3.77-.02,4.64-.07Zm-.14-7.24c.04,1.2-.04,2.15-.23,2.85s-.56,1.18-1.12,1.41-1.7,.35-3.42,.35-2.95-.12-3.42-.36-.71-.86-.71-1.84v-13.41h7.92v7.65h-6.67v6.12c0,.3,.2,.47,.61,.52s1.21,.07,2.43,.07c1.69,0,2.62-.09,2.78-.26s.3-.36,.4-.56,.19-1.19,.26-2.98l1.17,.43Zm-2.23-4.51v-5.29h-5.43v5.29h5.43Z"/>
        <path class="cls-1" d="M153.05,240.68c-.43,.94-.88,1.65-1.37,2.15s-1.01,.74-1.59,.74c-1.06,0-2.1-.71-3.1-2.13s-1.47-3.95-1.41-7.6h-2.91v9.79h-1.22v-9.79h-4.03c0,4.48-1.3,7.81-3.89,10.01l-1.08-.8c2.61-2.21,3.86-5.28,3.74-9.21h-3.95v-1.23h3.97v-3.64c-1.31,.48-2.45,.84-3.42,1.08l-.61-1.15c3.35-.86,5.67-1.8,6.96-2.81l.87,.94c-.77,.52-1.63,1-2.59,1.44v4.15h4.03v-6.5h1.22v6.5h4.16c-.02,.36-.04,.82-.04,1.39s.01,1.01,.04,1.35c.33,.09,1,.32,2.02,.67,.81-.77,1.65-1.71,2.52-2.84l.96,.77c-.64,.81-1.4,1.64-2.29,2.47,1.38,.6,2.37,1.04,2.98,1.32l-.5,1.2c-1.95-1-3.8-1.76-5.57-2.29,.14,2.02,.58,3.46,1.32,4.34s1.33,1.31,1.79,1.31c.29,0,.63-.25,1.01-.74s.72-1.08,1.01-1.76l.96,.86Zm-.14-10.03c-1.21,1.62-2.27,2.43-3.19,2.43s-1.83-.63-2.71-1.9-1.31-3.5-1.31-6.71h-12.48v-1.2h13.76c-.04,.67-.06,1.21-.06,1.62,0,.34,.01,.66,.04,.95,.7,.17,1.39,.36,2.06,.55,.71-.92,1.36-1.87,1.95-2.84l1.03,.73c-.66,1.02-1.26,1.84-1.78,2.47,.91,.29,1.66,.58,2.26,.88l-.43,1.14c-1.97-.8-3.62-1.34-4.95-1.62,.06,1.35,.39,2.48,.98,3.38s1.13,1.35,1.61,1.35c.59,0,1.37-.68,2.33-2.04l.89,.81Z"/>
        <path class="cls-1" d="M168.38,224.44c-1.5,1.95-3.72,3.67-6.67,5.16h5.52v4.92h-4.8l-.32,2.64h5.12c0,1.92-.07,3.27-.22,4.05s-.36,1.33-.64,1.65-.59,.53-.93,.63-1.29,.15-2.87,.15c-.63,0-1.27-.02-1.9-.05l-.29-1.24,4.03,.07c.59,.02,1.01-.25,1.24-.83s.34-1.66,.32-3.25h-5.2l.5-4.99h4.75v-2.54h-4.61v-1.08c-.79,.38-1.55,.69-2.27,.95l-.73-1.08c1.3-.38,2.63-.96,4.01-1.77-.52-.52-1.26-1.04-2.2-1.56l.67-.91c1.05,.61,1.93,1.22,2.61,1.84,1.47-.95,2.56-1.86,3.27-2.75h-6.02v-1.2h7.63v1.2Zm10.78,18.39l-.84,.94c-1.36-1.1-2.79-2.13-4.3-3.08-1.65,1.34-3.4,2.36-5.25,3.08l-.87-.94c1.49-.48,3.2-1.42,5.11-2.81l-3.94-2.36,.7-.86h-1.05v-1.23h8.75c-.56,1.66-1.42,3.11-2.57,4.32,1.23,.7,2.65,1.67,4.25,2.93Zm-.66-8.43h-2.61c-.36,0-.67-.12-.93-.35s-.39-.55-.39-.95v-2.3h-2.98c-.12,1.77-.86,3.13-2.23,4.1l-1.03-.84c1.43-.94,2.14-2.43,2.13-4.46h5.31v3.18c0,.28,.18,.42,.53,.42h2.2v1.21Zm.82-4.88l-.57,1.08c-4.12-1.43-7.19-3.95-9.2-7.56l1.14-.48c.48,.84,1.02,1.61,1.61,2.29,.74-.62,1.42-1.3,2.04-2.04l1.1,.5c-.65,.84-1.43,1.64-2.33,2.43,.64,.67,1.18,1.14,1.62,1.41,.98-.72,1.84-1.46,2.57-2.23l.98,.64c-.83,.91-1.66,1.67-2.5,2.29,1.08,.66,2.26,1.22,3.55,1.68Zm-3.64,7.28h-5.74c1.51,.84,2.84,1.63,3.98,2.39,.66-.62,1.24-1.41,1.76-2.39Z"/>
        <path class="cls-1" d="M202.23,223.91h-5.61v9.19h-1.3v-10.42h6.91v1.23Z"/>
        <path class="cls-1" d="M217.82,232.72l-.94,.79c-.45-.83-.95-1.63-1.49-2.4v12.57h-1.24v-11.92c-.88,2.51-1.65,4.36-2.33,5.54l-.69-1.32c1.22-2.13,2.22-4.73,3-7.8h-2.81v-1.2h2.84v-4.39h1.24v4.39h1.78v1.2h-1.78v1.28c.85,1.04,1.66,2.13,2.43,3.27Zm14.57,7.17c-.16,1.34-.41,2.35-.74,3.03s-.79,1.03-1.37,1.03c-1.05,0-2.19-1.09-3.43-3.27-1.3,1.1-2.85,2.06-4.63,2.88l-.84-.96c1.87-.68,3.52-1.66,4.95-2.93-.72-1.49-1.2-2.93-1.44-4.31h-4.38l-.15,1.44c1.33,.7,2.46,1.48,3.39,2.34l-.69,1.01c-.6-.66-1.55-1.38-2.86-2.18-.49,2.3-1.49,4.25-3,5.86l-1.1-.77c1.95-1.72,3-4.29,3.14-7.7h-2.13v-1.21h7.56c-.46-3.84-.72-7.69-.77-11.57l1.23,.05c.1,5.2,.37,9.04,.81,11.52h2.43c-.06-.14-.25-.52-.57-1.12l.98-.41c.31,.39,.59,.9,.84,1.54h2.57v1.21h-6.02c.17,1.03,.55,2.16,1.12,3.39,.77-.8,1.47-1.75,2.09-2.86l.94,.6c-.75,1.28-1.61,2.39-2.57,3.34,.33,.67,.75,1.32,1.27,1.93s.91,.93,1.2,.93c.23,0,.43-.21,.62-.63s.37-1.33,.54-2.74l1.05,.57Zm-8.54-7.1l-1.08,.3c-.02-.28-.09-.65-.19-1.1-1.7,.16-3.17,.32-4.39,.48l-.19-.87c1.02-1.22,1.87-2.33,2.54-3.33l-2.5,.38-.32-1.03c1.09-1.8,1.9-3.42,2.45-4.86l1.08,.5c-.48,1.13-1.2,2.49-2.13,4.08,.77-.07,1.53-.19,2.3-.36,.34-.49,.72-1.14,1.14-1.95l1.03,.57c-1.16,1.95-2.48,3.81-3.98,5.57,.79-.04,1.68-.12,2.68-.26-.11-.56-.28-1.1-.5-1.61l1.05-.29c.42,.97,.76,2.23,1.01,3.77Zm8.31-.07l-1.08,.33c-.04-.26-.13-.63-.27-1.12-1.3,.15-2.73,.34-4.31,.57l-.32-1.03c1.01-1.2,1.83-2.26,2.47-3.19-.66,.08-1.47,.2-2.43,.38l-.36-1.03c.99-1.59,1.79-3.16,2.4-4.7l1.08,.48c-.66,1.39-1.36,2.7-2.09,3.94,.48-.06,1.25-.18,2.29-.36,.3-.44,.65-1,1.05-1.7l1.03,.53c-.86,1.46-2.12,3.25-3.77,5.37l2.62-.3c-.13-.55-.28-.98-.43-1.3l1.05-.33c.42,1.05,.77,2.21,1.05,3.48Z"/>
        <path class="cls-1" d="M244.29,235.91c-2.45,1.37-4.53,2.36-6.23,2.98l-.5-1.23c1.12-.35,2.14-.77,3.07-1.24v-6.77h-2.78v-1.2h2.78v-5.68h1.25v5.68h2.37v1.2h-2.37v6.22c.85-.41,1.59-.8,2.2-1.18l.21,1.23Zm14.26-2.72h-8.77c-.27,.49-.62,1.04-1.05,1.64h9.02c-.05,1.41-.16,2.9-.33,4.45s-.3,2.47-.42,2.77-.3,.57-.55,.84-.56,.46-.93,.6-1.04,.2-2.02,.2c-.26,0-.52,0-.8-.02l-.48-1.22c.64,.06,1.26,.09,1.85,.09,.65,0,1.08-.08,1.29-.24s.37-.37,.47-.63,.22-.99,.35-2.18,.22-2.37,.28-3.52h-1.44c-1.46,3.36-4.04,5.92-7.73,7.68l-.93-.88c3.62-1.72,6.07-3.98,7.36-6.8h-2.2c-1.56,2.41-4.13,4.41-7.71,6l-.86-.98c3.38-1.42,5.75-3.09,7.12-5.02h-2.4c-1.06,1.02-2.27,1.89-3.62,2.61l-.89-.91c2.42-1.23,4.16-2.72,5.21-4.46h-4.59v-1.2h14.77v1.2Zm-1.68-2.85h-11.47v-7.05h11.47v7.05Zm-1.23-4.16v-1.7h-9v1.7h9Zm0,2.98v-1.84h-9v1.84h9Z"/>
        <path class="cls-1" d="M266.77,237.97c-.39,2.21-.91,4.04-1.57,5.47l-1.1-.55c.57-1.34,1.08-3.07,1.54-5.19l1.14,.27Zm5.64-1.75l-1.1,.42c-.09-.45-.17-.82-.25-1.1-2.37,.66-4.51,1.16-6.43,1.51l-.43-1.03c1.84-1.65,3.43-3.57,4.78-5.75-1.33,.25-2.75,.48-4.28,.69l-.28-1.1c1.78-2.08,3.17-4.47,4.17-7.18l1.18,.32c-.79,2.16-1.98,4.36-3.59,6.6,.99-.12,2.17-.3,3.53-.55,.5-.75,1.02-1.68,1.55-2.78l1.17,.46c-1.99,3.7-4.01,6.62-6.05,8.78,1.4-.27,2.83-.62,4.29-1.03-.13-.48-.36-1.04-.69-1.68l1.1-.43c.7,1.52,1.14,2.81,1.32,3.87Zm-2.7,6.55l-1.17,.23c.02-1.54-.13-3.22-.46-5.04l1.08-.21c.43,2,.61,3.67,.55,5.02Zm3.25-1.95l-1.05,.41c-.26-1.23-.6-2.36-1.03-3.41l1.01-.41c.48,1.09,.84,2.22,1.08,3.41Zm3.46-6.41l-1.05,.5c-.91-1.74-1.91-3.3-3-4.68,1.13-1.62,2.02-3.1,2.66-4.42l1.12,.43c-.7,1.46-1.49,2.79-2.37,3.98,.98,1.26,1.86,2.65,2.64,4.17Zm8.59,8.73h-12.39v-1.2h5.54v-4.9h-4.89v-1.22h11.13v1.22h-4.97v4.9h5.57v1.2Zm-.29-18.62h-12.07v-1.2h12.07v1.2Zm-4.03,9.75l-1.05,.6c-.8-1.55-1.77-3.06-2.91-4.54,1.12-1.62,1.97-3.06,2.53-4.3l1.22,.39c-.66,1.28-1.45,2.58-2.38,3.89,.98,1.3,1.84,2.62,2.59,3.96Zm4.25,.05l-1.05,.57c-.8-1.52-1.78-3.01-2.95-4.49,1.06-1.54,1.93-3.02,2.59-4.44l1.17,.43c-.75,1.46-1.52,2.77-2.3,3.91,1.12,1.59,1.97,2.92,2.54,4.01Z"/>
        <path class="cls-1" d="M294.65,231.42l-.8,.91c-.48-.49-1.58-1.28-3.32-2.36l.73-.96c1.39,.79,2.52,1.59,3.39,2.4Zm.09,4.58c-1.18,3.64-2.22,6.27-3.13,7.88l-.97-.8c1.2-2.22,2.2-4.79,3.02-7.72l1.08,.64Zm-.09-10.58l-.8,.91c-.78-.8-1.83-1.67-3.14-2.59l.71-.94c1.33,.88,2.4,1.75,3.22,2.61Zm6.79,1.92c0,3.09-.15,4.89-.44,5.4s-.99,.73-2.1,.64l-.29-1.08c.23,.03,.44,.05,.62,.05,.55,0,.87-.23,.98-.7s.14-1.52,.11-3.17h-1.56c-.45,2.79-1.33,4.73-2.65,5.81l-.81-.75c1.24-1.07,2.01-2.76,2.3-5.06h-1.56v-1.15h5.4Zm7.88,16.36h-1.28v-3.88h-9.5c-.46,1.67-1.12,2.98-1.99,3.94l-1.03-.77c1.43-1.61,2.14-3.79,2.14-6.55v-2.36h1.24v1.35h9.14v-1.32h1.28v9.6Zm2.09-18.16h-15.5v-1.17h6.94c-.05-.12-.3-.59-.77-1.39l1.21-.29c.37,.63,.65,1.2,.86,1.69h7.28v1.17Zm-3.36,13.1v-2.06h-9.19c0,.71-.05,1.4-.14,2.06h9.33Zm-1.95-12.38c-.59,1.09-1.27,2.16-2.04,3.23v4.54h-1.12v-4.37c-.46-1.12-1.04-2.23-1.72-3.35l.83-.68c.45,.76,.93,1.73,1.46,2.93,.58-.8,1.13-1.77,1.66-2.91l.93,.61Zm4.57,1.08c-1.22,.56-2.5,1.03-3.84,1.39v3.3c.47-.12,1-.29,1.58-.53l.16,1.05c-1.07,.38-2.04,.7-2.89,.98l-.39-.87c.29-.27,.43-.53,.43-.79v-4.01c1.8-.43,3.24-.93,4.31-1.49l.63,.94Zm.81,5.54l-.87,.69c-.98-.97-1.75-2.41-2.3-4.34l.96-.43c.4,1.38,1.13,2.74,2.2,4.08Z"/>
        <path class="cls-1" d="M320.4,242.58h5.61v-9.19h1.3v10.42h-6.91v-1.23Z"/>
        <path class="cls-1" d="M353.77,230.83c.67,0,1.25,.23,1.72,.69s.71,1.04,.71,1.73-.22,1.27-.66,1.72-1,.68-1.69,.68c-.62,0-1.18-.2-1.66-.6s-.72-1.02-.72-1.85c0-.77,.24-1.36,.73-1.77s1.01-.61,1.55-.61Zm1.45,2.44c0-.41-.14-.75-.42-1s-.62-.38-1.02-.38-.72,.14-.98,.42-.39,.6-.39,.97c0,.34,.12,.67,.38,.97s.59,.46,1.02,.46c.41,0,.74-.13,1.01-.4s.4-.61,.4-1.03Z"/>
      </g>
      <g>
        <path class="cls-3" d="M11.69,36.3c-3.26-1.76-5.75-4.14-7.47-7.14-1.72-3-2.58-6.3-2.58-9.9,0-3.88,.98-7.27,2.94-10.17,1.96-2.9,4.65-5.13,8.07-6.69C16.07,.84,19.9,.06,24.14,.06c2.12,0,4.12,.2,6,.6,1.88,.4,3.44,.98,4.68,1.74,.32,.16,.5,.3,.54,.42,.04,.12,.08,.42,.12,.9l.72,7.08c0,.12-.11,.2-.33,.24-.22,.04-.35-.02-.39-.18-1.84-6.56-6-9.84-12.48-9.84-3.16,0-6.01,.71-8.55,2.13-2.54,1.42-4.54,3.44-6,6.06-1.46,2.62-2.19,5.67-2.19,9.15s.7,6.6,2.1,9.6c1.4,3,3.5,5.43,6.3,7.29,2.8,1.86,6.18,2.79,10.14,2.79,2.84,0,4.84-.55,6-1.65,1.16-1.1,1.74-2.99,1.74-5.67,0-2.08-.13-3.53-.39-4.35-.26-.82-.84-1.37-1.74-1.65-.9-.28-2.47-.42-4.71-.42-.24,0-.36-.16-.36-.48,0-.12,.03-.23,.09-.33,.06-.1,.13-.15,.21-.15,3.12,.2,5.64,.3,7.56,.3s3.82-.06,5.94-.18c.08,0,.15,.05,.21,.15,.06,.1,.09,.19,.09,.27,0,.28-.1,.42-.3,.42-1-.04-1.69,.09-2.07,.39-.38,.3-.63,.9-.75,1.8-.12,.9-.18,2.51-.18,4.83,0,1.8,.07,3.08,.21,3.84,.14,.76,.21,1.24,.21,1.44,0,.24-.04,.4-.12,.48-.08,.08-.26,.16-.54,.24-4.96,1.08-9.2,1.62-12.72,1.62-4.4,0-8.23-.88-11.49-2.64Z"/>
        <path class="cls-3" d="M55.64,33.12c0,1.16,.12,2,.36,2.52,.24,.52,.68,.87,1.32,1.05,.64,.18,1.68,.27,3.12,.27h6.54c2.28,0,4.1-.7,5.46-2.1,1.36-1.4,2.26-3.34,2.7-5.82,0-.12,.11-.17,.33-.15,.22,.02,.33,.09,.33,.21-.36,3.32-.54,6.06-.54,8.22,0,.32-.06,.55-.18,.69-.12,.14-.36,.21-.72,.21h-27.72c-.08,0-.12-.12-.12-.36s.04-.36,.12-.36c1.52,0,2.63-.1,3.33-.3,.7-.2,1.17-.59,1.41-1.17,.24-.58,.36-1.47,.36-2.67V5.58c0-1.2-.12-2.08-.36-2.64-.24-.56-.71-.95-1.41-1.17-.7-.22-1.81-.33-3.33-.33-.08,0-.12-.12-.12-.36s.04-.36,.12-.36l2.94,.06c1.68,.08,3.04,.12,4.08,.12,1.12,0,2.52-.04,4.2-.12l2.88-.06c.12,0,.18,.12,.18,.36s-.06,.36-.18,.36c-1.48,0-2.57,.11-3.27,.33-.7,.22-1.18,.62-1.44,1.2-.26,.58-.39,1.47-.39,2.67v27.48Z"/>
        <path class="cls-3" d="M91.55,36.33c-2.9-1.74-5.14-4.1-6.72-7.08-1.58-2.98-2.37-6.23-2.37-9.75,0-4.12,1.04-7.65,3.12-10.59,2.08-2.94,4.75-5.15,8.01-6.63C96.85,.8,100.18,.06,103.58,.06c3.8,0,7.14,.89,10.02,2.67,2.88,1.78,5.09,4.13,6.63,7.05,1.54,2.92,2.31,6.02,2.31,9.3,0,3.64-.96,6.98-2.88,10.02-1.92,3.04-4.49,5.44-7.71,7.2-3.22,1.76-6.71,2.64-10.47,2.64s-7.03-.87-9.93-2.61Zm19.38-.63c2.18-1.32,3.9-3.26,5.16-5.82,1.26-2.56,1.89-5.6,1.89-9.12,0-3.76-.7-7.1-2.1-10.02-1.4-2.92-3.37-5.2-5.91-6.84-2.54-1.64-5.51-2.46-8.91-2.46-4.4,0-7.84,1.42-10.32,4.26-2.48,2.84-3.72,6.74-3.72,11.7,0,3.76,.7,7.19,2.1,10.29,1.4,3.1,3.36,5.54,5.88,7.32,2.52,1.78,5.38,2.67,8.58,2.67,2.72,0,5.17-.66,7.35-1.98Z"/>
        <path class="cls-3" d="M156.05,20.25c1.94,1.86,2.91,4.17,2.91,6.93,0,2.12-.52,4.04-1.56,5.76-1.04,1.72-2.47,3.07-4.29,4.05-1.82,.98-3.85,1.47-6.09,1.47-1.32,0-2.76-.06-4.32-.18-.56-.04-1.22-.08-1.98-.12-.76-.04-1.6-.06-2.52-.06l-4.08,.06c-.72,.04-1.74,.06-3.06,.06-.08,0-.12-.12-.12-.36s.04-.36,.12-.36c1.48,0,2.58-.11,3.3-.33,.72-.22,1.22-.61,1.5-1.17,.28-.56,.42-1.44,.42-2.64V5.58c0-1.2-.13-2.08-.39-2.64-.26-.56-.74-.95-1.44-1.17-.7-.22-1.79-.33-3.27-.33-.12,0-.18-.12-.18-.36s.06-.36,.18-.36l2.94,.06c1.68,.08,3.04,.12,4.08,.12,.72,0,1.39-.02,2.01-.06,.62-.04,1.15-.08,1.59-.12,1.24-.12,2.4-.18,3.48-.18,3.36,0,5.88,.73,7.56,2.19,1.68,1.46,2.52,3.37,2.52,5.73,0,1.92-.62,3.63-1.86,5.13-1.24,1.5-2.94,2.67-5.1,3.51,3.16,.24,5.71,1.29,7.65,3.15ZM141.68,1.71c-.52,.18-.9,.56-1.14,1.14-.24,.58-.36,1.53-.36,2.85v11.4l2.7,.06c2.92,0,5.08-.75,6.48-2.25,1.4-1.5,2.1-3.49,2.1-5.97,0-2.24-.61-4.05-1.83-5.43-1.22-1.38-3.09-2.07-5.61-2.07-1.04,0-1.82,.09-2.34,.27Zm10.95,33.42c1.42-1.5,2.13-3.65,2.13-6.45,0-3.04-.89-5.5-2.67-7.38-1.78-1.88-4.23-2.84-7.35-2.88-1.28-.04-2.8,0-4.56,.12v14.82c0,1.04,.15,1.84,.45,2.4,.3,.56,.88,.97,1.74,1.23,.86,.26,2.11,.39,3.75,.39,2.92,0,5.09-.75,6.51-2.25Z"/>
        <path class="cls-3" d="M207.14,37.86c0,.24-.08,.36-.24,.36-.76,0-1.94-.04-3.54-.12-1.6-.08-2.76-.12-3.48-.12-.88,0-2,.04-3.36,.12-1.28,.08-2.26,.12-2.94,.12-.16,0-.24-.12-.24-.36s.08-.36,.24-.36c1.48,0,2.56-.14,3.24-.42,.68-.28,1.02-.76,1.02-1.44,0-.56-.26-1.42-.78-2.58l-5.34-11.34h-14.28l-3.78,8.88c-.56,1.36-.84,2.46-.84,3.3,0,1.24,.49,2.15,1.47,2.73,.98,.58,2.45,.87,4.41,.87,.2,0,.3,.12,.3,.36s-.1,.36-.3,.36c-.72,0-1.76-.04-3.12-.12-1.52-.08-2.84-.12-3.96-.12-1.04,0-2.24,.04-3.6,.12-1.2,.08-2.2,.12-3,.12-.2,0-.3-.12-.3-.36s.1-.36,.3-.36c1.12,0,2.07-.21,2.85-.63,.78-.42,1.52-1.16,2.22-2.22,.7-1.06,1.47-2.59,2.31-4.59L185.06,.18c.08-.12,.22-.18,.42-.18s.32,.06,.36,.18l14.16,29.82c1.36,2.96,2.52,4.95,3.48,5.97s2.1,1.53,3.42,1.53c.16,0,.24,.12,.24,.36Zm-29.22-17.34h13.26l-7.02-14.82-6.24,14.82Z"/>
        <path class="cls-3" d="M221.18,33.12c0,1.16,.12,2,.36,2.52,.24,.52,.68,.87,1.32,1.05,.64,.18,1.68,.27,3.12,.27h6.54c2.28,0,4.1-.7,5.46-2.1,1.36-1.4,2.26-3.34,2.7-5.82,0-.12,.11-.17,.33-.15,.22,.02,.33,.09,.33,.21-.36,3.32-.54,6.06-.54,8.22,0,.32-.06,.55-.18,.69-.12,.14-.36,.21-.72,.21h-27.72c-.08,0-.12-.12-.12-.36s.04-.36,.12-.36c1.52,0,2.63-.1,3.33-.3,.7-.2,1.17-.59,1.41-1.17,.24-.58,.36-1.47,.36-2.67V5.58c0-1.2-.12-2.08-.36-2.64-.24-.56-.71-.95-1.41-1.17-.7-.22-1.81-.33-3.33-.33-.08,0-.12-.12-.12-.36s.04-.36,.12-.36l2.94,.06c1.68,.08,3.04,.12,4.08,.12,1.12,0,2.52-.04,4.2-.12l2.88-.06c.12,0,.18,.12,.18,.36s-.06,.36-.18,.36c-1.48,0-2.57,.11-3.27,.33-.7,.22-1.18,.62-1.44,1.2-.26,.58-.39,1.47-.39,2.67v27.48Z"/>
        <path class="cls-3" d="M302.42,1.08c0,.24-.06,.36-.18,.36-1.36,0-2.54,.36-3.54,1.08-1,.72-1.84,1.94-2.52,3.66l-12.78,31.98c-.04,.16-.26,.24-.66,.24-.32,0-.54-.08-.66-.24l-14.94-32.46c-.68-1.56-1.4-2.66-2.16-3.3-.76-.64-1.74-.96-2.94-.96-.12,0-.18-.12-.18-.36s.06-.36,.18-.36l2.28,.06c1.12,.08,2.02,.12,2.7,.12,1.6,0,3.32-.04,5.16-.12l2.46-.06c.12,0,.18,.12,.18,.36s-.06,.36-.18,.36c-2.48,0-3.72,.7-3.72,2.1,0,.48,.18,1.12,.54,1.92l12.54,27.48,10.8-27.06c.32-.84,.48-1.5,.48-1.98,0-.84-.38-1.46-1.14-1.86-.76-.4-1.94-.6-3.54-.6-.12,0-.18-.12-.18-.36s.06-.36,.18-.36l2.58,.06c1.36,.08,2.6,.12,3.72,.12,.84,0,1.78-.04,2.82-.12l2.52-.06c.12,0,.18,.12,.18,.36Z"/>
        <path class="cls-3" d="M317.36,36.03c.24,.58,.71,.97,1.41,1.17,.7,.2,1.81,.3,3.33,.3,.12,0,.18,.12,.18,.36s-.06,.36-.18,.36c-1.2,0-2.16-.02-2.88-.06l-4.26-.06-4.14,.06c-.72,.04-1.7,.06-2.94,.06-.12,0-.18-.12-.18-.36s.06-.36,.18-.36c1.52,0,2.63-.1,3.33-.3,.7-.2,1.18-.59,1.44-1.17,.26-.58,.39-1.47,.39-2.67V5.58c0-1.2-.13-2.08-.39-2.64-.26-.56-.74-.95-1.44-1.17-.7-.22-1.81-.33-3.33-.33-.12,0-.18-.12-.18-.36s.06-.36,.18-.36l2.94,.06c1.68,.08,3.06,.12,4.14,.12,1.2,0,2.64-.04,4.32-.12l2.82-.06c.12,0,.18,.12,.18,.36s-.06,.36-.18,.36c-1.48,0-2.57,.12-3.27,.36-.7,.24-1.18,.65-1.44,1.23-.26,.58-.39,1.47-.39,2.67v27.66c0,1.2,.12,2.09,.36,2.67Z"/>
        <path class="cls-3" d="M337.82,11.82c.76,1.16,1.69,2.13,2.79,2.91,1.1,.78,2.61,1.75,4.53,2.91,2.12,1.28,3.75,2.34,4.89,3.18,1.14,.84,2.12,1.91,2.94,3.21,.82,1.3,1.23,2.85,1.23,4.65,0,1.92-.48,3.66-1.44,5.22-.96,1.56-2.37,2.79-4.23,3.69-1.86,.9-4.09,1.35-6.69,1.35-3.08,0-5.9-.7-8.46-2.1-.2-.12-.33-.26-.39-.42-.06-.16-.11-.4-.15-.72l-.78-8.16c-.04-.16,.05-.26,.27-.3,.22-.04,.35,.02,.39,.18,.64,2.88,1.83,5.36,3.57,7.44,1.74,2.08,4.05,3.12,6.93,3.12,2,0,3.69-.55,5.07-1.65,1.38-1.1,2.07-2.85,2.07-5.25,0-1.8-.4-3.36-1.2-4.68-.8-1.32-1.77-2.41-2.91-3.27-1.14-.86-2.69-1.87-4.65-3.03-1.92-1.16-3.43-2.16-4.53-3-1.1-.84-2.03-1.9-2.79-3.18-.76-1.28-1.14-2.78-1.14-4.5,0-2,.53-3.71,1.59-5.13,1.06-1.42,2.44-2.48,4.14-3.18,1.7-.7,3.51-1.05,5.43-1.05,2.36,0,4.7,.48,7.02,1.44,.6,.2,.9,.54,.9,1.02l.42,6.9c0,.16-.1,.24-.3,.24s-.32-.08-.36-.24c-.32-2.08-1.18-4.01-2.58-5.79-1.4-1.78-3.42-2.67-6.06-2.67-2.24,0-3.91,.65-5.01,1.95-1.1,1.3-1.65,2.91-1.65,4.83,0,1.56,.38,2.92,1.14,4.08Z"/>
        <path class="cls-3" d="M372.74,36.03c.24,.58,.71,.97,1.41,1.17,.7,.2,1.81,.3,3.33,.3,.12,0,.18,.12,.18,.36s-.06,.36-.18,.36c-1.2,0-2.16-.02-2.88-.06l-4.26-.06-4.14,.06c-.72,.04-1.7,.06-2.94,.06-.12,0-.18-.12-.18-.36s.06-.36,.18-.36c1.52,0,2.63-.1,3.33-.3,.7-.2,1.18-.59,1.44-1.17,.26-.58,.39-1.47,.39-2.67V5.58c0-1.2-.13-2.08-.39-2.64-.26-.56-.74-.95-1.44-1.17-.7-.22-1.81-.33-3.33-.33-.12,0-.18-.12-.18-.36s.06-.36,.18-.36l2.94,.06c1.68,.08,3.06,.12,4.14,.12,1.2,0,2.64-.04,4.32-.12l2.82-.06c.12,0,.18,.12,.18,.36s-.06,.36-.18,.36c-1.48,0-2.57,.12-3.27,.36-.7,.24-1.18,.65-1.44,1.23-.26,.58-.39,1.47-.39,2.67v27.66c0,1.2,.12,2.09,.36,2.67Z"/>
        <path class="cls-3" d="M395.39,36.33c-2.9-1.74-5.14-4.1-6.72-7.08-1.58-2.98-2.37-6.23-2.37-9.75,0-4.12,1.04-7.65,3.12-10.59,2.08-2.94,4.75-5.15,8.01-6.63,3.26-1.48,6.59-2.22,9.99-2.22,3.8,0,7.14,.89,10.02,2.67,2.88,1.78,5.09,4.13,6.63,7.05,1.54,2.92,2.31,6.02,2.31,9.3,0,3.64-.96,6.98-2.88,10.02-1.92,3.04-4.49,5.44-7.71,7.2-3.22,1.76-6.71,2.64-10.47,2.64s-7.03-.87-9.93-2.61Zm19.38-.63c2.18-1.32,3.9-3.26,5.16-5.82,1.26-2.56,1.89-5.6,1.89-9.12,0-3.76-.7-7.1-2.1-10.02-1.4-2.92-3.37-5.2-5.91-6.84-2.54-1.64-5.51-2.46-8.91-2.46-4.4,0-7.84,1.42-10.32,4.26-2.48,2.84-3.72,6.74-3.72,11.7,0,3.76,.7,7.19,2.1,10.29,1.4,3.1,3.36,5.54,5.88,7.32,2.52,1.78,5.38,2.67,8.58,2.67,2.72,0,5.17-.66,7.35-1.98Z"/>
        <path class="cls-3" d="M474.74,1.08c0,.24-.06,.36-.18,.36-1.68,0-2.9,.46-3.66,1.38-.76,.92-1.14,2.42-1.14,4.5v31.62c0,.08-.1,.14-.3,.18-.2,.04-.34,.02-.42-.06l-27.6-33.42-.54-.6V31.68c0,2.08,.37,3.57,1.11,4.47,.74,.9,1.93,1.35,3.57,1.35,.12,0,.18,.12,.18,.36s-.06,.36-.18,.36c-1,0-1.76-.02-2.28-.06l-3-.06-3.06,.06c-.56,.04-1.38,.06-2.46,.06-.08,0-.12-.12-.12-.36s.04-.36,.12-.36c1.72,0,2.94-.45,3.66-1.35,.72-.9,1.08-2.39,1.08-4.47V3.6c-1.56-1.44-3.14-2.16-4.74-2.16-.12,0-.18-.12-.18-.36s.06-.36,.18-.36l2.22,.06c.48,.04,1.14,.06,1.98,.06s1.6-.02,2.16-.06c.56-.04,1-.06,1.32-.06s.55,.07,.69,.21c.14,.14,.37,.45,.69,.93,.48,.72,.96,1.38,1.44,1.98l23.1,28.38V7.32c0-2.08-.35-3.58-1.05-4.5-.7-.92-1.87-1.38-3.51-1.38-.08,0-.12-.12-.12-.36s.04-.36,.12-.36l2.34,.06c1.2,.08,2.18,.12,2.94,.12,.72,0,1.72-.04,3-.12l2.46-.06c.12,0,.18,.12,.18,.36Z"/>
      </g>
    </g>
  </g>
</svg>