<?xml version="1.0" encoding="UTF-8"?>
<svg id="_圖層_2" data-name="圖層 2" xmlns="http://www.w3.org/2000/svg" viewBox="0 0 152.77 117.45">
  <defs>
    <style>
      .cls-1 {
        fill: none;
        stroke: #1a1a1a;
        stroke-miterlimit: 10;
      }

      .cls-2 {
        fill: #1a1a1a;
      }

      .cls-3 {
        fill: #c3a457;
      }
    </style>
  </defs>
  <g id="_圖層_1-2" data-name="圖層 1">
    <g>
      <g>
        <path class="cls-2" d="M19.94,76.02l.2,7.09h-.38c-.12-.31-.21-.54-.28-.7-.39-1.02-.7-1.77-.94-2.27-.43-.89-1.05-1.7-1.86-2.44-.62-.56-1.25-.97-1.91-1.22-.66-.25-1.4-.38-2.23-.38-1.24,0-2.32,.26-3.23,.78-.8,.45-1.55,1.11-2.24,1.96-.69,.85-1.26,1.82-1.7,2.91-.63,1.53-.94,3.28-.94,5.23,0,1.66,.21,3.16,.64,4.49,.43,1.33,1.06,2.45,1.88,3.35,1.52,1.67,3.53,2.51,6.04,2.51,1.25,0,2.38-.21,3.38-.63,1-.42,1.78-1.01,2.33-1.77,.64-.88,1.1-2.06,1.39-3.55l.38,.06c-.21,1.67-.68,3-1.42,3.98-.7,.94-1.67,1.66-2.91,2.16-1.24,.5-2.67,.75-4.3,.75-1.52,0-2.97-.22-4.36-.65-2.21-.7-3.94-1.96-5.18-3.78-1.24-1.82-1.86-4-1.86-6.53,0-1.94,.36-3.72,1.09-5.35,.73-1.63,1.74-2.95,3.04-3.94,1-.76,2.2-1.37,3.59-1.82,1.39-.45,2.79-.67,4.18-.67s2.74,.24,4.22,.73l1.35,.43c.26,.1,.49,.14,.69,.14,.27,0,.5-.11,.68-.33,.08-.11,.17-.28,.28-.52h.4Z"/>
        <path class="cls-2" d="M29.02,97.78v-.38c1.11,0,1.97-.3,2.57-.9,.34-.34,.57-.77,.7-1.29,.13-.52,.19-1.32,.19-2.4v-11.69c0-1.12-.07-1.95-.21-2.48-.14-.53-.39-.97-.77-1.31-.31-.27-.65-.48-1.03-.6-.38-.13-.87-.2-1.46-.22v-.36h10.54v.36c-.61,.03-1.1,.11-1.48,.24-.39,.13-.73,.33-1.02,.6-.37,.35-.63,.79-.76,1.32-.13,.53-.2,1.35-.2,2.46v9.15c0,1.41,.04,2.45,.12,3.14,.08,.69,.23,1.25,.45,1.68,.38,.76,.96,1.32,1.72,1.67,.76,.35,1.77,.53,3.02,.53s2.41-.17,3.31-.5c.9-.33,1.63-.85,2.2-1.55,.38-.48,.7-1.02,.95-1.62,.25-.6,.48-1.4,.68-2.38l.4,.03-.21,6.5H29.02Z"/>
        <path class="cls-2" d="M81.04,97.78h-10.84v-.36c.98-.08,1.66-.24,2.05-.48,.68-.41,1.02-.98,1.02-1.71,0-.43-.15-1.02-.46-1.74l-.28-.67-1.58-3.74h-7.26l-.86,2.19-.41,.98c-.49,1.16-.74,2.08-.74,2.74,0,.39,.09,.76,.27,1.09,.18,.34,.43,.61,.73,.82,.43,.29,.98,.45,1.65,.51v.36h-7.39v-.36c.58-.03,1.09-.17,1.53-.41,.44-.24,.87-.63,1.29-1.17,.35-.43,.7-.99,1.03-1.67,.34-.68,.78-1.71,1.33-3.07l6.04-14.96h.94l7.18,16.67c.54,1.26,.97,2.16,1.29,2.7,.32,.54,.67,.95,1.04,1.22,.26,.19,.57,.34,.91,.44,.34,.1,.85,.19,1.53,.26v.36Zm-10.36-9.36l-3.46-8.22-3.27,8.22h6.73Z"/>
        <path class="cls-2" d="M136.21,97.78v-.36c.63-.03,1.14-.12,1.53-.25,.4-.14,.75-.36,1.06-.67,.34-.34,.57-.77,.69-1.28,.12-.52,.18-1.32,.18-2.41l.02-3.09c0-.44-.09-.94-.28-1.48-.21-.62-.64-1.41-1.29-2.35l-4.27-6.17-.76-1.11c-.56-.8-1.11-1.35-1.65-1.65-.28-.16-.55-.27-.82-.33-.28-.06-.66-.11-1.15-.13v-.36h10.76v.36c-.91,.05-1.5,.13-1.75,.24-.62,.25-.92,.71-.92,1.38,0,.24,.07,.52,.21,.82,.14,.31,.36,.69,.67,1.16l4.47,6.73,3.83-5.74,.43-.65c.41-.61,.61-1.22,.61-1.81,0-.68-.23-1.2-.68-1.57-.45-.37-1.08-.56-1.9-.56v-.36h7.59v.36c-.57,.06-1.01,.16-1.32,.28-.31,.12-.62,.32-.94,.59-.75,.68-1.58,1.69-2.49,3.03l-3.76,5.52c-.45,.66-.73,1.14-.82,1.44-.1,.31-.15,.82-.15,1.55v3.89c0,1.13,.06,1.94,.17,2.43s.35,.91,.7,1.26c.6,.61,1.47,.92,2.59,.92v.36h-10.54Z"/>
      </g>
      <path class="cls-3" d="M100.96,89.27c-.42-.71-.93-1.28-1.52-1.71-.03-.02-.06-.04-.08-.06-.57-.4-1.15-.7-1.74-.91-.62-.22-1.14-.39-1.55-.52l-3.91-1.23c-.56-.17-1.11-.37-1.66-.6-.55-.23-1.04-.51-1.48-.84-.44-.33-.8-.74-1.08-1.23-.28-.49-.42-1.07-.42-1.76,0-.86,.18-1.57,.53-2.13,.36-.56,.8-1.01,1.34-1.36,.54-.35,1.12-.59,1.74-.73,.02,0,.05-.01,.07-.02,.6-.13,1.15-.2,1.64-.2,.93,0,1.74,.17,2.44,.5,.7,.33,1.3,.78,1.79,1.33,1.35,1.48,2.26,4.57,2.26,4.57v-6.59c-.27,.81-.89,1.02-1.42,1-.3-.02-.6-.06-.89-.19-.29-.13-.62-.27-.98-.44-.37-.16-.81-.31-1.31-.44-.5-.13-1.13-.19-1.89-.19-.6,0-1.17,.07-1.71,.18-.4,.08-.78,.19-1.15,.33-.33,.13-.65,.29-.94,.46-.48,.27-.92,.59-1.3,.96-.63,.6-1.11,1.32-1.45,2.15-.35,.83-.52,1.73-.52,2.7,0,1.49,.45,2.67,1.34,3.55,.89,.88,2.21,1.59,3.95,2.13l3.71,1.13c.45,.13,.93,.32,1.44,.55,.51,.24,.98,.54,1.41,.92,.43,.38,.79,.84,1.07,1.37,.04,.08,.08,.17,.12,.25,.38,.75,.59,1.6,.59,2.51,0,1.49-.57,2.83-1.5,3.82,2.01-1.44,2.83-2.94,3.14-3.69,.38-.92,.56-1.88,.56-2.89,0-1.1-.21-2-.63-2.71Z"/>
      <path class="cls-3" d="M122.87,89.39c-.42-.71-.93-1.28-1.52-1.71-.03-.02-.06-.04-.08-.06-.57-.4-1.15-.7-1.74-.91-.62-.22-1.14-.39-1.55-.52l-3.91-1.23c-.56-.17-1.11-.37-1.66-.6-.55-.23-1.04-.51-1.48-.84-.44-.33-.8-.74-1.08-1.23-.28-.49-.42-1.07-.42-1.76,0-.86,.18-1.57,.53-2.13,.36-.56,.8-1.01,1.34-1.36,.54-.35,1.12-.59,1.74-.73,.02,0,.05-.01,.07-.02,.6-.13,1.15-.2,1.64-.2,.93,0,1.74,.17,2.44,.5,.7,.33,1.3,.78,1.79,1.33,1.35,1.48,2.26,4.57,2.26,4.57v-6.59c-.27,.81-.89,1.02-1.42,1-.3-.02-.6-.06-.89-.19-.29-.13-.62-.27-.98-.44-.37-.16-.81-.31-1.31-.44-.5-.13-1.13-.19-1.89-.19-.6,0-1.17,.07-1.71,.18-.4,.08-.78,.19-1.15,.33-.33,.13-.65,.29-.94,.46-.48,.27-.92,.59-1.3,.96-.63,.6-1.11,1.32-1.45,2.15-.35,.83-.52,1.73-.52,2.7,0,1.49,.45,2.67,1.34,3.55,.89,.88,2.21,1.59,3.95,2.13l3.71,1.13c.45,.13,.93,.32,1.44,.55,.51,.24,.98,.54,1.41,.92,.43,.38,.79,.84,1.07,1.37,.04,.08,.08,.17,.12,.25,.38,.75,.59,1.6,.59,2.51,0,1.49-.57,2.83-1.5,3.82,2.01-1.44,2.83-2.94,3.14-3.69,.38-.92,.56-1.88,.56-2.89,0-1.1-.21-2-.63-2.71Z"/>
      <g>
        <path class="cls-3" d="M50.35,63.28c-.1-.15-.24-.26-.42-.33-.17-.07-.36-.11-.55-.11-.11,0-.23,.01-.33,.04-.11,.03-.2,.07-.29,.13-.09,.06-.16,.13-.21,.22-.05,.09-.08,.2-.08,.33,0,.19,.07,.33,.2,.43,.13,.1,.29,.19,.49,.26,.19,.07,.4,.14,.63,.21,.23,.07,.44,.16,.63,.28,.19,.12,.36,.28,.49,.48,.13,.2,.2,.46,.2,.79,0,.3-.05,.56-.16,.78-.11,.22-.26,.41-.44,.55-.19,.15-.4,.26-.65,.33-.25,.07-.5,.11-.78,.11-.34,0-.68-.06-.99-.17-.32-.11-.59-.31-.82-.58l.74-.72c.12,.18,.28,.33,.47,.43,.2,.1,.4,.15,.62,.15,.11,0,.23-.02,.34-.05,.11-.03,.22-.08,.31-.14,.09-.06,.17-.14,.23-.24,.06-.1,.09-.21,.09-.33,0-.2-.07-.36-.2-.47-.13-.11-.29-.2-.49-.28-.19-.08-.4-.15-.63-.22-.23-.07-.44-.16-.63-.28-.19-.12-.36-.27-.49-.47-.13-.2-.2-.46-.2-.79,0-.29,.06-.54,.18-.74,.12-.21,.27-.38,.46-.52,.19-.14,.41-.24,.65-.31,.25-.07,.5-.1,.75-.1,.29,0,.58,.04,.85,.13,.27,.09,.52,.23,.74,.44l-.72,.76Z"/>
        <path class="cls-3" d="M58.13,65.59c0,.33-.06,.64-.17,.9-.11,.27-.27,.5-.47,.69-.2,.19-.43,.33-.7,.43-.27,.1-.57,.15-.89,.15s-.61-.05-.89-.15c-.27-.1-.51-.25-.71-.43-.2-.19-.36-.42-.47-.69-.11-.27-.17-.57-.17-.9v-3.51h.99v3.48c0,.14,.02,.28,.06,.43,.04,.15,.11,.29,.21,.41,.1,.13,.22,.23,.38,.31,.16,.08,.36,.12,.59,.12s.43-.04,.59-.12c.16-.08,.29-.18,.38-.31,.1-.13,.17-.26,.21-.41,.04-.15,.06-.29,.06-.43v-3.48h.99v3.51Z"/>
        <path class="cls-3" d="M60.91,62.08h1.31l2.69,4.12h.02v-4.12h.99v5.55h-1.25l-2.74-4.25h-.02v4.25h-.99v-5.55Z"/>
        <path class="cls-3" d="M68.71,62.08h.99v4.65h2.36v.89h-3.34v-5.55Z"/>
        <path class="cls-3" d="M76.14,62.08h.85l2.39,5.55h-1.13l-.52-1.27h-2.4l-.5,1.27h-1.1l2.41-5.55Zm1.25,3.43l-.85-2.26-.87,2.26h1.72Z"/>
        <path class="cls-3" d="M81.57,62.08h1.31l2.69,4.12h.02v-4.12h.99v5.55h-1.25l-2.74-4.25h-.02v4.25h-.99v-5.55Z"/>
        <path class="cls-3" d="M89.37,62.08h2.19c.37,0,.72,.06,1.06,.17,.34,.11,.64,.28,.9,.51,.26,.23,.47,.52,.63,.87,.16,.35,.23,.76,.23,1.23s-.09,.89-.27,1.23c-.18,.35-.41,.63-.7,.86-.28,.23-.6,.4-.95,.51-.35,.11-.69,.17-1.02,.17h-2.07v-5.55Zm1.72,4.65c.31,0,.6-.04,.87-.11s.51-.18,.72-.33c.2-.15,.36-.34,.48-.58,.12-.24,.18-.53,.18-.87s-.05-.62-.16-.86c-.1-.24-.25-.43-.43-.58-.19-.15-.4-.26-.66-.33-.25-.07-.53-.11-.83-.11h-.9v3.76h.74Z"/>
        <path class="cls-3" d="M96.72,66.64l2.15-2.08c.06-.06,.13-.13,.2-.2,.07-.07,.13-.14,.18-.22,.05-.08,.1-.16,.14-.25,.04-.09,.05-.18,.05-.27,0-.11-.02-.22-.07-.31-.04-.09-.1-.16-.18-.23-.07-.06-.16-.11-.25-.14-.1-.03-.2-.05-.31-.05-.23,0-.43,.07-.58,.2-.15,.14-.24,.32-.27,.55l-.99-.08c.02-.26,.08-.48,.18-.68,.1-.2,.23-.36,.4-.49,.16-.13,.35-.23,.56-.3,.21-.07,.45-.1,.7-.1s.48,.03,.7,.1c.22,.07,.41,.16,.57,.29,.16,.13,.29,.29,.38,.49,.09,.2,.14,.43,.14,.7,0,.35-.08,.65-.24,.9-.16,.25-.36,.49-.61,.72l-1.72,1.59h2.57v.85h-3.71v-.99Z"/>
        <path class="cls-3" d="M104,61.99c.23,0,.46,.03,.66,.1,.21,.07,.39,.16,.54,.28,.15,.12,.28,.27,.36,.45,.09,.18,.13,.39,.13,.62,0,.3-.07,.56-.21,.78-.14,.22-.35,.38-.63,.46v.02c.13,.03,.26,.08,.38,.16,.12,.08,.23,.18,.33,.3,.09,.12,.17,.25,.22,.4,.05,.15,.08,.31,.08,.49,0,.28-.05,.52-.15,.72-.1,.21-.23,.38-.4,.52-.17,.14-.37,.25-.6,.32-.23,.07-.47,.11-.73,.11s-.51-.04-.73-.11c-.23-.07-.42-.18-.59-.32-.17-.14-.3-.31-.4-.52-.1-.21-.15-.45-.15-.72,0-.17,.03-.33,.08-.49,.05-.15,.13-.29,.22-.4,.09-.12,.2-.22,.33-.3,.12-.08,.25-.13,.38-.16v-.02c-.28-.08-.49-.24-.63-.46-.14-.22-.21-.49-.21-.78,0-.23,.04-.44,.13-.62,.09-.18,.21-.33,.36-.45,.15-.12,.33-.22,.54-.28,.21-.07,.43-.1,.66-.1Zm0,3.08c-.13,0-.25,.02-.36,.06-.11,.04-.21,.1-.3,.18-.08,.08-.15,.17-.2,.28-.05,.11-.07,.22-.07,.35,0,.27,.09,.48,.26,.65,.17,.16,.4,.25,.67,.25s.49-.08,.67-.25c.17-.16,.26-.38,.26-.65,0-.13-.02-.24-.07-.35-.05-.11-.12-.2-.2-.28-.08-.08-.18-.14-.3-.18-.11-.04-.23-.06-.36-.06Zm0-2.28c-.24,0-.43,.07-.56,.22-.13,.15-.2,.32-.2,.53,0,.22,.07,.4,.2,.55,.14,.15,.32,.22,.56,.22,.1,0,.2-.02,.29-.06,.09-.04,.17-.09,.24-.16,.07-.07,.13-.15,.16-.25,.04-.09,.06-.2,.06-.31,0-.21-.07-.39-.22-.53-.14-.15-.33-.22-.54-.22Z"/>
      </g>
      <g>
        <path class="cls-2" d="M50.36,111.79h5.47v-2.38c0-.51-.03-.88-.09-1.13-.06-.24-.17-.44-.33-.6-.14-.14-.31-.25-.49-.31-.18-.06-.42-.1-.72-.12v-.17h4.92v.17c-.29,.01-.53,.05-.71,.12-.18,.06-.35,.17-.49,.31-.16,.16-.27,.36-.33,.6-.06,.24-.09,.62-.09,1.12v5.46c0,.5,.03,.88,.09,1.12,.06,.24,.17,.44,.33,.61,.14,.14,.31,.24,.49,.31,.18,.07,.42,.11,.71,.12v.17h-4.92v-.17c.3-.01,.54-.06,.72-.12,.18-.07,.35-.17,.49-.31,.16-.16,.27-.36,.33-.6,.06-.24,.09-.62,.09-1.13v-2.73h-5.47v2.73c0,.5,.03,.88,.09,1.12,.06,.24,.17,.45,.33,.6,.14,.14,.3,.24,.48,.31,.18,.07,.42,.11,.72,.12v.17h-4.92v-.17c.3-.01,.54-.06,.72-.12,.18-.07,.34-.17,.48-.31,.16-.16,.27-.36,.33-.6,.06-.24,.08-.62,.08-1.13v-5.46c0-.51-.03-.88-.08-1.13-.06-.24-.17-.44-.33-.6-.14-.14-.3-.25-.49-.31-.18-.06-.42-.1-.72-.12v-.17h4.92v.17c-.29,.01-.53,.05-.71,.12-.18,.06-.35,.17-.49,.31-.16,.16-.27,.36-.33,.6-.06,.24-.09,.62-.09,1.12v2.38Z"/>
        <path class="cls-2" d="M63.42,112.21c0-.83,.18-1.6,.55-2.31,.37-.71,.91-1.33,1.62-1.86,.53-.39,1.1-.69,1.71-.9,.61-.21,1.23-.32,1.85-.32,.79,0,1.56,.17,2.3,.5,.74,.33,1.39,.8,1.94,1.41,.9,.99,1.36,2.11,1.36,3.37,0,.63-.12,1.24-.35,1.83-.24,.59-.58,1.12-1.03,1.61-.55,.6-1.21,1.07-1.97,1.4-.76,.33-1.55,.5-2.38,.5s-1.6-.16-2.34-.48c-.75-.32-1.39-.78-1.93-1.36-.43-.46-.75-.98-.98-1.57-.23-.59-.34-1.2-.34-1.83Zm1.87,.11c0,1.43,.41,2.64,1.22,3.63,.36,.44,.75,.76,1.16,.96,.41,.2,.88,.3,1.41,.3s1.01-.1,1.42-.3c.41-.2,.8-.52,1.17-.96,.81-.99,1.22-2.21,1.22-3.66,0-.8-.11-1.55-.34-2.26s-.54-1.31-.94-1.81c-.33-.41-.7-.7-1.1-.89-.4-.19-.88-.28-1.43-.28s-1.02,.09-1.41,.27c-.4,.18-.77,.48-1.11,.89-.41,.49-.72,1.09-.94,1.8-.22,.71-.33,1.48-.33,2.29Z"/>
        <path class="cls-2" d="M92.32,107.26c-.29,.01-.53,.05-.71,.11-.18,.06-.34,.16-.49,.31-.11,.1-.2,.22-.25,.34-.06,.13-.1,.29-.12,.48-.04,.26-.05,.56-.05,.91v5.46c0,.51,.03,.89,.09,1.13,.06,.25,.17,.44,.33,.59,.28,.26,.68,.41,1.19,.43v.17h-4.92v-.17c.3-.01,.54-.06,.72-.12,.18-.07,.35-.17,.49-.31,.16-.16,.27-.36,.33-.6,.06-.24,.09-.62,.09-1.12v-6.63l-3.97,8.95h-.16l-3.95-8.82v6.49c0,.51,.03,.88,.09,1.13,.06,.24,.17,.44,.33,.6,.14,.14,.31,.25,.49,.31,.18,.06,.42,.1,.71,.12v.17h-3.55v-.17c.29-.01,.53-.05,.71-.12,.18-.06,.35-.17,.49-.31,.16-.16,.27-.36,.33-.6,.06-.24,.09-.62,.09-1.12v-5.46c0-.23,0-.44-.02-.64-.03-.37-.08-.63-.18-.8-.13-.23-.3-.4-.53-.52-.22-.11-.52-.18-.89-.2v-.17h3.34l3.34,7.92,3.46-7.92h3.17v.17Z"/>
        <path class="cls-2" d="M104.53,107.09l.13,2.45h-.18c-.07-.41-.18-.75-.33-1.02-.15-.27-.38-.51-.67-.72-.24-.17-.53-.3-.86-.37-.33-.07-.77-.11-1.31-.11h-1.76v4.45h.46c.47,0,.82-.03,1.06-.09,.24-.06,.43-.17,.58-.32,.14-.14,.25-.31,.32-.51,.07-.2,.13-.48,.17-.86h.18s-.03,3.98-.03,3.98h-.18c-.05-.38-.11-.69-.2-.92-.09-.23-.21-.43-.37-.59-.15-.16-.35-.27-.6-.35-.25-.07-.56-.11-.94-.11h-.44v1.7c0,.68,.02,1.17,.05,1.48,.04,.31,.11,.57,.21,.77,.17,.36,.44,.62,.8,.78,.36,.17,.83,.25,1.41,.25,.62,0,1.13-.08,1.55-.23,.42-.15,.76-.38,1.02-.7,.18-.21,.34-.45,.45-.73,.12-.27,.22-.63,.32-1.07h.18s-.1,2.96-.1,2.96h-9.19v-.17c.29-.01,.53-.05,.71-.12,.18-.06,.35-.17,.49-.31,.16-.16,.27-.36,.33-.6,.06-.24,.09-.62,.09-1.12v-5.46c0-.5-.03-.88-.09-1.12-.06-.24-.17-.45-.33-.6-.14-.14-.3-.25-.48-.31-.18-.06-.42-.1-.72-.12v-.17h8.29Z"/>
      </g>
      <line class="cls-1" y1="112.65" x2="43.42" y2="112.65"/>
      <line class="cls-1" x1="109.03" y1="112.65" x2="152.45" y2="112.65"/>
      <path class="cls-3" d="M76.1,50.37c0-9.79-8.01-17.8-17.8-17.8v-2.39c7.76,0,14.58,6.16,17.43,13.12,.02,.04,.06,.06,.1,.05,.04-.01,.07-.05,.06-.09-1.31-8.96-8.61-15.97-17.6-16.94v-2.37c8.09,1.01,14.96,7.67,17.64,15.25,.01,.04,.06,.06,.1,.06,.04,0,.07-.04,.07-.09-.27-10.17-7.86-18.52-17.81-19.63v-2.37c8.11,1.08,14.97,7.77,17.65,15.38,.01,.04,.05,.06,.1,.06,.04,0,.07-.04,.07-.08v-1.69c0-9.03-7.39-16.41-16.41-16.41v-2.39c7.28,0,13.68,5.93,16.25,12.51,.02,.04,.06,.06,.1,.05,.04,0,.07-.04,.07-.08v-2.2c0-6.26-5.12-11.39-11.39-11.39v-2.39c4.88,0,9.21,4.25,11.22,8.52,.02,.04,.06,.06,.1,.05,.04,0,.07-.04,.07-.08v-3.73c0-3.61-2.95-6.56-6.56-6.56v-2.39c2.65,0,5.04,2.76,6.4,4.91,.02,.03,.06,.05,.1,.04,.04-.01,.06-.04,.06-.08l-.75-9.19h2.51l-.75,9.19s.02,.07,.06,.08c.04,.01,.08,0,.1-.04,1.36-2.15,3.75-4.91,6.4-4.91v2.39c-3.6,0-6.55,2.95-6.56,6.54v3.75s.03,.07,.07,.08c.04,0,.08-.01,.1-.05,2.01-4.26,6.34-8.51,11.22-8.51v2.39c-6.26,0-11.38,5.12-11.39,11.37v2.22s.03,.08,.07,.08c.04,0,.08-.01,.1-.05,2.57-6.58,8.96-12.51,16.25-12.51v2.39c-9.02,0-16.41,7.38-16.41,16.39v1.7s.03,.08,.07,.08c.04,0,.08-.02,.1-.06,2.67-7.61,9.54-14.3,17.64-15.38v2.37c-9.83,1.11-17.54,9.34-17.8,19.63,0,.04,.03,.08,.07,.09,.04,0,.08-.02,.1-.06,2.68-7.57,9.55-14.24,17.64-15.25v2.37c-8.99,.96-16.29,7.98-17.6,16.94,0,.04,.02,.08,.06,.09,.04,.01,.09,0,.1-.05,2.84-6.95,9.67-13.12,17.43-13.12v2.39c-9.79,0-17.8,8.01-17.8,17.8,0,2.11,0,4.21,0,6.32h-1.02v-6.32h0Z"/>
    </g>
  </g>
</svg>