<?xml version="1.0" encoding="UTF-8"?>
<svg id="_圖層_2" data-name="圖層 2" xmlns="http://www.w3.org/2000/svg" viewBox="0 0 211 96.81">
  <defs>
    <style>
      .cls-1 {
        fill: #fff;
      }

      .cls-2 {
        fill: #e0bd76;
      }
    </style>
  </defs>
  <g id="_圖層_4" data-name="圖層 4">
    <g>
      <g>
        <polygon class="cls-2" points="12.52 18.71 12.52 22.68 8.27 26.93 15.5 33.98 15.5 15.72 23.91 7.23 23.91 42.39 26.8 45.28 26.8 4.43 31.05 0 35.38 4.34 35.38 44.74 38.19 42.39 38.19 7.32 46.59 15.63 46.59 34.07 53.82 26.93 49.3 22.68 49.3 18.44 57.71 26.84 43.7 40.85 43.7 17.08 40.99 14.19 40.99 43.92 32.49 52.33 32.49 5.78 31.05 4.25 29.6 5.78 29.6 52.33 21.01 43.47 21.01 14.28 18.39 16.9 18.39 40.67 4.48 26.75 12.52 18.71"/>
        <path class="cls-2" d="M.03,70.79L0,30.37l31.08,31.08,31.07-31.07v40.42H.03Zm40.39-2.28h19.45v-19.45l-19.45,19.45Zm-13.18,0h7.67l-3.83-3.83-3.83,3.83Zm-24.93,0H21.73L2.3,49.07l.02,19.43Zm30.38-5.45l4.97,4.97,22.2-22.2v-9.95l-27.18,27.18ZM2.3,45.84l22.19,22.19,4.97-4.97L2.29,35.89v9.96Z"/>
      </g>
      <path class="cls-2" d="M108.73,21.35h-2c4-4.59,6.66-8.88,8-12.9h6.75c-.34,.38-.84,1.05-1.5,2.01-.5,.57-1.67,1.82-3.5,3.73h8V7.02h-16.74v-2.87h39.73v2.87h-18.24v7.17h10.25c-1.5-1.72-3-3.44-4.5-5.16l.5-.86c4.33,2.1,8.41,4.2,12.24,6.31-.17,.57-.25,1.15-.25,1.72-.34,2.49-.59,4.3-.75,5.45-.34-.19-.75-.57-1.25-1.15-.67-.38-1.09-.76-1.25-1.15v16.91c0,3.44-2.34,6.02-7,7.74-.67-.57-1.34-.86-2-.86l-2.25,.57-.25-.57c4.83-1.15,7.08-3.44,6.75-6.88V17.05h-10.25v3.15l.5-.29c0,.19,.25,.48,.75,.86,1.16,.96,1.91,1.43,2.25,1.43,.5-1.53,.75-2.77,.75-3.73h4.75c-1,2.29-2,4.11-3,5.45,.33,.39,.91,.86,1.75,1.43,.66,.38,1.08,.57,1.25,.57-.17,.38-.25,.77-.25,1.15-.34,1.53-.59,2.58-.75,3.15-.17,0-.42-.19-.75-.57-1.5-1.72-2.5-2.96-3-3.73-.67,.77-1.25,1.53-1.75,2.29l-.75,.86h-1.75v2.01c2,1.15,3.41,2.01,4.25,2.58,.33-1.15,.58-2.19,.75-3.15h4.75c-1,1.91-1.92,3.44-2.75,4.59l1.75,1.15c-.17,.57-.34,1.25-.5,2.01-.17,.96-.25,1.63-.25,2.01-1.17-.76-2.17-1.72-3-2.87-1.17,1.34-2.33,2.68-3.5,4.01h-1.5v1.43h-4.75V17.05h-9.25v2.01c1.33,.77,2.66,1.53,4,2.29,.16-.76,.33-1.72,.5-2.87h4.5c-1,1.91-1.83,3.54-2.5,4.87,.83,.77,1.5,1.34,2,1.72,0,.38-.09,1.15-.25,2.29-.17,1.15-.17,1.82,0,2.01-.84-.57-2-1.81-3.5-3.73l-2.75,3.44h-2v14.62h-4.75V19.63c-.84,.57-1.42,1.15-1.75,1.72Zm37.48,24.08v3.15h-16.99v6.02h15.24v3.15h-10.75c2.5,2.1,4.75,3.73,6.75,4.87-1,1.72-1.67,2.96-2,3.73h9.25v3.15h-40.73v-3.15h17.24v-8.6h-13.99v-3.15h13.99v-6.02h-15.49v-3.15h37.48Zm-30.99-25.8v9.17c1.33-1.72,2.41-3.34,3.25-4.87-.34-.19-.92-.86-1.75-2.01-.84-1.15-1.34-1.91-1.5-2.29Zm4.75,10.89h4.5c-.67,1.34-1.59,2.96-2.75,4.87,.33,.57,1.08,1.15,2.25,1.72-.34,2.1-.5,3.63-.5,4.59-.84-.57-2-1.81-3.5-3.73l-2.5,3.44h-2c1.33-1.72,2.41-3.53,3.25-5.45-.67-.38-1.75-1.72-3.25-4.01l.25-.57c.83,.77,2,1.63,3.5,2.58,.33-1.34,.58-2.48,.75-3.44Zm9.25-9.46v7.74c1.16-1.72,2.08-3.25,2.75-4.59l-2.75-3.15Zm0,10.89v8.89c.83-.95,2-2.67,3.5-5.16-1.67-1.72-2.83-2.96-3.5-3.73Zm3.25,25.8h-3.25v8.6h7.5c-1.34-2.29-2.75-5.16-4.25-8.6ZM205.94,1.58h5V63.49c.5,2.67-1.92,5.16-7.25,7.45-1-.77-1.83-.96-2.5-.57l-3.25,.86v-.86c6-1.72,8.66-3.73,8-6.02V23.65h-7.75v2.01l.75,.57-4.5,8.31h2v-1.72h5v16.62h-4.5v8.31c-.34,1.72,.16,2.39,1.5,2.01h2c1,.38,1.58-.38,1.75-2.29l1-8.6h.5v7.17h.75l-.25,5.73c-.34,1.72-1.08,2.58-2.25,2.58h-6.5c-2.5,.38-3.58-.96-3.25-4.01v-10.89h4.25v-2.01h-10.99v1.72h5.25c-.84,4.78-1.92,8.02-3.25,9.75-2,2.1-4.5,4.39-7.5,6.88h-2c5.33-4.01,7.75-9.46,7.25-16.34h-4.5v-16.62h4.75v1.72h2.5c-1.17-1.15-2.09-3.91-2.75-8.31h-1v-2.87h-7.5v47.58h-4.75V1.58h4.75v2.87h7.5v-1.72h4.75V26.23h-2.25c1,.96,2.16,2.29,3.5,4.01,.33,.39,.58,.57,.75,.57-.34,1.34-1,2.58-2,3.73h3l4.25-8.31h-2.75V2.72h4.75v1.72h7.75V1.58Zm-21.74,5.45h-7.5v5.45h7.5V7.02Zm-7.5,8.03v5.73h7.5v-5.73h-7.5Zm8.75,22.36v7.17h10.99v-7.17h-10.99Zm20.49-30.38h-7.75v5.45h7.75V7.02Zm-7.75,8.03v5.73h7.75v-5.73h-7.75Z"/>
      <path class="cls-1" d="M0,96.29H1.62v-11.43H0v-.23H3.28l2.7,8.99h.03l2.7-8.99h3.22v.23h-1.62v11.43h1.62v.23H7.23v-.23h1.62v-11.33h-.03l-3.48,11.58-3.47-11.46h-.03v11.21h1.62v.23H0v-.23Z"/>
      <path class="cls-1" d="M18.18,96.3h1.62v-11.43h-1.62v-.23h8.33v2.89h-.16c-.13-.43-.26-.82-.41-1.15-.15-.33-.32-.61-.52-.84-.2-.23-.45-.4-.73-.51-.28-.11-.62-.17-1.02-.17h-2.42v5.16h.95c.32,0,.59-.03,.82-.1,.22-.07,.42-.19,.58-.38,.16-.18,.3-.43,.41-.75,.11-.32,.22-.73,.33-1.23h.16v5.2h-.16c-.07-.32-.14-.63-.21-.94-.07-.3-.18-.57-.31-.8-.13-.23-.31-.42-.52-.56-.22-.14-.5-.21-.85-.21h-1.18v6.03h2.75c.53,0,.98-.13,1.33-.39,.35-.26,.64-.57,.87-.94,.22-.36,.39-.74,.49-1.13,.11-.39,.18-.71,.2-.97h.16v3.66h-8.89v-.23Z"/>
      <path class="cls-1" d="M34.24,96.26h1.62v-11.43h-1.62v-.23h2.77c.12,0,.23,0,.35,0,.12,0,.23-.01,.35-.02,.12,0,.23,0,.35,0,.12,0,.23,0,.35,0,.57,0,1.08,.04,1.51,.11,.44,.07,.84,.28,1.22,.63,.34,.3,.58,.64,.72,1.02,.14,.38,.21,.73,.21,1.07,0,.17-.03,.38-.08,.64-.05,.26-.17,.53-.35,.8-.18,.27-.44,.52-.78,.75-.34,.23-.79,.38-1.35,.46v.03c.16,.02,.37,.06,.63,.12,.27,.06,.54,.17,.82,.31,.28,.15,.53,.34,.77,.58,.23,.24,.4,.55,.49,.93,.06,.22,.1,.48,.12,.76,.02,.28,.04,.58,.06,.88,.01,.3,.03,.59,.04,.87,.02,.28,.04,.51,.08,.7,.06,.29,.15,.55,.28,.79,.13,.23,.33,.35,.61,.35,.13,0,.26-.03,.39-.08,.14-.06,.26-.14,.36-.27l.13,.18s-.11,.09-.17,.14c-.06,.05-.14,.1-.24,.14-.1,.04-.22,.08-.36,.11-.14,.03-.31,.04-.52,.04-.39,0-.71-.06-.97-.17-.26-.11-.46-.28-.62-.49-.16-.22-.27-.48-.34-.8-.07-.32-.12-.69-.15-1.11l-.1-1.52c-.04-.56-.13-.99-.29-1.3-.16-.31-.34-.54-.55-.68-.21-.14-.42-.23-.65-.26-.22-.03-.42-.04-.58-.04h-1.46v6.03h1.62v.23h-4.69v-.23Zm3.07-6.27h1.34c.27,0,.52-.04,.74-.12,.22-.08,.42-.21,.58-.41,.16-.19,.28-.46,.37-.79,.09-.33,.13-.76,.13-1.27,0-.58-.07-1.04-.2-1.4-.13-.35-.3-.62-.51-.79-.21-.18-.44-.3-.7-.35-.26-.06-.51-.08-.76-.08-.18,0-.35,0-.53,0-.18,0-.33,.02-.46,.04v5.16Z"/>
      <path class="cls-1" d="M50.9,96.26h1.62v-11.43h-1.62v-.23h2.77c.12,0,.23,0,.35,0,.12,0,.23-.01,.35-.02,.12,0,.23,0,.35,0,.12,0,.23,0,.35,0,.57,0,1.08,.04,1.51,.11,.44,.07,.84,.28,1.22,.63,.34,.3,.58,.64,.72,1.02,.14,.38,.21,.73,.21,1.07,0,.17-.03,.38-.08,.64-.05,.26-.17,.53-.35,.8-.18,.27-.44,.52-.78,.75-.34,.23-.79,.38-1.35,.46v.03c.16,.02,.37,.06,.63,.12,.27,.06,.54,.17,.82,.31,.28,.15,.53,.34,.77,.58,.23,.24,.4,.55,.49,.93,.06,.22,.1,.48,.12,.76,.02,.28,.04,.58,.06,.88,.01,.3,.03,.59,.04,.87,.02,.28,.04,.51,.08,.7,.06,.29,.15,.55,.28,.79,.13,.23,.33,.35,.61,.35,.13,0,.26-.03,.39-.08,.14-.06,.26-.14,.36-.27l.13,.18s-.11,.09-.17,.14c-.06,.05-.14,.1-.24,.14-.1,.04-.22,.08-.36,.11-.14,.03-.31,.04-.52,.04-.39,0-.71-.06-.97-.17-.26-.11-.46-.28-.62-.49-.16-.22-.27-.48-.34-.8-.07-.32-.12-.69-.15-1.11l-.1-1.52c-.04-.56-.13-.99-.29-1.3-.15-.31-.34-.54-.55-.68-.21-.14-.42-.23-.65-.26-.22-.03-.42-.04-.58-.04h-1.46v6.03h1.62v.23h-4.69v-.23Zm3.07-6.27h1.34c.27,0,.52-.04,.74-.12,.22-.08,.42-.21,.58-.41,.16-.19,.28-.46,.37-.79,.09-.33,.13-.76,.13-1.27,0-.58-.07-1.04-.2-1.4-.13-.35-.3-.62-.51-.79-.21-.18-.44-.3-.7-.35-.26-.06-.51-.08-.76-.08-.18,0-.35,0-.53,0-.18,0-.33,.02-.46,.04v5.16Z"/>
      <path class="cls-1" d="M70.25,96.3h1.62v-11.43h-1.62v-.23h4.69v.23h-1.62v11.43h1.62v.23h-4.69v-.23Z"/>
      <path class="cls-1" d="M84.81,96.3h1.62v-11.43h-1.62v-.23h8.33v2.89h-.16c-.13-.43-.26-.82-.41-1.15-.15-.33-.32-.61-.52-.84-.2-.23-.45-.4-.73-.51-.28-.11-.62-.17-1.02-.17h-2.42v5.16h.95c.32,0,.59-.03,.82-.1,.22-.07,.42-.19,.58-.38,.16-.18,.3-.43,.41-.75,.11-.32,.22-.73,.33-1.23h.16v5.2h-.16c-.07-.32-.14-.63-.21-.94-.07-.3-.18-.57-.31-.8-.13-.23-.31-.42-.52-.56-.22-.14-.5-.21-.85-.21h-1.18v6.03h2.75c.53,0,.98-.13,1.33-.39,.35-.26,.64-.57,.87-.94,.22-.36,.39-.74,.49-1.13,.11-.39,.18-.71,.2-.97h.16v3.66h-8.89v-.23Z"/>
      <path class="cls-1" d="M102.22,92.96h.16c.11,.6,.25,1.11,.42,1.52,.17,.41,.36,.75,.56,1.02,.2,.27,.42,.47,.64,.62,.22,.14,.45,.25,.68,.32,.23,.07,.45,.11,.66,.12,.21,.01,.41,.02,.59,.02,.51,0,.94-.09,1.27-.27,.33-.18,.59-.4,.79-.68,.19-.27,.33-.57,.41-.89,.08-.32,.12-.61,.12-.88,0-.39-.06-.73-.19-1-.13-.28-.29-.52-.48-.71s-.41-.35-.63-.48c-.23-.12-.44-.22-.65-.28l-1.68-.58c-.79-.28-1.38-.65-1.79-1.1-.4-.46-.6-1.07-.6-1.84,0-.5,.08-.97,.23-1.4,.16-.43,.37-.8,.66-1.11,.28-.31,.62-.56,1.01-.74,.39-.18,.82-.27,1.29-.27,.34,0,.62,.03,.85,.1,.23,.07,.42,.14,.59,.23,.16,.08,.31,.16,.44,.23,.13,.07,.27,.1,.4,.1,.13,0,.21-.02,.25-.06,.04-.04,.11-.14,.18-.29h.2v3.02h-.17c-.06-.4-.16-.79-.3-1.16s-.32-.7-.55-.99c-.22-.28-.49-.51-.81-.68-.32-.17-.68-.26-1.1-.26-.23,0-.49,.04-.77,.11-.28,.07-.54,.2-.79,.38-.24,.18-.44,.41-.6,.7s-.24,.66-.24,1.1c0,.36,.06,.66,.19,.91s.29,.46,.49,.63c.2,.17,.42,.32,.67,.43,.25,.12,.5,.22,.75,.31l1.76,.63c.18,.07,.42,.16,.7,.27,.28,.11,.56,.28,.82,.5,.27,.22,.5,.52,.69,.89,.19,.37,.28,.84,.28,1.4,0,.52-.09,1.02-.25,1.5-.17,.47-.42,.89-.74,1.25-.32,.36-.71,.65-1.17,.87-.46,.22-.97,.33-1.54,.33-.2,0-.38,0-.54,0-.15,0-.3-.02-.44-.04-.14-.02-.27-.05-.41-.07-.14-.03-.29-.07-.45-.13-.19-.07-.4-.14-.63-.23-.22-.09-.42-.13-.58-.13-.15,0-.24,.03-.3,.1-.05,.07-.1,.15-.14,.27h-.22v-3.59Z"/>
      <path class="cls-1" d="M118.47,96.32h1.62v-11.43h-1.62v-.23h2.74c.14,0,.27,0,.41,0,.14,0,.27-.01,.41-.02,.13,0,.27,0,.4,0,.13,0,.27,0,.4,0,.55,0,1.06,.07,1.54,.23,.47,.15,.88,.36,1.22,.64,.34,.28,.61,.61,.81,1,.19,.39,.29,.82,.29,1.3s-.11,.95-.33,1.34c-.22,.39-.52,.72-.89,.98-.37,.27-.8,.47-1.29,.62-.49,.15-1,.22-1.54,.22-.14,0-.31-.01-.53-.04-.21-.03-.4-.06-.57-.09v5.52h1.62v.23h-4.69v-.23Zm3.07-5.75c.2,.04,.4,.08,.61,.1,.21,.02,.4,.03,.57,.03,.72,0,1.28-.24,1.68-.73s.6-1.22,.6-2.2c0-.57-.05-1.04-.15-1.42-.1-.38-.25-.68-.46-.91-.21-.23-.48-.39-.82-.47-.33-.09-.73-.14-1.2-.14-.18,0-.35,0-.5,.02-.15,.01-.26,.02-.34,.03v5.68Z"/>
      <path class="cls-1" d="M133.82,96.45h1.28l3.93-11.97h.35l3.96,11.97h1.3v.23h-4.49v-.23h1.62l-1.53-4.65h-3.38l-1.53,4.65h1.62v.23h-3.13v-.23Zm4.74-9.74l-1.6,4.86h3.21l-1.6-4.86Z"/>
      <path class="cls-1" d="M151.44,96.3h1.62v-11.43h-1.62v-.23h4.69v.23h-1.62v11.43h2.59c.85,0,1.53-.31,2.01-.92,.49-.61,.84-1.45,1.06-2.51h.16v3.66h-8.9v-.23Z"/>
      <path class="cls-1" d="M167.14,96.45h1.28l3.93-11.97h.35l3.96,11.97h1.3v.23h-4.49v-.23h1.62l-1.53-4.65h-3.38l-1.53,4.65h1.62v.23h-3.13v-.23Zm4.74-9.74l-1.6,4.86h3.21l-1.6-4.86Z"/>
      <path class="cls-1" d="M193.54,96.55h-.22c-.07-.09-.15-.17-.23-.24-.09-.07-.22-.11-.41-.11-.15,0-.3,.03-.47,.09-.17,.06-.37,.13-.58,.21-.22,.08-.46,.15-.73,.21-.27,.06-.57,.09-.9,.09-.61,0-1.21-.13-1.79-.38-.58-.26-1.12-.67-1.64-1.25-.48-.55-.87-1.19-1.2-1.94-.32-.75-.48-1.61-.48-2.59,0-.84,.13-1.63,.39-2.39,.26-.76,.63-1.43,1.09-2.01,.46-.58,1.01-1.04,1.65-1.38,.63-.34,1.32-.51,2.07-.51,.3,0,.57,.03,.8,.1,.23,.07,.44,.14,.63,.23s.35,.16,.51,.23c.15,.07,.31,.1,.45,.1,.2,0,.33-.04,.42-.11,.08-.07,.16-.15,.23-.24h.22v3.34h-.16c-.09-.42-.2-.84-.34-1.25-.13-.41-.33-.78-.57-1.1-.24-.32-.55-.57-.93-.77-.37-.2-.84-.29-1.39-.29-.51,0-.96,.09-1.33,.28-.37,.18-.68,.43-.93,.74-.25,.31-.45,.66-.6,1.07-.15,.41-.27,.84-.34,1.29-.08,.45-.13,.91-.15,1.37-.02,.46-.04,.9-.04,1.31,0,1.17,.08,2.14,.25,2.91,.16,.77,.4,1.38,.69,1.82,.3,.44,.65,.76,1.07,.94,.42,.18,.88,.27,1.38,.27,.65,0,1.17-.1,1.57-.32s.72-.49,.96-.83c.24-.34,.43-.72,.55-1.15,.13-.43,.24-.86,.33-1.28h.16v3.56Z"/>
      <path class="cls-1" d="M201.43,96.3h1.62v-11.43h-1.62v-.23h8.33v2.89h-.16c-.13-.43-.26-.82-.41-1.15-.15-.33-.32-.61-.52-.84-.2-.23-.45-.4-.73-.51-.28-.11-.62-.17-1.02-.17h-2.42v5.16h.95c.32,0,.59-.03,.82-.1,.22-.07,.42-.19,.58-.38,.16-.18,.3-.43,.41-.75,.11-.32,.22-.73,.33-1.23h.16v5.2h-.16c-.07-.32-.14-.63-.21-.94-.07-.3-.18-.57-.31-.8-.13-.23-.31-.42-.52-.56-.22-.14-.5-.21-.85-.21h-1.18v6.03h2.75c.53,0,.98-.13,1.33-.39,.35-.26,.64-.57,.87-.94,.22-.36,.39-.74,.49-1.13,.11-.39,.18-.71,.2-.97h.16v3.66h-8.89v-.23Z"/>
      <path class="cls-1" d="M81.96,4.08h.86v7.84h3.07v.9h-2.14v7.87c.92-.74,1.68-1.5,2.3-2.28l.14,.99c-1.35,1.55-2.55,2.71-3.6,3.49l-.49-.99c.29-.18,.55-.36,.79-.54V12.83h-1.49c-.01,2.96-.11,5.06-.28,6.31-.17,1.16-.44,2.16-.81,3-.37,.89-.84,1.63-1.43,2.23l-.37-.81c.47-.57,.85-1.26,1.14-2.07,.3-.78,.52-1.71,.67-2.8,.13-1.16,.2-3.11,.22-5.86h-1.95v-.9h3.38V4.08Zm-2.14,1.69c.75,1.64,1.24,3.3,1.49,4.98l-.86,.27c-.25-1.79-.72-3.44-1.42-4.96l.79-.29Zm4.87,0l.86,.29c-.3,1.64-.8,3.32-1.49,5.05l-.77-.45c.65-1.71,1.12-3.34,1.4-4.89Zm3.22,5.68l.79,.29c-.24,.75-.56,1.47-.96,2.16h3.83c-.24-.57-.51-1.12-.83-1.64l.63-.52c.46,.63,.87,1.35,1.24,2.16h3.87v.9h-4.25v1.71h3.71v.9h-3.71v1.89h3.71v.88h-3.71v2.19h4.74v.81h-9.28v1.42h-.86V15.33c-.46,.64-.94,1.22-1.43,1.71l-.63-.61c.73-.71,1.38-1.52,1.93-2.43,.58-.89,.98-1.74,1.22-2.55Zm-2.1-7.1h4.85v7.57h-.86v-2.43c-1.26,.98-2.39,1.73-3.38,2.25l-.37-.9c1.56-.72,2.81-1.48,3.75-2.28v-3.31h-3.99v-.9Zm.86,1.42c.92,.62,1.7,1.34,2.34,2.19l-.45,.81c-.6-.83-1.34-1.56-2.22-2.19l.33-.81Zm4.7,10.75v-1.71h-3.67v1.71h3.67Zm0,2.8v-1.89h-3.67v1.89h3.67Zm-3.67,3.07h3.67v-2.19h-3.67v2.19Zm3.6-18.03h4.66v7.91h-.86v-2.91c-1.07,.93-2.05,1.63-2.93,2.1l-.37-.9c1.35-.69,2.45-1.41,3.3-2.16v-3.13h-3.79v-.9Zm.57,1.42c.92,.66,1.7,1.45,2.36,2.37l-.49,.81c-.59-.9-1.32-1.69-2.2-2.37l.33-.81Z"/>
      <path class="cls-1" d="M78.88,54.51h5.33c-.35,2.42-1.02,4.75-2,6.99-.98,2.07-2.18,3.79-3.58,5.16l-.37-.9c1.22-1.23,2.29-2.86,3.2-4.87,.82-1.91,1.38-3.73,1.67-5.48h-4.24v-.9Zm2.59-5.25h11.22v.99c-1.62,1.47-3.38,2.75-5.27,3.83,.18,.57,.33,1.13,.45,1.69h2.79v.9h-2.61c.16,.84,.26,1.65,.31,2.41h2.75v.9h-2.69c.01,.33,.02,.63,.02,.9,0,.59,0,1.13-.02,1.65h3.73v.9h-3.75c-.07,2.23-.23,3.7-.49,4.42-.3,.84-.72,1.26-1.26,1.26-.85,0-1.74-.25-2.67-.74l-.08-1.15c.94,.54,1.78,.81,2.52,.81,.33,0,.58-.23,.75-.7,.18-.45,.29-1.75,.33-3.9h-4.38v-.9h4.4v-1.65c0-.32,0-.62-.02-.9h-3.3v-.9h3.26c-.07-.87-.16-1.68-.29-2.41h-2.55v-.9h2.36c-.25-1.23-.62-2.31-1.12-3.25l.73-.47c.21,.43,.41,.87,.59,1.31,1.51-.96,2.85-2,4.03-3.11h-9.73v-.99Zm14.31,4.62l.45,.72c-1.21,1.32-2.44,2.34-3.71,3.07,.31,1.2,.69,2.3,1.14,3.29,.84,1.97,1.88,3.6,3.12,4.89l-.63,.9c-1.31-1.4-2.41-3.18-3.3-5.34-.96-2.25-1.59-4.82-1.89-7.71h.86c.11,1.07,.26,2.07,.47,3.02,1.27-.74,2.43-1.68,3.48-2.84Z"/>
    </g>
  </g>
</svg>