<?xml version="1.0" encoding="UTF-8"?>
<svg id="_圖層_2" data-name="圖層 2" xmlns="http://www.w3.org/2000/svg" viewBox="0 0 117 117">
  <defs>
    <style>
      .cls-1 {
        fill: none;
        stroke: #9ebb57;
        stroke-miterlimit: 10;
      }

      .cls-2 {
        fill: #9ebb57;
      }
    </style>
  </defs>
  <g id="menu">
    <g>
      <circle class="cls-1" cx="58.5" cy="58.5" r="58"/>
      <g>
        <path class="cls-2" d="M54.61,45.62c0,.49-.17,.83-.52,1.02s-1.13,.29-2.35,.29c-.28,0-.54,0-.8-.02l-.29-.98c.45,.04,.88,.05,1.3,.05,.86,0,1.35-.04,1.49-.11s.21-.18,.21-.34v-4.34h-5.09v5.27h-.97v-5.27h-5.13c-.29,2.47-.91,4.36-1.86,5.67l-.84-.59c1.21-1.79,1.82-3.96,1.82-6.49v-8.26h13.03v14.1Zm-7.02-9.84v-3.28h-5.04v3.28h5.04Zm0,4.48v-3.5h-5.04v3.5h5.04Zm6.06-4.48v-3.28h-5.09v3.28h5.09Zm0,4.48v-3.5h-5.09v3.5h5.09Z"/>
        <path class="cls-2" d="M62.87,37.14c-.74,3.28-1.58,5.86-2.52,7.74l-.88-.62c1.02-1.83,1.83-4.3,2.43-7.43l.97,.3Zm8.88,4.65c-.07,1.14-.17,2.08-.31,2.84s-.3,1.25-.48,1.48-.42,.39-.73,.47-1.02,.13-2.14,.13c-.83,0-1.52-.02-2.08-.06s-.95-.17-1.2-.4-.37-.55-.37-.97v-9.99h.98v9.72c0,.16,.05,.31,.15,.44s.2,.21,.3,.23,.55,.04,1.35,.04h2.34c.18,0,.36-.07,.54-.22s.33-.68,.45-1.57,.17-1.72,.16-2.5l1.03,.34Zm-1.68-5.8l-.81,.65c-.91-1.64-2.27-3.27-4.05-4.9l.74-.67c1.7,1.57,3.07,3.21,4.12,4.91Zm5.17,7.85l-1.01,.36c-.45-2-1.37-4.28-2.77-6.84l.88-.52c1.37,2.7,2.34,5.03,2.9,7Z"/>
        <path class="cls-2" d="M41.76,63.64c-.29,1.66-.69,3.03-1.18,4.1l-.83-.41c.43-1,.81-2.3,1.15-3.89l.85,.2Zm4.23-1.31l-.83,.32c-.06-.34-.13-.62-.19-.83-1.78,.49-3.38,.87-4.82,1.13l-.33-.77c1.38-1.24,2.57-2.67,3.59-4.32-1,.19-2.06,.36-3.21,.52l-.21-.83c1.34-1.56,2.38-3.35,3.13-5.39l.89,.24c-.59,1.62-1.49,3.27-2.69,4.95,.74-.09,1.63-.23,2.65-.41,.38-.56,.76-1.26,1.16-2.08l.88,.34c-1.49,2.77-3.01,4.97-4.54,6.58,1.05-.21,2.12-.46,3.22-.77-.1-.36-.27-.78-.52-1.26l.83-.33c.52,1.14,.85,2.11,.99,2.9Zm-2.02,4.91l-.88,.18c.02-1.15-.1-2.41-.34-3.78l.81-.16c.32,1.5,.46,2.75,.41,3.76Zm2.43-1.46l-.79,.31c-.19-.92-.45-1.77-.77-2.56l.76-.31c.36,.81,.63,1.67,.81,2.56Zm2.59-4.81l-.79,.38c-.68-1.31-1.43-2.48-2.25-3.51,.85-1.22,1.51-2.32,1.99-3.31l.84,.33c-.53,1.1-1.12,2.09-1.78,2.99,.74,.94,1.4,1.99,1.98,3.13Zm6.44,6.55h-9.29v-.9h4.16v-3.67h-3.66v-.91h8.35v.91h-3.73v3.67h4.17v.9Zm-.22-13.97h-9.05v-.9h9.05v.9Zm-3.02,7.31l-.79,.45c-.6-1.16-1.33-2.29-2.18-3.4,.84-1.22,1.48-2.29,1.9-3.23l.91,.29c-.49,.96-1.09,1.93-1.79,2.92,.73,.98,1.38,1.97,1.94,2.97Zm3.19,.04l-.79,.43c-.6-1.14-1.34-2.26-2.21-3.37,.8-1.15,1.45-2.26,1.94-3.33l.88,.33c-.56,1.1-1.14,2.07-1.72,2.94,.84,1.19,1.48,2.19,1.91,3.01Z"/>
        <path class="cls-2" d="M74.72,60.45h-.96v-1.64h-12.71v1.62h-.9v-2.46h14.56v2.49Zm-12.29-5.56l-.79,.43c-.45-.8-.91-1.46-1.39-2l.76-.51c.66,.82,1.14,1.51,1.42,2.07Zm4.69-1.49c-.8,.53-1.8,1.02-2.99,1.48l-.11,.38c1.25,.6,2.21,1.1,2.9,1.51l-.53,.77c-.53-.37-1.45-.89-2.77-1.56-.76,.82-1.66,1.37-2.71,1.65l-.54-.76c.84-.21,1.52-.52,2.04-.93s.83-.92,.95-1.53,.18-1.35,.18-2.22h.88c-.02,.75-.05,1.3-.09,1.66,.65-.23,1.39-.6,2.23-1.12l.55,.67Zm6.85,14.52h-.94v-.68h-11.21v.66h-.91v-3.97h5.34c.25-.47,.42-.87,.52-1.2h-4.38v-2.83h10.12v2.83h-4.68c-.21,.49-.39,.89-.54,1.2h6.7v3.99Zm-.94-1.53v-1.58h-11.21v1.58h11.21Zm-1.48-4.52v-1.12h-8.24v1.12h8.24Zm3.14-5.02l-.49,.81c-1.18-.71-2.26-1.25-3.25-1.62-.74,.69-1.78,1.21-3.1,1.56l-.52-.79c1.44-.35,2.42-.81,2.92-1.38s.74-1.65,.7-3.25h.9c0,.43-.03,1-.09,1.7,.9-.39,1.67-.82,2.32-1.31l.55,.68c-.79,.56-1.8,1.09-3.04,1.59-.04,.16-.1,.33-.18,.48,.99,.38,2.08,.89,3.28,1.53Zm-4.88-2.11l-.82,.38c-.23-.51-.65-1.16-1.24-1.94l.74-.45c.55,.63,.99,1.3,1.32,2.01Z"/>
      </g>
      <g>
        <path class="cls-2" d="M24.32,84.09c.18,.27,.39,.5,.65,.68,.26,.18,.61,.41,1.06,.68,.5,.3,.88,.55,1.14,.74s.5,.45,.69,.75c.19,.3,.29,.67,.29,1.08,0,.45-.11,.85-.34,1.22-.22,.36-.55,.65-.99,.86-.43,.21-.95,.31-1.56,.31-.72,0-1.38-.16-1.97-.49-.05-.03-.08-.06-.09-.1-.01-.04-.03-.09-.04-.17l-.18-1.9s.01-.06,.06-.07c.05,0,.08,0,.09,.04,.15,.67,.43,1.25,.83,1.74s.95,.73,1.62,.73c.47,0,.86-.13,1.18-.39,.32-.26,.48-.67,.48-1.23,0-.42-.09-.78-.28-1.09-.19-.31-.41-.56-.68-.76-.27-.2-.63-.44-1.08-.71-.45-.27-.8-.5-1.06-.7-.26-.2-.47-.44-.65-.74-.18-.3-.27-.65-.27-1.05,0-.47,.12-.87,.37-1.2,.25-.33,.57-.58,.96-.74s.82-.25,1.27-.25c.55,0,1.1,.11,1.64,.34,.14,.05,.21,.13,.21,.24l.1,1.61s-.02,.06-.07,.06-.08-.02-.08-.06c-.08-.49-.28-.94-.6-1.35-.33-.42-.8-.62-1.41-.62-.52,0-.91,.15-1.17,.46-.26,.3-.39,.68-.39,1.13,0,.36,.09,.68,.27,.95Z"/>
        <path class="cls-2" d="M32.41,89.71c.08,.14,.23,.23,.46,.29,.23,.06,.59,.08,1.08,.08,.03,0,.04,.03,.04,.08s-.01,.08-.04,.08c-.38,0-.68,0-.9-.01h-1.22s-.94,0-.94,0c-.18,0-.42,.01-.71,.01-.02,0-.03-.03-.03-.08s0-.08,.03-.08c.35,0,.61-.02,.78-.07,.16-.05,.27-.14,.33-.27,.06-.14,.08-.34,.08-.62v-6.48c0-.28-.03-.49-.08-.62-.05-.13-.17-.22-.33-.27-.16-.05-.42-.08-.78-.08-.02,0-.03-.03-.03-.08s0-.08,.03-.08h.7c.39,.03,.7,.04,.94,.04s.49-.01,.78-.04c.11,0,.29,0,.53-.02s.45-.02,.63-.02c.86,0,1.55,.19,2.06,.57,.52,.38,.78,.97,.78,1.75,0,.62-.15,1.13-.46,1.55-.3,.42-.69,.73-1.16,.94-.47,.21-.96,.31-1.46,.31-.28,0-.51-.02-.69-.07-.03,0-.04-.02-.04-.07,0-.03,0-.06,.02-.08,.01-.03,.03-.04,.05-.03,.15,.04,.32,.06,.5,.06,.62,0,1.14-.2,1.56-.6,.42-.4,.64-.98,.64-1.74s-.2-1.32-.6-1.74c-.4-.42-.92-.64-1.54-.64-.34,0-.58,.02-.73,.06-.15,.04-.26,.12-.32,.26-.07,.14-.1,.36-.1,.68v6.4c0,.3,.04,.52,.12,.65Z"/>
        <path class="cls-2" d="M44.61,88.14s.05,0,.08,.01c.02,0,.03,.02,.03,.04-.08,.59-.13,1.2-.13,1.85,0,.07-.02,.13-.05,.16-.03,.03-.09,.05-.18,.05h-5.87s-.03-.03-.03-.08,0-.08,.03-.08c.35,0,.61-.02,.78-.07,.16-.05,.28-.14,.34-.27,.06-.14,.09-.34,.09-.62v-6.48c0-.28-.03-.49-.09-.62-.06-.13-.17-.22-.34-.27-.16-.05-.42-.08-.78-.08-.02,0-.03-.03-.03-.08s0-.08,.03-.08h5.63c.08,0,.13,.04,.13,.13l.03,1.72s-.02,.04-.07,.05c-.05,0-.08,0-.08-.03-.03-.49-.18-.88-.45-1.16-.27-.28-.63-.41-1.08-.41h-.85c-.33,0-.57,.03-.72,.08s-.26,.14-.32,.27-.09,.31-.09,.57v2.84h1.71c.45,0,.77-.07,.96-.22,.19-.15,.29-.4,.29-.76,0-.02,.03-.03,.08-.03s.08,0,.08,.03v1.13c-.01,.27,0,.48,0,.62v.67s-.01,.03-.07,.03-.08,0-.08-.03c0-.41-.1-.7-.3-.88-.2-.18-.54-.27-1-.27h-1.67v3.22c0,.26,.03,.45,.08,.57,.06,.12,.16,.21,.31,.25,.15,.05,.38,.07,.7,.07h1.12c.45,0,.82-.16,1.12-.48,.3-.32,.5-.76,.6-1.32,0-.02,.02-.03,.06-.03Z"/>
        <path class="cls-2" d="M53.36,81.47c.4,.08,.8,.23,1.2,.43,.07,.04,.1,.07,.11,.1,0,.03,.02,.1,.04,.21l.17,1.67s-.03,.04-.08,.05c-.05,0-.08,0-.09-.03-.43-1.56-1.39-2.34-2.88-2.34-.78,0-1.47,.17-2.07,.52-.6,.35-1.06,.84-1.39,1.48-.33,.64-.49,1.38-.49,2.23s.18,1.56,.54,2.23c.36,.68,.84,1.21,1.46,1.6,.61,.39,1.28,.59,1.99,.59,.77,0,1.39-.19,1.86-.56,.47-.37,.84-.94,1.09-1.71,0-.02,.02-.03,.07-.03,.07,0,.1,.01,.1,.04l-.14,1.54c0,.11-.02,.18-.04,.21-.02,.03-.06,.06-.11,.1-.48,.23-.94,.4-1.37,.49-.42,.09-.91,.14-1.46,.14-.98,0-1.85-.19-2.62-.58-.77-.39-1.37-.93-1.8-1.63s-.64-1.5-.64-2.41,.22-1.65,.66-2.33c.44-.68,1.04-1.2,1.81-1.57,.77-.37,1.63-.56,2.6-.56,.59,0,1.08,.04,1.48,.13Z"/>
        <path class="cls-2" d="M59.29,89.74c.06,.14,.17,.23,.33,.27,.16,.05,.42,.07,.78,.07,.03,0,.04,.03,.04,.08s-.01,.08-.04,.08c-.28,0-.5,0-.67-.01h-.99s-.97,0-.97,0c-.17,0-.4,.01-.69,.01-.03,0-.04-.03-.04-.08s.01-.08,.04-.08c.35,0,.61-.02,.78-.07,.16-.05,.27-.14,.34-.27,.06-.14,.09-.34,.09-.62v-6.48c0-.28-.03-.49-.09-.62-.06-.13-.17-.22-.34-.27s-.42-.08-.78-.08c-.03,0-.04-.03-.04-.08s.01-.08,.04-.08h.69c.39,.03,.71,.04,.97,.04,.28,0,.62,0,1.01-.03h.66s.04,.01,.04,.07-.01,.08-.04,.08c-.35,0-.6,.03-.76,.08-.16,.06-.28,.15-.34,.29s-.09,.34-.09,.62v6.45c0,.28,.03,.49,.08,.62Z"/>
        <path class="cls-2" d="M71.62,90.17c0,.06-.02,.08-.06,.08-.18,0-.45,0-.83-.03-.37-.02-.64-.03-.81-.03-.21,0-.47,0-.79,.03-.3,.02-.53,.03-.69,.03-.04,0-.06-.03-.06-.08s.02-.08,.06-.08c.35,0,.6-.03,.76-.1,.16-.07,.24-.18,.24-.34,0-.13-.06-.33-.18-.6l-1.25-2.65h-3.33l-.88,2.07c-.13,.32-.2,.57-.2,.77,0,.29,.11,.5,.34,.64,.23,.14,.57,.2,1.03,.2,.05,0,.07,.03,.07,.08s-.02,.08-.07,.08c-.17,0-.41,0-.73-.03-.36-.02-.66-.03-.92-.03-.24,0-.52,0-.84,.03-.28,.02-.51,.03-.7,.03-.05,0-.07-.03-.07-.08s.02-.08,.07-.08c.26,0,.48-.05,.67-.15,.18-.1,.35-.27,.52-.52,.16-.25,.34-.6,.54-1.07l2.95-6.97s.05-.04,.1-.04,.08,.01,.08,.04l3.3,6.96c.32,.69,.59,1.16,.81,1.39,.22,.24,.49,.36,.8,.36,.04,0,.06,.03,.06,.08Zm-6.82-4.05h3.09l-1.64-3.46-1.46,3.46Z"/>
        <path class="cls-2" d="M74.89,89.06c0,.27,.03,.47,.08,.59,.06,.12,.16,.2,.31,.25s.39,.06,.73,.06h1.53c.53,0,.96-.16,1.27-.49,.32-.33,.53-.78,.63-1.36,0-.03,.03-.04,.08-.03,.05,0,.08,.02,.08,.05-.08,.77-.13,1.41-.13,1.92,0,.07-.01,.13-.04,.16-.03,.03-.08,.05-.17,.05h-6.47s-.03-.03-.03-.08,0-.08,.03-.08c.36,0,.61-.02,.78-.07,.16-.05,.27-.14,.33-.27,.06-.14,.08-.34,.08-.62v-6.48c0-.28-.03-.49-.08-.62-.06-.13-.17-.22-.33-.27-.16-.05-.42-.08-.78-.08-.02,0-.03-.03-.03-.08s0-.08,.03-.08h.69c.39,.03,.71,.04,.95,.04,.26,0,.59,0,.98-.03h.67s.04,.01,.04,.07-.01,.08-.04,.08c-.34,0-.6,.03-.76,.08-.16,.05-.28,.14-.34,.28-.06,.14-.09,.34-.09,.62v6.41Z"/>
        <path class="cls-2" d="M81.46,82.2c-.29,.3-.51,.81-.64,1.53,0,.02-.03,.03-.08,.03s-.08,0-.08-.03c.04-.34,.08-.77,.12-1.32,.05-.54,.07-.95,.07-1.22,0-.05,.03-.07,.08-.07s.08,.02,.08,.07c0,.21,.25,.31,.76,.31,.79,.03,1.73,.04,2.81,.04,.55,0,1.13,0,1.75-.03h.95c.34-.01,.59-.04,.75-.08,.16-.05,.27-.14,.32-.28,0-.04,.04-.06,.08-.06s.07,.02,.07,.06c-.03,.27-.06,.68-.08,1.23-.03,.55-.04,1-.04,1.34,0,.02-.03,.03-.08,.03s-.08,0-.08-.03c-.03-.73-.18-1.24-.45-1.53-.27-.29-.72-.44-1.34-.44-.42,0-.72,.02-.9,.06s-.3,.12-.36,.24c-.07,.12-.1,.33-.1,.62v6.45c0,.29,.03,.5,.1,.63s.19,.22,.38,.27,.48,.07,.88,.07c.03,0,.04,.03,.04,.08s-.01,.08-.04,.08c-.31,0-.56,0-.74-.01h-1.09s-1.05,0-1.05,0c-.19,0-.44,.01-.77,.01-.02,0-.03-.03-.03-.08s0-.08,.03-.08c.4,0,.7-.02,.88-.07,.19-.05,.32-.14,.38-.27,.07-.14,.1-.34,.1-.62v-6.48c0-.29-.03-.49-.1-.61-.06-.12-.19-.19-.36-.22-.18-.03-.48-.05-.9-.05-.59,0-1.03,.15-1.32,.45Z"/>
        <path class="cls-2" d="M98.34,81.59c0,.06,0,.08-.03,.08-.34,0-.68,.12-1.02,.37-.35,.25-.65,.59-.92,1.01l-1.88,2.88v3.18c0,.29,.03,.5,.08,.63,.06,.13,.17,.22,.33,.27,.16,.05,.42,.07,.78,.07,.03,0,.04,.03,.04,.08s-.01,.08-.04,.08c-.29,0-.51,0-.67-.01h-.98s-.97,0-.97,0c-.17,0-.4,.01-.69,.01-.03,0-.04-.03-.04-.08s.01-.08,.04-.08c.35,0,.61-.02,.78-.07,.16-.05,.28-.14,.34-.27,.06-.14,.09-.34,.09-.62v-2.95l-2.32-3.4c-.26-.41-.51-.7-.74-.85s-.5-.24-.81-.24c-.03,0-.04-.03-.04-.08s.01-.08,.04-.08c.11,0,.28,0,.5,.03h.49c.32,.01,.72,0,1.2-.01h.76s.03,.01,.03,.07,0,.08-.03,.08c-.48,0-.73,.1-.73,.29,0,.1,.05,.22,.14,.35l2.25,3.3,1.71-2.62c.21-.33,.31-.6,.31-.83,0-.34-.25-.5-.76-.5-.02,0-.03-.03-.03-.08s0-.08,.03-.08h.66c.36,.03,.68,.04,.98,.04,.16,0,.35,0,.57-.03h.52s.03,.01,.03,.07Z"/>
      </g>
    </g>
  </g>
</svg>