<?xml version="1.0" encoding="UTF-8"?>
<svg id="_圖層_2" data-name="圖層 2" xmlns="http://www.w3.org/2000/svg" viewBox="0 0 525.8 137.91">
  <defs>
    <style>
      .cls-1 {
        fill: #fff;
      }

      .cls-2 {
        fill: #00adea;
      }

      .cls-3 {
        fill: none;
        stroke: #00adea;
        stroke-miterlimit: 10;
      }
    </style>
  </defs>
  <g id="_圖層_3" data-name="圖層 3">
    <g>
      <g>
        <path class="cls-2" d="M89.02,37.73c2.88,.82,6.38,1.01,10.85,1.01,4.22,0,14.5,0,19.01-.14v.62c-2.02,.48-2.98,2.35-3.02,4.46h-16.13c-10.95,0-16.56-2.26-19.63-12.19-1.15,4.94-3.07,9.89-6.67,13.49l-.48-.48c3.12-6.58,3.94-16.56,3.65-24.15l6.58,1.34c-.19,.72-.72,1.15-1.82,1.2-.19,2.21-.48,4.61-.96,6.96,1.01,2.26,2.16,3.94,3.55,5.23V18.19l6.58,.67c-.1,.62-.43,1.06-1.49,1.2v5.76h.91l2.45-3.46s2.69,2.4,4.22,4.03c-.14,.53-.58,.77-1.25,.77h-6.34v10.56Zm-6-21.94v-6.77h-7.49l-.38-1.39h7.87V0l6.91,.62c-.1,.62-.43,1.01-1.54,1.2V7.63h1.3l2.64-3.41s2.93,2.35,4.7,4.03c-.1,.53-.62,.77-1.3,.77h-7.34v6.77h1.73l2.69-3.65s2.54,2.02,4.37,3.7c2.83-3.94,3.36-8.02,3.55-11.57h-5.66l-.43-1.34h16.56l2.69-2.59,4.85,3.94c-.38,.38-.91,.67-1.87,.82-.34,7.39-1.06,10.85-3.12,12.29-1.25,.91-2.93,1.39-5.28,1.39,0-1.49-.14-2.74-.82-3.46-.67-.72-1.97-1.3-3.6-1.63l.05-.67c1.39,.14,3.98,.29,4.8,.29,.67,0,1.01-.1,1.3-.34,.77-.67,1.2-3.5,1.44-8.69h-5.18c-.67,5.71-3.07,11.9-12.72,16.27l-.53-.62c1.15-.91,2.11-1.82,2.93-2.78h-21.79l-.38-1.34h9.07Zm27.27,20.88v-3.22h-8.06v2.35c0,.48-2.35,1.63-4.56,1.63h-.77V19.15l5.57,2.21h7.34l2.59-2.74,5.33,4.03c-.34,.34-.96,.77-1.92,.96v11.33c-.05,.48-2.64,1.73-4.56,1.73h-.96Zm0-4.56v-9.36h-8.06v9.36h8.06Z"/>
        <path class="cls-2" d="M149.89,15.84c1.68,8.88,7.25,17.71,20.69,23.14l-.1,.53c-2.93,.53-4.66,2.3-5.18,5.57-11.18-6.82-14.79-18.48-16.08-28.08-1.44,11.43-6.24,21.22-23.67,28.08l-.43-.72c13.34-8.06,17.09-17.57,18.15-28.51h-17.33l-.38-1.39h17.81c.34-4.51,.29-9.31,.29-14.31l8.06,.77c-.14,.72-.58,1.2-1.73,1.39-.1,4.18-.14,8.26-.48,12.15h10.8l3.55-4.37s3.89,2.93,6.29,4.99c-.14,.53-.67,.77-1.39,.77h-18.87Z"/>
        <path class="cls-2" d="M183.34,28.61v5.86c0,.48-1.92,1.68-4.08,1.68h-.77V3.46l5.04,2.16h3.41l2.45-2.64,4.94,3.89c-.34,.38-1.01,.77-1.97,1.01V31.25c-.05,.43-2.35,1.68-4.13,1.68h-.82v-4.32h-4.08Zm0-21.6V27.27h4.08V7.01h-4.08Zm38.07,12.15c-.34,.48-.82,.62-2.02,.77-1.58,5.33-3.94,10.08-7.54,14.07,3.22,2.54,6.96,4.37,11.04,5.76l-.1,.53c-2.4,.38-4.27,2.02-5.23,4.7-3.7-2.06-6.72-4.51-9.12-7.68-4.18,3.36-9.55,6-16.56,7.68l-.34-.67c6.34-2.45,11.18-5.9,14.83-10.18-2.21-3.89-3.7-8.83-4.61-15.17h-.1c-1.25,10.08-4.8,18.96-15.7,25.73l-.62-.72c11.71-10.99,11.67-24.43,11.71-38.84h-4.27l-.43-1.39h16.56l2.21-2.54,5.18,3.94c-.43,.43-.82,.58-1.78,.72l-1.34,11.71h.43l2.93-2.88,4.85,4.46Zm-19.01-14.02c-.05,4.27-.14,8.45-.58,12.43h5.81l1.58-12.43h-6.82Zm.24,13.83c1.25,5.04,3.36,8.98,6.1,12.05,2.4-3.55,4.08-7.63,5.14-12.05h-11.23Z"/>
        <path class="cls-2" d="M271.04,13.87c-.38,.43-1.01,.77-2.16,.91-.43,15.55-1.54,24.67-4.37,27.36-1.78,1.73-3.94,2.5-7.63,2.5,.05-1.82-.24-3.26-1.25-4.13-1.01-.96-3.41-1.82-6.14-2.3l.05-.62c2.93,.24,7.2,.53,8.54,.53,.91,0,1.44-.14,1.92-.67,1.82-1.54,2.69-10.66,3.12-23.67h-11.67c-.96,12.77-4.66,23.71-22.32,31.2l-.48-.67c13.06-8.59,16.03-18.77,16.75-30.53h-14.26l-.43-1.34h14.74c.19-3.94,.14-8.06,.14-12.34l7.97,.72c-.1,.77-.53,1.2-1.73,1.34-.1,3.5-.1,6.96-.34,10.27h11.14l3.17-3.17,5.23,4.61Z"/>
      </g>
      <g>
        <path class="cls-2" d="M32.56,18.2c-2.8-1.73-5.47-1.58-8.19,.44-.49-1.5-1.03-2.9-1.42-4.34-.69-2.54-.8-5.12-.2-7.71,.68-2.97,2.52-4.7,5.5-5.22,3.87-.67,7.32,.44,10.52,2.55,1.44,.95,2.68,2.11,3.7,3.51,1.07,1.47,.47,3.09-1.29,3.53-.88,.22-1.77,.41-2.64,.65-1.62,.44-2.95,1.34-3.86,2.75-.66,1.02-1.2,2.11-1.8,3.17-.11,.2-.2,.42-.32,.67Z"/>
        <path class="cls-2" d="M34.07,27.31c1.72-2.79,1.59-5.46-.44-8.16,1.37-.47,2.66-.98,3.99-1.36,2.66-.75,5.36-.93,8.08-.28,2.98,.71,4.68,2.5,5.2,5.52,.66,3.86-.45,7.29-2.54,10.48-.96,1.45-2.13,2.71-3.55,3.73-1.44,1.04-3.07,.43-3.5-1.29-.22-.9-.41-1.8-.66-2.7-.45-1.62-1.36-2.94-2.77-3.84-1.05-.67-2.18-1.23-3.27-1.84-.17-.09-.35-.17-.53-.26Z"/>
        <path class="cls-2" d="M23.44,19.71c-1.72,2.8-1.58,5.45,.37,8.09-.25,.11-.49,.22-.73,.32-2.93,1.24-5.96,2-9.16,1.7-1.11-.1-2.24-.32-3.29-.69-2.68-.97-3.89-3.13-4.11-5.83-.46-5.67,1.88-10.11,6.26-13.57,1.29-1.02,2.95-.39,3.38,1.2,.24,.89,.43,1.8,.67,2.69,.46,1.75,1.44,3.13,2.97,4.08,.96,.61,1.99,1.12,2.99,1.67,.2,.11,.42,.21,.65,.33Z"/>
        <path class="cls-2" d="M25,28.86c2.75,1.69,5.42,1.55,8.14-.48,.5,1.5,1.04,2.92,1.43,4.38,.68,2.54,.79,5.12,.18,7.71-.7,2.97-2.52,4.68-5.53,5.19-3.69,.63-7.01-.38-10.11-2.31-1.6-1-2.98-2.25-4.09-3.79-1.04-1.43-.42-3.08,1.31-3.49,.78-.18,1.56-.36,2.33-.55,1.88-.47,3.38-1.5,4.39-3.16,.69-1.13,1.3-2.3,1.96-3.49Z"/>
        <path class="cls-2" d="M33.41,23.52c-.01,2.55-2.11,4.64-4.66,4.64-2.56,0-4.69-2.15-4.66-4.7,.04-2.56,2.15-4.64,4.68-4.62,2.56,.03,4.64,2.13,4.63,4.67Z"/>
      </g>
      <g>
        <path class="cls-1" d="M9.19,83.88c-.1,0-.18,.01-.27,.04-.72,.31-1.54,.55-2.46,.72-.98,.19-1.99,.29-3.01,.29v1.58h6.32c.22,0,.33,.08,.33,.23v4.92c0,.22-.11,.33-.33,.33H3.42c-.03,.96-.09,1.81-.18,2.56h6.44c.22,0,.33,.08,.33,.23v6.48c0,.18-.11,.27-.33,.27h-.82c-.22,0-.33-.09-.33-.27v-.72H4.51v.82c0,.15-.11,.23-.33,.23h-.8c-.23,0-.35-.08-.35-.23v-5.21c-.16,1.13-.47,2.25-.92,3.34-.23,.74-.58,1.44-1.05,2.09-.1,0-.16,0-.21-.02-.23-.23-.49-.43-.76-.59-.07-.07-.1-.16-.1-.29,.4-.6,.76-1.44,1.09-2.5,.3-1.11,.53-2.27,.68-3.49,.14-1.27,.21-2.82,.21-4.66v-5.99c0-.23,.11-.35,.33-.35h.16c1.44-.03,2.55-.11,3.34-.25,.98-.14,1.87-.4,2.65-.8,.1-.07,.18-.1,.25-.1,.08,0,.16,.04,.25,.12,.66,.57,.98,.94,.98,1.11,0,.22-.08,.33-.25,.33l-.49-.23Zm-5.74,3.92v2.87h5.19v-2.87H3.45Zm1.07,11.4h4.02v-3.36H4.51v3.36Zm8.94-16.49l1.44,.55c.14,.11,.21,.2,.21,.27,0,.12-.05,.21-.16,.25-.16,0-.26,.11-.29,.33-.19,.89-.37,1.65-.53,2.3h5.17c.16,0,.25,.11,.25,.33v.68c0,.21-.08,.31-.25,.31h-1.17c-.08,2.6-.26,4.5-.53,5.7-.37,1.68-.88,3.08-1.54,4.2l-.08,.12c.23,.26,.5,.53,.8,.8,.86,.77,1.89,1.48,3.1,2.13,0,.1-.06,.17-.18,.23-.25,.19-.53,.4-.84,.64-.1,.08-.22,.12-.37,.12-.74-.45-1.47-.98-2.19-1.6-.46-.38-.88-.76-1.23-1.13-.34,.36-.7,.68-1.09,.98-.74,.64-1.7,1.22-2.87,1.74-.37-.38-.7-.73-.98-1.05,.62-.22,1.35-.64,2.19-1.27,.68-.52,1.28-1.07,1.78-1.66-.49-.72-.93-1.63-1.31-2.71-.31-.89-.53-2.04-.66-3.47-.15,.26-.3,.5-.45,.72-.16,0-.31-.02-.45-.06-.26-.11-.53-.21-.8-.29-.1-.04-.14-.08-.14-.12,0-.11,.02-.19,.06-.25,.6-.83,1.13-1.86,1.6-3.08,.29-.71,.53-1.47,.74-2.28,.23-.83,.45-1.91,.66-3.24,.04-.14,.09-.21,.14-.21Zm-.84,7.88h.43c.27,0,.41,.12,.41,.35,.07,1.31,.24,2.36,.51,3.14,.25,.77,.57,1.53,.98,2.3,.52-1,.9-2.08,1.13-3.24,.3-1.22,.49-3.02,.57-5.41h-2.95v.02c-.29,.92-.6,1.78-.94,2.58-.05,.1-.1,.18-.14,.27Z"/>
        <path class="cls-1" d="M32.17,83.78c-.14,0-.26,.01-.37,.04-.83,.31-1.75,.57-2.75,.76v1.5h4.27c.11,0,.16,.08,.16,.25v.66c0,.22-.05,.33-.16,.33h-4.27v1.31h3.53c.22,0,.33,.08,.33,.25v5.99c0,.16-.11,.25-.33,.25h-3.53v1.48h3.69c.11,0,.16,.08,.16,.25v.66c0,.22-.05,.33-.16,.33h-3.69v1.44c.74-.1,1.54-.2,2.4-.31,.75-.12,1.35-.23,1.78-.31,.05,0,.08,.06,.08,.18-.07,.3-.12,.62-.14,.94,0,.12-.03,.18-.1,.18-.66,.07-1.35,.16-2.07,.27-2.28,.37-4.63,.75-7.03,1.15-.14,.4-.27,.61-.41,.64-.07,0-.14-.04-.23-.12l-.51-1.85c.67-.05,2.26-.25,4.76-.59v-1.62h-3.77c-.11,0-.16-.11-.16-.33v-.66c0-.16,.05-.25,.16-.25h3.77v-1.48h-3.61c-.22,0-.33-.08-.33-.25v-5.99c0-.16,.11-.25,.33-.25h3.61v-1.31h-4.35c-.11,0-.16-.11-.16-.33v-.66c0-.16,.05-.25,.16-.25h4.35v-1.27c-1.23,.14-2.49,.21-3.77,.21-.22,0-.36-.07-.41-.21-.03-.25-.12-.49-.27-.74-.04-.08-.06-.18-.06-.29,1.98-.03,3.53-.12,4.66-.27,1.34-.16,2.55-.47,3.63-.92,.12-.08,.23-.12,.33-.12,.08,0,.16,.04,.23,.12,.67,.57,1,.94,1,1.11,0,.23-.08,.35-.25,.35l-.49-.27Zm-7.05,7.46h2.46v-1.39h-2.46v1.39Zm2.46,2.62v-1.39h-2.46v1.39h2.46Zm1.48-4.02v1.39h2.38v-1.39h-2.38Zm2.38,4.02v-1.39h-2.38v1.39h2.38Zm2.71-6.64h2.26c.04-.89,.06-1.85,.06-2.87,0-.3-.03-.85-.1-1.64,0-.11,.08-.16,.25-.16l1.5,.14c.21,.04,.31,.1,.31,.18,0,.18-.06,.29-.18,.35-.26,.07-.39,.23-.39,.47,0,1.29-.01,2.46-.04,3.53h3.65c.18,0,.27,.11,.27,.33-.04,3.72-.13,6.39-.27,8.02-.16,1.94-.39,3.38-.68,4.33-.26,1.03-.96,1.54-2.11,1.54-.96,0-1.45-.14-1.48-.41-.07-.3-.26-.66-.57-1.09v-.14c.75,.04,1.44,.06,2.05,.06,.53,0,.88-.36,1.03-1.07,.16-.6,.31-1.74,.43-3.4,.12-1.38,.21-3.66,.25-6.85h-2.58c-.05,1.82-.14,3.28-.27,4.39-.25,2.15-.66,4.01-1.25,5.58-.4,1.12-.88,2.15-1.46,3.08h-.25c-.45-.12-.88-.27-1.29-.43-.07-.04-.1-.12-.1-.23,.74-.96,1.33-2,1.76-3.12,.49-1.11,.85-2.52,1.09-4.25,.18-1.16,.3-2.84,.37-5.02h-2.24c-.16,0-.25-.1-.25-.31v-.68c0-.22,.08-.33,.25-.33Z"/>
        <path class="cls-1" d="M56.94,86.45h-4.98v13.27h-1.99v-13.27h-4.92v-1.78h11.89v1.78Z"/>
        <path class="cls-1" d="M68.91,99.71h-1.66v-1.6h-.04c-.83,1.23-1.98,1.85-3.42,1.85-.64,0-1.25-.13-1.83-.39-.64-.29-1.11-.69-1.39-1.21-.33-.63-.49-1.56-.49-2.79v-6.75h1.85v6.03c0,1.05,.06,1.78,.18,2.19,.11,.4,.37,.72,.78,.98,.36,.22,.78,.33,1.27,.33,.53,0,1.04-.13,1.52-.39,.48-.27,.81-.63,1-1.07,.26-.56,.39-1.31,.39-2.26v-5.82h1.85v10.89Z"/>
        <path class="cls-1" d="M78.92,89.17l-.62,1.7c-.46-.27-.92-.41-1.35-.41-1.39,0-2.09,1.18-2.09,3.53v5.72h-1.85v-10.89h1.66v1.64h.06c.63-1.26,1.39-1.89,2.3-1.89,.6,0,1.23,.2,1.89,.59Z"/>
        <path class="cls-1" d="M90.91,94.09c0,2.06-.57,3.62-1.7,4.68-.86,.79-1.86,1.19-2.99,1.19-1.29,0-2.28-.54-2.97-1.62h-.04v1.37h-1.72v-15.05h1.85v5.39h.04c.66-.98,1.63-1.48,2.93-1.48,1.44,0,2.58,.53,3.42,1.6,.79,1,1.19,2.3,1.19,3.92Zm-1.89,.14c0-1.24-.25-2.25-.76-3.01-.49-.75-1.2-1.13-2.13-1.13s-1.67,.4-2.21,1.21c-.49,.75-.74,1.71-.74,2.87,0,1.35,.18,2.3,.53,2.85,.64,.94,1.43,1.42,2.36,1.42,.81,0,1.48-.33,2.03-.98,.62-.75,.92-1.83,.92-3.22Z"/>
        <path class="cls-1" d="M103.99,94.09c0,1.79-.37,3.13-1.11,4.02-1,1.23-2.33,1.85-4,1.85s-3.04-.62-4.04-1.85c-.71-.9-1.07-2.19-1.07-3.86s.37-2.92,1.11-3.88c.94-1.2,2.28-1.8,4-1.8,1.35,0,2.49,.4,3.4,1.19,1.13,.98,1.7,2.43,1.7,4.33Zm-1.91,.1c0-1.35-.33-2.4-.98-3.14-.57-.64-1.31-.96-2.21-.96-.81,0-1.49,.25-2.05,.76-.78,.72-1.17,1.86-1.17,3.4s.4,2.7,1.19,3.42c.56,.51,1.24,.76,2.03,.76,1.18,0,2.04-.49,2.58-1.46,.41-.75,.62-1.68,.62-2.79Z"/>
        <path class="cls-1" d="M107.49,86.67h2.62v-3.88c0-.16,.11-.25,.33-.25,1.04,0,1.56,.08,1.56,.25,0,.19-.07,.3-.21,.33-.14,.01-.21,.15-.21,.41v3.14h2.05c.16,0,.25,.1,.25,.31v.66c0,.22-.08,.33-.25,.33h-1.93c.26,.89,.5,1.6,.72,2.13,.3,.72,.8,1.56,1.5,2.5,.08,.05,.12,.12,.12,.21,0,.05-.05,.12-.14,.18-.15,.19-.36,.4-.62,.64-.08,.11-.16,.16-.23,.16-.05,0-.13-.04-.23-.12-.48-.7-.9-1.49-1.25-2.38v9.97c0,.18-.11,.27-.33,.27h-.82c-.22,0-.33-.09-.33-.27v-9.23c-.26,.7-.53,1.35-.82,1.97-.41,.83-.82,1.54-1.23,2.11-.15,0-.27-.05-.35-.16-.25-.25-.49-.48-.74-.7-.04-.11-.06-.18-.06-.23,.38-.48,.69-.94,.92-1.37,.37-.6,.74-1.43,1.11-2.48,.25-.63,.57-1.7,.98-3.2h-2.44c-.16,0-.25-.11-.25-.33v-.66c0-.21,.08-.31,.25-.31Zm7.63,1.56h9.02c.22,0,.33,.08,.33,.23v6.09c0,.15-.11,.23-.33,.23h-3.86v.16c-.05,.52-.12,.98-.21,1.39h5.29c.11,0,.16,.08,.16,.25v.66c0,.22-.05,.33-.16,.33h-4.82c.1,.15,.21,.29,.33,.43,.27,.29,.58,.55,.92,.8,.53,.36,1.17,.67,1.91,.94,.68,.25,1.45,.43,2.3,.55,.07,.01,.1,.03,.1,.06,0,.12-.05,.23-.16,.31-.22,.22-.42,.46-.62,.72-.05,.14-.15,.21-.29,.21-.05,0-.26-.06-.62-.18-1.12-.36-2.06-.76-2.81-1.21-.59-.36-1.04-.72-1.35-1.11-.22-.21-.48-.56-.78-1.07-.53,.92-1.2,1.64-2.01,2.17-.88,.63-1.99,1.12-3.34,1.48-.14,0-.23-.03-.29-.08-.18-.18-.4-.33-.68-.47-.12-.11-.18-.2-.18-.27s.11-.12,.33-.16c1.23-.41,2.17-.83,2.81-1.27,.74-.41,1.3-.92,1.68-1.54,.08-.1,.16-.2,.23-.31h-4.22c-.11,0-.16-.11-.16-.33v-.66c0-.16,.05-.25,.16-.25h4.74c.14-.46,.23-.98,.27-1.56h-3.69c-.22,0-.33-.08-.33-.23v-6.09c0-.15,.11-.23,.33-.23Zm-1.39-3.71h2.71v-1.64c0-.16,.11-.25,.33-.25,1.04,0,1.56,.08,1.56,.25,0,.19-.07,.3-.21,.33-.14,.01-.21,.15-.21,.41v.9h3.2v-1.64c0-.16,.11-.25,.33-.25,1.04,0,1.56,.08,1.56,.25,0,.19-.07,.3-.21,.33-.14,.01-.21,.15-.21,.41v.9h3.14c.1,0,.14,.09,.14,.27v.64c0,.23-.05,.35-.14,.35h-3.14v1.29c0,.16-.11,.25-.33,.25h-.82c-.22,0-.33-.08-.33-.25v-1.29h-3.2v1.29c0,.16-.11,.25-.33,.25h-.82c-.22,0-.33-.08-.33-.25v-1.29h-2.71c-.11,0-.16-.12-.16-.35v-.64c0-.18,.05-.27,.16-.27Zm2.54,6.34h6.73v-1.42h-6.73v1.42Zm6.73,2.71v-1.5h-6.73v1.5h6.73Z"/>
        <path class="cls-1" d="M129.92,86.67h9.43c-.07-1.15-.1-2.35-.1-3.61,0-.29,.08-.43,.25-.43l1.39,.08c.22,.01,.33,.1,.33,.27,0,.21-.08,.31-.23,.31-.18,.08-.27,.25-.27,.49,0,1,.03,1.96,.08,2.89h7.38c.16,0,.25,.1,.25,.31v.66c0,.22-.08,.33-.25,.33h-7.3c.04,.52,.1,1.03,.16,1.52,.22,1.72,.59,3.28,1.11,4.68,.46,1.34,1.01,2.45,1.64,3.34,.52,.83,1.03,1.46,1.52,1.87,.33,.18,.55,.27,.66,.27,.12,0,.25-.11,.39-.33,.19-.25,.54-1.09,1.05-2.52,.07-.25,.14-.37,.21-.37,.1,0,.16,.05,.18,.14,.15,.25,.35,.47,.59,.68,.08,.14,.12,.27,.12,.41-.56,1.45-1.05,2.5-1.46,3.16-.34,.48-.68,.72-1,.72-.46,0-1.12-.39-1.97-1.17-.7-.67-1.41-1.63-2.13-2.89-.6-1.05-1.16-2.5-1.66-4.33-.41-1.59-.69-3.27-.84-5.04,0-.04,0-.08-.02-.12h-9.52c-.18,0-.27-.11-.27-.33v-.66c0-.21,.09-.31,.27-.31Zm.64,4.49h7.71c.16,0,.25,.11,.25,.33v.66c0,.22-.08,.33-.25,.33h-3.04v5.62c1.22-.29,2.38-.58,3.49-.88,.04-.03,.08-.04,.12-.04,.11,0,.16,.05,.16,.14,0,.7-.03,1.08-.08,1.15-2.5,.67-5.04,1.27-7.63,1.8-.19,.38-.36,.57-.49,.57s-.41-.57-.82-1.72c1.05-.14,2.31-.37,3.77-.7v-5.95h-3.2c-.16,0-.25-.11-.25-.33v-.66c0-.22,.08-.33,.25-.33Zm13.29-8.18c.83,.4,1.51,.77,2.03,1.11,.62,.44,1.14,.83,1.58,1.17,0,.03-.04,.09-.12,.18-.44,.64-.67,.96-.7,.96-.67-.57-1.37-1.09-2.11-1.56-.6-.38-1.09-.65-1.48-.8,0-.08,.21-.39,.62-.92,.07-.1,.13-.14,.18-.14Z"/>
        <path class="cls-1" d="M163.31,89.44v2.3c0,1.04-.22,1.94-.66,2.71-.45,.77-.98,1.26-1.58,1.48l-.82-.82c.38-.15,.73-.44,1.05-.88,.33-.41,.51-.94,.53-1.58h-1.66v-3.2h3.14Z"/>
        <path class="cls-1" d="M178.91,92.56c.07,0,.12,.06,.14,.18,.34,.77,.51,1.17,.51,1.21,0,.11-.03,.21-.1,.31-.68,1.63-1.33,3.01-1.93,4.14-.33,.64-.73,1.35-1.21,2.11-.08,.19-.12,.44-.12,.74,0,.18-.05,.27-.16,.27s-.55-.44-1.33-1.33c-.07-.04-.12-.12-.14-.25,0-.11,.03-.21,.1-.29,.41-.4,.81-.9,1.21-1.52,.57-.86,1.13-1.81,1.66-2.85,.48-.93,.9-1.78,1.25-2.54,.04-.12,.08-.18,.12-.18Zm-3.28-5.66c.79,.38,1.44,.73,1.93,1.05,.59,.41,1.09,.77,1.52,1.09,0,.01-.03,.08-.1,.18-.41,.6-.62,.9-.64,.9-.64-.52-1.33-.99-2.05-1.42-.59-.36-1.08-.6-1.48-.74,0-.07,.22-.38,.66-.92,.05-.1,.11-.14,.16-.14Zm1.31-4.35c.74,.37,1.34,.7,1.8,1,.55,.4,1.01,.75,1.39,1.05,0,.01-.03,.08-.1,.18-.4,.6-.61,.9-.64,.9-.6-.51-1.24-.96-1.93-1.37-.55-.33-1-.56-1.35-.7,0-.07,.21-.38,.64-.92,.08-.1,.14-.14,.18-.14Zm5.5,.43h9.11c.22,0,.33,.08,.33,.23v7.05h1.23c.27,0,.41,.11,.41,.33v9.76c0,.41-.3,.73-.9,.96-.56,.18-1.3,.29-2.21,.35-.15,0-.23-.08-.25-.23-.03-.3-.19-.75-.49-1.33,0-.04,.06-.06,.18-.06,1.05,0,1.67-.04,1.87-.12,.22-.1,.33-.25,.33-.45v-7.9h-10.17v9.78c0,.15-.11,.23-.33,.23h-.82c-.22,0-.33-.08-.33-.23v-10.77c0-.22,.11-.33,.33-.33h1.39v-6.97c0-.21,.11-.31,.33-.31Zm1.15,7.28h2.21v-3.53c0-.22,.11-.33,.33-.33h4.27v-2.13h-6.81v5.99Zm.57,2.79h5.5c.22,0,.33,.08,.33,.25v5.52c0,.15-.11,.23-.33,.23h-.82c-.22,0-.33-.08-.33-.23v-.59h-3.2v.9c0,.16-.11,.25-.33,.25h-.82c-.22,0-.33-.08-.33-.25v-5.74c0-.22,.11-.33,.33-.33Zm1.15,3.86h3.2v-2.52h-3.2v2.52Zm1.97-6.64h3.12v-2.54h-3.12v2.54Z"/>
        <path class="cls-1" d="M197.55,84.78h2.79v-1.99c0-.16,.11-.25,.33-.25,1.04,0,1.56,.08,1.56,.25,0,.19-.07,.3-.21,.33-.14,.01-.21,.15-.21,.41v1.25h3.04c.11,0,.16,.08,.16,.23v.68c0,.21-.05,.31-.16,.31h-3.04v1.56h2.54c.22,0,.33,.08,.33,.25v7.49c0,.15-.11,.23-.33,.23h-2.54v1.72h3.28c.11,0,.16,.08,.16,.25v.66c0,.22-.05,.33-.16,.33h-3.28v2.97c0,.15-.11,.23-.33,.23h-.82c-.22,0-.33-.08-.33-.23v-2.97h-2.95c-.11,0-.16-.11-.16-.33v-.66c0-.16,.05-.25,.16-.25h2.95v-1.72h-2.54c-.22,0-.33-.08-.33-.23v-7.49c0-.16,.11-.25,.33-.25h2.54v-1.56h-2.79c-.11,0-.16-.1-.16-.31v-.68c0-.15,.05-.23,.16-.23Zm1.31,6.15h1.48v-2.24h-1.48v2.24Zm1.48,3.45v-2.32h-1.48v2.32h1.48Zm1.48-5.68v2.24h1.48v-2.24h-1.48Zm1.48,5.68v-2.32h-1.48v2.32h1.48Zm7.49-12.14l1.5,.7c.14,.11,.21,.2,.21,.27,0,.16-.14,.25-.41,.25-.15,0-.28,.03-.39,.1,.33,.64,.66,1.22,1,1.72,.48,.66,.96,1.19,1.44,1.6,.66,.62,1.45,1.13,2.38,1.54,.11,.03,.16,.07,.16,.12,0,.1-.03,.18-.1,.27-.31,.25-.59,.49-.84,.72-.07,.11-.14,.16-.21,.16-.7-.33-1.28-.7-1.74-1.13-.64-.52-1.23-1.16-1.76-1.91-.36-.49-.74-1.11-1.15-1.85-.27,.37-.53,.71-.76,1.03-.36,.48-.78,.96-1.27,1.46-.49,.51-.98,.96-1.46,1.37-.49,.41-.9,.7-1.21,.86-.12,0-.23-.06-.31-.18-.18-.3-.39-.55-.64-.74-.14-.08-.21-.15-.21-.21,0-.04,.03-.08,.08-.1,.68-.36,1.26-.71,1.72-1.07,.62-.48,1.24-1.09,1.87-1.85,.42-.48,.77-.94,1.03-1.37,.31-.48,.59-1,.82-1.58,.08-.12,.16-.18,.25-.18Zm-4.53,9.08h9.19c.27,0,.41,.11,.41,.33v8.84c0,.37-.2,.66-.59,.86-.37,.15-.85,.25-1.46,.31-.15,0-.23-.07-.25-.21-.03-.29-.19-.71-.49-1.27,0-.04,.03-.06,.1-.06,.62,0,.98-.03,1.09-.1,.14-.08,.21-.21,.21-.39v-3.14h-1.48v3.86c0,.18-.11,.27-.33,.27h-.82c-.16,0-.25-.09-.25-.27v-3.86h-1.39v3.94c0,.16-.11,.25-.33,.25h-.82c-.16,0-.25-.08-.25-.25v-3.94h-1.39v4.76c0,.18-.11,.27-.33,.27h-.82c-.16,0-.25-.09-.25-.27v-9.68c0-.16,.08-.25,.25-.25Zm1.15,3.96h1.39v-2.73h-1.39v2.73Zm.41-6.67h5.66c.11,0,.16,.08,.16,.25v.66c0,.22-.05,.33-.16,.33h-5.66c-.11,0-.16-.11-.16-.33v-.66c0-.16,.05-.25,.16-.25Zm2.38,3.94v2.73h1.39v-2.73h-1.39Zm2.79,0v2.73h1.48v-2.73h-1.48Z"/>
        <path class="cls-1" d="M233.49,88.87l1.83,.53c.15,.07,.23,.14,.23,.21,0,.16-.08,.26-.25,.29-.27,.03-.44,.12-.51,.29-.42,1.54-1.01,3.32-1.76,5.33-.49,1.34-1,2.62-1.54,3.86h7.01c.16,0,.25,.09,.25,.27v.8c0,.22-.08,.33-.25,.33h-18.21c-.16,0-.25-.11-.25-.33v-.8c0-.18,.08-.27,.25-.27h9.64c.64-1.48,1.29-3.04,1.93-4.7,.7-2.12,1.2-3.99,1.5-5.6,.05-.14,.1-.21,.14-.21Zm-4.59-6.15c1.09,0,1.64,.09,1.64,.27s-.07,.28-.21,.31c-.14,.01-.21,.15-.21,.41v2.13h7.46c.16,0,.25,.11,.25,.33v.66c0,.22-.08,.33-.25,.33h-16.49c-.16,0-.25-.11-.25-.33v-.66c0-.22,.08-.33,.25-.33h7.46v-2.85c0-.18,.11-.27,.33-.27Zm-4.27,6.58c.71,1.56,1.29,3.01,1.72,4.35,.41,1.19,.77,2.47,1.07,3.83,0,.07-.49,.24-1.48,.51-.12-.93-.39-2.05-.8-3.36-.44-1.54-1.02-3.08-1.74-4.59,0-.12,.41-.37,1.23-.74Z"/>
        <path class="cls-1" d="M245.24,93.46v5.62c.36-.1,.72-.19,1.11-.29,1.26-.33,2.45-.68,3.59-1.07-.36-.79-.77-1.59-1.25-2.38,0-.12,.38-.38,1.15-.76,.7,1.26,1.25,2.41,1.66,3.45,.41,.94,.76,1.96,1.05,3.04,0,.05-.46,.2-1.39,.43-.11-.67-.35-1.48-.72-2.44-2.16,.68-4.35,1.3-6.58,1.85-.23,.4-.42,.59-.57,.59-.12,0-.4-.6-.82-1.8,.41-.07,.85-.16,1.31-.29v-15.87c0-.22,.11-.33,.33-.33h7.38c.22,0,.33,.08,.33,.25v9.66c0,.23-.11,.35-.33,.35h-6.23Zm0-8.86v2.95h5.09v-2.95h-5.09Zm0,4.27v3.2h5.09v-3.2h-5.09Zm10.34-4.49v16.9c0,.18-.14,.27-.41,.27h-.82c-.22,0-.33-.09-.33-.27v-17.98c0-.21,.11-.31,.33-.31h6.23c.27,0,.41,.1,.41,.31v13.78c0,.57-.31,1.02-.94,1.33-.57,.26-1.33,.43-2.26,.51-.15,0-.24-.09-.27-.27-.03-.29-.18-.72-.47-1.31,0-.07,.06-.1,.18-.1,1.09,0,1.74-.06,1.93-.18,.23-.15,.35-.38,.35-.68v-12h-3.94Z"/>
        <path class="cls-1" d="M265.44,92.15h3.69c.27,0,.41,.08,.41,.25v4.61c0,.25,.01,.57,.04,.98,.27,.53,.62,.99,1.05,1.37,.55,.38,1.36,.57,2.44,.57h5.6c.49,0,1.33-.05,2.5-.16,1.08-.11,1.91-.24,2.48-.39,.08-.01,.16-.02,.25-.02,.11,0,.16,.05,.16,.16-.26,.48-.48,.91-.66,1.29-.03,.29-.16,.43-.41,.43h-9.93c-1.44,0-2.58-.36-3.45-1.09-.38-.4-.74-.94-1.07-1.64-.6,.67-1.14,1.29-1.62,1.87-.29,.22-.44,.47-.47,.76,0,.25-.04,.37-.12,.37-.05,0-.14-.07-.27-.21l-1.05-1.52c.33-.04,1.21-.72,2.65-2.05,.22-.11,.33-.36,.33-.74v-3.53h-2.56c-.16,0-.25-.12-.25-.35v-.66c0-.22,.08-.33,.25-.33Zm.82-4.74c.75,.3,1.37,.59,1.85,.88,.57,.33,1.05,.64,1.44,.92,0,.01-.03,.07-.1,.16-.41,.59-.62,.88-.64,.88-.62-.44-1.27-.83-1.97-1.19-.56-.29-1.03-.49-1.39-.62,0-.07,.21-.37,.64-.9,.07-.1,.13-.14,.18-.14Zm.57-4.53c.68,.33,1.25,.62,1.7,.88,.52,.34,.96,.65,1.33,.92,0,.03-.03,.09-.1,.18-.4,.6-.61,.9-.64,.9-.57-.44-1.18-.84-1.8-1.21-.52-.29-.96-.49-1.31-.59,0-.1,.22-.4,.66-.92,.05-.11,.11-.16,.16-.16Zm5.82,1.56h3.86v-1.56c0-.16,.11-.25,.33-.25,1.04,0,1.56,.08,1.56,.25,0,.19-.07,.3-.21,.33-.14,.01-.21,.15-.21,.41v.82h4.02c.11,0,.16,.08,.16,.25v.66c0,.23-.05,.35-.16,.35h-4.02v1.46h5.41c.11,0,.16,.09,.16,.27v.64c0,.23-.05,.35-.16,.35h-9.04c.33,.42,.59,.83,.8,1.21,.21,.37,.38,.75,.53,1.15,0,.04-.31,.15-.94,.33h4.47c-.18-.08-.34-.16-.49-.23-.11-.05-.16-.09-.16-.1,0-.03,.02-.06,.06-.1,.29-.37,.51-.7,.66-.98,.22-.37,.38-.75,.49-1.13,.03-.1,.06-.14,.1-.14l1.11,.45c.19,.07,.29,.16,.29,.29,0,.07-.04,.12-.12,.14-.12,0-.21,.05-.25,.14-.29,.7-.57,1.25-.86,1.66h3.04c.11,0,.16,.08,.16,.25v.66c0,.22-.05,.33-.16,.33h-5.09v1.48h3.94c.11,0,.16,.08,.16,.25v.66c0,.22-.05,.33-.16,.33h-3.94v1.39h5.09c.11,0,.16,.08,.16,.25v.66c0,.22-.05,.33-.16,.33h-5.09v1.72c0,.18-.11,.27-.33,.27h-.82c-.22,0-.33-.09-.33-.27v-1.72h-5.25c-.11,0-.16-.11-.16-.33v-.66c0-.16,.05-.25,.16-.25h5.25v-1.39h-4.27c-.11,0-.16-.11-.16-.33v-.66c0-.16,.05-.25,.16-.25h4.27v-1.48h-5.25c-.11,0-.16-.11-.16-.33v-.66c0-.16,.05-.25,.16-.25h3.18c-.07-.25-.19-.53-.37-.84-.21-.44-.48-.87-.82-1.29,0-.08,.29-.27,.88-.55h-2.95c-.11,0-.16-.12-.16-.35v-.64c0-.18,.05-.27,.16-.27h5.33v-1.46h-3.86c-.11,0-.16-.12-.16-.35v-.66c0-.16,.05-.25,.16-.25Z"/>
        <path class="cls-1" d="M288.75,94.28h4.35v-2.36c0-.18,.11-.27,.33-.27,1.04,0,1.56,.09,1.56,.27s-.07,.27-.21,.29c-.14,.03-.21,.18-.21,.45v1.62h4.27c.16,0,.25,.11,.25,.33v.68c0,.21-.08,.31-.25,.31h-4.27v3.22c1.57-.22,3.07-.46,4.49-.72,.05-.03,.12-.04,.18-.04,.11,0,.16,.05,.16,.16,0,.7-.03,1.08-.08,1.15-3.28,.52-6.62,.98-10.01,1.39-.19,.4-.36,.59-.49,.59s-.41-.57-.82-1.72c1.42-.14,3.12-.34,5.09-.62v-3.42h-4.35c-.16,0-.25-.1-.25-.31v-.68c0-.22,.08-.33,.25-.33Zm-.25-10.66h10.5c.16,0,.25,.12,.25,.35v.64c0,.22-.08,.33-.25,.33h-5.07c-1.01,2.2-1.76,3.78-2.26,4.74,1.61-.18,3.29-.41,5.02-.7-.37-.66-.81-1.32-1.31-1.99,0-.1,.38-.34,1.15-.74,.71,1.03,1.28,1.97,1.7,2.83,.44,.78,.8,1.61,1.09,2.5,0,.05-.46,.19-1.39,.41-.11-.51-.33-1.12-.68-1.85-2.65,.48-5.16,.85-7.53,1.11-.14,0-.24,.1-.31,.29-.03,.36-.14,.53-.35,.53-.16,0-.46-.68-.9-2.03,.26,0,.77-.05,1.52-.14,.12-.01,.24-.03,.35-.04l.33-.66c.78-1.54,1.46-2.97,2.03-4.27h-3.9c-.16,0-.25-.11-.25-.33v-.64c0-.23,.08-.35,.25-.35Zm12.63,1.64c1.04,0,1.56,.08,1.56,.25,0,.19-.07,.3-.21,.33-.14,.01-.21,.15-.21,.41v10.85c0,.15-.11,.23-.33,.23h-.82c-.22,0-.33-.08-.33-.23v-11.59c0-.16,.11-.25,.33-.25Zm3.77-2.71l1.66,.23c.15,.07,.23,.14,.23,.21,0,.12-.08,.18-.25,.18-.27,.11-.41,.42-.41,.94v15.75c0,1-.74,1.5-2.21,1.5h-1.23c-.11,0-.16-.12-.16-.37-.05-.26-.19-.58-.41-.96,0-.11,.05-.16,.16-.16,.55,.11,1.04,.16,1.48,.16,.6,0,.9-.25,.9-.74v-15.24c0-.41-.03-.72-.08-.92-.05-.16-.08-.3-.08-.41s.14-.16,.41-.16Z"/>
        <path class="cls-1" d="M310.53,90.51h18.38c.1,0,.14,.08,.14,.25v.66c0,.23-.05,.35-.14,.35h-9.7v9.5c0,.18-.11,.27-.33,.27h-.82c-.22,0-.33-.09-.33-.27v-1.56c-2,.23-4.02,.45-6.07,.66-.21,.38-.37,.57-.49,.57-.11,0-.36-.55-.74-1.64,.49-.04,1.04-.09,1.64-.14v-7.38h-1.54c-.12,0-.18-.12-.18-.35v-.66c0-.16,.06-.25,.18-.25Zm3.18-7.63h12.3c.22,0,.33,.09,.33,.27v5.99c0,.15-.11,.23-.33,.23h-12.3c-.22,0-.33-.08-.33-.23v-5.99c0-.18,.11-.27,.33-.27Zm-.16,10.34h4.18v-1.46h-4.18v1.46Zm0,2.79h4.18v-1.54h-4.18v1.54Zm0,2.97l.57-.08c1.27-.16,2.47-.33,3.61-.49v-1.17h-4.18v1.74Zm1.31-13.47h10.01v-1.39h-10.01v1.39Zm10.01,2.62v-1.39h-10.01v1.39h10.01Zm-4.27,5h6.81c.08,0,.18,.04,.29,.12l.33,.45c.08,.14,.12,.27,.12,.41-.71,1.7-1.46,3.04-2.24,4.04l-.33,.41c.36,.29,.79,.55,1.29,.78,.59,.31,1.35,.59,2.28,.82,.1,.04,.14,.08,.14,.1,0,.08-.03,.16-.1,.25-.25,.21-.49,.44-.74,.72-.1,.14-.17,.21-.23,.21-.03,0-.13-.05-.31-.14-.42-.15-.9-.34-1.44-.57-.64-.31-1.23-.66-1.76-1.05l-.12-.12c-.29,.23-.57,.43-.86,.59-.75,.44-1.61,.84-2.56,1.21-.16,0-.29-.1-.39-.29-.15-.29-.29-.53-.43-.72-.11-.1-.16-.18-.16-.25,0-.08,.05-.15,.16-.21,1.39-.36,2.42-.8,3.08-1.33,.01-.01,.03-.03,.06-.04-.08-.08-.15-.16-.21-.25-.46-.55-.8-1.11-1-1.7-.3-.56-.56-1.26-.78-2.11h-.9c-.16,0-.25-.12-.25-.35v-.64c0-.23,.08-.35,.25-.35Zm2.32,1.33c.1,.36,.21,.68,.33,.98,.23,.62,.54,1.18,.92,1.7,.11,.15,.23,.29,.37,.43,.33-.36,.64-.75,.92-1.17,.3-.49,.66-1.14,1.07-1.95h-3.61Z"/>
        <path class="cls-1" d="M342.02,82.55c1.05,0,1.58,.08,1.58,.25,0,.19-.08,.3-.23,.33-.14,.01-.21,.15-.21,.41v1.15h8.2c.16,0,.25,.11,.25,.33v.68c0,.21-.08,.31-.25,.31h-18.21c-.16,0-.25-.1-.25-.31v-.68c0-.22,.08-.33,.25-.33h8.53v-1.89c0-.16,.11-.25,.33-.25Zm-7.79,10.19h15.91c.27,0,.41,.1,.41,.31v7.69c0,.3-.25,.55-.74,.74-.46,.14-1.07,.23-1.8,.27-.15,0-.24-.08-.27-.23-.01-.3-.17-.75-.47-1.33,0-.03,.05-.04,.14-.04,.79,0,1.26-.03,1.39-.1,.18-.05,.27-.16,.27-.31v-5.7h-13.7v7.32c0,.15-.11,.23-.33,.23h-.82c-.22,0-.33-.08-.33-.23v-8.31c0-.21,.11-.31,.33-.31Zm2.62-5.52h10.75c.22,0,.33,.09,.33,.27v3.83c0,.16-.11,.25-.33,.25h-10.75c-.22,0-.33-.08-.33-.25v-3.83c0-.18,.11-.27,.33-.27Zm1.39,8.2h8.37c.22,0,.33,.08,.33,.25v3.69c0,.18-.11,.27-.33,.27h-8.37c-.22,0-.33-.09-.33-.27v-3.69c0-.16,.11-.25,.33-.25Zm8.2-5.17v-1.72h-8.45v1.72h8.45Zm-.98,8.12v-1.72h-6.07v1.72h6.07Z"/>
        <path class="cls-1" d="M357.54,82.88h14.03c.11,.01,.22,.08,.33,.18,.22,.37,.33,.61,.33,.72-.16,1.5-.27,2.91-.33,4.2-.05,1.19-.08,2.36-.08,3.51,0,2.69,.14,4.79,.43,6.28,.26,1.24,.5,1.87,.72,1.87,.16,0,.27-.12,.33-.35,.12-.23,.25-.92,.39-2.05,.04-.1,.1-.14,.18-.14s.14,.04,.18,.12c.23,.22,.45,.4,.66,.53,.1,.04,.14,.14,.14,.31-.33,1.44-.71,2.48-1.15,3.14-.21,.31-.45,.47-.74,.47-.4,0-.8-.44-1.21-1.31-.46-.94-.79-2.17-.98-3.69-.23-1.64-.35-3.36-.35-5.17,0-1.9,.15-4.33,.45-7.3h-12.18v7.14c0,2.19-.12,3.92-.37,5.21-.18,1.07-.51,2.14-1,3.22-.25,.63-.61,1.24-1.09,1.83-.1,0-.16,0-.21-.02-.23-.23-.49-.43-.76-.59-.07-.07-.1-.16-.1-.29,.42-.53,.79-1.26,1.11-2.19,.34-.97,.58-1.99,.72-3.06,.15-1.12,.23-2.49,.23-4.1v-8.12c0-.22,.11-.33,.33-.33Zm10.99,3.71c-.08,0-.19,.02-.33,.06-.6,.21-1.31,.39-2.13,.55-.34,.07-.67,.14-.98,.21v1.95h3.28c.22,0,.33,.08,.33,.25v6.32c0,.18-.11,.27-.33,.27h-3.28v2.38c1.01-.14,2-.28,2.95-.43-.26-.33-.53-.65-.82-.96,0-.1,.36-.32,1.07-.68,.68,.83,1.24,1.61,1.66,2.32,.42,.64,.77,1.32,1.05,2.03,0,.05-.44,.19-1.31,.41-.12-.46-.38-1.05-.76-1.74-.01-.01-.02-.03-.02-.04-2.9,.38-5.84,.74-8.82,1.07-.23,.37-.42,.55-.57,.55-.12,0-.4-.6-.82-1.8,1.34-.11,2.96-.28,4.86-.51h.06v-2.58h-3.12c-.22,0-.33-.09-.33-.27v-6.32c0-.16,.11-.25,.33-.25h3.12v-1.74c-.1,.01-.18,.03-.25,.04-.98,.1-1.89,.14-2.71,.14-.23,0-.38-.09-.43-.27-.19-.27-.4-.56-.64-.86,0-.18,.08-.27,.25-.27h1.23c1.01,0,1.89-.05,2.62-.16,.67-.03,1.34-.13,2.01-.31,.75-.18,1.39-.41,1.93-.7,.07-.04,.12-.06,.16-.06,.16,0,.29,.03,.37,.1,.79,.7,1.19,1.13,1.19,1.31,0,.15-.08,.23-.25,.23l-.57-.23Zm-4.92,8.26v-4.18h-1.97v4.18h1.97Zm3.61,0v-4.18h-2.13v4.18h2.13Z"/>
        <path class="cls-1" d="M378.25,89.44h18.38c.1,0,.14,.08,.14,.25v.49c0,.22-.05,.33-.14,.33h-18.38c-.12,0-.18-.11-.18-.33v-.49c0-.16,.06-.25,.18-.25Zm3.51,1.89h11.73c.22,0,.33,.08,.33,.25v5c0,.16-.11,.25-.33,.25h-5.33v.98h6.48c.11,0,.16,.08,.16,.25v.49c0,.23-.05,.35-.16,.35h-6.48v1.13h8.47c.1,0,.14,.08,.14,.25v.49c0,.22-.05,.33-.14,.33h-18.38c-.12,0-.18-.11-.18-.33v-.49c0-.16,.06-.25,.18-.25h8.43v-1.13h-5.8c-.12,0-.18-.12-.18-.35v-.49c0-.16,.06-.25,.18-.25h5.8v-.98h-4.92c-.22,0-.33-.08-.33-.25v-5c0-.16,.11-.25,.33-.25Zm-.33-8.04h12.47c.22,0,.33,.08,.33,.25v4.78c0,.15-.11,.23-.33,.23h-12.47c-.22,0-.33-.08-.33-.23v-4.78c0-.16,.11-.25,.33-.25Zm1.15,2.13h10.17v-1.15h-10.17v1.15Zm10.17,2.13v-1.15h-10.17v1.15h10.17Zm-9.84,6.01h3.77v-1.25h-3.77v1.25Zm3.77,2.28v-1.29h-3.77v1.29h3.77Zm1.48-3.53v1.25h4.18v-1.25h-4.18Zm4.18,3.53v-1.29h-4.18v1.29h4.18Z"/>
        <path class="cls-1" d="M411.63,89.44v2.3c0,1.04-.22,1.94-.66,2.71-.45,.77-.98,1.26-1.58,1.48l-.82-.82c.38-.15,.73-.44,1.05-.88,.33-.41,.51-.94,.53-1.58h-1.66v-3.2h3.14Z"/>
        <path class="cls-1" d="M423.4,86.16h6.13c.16,0,.25,.12,.25,.35v.64c0,.23-.08,.35-.25,.35h-6.13c-.18,0-.27-.12-.27-.35v-.64c0-.23,.09-.35,.27-.35Zm.64,8.53h4.76c.22,0,.33,.08,.33,.25v5.99c0,.16-.11,.25-.33,.25h-.82c-.16,0-.25-.08-.25-.25v-.74h-2.54v1.07c0,.18-.11,.27-.33,.27h-.82c-.16,0-.25-.09-.25-.27v-6.23c0-.22,.08-.33,.25-.33Zm.16-5.66h4.68c.16,0,.25,.11,.25,.33v.68c0,.21-.08,.31-.25,.31h-4.68c-.16,0-.25-.1-.25-.31v-.68c0-.22,.08-.33,.25-.33Zm0,2.81h4.68c.16,0,.25,.1,.25,.31v.66c0,.22-.08,.33-.25,.33h-4.68c-.16,0-.25-.11-.25-.33v-.66c0-.21,.08-.31,.25-.31Zm.25-8.63h4.43c.16,0,.25,.11,.25,.33v.66c0,.22-.08,.33-.25,.33h-4.43c-.16,0-.25-.11-.25-.33v-.66c0-.22,.08-.33,.25-.33Zm.74,15.69h2.54v-2.89h-2.54v2.89Zm5.17-8.47h2.79v-.98c0-.1,.08-.14,.25-.14,.98,0,1.48,.08,1.48,.23,0,.16-.05,.25-.16,.27-.11,.03-.16,.16-.16,.39v.25h2.79v-.98c0-.1,.08-.14,.25-.14,.98,0,1.48,.08,1.48,.23,0,.16-.05,.25-.16,.27-.11,.03-.16,.16-.16,.39v.25h2.79c.11,0,.16,.08,.16,.25v.66c0,.16-.05,.25-.16,.25h-2.79v1.09h2.38c.11,0,.16,.08,.16,.23v.68c0,.15-.05,.23-.16,.23h-2.38v1.15h3.2c.11,0,.16,.08,.16,.25v.66c0,.18-.05,.27-.16,.27h-5.07c.59,.74,1.11,1.33,1.56,1.76l.16,.16c.29-.16,.55-.33,.78-.49,.4-.26,.79-.61,1.19-1.05,.07-.05,.12-.08,.14-.08,.77,.67,1.15,1.05,1.15,1.15s-.08,.14-.23,.14c-.26,0-.4,.03-.43,.1-.48,.44-.98,.81-1.5,1.13,.26,.18,.52,.35,.78,.51,.67,.4,1.35,.7,2.03,.9,0,.1-.06,.16-.18,.21-.27,.25-.51,.49-.72,.72-.07,.11-.12,.16-.16,.16-1.03-.49-1.86-1-2.5-1.52-.74-.56-1.37-1.17-1.89-1.83-.42-.48-.85-1.07-1.29-1.78-.62,.56-1.21,1.03-1.78,1.42v2.11c1-.3,1.95-.61,2.85-.92,.04-.01,.08-.02,.1-.02,.11,0,.16,.05,.16,.14,0,.6-.03,.93-.08,.98-1.7,.55-3.42,1.05-5.17,1.5-.16,.31-.3,.47-.41,.47-.1,0-.31-.46-.66-1.37,.53-.1,1.13-.23,1.8-.41v-1.66c-.72,.36-1.41,.66-2.05,.9-.08,0-.16-.07-.23-.21-.18-.22-.35-.46-.51-.74-.05-.08-.08-.18-.08-.29,.77-.18,1.64-.5,2.62-.96,.55-.29,1.13-.67,1.74-1.15h-3.96c-.11,0-.16-.09-.16-.27v-.66c0-.16,.05-.25,.16-.25h3.04v-1.15h-2.3c-.11,0-.16-.08-.16-.23v-.68c0-.15,.05-.23,.16-.23h2.3v-1.09h-2.79c-.11,0-.16-.08-.16-.25v-.66c0-.16,.05-.25,.16-.25Zm5.17-7.96c1.04,0,1.56,.08,1.56,.25,0,.19-.07,.3-.21,.33-.14,.01-.21,.15-.21,.41v.16h5.11c.1,0,.14,.09,.14,.27v.64c0,.18-.05,.27-.14,.27h-11.67c-.11,0-.16-.09-.16-.27v-.64c0-.18,.05-.27,.16-.27h5.09v-.9c0-.16,.11-.25,.33-.25Zm-4.35,3.3h3.69c.22,0,.33,.08,.33,.23v2.79c0,.16-.11,.25-.33,.25h-3.69c-.22,0-.33-.08-.33-.25v-2.79c0-.15,.11-.23,.33-.23Zm2.73,2.19v-1.15h-1.74v1.15h1.74Zm3.42,4.7v-1.09h-2.79v1.09h2.79Zm-2.79,2.28h2.79v-1.15h-2.79v1.15Zm2.21-9.17h3.77c.22,0,.33,.08,.33,.23v2.79c0,.16-.11,.25-.33,.25h-3.77c-.22,0-.33-.08-.33-.25v-2.79c0-.15,.11-.23,.33-.23Zm2.79,2.19v-1.15h-1.8v1.15h1.8Z"/>
        <path class="cls-1" d="M450.79,82.63c1.09,.56,1.64,.89,1.64,.98,0,.12-.05,.18-.14,.18-.22,.01-.36,.1-.43,.25-.59,1.04-1.16,1.92-1.72,2.65v7.51c0,.18-.11,.27-.33,.27h-.82c-.22,0-.33-.09-.33-.27v-5.97c-.51,.46-1.22,1.07-2.13,1.8-.14,0-.27-.07-.39-.21-.21-.15-.41-.31-.62-.47-.1-.07-.14-.14-.14-.23,.64-.51,1.28-1.03,1.91-1.58,.83-.74,1.55-1.55,2.15-2.44,.55-.78,.97-1.55,1.27-2.32,.01-.11,.04-.16,.08-.16Zm-2.54,13.12l1.25,.53c.21,.08,.31,.18,.31,.29,0,.14-.08,.24-.23,.31-.21,0-.33,.11-.39,.33-.55,1.61-1.09,2.86-1.64,3.75-.12,.19-.22,.29-.29,.29-.1,0-.22-.05-.37-.14-.3-.15-.58-.28-.84-.39-.12-.05-.18-.09-.18-.1,0-.05,.03-.13,.1-.23,.52-.77,.92-1.44,1.19-2.03,.41-.75,.7-1.5,.88-2.26,.07-.23,.14-.35,.21-.35Zm6.73-13.12l1.25,.53c.21,.08,.31,.18,.31,.29,0,.16-.11,.28-.33,.35-.29,0-.47,.13-.55,.39-.14,.31-.27,.62-.41,.9h8.26c.21,0,.33,.03,.39,.08,.3,.21,.45,.38,.45,.51l-1.39,2.77c-.03,.05-.06,.08-.1,.08-.75-.23-1.13-.42-1.13-.57l.82-1.64h-3.45v6.64c0,1.05-.85,1.58-2.56,1.58h-.66c-.1,0-.14-.14-.14-.41-.01-.3-.13-.66-.35-1.09v-.08c.37,.11,.73,.16,1.09,.16,.75,0,1.13-.25,1.13-.74v-6.07h-2.95c-.45,.88-.91,1.61-1.37,2.21-.18,.22-.32,.33-.43,.33-.1,0-.21-.04-.35-.12-.29-.12-.55-.24-.8-.35-.11-.04-.16-.07-.16-.08,0-.08,.04-.17,.12-.27,.78-.89,1.37-1.67,1.76-2.36,.57-.89,.99-1.77,1.25-2.65,.1-.27,.2-.41,.31-.41Zm-3.2,12.55l1.39,.18c.16,.03,.25,.08,.25,.14,0,.14-.05,.22-.14,.25-.12,.03-.18,.11-.18,.25v2.95c0,.6,.38,.9,1.15,.9h3.28c1,0,1.6-.1,1.8-.29,.25-.14,.55-.69,.9-1.66,.18,.27,.46,.53,.86,.76,.19,.08,.29,.18,.29,.29-.49,1.16-.87,1.8-1.13,1.91-.26,.26-.81,.39-1.66,.39h-4.51c-1.64,0-2.46-.49-2.46-1.46v-4.37c0-.16,.05-.25,.16-.25Zm2.87-6.56l1.25,.53c.21,.08,.31,.18,.31,.29,0,.12-.1,.21-.29,.27-.25,0-.4,.1-.47,.29-.67,1.35-1.33,2.4-1.99,3.14-.15,.16-.27,.25-.37,.25-.08,0-.2-.04-.35-.12-.27-.14-.54-.25-.8-.35-.11-.04-.16-.08-.16-.1,0-.04,.03-.1,.1-.16,.66-.68,1.15-1.27,1.48-1.76,.48-.66,.83-1.31,1.05-1.97,.07-.19,.15-.29,.25-.29Zm1.07,6.89c.14,0,.22,.03,.25,.08,.85,.67,1.61,1.38,2.3,2.13,0,.21-.05,.31-.14,.33-.48,.33-.87,.49-1.17,.49-.74-.94-1.45-1.73-2.13-2.36,0-.16,.3-.39,.9-.68Zm5.41-6.81c.12,0,.21,.03,.25,.08,1.07,1.18,2.02,2.43,2.87,3.77,0,.21-.05,.31-.14,.33-.49,.33-.88,.49-1.17,.49-.96-1.6-1.86-2.94-2.71-4.02,0-.14,.3-.36,.9-.66Zm.59,6.81c.12,0,.2,.03,.23,.08,1.01,1.13,1.91,2.34,2.71,3.61,0,.21-.04,.31-.12,.33-.51,.33-.9,.49-1.19,.49-.89-1.54-1.74-2.82-2.54-3.83,0-.16,.31-.39,.92-.68Z"/>
        <path class="cls-1" d="M469.02,85.91h5.13c.36-.94,.63-1.96,.82-3.04,.04-.16,.14-.25,.29-.25,1.2,.42,1.8,.7,1.8,.82,0,.11-.08,.19-.25,.25-.22,0-.38,.12-.49,.35-.18,.66-.38,1.28-.59,1.87h10.6c.16,0,.25,.08,.25,.25v.82c0,.22-.08,.33-.25,.33h-11.16c-.12,.33-.26,.64-.41,.94-.46,.93-.96,1.78-1.48,2.54v10.56c0,.15-.14,.23-.41,.23h-.82c-.22,0-.33-.08-.33-.23v-8.67c-.67,.67-1.42,1.31-2.26,1.93-.14,.05-.26,.08-.37,.08-.15,0-.27-.08-.37-.23-.16-.22-.33-.41-.51-.57-.12-.05-.18-.14-.18-.25,0-.07,.05-.14,.16-.21,.49-.19,.98-.51,1.48-.94,.82-.63,1.55-1.37,2.19-2.21,.64-.81,1.21-1.8,1.7-2.97h-4.55c-.16,0-.25-.11-.25-.33v-.82c0-.16,.08-.25,.25-.25Zm6.4,6.75h4.35v-3.3c0-.15,.11-.23,.33-.23,1.09,0,1.64,.08,1.64,.23,0,.19-.07,.29-.21,.31-.14,.03-.21,.18-.21,.45v2.54h4.18c.16,0,.25,.1,.25,.31v.82c0,.22-.08,.33-.25,.33h-4.18v5.6h5c.16,0,.25,.1,.25,.31v.66c0,.22-.08,.33-.25,.33h-11.57c-.16,0-.25-.11-.25-.33v-.66c0-.21,.08-.31,.25-.31h5v-5.6h-4.35c-.16,0-.25-.11-.25-.33v-.82c0-.21,.08-.31,.25-.31Z"/>
        <path class="cls-1" d="M499.96,82.38c1.04,0,1.56,.08,1.56,.25,0,.19-.07,.29-.21,.31-.14,.03-.21,.17-.21,.43v.68h8.45c.11,0,.16,.08,.16,.23v.66c0,.22-.05,.33-.16,.33h-18.54c-.11,0-.16-.11-.16-.33v-.66c0-.15,.05-.23,.16-.23h8.61v-1.42c0-.16,.11-.25,.33-.25Zm-6.07,15.18l1.15,.86c.11,.11,.16,.21,.16,.31,0,.05-.04,.08-.12,.08-.12,.03-.22,.08-.29,.14-.33,.51-.67,.96-1.03,1.35-.45,.48-1.01,.96-1.68,1.44-.18,0-.29-.05-.35-.16-.27-.22-.52-.41-.74-.57-.1-.04-.14-.1-.14-.16,0-.03,.02-.06,.06-.1,.33-.12,.59-.29,.78-.49,.45-.34,.85-.74,1.19-1.19,.27-.37,.58-.83,.92-1.37,.03-.08,.05-.12,.08-.12Zm-1.07-6.32h14.11c.21,0,.33,.03,.39,.08,.29,.21,.43,.38,.43,.51l-1.23,.62-.02,.02-4.82,2.52c-.11,.05-.25,.09-.41,.1v1.48c0,.98-1.01,1.48-3.04,1.48h-.74c-.07,0-.12-.12-.14-.37-.01-.3-.13-.62-.35-.94,0-.11,.03-.16,.08-.16,.48,.11,.86,.16,1.15,.16,1.04,0,1.56-.25,1.56-.74v-1.89c0-.16,.11-.25,.33-.25l.64,.27,3.3-1.66h-11.24c-.16,0-.25-.11-.25-.33v-.66c0-.16,.08-.25,.25-.25Zm1.56-4.92h11.57c.22,0,.33,.09,.33,.27v3.26c0,.18-.11,.27-.33,.27h-11.57c-.22,0-.33-.09-.33-.27v-3.26c0-.18,.11-.27,.33-.27Zm10.42,2.54v-1.31h-9.27v1.31h9.27Zm-6.97,9.52c.12,0,.21,.03,.25,.08,.51,.78,.97,1.6,1.39,2.46,0,.21-.04,.31-.12,.33-.51,.33-.9,.49-1.19,.49-.42-1.08-.83-1.98-1.23-2.71,0-.14,.3-.36,.9-.66Zm4.51-.25c.14,0,.22,.03,.25,.08,.62,.82,1.17,1.7,1.66,2.62,0,.21-.05,.31-.16,.33-.48,.33-.87,.49-1.17,.49-.52-1.15-1.01-2.1-1.48-2.85,0-.16,.3-.39,.9-.68Zm4.1-.57c.77,.52,1.39,1,1.89,1.46,.57,.56,1.07,1.07,1.48,1.52,0,.01-.03,.07-.1,.16-.41,.59-.62,.88-.64,.88-.63-.7-1.3-1.34-2.01-1.93-.57-.48-1.05-.82-1.44-1.03,0-.08,.22-.39,.66-.92,.07-.1,.12-.14,.16-.14Z"/>
        <path class="cls-1" d="M521.14,89.03c1.8,1.42,3.36,2.89,4.66,4.41l-1.37,1.42c-1.31-1.85-2.76-3.51-4.35-5l1.07-.82Z"/>
        <path class="cls-1" d="M7.55,121.83l1.09,.82c.1,.1,.14,.18,.14,.25s-.03,.11-.1,.12c-.11,.03-.19,.08-.25,.16-.26,.63-.54,1.2-.84,1.72-.36,.59-.81,1.18-1.35,1.76-.15,0-.26-.05-.33-.16-.19-.15-.36-.29-.51-.43-.04,1.04-.11,2.03-.21,2.97,.36,.97,.69,1.74,1,2.3,.36,.72,.98,1.56,1.87,2.5,.1,.05,.14,.12,.14,.21,0,.05-.05,.12-.14,.18-.15,.19-.36,.4-.62,.64-.08,.11-.16,.16-.23,.16s-.16-.04-.27-.12c-.62-.71-1.15-1.51-1.6-2.4-.19-.37-.37-.75-.53-1.15-.23,1.16-.59,2.27-1.09,3.32-.57,1.16-1.27,2.15-2.09,2.97-.42-.21-.77-.36-1.05-.45-.18-.05-.27-.1-.27-.12,.66-.68,1.21-1.4,1.66-2.15,.67-1.11,1.17-2.48,1.5-4.12,.3-1.39,.45-3.49,.45-6.28,0-1.65,.03-3.51,.08-5.56,0-.29,.08-.43,.25-.43l1.48,.18c.27,.03,.41,.14,.41,.33,0,.16-.1,.27-.31,.31-.29,.03-.43,.16-.43,.41v5.68c.14-.12,.25-.26,.35-.41,.37-.41,.68-.88,.94-1.42,.25-.44,.5-.98,.76-1.64,.03-.11,.05-.16,.08-.16Zm-6.07,1.07c.98,.22,1.48,.39,1.48,.51,0,.1-.05,.17-.16,.23-.11,.12-.17,.28-.18,.47-.1,1.54-.22,2.82-.37,3.81-.1,.55-.2,1.11-.31,1.68-.04,.12-.08,.18-.12,.18-.44-.14-.82-.23-1.15-.29-.11-.04-.16-.11-.16-.21,.19-.71,.36-1.5,.49-2.36s.25-2.12,.33-3.77c0-.18,.05-.27,.16-.27Zm8.78-.66l1.25,.51c.21,.1,.31,.2,.31,.31,0,.19-.1,.33-.29,.41-.26,0-.42,.14-.49,.41-.68,2.06-1.37,3.66-2.05,4.8-.15,.25-.27,.37-.35,.37-.11,0-.23-.04-.37-.12-.27-.12-.54-.25-.8-.37-.11-.04-.16-.07-.16-.08,0-.07,.03-.16,.1-.27,.67-1,1.18-1.87,1.52-2.6,.49-.98,.85-1.96,1.07-2.91,.08-.3,.17-.45,.27-.45Zm6.81,6.07c1.2,.42,1.8,.7,1.8,.82,0,.11-.08,.19-.25,.25-.3,0-.51,.09-.64,.27-.59,1.16-1.29,2.21-2.09,3.16-.81,.92-1.66,1.72-2.56,2.4-1.23,.88-2.73,1.67-4.49,2.4-.16,.04-.32,.06-.47,.06s-.27-.08-.37-.23c-.15-.22-.32-.4-.51-.55-.12-.07-.18-.16-.18-.27,0-.05,.08-.1,.23-.14,.66-.16,1.32-.4,1.99-.72,1.11-.46,2.1-1.03,2.97-1.68,1.12-.78,2.08-1.8,2.89-3.06,.56-.77,1-1.61,1.31-2.52,.04-.12,.16-.18,.37-.18Zm-4.1-9.93l1.64,.23c.16,.07,.25,.13,.25,.18,0,.14-.08,.21-.25,.21-.27,.11-.41,.43-.41,.96v9.68c0,.97-.74,1.46-2.21,1.46h-1.31c-.11,0-.16-.12-.16-.35-.05-.26-.19-.58-.41-.96,0-.1,.05-.14,.16-.14,.57,.1,1.09,.14,1.56,.14,.6,0,.9-.25,.9-.74v-9.17c0-.41-.03-.72-.08-.94-.05-.15-.08-.28-.08-.39s.14-.16,.41-.16Zm2.87,3.69c.88,.77,1.6,1.48,2.17,2.15,.66,.81,1.22,1.54,1.68,2.19,0,.03-.03,.09-.1,.18-.41,.59-.62,.88-.64,.88-.72-1.04-1.48-1.99-2.28-2.85-.66-.7-1.21-1.2-1.66-1.5,0-.07,.22-.38,.66-.92,.07-.1,.12-.14,.16-.14Z"/>
        <path class="cls-1" d="M24.38,122.4h7.55v-3.53c0-.16,.11-.25,.33-.25,1.09,0,1.64,.08,1.64,.25,0,.19-.07,.3-.21,.33-.14,.01-.21,.15-.21,.41v2.79h7.05c.27,0,.41,.09,.41,.27v9.52c0,.15-.14,.23-.41,.23h-.82c-.22,0-.33-.08-.33-.23v-1.58h-5.91v6.83c0,.15-.14,.23-.41,.23h-.82c-.22,0-.33-.08-.33-.23v-6.83h-6.32v1.5c0,.15-.14,.23-.41,.23h-.82c-.22,0-.33-.08-.33-.23v-9.37c0-.22,.11-.33,.33-.33Zm1.23,6.73h6.32v-5.25h-6.32v5.25Zm7.88-5.25v5.25h5.91v-5.25h-5.91Z"/>
        <path class="cls-1" d="M45.91,122.67h9.43c-.07-1.15-.1-2.35-.1-3.61,0-.29,.08-.43,.25-.43l1.39,.08c.22,.01,.33,.1,.33,.27,0,.21-.08,.31-.23,.31-.18,.08-.27,.25-.27,.49,0,1,.03,1.96,.08,2.89h7.38c.16,0,.25,.1,.25,.31v.66c0,.22-.08,.33-.25,.33h-7.3c.04,.52,.1,1.03,.16,1.52,.22,1.72,.59,3.28,1.11,4.68,.46,1.34,1.01,2.45,1.64,3.34,.52,.83,1.03,1.46,1.52,1.87,.33,.18,.55,.27,.66,.27,.12,0,.25-.11,.39-.33,.19-.25,.54-1.09,1.05-2.52,.07-.25,.14-.37,.21-.37,.1,0,.16,.05,.18,.14,.15,.25,.35,.47,.59,.68,.08,.14,.12,.27,.12,.41-.56,1.45-1.05,2.5-1.46,3.16-.34,.48-.68,.72-1,.72-.46,0-1.12-.39-1.97-1.17-.7-.67-1.41-1.63-2.13-2.89-.6-1.05-1.16-2.5-1.66-4.33-.41-1.59-.69-3.27-.84-5.04,0-.04,0-.08-.02-.12h-9.52c-.18,0-.27-.11-.27-.33v-.66c0-.21,.09-.31,.27-.31Zm.64,4.49h7.71c.16,0,.25,.11,.25,.33v.66c0,.22-.08,.33-.25,.33h-3.04v5.62c1.22-.29,2.38-.58,3.49-.88,.04-.03,.08-.04,.12-.04,.11,0,.16,.05,.16,.14,0,.7-.03,1.08-.08,1.15-2.5,.67-5.04,1.27-7.63,1.8-.19,.38-.36,.57-.49,.57s-.41-.57-.82-1.72c1.05-.14,2.31-.37,3.77-.7v-5.95h-3.2c-.16,0-.25-.11-.25-.33v-.66c0-.22,.08-.33,.25-.33Zm13.29-8.18c.83,.4,1.51,.77,2.03,1.11,.62,.44,1.14,.83,1.58,1.17,0,.03-.04,.09-.12,.18-.44,.64-.67,.96-.7,.96-.67-.57-1.37-1.09-2.11-1.56-.6-.38-1.09-.65-1.48-.8,0-.08,.21-.39,.62-.92,.07-.1,.13-.14,.18-.14Z"/>
        <path class="cls-1" d="M72.81,118.24c1.15,.6,1.72,.95,1.72,1.05,0,.12-.05,.18-.16,.18-.25,.03-.41,.1-.49,.23-.52,1.38-1.04,2.55-1.56,3.51v14.15c0,.15-.11,.23-.33,.23h-.82c-.22,0-.33-.08-.33-.23v-11.85c-.49,.64-1.18,1.47-2.05,2.48-.15,0-.29-.06-.43-.18-.21-.18-.42-.36-.64-.53-.11-.07-.16-.15-.16-.25,.62-.68,1.22-1.41,1.83-2.17,.79-.98,1.48-2.08,2.07-3.3,.52-1.07,.92-2.12,1.19-3.16,.03-.1,.08-.14,.16-.14Zm2.3,12.69h4.51v-2.28c0-.18,.11-.27,.33-.27,1.04,0,1.56,.09,1.56,.27s-.07,.28-.21,.31c-.14,.01-.21,.15-.21,.41v1.56h4.68c.16,0,.25,.12,.25,.35v.64c0,.23-.08,.35-.25,.35h-4.68v3.36h5.58c.16,0,.25,.1,.25,.31v.68c0,.21-.08,.31-.25,.31h-12.8c-.16,0-.25-.1-.25-.31v-.68c0-.21,.08-.31,.25-.31h5.74v-3.36h-4.51c-.16,0-.25-.12-.25-.35v-.64c0-.23,.08-.35,.25-.35Zm.16-9.6h4.43v-2.46c0-.16,.11-.25,.33-.25,1.05,0,1.58,.08,1.58,.25,0,.19-.08,.3-.23,.33-.14,.01-.21,.15-.21,.41v1.72h4.51c.16,0,.25,.12,.25,.35v.64c0,.23-.08,.35-.25,.35h-4.51v3.01h5.41c.18,0,.27,.12,.27,.35v.64c0,.23-.09,.35-.27,.35h-12.47c-.16,0-.25-.12-.25-.35v-.64c0-.23,.08-.35,.25-.35h5.58v-3.01h-4.43c-.16,0-.25-.12-.25-.35v-.64c0-.23,.08-.35,.25-.35Z"/>
        <path class="cls-1" d="M95.14,118.47l1.37,.68c.12,.08,.18,.16,.18,.23,0,.16-.11,.25-.33,.25-.15,0-.27,.03-.35,.1,.57,.7,1.06,1.2,1.46,1.5,.6,.52,1.33,1,2.17,1.46,0,.14-.04,.23-.12,.29-.19,.16-.45,.39-.78,.68-.04,0-.1-.01-.16-.04-.51-.26-.99-.58-1.46-.96-.52-.48-1.12-1.11-1.8-1.89-.22,.31-.43,.6-.64,.86-.19,.26-.41,.53-.66,.8h2.75c.16,0,.25,.11,.25,.33v.68c0,.21-.08,.31-.25,.31h-3.04c-.16,0-.25-.1-.25-.31v-.45c-.37,.38-.75,.72-1.13,1.03-.41,.34-.75,.58-1,.72-.11,0-.21-.05-.29-.16-.16-.27-.36-.51-.57-.7-.14-.08-.21-.15-.21-.21,0-.03,.03-.05,.08-.08,.57-.3,1.05-.59,1.42-.88,.53-.41,1.07-.92,1.6-1.54,.36-.41,.64-.8,.86-1.17,.26-.4,.49-.84,.7-1.33,.07-.11,.13-.16,.18-.16Zm-1.8,12.9v4.2c.26-.07,.53-.15,.8-.25,1.05-.34,2.04-.71,2.97-1.11-.31-.52-.67-1.04-1.07-1.56,0-.08,.36-.3,1.07-.66,.67,.94,1.21,1.81,1.62,2.6,.4,.74,.73,1.51,1,2.32,0,.05-.41,.2-1.23,.43-.11-.55-.37-1.21-.78-1.99,0-.03,0-.05-.02-.06-1.85,.74-3.71,1.42-5.6,2.05-.21,.37-.37,.55-.49,.55-.11,0-.36-.55-.74-1.64,.33-.07,.68-.16,1.07-.27v-11.05c0-.16,.08-.25,.25-.25h6.07c.22,0,.33,.08,.33,.25v6.07c0,.23-.11,.35-.33,.35h-4.92Zm0-5.43v1.48h3.86v-1.48h-3.86Zm0,2.73v1.46h3.86v-1.46h-3.86Zm6.32-3.06h3.28c.12-.45,.19-.93,.21-1.44,0-.08,.04-.12,.12-.12,1.09,.23,1.64,.37,1.64,.41,0,.22-.05,.33-.16,.33-.23,.03-.35,.14-.35,.33-.03,.16-.06,.33-.1,.49h5.29c.11,0,.16,.08,.16,.25v.66c0,.23-.05,.35-.16,.35h-5.62c-.08,.26-.16,.51-.25,.76-.08,.23-.17,.46-.27,.7h5.39c.22,0,.33,.08,.33,.25v7.08c0,.68-.09,1.11-.27,1.29-.03,.31-.72,.62-2.09,.9-.26,0-.39-.09-.39-.27-.04-.26-.14-.64-.29-1.13,1.08-.07,1.63-.33,1.64-.8v-.82h-4.51v2.54c0,.15-.11,.23-.33,.23h-.82c-.16,0-.25-.08-.25-.23v-6.4c-.49,.66-1.03,1.22-1.6,1.68-.16,.12-.29,.18-.37,.18-.18,0-.31-.05-.39-.14-.25-.18-.48-.33-.7-.45-.1-.04-.14-.12-.14-.23,0-.04,.03-.08,.1-.12,.6-.34,1.09-.71,1.48-1.11,.62-.67,1.16-1.44,1.62-2.32,.26-.48,.49-1.01,.7-1.6h-2.91c-.11,0-.16-.12-.16-.35v-.66c0-.16,.05-.25,.16-.25Zm8.2-6.97c.82,.56,1.23,.89,1.23,.98,0,.11-.08,.16-.25,.16-.19,0-.38,.11-.55,.33-.42,.37-.98,.85-1.68,1.46,.3,.21,.59,.41,.86,.62,.74,.51,1.37,1.03,1.89,1.56,.05,.04,.08,.09,.08,.14,0,.08-.31,.33-.92,.74-.08,0-.16-.02-.25-.06-.85-.83-1.76-1.55-2.73-2.15-.66,.48-1.34,.92-2.05,1.31-.62,.36-1.46,.74-2.52,1.15-.16,0-.29-.06-.37-.18-.19-.21-.36-.41-.51-.62-.12-.05-.18-.12-.18-.18,0-.05,.04-.1,.12-.12,1.27-.41,2.3-.85,3.1-1.31,.45-.23,.87-.48,1.25-.74-.26-.15-.52-.29-.78-.41-.89-.42-1.83-.83-2.83-1.23-.08-.05-.12-.09-.12-.1,0-.05,.23-.33,.68-.82,.08-.05,.18-.08,.31-.08,.81,.29,1.66,.66,2.56,1.13,.44,.22,.87,.45,1.29,.7,.05-.04,.1-.08,.14-.1,.7-.6,1.31-1.25,1.85-1.95,.12-.14,.25-.21,.39-.21Zm-4.59,12.3h4.51v-1.37h-4.51v1.37Zm0,2.62h4.51v-1.37h-4.51v1.37Z"/>
        <path class="cls-1" d="M113.7,120.27h5.5c.22,0,.33,.08,.33,.25v13.21c0,.18-.11,.27-.33,.27h-.82c-.22,0-.33-.09-.33-.27v-1.15h-3.2v2.24c0,.15-.11,.23-.33,.23h-.82c-.22,0-.33-.08-.33-.23v-14.21c0-.22,.11-.33,.33-.33Zm1.15,5.41h3.2v-4.08h-3.2v4.08Zm0,5.6h3.2v-4.27h-3.2v4.27Zm6.73-10.27h4.02v-2.13c0-.16,.11-.25,.33-.25,1.04,0,1.56,.08,1.56,.25,0,.19-.07,.3-.21,.33-.14,.01-.21,.15-.21,.41v1.39h4.18c.16,0,.25,.11,.25,.33v.66c0,.22-.08,.33-.25,.33h-4.18v2.89h5c.16,0,.25,.1,.25,.31v.66c0,.22-.08,.33-.25,.33h-2.3v2.46h1.97c.18,0,.27,.11,.27,.33v.66c0,.22-.09,.33-.27,.33h-1.97v5.74c0,1.04-.85,1.56-2.54,1.56h-2.13c-.1,0-.14-.13-.14-.39-.03-.3-.14-.66-.35-1.09v-.08c.89,.11,1.74,.16,2.54,.16s1.15-.25,1.15-.74v-5.17h-6.73c-.16,0-.25-.11-.25-.33v-.66c0-.22,.08-.33,.25-.33h6.73v-2.46h-7.46c-.16,0-.25-.11-.25-.33v-.66c0-.21,.08-.31,.25-.31h4.76v-2.89h-4.02c-.16,0-.25-.11-.25-.33v-.66c0-.22,.08-.33,.25-.33Zm1.8,10.66c.71,.36,1.3,.68,1.76,.96,.53,.38,.98,.72,1.35,1,0,.01-.03,.07-.1,.16-.41,.62-.62,.92-.64,.92-.59-.48-1.21-.92-1.87-1.31-.53-.31-.98-.54-1.33-.68,0-.07,.21-.38,.64-.92,.08-.1,.14-.14,.18-.14Z"/>
        <path class="cls-1" d="M147.02,125.44v2.3c0,1.04-.22,1.94-.66,2.71-.45,.77-.98,1.26-1.58,1.48l-.82-.82c.38-.15,.73-.44,1.05-.88,.33-.41,.51-.94,.53-1.58h-1.66v-3.2h3.14Z"/>
        <path class="cls-1" d="M175.17,121.83c.12,0,.21,.03,.27,.1l.29,.27c.07,.07,.1,.23,.1,.47-.16,2.94-.38,5.09-.64,6.46-.23,1.33-.57,2.14-1,2.44-.27,.23-.74,.35-1.39,.35h-.98c-.45,0-.69-.12-.72-.35-.11-.41-.23-.81-.35-1.19,0-.18,.03-.27,.08-.27,.38,.11,.82,.16,1.31,.16h.57c.4,0,.68-.46,.84-1.39,.31-1.39,.49-3.12,.53-5.19l-4.9,1.42v7.08c0,.15-.14,.23-.41,.23h-.82c-.22,0-.33-.08-.33-.23v-6.62l-4.18,1.19v7.63c0,.66,.41,.98,1.23,.98h8.78c1.15,0,1.85-.15,2.09-.45,.27-.27,.62-1.27,1.03-2.99,.21,.33,.54,.63,1,.9,.21,.08,.31,.2,.31,.35-.57,1.89-1.01,2.93-1.31,3.12-.31,.42-.97,.64-1.97,.64h-10.09c-1.8,0-2.71-.55-2.71-1.64v-8.06l-2.95,.84c-.12,0-.21-.06-.27-.18l-.31-.86c0-.14,.04-.23,.12-.29l3.4-1v-5.37c0-.16,.03-.25,.08-.25l1.54,.18c.18,.03,.27,.08,.27,.14,0,.16-.03,.27-.1,.31-.1,.01-.14,.1-.14,.27v4.27l4.18-1.25v-5.04c0-.18,.11-.27,.33-.27,1.09,0,1.64,.09,1.64,.27s-.07,.28-.21,.31c-.14,.01-.21,.15-.21,.41v3.9l5.99-1.76Z"/>
        <path class="cls-1" d="M184.87,118.38c1.31,.42,1.97,.7,1.97,.82,0,.15-.1,.23-.29,.23s-.29,.06-.29,.18c-.4,.74-.91,1.56-1.54,2.46-.19,.31-.39,.61-.59,.88,1.59-.15,3.19-.35,4.8-.59-.22-.62-.48-1.23-.78-1.85,0-.08,.36-.29,1.09-.64,.44,.96,.8,1.84,1.09,2.65,.27,.72,.51,1.5,.7,2.34,0,.05-.44,.2-1.31,.43-.05-.45-.17-.98-.35-1.6-2.06,.33-4.34,.63-6.83,.9-.11,0-.21,.06-.29,.18-.05,.23-.16,.35-.33,.35s-.52-.64-1.07-1.91l1.64-.12c.6-.96,1.16-1.96,1.66-2.99,.25-.56,.44-1.11,.57-1.64,.01-.05,.06-.08,.14-.08Zm-2.3,7.46h7.05c.27,0,.41,.11,.41,.33v9.99c0,.42-.28,.75-.84,.98-.51,.18-1.18,.3-2.03,.37-.15,0-.24-.09-.27-.27-.01-.29-.17-.72-.47-1.31,0-.04,.06-.06,.18-.06,.93,0,1.48-.05,1.64-.14,.21-.08,.31-.23,.31-.45v-1.37h-4.84v3.45c0,.15-.11,.23-.33,.23h-.82c-.22,0-.33-.08-.33-.23v-11.18c0-.22,.11-.33,.33-.33Zm1.15,3.36h4.84v-2.05h-4.84v2.05Zm0,3.36h4.84v-2.03h-4.84v2.03Zm15.42-11.32s-.05,.01-.08,.04c-.44,.3-.93,.58-1.48,.84-.64,.31-1.34,.59-2.09,.82-.51,.16-1.15,.33-1.93,.51v1.48c0,.6,.38,.9,1.15,.9h2.21c.79,0,1.26-.1,1.42-.29,.19-.15,.43-.74,.72-1.76,.18,.29,.47,.55,.88,.78,.18,.07,.27,.16,.27,.29-.4,1.19-.7,1.85-.9,1.99-.19,.26-.63,.39-1.31,.39h-3.45c-1.64,0-2.46-.49-2.46-1.48v-7.05c0-.16,.05-.25,.16-.25l1.39,.18c.16,.03,.25,.08,.25,.14,0,.15-.04,.24-.12,.27-.14,.01-.21,.09-.21,.23v2.85c.64-.15,1.23-.31,1.76-.49,.71-.25,1.37-.55,1.99-.92,.46-.27,.88-.58,1.23-.92,.04-.01,.08-.02,.1-.02,.07,0,.15,.07,.25,.21,.6,.74,.9,1.13,.9,1.19,0,.11-.05,.16-.16,.16l-.49-.08Zm.25,9.84s-.08,0-.1,.02c-.45,.3-.96,.57-1.52,.82-.67,.31-1.39,.58-2.17,.8-.53,.16-1.21,.33-2.03,.49v1.8c0,.6,.38,.9,1.15,.9h2.21c.79,0,1.26-.1,1.42-.29,.19-.18,.43-.82,.72-1.93,.18,.29,.47,.55,.88,.78,.18,.07,.27,.17,.27,.31-.4,1.26-.7,1.96-.9,2.08-.19,.3-.63,.44-1.31,.44h-3.45c-1.64,0-2.46-.49-2.46-1.48v-7.46c0-.16,.05-.25,.16-.25l1.39,.18c.16,.01,.25,.06,.25,.14,0,.15-.04,.24-.12,.27-.14,.01-.21,.09-.21,.23v2.93c.68-.15,1.31-.31,1.89-.47,.72-.25,1.41-.54,2.05-.88,.48-.27,.91-.57,1.29-.9h.1c.08,0,.16,.06,.23,.18,.62,.74,.92,1.13,.92,1.19,0,.11-.05,.16-.16,.16l-.49-.08Z"/>
        <path class="cls-1" d="M204.32,119.96h4.51c.23,0,.35,.08,.35,.23v14.93c0,.16-.11,.25-.34,.25h-.81c-.16,0-.24-.08-.24-.25v-.57h-2.32v1.39c0,.16-.11,.25-.33,.25h-.82c-.16,0-.25-.08-.25-.25v-15.75c0-.15,.08-.23,.25-.23Zm1.15,4.43h2.32v-3.22h-2.32v3.22Zm0,4.35h2.32v-3.14h-2.32v3.14Zm0,4.57h2.32v-3.36h-2.32v3.36Zm7.55-7.63l1.27,.45c.14,.08,.21,.15,.21,.21,0,.12-.08,.21-.25,.25-.16,0-.27,.09-.31,.27-.11,.38-.22,.74-.33,1.07h1.78c.12,0,.23,.03,.31,.1,.23,.27,.35,.45,.35,.53-.25,1.26-.47,2.21-.68,2.87-.26,.86-.52,1.57-.78,2.11-.27,.56-.61,1.1-1,1.62-.46,.59-.97,1.08-1.52,1.48-.37,.29-.85,.55-1.44,.8-.15,0-.26-.06-.33-.18-.12-.21-.26-.41-.41-.62-.05-.08-.08-.15-.08-.21,0-.07,.02-.12,.06-.14,.37-.12,.72-.28,1.07-.47,.66-.38,1.19-.85,1.6-1.42,.25-.3,.47-.62,.68-.96-.31-.38-.66-.73-1.03-1.05-.16-.16-.32-.31-.47-.43-.31,.46-.65,.89-1,1.27-.15,0-.28-.01-.39-.04-.25-.1-.49-.18-.72-.27-.08-.04-.12-.08-.12-.1,0-.07,.03-.12,.08-.16,.66-.67,1.24-1.49,1.76-2.46,.31-.56,.58-1.16,.8-1.78,.25-.67,.49-1.52,.74-2.56,.04-.11,.09-.16,.14-.16Zm-2.95-2.05h12.14c.22,0,.33,.08,.33,.25v3.28c0,.16-.11,.25-.33,.25h-.82c-.16,0-.25-.08-.25-.25v-2.3h-9.93v2.21c0,.16-.11,.25-.33,.25h-.82c-.16,0-.25-.08-.25-.25v-3.2c0-.16,.08-.25,.25-.25Zm11.16-3.53c-1.24,.27-2.88,.49-4.9,.66-.19,.01-.38,.03-.55,.04,.51,.38,1.01,.85,1.52,1.42,.05,.04,.08,.1,.08,.18,0,.1-.02,.16-.06,.21l-.43,.57c-.12,.08-.23,.12-.33,.12-.04,0-.09-.05-.14-.14-.52-.56-1.03-1.02-1.52-1.37-.1-.05-.14-.12-.14-.18,0-.08,.02-.16,.06-.25l.35-.51c-.92,.05-1.85,.08-2.79,.08,.44,.4,.88,.88,1.31,1.44,.05,.05,.08,.13,.08,.23,0,.07-.02,.13-.06,.18l-.41,.59c-.12,.08-.24,.12-.35,.12-.03,0-.08-.06-.14-.18-.52-.64-1.03-1.17-1.52-1.58-.1-.05-.14-.13-.14-.23,0-.07,.02-.14,.06-.21l.29-.43c-.07-.04-.11-.11-.12-.21-.15-.33-.31-.59-.47-.78,0-.18,.05-.27,.16-.27,2.41,0,4.13-.05,5.17-.14,1.63-.08,3.04-.29,4.25-.64,.14-.03,.28-.04,.43-.04,.07,0,.16,.05,.27,.14,.53,.56,.8,.88,.8,.94,0,.21-.05,.31-.16,.31l-.57-.08Zm-8.9,10.87c.37,.3,.68,.58,.92,.84,.18,.22,.36,.42,.53,.59,.22-.53,.4-1.12,.55-1.76,.14-.4,.26-.9,.37-1.52h-1.52c-.08,.21-.16,.4-.25,.57-.21,.45-.41,.88-.62,1.27Zm7.92-1.19v3.94h1.89c.12,0,.18,.09,.18,.27v.64c0,.22-.06,.33-.18,.33h-1.89v2.4c0,.15-.11,.23-.33,.23h-.82c-.16,0-.25-.08-.25-.23v-2.4h-3.36c-.11,0-.16-.11-.16-.33v-.64c0-.18,.05-.27,.16-.27h.9v-4.92c0-.16,.11-.25,.33-.25h2.13v-2.71c0-.11,.08-.16,.25-.16,.98,0,1.48,.08,1.48,.25,0,.18-.05,.27-.16,.29s-.16,.14-.16,.37v1.97h1.56c.11,0,.16,.08,.16,.25v.68c0,.21-.05,.31-.16,.31h-1.56Zm-2.54,0v3.94h1.15v-3.94h-1.15Zm2.46-9.43l1.29,.8c.18,.1,.27,.21,.27,.35,0,.07-.08,.1-.25,.1-.14,.01-.71,.64-1.72,1.89l-1.23-.51c.62-.81,1.16-1.68,1.64-2.62Z"/>
        <path class="cls-1" d="M227.47,119.21h6.91c.21,0,.31,.08,.31,.25v6.58c0,.21-.1,.31-.31,.31h-5.76v11.01c0,.15-.11,.23-.33,.23h-.82c-.22,0-.33-.08-.33-.23v-17.9c0-.16,.11-.25,.33-.25Zm1.15,2.95h4.59v-1.72h-4.59v1.72Zm0,2.97h4.59v-1.72h-4.59v1.72Zm3.2,2.52h7.38c.22,0,.33,.09,.33,.27v7.61c0,.18-.11,.27-.33,.27h-.82c-.16,0-.25-.09-.25-.27v-.49h-5.17v.59c0,.15-.11,.23-.33,.23h-.82c-.16,0-.25-.08-.25-.23v-7.71c0-.18,.08-.27,.25-.27Zm1.15,3.04h5.17v-1.8h-5.17v1.8Zm0,3.12h5.17v-1.89h-5.17v1.89Zm3.86-14.6h6.89c.27,0,.41,.08,.41,.25v16.08c0,.67-.31,1.19-.92,1.56-.57,.3-1.33,.49-2.28,.57-.15,0-.23-.08-.25-.23-.03-.3-.19-.75-.49-1.33,0-.08,.06-.12,.18-.12,1.09,0,1.74-.08,1.93-.23,.23-.18,.35-.44,.35-.8v-8.61h-5.82c-.22,0-.33-.1-.33-.31v-6.58c0-.16,.11-.25,.33-.25Zm1.15,2.95h4.68v-1.72h-4.68v1.72Zm0,2.97h4.68v-1.72h-4.68v1.72Z"/>
        <path class="cls-1" d="M256.69,118.55l1.64,.62c.16,.11,.25,.21,.25,.29,0,.16-.08,.27-.25,.33-.38,0-.62,.23-.7,.68-.19,.77-.38,1.48-.55,2.13h6.01c.27,0,.41,.08,.41,.23l-.68,3.53h2.56c.27,0,.41,.08,.41,.25l-.68,3.45h2.15c.27,0,.41,.14,.41,.43-.31,1.97-.64,3.65-.96,5.04-.23,.97-.49,1.57-.76,1.8-.34,.29-1,.43-1.97,.43-.89,0-1.35-.13-1.37-.39-.05-.29-.17-.62-.35-1,0-.11,.05-.16,.16-.16,.7,.11,1.27,.16,1.72,.16,.37,0,.66-.12,.86-.37,.15-.15,.54-1.69,1.17-4.61h-12.3c-.26,.59-.54,1.17-.84,1.74-.82,1.44-1.71,2.73-2.67,3.9-.19,0-.36-.03-.51-.08-.29-.12-.59-.23-.9-.33-.1-.05-.14-.11-.14-.16,0-.19,.06-.33,.18-.41,1.48-1.68,2.79-3.73,3.94-6.15,.7-1.39,1.29-2.88,1.78-4.47,.16-.46,.31-.97,.45-1.52h-5.7c-.16,0-.25-.11-.25-.33v-.66c0-.21,.08-.31,.25-.31h6.07c.27-1.09,.55-2.3,.82-3.61,.1-.29,.21-.43,.33-.43Zm-4.68,.16c.12,0,.21,.03,.25,.08,.6,.78,1.15,1.6,1.64,2.46,0,.21-.04,.32-.12,.35-.51,.31-.9,.47-1.19,.47-.51-1.08-1-1.98-1.48-2.71,0-.14,.3-.36,.9-.66Zm2.21,14.29l.86,.14c.19,0,.29,.08,.29,.25-.25,1.52-.54,2.75-.88,3.71-.05,.1-.09,.14-.1,.14-.23,0-.4-.03-.51-.08-.22-.11-.49-.22-.8-.33-.11-.05-.16-.13-.16-.23,.53-1.13,.89-2.25,1.07-3.34,.03-.18,.11-.27,.25-.27Zm.25-2.97h9.11l.66-2.38h-8.78c-.03,.08-.05,.15-.08,.21-.3,.74-.6,1.46-.9,2.17Zm1.44-3.69h5.37l.66-2.46h-5.25c-.26,.93-.52,1.75-.78,2.46Zm1.6,6.75s.07,.05,.08,.14c.25,.68,.52,1.78,.82,3.3,0,.14-.41,.27-1.23,.39-.1,0-.14-.04-.14-.12-.14-1.05-.33-2.16-.59-3.32,0-.12,.36-.25,1.07-.39Zm2.46-.27c.08,0,.14,.03,.16,.08,.4,.78,.75,1.6,1.07,2.46,0,.21-.04,.32-.12,.35-.48,.31-.85,.47-1.11,.47-.33-1.09-.63-2-.9-2.71,0-.14,.3-.36,.9-.66Zm2.54-.41c.08,0,.14,.03,.16,.08,.57,.59,1.09,1.22,1.56,1.89,0,.21-.04,.32-.12,.35-.46,.31-.83,.47-1.11,.47-.48-.85-.94-1.55-1.39-2.11,0-.16,.3-.39,.9-.68Z"/>
        <path class="cls-1" d="M276.48,118.63c1.09,.56,1.64,.89,1.64,.98,0,.12-.05,.18-.14,.18-.22,.01-.36,.1-.43,.25-.59,1.04-1.16,1.92-1.72,2.65v7.51c0,.18-.11,.27-.33,.27h-.82c-.22,0-.33-.09-.33-.27v-5.97c-.51,.46-1.22,1.07-2.13,1.8-.14,0-.27-.07-.39-.21-.21-.15-.41-.31-.62-.47-.1-.07-.14-.14-.14-.23,.64-.51,1.28-1.03,1.91-1.58,.83-.74,1.55-1.55,2.15-2.44,.55-.78,.97-1.55,1.27-2.32,.01-.11,.04-.16,.08-.16Zm-2.54,13.12l1.25,.53c.21,.08,.31,.18,.31,.29,0,.14-.08,.24-.23,.31-.21,0-.33,.11-.39,.33-.55,1.61-1.09,2.86-1.64,3.75-.12,.19-.22,.29-.29,.29-.1,0-.22-.05-.37-.14-.3-.15-.58-.28-.84-.39-.12-.05-.18-.09-.18-.1,0-.05,.03-.13,.1-.23,.52-.77,.92-1.44,1.19-2.03,.41-.75,.7-1.5,.88-2.26,.07-.23,.14-.35,.21-.35Zm6.73-13.12l1.25,.53c.21,.08,.31,.18,.31,.29,0,.16-.11,.28-.33,.35-.29,0-.47,.13-.55,.39-.14,.31-.27,.62-.41,.9h8.26c.21,0,.33,.03,.39,.08,.3,.21,.45,.38,.45,.51l-1.39,2.77c-.03,.05-.06,.08-.1,.08-.75-.23-1.13-.42-1.13-.57l.82-1.64h-3.45v6.64c0,1.05-.85,1.58-2.56,1.58h-.66c-.1,0-.14-.14-.14-.41-.01-.3-.13-.66-.35-1.09v-.08c.37,.11,.73,.16,1.09,.16,.75,0,1.13-.25,1.13-.74v-6.07h-2.95c-.45,.88-.91,1.61-1.37,2.21-.18,.22-.32,.33-.43,.33-.1,0-.21-.04-.35-.12-.29-.12-.55-.24-.8-.35-.11-.04-.16-.07-.16-.08,0-.08,.04-.17,.12-.27,.78-.89,1.37-1.67,1.76-2.36,.57-.89,.99-1.77,1.25-2.65,.1-.27,.2-.41,.31-.41Zm-3.2,12.55l1.39,.18c.16,.03,.25,.08,.25,.14,0,.14-.05,.22-.14,.25-.12,.03-.18,.11-.18,.25v2.95c0,.6,.38,.9,1.15,.9h3.28c1,0,1.6-.1,1.8-.29,.25-.14,.55-.69,.9-1.66,.18,.27,.46,.53,.86,.76,.19,.08,.29,.18,.29,.29-.49,1.16-.87,1.8-1.13,1.91-.26,.26-.81,.39-1.66,.39h-4.51c-1.64,0-2.46-.49-2.46-1.46v-4.37c0-.16,.05-.25,.16-.25Zm2.87-6.56l1.25,.53c.21,.08,.31,.18,.31,.29,0,.12-.1,.21-.29,.27-.25,0-.4,.1-.47,.29-.67,1.35-1.33,2.4-1.99,3.14-.15,.16-.27,.25-.37,.25-.08,0-.2-.04-.35-.12-.27-.14-.54-.25-.8-.35-.11-.04-.16-.08-.16-.1,0-.04,.03-.1,.1-.16,.66-.68,1.15-1.27,1.48-1.76,.48-.66,.83-1.31,1.05-1.97,.07-.19,.15-.29,.25-.29Zm1.07,6.89c.14,0,.22,.03,.25,.08,.85,.67,1.61,1.38,2.3,2.13,0,.21-.05,.31-.14,.33-.48,.33-.87,.49-1.17,.49-.74-.94-1.45-1.73-2.13-2.36,0-.16,.3-.39,.9-.68Zm5.41-6.81c.12,0,.21,.03,.25,.08,1.07,1.18,2.02,2.43,2.87,3.77,0,.21-.05,.31-.14,.33-.49,.33-.88,.49-1.17,.49-.96-1.6-1.86-2.94-2.71-4.02,0-.14,.3-.36,.9-.66Zm.59,6.81c.12,0,.2,.03,.23,.08,1.01,1.13,1.91,2.34,2.71,3.61,0,.21-.04,.31-.12,.33-.51,.33-.9,.49-1.19,.49-.89-1.54-1.74-2.82-2.54-3.83,0-.16,.31-.39,.92-.68Z"/>
        <path class="cls-1" d="M294.38,120.44h5.17c.22,0,.33,.08,.33,.25v11.73c0,.16-.11,.25-.33,.25h-.82c-.22,0-.33-.08-.33-.25v-.9h-2.87v2.71c0,.16-.11,.25-.33,.25h-.82c-.22,0-.33-.08-.33-.25v-13.43c0-.23,.11-.35,.33-.35Zm1.15,9.76h2.87v-8.43h-2.87v8.43Zm7.46-9.27h-1.89c-.16,0-.25-.11-.25-.33v-.64c0-.23,.08-.35,.25-.35h9.19c.21,0,.33,.03,.39,.1,.29,.25,.43,.43,.43,.55l-1.91,5.76h2.73c.14,0,.25,.04,.33,.12,.27,.36,.41,.59,.41,.7-.41,1.48-.79,2.61-1.15,3.4-.42,1.03-.87,1.87-1.33,2.52-.37,.55-.82,1.08-1.35,1.6,.31,.21,.64,.41,.98,.62,.78,.45,1.77,.85,2.97,1.21,.14,.04,.21,.09,.21,.14,0,.1-.03,.18-.1,.25-.25,.21-.49,.44-.74,.72-.1,.14-.17,.21-.23,.21-.04,0-.17-.07-.39-.21-.57-.21-1.21-.47-1.91-.8-.67-.36-1.3-.75-1.89-1.19-.56,.44-1.17,.82-1.83,1.15-.62,.36-1.43,.68-2.44,.96-.18,0-.31-.07-.39-.21-.16-.22-.32-.44-.47-.68-.08-.08-.12-.15-.12-.21,0-.08,.05-.14,.14-.16,.62-.15,1.22-.36,1.83-.62,.85-.33,1.59-.72,2.21-1.19-.48-.46-.88-.91-1.19-1.33-.6-.78-1.04-1.58-1.31-2.4-.16-.36-.32-.75-.47-1.17-.25,1.22-.55,2.28-.92,3.18-.45,1.07-1.01,1.97-1.68,2.71-.59,.75-1.35,1.44-2.3,2.07-.37-.4-.7-.76-.98-1.09,.48-.25,1.05-.74,1.72-1.48,.74-.83,1.34-1.74,1.8-2.73,.56-1.41,.96-2.97,1.19-4.7,.23-1.45,.38-3.62,.45-6.52Zm1.23,5.11h3.53l1.76-5.11h-5.07c-.04,2.06-.12,3.77-.23,5.11Zm.29,1.29c.16,.72,.35,1.36,.55,1.91,.3,.92,.7,1.75,1.19,2.5,.44,.66,.93,1.23,1.48,1.72,.55-.52,1.03-1.07,1.46-1.66,.48-.72,.88-1.55,1.21-2.48,.21-.51,.42-1.17,.66-1.99h-6.54Z"/>
        <path class="cls-1" d="M318.76,122.16h6.32v-3.28c0-.16,.11-.25,.33-.25,1.04,0,1.56,.08,1.56,.25,0,.19-.07,.3-.21,.33-.14,.01-.21,.15-.21,.41v2.54h6.56c.16,0,.25,.12,.25,.35v.64c0,.23-.08,.35-.25,.35h-6.56v4h8.29c.16,0,.25,.09,.25,.27v.8c0,.22-.08,.33-.25,.33h-9s-.02,.05-.02,.08c-.7,1.24-1.61,2.66-2.73,4.25-.53,.77-1.09,1.48-1.66,2.13,3.21-.38,6.43-.9,9.64-1.56-.67-.96-1.33-1.83-1.97-2.6,0-.15,.3-.36,.9-.64,.14,0,.22,.02,.25,.06,1.67,1.9,3.17,3.92,4.51,6.07,0,.21-.04,.31-.12,.33-.51,.34-.9,.51-1.19,.51-.51-.86-1-1.67-1.5-2.42-3.83,.72-8.08,1.39-12.76,1.99-.21,0-.38,.14-.51,.43-.07,.15-.21,.23-.41,.23-.16,0-.52-.65-1.07-1.95,.83-.08,1.67-.17,2.5-.27,1.26-1.64,2.39-3.38,3.4-5.21,.25-.48,.46-.96,.66-1.44h-6.81c-.16,0-.25-.11-.25-.33v-.8c0-.18,.08-.27,.25-.27h8.12v-4h-6.32c-.16,0-.25-.12-.25-.35v-.64c0-.23,.08-.35,.25-.35Z"/>
        <path class="cls-1" d="M339.53,124.39h8.29c.03-.27,.05-.53,.08-.78,.12-1.37,.12-3,0-4.9l2.21,.27c0,.12-.05,.22-.16,.29-.22,.12-.33,.27-.33,.43-.04,1.97-.13,3.53-.27,4.7h8.31c.16,0,.25,.1,.25,.31v.82c0,.22-.08,.33-.25,.33h-7.85c.26,1,.55,1.88,.88,2.65,.37,.93,.79,1.78,1.27,2.54,.72,1.12,1.61,2.11,2.65,2.97,.96,.78,2.02,1.37,3.18,1.76,.08,.05,.12,.11,.12,.16,0,.14-.08,.26-.23,.37-.27,.29-.54,.59-.8,.92-.07,.19-.19,.29-.37,.29-.08,0-.36-.18-.84-.53-1.54-.97-2.82-2.08-3.83-3.32-.82-1-1.44-2.02-1.85-3.08-.33-.6-.72-1.66-1.17-3.18-.1,.4-.2,.8-.31,1.21-.38,1.09-.88,2.15-1.5,3.18-.55,1.03-1.2,1.91-1.95,2.65-.97,.93-2.43,1.96-4.39,3.08-.11,0-.21-.1-.29-.29-.25-.27-.52-.54-.82-.8-.12-.11-.18-.22-.18-.33,.42-.18,.99-.45,1.7-.82,.81-.45,1.48-.9,2.01-1.33,.71-.55,1.29-1.14,1.74-1.78,.57-.72,1.09-1.56,1.54-2.5,.38-.88,.71-1.8,.98-2.79,.08-.34,.16-.68,.23-1.03h-8.06c-.16,0-.25-.11-.25-.33v-.82c0-.21,.08-.31,.25-.31Z"/>
        <path class="cls-1" d="M361.96,125.44h18.38c.1,0,.14,.08,.14,.25v.49c0,.22-.05,.33-.14,.33h-18.38c-.12,0-.18-.11-.18-.33v-.49c0-.16,.06-.25,.18-.25Zm3.51,1.89h11.73c.22,0,.33,.08,.33,.25v5c0,.16-.11,.25-.33,.25h-5.33v.98h6.48c.11,0,.16,.08,.16,.25v.49c0,.23-.05,.35-.16,.35h-6.48v1.13h8.47c.1,0,.14,.08,.14,.25v.49c0,.22-.05,.33-.14,.33h-18.38c-.12,0-.18-.11-.18-.33v-.49c0-.16,.06-.25,.18-.25h8.43v-1.13h-5.8c-.12,0-.18-.12-.18-.35v-.49c0-.16,.06-.25,.18-.25h5.8v-.98h-4.92c-.22,0-.33-.08-.33-.25v-5c0-.16,.11-.25,.33-.25Zm-.33-8.04h12.47c.22,0,.33,.08,.33,.25v4.78c0,.15-.11,.23-.33,.23h-12.47c-.22,0-.33-.08-.33-.23v-4.78c0-.16,.11-.25,.33-.25Zm1.15,2.13h10.17v-1.15h-10.17v1.15Zm10.17,2.13v-1.15h-10.17v1.15h10.17Zm-9.84,6.01h3.77v-1.25h-3.77v1.25Zm3.77,2.28v-1.29h-3.77v1.29h3.77Zm1.48-3.53v1.25h4.18v-1.25h-4.18Zm4.18,3.53v-1.29h-4.18v1.29h4.18Z"/>
        <path class="cls-1" d="M386.97,127.76v2.36c0,1.53-.1,2.73-.29,3.61-.12,.77-.36,1.52-.72,2.26-.19,.45-.46,.88-.8,1.27-.1,0-.16-.01-.21-.04-.23-.21-.49-.39-.76-.55-.07-.08-.1-.18-.1-.31,.29-.36,.54-.84,.76-1.46,.22-.64,.38-1.33,.47-2.05,.11-.75,.16-1.66,.16-2.73v-3.36c0-.22,.11-.33,.33-.33h16.98c.16,0,.25,.11,.25,.33v.66c0,.23-.08,.35-.25,.35h-15.83Zm6.73-9.45c1.04,0,1.56,.08,1.56,.25,0,.19-.07,.29-.21,.31s-.21,.16-.21,.43v1.07h7.14c.16,0,.25,.11,.25,.33v.66c0,.23-.08,.35-.25,.35h-3.88c.62,.59,.92,.92,.92,.98,0,.15-.08,.23-.25,.23l-.25-.08c-.11,0-.21,.03-.31,.1-.77,.44-1.38,.78-1.85,1.03,.23,.1,.47,.21,.72,.33,.93,.37,1.74,.75,2.42,1.15,.05,.04,.08,.08,.08,.1,0,.08-.33,.33-.98,.74-.11,0-.22-.01-.33-.04-1.09-.6-2.26-1.12-3.51-1.56l-.37,.16c-.59,.22-1.25,.42-1.99,.62-.94,.23-2.05,.46-3.32,.68-.25,0-.39-.05-.43-.14-.14-.25-.36-.48-.68-.7-.08-.08-.12-.16-.12-.25,0-.04,.05-.06,.16-.06,.67-.05,1.13-.1,1.37-.12,.56-.08,1.12-.18,1.68-.31,.68-.16,1.29-.33,1.8-.51l-.53-.16c-1.12-.29-2.32-.58-3.61-.88-.1-.04-.14-.07-.14-.08,0-.04,.23-.33,.7-.88,.08-.07,.18-.1,.29-.1,1.04,.22,2.13,.51,3.28,.86,.62,.16,1.21,.34,1.78,.53l.37-.16c.62-.29,1.12-.57,1.52-.84,.34-.18,.64-.38,.9-.62h-11.71c-.16,0-.25-.12-.25-.35v-.66c0-.22,.08-.33,.25-.33h7.63v-1.8c0-.16,.11-.25,.33-.25Zm-3.28,9.84l1.25,.53c.21,.08,.31,.18,.31,.29,0,.12-.08,.21-.25,.25-.23,0-.38,.1-.43,.29-.05,.12-.12,.25-.18,.37h3.57v-.98c0-.15,.12-.23,.35-.23,1.03,0,1.54,.08,1.54,.23,0,.19-.07,.29-.21,.31-.14,.03-.21,.18-.21,.45v.23h5.41c.16,0,.25,.11,.25,.33v.66c0,.22-.08,.33-.25,.33h-5.41v1.72h4.76c.16,0,.25,.11,.25,.33v.68c0,.21-.08,.31-.25,.31h-4.76v1.72h6.56c.16,0,.25,.11,.25,.33v.66c0,.22-.08,.33-.25,.33h-14.68c-.16,0-.25-.11-.25-.33v-.66c0-.22,.08-.33,.25-.33h6.64v-1.72h-4.9c-.18,0-.27-.1-.27-.31v-.68c0-.22,.09-.33,.27-.33h4.9v-1.72h-4.27c-.3,.52-.6,.96-.9,1.33-.14,.15-.25,.23-.33,.23-.1,0-.23-.05-.39-.14-.29-.15-.57-.28-.84-.39-.11-.05-.16-.09-.16-.1,0-.05,.03-.12,.1-.18,.59-.63,1.03-1.18,1.33-1.66,.44-.62,.76-1.23,.96-1.85,.07-.18,.14-.27,.23-.27Z"/>
        <path class="cls-1" d="M410.53,118.98l1.5,.51c.15,.11,.23,.21,.23,.29,0,.18-.08,.29-.25,.33-.16,0-.27,.1-.31,.29-.25,.88-.46,1.61-.66,2.19h4.98v-3.71c0-.16,.11-.25,.33-.25,1.04,0,1.56,.08,1.56,.25,0,.19-.07,.3-.21,.33-.14,.01-.21,.15-.21,.41v2.97h6.89c.16,0,.25,.08,.25,.23v.83c0,.22-.08,.33-.25,.33h-6.89v4.68h5.91c.16,0,.25,.1,.25,.31v.68c0,.21-.08,.31-.25,.31h-5.91v5.58h7.88c.16,0,.25,.09,.25,.27v.82c0,.21-.08,.31-.25,.31h-18.21c-.16,0-.25-.1-.25-.31v-.82c0-.18,.08-.27,.25-.27h8.86v-5.58h-6.4c-.16,0-.25-.1-.25-.31v-.68c0-.21,.08-.31,.25-.31h6.4v-4.68h-5.52c-.29,.67-.59,1.31-.9,1.91-.37,.63-.77,1.2-1.21,1.7-.18,0-.33-.03-.47-.08-.29-.12-.57-.23-.86-.33-.1-.05-.14-.1-.14-.14,0-.1,.03-.16,.08-.21,.68-.75,1.29-1.67,1.8-2.77,.31-.64,.59-1.31,.82-2.03,.26-.75,.51-1.71,.74-2.87,.04-.12,.1-.18,.16-.18Z"/>
        <path class="cls-1" d="M434.26,118.63l1.21,.29c.18,.04,.27,.14,.27,.29,0,.21-.1,.31-.31,.31-.12,.04-.21,.13-.27,.27-.4,.93-.8,1.75-1.21,2.46h3.26c.23,0,.35,.09,.35,.27v13.92c0,.16-.12,.25-.35,.25h-.82c-.22,0-.33-.08-.33-.25v-1.07h-4.43v1.64c0,.16-.11,.25-.33,.25h-.82c-.22,0-.33-.08-.33-.25v-14.42c0-.23,.11-.35,.33-.35h1.89c.55-.93,1.09-2.08,1.64-3.45,.04-.11,.12-.16,.25-.16Zm-2.62,9.43h4.43v-4.51h-4.43v4.51Zm0,5.99h4.43v-4.68h-4.43v4.68Zm10.25-15.59l1.42,.55c.15,.11,.23,.2,.23,.27,0,.12-.05,.21-.16,.25-.18,0-.29,.08-.33,.25-.3,.92-.57,1.65-.8,2.21h5.15c.27,0,.41,.14,.41,.41,0,4.79-.08,8.09-.25,9.93-.16,1.63-.42,2.79-.78,3.49-.27,.63-.65,1.02-1.13,1.17-.59,.25-1.37,.37-2.36,.37-.88,0-1.33-.14-1.35-.43-.05-.36-.15-.71-.29-1.07,0-.1,.03-.14,.08-.14l.16,.02c.4,.04,.75,.06,1.07,.06,1.03,0,1.73-.15,2.11-.45,.41-.31,.7-1.2,.88-2.65,.22-1.5,.34-4.63,.37-9.39h-4.74c-.23,.42-.48,.84-.74,1.25-.38,.53-.8,1.03-1.25,1.48-.16,0-.31-.02-.45-.06-.26-.12-.53-.23-.82-.33-.08-.04-.12-.08-.12-.12,0-.07,.03-.12,.08-.16,.7-.66,1.31-1.46,1.85-2.42,.33-.56,.61-1.15,.84-1.76,.27-.66,.53-1.5,.76-2.54,.04-.11,.1-.16,.16-.16Zm-.66,8.55c.14,0,.22,.02,.25,.06,.78,1.29,1.49,2.65,2.13,4.1,0,.21-.05,.31-.14,.33-.49,.33-.88,.49-1.17,.49-.68-1.75-1.34-3.2-1.97-4.35,0-.15,.3-.36,.9-.64Z"/>
        <path class="cls-1" d="M452.73,123.72c.78,.42,1.42,.81,1.93,1.17,.59,.45,1.09,.86,1.52,1.23,0,.01-.03,.07-.1,.16-.41,.59-.62,.88-.64,.88-.64-.56-1.33-1.08-2.05-1.56-.59-.38-1.08-.66-1.48-.82,0-.07,.22-.38,.66-.92,.07-.1,.12-.14,.16-.14Zm4.1,4.43c.07,0,.12,.06,.14,.18,.36,.77,.53,1.18,.53,1.23,0,.11-.05,.21-.14,.31-.72,1.7-1.41,3.14-2.05,4.33-.36,.67-.79,1.4-1.29,2.19-.1,.21-.14,.46-.14,.78,0,.18-.05,.27-.16,.27s-.55-.44-1.33-1.33c-.07-.04-.11-.12-.12-.25,0-.11,.03-.21,.1-.31,.41-.41,.83-.94,1.27-1.58,.6-.89,1.19-1.89,1.76-2.99,.51-.96,.94-1.84,1.29-2.65,.05-.12,.1-.18,.14-.18Zm-2.62-9.35c.77,.41,1.39,.79,1.89,1.15,.59,.41,1.08,.79,1.48,1.15,0,.03-.03,.09-.1,.18-.4,.59-.61,.88-.64,.88-.63-.55-1.3-1.05-2.01-1.52-.57-.36-1.05-.61-1.44-.76,0-.1,.22-.41,.66-.94,.07-.1,.12-.14,.16-.14Zm4.68,3.71h4.51v-3.63c0-.16,.11-.25,.33-.25,1.04,0,1.56,.08,1.56,.25,0,.19-.07,.3-.21,.33-.14,.01-.21,.15-.21,.41v2.89h4.76c.22,0,.33,.08,.33,.23v14.52c0,.18-.11,.27-.33,.27h-.82c-.22,0-.33-.09-.33-.27v-1.39h-8.45v1.39c0,.18-.11,.27-.33,.27h-.82c-.22,0-.33-.09-.33-.27v-14.44c0-.21,.11-.31,.33-.31Zm1.15,5.89h3.36v-4.59h-3.36v4.59Zm0,6.15h3.36v-4.84h-3.36v4.84Zm4.84-10.75v4.59h3.61v-4.59h-3.61Zm0,5.91v4.84h3.61v-4.84h-3.61Z"/>
        <path class="cls-1" d="M480.31,121.42l1.07,.8c.11,.1,.16,.19,.16,.29,0,.05-.04,.09-.12,.1-.12,.03-.21,.08-.27,.16-.33,.62-.67,1.18-1.03,1.68-.41,.56-.93,1.12-1.56,1.68-.04,1.03-.1,1.9-.16,2.62,.48,1.3,.89,2.23,1.23,2.79,.48,.86,1.06,1.67,1.74,2.44,0,.14-.05,.24-.14,.31-.23,.18-.54,.42-.92,.74-.03,0-.06-.03-.1-.08-.4-.42-.78-.97-1.15-1.64-.29-.6-.62-1.35-.98-2.24-.19,1.18-.45,2.24-.78,3.2-.36,1.08-.79,2.07-1.29,2.97h-.21c-.45-.14-.88-.28-1.29-.43-.07-.04-.1-.11-.1-.21,.64-.93,1.16-1.93,1.54-3.01,.42-1.09,.74-2.47,.94-4.12,.26-1.75,.39-4.71,.39-8.88,0-.3-.03-.84-.08-1.62,0-.12,.09-.18,.27-.18l1.5,.14c.19,.05,.29,.12,.29,.21,0,.16-.07,.27-.21,.31-.25,.08-.37,.25-.37,.51,0,1.53-.01,2.91-.04,4.14,.25-.29,.48-.59,.7-.92,.27-.42,.57-.96,.9-1.62,.03-.1,.05-.14,.08-.14Zm-5.33,1.25c1.04,.21,1.56,.36,1.56,.47,0,.15-.08,.27-.25,.35-.05,.1-.09,.23-.1,.39-.04,1.31-.1,2.39-.16,3.24l-.16,1.44c-.01,.12-.03,.18-.06,.18-.46-.15-.87-.25-1.21-.31-.12-.03-.18-.1-.18-.21,.11-.63,.21-1.31,.29-2.05,.1-.75,.16-1.85,.21-3.28,0-.15,.03-.23,.08-.23Zm7.3,9.6h4.18v-1.89c0-.18,.11-.27,.33-.27,1.04,0,1.56,.09,1.56,.27s-.07,.28-.21,.31c-.12,.01-.18,.15-.18,.41v1.17h4.57c.16,0,.25,.1,.25,.31v.66c0,.22-.08,.33-.25,.33h-4.57v2.3h5.39c.16,0,.25,.11,.25,.33v.66c0,.22-.08,.33-.25,.33h-12.22c-.16,0-.25-.11-.25-.33v-.66c0-.22,.08-.33,.25-.33h5.33v-2.3h-4.18c-.16,0-.25-.11-.25-.33v-.66c0-.21,.08-.31,.25-.31Zm-.49-12.9h11.48c.11,0,.16,.08,.16,.25v.66c0,.22-.05,.33-.16,.33h-4.02v1.99h3.45c.22,0,.33,.08,.33,.23v7.38c0,.18-.11,.27-.33,.27h-.82c-.16,0-.25-.09-.25-.27v-.82h-8.7v.82c0,.18-.11,.27-.33,.27h-.82c-.16,0-.25-.09-.25-.27v-7.38c0-.15,.08-.23,.25-.23h3.51c.03-.19,.04-.37,.04-.53v-1.46h-3.55c-.11,0-.16-.11-.16-.33v-.66c0-.16,.05-.25,.16-.25Zm1.15,8.78h8.7v-1.15c-2.45-.08-3.67-.65-3.67-1.7v-1.5h-1.5c-.05,.33-.13,.63-.23,.9-.25,.7-.72,1.32-1.42,1.87-.44,.37-1.04,.73-1.8,1.09h-.08v.49Zm0-1.93c.98-.56,1.65-1.2,1.99-1.91,.07-.18,.12-.35,.16-.51h-2.15v2.42Zm5.02-3.63v-1.99h-1.33v1.46c0,.18,0,.36-.02,.53h1.35Zm1.29,1.21v1.07c0,.49,.79,.77,2.38,.82v-1.89h-2.38Z"/>
        <path class="cls-1" d="M506.58,125.19c.75,0,1.42,.29,2.01,.88,.56,.59,.84,1.28,.84,2.07,0,.75-.28,1.42-.84,2.01-.59,.57-1.26,.86-2.01,.86-.79,0-1.48-.29-2.07-.86-.59-.59-.88-1.26-.88-2.01,0-.79,.29-1.48,.88-2.07s1.28-.88,2.07-.88Zm0,5.09c.56,0,1.06-.21,1.5-.64,.41-.44,.62-.94,.62-1.5s-.21-1.11-.62-1.56c-.44-.44-.94-.66-1.5-.66-.6,0-1.12,.22-1.56,.66s-.68,.97-.68,1.56,.23,1.06,.68,1.5c.44,.42,.96,.64,1.56,.64Z"/>
      </g>
      <line class="cls-3" x1="1.58" y1="64.55" x2="525.8" y2="64.55"/>
    </g>
  </g>
</svg>