<?xml version="1.0" encoding="UTF-8"?>
<svg id="_圖層_2" data-name="圖層 2" xmlns="http://www.w3.org/2000/svg" viewBox="0 0 539.54 165.34">
  <defs>
    <style>
      .cls-1 {
        fill: #e5e5e5;
      }
    </style>
  </defs>
  <g id="_圖層_3" data-name="圖層 3">
    <g>
      <path class="cls-1" d="M7.03,10.15l-.67,1.11c-.37-.62-.96-1.46-1.78-2.52v12.42h-1.22V9.05c-.83,2.34-1.68,4.22-2.57,5.66L.05,13.58c1.29-2.19,2.38-4.84,3.27-7.95H.43v-1.2H3.36V.16h1.22V4.44h2.19v1.2h-2.19v1.54c.95,1.02,1.76,2.02,2.45,2.98Zm13.92,4.49h-3.53c-.8,1.59-1.56,2.75-2.26,3.48,2.52,1.19,4.07,1.95,4.66,2.29l-.66,1.01c-2.04-1.11-3.72-1.93-5.04-2.45-1.67,1.16-4.05,1.88-7.15,2.16l-.55-1.1c2.99-.34,5.13-.86,6.41-1.56-1.1-.47-2.61-1.02-4.51-1.65,.62-.66,1.25-1.38,1.86-2.17H5.88v-1.08h5.18c.62-.82,1.05-1.39,1.28-1.72l1.01,.53c-.19,.29-.47,.69-.84,1.2h4.1c.17-.33,.33-.71,.48-1.15,.23,.05,.59,.18,1.08,.39-.11,.28-.2,.54-.26,.76h3.05v1.08Zm-7.9-6.09h-3.64l.76,.5c-.73,1.28-1.61,2.31-2.61,3.09l-.74-.79c1.11-1,1.92-1.94,2.43-2.81h-1.57V.75h5.38v7.79Zm-1.12-3.34v-1.22h-3.09v1.22h3.09Zm-.02,2.29v-1.24h-3.07v1.24h3.07Zm.05-4.51V1.85h-3.09v1.12h3.09Zm4.17,11.66h-4.44c-.45,.6-.89,1.16-1.34,1.66,1.16,.4,2.37,.84,3.62,1.34,.8-.77,1.52-1.77,2.16-3Zm-2.75-3.98l-.82,.8c-.26-.45-.78-1.04-1.56-1.78l.77-.71c.69,.55,1.22,1.12,1.61,1.7Zm6.71-2.11h-3.89l.75,.64c-.59,.98-1.35,1.85-2.29,2.62l-.83-.75c.99-.83,1.73-1.67,2.23-2.52h-1.44V.75h5.47v7.79Zm-1.15-5.57V1.85h-3.19v1.12h3.19Zm0,2.23v-1.22h-3.19v1.22h3.19Zm0,2.29v-1.24h-3.19v1.24h3.19Zm1.61,3.82l-.89,.71c-.45-.74-1.05-1.47-1.82-2.18l.86-.63c.62,.48,1.23,1.18,1.85,2.1Z"/>
      <path class="cls-1" d="M36.63,7.03c-.62,1.22-1.3,2.35-2.04,3.39v10.75h-1.28V12.05c-.88,.93-2.07,1.97-3.55,3.12l-.96-.93c2.94-1.9,5.14-4.45,6.6-7.64l1.23,.43Zm2.23-3.21h-2.93v2.3h-1.24V3.82h-5.77v-1.18h5.77V.09h1.24V2.64h2.93v1.18Zm10.9,12.07c-.1,1.96-.29,3.2-.57,3.72s-.61,.87-1.01,1.04-1.61,.26-3.65,.26c-2.28,0-3.64-.12-4.08-.36s-.66-.75-.66-1.52V6.8h1.28v4.1h8.3v1.15h-8.3v6.91c0,.34,.14,.55,.43,.64s1.29,.13,3,.13c1.91,0,2.98-.05,3.22-.16s.43-.56,.56-1.35,.22-1.73,.27-2.81l1.2,.48Zm.09-12.07h-5.68v2.5h-1.25V3.82h-3.09v-1.18h3.09V.09h1.25V2.64h5.68v1.18Z"/>
      <path class="cls-1" d="M66.1,5.59c-.81,5.75-3.35,10.28-7.61,13.58l-.89-1.01c3.79-2.97,6.12-6.73,6.98-11.3h-6.07v-1.28h7.58Zm12.62,12.34l-.86,1.12c-3.88-2.47-6.8-5.68-8.79-9.64v10.01c0,.54-.1,.94-.3,1.2s-.45,.42-.74,.48-.94,.09-1.92,.09c-.8,0-1.4-.02-1.82-.05l-.42-1.29c1.62,.05,2.72,.07,3.3,.07,.41,0,.62-.21,.62-.62V.12h1.28V5.31c0,1.16,.4,2.39,1.2,3.69,2.68-2.05,4.74-4.02,6.18-5.88l1.03,.84c-1.67,2.08-3.86,4.13-6.57,6.16,1.42,2.82,4.03,5.42,7.82,7.8Z"/>
      <path class="cls-1" d="M96.79,7.85h-10.17v-1.21h2.96c-.17-.66-.53-1.6-1.08-2.8l.7-.63h-2.06v-1.15h4.27c-.3-.52-.62-1.03-.94-1.51l1.1-.53c.28,.41,.69,1.09,1.23,2.04h3.6v1.15h-1.99l.82,.54c-.42,1.22-.78,2.18-1.08,2.89h2.64v1.21Zm-1.17,11.75c0,1.02-.62,1.54-1.85,1.54h-1.35l-.43-1.12h1.88c.12,0,.25-.05,.37-.16s.18-.22,.18-.34v-3.41c-1.97,.88-3.54,1.52-4.72,1.92l-.63-.76c-.18,1.24-.62,2.59-1.34,4.03l-1.05-.66c.59-1.09,.98-2.18,1.18-3.27s.3-2.52,.3-4.29v-3.62h7.46v10.15Zm-1.21-4.68v-4.28h-5.06v1.25c1.56,.46,2.97,1,4.22,1.63l-.55,1.05c-.77-.48-2-.98-3.69-1.51-.02,.3-.04,.88-.05,1.73s-.07,1.58-.17,2.16c1.3-.38,3.07-1.06,5.31-2.04Zm-.26-11.72h-4.64c.6,1.37,1.04,2.51,1.32,3.43h1.99c.59-1.27,1.04-2.41,1.32-3.43Zm13.31,15.04c-.09,.91-.33,1.57-.7,1.98s-.97,.61-1.8,.61h-5.5c-.52,0-.93-.19-1.22-.56s-.43-.79-.43-1.27V7.85h7.24v-2.06h-7.27V.21h1.22V1.65h8.17v1.14h-8.17v1.86h7.25v4.37h-7.23v1.58h7.51v1.08h-7.51v1.78h7.51v1.1h-7.51v1.8h7.54v1.15h-7.54v1.54c0,.18,.08,.35,.23,.5s.32,.23,.5,.23h5.06c.39,0,.71-.11,.95-.33s.41-.73,.49-1.55l1.2,.34Z"/>
      <path class="cls-1" d="M124.63,18.27c-2.84,.98-5.84,1.82-9,2.52l-.36-1.23c.88-.17,1.88-.41,3-.71-.44-2.23-.99-4.23-1.65-6l.89-.75h-1.25V5.02h7.42v7.08h-1.44l.89,.6c-.27,1.51-.7,3.22-1.28,5.14l2.79-.84v1.28Zm-.36-16.32h-8.75V.75h8.75V1.95Zm-1.82,8.98V6.16h-4.97v4.76h4.97Zm-.5,1.17h-4.23c.76,2.27,1.34,4.42,1.73,6.43l1.01-.28c.6-1.88,1.1-3.93,1.49-6.15Zm14.16-10.03h-4.68c-.47,1.58-.75,2.52-.84,2.81h4.49v11.59h-5.84l.75,.67c-1.23,1.51-2.85,2.87-4.88,4.08l-.82-1.01c2.13-1.34,3.66-2.58,4.58-3.74h-2.64V4.88h3.07c.42-1.2,.69-2.14,.8-2.81h-4.73V.87h10.73v1.2Zm-2.29,6.18v-2.24h-6.33v2.24h6.33Zm0,3.47v-2.3h-6.33v2.3h6.33Zm0,3.63v-2.5h-6.33v2.5h6.33Zm2.38,4.82l-.8,1.03c-1.38-1.16-2.8-2.18-4.29-3.07l.82-.94c1.74,1.05,3.16,2.05,4.27,2.98Z"/>
      <path class="cls-1" d="M165,20.38h-15.67v.81h-1.32V10.7c-.88,.97-1.93,1.95-3.14,2.95l-.94-.98c2.91-2.34,5.12-4.84,6.62-7.51h-5.95v-1.24h6.57c.54-1,1.06-2.28,1.57-3.84l1.27,.27c-.43,1.23-.9,2.43-1.42,3.57h11.98v1.24h-12.6c-.82,1.46-1.7,2.77-2.64,3.94v10.03h6.91v-6.76h-5.26v-1.25h5.26V6.67h1.29v4.44h5.79v1.25h-5.79v6.76h7.46v1.25Z"/>
      <path class="cls-1" d="M193.87,20.24l-.94,.95c-4.99-3.52-8.2-8.35-9.62-14.5-1.02,5.61-4.2,10.43-9.55,14.45l-.87-1.03c1.82-1.24,3.48-2.8,4.99-4.66s2.66-3.92,3.45-6.17,1.21-5.28,1.27-9.11h1.34c-.05,4.43,.84,8.35,2.65,11.77s4.24,6.19,7.29,8.3Z"/>
      <path class="cls-1" d="M204.12,5.52c-.28,2.3-.69,4.23-1.22,5.81l-1.23-.34c.55-1.72,.95-3.6,1.18-5.64l1.27,.16Zm5.09,2.21l-.79,.93c-.66-.79-1.3-1.46-1.92-2.02v14.5h-1.25V.16h1.25V5.04c.95,.8,1.85,1.7,2.71,2.7Zm13.32,12.9h-13.7v-1.24h6.69v-6.27h-5.54v-1.22h5.54V6.6h-3.48c-.61,1.6-1.3,2.97-2.09,4.1l-1.03-.64c1.61-2.74,2.65-5.53,3.12-8.36l1.24,.27c-.22,1.27-.49,2.39-.81,3.36h3.05V.25h1.32V5.33h5.27v1.27h-5.27v5.31h4.72v1.22h-4.72v6.27h5.68v1.24Z"/>
      <path class="cls-1" d="M237.43,.48c-.31,.87-.79,2-1.42,3.39l-.96,2.04v15.34h-1.29V8.16c-.7,1.12-1.52,2.23-2.47,3.34l-.87-1.01c2.13-2.44,4.05-5.89,5.74-10.37l1.27,.36Zm14.04,15.14c0,1.21-.12,2.33-.36,3.36s-.71,1.62-1.4,1.77-2.6,.22-5.71,.22c-.74,0-1.38,0-1.92-.02s-.96-.19-1.27-.52-.46-.77-.46-1.34V.14h1.32V8.29h9.33v1.27h-9.33v9.5c0,.16,.05,.3,.16,.44s.24,.21,.39,.21,.68,0,1.59,0c3.23,0,5.08-.06,5.55-.19s.75-1.59,.82-4.41l1.27,.5Z"/>
      <path class="cls-1" d="M272.02,12.16l-.84,.91c-1.16-1.27-2.45-2.42-3.87-3.43l.89-.94c1.59,1.2,2.87,2.35,3.82,3.46Z"/>
      <path class="cls-1" d="M309.02,7.1h-3.82l-.21,2.43h-13.39l.22-2.43h-3.68v-.91h3.8l.26-2.32h13.35l-.23,2.32h3.71v.91Zm-3.05,10.88h-9.71l.53,.75c-2.62,1.39-5.2,2.24-7.76,2.54l-.71-1.11c2.65-.28,5.16-1.01,7.54-2.18h-4.63v-7.22h14.75v7.22Zm2.16-13.12h-1.22V2.59h-16.65v2.17h-1.23V1.56h8.88c-.2-.41-.4-.75-.62-1.03l1.15-.41c.2,.3,.48,.78,.84,1.44h8.85v3.29Zm-3.38,7.99v-1.1h-12.39v1.1h12.39Zm0,2.09v-1.12h-12.39v1.12h12.39Zm0,2.09v-1.12h-12.39v1.12h12.39Zm-6.89-9.91h-4.8l-.14,1.44h4.83l.12-1.44Zm.23-2.27h-4.82l-.15,1.36h4.85l.12-1.36Zm5.86,2.27h-4.85l-.12,1.44h4.85l.12-1.44Zm.27-2.27h-4.88l-.12,1.36h4.86l.13-1.36Zm4.48,15.38l-.47,1.04c-2.08-.77-4.73-1.37-7.97-1.78l.5-.96c3.25,.41,5.89,.98,7.93,1.7Z"/>
      <path class="cls-1" d="M336.67,19.46c0,.65-.23,1.1-.7,1.36s-1.51,.39-3.13,.39c-.37,0-.72,0-1.07-.02l-.39-1.31c.59,.05,1.17,.07,1.73,.07,1.14,0,1.8-.05,1.99-.14s.28-.25,.28-.46v-5.79h-6.79v7.03h-1.3v-7.03h-6.84c-.38,3.29-1.21,5.81-2.47,7.56l-1.12-.79c1.62-2.39,2.43-5.27,2.43-8.65V.67h17.38V19.46Zm-9.36-13.12V1.97h-6.71V6.34h6.71Zm0,5.98V7.65h-6.71v4.66h6.71Zm8.09-5.98V1.97h-6.79V6.34h6.79Zm0,5.98V7.65h-6.79v4.66h6.79Z"/>
      <path class="cls-1" d="M348.12,5.52c-.28,2.3-.69,4.23-1.22,5.81l-1.23-.34c.55-1.72,.95-3.6,1.18-5.64l1.27,.16Zm5.09,2.21l-.79,.93c-.66-.79-1.3-1.46-1.92-2.02v14.5h-1.25V.16h1.25V5.04c.95,.8,1.85,1.7,2.71,2.7Zm13.32,12.9h-13.7v-1.24h6.69v-6.27h-5.54v-1.22h5.54V6.6h-3.48c-.61,1.6-1.3,2.97-2.09,4.1l-1.03-.64c1.61-2.74,2.65-5.53,3.12-8.36l1.24,.27c-.22,1.27-.49,2.39-.81,3.36h3.05V.25h1.32V5.33h5.27v1.27h-5.27v5.31h4.72v1.22h-4.72v6.27h5.68v1.24Z"/>
      <path class="cls-1" d="M385.87,12.94l-.8,.98c-1.3-1.36-2.54-2.5-3.74-3.43v10.8h-1.25V9.98c-1.48,2.74-3.11,4.98-4.89,6.71l-.94-.86c1.98-1.9,3.89-4.68,5.75-8.33h-5.43v-1.24h5.5V2.81c-1.68,.26-3.13,.41-4.36,.46l-.36-1.25c3.72-.21,6.92-.81,9.6-1.8l.64,1.18c-.99,.44-2.41,.82-4.27,1.15v3.73h4.35v1.24h-4.35v1.42c2.06,1.57,3.57,2.91,4.54,4.01Zm8.84,8.36h-1.3v-2.26h-5.4v2.26h-1.27V2.98h7.97V21.29Zm-1.3-3.53V4.25h-5.4v13.51h5.4Z"/>
      <path class="cls-1" d="M411.79,3.87h-8.5v-1.25h3.75c-.21-.7-.53-1.4-.96-2.11l1.1-.5c.48,.77,.87,1.64,1.17,2.61h3.43v1.25Zm-.67,7.01h-7.37v-1.21h7.37v1.21Zm.02-3.53h-7.37v-1.21h7.37v1.21Zm-.36,13.34h-1.24v-1.31h-4.35v1.77h-1.24v-7.99h6.83v7.54Zm-1.24-2.54v-3.71h-4.35v3.71h4.35Zm14.64,2.1l-.71,1.03c-2.43-.8-4.3-1.73-5.62-2.77-1.54,1.09-3.46,1.97-5.75,2.64l-.75-1.03c2.41-.71,4.23-1.53,5.45-2.45-1.66-1.52-2.86-3.56-3.62-6.12h-.82v-1.22h10.05v1.22c-1.03,2.8-2.23,4.85-3.6,6.14,1.36,.98,3.15,1.83,5.38,2.55Zm-.09-11.33h-2.33c-1.15,0-1.72-.55-1.72-1.65V2.09h-4.23c-.04,2.21-.33,3.85-.88,4.93s-1.31,1.92-2.28,2.54l-.94-.87c.95-.6,1.69-1.43,2.2-2.48s.75-2.82,.71-5.31h6.62V6.89c0,.54,.27,.81,.8,.81h2.06v1.21Zm-3.05,2.64h-6.6c.83,2.36,1.95,4.14,3.38,5.33,1.43-1.32,2.5-3.1,3.22-5.33Z"/>
      <path class="cls-1" d="M442.05,4.32h-9.94v-1.25h4.54c-.35-.81-.83-1.67-1.43-2.57l1.2-.48c.53,.73,1.07,1.75,1.63,3.05h4.01v1.25Zm-1.22,3.43h-7.61v-1.21h7.61v1.21Zm0,3.38h-7.61v-1.17h7.61v1.17Zm0,9.84h-1.23v-1.17h-5.13v1.36h-1.24v-7.72h7.61v7.54Zm-1.23-2.45v-3.89h-5.13v3.89h5.13Zm13.44-10.17h-4.79v12.86h-1.3V8.36h-4.78v-1.28h4.78V.25h1.3V7.08h4.79v1.28Z"/>
      <path class="cls-1" d="M469.32,11.06l-2.68,1.71v8.61h-1.21v-7.9c-1.59,.8-2.98,1.48-4.17,2.02l-.5-1.15c1.73-.71,3.29-1.48,4.68-2.31V6.82h-2.37c-.34,1.59-.71,2.91-1.11,3.96l-1.1-.48c.74-2.1,1.29-4.63,1.63-7.59l1.18,.29c-.08,.77-.2,1.64-.36,2.61h2.13V.36h1.21V5.61h2.52v1.21h-2.52v4.51c.84-.47,1.66-.99,2.47-1.56l.21,1.29Zm12.43,2.17h-2.71v6.79c0,.33-.12,.61-.37,.84s-.59,.37-1.04,.42-1.12,.06-2.03,.06c-.48,0-.93,0-1.32-.02l-.41-1.23c1.01,.05,1.79,.07,2.34,.07,.78,0,1.24-.06,1.38-.17s.21-.32,.21-.62v-6.14h-9.02v-1.21h9.02v-2.23h1.23v2.23h2.71v1.21Zm-.57-8.86h-5.19v3.36h4.55v1.15h-10.55v-1.15h4.76v-3.36h-5.88v-1.23h5.88V.39h1.24V3.14h5.19v1.23Zm-6.91,13.61l-1.08,.67c-.63-1.38-1.5-2.69-2.59-3.94l1.05-.74c1.08,1.27,1.95,2.61,2.61,4.01Z"/>
      <path class="cls-1" d="M510.37,15.91c-.02,.9-.14,1.73-.36,2.51s-.45,1.31-.7,1.61-.56,.52-.94,.67-1.18,.23-2.41,.25-2.71,.04-4.44,.04c-1.37,0-2.91-.01-4.63-.04s-2.71-.06-2.98-.11-.52-.17-.77-.36-.43-.43-.56-.71-.19-.61-.19-.98V6.8h7.89l3.68-3.46h-7.8c-1.75,1.79-3.7,3.24-5.86,4.36l-.79-1.01c3.33-1.77,5.89-4,7.7-6.69l1.3,.48c-.36,.54-.76,1.07-1.21,1.58h8.6v1.08c-.96,1-2.23,2.22-3.82,3.66h6.53v6.83h-14.95v5.14c0,.16,.09,.35,.27,.57s.5,.35,.96,.39,2.47,.07,6.03,.07c3.81,0,5.95-.04,6.41-.11s.81-.25,1.04-.53,.42-.77,.55-1.46,.21-1.47,.25-2.34l1.21,.55Zm-10.57-3.53v-4.35h-6.14v4.35h6.14Zm7.51,0v-4.35h-6.19v4.35h6.19Z"/>
      <path class="cls-1" d="M539.33,8.02h-7.32c-1.21,.86-2.66,1.75-4.36,2.66h10.01v1.23h-9.94l-.8,2.88h10.71c-.3,2.38-.67,3.95-1.12,4.73s-1.05,1.25-1.81,1.43-2.23,.26-4.42,.26c-.89,0-1.81-.02-2.77-.07l-.53-1.27c1.62,.06,3.05,.09,4.29,.09,1.74,0,2.81-.06,3.21-.19s.73-.43,.98-.91,.5-1.42,.71-2.83h-10.95l1.36-4.85c-3.13,1.42-5.62,2.46-7.48,3.11l-.73-1.11c4.75-1.58,8.57-3.3,11.45-5.16h-10.8v-1.27h7.85V3.6h-6.16v-1.22h6.16V.21h1.28V2.38h5.85v1.22h-5.85v3.15h3.42c1.77-1.19,3.79-3.12,6.08-5.79l.96,.8c-1.77,2.08-3.41,3.74-4.95,4.99h5.64v1.27Z"/>
      <path class="cls-1" d="M20.93,56.61H.14v-.96H9.91v-1.58H1.58v-.94H9.91v-1.54H2.29v-5.57H18.84v5.57h-7.69v1.54h8.36v.94H11.16v1.58h9.77v.96Zm-.19-11.98H.41v-.96H20.74v.96Zm-1.85-2.32H2.31v-5.52H18.89v5.52Zm-8.98,6.05v-1.37H3.48v1.37h6.43Zm0,2.3v-1.38H3.48v1.38h6.43Zm7.7-11.54v-1.36H3.5v1.36h14.11Zm0,2.26v-1.37H3.5v1.37h14.11Zm0,6.98v-1.37h-6.46v1.37h6.46Zm0,2.3v-1.38h-6.46v1.38h6.46Z"/>
      <path class="cls-1" d="M49.75,38.04h-10.88v5.13c4.18,2.22,7,3.97,8.47,5.26l-.76,1.17c-2.05-1.71-4.62-3.38-7.71-4.99v12.55h-1.29v-19.12h-8.65v-1.29h20.81v1.29Z"/>
      <path class="cls-1" d="M67.78,48.91c-.58-.3-.87-.69-.87-1.16,0-.23,.1-.46,.29-.7s.47-.36,.83-.36c.75,0,1.12,.49,1.12,1.48,0,.8-.47,1.58-1.42,2.33l-.5-.39c.36-.48,.54-.88,.54-1.21Z"/>
      <path class="cls-1" d="M93.65,41.52h-2.67v4.37c.6-.32,1.32-.78,2.17-1.37l.26,1.25c-.89,.63-1.7,1.15-2.43,1.56v8.32c0,.35-.1,.65-.3,.9s-.42,.41-.66,.49-.74,.12-1.51,.12c-.39,0-.75-.01-1.08-.04l-.39-1.27c.2,.02,.92,.02,2.14,.02,.12,0,.26-.07,.39-.22s.21-.29,.21-.42v-7.18c-.7,.5-1.69,1.04-2.95,1.63l-.46-1.12c1.44-.73,2.57-1.38,3.41-1.95v-5.09h-3.12v-1.2h3.12v-4.14h1.2v4.14h2.67v1.2Zm13.77,14.16l-.41,1.28h-3.16c-2.06,0-3.71-.18-4.96-.54s-2.32-1.3-3.22-2.82c-.65,1.55-1.39,2.77-2.24,3.66l-1.03-.77c1.78-1.98,2.73-4.38,2.84-7.2l1.2,.12c-.05,.88-.16,1.75-.34,2.64,.9,1.83,2.02,2.89,3.36,3.2v-7.37h-6.19v-1.23h13.51v1.23h-6.07v2.8h5.3v1.18h-5.3v3.62c.73,.14,1.68,.21,2.87,.21h3.84Zm-2.06-10.89h-10.39v-8.04h10.39v8.04Zm-1.2-4.73v-2.11h-7.95v2.11h7.95Zm0,3.53v-2.34h-7.95v2.34h7.95Z"/>
      <path class="cls-1" d="M121.45,36.53c-.24,.7-.63,1.59-1.17,2.67l-.8,1.61v16.31h-1.23v-14.2c-.76,1.16-1.61,2.32-2.54,3.48l-.64-1.28c1.88-2.13,3.62-5.12,5.23-8.95l1.16,.36Zm5.39,14.45c-1.58,2.59-3.33,4.7-5.25,6.34l-.96-.84c1.64-1.34,3.35-3.37,5.13-6.07l1.08,.57Zm9.22-1.95h-15.36v-1.22h4.08v-5.54h-3.71v-1.23h3.71v-4.77h1.28v4.77h4.61v-4.77h1.32v4.77h3.5v1.23h-3.5v5.54h4.08v1.22Zm-5.4-1.22v-5.54h-4.61v5.54h4.61Zm5.47,8.66l-1.03,.74c-1.19-1.78-3.01-3.84-5.47-6.16l1.05-.71c2.45,2.26,4.26,4.3,5.45,6.14Z"/>
      <path class="cls-1" d="M148.83,45.5l-.7,1.05c-1.33-1.13-2.72-2.12-4.17-2.98l.74-1.05c1.6,.96,2.98,1.95,4.14,2.98Zm.33,3.82c-1.03,2.83-2.39,5.42-4.08,7.77l-1.08-.76c1.48-1.95,2.83-4.5,4.03-7.64l1.12,.63Zm.39-9.87l-.71,1.03c-1.24-1.19-2.64-2.3-4.21-3.34l.68-1.03c1.63,1.03,3.05,2.14,4.24,3.34Zm15.48,12.21c-.05,1.1-.16,2.1-.33,3.01s-.47,1.5-.9,1.79-1.26,.43-2.5,.43-2.11-.16-2.52-.47-.62-.87-.62-1.68v-7.76h-3.12c.02,5.52-1.98,8.89-5.98,10.12l-.81-1.08c1.06-.26,2.05-.79,2.96-1.59s1.55-1.72,1.92-2.75,.58-2.6,.66-4.71h-4.05v-1.17h7.12v-4.18h-4.61c-.78,1.2-1.57,2.2-2.38,3l-.96-.81c1.62-1.61,2.98-3.81,4.1-6.6l1.17,.47c-.38,.95-.8,1.87-1.27,2.77h3.94v-4.35h1.22v4.35h6.05v1.17h-6.05v4.18h6.57v1.17h-5.25v7.9c0,.28,.1,.49,.31,.63s.71,.21,1.49,.21c.87,0,1.46-.09,1.78-.26s.52-.8,.62-1.88,.15-1.89,.15-2.42l1.27,.5Z"/>
      <path class="cls-1" d="M176.67,44.57l-.77,.98c-.9-.9-1.94-1.68-3.12-2.36l.77-.95c1.24,.68,2.28,1.45,3.12,2.32Zm.57,4.97c-.87,3.02-2,5.55-3.39,7.58l-.98-.91c1.26-1.74,2.35-4.18,3.27-7.31l1.1,.64Zm.6-10.15l-.96,.87c-.91-1.2-1.99-2.28-3.23-3.22l.91-.89c1.28,1,2.38,2.08,3.28,3.25Zm3.77-2.95c-.23,1.03-.58,2.31-1.05,3.84l-.7,2.2v14.68h-1.17v-12.19c-.65,1.2-1.22,2.19-1.71,2.95l-.95-.91c1.94-2.73,3.38-6.36,4.34-10.9l1.25,.32Zm.86,16.92h-1.15v-10.99h1.15v10.99Zm3.8-1.8c-.74,1.86-1.72,3.44-2.93,4.73l-.94-.8c1.13-1.24,2.06-2.76,2.79-4.56l1.08,.62Zm7.49-5.88l-.46,1.11c-1.85-.43-3.55-1.13-5.11-2.1-1.49,.98-2.94,1.68-4.35,2.12l-.74-1.08c1.64-.48,2.98-1.08,4.03-1.78-.8-.67-1.39-1.28-1.78-1.83l.82-.76c.73,.88,1.37,1.48,1.92,1.82,1.02-1.02,1.79-2.24,2.32-3.64h-4.51c-.62,1.09-1.38,2.05-2.27,2.88l-.87-.75c1.52-1.46,2.63-3.33,3.34-5.61l1.17,.39c-.36,.98-.62,1.63-.77,1.95h6.94v1.15h-1.75c-.59,1.7-1.44,3.14-2.54,4.35,1.38,.83,2.91,1.43,4.61,1.79Zm-.34,3.98h-4.61v7.51h-1.2v-7.51h-4.23v-1.15h4.23v-2.43h1.2v2.43h4.61v1.15Zm.43,5.86l-1.05,.75c-.37-1.25-1.24-2.85-2.61-4.8l1.03-.64c1.19,1.67,2.07,3.24,2.64,4.7Z"/>
      <path class="cls-1" d="M222.53,56.64h-16.8c-.71,0-1.31-.23-1.79-.69s-.73-1.08-.73-1.86v-16.12h-1.49v-1.22h20.33v1.22h-17.57v16.17c0,.34,.14,.63,.43,.89s.57,.39,.83,.39h16.78v1.22Zm-10.03-3.43h-6.29v-6.02h6.29v6.02Zm-1.25-1.17v-3.64h-3.76v3.64h3.76Zm6.89-6.91h-9.76v-5.2h9.76v5.2Zm-1.24-1.2v-2.81h-7.25v2.81h7.25Zm4.01,9.32h-6.2v-6.04h6.2v6.04Zm-1.21-1.18v-3.64h-3.74v3.64h3.74Z"/>
      <path class="cls-1" d="M250.05,50.02h-8.45v7.2h-1.27v-7.2h-8.5v-9.55h8.5v-4.25h1.27v4.25h8.45v9.55Zm-9.71-1.29v-6.98h-7.23v6.98h7.23Zm8.43,0v-6.98h-7.16v6.98h7.16Z"/>
      <path class="cls-1" d="M280.18,56.64h-20.86v-1.12h9.82v-1.92h-8.68v-1.17h8.68v-1.95h-7.44v-7.03h7.44v-1.88h-9.27v-1.12h9.27v-2.04c-2.25,.11-4.78,.16-7.58,.16l-.39-1.08c6.56,.07,12.2-.34,16.92-1.22l.64,1.01c-1.77,.42-4.57,.77-8.4,1.03v2.13h9.32v1.12h-9.32v1.92h7.49v6.98h-7.49v1.95h8.77v1.17h-8.77v1.92h9.84v1.12Zm-11.04-10.24v-1.76h-6.19v1.76h6.19Zm0,2.95v-1.88h-6.19v1.88h6.19Zm7.44-2.95v-1.76h-6.25v1.76h6.25Zm0,2.95v-1.88h-6.25v1.88h6.25Z"/>
      <path class="cls-1" d="M309,49.73h-5.57c-.87,1.48-1.79,2.68-2.77,3.6,3.28,.98,5.93,1.93,7.95,2.85l-.71,1.09c-2.63-1.23-5.42-2.23-8.36-3-2.66,1.64-6.19,2.62-10.61,2.94l-.67-1.27c3.93-.22,7.13-.95,9.6-2.18-2.25-.55-4.42-1.03-6.5-1.42,.97-.85,1.9-1.72,2.8-2.61h-6.05v-1.16h7.16c.57-.55,1.19-1.27,1.86-2.13l1.3,.39c-.26,.36-.73,.94-1.42,1.75h5.57c.12-.2,.34-.62,.63-1.29l1.27,.12c-.06,.23-.22,.62-.48,1.17h4.99v1.16Zm-.21-11.7h-6.82v2.38h5.5v5.61h-17.71v-5.61h5.5v-2.38h-6.8v-1.22h20.33v1.22Zm-13.54,6.8v-3.25h-4.23v3.25h4.23Zm6.69,4.9h-6c-.63,.67-1.28,1.31-1.95,1.91,1.7,.37,3.46,.79,5.29,1.28,1.05-.91,1.93-1.98,2.66-3.19Zm-1.25-9.32v-2.38h-4.2v2.38h4.2Zm0,4.42v-3.25h-4.2v3.25h4.2Zm5.53,0v-3.25h-4.25v3.25h4.25Z"/>
      <path class="cls-1" d="M319.32,41.52c-.28,2.3-.69,4.23-1.22,5.81l-1.23-.34c.55-1.72,.95-3.6,1.18-5.64l1.27,.16Zm5.09,2.21l-.79,.93c-.66-.79-1.3-1.46-1.92-2.02v14.5h-1.25v-20.98h1.25v4.88c.95,.8,1.85,1.7,2.71,2.7Zm13.32,12.9h-13.7v-1.24h6.69v-6.27h-5.54v-1.22h5.54v-5.31h-3.48c-.61,1.6-1.3,2.97-2.09,4.1l-1.03-.64c1.61-2.74,2.65-5.53,3.12-8.36l1.24,.27c-.22,1.27-.49,2.39-.81,3.36h3.05v-5.09h1.32v5.09h5.27v1.27h-5.27v5.31h4.72v1.22h-4.72v6.27h5.68v1.24Z"/>
      <path class="cls-1" d="M366.53,39.14h-6.43l.94,.77c-.32,.9-.76,1.87-1.32,2.91h5.36v12.6c0,.51-.17,.93-.52,1.28s-1.09,.52-2.23,.52c-.3,0-.65-.02-1.03-.05l-.42-1.24,2.41-.05c.38,0,.56-.19,.56-.57v-11.33h-4.83v2.11c0,.4,.21,.6,.64,.6h3.09v1.14h-3.55c-.34,0-.66-.13-.97-.38s-.47-.54-.47-.85v-2.61h-3.23c-.08,1.19-.53,2.22-1.34,3.11s-1.87,1.49-3.17,1.81l-.6-1.15c2.4-.58,3.68-1.84,3.83-3.77h-4.77v13.22h-1.25v-14.37h5.21c-.4-1.16-.83-2.13-1.3-2.93l.77-.75h-6.18v-1.17h9.77c-.2-.52-.46-1.08-.8-1.68l1.28-.36c.38,.68,.66,1.36,.84,2.04h9.69v1.17Zm-5.54,15.29h-9.62v-5.02h9.62v5.02Zm-1.1-15.29h-7.59c.65,1.48,1.14,2.7,1.49,3.68h4.62c.55-1.1,1.04-2.33,1.49-3.68Zm-.2,14.12v-2.7h-7.08v2.7h7.08Z"/>
      <path class="cls-1" d="M383.54,57.16h-1.24v-1.7h-5.31v1.7h-1.29v-10.51h7.84v10.51Zm-1.27-2.92v-6.34h-5.29v6.34h5.29Zm10.08-10.32h-14.13v-7.12h14.13v7.12Zm-1.25-1.2v-4.71h-11.61v4.71h11.61Zm3.18,14.44h-1.28v-1.7h-5.34v1.7h-1.28v-10.51h7.9v10.51Zm-1.28-2.92v-6.34h-5.34v6.34h5.34Z"/>
      <path class="cls-1" d="M413.38,48.91c-.58-.3-.87-.69-.87-1.16,0-.23,.1-.46,.29-.7s.47-.36,.83-.36c.75,0,1.12,.49,1.12,1.48,0,.8-.47,1.58-1.42,2.33l-.5-.39c.36-.48,.54-.88,.54-1.21Z"/>
      <path class="cls-1" d="M440.5,41.59c-.81,5.75-3.35,10.28-7.61,13.58l-.89-1.01c3.79-2.97,6.12-6.73,6.98-11.3h-6.07v-1.28h7.58Zm12.62,12.34l-.86,1.12c-3.88-2.47-6.8-5.68-8.79-9.64v10.01c0,.54-.1,.94-.3,1.2s-.45,.42-.74,.48-.94,.09-1.92,.09c-.8,0-1.4-.02-1.82-.05l-.42-1.29c1.62,.05,2.72,.07,3.3,.07,.41,0,.62-.21,.62-.62v-19.18h1.28v5.19c0,1.16,.4,2.39,1.2,3.69,2.68-2.05,4.74-4.02,6.18-5.88l1.03,.84c-1.67,2.08-3.86,4.13-6.57,6.16,1.42,2.82,4.03,5.42,7.82,7.8Z"/>
      <path class="cls-1" d="M471.19,43.85h-10.17v-1.21h2.96c-.17-.66-.53-1.6-1.08-2.8l.7-.63h-2.06v-1.15h4.27c-.3-.52-.62-1.03-.94-1.51l1.1-.53c.28,.41,.69,1.09,1.23,2.04h3.6v1.15h-1.99l.82,.54c-.42,1.22-.78,2.18-1.08,2.89h2.64v1.21Zm-1.17,11.75c0,1.02-.62,1.54-1.85,1.54h-1.35l-.43-1.12h1.88c.12,0,.25-.05,.37-.16s.18-.22,.18-.34v-3.41c-1.97,.88-3.54,1.52-4.72,1.92l-.63-.76c-.18,1.24-.62,2.59-1.34,4.03l-1.05-.66c.59-1.09,.98-2.18,1.18-3.27s.3-2.52,.3-4.29v-3.62h7.46v10.15Zm-1.21-4.68v-4.28h-5.06v1.25c1.56,.46,2.97,1,4.22,1.63l-.55,1.05c-.77-.48-2-.98-3.69-1.51-.02,.3-.04,.88-.05,1.73s-.07,1.58-.17,2.16c1.3-.38,3.07-1.06,5.31-2.04Zm-.26-11.72h-4.64c.6,1.37,1.04,2.51,1.32,3.43h1.99c.59-1.27,1.04-2.41,1.32-3.43Zm13.31,15.04c-.09,.91-.33,1.57-.7,1.98s-.97,.61-1.8,.61h-5.5c-.52,0-.93-.19-1.22-.56s-.43-.79-.43-1.27v-11.16h7.24v-2.06h-7.27v-5.58h1.22v1.44h8.17v1.14h-8.17v1.86h7.25v4.37h-7.23v1.58h7.51v1.08h-7.51v1.78h7.51v1.1h-7.51v1.8h7.54v1.15h-7.54v1.54c0,.18,.08,.35,.23,.5s.32,.23,.5,.23h5.06c.39,0,.71-.11,.95-.33s.41-.73,.49-1.55l1.2,.34Z"/>
      <path class="cls-1" d="M499.03,54.27c-2.84,.98-5.84,1.82-9,2.52l-.36-1.23c.88-.17,1.88-.41,3-.71-.44-2.23-.99-4.23-1.65-6l.89-.75h-1.25v-7.08h7.42v7.08h-1.44l.89,.6c-.27,1.51-.7,3.22-1.28,5.14l2.79-.84v1.28Zm-.36-16.32h-8.75v-1.2h8.75v1.2Zm-1.82,8.98v-4.76h-4.97v4.76h4.97Zm-.5,1.17h-4.23c.76,2.27,1.34,4.42,1.73,6.43l1.01-.28c.6-1.88,1.1-3.93,1.49-6.15Zm14.16-10.03h-4.68c-.47,1.58-.75,2.52-.84,2.81h4.49v11.59h-5.84l.75,.67c-1.23,1.51-2.85,2.87-4.88,4.08l-.82-1.01c2.13-1.34,3.66-2.58,4.58-3.74h-2.64v-11.59h3.07c.42-1.2,.69-2.14,.8-2.81h-4.73v-1.2h10.73v1.2Zm-2.29,6.18v-2.24h-6.33v2.24h6.33Zm0,3.47v-2.3h-6.33v2.3h6.33Zm0,3.63v-2.5h-6.33v2.5h6.33Zm2.38,4.82l-.8,1.03c-1.38-1.16-2.8-2.18-4.29-3.07l.82-.94c1.74,1.05,3.16,2.05,4.27,2.98Z"/>
      <path class="cls-1" d="M526.94,36.69c-1.92,4.41-4.47,7.7-7.65,9.89l-.87-.98c3.09-2.06,5.5-5.16,7.25-9.28l1.27,.38Zm8.72,8.43c-.04,2.57-.19,4.88-.46,6.93s-.53,3.32-.79,3.81-.62,.84-1.07,1.05-1.25,.32-2.38,.32c-.49,0-1.13-.02-1.91-.06l-.28-1.29c.88,.08,1.68,.12,2.43,.12s1.18-.05,1.39-.14,.39-.23,.54-.4,.32-.7,.51-1.57,.34-1.95,.45-3.23,.19-2.7,.23-4.25h-6.16c-.54,4.71-3.18,8.41-7.92,11.11l-.77-1.01c4.4-2.47,6.84-5.84,7.32-10.1h-4.54v-1.28h13.42Zm3.88,.32l-.86,1.08c-3.16-2.25-5.36-5.2-6.59-8.84h-1.79v-1.29h2.68c1.2,3.98,3.38,7,6.55,9.05Z"/>
      <path class="cls-1" d="M20.47,83.98c0,1.55-.08,3.05-.25,4.52s-.33,2.42-.5,2.85-.4,.79-.71,1.08-.73,.51-1.26,.65-1.38,.21-2.53,.21l-.48-1.37c.36,.03,1.1,.05,2.23,.05,.39,0,.73-.09,1.01-.26s.48-.42,.6-.74,.25-.98,.39-2,.23-2.27,.27-3.77H4.49c-1.12,1.34-2.38,2.59-3.76,3.73l-.73-1.17c3.72-2.95,6.16-6.56,7.32-10.83H.94v-1.25H7.61c.36-1.59,.59-2.79,.7-3.6l1.22,.27c-.12,.88-.32,1.99-.62,3.33h8.84c-.23,1.35-.52,2.75-.84,4.18h2.38c-.15,1.29-.39,2.66-.73,4.12h1.92Zm-14.57-9.39l-1.1,.68c-.54-.81-1.21-1.64-2.02-2.47l1.08-.68c.78,.79,1.46,1.61,2.04,2.47Zm.62,12.48c-.67,2.23-1.53,4.16-2.57,5.79l-1.15-.62c.99-1.46,1.86-3.29,2.59-5.47l1.12,.3Zm11.26-6H7.1c-.41,.86-.97,1.83-1.7,2.91h11.86c.22-1.08,.39-2.05,.53-2.91Zm-1.54-4.15h-7.64c-.24,.91-.57,1.89-.98,2.93h7.97c.21-.84,.43-1.81,.66-2.93Zm-6.25,15.6l-1.32,.25c.06-1.59-.14-3.51-.62-5.74l1.18-.26c.38,1.69,.63,3.61,.76,5.75Zm3.82-1.27l-1.23,.45c-.27-1.65-.71-3.22-1.31-4.72l1.15-.39c.52,1.37,.99,2.92,1.39,4.66Zm3.43-1.32l-1.14,.53c-.34-1.12-.86-2.34-1.58-3.67l1.08-.53c.61,1.05,1.16,2.28,1.64,3.67Z"/>
      <path class="cls-1" d="M49.78,92.66H28.96v-1.31h20.81v1.31Zm-1.22-18.62H30.15v-1.31h18.41v1.31Zm-.98,8.95H31.16v-1.37h16.42v1.37Z"/>
      <path class="cls-1" d="M77.47,91.46c0,.65-.23,1.1-.7,1.36s-1.51,.39-3.13,.39c-.37,0-.72,0-1.07-.02l-.39-1.31c.59,.05,1.17,.07,1.73,.07,1.14,0,1.8-.05,1.99-.14s.28-.25,.28-.46v-5.79h-6.79v7.03h-1.3v-7.03h-6.84c-.38,3.29-1.21,5.81-2.47,7.56l-1.12-.79c1.62-2.39,2.43-5.27,2.43-8.65v-11.02h17.38v18.8Zm-9.36-13.12v-4.37h-6.71v4.37h6.71Zm0,5.98v-4.66h-6.71v4.66h6.71Zm8.09-5.98v-4.37h-6.79v4.37h6.79Zm0,5.98v-4.66h-6.79v4.66h6.79Z"/>
      <path class="cls-1" d="M99.22,84.16l-.84,.91c-1.16-1.27-2.45-2.42-3.87-3.43l.89-.94c1.59,1.2,2.87,2.35,3.82,3.46Z"/>
      <path class="cls-1" d="M136.25,73.88h-9.87v3.07h8.74v14.02c0,.8-.19,1.36-.57,1.68s-1.11,.47-2.19,.47c-.42,0-1-.02-1.75-.06l-.43-1.31c.63,.04,1.24,.06,1.82,.06,.89,0,1.43-.04,1.61-.13s.27-.28,.27-.59v-12.94h-7.49v15h-1.22v-15h-7.46v14.93h-1.22v-16.12h8.68v-3.07h-9.89v-1.23h20.98v1.23Zm-11.86,14.43l-.74,1.03c-.66-.81-1.31-2.34-1.95-4.58-.77,1.9-1.63,3.43-2.59,4.61l-.8-.94c.89-1.16,1.61-2.43,2.17-3.8s.83-2.16,.83-2.37c0-.16-.02-.34-.07-.53h-2.02v-1.16h3.09c.23,3.51,.92,6.09,2.06,7.73Zm8.93,.09l-.91,.89c-.74-1.15-1.38-2.68-1.91-4.59-.84,1.88-1.7,3.39-2.6,4.55l-.83-.98c.88-1.12,1.61-2.32,2.17-3.62s.85-2.05,.85-2.27c0-.11-.05-.32-.14-.62h-1.99v-1.16h3.14c.11,3.05,.85,5.65,2.23,7.8Z"/>
      <path class="cls-1" d="M163.88,91.46c0,.65-.23,1.1-.7,1.36s-1.51,.39-3.13,.39c-.37,0-.72,0-1.07-.02l-.39-1.31c.59,.05,1.17,.07,1.73,.07,1.14,0,1.8-.05,1.99-.14s.28-.25,.28-.46v-5.79h-6.79v7.03h-1.3v-7.03h-6.84c-.38,3.29-1.21,5.81-2.47,7.56l-1.12-.79c1.62-2.39,2.43-5.27,2.43-8.65v-11.02h17.38v18.8Zm-9.36-13.12v-4.37h-6.71v4.37h6.71Zm0,5.98v-4.66h-6.71v4.66h6.71Zm8.09-5.98v-4.37h-6.79v4.37h6.79Zm0,5.98v-4.66h-6.79v4.66h6.79Z"/>
      <path class="cls-1" d="M185.62,84.16l-.84,.91c-1.16-1.27-2.45-2.42-3.87-3.43l.89-.94c1.59,1.2,2.87,2.35,3.82,3.46Z"/>
      <path class="cls-1" d="M207.94,72.46c-.23,.7-.59,1.54-1.07,2.53l-.71,1.45v16.75h-1.22v-14.54c-.89,1.5-1.84,2.85-2.86,4.05l-.74-1.15c2.1-2.45,3.92-5.61,5.46-9.48l1.14,.39Zm13.49,15.27h-5.7v5.48h-1.2v-5.48h-5.74v-12.13h5.74v-3.39h1.2v3.39h5.7v12.13Zm-6.89-6.84v-4.08h-4.46v4.08h4.46Zm0,5.59v-4.32h-4.46v4.32h4.46Zm5.64-5.59v-4.08h-4.44v4.08h4.44Zm0,5.59v-4.32h-4.44v4.32h4.44Z"/>
      <path class="cls-1" d="M238.1,85.85l-1.01,.43c-.13-.56-.28-1.04-.45-1.44-2.27,.91-4.21,1.52-5.81,1.84l-.46-.93c1.59-1.87,3.04-3.9,4.37-6.11-1.41,.34-2.65,.58-3.73,.7l-.23-.89c1.7-2.88,2.8-5.37,3.3-7.49l1.14,.48c-.55,1.88-1.52,4.06-2.93,6.55,1.13-.16,2.19-.4,3.16-.71,.39-.6,.84-1.59,1.35-2.95l1.03,.57c-.97,2.57-2.87,5.68-5.71,9.34,1.59-.49,2.97-.99,4.12-1.49-.06-.2-.25-.69-.57-1.49l1.01-.43c.49,1.06,.96,2.4,1.41,4.01Zm-5.34,1.72c-.17,1.73-.58,3.57-1.23,5.52l-1.1-.41c.48-1.22,.9-2.99,1.25-5.32l1.08,.21Zm3.07,4.54l-1.1,.27c-.06-1.25-.33-2.89-.8-4.92l1.05-.27c.44,1.82,.72,3.46,.84,4.92Zm2.71-1.2l-1.05,.36c-.33-1.71-.7-3.08-1.1-4.11l1.08-.35c.52,1.51,.88,2.88,1.08,4.1Zm3.84-13.54c-.12,.49-.32,1.13-.62,1.92l-.43,1.15v12.76h-1.12v-10.36c-.44,.79-.86,1.48-1.28,2.06l-.87-.94c1.32-1.95,2.4-4.3,3.25-7.03l1.08,.43Zm8.23,.12h-1.24v-1.9h-9.6v1.9h-1.23v-3.05h5.4c-.16-.42-.48-1.02-.96-1.78l1.05-.57c.52,.77,.94,1.55,1.28,2.36h5.3v3.05Zm.63,1.8h-3.22c-.09,.71-.23,1.49-.43,2.34h2.95v11.57h-1.17v-1.68h-4.49v1.68h-1.2v-11.57h2.66c.2-.77,.36-1.55,.48-2.34h-3.96v-1.09h8.38v1.09Zm-1.88,6.64v-3.19h-4.49v3.19h4.49Zm0,4.49v-3.41h-4.49v3.41h4.49Z"/>
      <path class="cls-1" d="M280.15,87.25h-4.32v3.69c0,.96-.23,1.58-.7,1.86s-1.29,.42-2.49,.42c-.55,0-1.15-.02-1.78-.07l-.53-1.24c.92,.02,1.66,.04,2.21,.04,.74,0,1.26-.02,1.56-.05s.45-.28,.45-.73v-3.9h-15.25v-1.21h15.25v-2.23h-13.03v-1.16h7.68v-2.16h-8.81v-1.17h8.81v-1.62h1.23v1.62h8.68v1.17h-8.68v2.16h7.63v1.16h-2.24v2.23h4.32v1.21Zm-10.63-11.67h-6.68c-.8,1.02-1.6,1.86-2.41,2.52l-.98-.86c1.66-1.2,3.01-2.92,4.05-5.17l1.24,.41c-.32,.61-.69,1.25-1.1,1.92h5.88v1.17Zm-2.91,2.57l-1.2,.5c-.37-.6-.88-1.21-1.55-1.84l1.09-.5c.52,.35,1.07,.96,1.65,1.84Zm1.9,13.14l-1.01,.79c-1.2-1.33-2.39-2.41-3.57-3.23l.97-.82c1.6,1.2,2.8,2.29,3.61,3.27Zm11.34-15.7h-7.61c-.53,.62-1.02,1.11-1.46,1.46l-.96-.71c1.39-1.24,2.38-2.64,2.98-4.18l1.18,.43c-.33,.73-.64,1.34-.94,1.83h6.81v1.17Zm-2.98,2.52l-1.2,.6c-.38-.61-.94-1.24-1.68-1.89l1.17-.57c.7,.57,1.26,1.19,1.7,1.86Z"/>
      <path class="cls-1" d="M298.18,84.91c-.58-.3-.87-.69-.87-1.16,0-.23,.1-.46,.29-.7s.47-.36,.83-.36c.75,0,1.12,.49,1.12,1.48,0,.8-.47,1.58-1.42,2.33l-.5-.39c.36-.48,.54-.88,.54-1.21Z"/>
      <path class="cls-1" d="M324.03,81.94c-.62,.35-1.49,.8-2.62,1.35v7.99c0,.55-.15,.99-.45,1.31s-.69,.48-1.18,.48c-.99,0-1.57,0-1.75-.02l-.36-1.27c.58,.04,1.04,.06,1.39,.06,.48,0,.79-.05,.91-.15s.19-.23,.19-.39v-7.42c-.93,.41-1.9,.8-2.91,1.17l-.41-1.12c.98-.35,2.08-.82,3.32-1.39v-4.72h-3.18v-1.23h3.18v-4.42h1.24v4.42h2.54v1.23h-2.54v4.1c.63-.25,1.43-.64,2.38-1.17l.25,1.2Zm13.84,1.9l-.76,1.1c-1.19-.7-2.17-1.34-2.95-1.95v.91h-7.44v-.84c-1.06,.8-1.96,1.4-2.68,1.8l-.89-.98c3.3-1.85,5.7-4.01,7.22-6.48l1.28,.36-.32,.5c1.39,2.11,3.57,3.96,6.55,5.57Zm-7.9-8.19h-2.02v2.47h-1.24v-2.47h-3.36v-1.17h3.36v-2.2h1.24v2.2h2.02v1.17Zm5.91,17.6h-1.24v-1.42h-8.21v1.42h-1.27v-7.23h10.72v7.23Zm-1.24-2.67v-3.3h-8.21v3.3h8.21Zm-.87-7.9c-1.27-1.02-2.36-2.13-3.27-3.35-1.03,1.26-2.14,2.38-3.33,3.35h6.6Zm4.03-6.98h-3.43v2.45h-1.24v-2.45h-2.14v-1.22h2.14v-2.2h1.24v2.2h3.43v1.22Z"/>
      <path class="cls-1" d="M356.64,74.09h-3.6v3.12h2.91v15.89h-1.21v-1.39h-7.1v1.37h-1.22v-15.87h2.93v-3.12h-3.66v-1.15h10.95v1.15Zm-1.9,16.42v-6.16h-1.1c-1.18,0-1.77-.54-1.77-1.61v-4.37h-1.46c.02,3.65-.72,6.16-2.24,7.54l-.5-.43v5.04h7.08Zm-5.47-12.14h-1.61v6.28c1.07-1.18,1.61-3.27,1.61-6.28Zm4.46,9.5h-5.18v-1.1h5.18v1.1Zm-1.86-10.66v-3.12h-1.39v3.12h1.39Zm2.87,5.93v-4.77h-1.7v4.17c0,.4,.23,.6,.69,.6h1.01Zm11.77,4.54c-.09,2.06-.26,3.35-.5,3.86s-.58,.84-1.02,1.01-1.42,.25-2.94,.25c-1.69,0-2.68-.03-2.99-.09s-.58-.23-.82-.5-.36-.69-.36-1.25v-10.61h6.4v-6.27h-6.76v-1.2h8.02v8.66h-6.46v9.29c0,.17,.07,.33,.21,.47s.33,.22,.58,.23,1.54,.02,3.88,.02c.73,0,1.17-.41,1.32-1.24s.23-1.83,.23-3l1.21,.38Z"/>
      <path class="cls-1" d="M381.94,87.21c-2.56,1.45-4.9,2.7-7.01,3.75l-.53-1.05,3.27-1.65v-6.66h-2.84v-1.12h2.84v-5.45h-3.08v-1.17h7.21v1.17h-2.91v5.45h2.54v1.12h-2.54v5.98c.88-.46,1.8-.96,2.77-1.51l.28,1.15Zm13.54,1.78c-.08,1.09-.25,1.92-.5,2.48s-.57,.94-.93,1.13-1.04,.29-2.05,.29c-.53,0-1-.01-1.39-.04s-.71-.17-.94-.43-.35-.67-.35-1.24v-5.61h-2.21c-.35,3.92-2.53,6.48-6.53,7.69l-.76-1.01c3.76-.98,5.78-3.21,6.07-6.68h-2.47v-12.74h10.39v12.74h-3.27v5.61c0,.18,.07,.32,.22,.41s.62,.14,1.42,.14c.75,0,1.21-.08,1.39-.23s.35-.56,.52-1.21,.25-1.29,.25-1.89l1.15,.57Zm-2.91-12.41v-2.59h-7.97v2.59h7.97Zm0,3.87v-2.71h-7.97v2.71h7.97Zm0,3.96v-2.81h-7.97v2.81h7.97Z"/>
      <path class="cls-1" d="M409.52,72.55c-.23,.63-.57,1.42-1.01,2.37l-.66,1.41v16.89h-1.29v-14.41c-1.01,1.72-1.92,3.04-2.74,3.96l-.71-1.18c1.91-2.33,3.62-5.48,5.16-9.46l1.25,.43Zm14.66,6.75l-8.59,.86c.12,2.84,.54,5.15,1.24,6.94s1.54,3.07,2.51,3.85,1.63,1.17,1.99,1.17c.17,0,.31-.06,.41-.19s.27-.7,.5-1.73,.35-2.05,.35-3.05l1.29,.55c-.1,1.29-.28,2.42-.53,3.4s-.52,1.6-.8,1.88-.64,.41-1.08,.41c-.78,0-1.76-.49-2.94-1.48s-2.13-2.45-2.87-4.37-1.18-4.34-1.35-7.24l-5.13,.53-.12-1.3,5.16-.5c-.12-2.12-.19-3.9-.19-5.36,0-.51,0-1,.02-1.46h1.27c-.03,2.6,.03,4.83,.18,6.68l8.59-.84,.12,1.28Zm-2.04-2.81l-1.08,.64c-.84-1.3-1.93-2.53-3.27-3.69l1.1-.67c1.52,1.25,2.6,2.49,3.25,3.71Z"/>
      <path class="cls-1" d="M439.03,72.48c-.31,.87-.79,2-1.42,3.39l-.96,2.04v15.34h-1.29v-13.09c-.7,1.12-1.52,2.23-2.47,3.34l-.87-1.01c2.13-2.44,4.05-5.89,5.74-10.37l1.27,.36Zm14.04,15.14c0,1.21-.12,2.33-.36,3.36s-.71,1.62-1.4,1.77-2.6,.22-5.71,.22c-.74,0-1.38,0-1.92-.02s-.96-.19-1.27-.52-.46-.77-.46-1.34v-18.96h1.32v8.14h9.33v1.27h-9.33v9.5c0,.16,.05,.3,.16,.44s.24,.21,.39,.21,.68,0,1.59,0c3.23,0,5.08-.06,5.55-.19s.75-1.59,.82-4.41l1.27,.5Z"/>
      <path class="cls-1" d="M481.82,75.62h-17.45v7.56c0,4.15-.79,7.45-2.38,9.91l-1.05-.83c1.49-2.33,2.24-5.73,2.24-10.21v-7.68h8.64c-.15-.53-.4-1.16-.76-1.9l1.2-.36c.44,.98,.74,1.74,.91,2.26h8.66v1.24Zm-10.61,1.28c-.49,1.12-.95,2.1-1.38,2.94l-.63,1.18v12.16h-1.23v-10.05c-.58,.84-1.32,1.78-2.23,2.81l-.71-1.1c1.91-2.17,3.57-4.93,4.99-8.29l1.2,.34Zm10.61,4.75h-2.52v9.66c0,1.26-.58,1.89-1.75,1.89-1.67,0-2.81-.02-3.41-.07l-.46-1.27c1.4,.08,2.69,.12,3.87,.12,.35,0,.53-.17,.53-.5v-9.82h-7.35v-1.24h7.35v-3.64h1.22v3.64h2.52v1.24Zm-6.12,6.48l-1.05,.68c-.73-1.62-1.72-3.14-2.98-4.54l1.03-.73c1.34,1.61,2.34,3.14,3,4.58Z"/>
      <path class="cls-1" d="M497.69,90.27c-1.86,1.16-4.26,2.2-7.2,3.12l-.8-1.03c2.95-.86,5.3-1.87,7.08-3.02l.91,.94Zm13.05-1.95h-21v-1.21h2.43v-14.23h16.03v14.2h2.54v1.23Zm-3.79-11.98v-2.31h-13.49v2.31h13.49Zm0,3.48v-2.33h-13.49v2.33h13.49Zm0,3.57v-2.47h-13.49v2.47h13.49Zm0,3.67v-2.54h-13.49v2.54h13.49Zm3.74,5.33l-.81,1.01c-2.08-1.17-4.5-2.16-7.25-2.98l.62-1.05c3.07,.95,5.55,1.95,7.44,3.02Z"/>
      <path class="cls-1" d="M526.99,75.87h-8.5v-1.25h3.75c-.21-.7-.53-1.4-.96-2.11l1.1-.5c.48,.77,.87,1.64,1.17,2.61h3.43v1.25Zm-.67,7.01h-7.37v-1.21h7.37v1.21Zm.02-3.53h-7.37v-1.21h7.37v1.21Zm-.36,13.34h-1.24v-1.31h-4.35v1.77h-1.24v-7.99h6.83v7.54Zm-1.24-2.54v-3.71h-4.35v3.71h4.35Zm14.64,2.1l-.71,1.03c-2.43-.8-4.3-1.73-5.62-2.77-1.54,1.09-3.46,1.97-5.75,2.64l-.75-1.03c2.41-.71,4.23-1.53,5.45-2.45-1.66-1.52-2.86-3.56-3.62-6.12h-.82v-1.22h10.05v1.22c-1.03,2.8-2.23,4.85-3.6,6.14,1.36,.98,3.15,1.83,5.38,2.55Zm-.09-11.33h-2.33c-1.15,0-1.72-.55-1.72-1.65v-5.17h-4.23c-.04,2.21-.33,3.85-.88,4.93s-1.31,1.92-2.28,2.54l-.94-.87c.95-.6,1.69-1.43,2.2-2.48s.75-2.82,.71-5.31h6.62v6c0,.54,.27,.81,.8,.81h2.06v1.21Zm-3.05,2.64h-6.6c.83,2.36,1.95,4.14,3.38,5.33,1.43-1.32,2.5-3.1,3.22-5.33Z"/>
      <path class="cls-1" d="M10.05,112.32H.12v-1.25H4.65c-.35-.81-.83-1.67-1.43-2.57l1.2-.48c.53,.73,1.07,1.75,1.63,3.05h4.01v1.25Zm-1.22,3.43H1.23v-1.21h7.61v1.21Zm0,3.38H1.23v-1.17h7.61v1.17Zm0,9.84h-1.23v-1.17H2.47v1.36H1.23v-7.72h7.61v7.54Zm-1.23-2.45v-3.89H2.47v3.89H7.61Zm13.44-10.17h-4.79v12.86h-1.3v-12.86h-4.78v-1.28h4.78v-6.83h1.3v6.83h4.79v1.28Z"/>
      <path class="cls-1" d="M49.82,128.26l-.74,1.1c-2.68-1.3-4.75-2.55-6.22-3.75-1.84,1.43-4.49,2.66-7.95,3.7l-.81-1.14c3.13-.77,5.72-1.91,7.77-3.42-1.84-1.89-3.52-4.57-5.04-8.05h-.46c-.7,4.41-2.95,8.54-6.74,12.36l-.94-.98c2.46-2.5,4.19-4.91,5.19-7.24s1.67-5.93,2.01-10.8h-5.32v-1.27h15.71c-.58,1.8-1.36,4.02-2.36,6.67h4.42c-.93,4.09-2.43,7.21-4.49,9.34,1.35,1.12,3.34,2.28,5.95,3.48Zm-5.33-18.22h-7.31c-.21,2.41-.39,4.21-.53,5.4h5.98c.77-2.09,1.39-3.89,1.86-5.4Zm2.26,6.67h-8.54c1.45,3.23,3,5.64,4.68,7.25,1.69-1.65,2.98-4.07,3.87-7.25Z"/>
      <path class="cls-1" d="M62.54,117.36l-.75,.94c-1.32-1.22-2.66-2.21-4.03-2.98l.7-1.03c2,1.27,3.36,2.29,4.08,3.07Zm.46,4.17c-1.13,2.69-2.57,5.23-4.3,7.63l-.91-.76c1.5-2.01,2.9-4.47,4.21-7.39l1.01,.53Zm.07-10.17l-.77,.98c-.96-1.12-2.22-2.21-3.79-3.29l.76-.94c1.59,1.08,2.86,2.16,3.8,3.25Zm15.53,3.87h-5.02c.02,.66,0,1.4-.07,2.2h4.32v10.1c0,1.14-.68,1.71-2.04,1.71-.32,0-.73-.01-1.23-.04l-.46-1.2c.95,.02,1.61,.02,1.99,0s.57-.2,.57-.55v-8.88h-3.21c-.03,.38-.08,.74-.14,1.1,1.12,1.65,2.1,3.46,2.94,5.43l-.9,.8c-.79-1.91-1.56-3.44-2.31-4.61-.54,1.87-1.36,3.4-2.45,4.61l-.89-.73c1.51-1.66,2.36-3.86,2.57-6.6h-3.16c-.02,.41-.05,.82-.09,1.23,1.16,1.11,1.87,1.84,2.13,2.2l-.69,.91c-.72-.85-1.28-1.45-1.69-1.8-.43,1.94-1.21,3.51-2.34,4.71l-.82-.77c1.4-1.53,2.19-3.69,2.38-6.48h-2.86v10.66h-1.2v-11.81h4.05c.07-.88,.09-1.62,.07-2.2h-4.83v-1.14h15.36v1.14Zm.02-3.75h-4.17v1.99h-1.16v-1.99h-4.43v1.99h-1.18v-1.99h-4.1v-1.15h4.1v-2.06h1.18v2.06h4.43v-2.06h1.16v2.06h4.17v1.15Zm-6.26,3.75h-3.13c0,.27-.02,1.01-.07,2.2h3.14l.06-2.2Z"/>
      <path class="cls-1" d="M107.47,127.32l-.48,1.2c-3.59,0-6.41-.02-8.44-.06s-3.69-.38-4.99-1-2.28-1.54-2.97-2.75c-.74,1.44-1.87,2.93-3.38,4.49l-1.03-.88c2.77-2.46,4.49-5.73,5.18-9.82l1.25,.07c-.19,1.32-.65,2.92-1.39,4.8,1.06,2.2,2.81,3.43,5.25,3.71v-10.51h-7.34v-7.88h15.35v7.88h-6.79v4.32h8.25v1.2h-8.25v5.17c3.72,.09,6.97,.11,9.76,.07Zm-4.24-12v-5.43h-12.8v5.43h12.8Z"/>
      <path class="cls-1" d="M121.22,108.67c-.17,.52-.49,1.35-.96,2.47l-.71,1.66v16.49h-1.23v-14.1c-.9,1.57-1.74,2.81-2.52,3.73l-.69-1.15c1.68-2.01,3.35-5.2,5.02-9.59l1.1,.48Zm15,3.29h-7.08v2.84h5.91v6.19h-6.02c-.13,1.93-.54,3.47-1.21,4.63,2.09,1.2,4.88,2.01,8.38,2.45l-.48,1.21c-3.46-.41-6.34-1.3-8.64-2.65-1.45,1.55-3.46,2.45-6.02,2.72l-.5-1.14c2.48-.33,4.31-1.09,5.47-2.3-1.48-1.09-2.62-2.22-3.43-3.41l1.05-.6c.67,.98,1.7,1.98,3.07,3.02,.56-.85,.91-2.16,1.05-3.94h-5.93v-6.19h6.02v-2.84h-6.79v-1.17h6.79v-2.43h1.28v2.43h7.08v1.17Zm-8.4,4.03h-4.68v3.8h4.63c.05-1.39,.07-2.66,.05-3.8Zm5.98,3.8v-3.8h-4.63c0,1.24-.02,2.51-.07,3.8h4.7Z"/>
      <path class="cls-1" d="M163.88,127.46c0,.65-.23,1.1-.7,1.36s-1.51,.39-3.13,.39c-.37,0-.72,0-1.07-.02l-.39-1.31c.59,.05,1.17,.07,1.73,.07,1.14,0,1.8-.05,1.99-.14s.28-.25,.28-.46v-5.79h-6.79v7.03h-1.3v-7.03h-6.84c-.38,3.29-1.21,5.81-2.47,7.56l-1.12-.79c1.62-2.39,2.43-5.27,2.43-8.65v-11.02h17.38v18.8Zm-9.36-13.12v-4.37h-6.71v4.37h6.71Zm0,5.98v-4.66h-6.71v4.66h6.71Zm8.09-5.98v-4.37h-6.79v4.37h6.79Zm0,5.98v-4.66h-6.79v4.66h6.79Z"/>
      <path class="cls-1" d="M193.75,116.47h-7.97c-1.19,.97-2.55,1.91-4.1,2.81h9.3v9.88h-1.24v-1.24h-10.76v1.24h-1.24v-7.97c-1.05,.47-2.44,.97-4.15,1.51l-.7-1.12c4.22-1.24,7.84-2.95,10.85-5.11h-10.78v-1.2h8.95v-3.43h-6.71v-1.21h6.71v-2.54h1.28v2.54h4.85v1.21h-4.85v3.43h2.16c1.98-1.67,3.96-3.71,5.95-6.11l.94,.75c-1.6,1.98-3.27,3.77-5.02,5.36h6.53v1.2Zm-4.01,6.55v-2.54h-10.39l-.36,.14v2.4h10.76Zm0,3.67v-2.46h-10.76v2.46h10.76Z"/>
      <path class="cls-1" d="M222.6,119.91h-9.94c-.34,.9-.67,1.62-.98,2.18h9.34v5.36c0,1.12-.83,1.68-2.5,1.68-.34,0-.78-.02-1.3-.07l-.35-1.17c.47,.05,.93,.07,1.39,.07,.72,0,1.15-.05,1.3-.15s.22-.26,.22-.5v-4.09h-4.29v5.62h-1.17v-5.62h-4.25v5.6h-1.17v-5.6h-4.35v6.06h-1.17v-7.18h7.01c.31-.59,.63-1.32,.96-2.18h-9.61v-1.1h20.86v1.1Zm-.5-3.14h-1.2v-3.94h-8.12v5.34h-1.2v-5.34h-8.09v3.96h-1.21v-5.06h9.29v-1.8h-8.52v-1.08h18.16v1.08h-8.45v1.8h9.32v5.04Zm-11.43,.05c-1.57,.48-3.45,.81-5.64,.98l-.57-1.09c2.02-.07,3.93-.36,5.73-.86l.48,.96Zm-.07-2.45l-.48,1.05c-1.97-.47-3.75-.73-5.36-.8l.43-1.03c1.98,.13,3.78,.39,5.4,.77Zm9.34,.26c-1.59,.41-3.46,.66-5.61,.75l-.48-1.1c1.6,.02,3.46-.2,5.57-.66l.53,1.01Zm.19,2.24l-.53,1.03c-1.69-.45-3.57-.78-5.66-.98l.6-1.03c2.26,.31,4.12,.64,5.59,.98Z"/>
      <path class="cls-1" d="M238.85,121.39c-2.91,2.73-5.48,4.7-7.7,5.93l-.73-1.08c2.38-1.34,4.93-3.34,7.68-5.98l.75,1.12Zm12.48,4.82l-.75,1.09c-4.23-1.82-7.21-4.31-8.92-7.46v7.49c0,.68-.24,1.15-.71,1.41s-1.38,.39-2.71,.39c-.44,0-.88-.01-1.31-.04l-.55-1.29c.67,.03,1.78,.05,3.32,.05,.19,0,.35-.08,.49-.23s.21-.31,.21-.47v-13.68h-9.76v-1.24h9.76v-4.02h1.28v4.02h9.57v1.24h-9.57v3.5c.23,.68,.66,1.52,1.29,2.52,2.26-1.29,4.2-2.77,5.84-4.44l1.01,.87c-1.47,1.52-3.52,3.05-6.14,4.61,1.3,2.1,3.86,4,7.68,5.68Zm-14.33-7.27l-.89,.96c-1.12-1.38-2.55-2.68-4.27-3.91l.87-.94c1.79,1.3,3.22,2.6,4.29,3.89Zm11.62-8.26l-.87,.96c-.81-.77-1.89-1.56-3.22-2.37l.77-.96c1.44,.86,2.54,1.65,3.32,2.37Z"/>
      <path class="cls-1" d="M269.38,120.91c-.58-.3-.87-.69-.87-1.16,0-.23,.1-.46,.29-.7s.47-.36,.83-.36c.75,0,1.12,.49,1.12,1.48,0,.8-.47,1.58-1.42,2.33l-.5-.39c.36-.48,.54-.88,.54-1.21Z"/>
      <path class="cls-1" d="M298.3,110.84h-6.87c-.72,.83-1.59,1.61-2.61,2.34l-.77-.9c1.76-1.4,3.14-2.82,4.15-4.25l1.11,.46c-.15,.24-.45,.66-.89,1.25h5.88v1.1Zm-.84,8.66h-6.87v9.64h-1.17v-15.5h8.04v5.86Zm-1.2-3.5v-1.22h-5.67v1.22h5.67Zm0,2.38v-1.35h-5.67v1.35h5.67Zm-.91-5.7l-1.18,.39c-.17-.39-.43-.86-.76-1.39l1.1-.35,.84,1.36Zm7.92,14.33h-9.48v-6.12h9.48v6.12Zm-1.21-3.74v-1.25h-7.1v1.25h7.1Zm0,2.61v-1.51h-7.1v1.51h7.1Zm6.6-15.05h-7.97c-.42,.62-1.06,1.32-1.91,2.11l-.89-.82c1.32-1.18,2.4-2.51,3.23-3.98l1.08,.34c-.16,.41-.4,.82-.71,1.25h7.17v1.1Zm-1.1,16.77c0,.57-.18,.98-.53,1.22s-.88,.36-1.58,.36h-.91l-.43-1.22c.41,.04,.83,.06,1.24,.06,.7,0,1.04-.23,1.04-.7v-7.83h-6.73v-5.86h7.9v13.97Zm-1.17-11.61v-1.22h-5.54v1.22h5.54Zm0,2.38v-1.35h-5.54v1.35h5.54Zm-1.32-5.72l-1.2,.43c-.26-.52-.59-1-.98-1.44l1.22-.38c.39,.5,.71,.96,.96,1.38Z"/>
      <path class="cls-1" d="M322.04,108.39c-.16,.76-.45,1.75-.84,2.99l-.6,1.76v16.05h-1.21v-13.2c-.78,1.61-1.49,2.84-2.13,3.69l-.77-1.15c1.59-2.2,3.05-5.7,4.37-10.49l1.18,.34Zm8.59,13.24l-.87,1.03c-.72-1.25-1.64-2.47-2.77-3.67v10.22h-1.17v-10.34c-1.22,2.5-2.44,4.48-3.67,5.93l-.98-.84c1.67-1.88,3.23-4.59,4.68-8.11h-3.89v-1.21h3.87v-3.55c-1.28,.38-2.33,.66-3.14,.82l-.43-1.17c2.74-.59,5.05-1.39,6.94-2.4l.76,1.03c-.82,.42-1.8,.84-2.95,1.27v4.01h3.5v1.21h-3.5v1.36c1.48,1.55,2.69,3.03,3.63,4.42Zm2.43,2.93h-1.21v-14.68h1.21v14.68Zm4.01,2.93c0,.34-.12,.66-.35,.97s-.51,.52-.83,.63-1.11,.16-2.36,.16c-.36,0-.7-.01-1.01-.04l-.46-1.24c1.88,.06,2.97,.04,3.29-.07s.47-.32,.47-.64v-19.01h1.23v19.24Z"/>
      <path class="cls-1" d="M350.69,123.05c-1.2,2.23-2.58,4.25-4.12,6.07l-.89-.98c1.37-1.49,2.71-3.44,4.03-5.85l.98,.76Zm-.55-3.36l-.76,1.07c-.95-.88-2.18-1.7-3.68-2.47l.75-1.01c1.73,.92,2.96,1.73,3.69,2.41Zm5.43-8.47h-3.02v1.71h-1.23v-1.71h-5.59v-1.2h5.59v-1.85h1.23v1.85h3.02v1.2Zm-4.39,4.23l-.74,1.05c-.91-.85-2.2-1.73-3.87-2.64l.71-.98c1.59,.84,2.89,1.69,3.89,2.57Zm15.53,5.36l-.5,1.2c-3.19-.54-5.75-1.32-7.7-2.36-2.3,1.07-4.76,1.85-7.39,2.33l-.71-1.1c2.84-.51,5.13-1.17,6.86-1.99-.75-.52-1.65-1.32-2.71-2.4-1.02,.7-1.88,1.23-2.57,1.58l-.82-.96c2.51-1.3,4.58-2.9,6.22-4.82l1.12,.53c-.28,.4-.69,.87-1.23,1.41h7.3v1.16c-1.37,1.34-2.96,2.54-4.78,3.57,1.78,.85,4.09,1.47,6.91,1.85Zm-2.3,8.27h-1.28v-1.31h-8.84v1.31h-1.29v-6.62h11.4v6.62Zm-1.28-2.54v-2.88h-8.84v2.88h8.84Zm-.36-11.16h-6.76c-.12,.15-.28,.29-.46,.41,.92,1.02,1.91,1.85,2.95,2.5,1.41-.73,2.83-1.7,4.27-2.91Zm3.82-4.16h-5.68v1.71h-1.23v-1.71h-3.02v-1.2h3.02v-1.85h1.23v1.85h5.68v1.2Z"/>
      <path class="cls-1" d="M387.22,120.16l-.84,.91c-1.16-1.27-2.45-2.42-3.87-3.43l.89-.94c1.59,1.2,2.87,2.35,3.82,3.46Z"/>
      <path class="cls-1" d="M424.27,128.24l-.94,.95c-4.99-3.52-8.2-8.35-9.62-14.5-1.02,5.61-4.2,10.43-9.55,14.45l-.87-1.03c1.82-1.24,3.48-2.8,4.99-4.66s2.66-3.92,3.45-6.17,1.21-5.28,1.27-9.11h1.34c-.05,4.43,.84,8.35,2.65,11.77s4.24,6.19,7.29,8.3Z"/>
      <path class="cls-1" d="M434.52,113.52c-.28,2.3-.69,4.23-1.22,5.81l-1.23-.34c.55-1.72,.95-3.6,1.18-5.64l1.27,.16Zm5.09,2.21l-.79,.93c-.66-.79-1.3-1.46-1.92-2.02v14.5h-1.25v-20.98h1.25v4.88c.95,.8,1.85,1.7,2.71,2.7Zm13.32,12.9h-13.7v-1.24h6.69v-6.27h-5.54v-1.22h5.54v-5.31h-3.48c-.61,1.6-1.3,2.97-2.09,4.1l-1.03-.64c1.61-2.74,2.65-5.53,3.12-8.36l1.24,.27c-.22,1.27-.49,2.39-.81,3.36h3.05v-5.09h1.32v5.09h5.27v1.27h-5.27v5.31h4.72v1.22h-4.72v6.27h5.68v1.24Z"/>
      <path class="cls-1" d="M467.83,108.48c-.31,.87-.79,2-1.42,3.39l-.96,2.04v15.34h-1.29v-13.09c-.7,1.12-1.52,2.23-2.47,3.34l-.87-1.01c2.13-2.44,4.05-5.89,5.74-10.37l1.27,.36Zm14.04,15.14c0,1.21-.12,2.33-.36,3.36s-.71,1.62-1.4,1.77-2.6,.22-5.71,.22c-.74,0-1.38,0-1.92-.02s-.96-.19-1.27-.52-.46-.77-.46-1.34v-18.96h1.32v8.14h9.33v1.27h-9.33v9.5c0,.16,.05,.3,.16,.44s.24,.21,.39,.21,.68,0,1.59,0c3.23,0,5.08-.06,5.55-.19s.75-1.59,.82-4.41l1.27,.5Z"/>
      <path class="cls-1" d="M494.98,120.39c0,4.09-1.51,6.99-4.54,8.71l-.89-.94c2.83-1.55,4.24-4.16,4.24-7.82v-8.88h1.18v8.93Zm3.23,2.2h-1.15v-12.62h-5.36v12.62h-1.2v-13.82h7.7v13.82Zm.89,5.33l-1.01,.62c-.69-1.28-1.66-2.65-2.91-4.1l1.01-.69c1.38,1.6,2.35,2.99,2.91,4.17Zm11.47-14.38h-5.73v5.13h4.68v10.51h-1.25v-1.68h-7.22v1.68h-1.28v-10.51h3.82v-10.43h1.25v4.1h5.73v1.2Zm-2.33,12.75v-6.43h-7.2v6.43h7.2Z"/>
      <path class="cls-1" d="M522.89,116.16c-.98,4.37-2.11,7.81-3.36,10.32l-1.17-.82c1.36-2.44,2.44-5.74,3.23-9.9l1.3,.4Zm11.84,6.2c-.09,1.52-.23,2.78-.42,3.79s-.4,1.67-.64,1.97-.57,.52-.97,.63-1.36,.18-2.85,.18c-1.11,0-2.03-.03-2.77-.08s-1.27-.23-1.59-.53-.49-.73-.49-1.29v-13.32h1.3v12.96c0,.22,.07,.41,.2,.59s.27,.27,.4,.3,.73,.05,1.8,.06h3.12c.24,.01,.48-.09,.73-.3s.44-.9,.6-2.09,.23-2.3,.21-3.33l1.37,.46Zm-2.24-7.73l-1.08,.87c-1.22-2.19-3.02-4.36-5.4-6.53l.98-.89c2.27,2.09,4.1,4.28,5.5,6.55Zm6.89,10.46l-1.35,.48c-.6-2.66-1.83-5.7-3.69-9.12l1.17-.69c1.83,3.6,3.12,6.71,3.87,9.33Z"/>
      <path class="cls-1" d="M2.54,159.57c-.27,2-.72,3.9-1.35,5.7l-1.2-.53c.59-1.43,1.06-3.23,1.42-5.4l1.12,.23Zm5.88-1.51l-1.15,.39c-.09-.44-.21-.89-.36-1.37-2.42,.67-4.55,1.18-6.39,1.51l-.39-1.34c1.77-1.59,3.29-3.4,4.56-5.45-2.11,.34-3.45,.55-4.03,.62l-.33-1.2c1.52-1.84,2.8-4.17,3.86-6.98l1.16,.38c-.84,2.25-1.96,4.38-3.36,6.39,1.07-.09,2.22-.25,3.46-.5,.63-1.01,1.19-2.03,1.68-3.07l1.14,.46c-2.02,3.99-4.1,7.04-6.22,9.14,1.31-.2,2.81-.55,4.49-1.05-.2-.59-.41-1.14-.64-1.63l1.08-.39c.61,1.26,1.1,2.62,1.46,4.1Zm-2.86,6.22l-1.24,.23c-.07-1.55-.29-3.22-.66-4.99l1.16-.19c.37,1.53,.61,3.18,.74,4.95Zm2.81-1.11l-1.15,.41c-.13-1.14-.48-2.57-1.04-4.29l1.14-.36c.52,1.53,.88,2.95,1.05,4.24Zm12.12,.27c0,.41-.14,.77-.41,1.1s-.59,.52-.96,.6-1.09,.09-2.18,.05l-.53-1.31c.51,.02,.95,.02,1.31,.02,.72,0,1.16-.05,1.31-.14s.23-.26,.23-.5v-17.19H10.17v19.1h-1.22v-20.27h11.54v18.55Zm-1.92-11.4h-7.7v-1.17h1.92c-.26-.95-.65-1.96-1.18-3.05l1.14-.46c.49,1.06,.94,2.23,1.34,3.5h1.35c.56-1,1.1-2.18,1.61-3.55l1.1,.43c-.22,.66-.66,1.7-1.34,3.12h1.77v1.17Zm0,4.37h-5.13v3.55c0,.41,.19,.62,.57,.62h4.23v1.12h-4.35c-1.12,0-1.68-.57-1.68-1.72v-3.57h-1.35v-1.15h3.74c-.19-.59-.49-1.32-.91-2.19l1.18-.41c.27,.59,.62,1.46,1.03,2.6h2.66v1.15Z"/>
      <path class="cls-1" d="M39.22,147.62h-6.57c-1.03,1.32-2.02,2.33-2.95,3.02l-.82-.88c1.93-1.54,3.43-3.41,4.49-5.6l1.18,.53c-.62,1.05-.99,1.63-1.09,1.76h5.77v1.17Zm.23,16.37l-1.08,.6c-.38-.91-.7-1.57-.96-1.97-2.46,.88-4.66,1.55-6.6,2.02l-.6-1.05c.21-.23,.32-.5,.32-.79v-11.5h8.27v7.44h-7.01v4.36c1.45-.34,3.1-.85,4.95-1.51-.25-.47-.55-.91-.91-1.31l1.05-.63c1.15,1.54,2,2.99,2.57,4.35Zm-1.86-9.62v-1.88h-5.79v1.88h5.79Zm0,3.14v-1.97h-5.79v1.97h5.79Zm-.98-7.17l-1.14,.5c-.3-.62-.76-1.3-1.36-2.04l1.17-.5c.56,.7,1,1.38,1.32,2.04Zm12.94-2.72h-7.62c-.73,1.12-1.48,2.04-2.25,2.74l-.96-.82c1.55-1.39,2.76-3.19,3.64-5.4l1.15,.48c-.19,.57-.47,1.18-.86,1.83h6.89v1.17Zm-.94,14.21c0,.73-.22,1.21-.67,1.41s-1.6,.31-3.46,.31l-.5-1.24c1.97,0,3.03-.03,3.19-.1s.24-.21,.24-.43v-9.29h-5.16v12.8h-1.22v-13.97h7.58v10.51Zm-2.45-11.59l-1.12,.48c-.38-.63-.89-1.29-1.52-1.97l1.14-.43c.62,.65,1.13,1.29,1.51,1.92Z"/>
      <path class="cls-1" d="M66.19,147.87h-8.5v-1.25h3.75c-.21-.7-.53-1.4-.96-2.11l1.1-.5c.48,.77,.87,1.64,1.17,2.61h3.43v1.25Zm-.67,7.01h-7.37v-1.21h7.37v1.21Zm.02-3.53h-7.37v-1.21h7.37v1.21Zm-.36,13.34h-1.24v-1.31h-4.35v1.77h-1.24v-7.99h6.83v7.54Zm-1.24-2.54v-3.71h-4.35v3.71h4.35Zm14.64,2.1l-.71,1.03c-2.43-.8-4.3-1.73-5.62-2.77-1.54,1.09-3.46,1.97-5.75,2.64l-.75-1.03c2.41-.71,4.23-1.53,5.45-2.45-1.66-1.52-2.86-3.56-3.62-6.12h-.82v-1.22h10.05v1.22c-1.03,2.8-2.23,4.85-3.6,6.14,1.36,.98,3.15,1.83,5.38,2.55Zm-.09-11.33h-2.33c-1.15,0-1.72-.55-1.72-1.65v-5.17h-4.23c-.04,2.21-.33,3.85-.88,4.93s-1.31,1.92-2.28,2.54l-.94-.87c.95-.6,1.69-1.43,2.2-2.48s.75-2.82,.71-5.31h6.62v6c0,.54,.27,.81,.8,.81h2.06v1.21Zm-3.05,2.64h-6.6c.83,2.36,1.95,4.14,3.38,5.33,1.43-1.32,2.5-3.1,3.22-5.33Z"/>
      <path class="cls-1" d="M96.46,148.32h-9.94v-1.25h4.54c-.35-.81-.83-1.67-1.43-2.57l1.2-.48c.53,.73,1.07,1.75,1.63,3.05h4.01v1.25Zm-1.22,3.43h-7.61v-1.21h7.61v1.21Zm0,3.38h-7.61v-1.17h7.61v1.17Zm0,9.84h-1.23v-1.17h-5.13v1.36h-1.24v-7.72h7.61v7.54Zm-1.23-2.45v-3.89h-5.13v3.89h5.13Zm13.44-10.17h-4.79v12.86h-1.3v-12.86h-4.78v-1.28h4.78v-6.83h1.3v6.83h4.79v1.28Z"/>
      <path class="cls-1" d="M125.38,156.91c-.58-.3-.87-.69-.87-1.16,0-.23,.1-.46,.29-.7s.47-.36,.83-.36c.75,0,1.12,.49,1.12,1.48,0,.8-.47,1.58-1.42,2.33l-.5-.39c.36-.48,.54-.88,.54-1.21Z"/>
      <path class="cls-1" d="M151.2,160.3c-1.4,.66-3.66,1.6-6.79,2.82l-.34-1.24c1.64-.6,2.73-1.01,3.27-1.23v-8.87h-3.07v-1.18h3.07v-6.09h1.22v6.09h2.11v1.18h-2.11v8.32c.38-.12,1.21-.46,2.5-1.03l.14,1.23Zm12.91-5.54h-12.5v-7.25h12.5v7.25Zm-.83,10.43h-1.23v-1.08h-8.3v1.08h-1.25v-8.85h10.78v8.85Zm-6.05-11.64v-4.88h-4.39v4.88h4.39Zm-.98-7.22l-.96,.76c-.66-1-1.27-1.77-1.8-2.3l1.01-.7c.64,.62,1.23,1.37,1.76,2.24Zm5.8,13.2v-1.99h-8.3v1.99h8.3Zm0,3.39v-2.21h-8.3v2.21h8.3Zm-6.02-10.56l-1.08,.43c-.24-1-.6-1.93-1.08-2.79l.98-.5c.52,1.03,.91,1.98,1.17,2.86Zm6.87,1.2v-4.88h-4.46v4.88h4.46Zm-.57-8.82c-.62,.94-1.3,1.72-2.06,2.34l-1.01-.74c.95-.86,1.62-1.61,2.02-2.24l1.05,.63Zm-.46,5.16c-.27,1.05-.78,2.08-1.51,3.09l-.96-.5c.56-.85,1.06-1.88,1.49-3.07l.98,.48Z"/>
      <path class="cls-1" d="M177.33,157.83c-.94,2.88-2.12,5.3-3.55,7.24l-1.01-.89c1.39-1.8,2.56-4.17,3.5-7.12l1.05,.77Zm.29-4.37l-.84,.98c-.8-.88-2.1-1.89-3.89-3.05l.77-1.01c1.73,1.16,3.05,2.19,3.96,3.07Zm.62-6.09l-.82,.96c-1.09-1.16-2.36-2.25-3.79-3.27l.76-.94c1.52,1.02,2.8,2.11,3.84,3.25Zm15.57,8.43l-.82,1.05c-3.13-1.97-5.2-4.13-6.19-6.48h-2.31c-1.27,2.53-3.35,4.73-6.23,6.6l-.89-.98c2.58-1.56,4.48-3.43,5.7-5.61h-5.07v-1.23h5.72c.48-1.05,.88-2.13,1.2-3.26h-5.75v-1.18h13.27v1.18h-6.19c-.41,1.34-.79,2.43-1.15,3.26h8.5v1.23h-5.43c.7,1.8,2.59,3.61,5.66,5.43Zm-11.57,1.22c-1.09,2.91-2.27,5.08-3.53,6.53l-.98-.71c1.2-1.34,2.35-3.49,3.43-6.46l1.08,.64Zm2.88,6.57c0,.42-.13,.79-.4,1.1s-.94,.47-2.03,.47c-.35,0-.7-.02-1.03-.06l-.53-1.27,1.89,.02c.35,0,.58-.04,.7-.12s.17-.23,.17-.46v-9.48h1.23v9.79Zm4.15-.26l-1.17,.46c-.37-2.26-1.02-4.53-1.95-6.82l1.17-.36c.87,2.11,1.52,4.35,1.95,6.73Zm3.82-.15l-1.14,.43c-.41-1.78-1.29-4.04-2.64-6.79l1.15-.41c1.24,2.41,2.12,4.67,2.62,6.76Z"/>
      <path class="cls-1" d="M207.62,144.67c-.17,.52-.49,1.35-.96,2.47l-.71,1.66v16.49h-1.23v-14.1c-.9,1.57-1.74,2.81-2.52,3.73l-.69-1.15c1.68-2.01,3.35-5.2,5.02-9.59l1.1,.48Zm15,3.29h-7.08v2.84h5.91v6.19h-6.02c-.13,1.93-.54,3.47-1.21,4.63,2.09,1.2,4.88,2.01,8.38,2.45l-.48,1.21c-3.46-.41-6.34-1.3-8.64-2.65-1.45,1.55-3.46,2.45-6.02,2.72l-.5-1.14c2.48-.33,4.31-1.09,5.47-2.3-1.48-1.09-2.62-2.22-3.43-3.41l1.05-.6c.67,.98,1.7,1.98,3.07,3.02,.56-.85,.91-2.16,1.05-3.94h-5.93v-6.19h6.02v-2.84h-6.79v-1.17h6.79v-2.43h1.28v2.43h7.08v1.17Zm-8.4,4.03h-4.68v3.8h4.63c.05-1.39,.07-2.66,.05-3.8Zm5.98,3.8v-3.8h-4.63c0,1.24-.02,2.51-.07,3.8h4.7Z"/>
      <path class="cls-1" d="M250.28,163.46c0,.65-.23,1.1-.7,1.36s-1.51,.39-3.13,.39c-.37,0-.72,0-1.07-.02l-.39-1.31c.59,.05,1.17,.07,1.73,.07,1.14,0,1.8-.05,1.99-.14s.28-.25,.28-.46v-5.79h-6.79v7.03h-1.3v-7.03h-6.84c-.38,3.29-1.21,5.81-2.47,7.56l-1.12-.79c1.62-2.39,2.43-5.27,2.43-8.65v-11.02h17.38v18.8Zm-9.36-13.12v-4.37h-6.71v4.37h6.71Zm0,5.98v-4.66h-6.71v4.66h6.71Zm8.09-5.98v-4.37h-6.79v4.37h6.79Zm0,5.98v-4.66h-6.79v4.66h6.79Z"/>
      <path class="cls-1" d="M280.18,164.59h-20.84v-1.24h8.95v-19.14h1.28v7.52h9.55v1.27h-9.55v10.35h10.61v1.24Z"/>
      <path class="cls-1" d="M296.4,164.71h-1.21v-2.06h-5.18v2.54h-1.22v-17.02h2.23c.6-1.07,1.17-2.45,1.71-4.12l1.2,.25c-.28,.84-.82,2.14-1.63,3.88h4.1v16.54Zm-1.21-10.17v-5.16h-5.18v5.16h5.18Zm0,6.89v-5.68h-5.18v5.68h5.18Zm13.23-13.23c-.09,3.59-.27,6.93-.52,10.02s-.51,4.9-.77,5.45-.59,.94-.99,1.17-1.17,.35-2.29,.35c-.49,0-1.14-.01-1.93-.04l-.39-1.22c.66,.02,1.36,.04,2.12,.04,.71,0,1.17,0,1.37-.02s.41-.12,.63-.3,.38-.4,.47-.64,.22-1.17,.38-2.76,.29-3.35,.39-5.27,.18-3.78,.22-5.58h-6.26c-.84,1.66-1.8,3.25-2.91,4.75l-.98-.69c2.1-2.76,3.59-5.83,4.46-9.22l1.22,.32c-.39,1.28-.83,2.5-1.31,3.67h7.1Zm-4.42,10.76l-1.01,.71c-.77-1.78-1.93-3.64-3.48-5.59l1.03-.67c1.44,1.73,2.59,3.58,3.46,5.54Z"/>
      <path class="cls-1" d="M326.35,149.47c-.44,.12-.93,.23-1.46,.32-.18,4.12-.85,7.31-2.02,9.57,1.17,.95,2.28,1.94,3.32,2.98l-.98,.96c-.84-.94-1.83-1.88-2.95-2.81-.96,1.45-2.43,3-4.42,4.65l-.94-.9c2.05-1.62,3.5-3.11,4.32-4.49-.81-.68-2-1.49-3.55-2.43,.59-2.45,1.05-4.66,1.37-6.63-1.03,.09-1.71,.13-2.05,.13v-1.21c.86-.02,1.61-.09,2.24-.19,.23-1.48,.45-3.2,.64-5.16h1.28c-.09,1.23-.29,2.9-.6,5.02,.79-.07,1.83-.24,3.12-.5,.02-.76,.02-1.5,0-2.24h1.27c.04,.84,.05,1.5,.02,1.97,.35-.05,.82-.16,1.39-.34v1.3Zm-2.73,.6c-.98,.2-2.06,.36-3.22,.46-.43,2.49-.86,4.55-1.29,6.16,.98,.61,1.89,1.24,2.73,1.9,1.08-2.27,1.67-5.11,1.78-8.52Zm14.23,5.17h-5.2v7.84c0,.87-.23,1.43-.69,1.7s-1.33,.4-2.61,.4c-.56,0-1.11-.02-1.65-.06l-.43-1.31c.78,.09,1.6,.13,2.45,.13,.66,0,1.08-.04,1.28-.13s.3-.25,.3-.47v-8.09h-5.73v-1.25h5.73v-2.81c1.66-1.7,3.05-3.42,4.2-5.18h-9.47v-1.24h10.96v1.36c-.95,1.59-2.4,3.44-4.34,5.57v2.31h5.2v1.25Z"/>
      <path class="cls-1" d="M366.48,158.91c-.12,1.05-.38,2.05-.76,3.02s-.83,1.45-1.34,1.45c-.57,0-1.29-.6-2.16-1.79s-1.51-2.62-1.92-4.27c-.97,1.02-1.92,1.84-2.85,2.45l-.82-.84c1.43-1.07,2.54-2.09,3.32-3.05-.38-2.27-.64-4.87-.77-7.8h-10.17c.12,5.54-.7,9.52-2.45,11.95l-.94-.82c1.49-2.13,2.24-5.59,2.24-10.36,0-.56,0-1.21-.02-1.95h11.25c-.02-.35-.04-.78-.04-1.28s.01-.96,.04-1.42h1.25c-.04,.64-.06,1.21-.06,1.72,0,.36,0,.68,.02,.97h5.95v1.17h-5.87c.14,2.91,.35,5.08,.62,6.5,1.22-1.69,2.26-3.38,3.12-5.09l.96,.67c-.93,1.91-2.2,3.91-3.82,5.98,.44,1.96,1,3.43,1.7,4.39s1.14,1.45,1.32,1.45c.17,0,.38-.43,.62-1.3s.39-1.68,.45-2.45l1.12,.67Zm-17.04,.94c-.45,1.63-1.11,3.05-1.99,4.24l-.96-.74c.83-1.1,1.47-2.47,1.92-4.1l1.03,.6Zm8.57-8.72h-7.85v-1.1h7.85v1.1Zm-.34,10.64c-.08,.91-.25,1.6-.5,2.09s-.6,.79-1.03,.91-1.23,.18-2.39,.18c-1.45,0-2.36-.13-2.74-.39s-.57-.75-.57-1.47v-4.15h1.15v4.05c0,.25,.1,.45,.29,.59s.82,.22,1.89,.22c1.16,0,1.89-.12,2.17-.37s.48-.99,.59-2.22l1.15,.56Zm-.48-4.37h-6.48v-4.71h6.48v4.71Zm-1.17-1.12v-2.45h-4.12v2.45h4.12Zm-.5,4.49l-1.01,.6c-.4-.71-1.01-1.56-1.83-2.54l.98-.61c.77,.87,1.38,1.72,1.85,2.55Zm5.59,2.64l-1.01,.64c-.52-1.24-1.18-2.39-1.97-3.43l.96-.67c.83,1.12,1.5,2.28,2.02,3.46Zm3.77-17.66l-.94,.86c-.42-.49-.93-.96-1.54-1.42l.88-.86c.61,.45,1.14,.93,1.59,1.42Z"/>
      <path class="cls-1" d="M395.14,147.39h-17.33v6.69c0,4.35-.88,7.95-2.64,10.78l-1.09-.8c1.68-2.61,2.52-6.34,2.52-11.2v-6.68h8.86c-.35-.65-.74-1.25-1.17-1.79l1.39-.34c.5,.77,.91,1.48,1.24,2.13h8.21v1.21Zm.55,16.75l-.77,1.16c-3.27-.54-5.96-1.3-8.06-2.29-2.44,1.09-5.41,1.82-8.91,2.18l-.62-1.24c3.44-.27,6.12-.82,8.06-1.65-1.87-1.14-3.3-2.61-4.3-4.42h-.9v-1.25h12.14v1.25c-.94,1.83-2.32,3.29-4.15,4.37,1.8,.78,4.3,1.41,7.51,1.89Zm-.55-12.9h-4.14v3.9h-8.61v-3.9h-3.64v-1.18h3.64v-1.97h1.25v1.97h6.12v-1.97h1.24v1.97h4.14v1.18Zm-4.32,6.64h-8.24c1.02,1.64,2.41,2.89,4.18,3.74,1.86-1.02,3.21-2.27,4.05-3.74Zm-1.05-3.94v-2.71h-6.12v2.71h6.12Z"/>
      <path class="cls-1" d="M413.75,152.34c.67,0,1.25,.23,1.72,.69s.71,1.04,.71,1.73-.22,1.27-.66,1.72-1,.68-1.69,.68c-.62,0-1.18-.2-1.66-.6s-.72-1.02-.72-1.85c0-.77,.24-1.36,.73-1.77s1.01-.61,1.55-.61Zm1.45,2.44c0-.41-.14-.75-.42-1s-.62-.38-1.02-.38-.72,.14-.98,.42-.39,.6-.39,.97c0,.34,.12,.67,.38,.97s.59,.46,1.02,.46c.41,0,.74-.13,1.01-.4s.4-.61,.4-1.03Z"/>
    </g>
  </g>
</svg>