<?xml version="1.0" encoding="UTF-8"?>
<svg id="_圖層_2" data-name="圖層 2" xmlns="http://www.w3.org/2000/svg" viewBox="0 0 206.58 65.54">
  <g id="menu">
    <g>
      <path d="M15.72,14.32c-.18,4.5-1.23,10.35-3.14,17.56-1.74,6.32-3.43,11.82-5.08,16.5-1.38,3.83-3.23,7.3-5.54,10.42-.31,.49-.69,.76-1.13,.8-.45-.04-.69-.22-.74-.53-.18-.58-.11-1.09,.2-1.54,2.09-2.63,3.61-5.14,4.54-7.55,1.6-4.14,3.49-10.31,5.68-18.5,2.14-8.1,3.18-13.82,3.14-17.16v-.2c-.8,0-1.34-.09-1.6-.27-.45-.36-.65-.8-.6-1.34,.04-.67,.13-1.02,.27-1.07,.13-.04,.22-.09,.27-.13,.18-.04,.49,.09,.94,.4,.4,.18,.96,.25,1.67,.2,1.69-.31,4.67-1.22,8.95-2.74,.36-.22,.76-.36,1.2-.4,.13-.27,.49-.47,1.07-.6,1.83-1.02,3.09-1.82,3.81-2.4,.49-.4,.76-.69,.8-.87-.4-.94-2.2-1.69-5.41-2.27-1.11-.13-1.65-.42-1.6-.87,.09-.53,.62-.82,1.6-.87,2.4,.09,4.61,.69,6.61,1.8,1.42,1.2,1.65,2.49,.67,3.87-.18,.09-.33,.2-.47,.33,2.05-.49,4.43-.96,7.15-1.4,1.78-.27,3.03-.31,3.74-.13,.45,.13,.69,.36,.74,.67,.09,.53-.29,1.09-1.14,1.67-1.02,.76-1.67,.93-1.94,.53-.18-.27-.4-.4-.67-.4-.67-.04-2.34,.16-5.01,.6-4.05,.71-7.17,1.47-9.35,2.27-4.27,1.51-7.5,2.54-9.68,3.07,.04,.18,.07,.36,.07,.53Zm-5.41,32.46c-.67-.04-1-.36-1-.94-.04-.27,.2-.38,.73-.33,1.02,0,3.29-1.09,6.81-3.27,2.72-1.65,5.37-3.81,7.95-6.48,3.38-3.52,5.54-6.03,6.48-7.55,.22-.36,.24-.89,.07-1.6-.27-.85,.13-1.27,1.2-1.27,.67-.04,1.07,.33,1.2,1.14,.22,.94,.18,1.69-.13,2.27-.04,.09-.09,.16-.13,.2,2.54,.94,4.23,1.67,5.08,2.2,1.11,.67,2.56,1.69,4.34,3.07,1.69,1.2,3.16,2.14,4.41,2.8,1.65,.8,3.5,1.22,5.54,1.27,1.56,.09,2.67,.29,3.34,.6,.62,.45,1,.89,1.13,1.34,.18,.67,.07,1.09-.33,1.27-.4,.22-.69,.2-.87-.07-.27-.36-.49-.62-.67-.8-.49-.27-1.63-.42-3.41-.47-2.14,0-4.3-.6-6.48-1.8-1.92-1.07-3.43-2.07-4.54-3.01-.94-.85-2.16-1.69-3.67-2.54-1.56-.94-3.14-1.69-4.74-2.27-.13-.04-.22-.04-.27,0-1.42,1.87-3.63,4.36-6.61,7.48-2.58,2.49-5.41,4.56-8.48,6.21-3.25,1.74-5.57,2.58-6.95,2.54Zm6.48-14.23c-.18-.36,.16-.89,1-1.6,3.21-2.89,5.21-4.96,6.01-6.21,.18-.27,.2-.47,.07-.6-.04-.09-.16-.11-.33-.07-.76,.13-1.83,.42-3.21,.87-.13,0-.29,.02-.47,.07-.4,.27-.76,.6-1.07,1-.27,.27-.6,.38-1,.33-.13,.04-.27,.09-.4,.13-.31,.09-.54,.07-.67-.07-.18-.13-.29-.29-.33-.47,0-.18,.13-.4,.4-.67,3.12-2.49,4.83-3.9,5.14-4.21,.31-.44,.44-.8,.4-1.07-.22-.62-.18-1.02,.13-1.2,.36-.18,.62-.27,.8-.27,.27,.04,.49,.27,.67,.67,.18,.22,.24,.53,.2,.94-.04,.36-.27,.82-.67,1.4-.18,.18-.36,.4-.53,.67,.31-.13,.62-.2,.93-.2,.49-.09,.82-.13,1-.13,1.02,.22,1.51,1.02,1.47,2.4,0,.36-.22,.82-.67,1.4-1.29,1.78-3.56,3.81-6.81,6.08-1.07,.85-1.76,1.11-2.07,.8Zm10.35,11.75c-.76,.62-1.4,1.09-1.94,1.4-.45,.22-.96,.27-1.54,.13-.45-.13-.69-.36-.73-.67-.04-.31,.22-.67,.8-1.07,1.42-.8,2.94-1.89,4.54-3.27,1.56-1.38,2.69-2.8,3.41-4.27,.18-.4,.18-.76,0-1.07-.13-.31,.16-.73,.87-1.27,.49-.27,1-.11,1.54,.47,.31,.31,.24,1-.2,2.07-.49,1.02-1.27,2.16-2.34,3.41,1.11-.53,2.09-.93,2.94-1.2,.98-.31,1.67-.47,2.07-.47,1.07,.04,1.67,.8,1.8,2.27-.04,.67-.36,1.49-.93,2.47-.8,1.11-1.76,2.29-2.87,3.54,5.12-2.09,8.3-2.8,9.55-2.14,.8,.49,1.22,1.43,1.27,2.8-.09,1.29-1.23,3.09-3.41,5.41-3.07,3.25-6.3,5.97-9.68,8.15-2.8,1.78-6.08,3.14-9.82,4.07-1.56,.44-2.76,.11-3.61-1-.18-.36-.18-.62,0-.8,.22-.22,.56-.18,1,.13,.62,.4,1.27,.51,1.94,.33,4.1-1.34,7.37-2.87,9.82-4.61,3.29-2.31,6.23-4.88,8.82-7.68,1.83-1.96,2.76-3.23,2.8-3.81-.13-.49-.36-.82-.67-1-.54-.4-2.09-.11-4.68,.87-3.07,1.25-5.68,2.43-7.81,3.54-1.07,.93-2.23,1.89-3.47,2.87-1.07,.85-1.74,1.11-2,.8-.22-.36,.09-.89,.94-1.6,1.2-1.2,2.34-2.29,3.41-3.27-.04-.44,.16-.73,.6-.87,.13-.09,.29-.16,.47-.2,2.85-2.98,4.74-5.23,5.68-6.75,.27-.49,.31-.82,.13-1-.18-.22-.49-.27-.93-.13-1.69,.49-4.1,1.54-7.21,3.14-.31,.13-.49,.22-.53,.27Zm-2.4-29.85c.98-.31,2.03-.47,3.14-.47,.76,.09,1.49,.56,2.2,1.4,.18,.31,.2,1.76,.07,4.34-.22,2.98-.4,5.08-.54,6.28,0,.8-.27,1.4-.8,1.8-.58,.45-1.09,.65-1.54,.6-.36-.04-.56-.29-.6-.73-.04-.58,.07-.96,.33-1.14,.36-.31,.53-.62,.53-.93,.13-.85,.29-2.03,.47-3.54,.18-1.47,.29-2.8,.33-4.01,.04-.49-.36-1.09-1.2-1.8-.53-.18-1.36-.07-2.47,.33-1.51,.58-2.94,1.23-4.27,1.94-.62,.27-.96-.02-1-.87-.04-.8,.09-1.22,.4-1.27,2.18-.98,3.83-1.62,4.94-1.94Zm10.55,12.49c-.22-.36,.09-.89,.94-1.6,2.05-1.91,3.29-3.29,3.74-4.14,.09-.22,.11-.36,.07-.4-.04-.09-.16-.13-.33-.13-.62,.09-1.49,.29-2.6,.6-.36,.04-.56,.04-.6,0-.36,.31-.73,.67-1.13,1.07-.27,.22-.6,.31-1,.27-.13,0-.27,.02-.4,.07-.31,.13-.56,.13-.74,0-.13-.13-.22-.29-.27-.47,0-.18,.13-.4,.4-.67,2.8-2.09,4.34-3.29,4.61-3.61,.31-.4,.44-.69,.4-.87-.22-.62-.18-1.02,.13-1.2,.36-.18,.62-.27,.8-.27,.27,.04,.49,.27,.67,.67,.13,.27,.18,.56,.13,.87-.09,.27-.29,.67-.6,1.2-.13,.22-.29,.42-.47,.6,.49-.18,.89-.27,1.2-.27,.4-.04,.69-.04,.87,0,.98,.22,1.4,1,1.27,2.34,0,.27-.13,.6-.4,1-.93,1.25-2.49,2.63-4.67,4.14-1.07,.85-1.74,1.11-2,.8Zm4.01-14.56c1.16-.36,2.43-.51,3.81-.47,.76,0,1.49,.42,2.2,1.27,.27,.36,.4,2.23,.4,5.61,0,3.87-.07,6.61-.2,8.21-.27,.76-.69,1.23-1.27,1.4-.71,.22-1.27,.25-1.67,.07-.36-.13-.47-.42-.33-.87,.13-.53,.36-.87,.67-1,.4-.13,.67-.36,.8-.67,.04-1.07,.09-2.63,.13-4.67,0-1.96-.02-3.7-.07-5.21-.04-.71-.49-1.36-1.34-1.94-.58-.13-1.6,.02-3.07,.47-1.92,.71-3.7,1.49-5.34,2.34-.62,.27-.96-.02-1-.87-.04-.8,.09-1.22,.4-1.27,2.54-1.16,4.5-1.96,5.88-2.4Z"/>
      <path d="M83.67,52.25c-1.6-.22-2.47-.42-2.6-.6-.22-.36-.04-.96,.53-1.8,.27-.36,.49-.44,.67-.27,.31,.31,.69,.49,1.13,.53,.85,.04,2.16-.2,3.94-.73,.85-.31,2.63-1.07,5.34-2.27-.09-.13-.13-.29-.13-.47-.27-.49-.69-.89-1.27-1.2-.04-.04-.09-.07-.13-.07-.18,.13-.33,.22-.47,.27-3.16,1.96-5.17,2.96-6.01,3.01-.45,0-.8-.13-1.07-.4-.31-.4-.2-.69,.33-.87,3.47-1.78,6.34-3.54,8.62-5.28,0-.67,.02-1.36,.07-2.07v-3.34c-.62,.36-1.14,.69-1.54,1-.58,.49-1.54,1.14-2.87,1.94-1.29,.85-2.74,1.4-4.34,1.67-.49,.04-.89-.16-1.2-.6-.36-.49-.4-.87-.13-1.14,.27-.22,.62-.31,1.07-.27,.85,.09,1.96-.29,3.34-1.14,1.91-1.16,3.36-2.09,4.34-2.8,.36-.4,.8-.69,1.34-.87,.04-1.2,.09-2.23,.13-3.07-.53,.18-1.02,.4-1.47,.67-3.83,1.91-6.41,2.96-7.75,3.14-1.07,.13-1.76,.18-2.07,.13-.27-.09-.47-.49-.6-1.2-.27-1.25,0-1.71,.8-1.4,.09-.18,.22-.29,.4-.33,2.89-1.65,6.03-4.16,9.42-7.55,.58-.62,1.14-1.16,1.67-1.6v-.2c-.13-1.29-.29-2.03-.47-2.2-.22-.13-.36-.27-.4-.4-2.4,1.02-4.1,1.54-5.08,1.54-.67,0-.91-.4-.73-1.2,0-.4,.07-.69,.2-.87-.27,.27-.49,.56-.67,.87-3.38,4.14-6.68,7.97-9.88,11.49-.36,.36-.89,.62-1.6,.8-.13,0-.29-.09-.47-.27-.13-.18-.18-.33-.13-.47,.22-.58,.73-1.27,1.54-2.07,3.43-3.83,6.43-7.3,9.02-10.42,2.27-2.63,4.23-5.43,5.88-8.42,1.51-2.58,2.36-4.67,2.54-6.28,.13-.85,.11-1.47-.07-1.87-.18-.27-.2-.62-.07-1.07,.09-.22,.29-.4,.6-.53,.44-.13,.89,.02,1.34,.47,.36,.36,.47,1.16,.33,2.4-.09,1.6-.69,3.56-1.8,5.88-1.2,2.36-3.29,5.43-6.28,9.22,.13-.18,.36-.24,.67-.2,.98,.13,2.63-.29,4.94-1.27,2.58-1.25,4.16-1.89,4.74-1.94,.49-.09,.96-.04,1.4,.13,.18,.09,.36,.11,.53,.07,1.65,.18,1.85,.89,.6,2.14-.76,.98-1.62,1.96-2.6,2.94-.76,.71-1.47,1.4-2.14,2.07,0,.76-.02,1.56-.07,2.4-.04,.67-.09,1.36-.13,2.07,.09-.09,.16-.13,.2-.13,2.76-1.38,4.16-2.14,4.21-2.27-.04-.09-.36-.56-.93-1.4-.09-.22-.11-.47-.07-.73,.13-.27,.36-.31,.67-.13,1.34,.8,2.23,1.2,2.67,1.2,.49,.18,.6,.56,.33,1.14-.13,.45-.18,.82-.13,1.14,.04,.27-.13,.4-.53,.4-.27-.04-2.16,.82-5.68,2.6-.31,.18-.6,.36-.87,.53-.09,1.02-.13,2.09-.13,3.21,.04-.09,.16-.13,.33-.13,1.11-.27,2.09-.31,2.94-.13,1.07,.53,1.74,1.02,2,1.47,.27,.49,.38,.87,.33,1.14-.22,.62-.89,1.69-2,3.21-1.11,1.29-2.36,2.56-3.74,3.81-.09,1.47-.16,2.43-.2,2.87-.04,.13-.07,.29-.07,.47,2-.98,4.41-2.16,7.21-3.54,.44-.31,.76-.69,.93-1.14,.09-.13,.22-.2,.4-.2,.22-.04,.42,.22,.6,.8,.18,.53-.09,1.09-.8,1.67-8.01,4.45-12.85,6.95-14.49,7.48-1.96,.62-3.43,.91-4.41,.87Zm.67-19.57c.84-.22,1.76-.56,2.74-1,2.31-1.11,4.27-2,5.88-2.67,0-.22,.02-.36,.07-.4,.09-1.2,.16-2.29,.2-3.27-3.92,3.65-6.88,6.1-8.88,7.35Zm10.02-13.09c.13,.13,.22,.33,.27,.6,.04,.36,.13,.8,.27,1.34,1.65-1.69,2.4-2.6,2.27-2.74-.13-.18-1.07,.09-2.8,.8Zm.2-11.02c.22-.62,.53-.87,.93-.73,2.58,.71,4.5,1.54,5.74,2.47,.93,.71,1.54,1.4,1.8,2.07,.27,.8,.27,1.43,0,1.87-.27,.58-.56,.89-.87,.94-.31,.04-.49-.27-.53-.94-.13-.98-.53-1.69-1.2-2.14-1.34-.98-3.16-1.74-5.48-2.27-.45-.13-.58-.56-.4-1.27Zm0,31.86c1.38-1.25,2.27-2.2,2.67-2.87,.49-.76,.53-1.34,.13-1.74-.27-.22-.69-.33-1.27-.33-.4,0-.89,.09-1.47,.27-.04,1.47-.07,3.03-.07,4.68Zm21.37-4.88c-3.56,1.38-6.61,2.87-9.15,4.47-.18,.04-.29,.09-.33,.13,.04,.36,.09,.76,.13,1.2,.54,4.14,.96,6.77,1.27,7.88,.22,.76,.2,1.14-.07,1.14-.45,0-.89,.16-1.33,.47-.4,.36-.58,.2-.53-.47,.04-.4,0-.69-.13-.87-.22-.27-.49-1.69-.8-4.27-.45-3.34-.69-6.01-.73-8.01-.04-1.56,0-2.96,.13-4.21,.04-.58,.22-.89,.53-.94,.36-.09,.67,0,.93,.27,.27,.27,.38,.69,.33,1.27-.13,1.16-.11,2.63,.07,4.41,3.65-2.09,6.9-3.7,9.75-4.81,0-.22,.02-.36,.07-.4,.13-2.31,.18-3.94,.13-4.88-.04-.71-.16-1.22-.33-1.54-1.47,.45-3.03,1.02-4.67,1.74-.89,.36-1.42,0-1.6-1.07-.04-.31,.2-.56,.73-.73v-.13c0-.4-.09-.69-.27-.87-.22-.22-.67-1.62-1.34-4.21-.89-3.29-1.49-5.9-1.8-7.81-.27-1.56-.4-2.96-.4-4.21-.04-.53,.09-.87,.4-1s.56-.13,.74,0c.09-.22,.47-.42,1.13-.6,1.2-.4,2.67-1.07,4.41-2,1.56-.8,2.6-1.49,3.14-2.07,.4-.49,.51-.89,.33-1.2-.62-1.25-.73-1.96-.33-2.14,.44-.22,1.02-.04,1.74,.53,.62,.53,.94,1.34,.94,2.4,0,.53-.22,1.02-.67,1.47-.62,.62-1.89,1.43-3.81,2.4-1.96,1.02-3.56,1.69-4.81,2-.62,.18-1.09,.25-1.4,.2,0,.09,.02,.2,.07,.33,.04,1.74,.47,4.16,1.27,7.28,.09,.04,.22,.13,.4,.27,.36,.31,.87,.38,1.54,.2,1.29-.36,2.94-.96,4.94-1.8,1.42-.58,2.49-.96,3.21-1.14,.44-.09,1,.16,1.67,.73,.62,.53,.96,1.16,1,1.87,0,.49-.27,1.02-.8,1.6-.67,.62-3.36,2.83-8.08,6.61,1.65-.71,3.23-1.22,4.74-1.54,2.09-.53,3.43-.73,4.01-.6,.62,.09,1.02-.09,1.2-.53,.22-.62,.67-.64,1.34-.07,.09,.13,.16,.22,.2,.27,.04-.04,.09-.09,.13-.13,.62-.89,1.22-2.63,1.8-5.21,.71-2.76,.98-4.56,.8-5.41-.13-.49-.47-1-1-1.54-.36-.27-.76-.42-1.2-.47-1.11-.09-2.49-.04-4.14,.13-2.54,.22-4.7,.76-6.48,1.6-1.47,.71-2.89,1.29-4.27,1.74-.49,.09-.89-.36-1.2-1.34-.18-.49-.04-.76,.4-.8,.8-.18,2.49-.76,5.08-1.74,2.14-.85,4.3-1.36,6.48-1.54,1.91-.13,3.47-.18,4.68-.13,.93,.13,1.67,.42,2.2,.87,1.02,1.02,1.62,2.16,1.8,3.41,.04,.85-.22,2.43-.8,4.74-.71,2.67-1.54,4.9-2.47,6.68-.45,.76-1.02,1.34-1.74,1.74-.49,.18-.82,.11-1-.2-.22,.04-.4,.07-.53,.07-1.83,0-3.63,.22-5.41,.67-.04,0-.07,.02-.07,.07l.07,.07c.22,.85,.27,2.56,.13,5.14-.04,.45-.09,.89-.13,1.34,.89-.4,1.74-.69,2.54-.87,3.61-1.16,6.81-1.27,9.62-.33,1.02,.45,1.54,1.02,1.54,1.74-.13,1.2-.29,3.23-.47,6.08-.27,2.67-.49,4.74-.67,6.21-.22,1.43-.6,2.89-1.13,4.41-.71,1.91-1.23,3.03-1.54,3.34-.71,.62-1.29,.94-1.74,.94-.67-.04-2.34-1.54-5.01-4.47-1.29-1.47-2.29-2.63-3.01-3.47,.13,4.41,.18,8.17,.13,11.29-.13,3.21-.47,5.5-1,6.88-.18,.53-.49,.93-.93,1.2-.4,.27-.76,.33-1.07,.2-.31-.13-.31-.62,0-1.47,.4-1.29,.67-3.34,.8-6.14,.13-3.43,.11-7.84-.07-13.22-.13-3.74-.2-6.77-.2-9.08Zm-4.07-11.15c1.51-1.25,3.34-2.89,5.48-4.94,1.6-1.51,2.27-2.43,2-2.74-.09-.13-.49-.04-1.2,.27-1.91,.8-3.43,1.4-4.54,1.8-1.56,.49-2.63,.73-3.21,.73,.58,2.27,1.07,3.9,1.47,4.88Zm6.28,18.97c.49,.89,1.56,2.16,3.21,3.81,1.87,2,3.36,3.36,4.47,4.07,.22,.13,.49,.2,.8,.2,.18,0,.62-1.02,1.33-3.07,.49-1.29,.94-4.63,1.34-10.02,.27-3.61,.13-5.5-.4-5.68-1.65-.67-5.23,0-10.75,2-.09,0-.11,.02-.07,.07-.09,2.89-.07,5.77,.07,8.62Z"/>
      <path d="M167.98,61.53c-1.33,.49-3.16,.76-5.48,.8-2.4,.04-4.23-.16-5.48-.6-.85-.36-1.25-.76-1.2-1.2,.13-.4,.36-.76,.67-1.07,.53-.53,.93-.82,1.2-.87,.27,.04,.42,.29,.47,.73,.04,.27,.22,.49,.54,.67,1.33,.36,2.96,.44,4.88,.27,1.16-.18,2.83-.47,5.01-.87,3.29-1.78,6.3-3.83,9.02-6.14,2.23-1.96,4.27-4.41,6.14-7.35,.84-1.42,1.2-2.23,1.07-2.4-.13-.09-.93,.2-2.4,.87-.71,.31-1.27,.2-1.67-.33-.45-.58-.18-1.09,.8-1.54,.31-.22,.76-.42,1.34-.6,.49-.18,.93-.36,1.33-.53,.76-.22,1.56-.18,2.4,.13,.76,.36,.91,1.23,.47,2.6-2.58,4.45-5.34,7.97-8.28,10.55-1.56,1.34-3.16,2.49-4.81,3.47,2.85-.62,6.37-1.2,10.55-1.74,4.94-.71,9.28-.87,13.02-.47,2.09,.27,4.9,1.4,8.42,3.41,.4,.31,.6,.56,.6,.73-.04,.22-.27,.47-.67,.73-.58,.4-1.09,.62-1.54,.67-.49,.09-.87-.02-1.13-.33-.89-1.11-1.94-1.89-3.14-2.34-1.51-.58-3.63-.89-6.34-.93-3.52-.04-8.17,.42-13.96,1.4-6.41,1.07-10.35,1.83-11.82,2.27Zm5.74-40.27c.27,0,.56-.07,.87-.2,.53-.22,1.09-.42,1.67-.6,1.38-.49,2.56-1.02,3.54-1.6,.98-.53,1.69-.87,2.14-1,.22-.04,.47-.09,.74-.13,.58-.18,.93,.2,1.07,1.14,.22,.67,.27,1.47,.13,2.4-.27,1.16-.96,2.69-2.07,4.61-.18,.13-.29,.29-.33,.47,.93,.31,1.62,.69,2.07,1.14,.76,.85,1.11,1.6,1.07,2.27,.04,.62-.09,1.02-.4,1.2-.27,.13-.56-.09-.87-.67-.76-1.16-1.69-1.87-2.8-2.14-.09-.04-.16-.04-.2,0-1.6,2.18-3.16,3.9-4.67,5.14-1.25,.85-2.49,1.49-3.74,1.94-1.51,.49-2.76,.58-3.74,.27-.45-.13-.58-.47-.4-1,.18-.49,.42-.67,.73-.53,.67,.22,1.42,.18,2.27-.13,1.33-.58,2.47-1.22,3.41-1.94,1.29-1.02,2.63-2.36,4.01-4.01-1.74-.18-3.74-.04-6.01,.4-.53,.04-.82-.29-.87-1-.04-.67,.13-1.02,.53-1.07,3.16-.49,5.74-.58,7.75-.27,.13-.18,.27-.36,.4-.53,1.29-2,2-3.61,2.14-4.81,.09-.58,.04-.89-.13-.94-.13-.04-.36,0-.67,.13-.36,.13-.69,.33-1,.6-1.38,.89-3.09,1.69-5.14,2.4-1.07,.36-1.74,.56-2,.6-.49-.04-.89-.42-1.2-1.14-1.65,3.43-3.1,6.01-4.34,7.75-1.42,1.87-2.56,2.96-3.41,3.27-1.38,.49-1.92-.16-1.6-1.94,.22-1.11,.42-1.67,.6-1.67s.33,.22,.47,.67c.13,.4,.42,.51,.87,.33,.4-.22,1.09-1.02,2.07-2.4,1.07-1.38,2.29-3.83,3.67-7.35,1.38-3.25,2.27-5.68,2.67-7.28,.13-.67,.07-1.16-.2-1.47-.31-.27-.31-.76,0-1.47,.36-.85,.89-.91,1.6-.2,.62,.58,.8,1.49,.53,2.74-.53,2.45-1.36,5.03-2.47,7.75,.44,.18,.87,.27,1.27,.27Zm-9.02,18.9c.27-.13,.56-.11,.87,.07,.45,.27,.74,.62,.87,1.07,1.38,3.87,2.76,6.61,4.14,8.21,.98,1.07,1.67,1.47,2.07,1.2,.54-.36,.8-.33,.8,.07s.13,.69,.4,.87c.22,.22,.13,.53-.27,.93-.4,.27-.82,.38-1.27,.33-1.07-.04-2.36-1.07-3.87-3.07-1.6-2.27-2.89-5.03-3.87-8.28-.09-.76-.04-1.22,.13-1.4ZM192.42,4.77c0,1.96-1.07,4.5-3.21,7.61-1.38,2.05-1.91,3.21-1.6,3.47,.22,.13,.56,.18,1,.13,2.45-.44,4.16-.51,5.14-.2,1.25,.31,2.16,1.36,2.74,3.14,.22,.53,.04,1.89-.53,4.07-.58,2.32-1.43,4.5-2.54,6.54-1.38,2.49-2.49,4.14-3.34,4.94-.22,.18-.4,.33-.54,.47,1.29-.31,2.4-.44,3.34-.4,1.78,0,3.43,.56,4.94,1.67,1.25,1.11,1.94,2.23,2.07,3.34,.09,1.6-1.22,4.23-3.94,7.88-2.76,3.87-5.1,6.17-7.01,6.88-.98,.36-1.6,.47-1.87,.33-.45-.22-.67-.73-.67-1.54,.09-1.02,.22-1.56,.4-1.6,.22-.04,.4,.16,.53,.6,.09,.31,.42,.4,1,.27,1.51-.58,3.5-2.63,5.94-6.14,2.36-3.34,3.47-5.54,3.34-6.61-.13-.58-.62-1.22-1.47-1.94-.71-.53-1.87-.82-3.47-.87-2.36-.04-6.03,.76-11.02,2.4-1.87,.62-3.47,1.16-4.81,1.6,.04,.22,.04,.42,0,.6-.4,2.23-.45,3.9-.13,5.01,.18,.8,.4,1.18,.67,1.14,.53-.04,.71,.09,.53,.4-.09,.27-.11,.53-.07,.8,.13,.27-.07,.47-.6,.6-.4,.09-.76,0-1.07-.27-.62-.31-1.02-1.22-1.2-2.74-.18-1.56-.11-3.23,.2-5.01-3.03,.94-4.76,1.47-5.21,1.6-.4,.09-.76-.36-1.07-1.34-.13-.58,.02-.89,.47-.93,1.47-.18,5.34-1.29,11.62-3.34,2.67-.98,5.03-1.67,7.08-2.07-.13-.13-.22-.22-.27-.27-.18-.22-.53-.42-1.07-.6-.89-.36-1.69-.94-2.4-1.74-.27-.31-.31-.67-.13-1.07s.54-.44,1.07-.13c1.83,1.16,3,1.6,3.54,1.34,.22-.09,1.02-1.36,2.4-3.81,1.29-2.27,2.2-4.7,2.74-7.28,.36-1.96,.38-3.14,.07-3.54-.4-.53-1.56-.73-3.47-.6-1.83,.09-3.36,.27-4.61,.53-.94,.09-1.49-.22-1.67-.93-.22-.8-.04-1.29,.53-1.47,.22-.09,.69-.82,1.4-2.2,.62-1.34,1.29-2.49,2-3.47,.62-.85,1.07-1.69,1.33-2.54,.31-1.11,.33-1.76,.07-1.94-1.43-.71-6.5,.49-15.23,3.61-3.83,1.38-5.97,2.07-6.41,2.07-.45-.04-.89-.29-1.33-.73-.62-.67-.74-1.16-.33-1.47,.31-.31,.67-.31,1.07,0,.62,.31,1.76,.11,3.41-.6,8.59-3.61,15.12-5.41,19.57-5.41,1.34,.09,2.03,.67,2.07,1.74Z"/>
    </g>
  </g>
</svg>