<?xml version="1.0" encoding="UTF-8"?>
<svg id="_圖層_2" data-name="圖層 2" xmlns="http://www.w3.org/2000/svg" viewBox="0 0 357.62 42.58">
  <defs>
    <style>
      .cls-1 {
        fill: #fff;
      }

      .cls-2 {
        fill: #dbba76;
      }

      .cls-3 {
        fill: none;
        stroke: #dbba76;
        stroke-miterlimit: 10;
      }
    </style>
  </defs>
  <g id="_圖層_1-2" data-name="圖層 1">
    <g>
      <g>
        <g id="logo">
          <g id="logo-2">
            <path id="_パス_25" data-name="パス 25" class="cls-1" d="M228.79,32.96c-1.75,1.92-4.07,3.22-6.61,3.73-1.69,.37-3.42,.46-5.14,.28-2.31-.22-4.5-1.09-6.33-2.52-1.51-1.12-2.76-2.55-3.67-4.19-.72-1.27-1.22-2.66-1.47-4.1-.37-2.02-.28-4.09,.28-6.06,1.12-4.6,4.81-8.13,9.46-9.04,2.58-.54,5.25-.48,7.8,.19,1.84,.43,3.53,1.36,4.87,2.69,.88,.78,1.6,1.73,2.11,2.8,.64,1.27,.93,2.68,.83,4.1h-8.45c-.18-1.11-.77-2.11-1.65-2.8-1.13-.94-2.74-1.02-3.95-.19-.83,.52-1.44,1.32-1.74,2.25-.72,2.24-.75,4.64-.09,6.89,.25,.96,.76,1.83,1.47,2.52,.8,.78,1.92,1.16,3.03,1.02,.67-.1,1.29-.43,1.74-.93,.49-.55,.8-1.23,.92-1.96,.11-.49,.17-.99,.18-1.49h8.91c.18,2.51-.72,4.99-2.47,6.8"/>
            <rect id="_長方形_5" data-name="長方形 5" class="cls-1" x="194.81" y="1.19" width="9.18" height="6.62"/>
            <rect id="_長方形_6" data-name="長方形 6" class="cls-1" x="194.81" y="11.16" width="9.18" height="25.06"/>
            <path id="_パス_26" data-name="パス 26" class="cls-1" d="M175.63,13.86c1.13-1.06,2.43-1.91,3.86-2.52,2.26-1.11,4.85-1.31,7.25-.56,2.66,.76,4.74,2.84,5.51,5.5,.36,1.24,.55,2.53,.55,3.82v16.12h-9.83v-14.53c-.02-.47-.08-.94-.18-1.4-.23-.8-.81-1.45-1.57-1.77-1.74-.75-3.76-.06-4.68,1.58-.36,.66-.55,1.39-.55,2.14v13.97h-9.46V11.16h8.91l.2,2.7Z"/>
            <path id="_パス_27" data-name="パス 27" class="cls-1" d="M66.56,13.86c1.13-1.06,2.43-1.91,3.86-2.52,2.26-1.11,4.85-1.31,7.25-.56,2.66,.76,4.74,2.84,5.51,5.5,.36,1.24,.55,2.53,.55,3.82v16.12h-9.73v-14.53c-.02-.47-.08-.94-.18-1.4-.23-.8-.81-1.45-1.57-1.77-1.74-.75-3.76-.06-4.68,1.58-.36,.66-.55,1.39-.55,2.14v13.97h-9.53V11.16h8.91l.18,2.7Z"/>
            <path id="_パス_28" data-name="パス 28" class="cls-1" d="M124.77,27c.68,.11,1.36,.27,2.02,.46,.54,.2,.95,.65,1.1,1.21,.14,.6-.03,1.23-.45,1.68-.44,.46-1.02,.75-1.65,.84-.83,.18-1.7,.09-2.47-.28-.37-.16-.71-.38-1.01-.65-.44-.31-.73-.78-.83-1.3-.11-.43-.17-.86-.18-1.3h-9v.56c-.03,.83,.12,1.66,.45,2.42,.44,1.16,1.13,2.21,2.02,3.07,1.16,1.11,2.58,1.91,4.13,2.33,3.19,.92,6.54,1.14,9.82,.65,1.55-.21,3.04-.72,4.41-1.49,.62-.32,1.2-.7,1.74-1.12,2.42-2.01,3.37-5.3,2.39-8.29-.34-1.11-.98-2.11-1.84-2.89-1.18-1.07-2.6-1.84-4.13-2.25-.37-.09-.64-.19-1.01-.28-1.83-.55-3.71-.95-5.6-1.21-.55-.09-1.01-.19-1.47-.28-.22-.05-.43-.11-.64-.19-.56-.26-.81-.93-.55-1.49,0,0,0,0,0,0v-.09c.24-.53,.71-.91,1.28-1.02,.99-.3,2.06-.26,3.03,.09,.96,.32,1.6,1.23,1.57,2.25h8.72c0-1.02-.18-2.03-.55-2.98-.33-.99-.93-1.86-1.74-2.52-.69-.56-1.46-1-2.29-1.3-.83-.35-1.69-.6-2.57-.75-2.03-.36-4.09-.48-6.15-.37-1.18,.04-2.35,.23-3.49,.56-1.57,.36-3.05,1.06-4.32,2.05-1.08,.87-1.87,2.04-2.29,3.35-.17,.61-.29,1.23-.37,1.86-.09,1.06,.1,2.12,.55,3.07,.64,1.76,2.01,3.16,3.76,3.82,.86,.36,1.75,.64,2.66,.84,1.38,.28,3.03,.65,4.96,.93"/>
            <path id="_パス_29" data-name="パス 29" class="cls-1" d="M16.8,25.42h-6.33v-8.2h4.13c.74,.02,1.47-.01,2.2-.09,1.05-.06,2.02-.57,2.66-1.4,.34-.43,.57-.95,.64-1.49,.09-.46,.09-.94,0-1.4-.14-1.81-1.67-3.2-3.49-3.17h-6.15v26.64H0V1.19H17.17c.64-.02,1.29,.01,1.93,.09,4.45,.21,8.4,2.91,10.2,6.99,1,2.05,1.38,4.35,1.1,6.62-.47,4.93-4.07,8.99-8.91,10.06-1.54,.34-3.11,.49-4.68,.46"/>
            <path id="_パス_30" data-name="パス 30" class="cls-1" d="M154.33,10.7c-.91-.15-1.83-.21-2.76-.19-.92,.01-1.84,.07-2.76,.19-2.72,.38-5.24,1.66-7.16,3.63-2.15,2.06-3.46,4.85-3.67,7.83-.17,1.81-.02,3.64,.45,5.4,.67,2.71,2.26,5.11,4.49,6.8,1.42,1.14,3.09,1.94,4.87,2.33,1.27,.27,2.56,.39,3.86,.37,1.29,.01,2.59-.11,3.86-.37,1.79-.35,3.47-1.15,4.87-2.33l-5.32-5.87c-.82,1.86-3,2.69-4.85,1.87,0,0,0,0-.01,0-.82-.37-1.48-1.03-1.84-1.86-.34-.78-.59-1.59-.73-2.42-.24-1.67-.21-3.37,.09-5.03,.14-.88,.49-1.71,1.01-2.42,1.07-1.65,3.27-2.12,4.92-1.05,.42,.27,.78,.63,1.05,1.05,.48,.74,.83,1.56,1.01,2.42,.35,1.66,.38,3.36,.09,5.03-.12,.84-.36,1.66-.73,2.42l5.32,5.87c2.23-1.69,3.82-4.09,4.49-6.8,.52-1.75,.67-3.59,.45-5.4-.21-2.97-1.52-5.76-3.67-7.83-2.01-1.95-4.58-3.22-7.35-3.63"/>
            <path id="_パス_31" data-name="パス 31" class="cls-1" d="M111,34.26c-.18-2.05-.18-3.82-.28-5.87-.09-2.69-.09-5.03-.09-7.73,0-1.38-.18-2.76-.55-4.1-.42-1.79-1.59-3.32-3.21-4.19-.94-.55-1.96-.93-3.03-1.12-3.38-.76-6.88-.82-10.28-.19-.95,.18-1.87,.46-2.76,.84-2.12,.87-3.74,2.65-4.41,4.84-.28,.84-.37,1.73-.28,2.61,0,.19,.09,.28,.09,.46l8.26,.19c.01-.5,.07-1,.18-1.49,.26-.73,.84-1.31,1.57-1.58,1.06-.4,2.22-.43,3.31-.09,.74,.22,1.3,.83,1.47,1.58,.17,.44,.1,.93-.18,1.3-.24,.32-.55,.58-.92,.75-.28,.09-.45,.19-.73,.28-1.19,.28-2.11,.56-3.31,.75-.92,.19-1.74,.28-2.66,.46-1.28,.28-2.29,.56-3.49,.93-1.07,.32-2.05,.89-2.85,1.68-1.09,1-1.81,2.35-2.02,3.82-.15,.96-.12,1.94,.09,2.89,.51,2.54,2.38,4.58,4.87,5.31,2.69,.81,5.57,.68,8.17-.37,1.25-.53,2.35-1.35,3.2-2.41l-.54-4.29c-.39,.63-.97,1.12-1.65,1.4-.62,.27-1.26,.46-1.93,.56-.56,.08-1.13,.02-1.65-.19-.46-.12-.88-.38-1.19-.75-.27-.29-.46-.64-.55-1.02-.1-.62,.1-1.24,.55-1.68,.31-.25,.65-.47,1.01-.65,.9-.37,1.82-.68,2.76-.93,1.12-.35,2.22-.75,3.31-1.21,.09,.87,.09,1.74,0,2.61-.07,.63-.29,1.24-.64,1.77l.55,4.28c.18,.65,.37,1.12,.55,1.68,.09,.31,.25,.59,.45,.84h9.18c-.09-.65-.28-1.21-.37-1.96"/>
            <path id="_パス_32" data-name="パス 32" class="cls-1" d="M55.64,34.26c-.18-2.05-.18-3.82-.28-5.87-.09-2.69-.09-5.03-.09-7.73,0-1.38-.18-2.76-.55-4.1-.42-1.79-1.59-3.32-3.21-4.19-.94-.55-1.96-.93-3.03-1.12-3.38-.76-6.88-.82-10.28-.19-.95,.18-1.87,.46-2.76,.84-2.12,.87-3.74,2.65-4.41,4.84-.28,.84-.37,1.73-.28,2.61,0,.19,.09,.28,.09,.46l8.26,.19c.01-.5,.07-1,.18-1.49,.26-.73,.84-1.31,1.57-1.58,1.06-.4,2.22-.43,3.31-.09,.74,.22,1.3,.83,1.47,1.58,.17,.44,.1,.93-.18,1.3-.24,.32-.55,.58-.92,.75-.28,.09-.45,.19-.73,.28-1.19,.28-2.11,.56-3.31,.75-.92,.19-1.74,.28-2.66,.46-1.28,.28-2.29,.56-3.49,.93-1.07,.32-2.05,.89-2.85,1.68-1.1,.99-1.79,2.35-1.93,3.82-.15,.96-.12,1.94,.09,2.89,.51,2.54,2.38,4.58,4.87,5.31,2.69,.81,5.57,.68,8.17-.37,1.25-.53,2.35-1.35,3.2-2.41l-.55-4.28c-.39,.63-.97,1.12-1.65,1.4-.62,.27-1.26,.46-1.93,.56-.56,.08-1.13,.02-1.65-.19-.46-.12-.88-.38-1.19-.75-.27-.29-.46-.64-.55-1.02-.1-.62,.1-1.24,.55-1.68,.31-.25,.65-.47,1.01-.65,.9-.37,1.82-.68,2.76-.93,1.12-.35,2.22-.75,3.31-1.21,.09,.87,.09,1.74,0,2.61-.07,.63-.29,1.24-.64,1.77l.55,4.28c.18,.65,.37,1.12,.55,1.68,.09,.31,.25,.59,.45,.84h9.18c-.2-.64-.35-1.29-.45-1.96"/>
          </g>
          <path id="Color_Overlay" data-name="Color Overlay" class="cls-1" d="M89.79,36.59c-2.48-.73-4.36-2.77-4.87-5.31-.21-.95-.25-1.93-.09-2.89,.22-1.47,.93-2.81,2.02-3.82,.8-.78,1.77-1.36,2.85-1.68,1.19-.37,2.2-.65,3.49-.93,.92-.19,1.74-.28,2.66-.46,1.19-.19,2.11-.46,3.3-.75,.28-.09,.45-.19,.73-.28,.36-.17,.68-.42,.92-.75,.29-.37,.36-.87,.18-1.3-.17-.75-.73-1.36-1.47-1.58-1.08-.34-2.25-.31-3.31,.09-.73,.27-1.31,.85-1.57,1.59-.11,.49-.17,.99-.18,1.49l-8.25-.18c0-.19-.09-.28-.09-.46-.1-.88,0-1.77,.28-2.61,.67-2.19,2.28-3.97,4.41-4.84,.89-.38,1.81-.66,2.76-.84,3.4-.64,6.9-.57,10.28,.19,1.07,.19,2.09,.57,3.03,1.12,1.62,.87,2.79,2.39,3.21,4.18,.37,1.33,.55,2.71,.55,4.1,0,2.69,0,5.03,.09,7.73,.09,2.05,.09,3.82,.28,5.87,.09,.75,.27,1.3,.37,1.96h-9.19c-.2-.25-.36-.53-.45-.84-.18-.56-.37-1.02-.55-1.68l-.55-4.28c.35-.53,.57-1.14,.64-1.77,.09-.87,.09-1.74,0-2.61-1.08,.46-2.18,.86-3.31,1.21-.94,.26-1.85,.57-2.75,.93-.36,.18-.7,.4-1.01,.65-.45,.43-.65,1.06-.55,1.68,.09,.38,.28,.74,.55,1.02,.31,.36,.73,.62,1.19,.75,.53,.2,1.09,.27,1.65,.19,.67-.1,1.31-.29,1.93-.56,.69-.28,1.27-.77,1.65-1.4l.55,4.28c-.85,1.06-1.96,1.89-3.22,2.42-1.48,.58-3.06,.88-4.65,.9-1.19,0-2.38-.18-3.52-.53Zm-55.27,0c-2.48-.73-4.36-2.77-4.87-5.31-.21-.95-.25-1.93-.09-2.89,.14-1.47,.83-2.83,1.93-3.82,.8-.78,1.77-1.36,2.85-1.68,1.19-.37,2.2-.65,3.49-.93,.92-.19,1.74-.28,2.66-.46,1.19-.19,2.11-.46,3.31-.75,.27-.09,.45-.19,.73-.28,.36-.17,.68-.42,.92-.75,.29-.37,.36-.87,.18-1.3-.17-.75-.73-1.36-1.47-1.58-1.08-.34-2.25-.31-3.31,.09-.73,.27-1.3,.85-1.56,1.59-.11,.49-.17,.99-.18,1.49l-8.27-.18c0-.19-.09-.28-.09-.46-.1-.88,0-1.77,.28-2.61,.67-2.19,2.28-3.97,4.41-4.84,.89-.38,1.81-.66,2.76-.84,3.4-.64,6.9-.57,10.28,.19,1.07,.19,2.1,.57,3.03,1.12,1.62,.87,2.79,2.4,3.21,4.19,.37,1.33,.55,2.71,.55,4.1,0,2.69,0,5.03,.09,7.73,.09,2.05,.09,3.82,.28,5.87,.1,.66,.25,1.32,.45,1.96h-9.17c-.2-.25-.36-.53-.45-.84-.18-.56-.37-1.02-.55-1.68l-.55-4.3c.35-.53,.57-1.14,.64-1.77,.09-.87,.09-1.74,0-2.61-1.08,.46-2.18,.86-3.31,1.21-.94,.26-1.85,.57-2.75,.93-.36,.18-.7,.4-1.01,.65-.45,.43-.65,1.06-.55,1.68,.09,.38,.28,.74,.55,1.02,.31,.36,.73,.62,1.19,.75,.53,.2,1.09,.27,1.65,.19,.67-.1,1.31-.29,1.93-.56,.69-.28,1.27-.77,1.65-1.4l.55,4.28c-.86,1.06-1.96,1.9-3.22,2.42-1.48,.58-3.06,.88-4.65,.9-1.19,0-2.38-.18-3.52-.53h0Zm182.51,.37c-2.31-.22-4.5-1.09-6.33-2.52-1.51-1.12-2.76-2.55-3.67-4.19-.72-1.27-1.22-2.66-1.47-4.1-.37-2.02-.28-4.09,.27-6.06,1.12-4.59,4.81-8.12,9.46-9.02,2.58-.54,5.25-.48,7.8,.19,1.84,.43,3.53,1.36,4.87,2.69,.88,.78,1.6,1.73,2.11,2.8,.64,1.27,.93,2.68,.83,4.1h-8.45c-.18-1.11-.77-2.11-1.65-2.79-1.12-.94-2.74-1.02-3.95-.19-.83,.52-1.44,1.32-1.74,2.25-.72,2.24-.75,4.64-.09,6.89,.25,.96,.76,1.83,1.47,2.52,.8,.78,1.92,1.16,3.03,1.02,.67-.1,1.29-.43,1.74-.93,.49-.55,.8-1.23,.92-1.96,.11-.49,.17-.99,.18-1.49h8.91c.18,2.51-.72,4.99-2.47,6.8-1.75,1.92-4.07,3.22-6.61,3.73-1.13,.24-2.29,.37-3.44,.37-.57,0-1.14-.04-1.71-.1h0Zm-69.22-.28c-1.78-.39-3.45-1.19-4.87-2.33-2.23-1.69-3.82-4.09-4.49-6.8-.47-1.76-.62-3.59-.45-5.4,.21-2.97,1.52-5.76,3.67-7.83,1.92-1.97,4.44-3.25,7.16-3.63,.91-.11,1.82-.17,2.74-.19,.92-.03,1.84,.03,2.75,.19,2.77,.42,5.34,1.69,7.35,3.63,2.15,2.06,3.46,4.85,3.67,7.83,.22,1.81,.07,3.65-.45,5.4-.67,2.71-2.26,5.11-4.49,6.8-1.4,1.18-3.07,1.98-4.87,2.33-1.27,.26-2.56,.39-3.86,.37-1.3,.02-2.6-.1-3.88-.37h0Zm.92-18.07c-.52,.72-.87,1.55-1.01,2.42-.31,1.66-.34,3.36-.09,5.03,.15,.83,.39,1.65,.73,2.42,.36,.83,1.01,1.49,1.84,1.86,1.85,.83,4.03,0,4.86-1.85,0,0,0,0,0-.01,.37-.76,.62-1.58,.73-2.42,.29-1.67,.26-3.37-.09-5.03-.18-.86-.53-1.69-1.01-2.42-1.05-1.65-3.24-2.13-4.89-1.08-.43,.28-.8,.64-1.08,1.08h0Zm-29.84,17.42c-1.55-.42-2.97-1.22-4.13-2.33-.89-.86-1.58-1.91-2.02-3.07-.32-.77-.48-1.59-.45-2.42v-.56h9c.02,.44,.08,.88,.18,1.3,.09,.53,.39,1,.83,1.3,.3,.27,.64,.49,1.01,.65,.77,.36,1.64,.46,2.47,.28,.63-.09,1.21-.38,1.65-.84,.42-.45,.59-1.08,.45-1.68-.15-.56-.56-1.01-1.1-1.21-.66-.2-1.34-.35-2.02-.46-1.93-.28-3.58-.65-4.96-.93-.91-.19-1.8-.47-2.66-.84-1.75-.67-3.12-2.06-3.75-3.83-.45-.96-.64-2.02-.55-3.07,.08-.63,.2-1.25,.37-1.86,.42-1.32,1.22-2.48,2.3-3.35,1.27-.99,2.74-1.69,4.31-2.04,1.13-.33,2.31-.52,3.49-.56,2.06-.11,4.12,.02,6.15,.37,.88,.15,1.75,.4,2.57,.75,.83,.31,1.61,.75,2.29,1.3,.81,.65,1.42,1.53,1.74,2.52,.37,.95,.55,1.96,.55,2.98h-8.72c.03-1.01-.6-1.92-1.56-2.25-.97-.36-2.04-.39-3.03-.09-.57,.11-1.05,.49-1.28,1.02v.09c-.26,.56-.01,1.23,.55,1.49,0,0,0,0,0,0,.21,.07,.42,.14,.64,.19,.45,.09,.92,.19,1.47,.28,1.9,.26,3.77,.66,5.6,1.21,.37,.09,.64,.19,1.01,.28,1.54,.41,2.95,1.18,4.13,2.25,.86,.78,1.5,1.78,1.84,2.89,.98,2.99,.04,6.28-2.39,8.29-.55,.43-1.13,.8-1.74,1.12-1.36,.77-2.86,1.28-4.41,1.49-1.16,.16-2.34,.24-3.51,.24-2.14,0-4.26-.31-6.31-.91ZM0,36.31V1.19H17.17c.64-.02,1.28,.02,1.92,.09,4.45,.21,8.39,2.92,10.19,6.99,1,2.05,1.38,4.35,1.1,6.62-.47,4.93-4.07,8.99-8.91,10.06-1.54,.34-3.11,.5-4.68,.46h-6.32v10.9H0ZM10.47,17.23h4.13c.74,.02,1.47-.01,2.2-.09,1.05-.06,2.02-.57,2.66-1.4,.34-.43,.57-.95,.64-1.49,.09-.46,.09-.94,0-1.4-.14-1.82-1.67-3.21-3.49-3.18h-6.15v7.56Zm184.36,19V11.16h9.18v25.06h-9.18Zm-11.84,0v-14.54c-.02-.47-.08-.95-.2-1.41-.22-.8-.8-1.45-1.56-1.77-1.74-.75-3.76-.07-4.68,1.58-.36,.66-.55,1.39-.55,2.14v13.99h-9.46V11.16h8.91l.18,2.69c1.13-1.06,2.43-1.91,3.86-2.52,2.26-1.11,4.85-1.31,7.25-.56,2.66,.76,4.74,2.84,5.51,5.5,.36,1.24,.55,2.53,.55,3.82v16.13h-9.81Zm-108.98,0v-14.54c-.02-.47-.08-.94-.18-1.4-.22-.8-.8-1.45-1.56-1.77-1.74-.75-3.76-.07-4.68,1.58-.36,.66-.55,1.39-.55,2.14v13.98h-9.56V11.16h8.91l.18,2.69c1.13-1.06,2.43-1.91,3.86-2.52,2.26-1.11,4.85-1.31,7.25-.56,2.66,.76,4.74,2.84,5.51,5.5,.36,1.24,.55,2.53,.55,3.82v16.13h-9.72ZM194.82,7.82V1.19h9.18V7.81h-9.18Z"/>
        </g>
        <rect class="cls-3" x="263.79" y=".5" width="93.33" height="41.58"/>
      </g>
      <g>
        <path class="cls-2" d="M305.58,30h-20.88v-1.24h9.87v-6.46h-7.85v-1.25h7.85v-5.87h-8.98v-1.25h9.36c-.71-1.68-1.46-2.99-2.26-3.94l1.23-.48c.95,1.34,1.74,2.82,2.39,4.42h8.43v1.25h-8.84v5.87h7.64v1.25h-7.64v6.46h9.68v1.24Z"/>
        <path class="cls-2" d="M315.8,19.1l-.74,1.03c-.96-.98-2.25-2.01-3.87-3.07l.77-1.01c1.48,.95,2.75,1.97,3.83,3.05Zm.41,3.84c-1.23,3.02-2.55,5.54-3.98,7.58l-.94-.91c1.38-1.95,2.68-4.41,3.89-7.38l1.03,.71Zm.43-10.22l-.79,.96c-1.12-1.14-2.39-2.18-3.8-3.11l.8-1.03c1.27,.86,2.53,1.92,3.79,3.18Zm15.57,8.54l-.79,1.05c-3.41-2.41-5.83-4.67-7.25-6.8-1.89,2.37-4.35,4.6-7.37,6.7l-.9-.87c3.88-2.66,6.59-5.28,8.13-7.85l1.12,.46c-.05,.11-.12,.26-.23,.46,1.73,2.59,4.16,4.88,7.29,6.84Zm-9.28-10.97c-1.8,2.1-3.59,3.74-5.36,4.92l-.96-.89c1.81-1.18,3.59-2.79,5.33-4.83l.98,.8Zm6.41,20.32h-1.25v-1.61h-7.92v1.61h-1.27v-9.16h10.44v9.16Zm-1.25-2.82v-5.09h-7.92v5.09h7.92Zm3.57-13.42l-.83,.87c-1.66-1.85-3.52-3.44-5.6-4.76l.82-.91c2.39,1.58,4.26,3.18,5.61,4.8Z"/>
      </g>
    </g>
  </g>
</svg>