<?xml version="1.0" encoding="UTF-8"?>
<svg id="_圖層_2" data-name="圖層 2" xmlns="http://www.w3.org/2000/svg" xmlns:xlink="http://www.w3.org/1999/xlink" viewBox="0 0 1242 583">
  <defs>
    <style>
      .cls-1 {
        fill: #0d3b41;
      }

      .cls-2 {
        fill: #262626;
      }

      .cls-3 {
        fill: none;
        stroke: #0d3b41;
        stroke-miterlimit: 10;
        stroke-width: .75px;
      }

      .cls-4 {
        fill: #c1a257;
      }

      .cls-5 {
        filter: url(#drop-shadow-4);
      }

      .cls-5, .cls-6, .cls-7, .cls-8, .cls-9 {
        fill: #fff;
      }

      .cls-6 {
        filter: url(#drop-shadow-3);
      }

      .cls-7 {
        filter: url(#drop-shadow-2);
      }

      .cls-8 {
        filter: url(#drop-shadow-5);
      }

      .cls-10 {
        opacity: .6;
      }

      .cls-10, .cls-11, .cls-12 {
        fill: #c91800;
      }

      .cls-9 {
        filter: url(#drop-shadow-1);
      }

      .cls-11 {
        opacity: .8;
      }

      .cls-12 {
        opacity: .9;
      }
    </style>
    <filter id="drop-shadow-1" filterUnits="userSpaceOnUse">
      <feOffset dx="5" dy="6"/>
      <feGaussianBlur result="blur" stdDeviation="5"/>
      <feFlood flood-color="#000" flood-opacity=".6"/>
      <feComposite in2="blur" operator="in"/>
      <feComposite in="SourceGraphic"/>
    </filter>
    <filter id="drop-shadow-2" filterUnits="userSpaceOnUse">
      <feOffset dx="5" dy="6"/>
      <feGaussianBlur result="blur-2" stdDeviation="5"/>
      <feFlood flood-color="#000" flood-opacity=".6"/>
      <feComposite in2="blur-2" operator="in"/>
      <feComposite in="SourceGraphic"/>
    </filter>
    <filter id="drop-shadow-3" filterUnits="userSpaceOnUse">
      <feOffset dx="5" dy="6"/>
      <feGaussianBlur result="blur-3" stdDeviation="5"/>
      <feFlood flood-color="#000" flood-opacity=".6"/>
      <feComposite in2="blur-3" operator="in"/>
      <feComposite in="SourceGraphic"/>
    </filter>
    <filter id="drop-shadow-4" filterUnits="userSpaceOnUse">
      <feOffset dx="5" dy="6"/>
      <feGaussianBlur result="blur-4" stdDeviation="5"/>
      <feFlood flood-color="#000" flood-opacity=".6"/>
      <feComposite in2="blur-4" operator="in"/>
      <feComposite in="SourceGraphic"/>
    </filter>
    <filter id="drop-shadow-5" filterUnits="userSpaceOnUse">
      <feOffset dx="5" dy="6"/>
      <feGaussianBlur result="blur-5" stdDeviation="5"/>
      <feFlood flood-color="#000" flood-opacity=".6"/>
      <feComposite in2="blur-5" operator="in"/>
      <feComposite in="SourceGraphic"/>
    </filter>
  </defs>
  <g id="_圖層_5" data-name="圖層 5">
    <path class="cls-9" d="M1221.73,375.14c0,51.08-85.99,135.31-85.99,135.31,0,0-85.99-84.23-85.99-135.31s32.25-92.49,85.99-92.49,85.99,41.41,85.99,92.49Z"/>
    <path class="cls-3" d="M1216.24,376.51c0,47.82-80.5,126.67-80.5,126.67,0,0-80.5-78.86-80.5-126.67s30.19-86.58,80.5-86.58,80.5,38.76,80.5,86.58Z"/>
    <path class="cls-7" d="M1044.02,426.67c0,51.08-85.99,135.31-85.99,135.31,0,0-85.99-84.23-85.99-135.31s32.25-92.49,85.99-92.49,85.99,41.41,85.99,92.49Z"/>
    <path class="cls-3" d="M1038.53,428.03c0,47.82-80.5,126.67-80.5,126.67,0,0-80.5-78.86-80.5-126.67s30.19-86.58,80.5-86.58,80.5,38.76,80.5,86.58Z"/>
    <path class="cls-6" d="M855.24,214.4c0,51.08-85.99,135.31-85.99,135.31,0,0-85.99-84.23-85.99-135.31s32.25-92.49,85.99-92.49,85.99,41.41,85.99,92.49Z"/>
    <path class="cls-3" d="M849.75,215.76c0,47.82-80.5,126.67-80.5,126.67,0,0-80.5-78.86-80.5-126.67s30.19-86.58,80.5-86.58,80.5,38.76,80.5,86.58Z"/>
    <path class="cls-5" d="M617.79,387.43c0,51.08-85.99,135.31-85.99,135.31,0,0-85.99-84.23-85.99-135.31s32.25-92.49,85.99-92.49,85.99,41.41,85.99,92.49Z"/>
    <path class="cls-3" d="M612.3,388.79c0,47.82-80.5,126.67-80.5,126.67,0,0-80.5-78.86-80.5-126.67s30.19-86.58,80.5-86.58,80.5,38.76,80.5,86.58Z"/>
    <path class="cls-8" d="M182.94,101.63c0,51.08-85.99,135.31-85.99,135.31,0,0-85.99-84.23-85.99-135.31S43.21,9.14,96.95,9.14s85.99,41.41,85.99,92.49Z"/>
    <path class="cls-3" d="M177.45,102.99c0,47.82-80.5,126.67-80.5,126.67,0,0-80.5-78.86-80.5-126.67S46.64,16.41,96.95,16.41s80.5,38.76,80.5,86.58Z"/>
    <g>
      <path class="cls-1" d="M79.41,153.46h-4.23l-.17-.63h4.31l-.28-2.2,2.38,.17c-.04,.24-.2,.48-.63,.61l.2,1.42h1.31l.98-1.31s1.13,.92,1.81,1.59c-.04,.24-.24,.35-.54,.35h-3.46l.22,1.61c-.22,.35-.85,.5-1.61,.5l-.26-2.11Zm13.14,10.89s1.31,1.02,2.11,1.76c-.06,.24-.28,.35-.59,.35h-8.15v3.75c-.02,.09-.57,.48-1.46,.48h-.28v-4.23h-8.37l-.2-.65h8.56v-2.48h-3.92v.68c0,.15-.74,.54-1.44,.54h-.26v-8.87l1.83,.78h9.2l.89-.92,1.85,1.42c-.11,.15-.44,.33-.81,.39v6.34c-.02,.17-.87,.57-1.44,.57h-.28v-.94h-3.88v2.48h5.47l1.15-1.46Zm-12.29-7.23v2.42h9.54v-2.42h-9.54Zm9.54,5.58v-2.53h-9.54v2.53h9.54Zm3.55-11.18s1.15,.92,1.81,1.59c-.07,.24-.26,.35-.54,.35h-4.18l-.31,1.76c-.33,.26-.98,.35-1.68,.2l.33-1.96h-2.99l-.17-.63h3.23l.37-2.27,2.38,.48c-.09,.26-.3,.5-.85,.52l-.2,1.26h1.83l.98-1.31Z"/>
      <path class="cls-1" d="M99.14,155.84c4.9,.5,3.73,3.94,1.98,2.9-.31-.98-1.33-2.09-2.18-2.72l.2-.17Zm6.36-1.11c-.92,2.66-2.68,7.6-2.99,8.67-.2,.7-.35,1.39-.33,1.92,.02,1.02,.72,1.98,.63,3.79-.04,1-.54,1.59-1.35,1.59-.44,0-.76-.37-.85-1.09,.35-2.24,.22-4.05-.26-4.38-.31-.22-.63-.28-1.09-.33v-.46h.96c.28,0,.35,0,.59-.46q.41-.74,4.29-9.37l.39,.11Zm-4.84-3.88c5.19,.68,3.97,4.23,2.18,3.12-.37-1.05-1.44-2.27-2.38-2.94l.2-.17Zm9.43,15.84c-.15,.22-.37,.28-.83,.15-1.13,.89-3.05,2.24-4.75,3.22l-.26-.26c1.37-1.29,3.12-3.18,3.99-4.31l1.85,1.2Zm4.47-4.88c5.49,1.55,4.42,4.88,2.75,3.81-.17-.46-.52-1-.96-1.55-1.02,.15-2.27,.33-3.64,.52v4.08c0,1.2-.28,1.94-2.31,2.11-.02-.46-.11-.83-.33-1.07-.26-.24-.7-.41-1.55-.52v-.33s1.7,.13,2.09,.13c.33,0,.41-.13,.41-.37v-3.83c-1.48,.2-3.09,.37-4.79,.57-.13,.17-.26,.31-.41,.35l-.87-1.81s.44-.04,.68-.11c1.77-.5,3.86-1.44,5.71-2.42-1.35,.24-3.03,.52-4.77,.74-.11,.2-.24,.33-.37,.37l-.92-1.74s.37-.07,.54-.13c1.74-.44,3.88-1.7,5.06-2.55h-3.18v.57c0,.13-.52,.48-1.37,.48h-.26v-8.11l1.9,.76h7.89l.83-.96,1.77,1.33c-.13,.15-.37,.3-.81,.37v5.91c0,.07-.61,.44-1.44,.44h-.28v-.78h-4.25l1.35,.92c-.13,.17-.44,.33-.96,.17-1.09,.54-2.81,1.2-4.51,1.7,1.37-.04,3.18-.09,5.03-.17,.98-.57,1.81-1.09,2.4-1.53l1.9,1.2c-.13,.22-.46,.37-.98,.2-1.92,1.05-5.32,2.42-8.43,3.38,2.18-.04,5.27-.17,8.52-.33-.52-.61-1.11-1.2-1.63-1.61l.22-.17Zm-6.86-9.41v2.24h3.29v-2.24h-3.29Zm0,5.03h3.29v-2.14h-3.29v2.14Zm4.92-5.03v2.24h3.29v-2.24h-3.29Zm3.29,5.03v-2.14h-3.29v2.14h3.29Zm-1.87,8.21c6.49,1.87,5.1,5.19,3.55,4.14-.46-.94-1.81-2.53-3.75-3.81l.2-.33Z"/>
    </g>
    <g>
      <path class="cls-1" d="M757.98,270.46c.76,4.1,3.14,8.39,9.5,11.2l-.02,.26c-.94,.13-1.55,.57-1.77,1.57-5.75-3.25-7.47-8.48-8.11-12.83-.63,5.1-2.68,9.59-10.24,12.81l-.26-.35c6.3-3.49,8.11-7.76,8.65-12.66h-8.26l-.15-.63h8.48c.17-2.03,.15-4.18,.15-6.41l2.7,.28c-.07,.33-.24,.54-.74,.61-.04,1.9-.07,3.73-.24,5.51h5.88l1.29-1.61s1.5,1.13,2.38,1.9c-.04,.24-.28,.35-.57,.35h-8.67Z"/>
      <path class="cls-1" d="M777.51,269.11v13.79c0,.13-.57,.52-1.5,.52h-.26v-14.32h-1.02c-.98,1.85-2.16,3.42-3.49,4.62l-.3-.2c1.66-2.46,3.16-6.23,3.88-10.18l2.59,.7c-.09,.28-.33,.48-.83,.46-.44,1.42-.94,2.75-1.55,3.97h3.42l1.07-1.39s1.22,.98,1.94,1.68c-.07,.24-.26,.35-.57,.35h-3.38Zm11.9-2.07s1.26,.98,2,1.72c-.04,.24-.26,.35-.54,.35h-3.33v11.85c0,1.33-.33,2.27-2.64,2.48-.02-.57-.15-1-.46-1.29-.33-.31-.87-.52-1.96-.68v-.31s2.31,.15,2.79,.15c.39,0,.5-.13,.5-.44v-11.79h-2.57c-1.07,1.81-2.33,3.33-3.75,4.49l-.28-.24c1.79-2.35,3.4-6.08,4.21-10.02l2.7,.81c-.09,.26-.35,.46-.85,.44-.46,1.39-1.02,2.7-1.66,3.9h4.73l1.11-1.44Z"/>
    </g>
    <g>
      <path class="cls-1" d="M527.41,442.66s1.26,.96,2.03,1.68c-.04,.24-.28,.35-.59,.35h-18.89l-.2-.65h8.89v-1.96h-6.34l-.17-.65h6.51v-1.85h-7.47l-.17-.65h7.65v-2.55l2.55,.24c-.04,.31-.26,.52-.81,.63v1.68h4.88l1.11-1.37s1.24,.96,2.03,1.68c-.04,.24-.28,.35-.59,.35h-7.43v1.85h3.68l1.07-1.29s1.2,.89,1.94,1.59c-.07,.24-.28,.35-.57,.35h-6.12v1.96h5.91l1.11-1.37Zm-3.01,2.62l2.03,1.53c-.13,.15-.48,.35-.94,.44v7.08c0,1.24-.31,1.96-2.62,2.18-.07-.5-.2-.92-.52-1.16-.35-.24-.89-.46-1.96-.61v-.3s2.35,.17,2.85,.17c.39,0,.5-.15,.5-.46v-2.07h-8.39c-.35,1.68-1.24,3.38-3.62,4.55l-.22-.26c2.05-1.87,2.29-4.25,2.29-6.58v-4.34l2.05,.83h7.67l.87-1Zm-.65,6.17v-2h-8.19v.33c0,.54-.02,1.09-.09,1.68h8.28Zm-8.19-4.53v1.9h8.19v-1.9h-8.19Z"/>
      <path class="cls-1" d="M539.29,440.94s1.09,1.02,1.74,1.72c-.07,.22-.28,.33-.57,.33h-2.66v6.38c.98-.33,2-.67,3.03-1.02l.09,.3c-1.46,.87-3.57,2.22-6.43,3.79-.09,.26-.28,.5-.5,.59l-.92-2.18c.61-.17,1.7-.5,3.01-.92v-6.95h-2.42l-.17-.61h2.59v-5.67l2.51,.26c-.04,.3-.24,.52-.79,.61v4.79h.5l.98-1.44Zm8.34-.41v2.55h3.03l.85-1.02,2.05,1.55c-.15,.17-.48,.37-.94,.46v10.09c0,1.31-.26,2.07-2.31,2.27-.04-.54-.13-.98-.37-1.24-.26-.26-.67-.48-1.44-.59v-.35s1.59,.13,1.96,.13c.33,0,.44-.13,.44-.41v-3.01h-3.27v4.6c0,.2-.74,.61-1.33,.61h-.35v-5.21h-3.22v4.97c0,.13-.54,.57-1.42,.57h-.28v-14.23l1.96,.83h2.96v-2.55h-5.71l-.17-.63h5.88v-3.46l2.4,.26c-.04,.28-.2,.48-.72,.57v2.64h3.12l1.07-1.39s1.26,.98,2.03,1.68c-.07,.24-.28,.35-.59,.35h-5.62Zm-4.9,3.18v2.94h3.22v-2.94h-3.22Zm3.22,6.58v-3.03h-3.22v3.03h3.22Zm1.68-6.58v2.94h3.27v-2.94h-3.27Zm3.27,6.58v-3.03h-3.27v3.03h3.27Zm-2.18-13.42c4.03,.44,2.79,3.36,1.31,2.35-.15-.78-.87-1.7-1.5-2.18l.2-.17Z"/>
    </g>
    <g>
      <path class="cls-1" d="M1120.66,430.2c-.09,.22-.28,.37-.85,.35-1.05,3.01-2.96,7.1-5.95,9.85l-.26-.22c2.2-3.09,3.7-7.71,4.31-10.92l2.75,.94Zm4.95-5.64c-.07,.3-.26,.52-.81,.59v16.39c0,1.44-.33,2.31-2.96,2.57-.07-.61-.24-1.07-.63-1.35-.44-.33-1.11-.57-2.38-.76v-.33s2.96,.22,3.51,.22c.48,0,.61-.15,.61-.52v-17.08l2.66,.28Zm6.04,14.6c-.31-3.03-2.44-6.82-4.29-9.37l.33-.15c7.76,5.58,6.28,11.55,3.97,9.52Z"/>
      <path class="cls-1" d="M1142.21,432.71c4.23,1.87,2.72,4.68,1.31,3.51-.15-.94-.76-2.11-1.31-2.99v10.31c0,.22-.72,.57-1.35,.57h-.35v-9.48c-.72,1.61-1.68,3.09-2.85,4.4l-.3-.26c1.5-2.48,2.42-5.71,2.9-8.89h-2.42l-.17-.63h2.85v-5.16l2.46,.26c-.07,.33-.22,.52-.76,.61v4.29h.35l.98-1.33s1.09,.94,1.77,1.61c-.07,.24-.26,.35-.57,.35h-2.53v2.83Zm10.11-8.08c-.04,.24-.26,.35-.78,.39,1.33,1.74,3.99,3.25,6.36,4.05l-.04,.31c-.65,.17-1.16,.78-1.26,1.39-2.24-1.22-4.36-3.29-5.38-5.51-1.15,1.85-3.42,3.73-5.73,5.05l1.81,.76h7.15l.76-.83,1.72,1.26c-.11,.15-.39,.31-.72,.37v4.07c-.02,.15-.85,.48-1.33,.48h-.09l1.55,1.16c-.13,.17-.44,.33-.85,.41v5.38c-.02,.13-.81,.48-1.35,.48h-.28v-.94h-6.06v.59c0,.13-.52,.52-1.33,.52h-.26v-7.52c-.15,.02-.31,.04-.48,.04h-.26v-6.23c-.5,.28-1,.54-1.5,.76l-.17-.3c2.44-1.55,5.23-4.58,5.95-6.71l2.59,.54Zm2.29,11.68v-.57h-7.58v.33c0,.09-.22,.26-.57,.39l1.59,.65h5.6l.85-.89,.11,.09Zm-7.58-4.6v3.4h3.07v-3.4h-3.07Zm.85,.39c2.59,1.35,1.46,3.16,.57,2.35-.02-.74-.46-1.68-.85-2.22l.28-.13Zm4.4-4.03s1.02,.78,1.7,1.37c-.07,.24-.26,.35-.57,.35h-5.47l-.17-.63h3.6l.92-1.09Zm-4.49,11.61h6.06v-1.94h-6.06v1.94Zm6.06,2.61v-1.98h-6.06v1.98h6.06Zm-2.33-10.59v3.4h3.09v-3.4h-3.09Zm.57,2.9c.28-.74,.61-1.92,.72-2.51l1.66,.52c-.04,.17-.26,.41-.7,.37-.3,.48-.85,1.15-1.39,1.72l-.28-.11Z"/>
    </g>
    <g>
      <path class="cls-1" d="M954.72,480.79c-.13,.17-.48,.37-.92,.46v7.36c-.02,.15-.92,.52-1.53,.52h-.31v-1.81h-5.93v7.71c0,.24-.78,.7-1.46,.7h-.35v-8.41h-5.93v1.48c0,.17-.76,.61-1.5,.61h-.28v-10l1.96,.85h5.75v-4.64l2.62,.28c-.07,.3-.24,.54-.81,.63v3.73h5.71l.96-1,2,1.53Zm-10.48,5.91v-5.8h-5.93v5.8h5.93Zm7.74,0v-5.8h-5.93v5.8h5.93Z"/>
      <path class="cls-1" d="M964.43,492.03c1.09-.26,2.27-.54,3.44-.85l.09,.3c-1.85,.85-4.36,1.98-7.8,3.33-.09,.26-.3,.46-.52,.52l-.81-2.07c.33-.07,.78-.15,1.33-.26v-7.71l2.05,.22c-.04,.24-.22,.41-.61,.48v6.69l1.26-.28v-9.35h-1.16v.52c0,.13-.5,.5-1.33,.5h-.24v-7.67l1.83,.76h3.01l.83-.92,1.87,1.42c-.15,.15-.48,.33-.89,.41v5.25c-.04,.13-.83,.44-1.33,.44h-.26v-.72h-.76v3.42h.7l.96-1.35s1.11,.98,1.76,1.66c-.07,.24-.26,.35-.57,.35h-2.85v4.9Zm-2.72-9.61h3.49v-4.62h-3.49v4.62Zm15.93-3.57c-.15,.2-.39,.26-.89,.31-.72,1.63-1.7,3.16-2.94,4.51,1.48,1.18,3.38,2.07,5.73,2.66l-.07,.22c-.68,.2-1.13,.65-1.29,1.5-.78-.3-1.5-.63-2.16-1l1.66,1.29c-.15,.15-.35,.26-.81,.35v6.54c0,.09-.61,.46-1.44,.46h-.3v-1.48h-4.9v1.07c0,.13-.54,.46-1.39,.46h-.28v-8.17c-.78,.37-1.61,.72-2.48,1.02l-.17-.3c2.48-1.15,4.58-2.79,6.19-4.68-.68-.92-1.22-1.92-1.7-2.99-.94,1.22-2,2.24-3.16,3.01l-.28-.22c1.61-1.76,3.16-4.64,3.94-7.78l2.44,.83c-.11,.26-.37,.46-.85,.41-.2,.5-.41,.96-.65,1.42h3.05l1.05-.98,1.72,1.57Zm-1.74,8.13c-1.18-.7-2.16-1.5-2.99-2.4-1.13,1.05-2.42,1.96-3.92,2.75l1.46,.61h4.62l.83-.96Zm-.76,6.58v-4.99h-4.9v4.99h4.9Zm-3.64-14.66c-.24,.41-.5,.83-.76,1.22,.54,.96,1.2,1.85,2,2.64,.92-1.2,1.61-2.51,2.14-3.86h-3.38Z"/>
    </g>
    <g>
      <path class="cls-4" d="M93.16,73.48v4.62h-20.93v-3.4c2.53-2.75,5.06-5.41,7.19-7.59,4.93-5.14,6.89-8.33,6.89-12.6,0-4.01-2.09-6.63-5.62-6.63-.65,0-1.35,.09-2.05,.26l-1.05,4.01c-.48,2.57-1.66,3.31-2.92,3.31-1.18,0-2.09-.65-2.57-1.66,.52-4.88,5.1-7.5,10.46-7.5,6.58,0,9.59,3.49,9.59,8.41,0,4.32-3.14,7.98-10.99,14.04-1.4,1.09-3.44,2.88-5.58,4.71h17.57Z"/>
      <path class="cls-4" d="M121.8,69.9h-4.93v8.2h-5.19v-8.2h-12.82v-3.1l14.04-20.01h3.97v19.27h4.93v3.84Zm-10.11-3.84v-14.78l-10.42,14.78h10.42Z"/>
    </g>
    <line class="cls-3" x1="71.41" y1="143.79" x2="122.5" y2="143.79"/>
    <g>
      <polygon class="cls-12" points="135.63 83.13 119.68 110.75 151.58 110.75 135.63 83.13"/>
      <polygon class="cls-11" points="135.63 91.02 119.68 118.64 151.58 118.64 135.63 91.02"/>
      <polygon class="cls-10" points="135.63 99.61 119.68 127.23 151.58 127.23 135.63 99.61"/>
    </g>
    <g>
      <path d="M518.42,410.62v2.11h-11.19v-1.69c1.49-1.49,2.93-3.06,4.13-4.3,2.76-2.88,3.9-5,3.9-7.18s-1.29-3.7-3.33-3.7c-.4,0-.92,.05-1.47,.17l-.55,1.99c-.32,1.24-.79,1.71-1.49,1.71-.57,0-1.04-.3-1.32-.82,.37-2.78,2.76-4.13,5.47-4.13,3.5,0,5.07,1.91,5.07,4.65,0,2.34-1.27,4.2-5.44,8.15-.77,.75-1.94,1.86-3.18,3.03h9.4Z"/>
      <path d="M534.55,403.96c0,6.71-2.81,9.12-5.67,9.12s-5.72-2.41-5.72-9.12,2.78-9.17,5.72-9.17,5.67,2.49,5.67,9.17Zm-5.67,8.08c1.67,0,3.23-1.69,3.23-8.08s-1.57-8.1-3.23-8.1-3.31,1.69-3.31,8.1,1.57,8.08,3.31,8.08Z"/>
    </g>
    <g>
      <path class="cls-4" d="M512.08,344.94c1.74-.52,3.49-.79,5.49-.79,6.89,0,11.29,3.4,11.29,9.5,0,6.45-4.97,10.24-12.12,10.24-5.62,0-9.07-2.7-9.63-7.28,.44-1.18,1.44-1.74,2.57-1.74,1.57,0,2.44,.87,2.83,3.27l.74,3.75c.78,.26,1.57,.39,2.57,.39,4.32,0,6.98-3.01,6.98-7.98s-2.57-7.76-6.76-7.76c-1.7,0-3.27,.17-4.88,.74l-1.26-.65,1.05-14.52h16.87v4.62h-15.17l-.57,8.2Z"/>
      <path class="cls-4" d="M539.72,344.94c1.74-.52,3.49-.79,5.49-.79,6.89,0,11.29,3.4,11.29,9.5,0,6.45-4.97,10.24-12.12,10.24-5.62,0-9.07-2.7-9.63-7.28,.44-1.18,1.44-1.74,2.57-1.74,1.57,0,2.44,.87,2.83,3.27l.74,3.75c.78,.26,1.57,.39,2.57,.39,4.32,0,6.98-3.01,6.98-7.98s-2.57-7.76-6.76-7.76c-1.7,0-3.27,.17-4.88,.74l-1.26-.65,1.05-14.52h16.87v4.62h-15.17l-.57,8.2Z"/>
    </g>
    <line class="cls-3" x1="506.26" y1="429.59" x2="557.35" y2="429.59"/>
    <g>
      <polygon class="cls-12" points="572.17 368.93 556.23 396.55 588.12 396.55 572.17 368.93"/>
      <polygon class="cls-11" points="572.17 376.82 556.23 404.44 588.12 404.44 572.17 376.82"/>
      <polygon class="cls-10" points="572.17 385.41 556.23 413.03 588.12 413.03 572.17 385.41"/>
    </g>
    <g>
      <path d="M754.69,238.86v.84h-10.04v-.84l3.88-.55c.02-1.44,.05-2.91,.05-4.35v-10.04l-3.63,.35v-.95l5.59-1.44,.37,.27-.1,3.9v7.9c0,1.44,.02,2.91,.05,4.35l3.83,.55Z"/>
      <path d="M770.47,222.45c-5.2,1.24-7.75,3.98-8.18,8.23,1.14-1.14,2.56-1.77,4.05-1.77,2.96,0,4.95,2.09,4.95,5.34,0,3.7-2.29,5.79-5.57,5.79-3.63,0-5.89-2.81-5.89-7.61,0-5.37,3.75-9.92,10.49-10.69l.15,.7Zm-8.25,9.62c0,4.67,1.34,6.93,3.58,6.93,1.86,0,3.16-1.47,3.16-4.45s-1.29-4.15-3.23-4.15c-1.17,0-2.44,.32-3.5,1.27v.4Z"/>
    </g>
    <g>
      <path class="cls-4" d="M751.05,164.58c-.35,2.05-1.44,2.83-2.92,2.83-1,0-1.88-.52-2.31-1.44,.44-4.79,4.67-6.89,9.55-6.89,6.37,0,9.68,3.14,9.68,7.63,0,3.66-2.27,6.54-7.59,7.76,6.15,.96,8.54,3.97,8.54,8.11,0,5.28-4.4,8.98-11.38,8.98-5.88,0-9.42-2.48-9.98-7.28,.48-1.22,1.48-1.74,2.48-1.74,1.61,0,2.49,.83,2.92,3.4l.79,3.75c.7,.17,1.39,.26,2.14,.26,4.67,0,7.11-2.53,7.11-7.24s-2.44-7.19-7.11-7.19h-1.92v-1.74h1.61c4.05,0,6.71-2.31,6.71-6.93,0-4.01-2-6.19-5.54-6.19-.61,0-1.22,.09-1.88,.22l-.92,3.71Z"/>
      <path class="cls-4" d="M777.08,172.6c1.74-.52,3.49-.79,5.49-.79,6.89,0,11.29,3.4,11.29,9.5,0,6.45-4.97,10.24-12.12,10.24-5.62,0-9.07-2.7-9.63-7.28,.44-1.18,1.44-1.74,2.57-1.74,1.57,0,2.44,.87,2.83,3.27l.74,3.75c.78,.26,1.57,.39,2.57,.39,4.32,0,6.98-3.01,6.98-7.98s-2.57-7.76-6.76-7.76c-1.7,0-3.27,.17-4.88,.74l-1.26-.65,1.05-14.52h16.87v4.62h-15.17l-.57,8.2Z"/>
    </g>
    <line class="cls-3" x1="743.7" y1="256.56" x2="794.8" y2="256.56"/>
    <g>
      <polygon class="cls-12" points="808.38 195.9 792.43 223.52 824.32 223.52 808.38 195.9"/>
      <polygon class="cls-11" points="808.38 203.79 792.43 231.41 824.32 231.41 808.38 203.79"/>
      <polygon class="cls-10" points="808.38 212.38 792.43 240 824.32 240 808.38 212.38"/>
    </g>
    <g>
      <path d="M944.71,449.86v2.11h-11.19v-1.69c1.49-1.49,2.93-3.06,4.13-4.3,2.76-2.88,3.9-5,3.9-7.18s-1.29-3.7-3.33-3.7c-.4,0-.92,.05-1.47,.17l-.55,1.99c-.32,1.24-.79,1.71-1.49,1.71-.57,0-1.04-.3-1.32-.82,.37-2.78,2.76-4.13,5.47-4.13,3.5,0,5.07,1.91,5.07,4.65,0,2.34-1.27,4.2-5.44,8.15-.77,.75-1.94,1.86-3.18,3.03h9.4Z"/>
      <path d="M952.09,441.41c.89-.27,1.76-.4,2.76-.4,3.53,0,5.94,1.96,5.94,5.49s-2.51,5.82-6.36,5.82c-2.76,0-4.52-1.27-5.07-3.78,.22-.57,.7-.87,1.29-.87,.79,0,1.14,.4,1.47,1.71l.45,1.64c.57,.17,1.09,.25,1.67,.25,2.71,0,4.18-1.76,4.18-4.5s-1.62-4.33-4.25-4.33c-.87,0-1.76,.1-2.63,.35l-.7-.2,.57-8.2h8.9v2.11h-7.85l-.35,4.9Z"/>
    </g>
    <g>
      <path class="cls-4" d="M938.37,384.87c1.74-.52,3.49-.79,5.49-.79,6.89,0,11.29,3.4,11.29,9.5,0,6.45-4.97,10.24-12.12,10.24-5.62,0-9.07-2.7-9.63-7.28,.44-1.18,1.44-1.74,2.57-1.74,1.57,0,2.44,.87,2.83,3.27l.74,3.75c.78,.26,1.57,.39,2.57,.39,4.32,0,6.98-3.01,6.98-7.98s-2.57-7.76-6.76-7.76c-1.7,0-3.27,.17-4.88,.74l-1.26-.65,1.05-14.52h16.87v4.62h-15.17l-.57,8.2Z"/>
      <path class="cls-4" d="M982.66,387.66c0,11.42-5.19,16.17-10.77,16.17s-10.77-4.75-10.77-16.17,5.1-16.3,10.77-16.3,10.77,4.75,10.77,16.3Zm-10.77,14.56c2.7,0,5.19-3.14,5.19-14.56s-2.49-14.74-5.19-14.74-5.23,3.14-5.23,14.74,2.44,14.56,5.23,14.56Z"/>
    </g>
    <line class="cls-3" x1="932.49" y1="468.83" x2="983.58" y2="468.83"/>
    <g>
      <polygon class="cls-12" points="997.42 408.17 981.47 435.79 1013.37 435.79 997.42 408.17"/>
      <polygon class="cls-11" points="997.42 416.06 981.47 443.68 1013.37 443.68 997.42 416.06"/>
      <polygon class="cls-10" points="997.42 424.65 981.47 452.27 1013.37 452.27 997.42 424.65"/>
    </g>
    <g>
      <path d="M1121.99,398.33v2.11h-11.19v-1.69c1.49-1.49,2.93-3.06,4.13-4.3,2.76-2.88,3.9-5,3.9-7.18s-1.29-3.7-3.33-3.7c-.4,0-.92,.05-1.47,.17l-.55,1.99c-.32,1.24-.79,1.71-1.49,1.71-.57,0-1.04-.3-1.32-.82,.37-2.78,2.76-4.13,5.47-4.13,3.5,0,5.07,1.91,5.07,4.65,0,2.34-1.27,4.2-5.44,8.15-.77,.75-1.94,1.86-3.18,3.03h9.4Z"/>
      <path d="M1129.37,389.88c.89-.27,1.76-.4,2.76-.4,3.53,0,5.94,1.96,5.94,5.49s-2.51,5.82-6.36,5.82c-2.76,0-4.52-1.27-5.07-3.78,.22-.57,.7-.87,1.29-.87,.79,0,1.14,.4,1.47,1.71l.45,1.64c.57,.17,1.09,.25,1.67,.25,2.71,0,4.18-1.76,4.18-4.5s-1.62-4.33-4.25-4.33c-.87,0-1.76,.1-2.63,.35l-.7-.2,.57-8.2h8.9v2.11h-7.85l-.35,4.9Z"/>
    </g>
    <g>
      <path class="cls-4" d="M1116.04,333.35c1.74-.52,3.49-.79,5.49-.79,6.89,0,11.29,3.4,11.29,9.5,0,6.45-4.97,10.24-12.12,10.24-5.62,0-9.07-2.7-9.63-7.28,.44-1.18,1.44-1.74,2.57-1.74,1.57,0,2.44,.87,2.83,3.27l.74,3.75c.78,.26,1.57,.39,2.57,.39,4.32,0,6.98-3.01,6.98-7.98s-2.57-7.76-6.76-7.76c-1.7,0-3.27,.17-4.88,.74l-1.26-.65,1.05-14.52h16.87v4.62h-15.17l-.57,8.2Z"/>
      <path class="cls-4" d="M1160.33,336.14c0,11.42-5.19,16.17-10.77,16.17s-10.77-4.75-10.77-16.17,5.1-16.3,10.77-16.3,10.77,4.75,10.77,16.3Zm-10.77,14.56c2.7,0,5.19-3.14,5.19-14.56s-2.49-14.74-5.19-14.74-5.23,3.14-5.23,14.74,2.44,14.56,5.23,14.56Z"/>
    </g>
    <line class="cls-3" x1="1110.2" y1="417.31" x2="1161.29" y2="417.31"/>
    <g>
      <polygon class="cls-12" points="1170.44 356.64 1154.49 384.27 1186.39 384.27 1170.44 356.64"/>
      <polygon class="cls-11" points="1170.44 364.53 1154.49 392.16 1186.39 392.16 1170.44 364.53"/>
      <polygon class="cls-10" points="1170.44 373.12 1154.49 400.74 1186.39 400.74 1170.44 373.12"/>
    </g>
    <g>
      <path d="M82.15,126.09v.85h-10.04v-.85l3.88-.55c.02-1.44,.05-2.91,.05-4.35v-10.04l-3.63,.35v-.94l5.59-1.44,.37,.27-.1,3.9v7.9c0,1.44,.02,2.91,.05,4.35l3.83,.55Z"/>
      <path d="M89.98,116.37c.89-.27,1.76-.4,2.76-.4,3.53,0,5.94,1.96,5.94,5.49s-2.51,5.82-6.36,5.82c-2.76,0-4.52-1.27-5.07-3.78,.22-.57,.7-.87,1.29-.87,.8,0,1.14,.4,1.47,1.72l.45,1.64c.57,.17,1.09,.25,1.67,.25,2.71,0,4.18-1.77,4.18-4.5s-1.62-4.33-4.25-4.33c-.87,0-1.76,.1-2.63,.35l-.7-.2,.57-8.2h8.9v2.11h-7.85l-.35,4.9Z"/>
    </g>
    <path class="cls-2" d="M142.51,74.3l1.21,.91c-.07,.08-.26,.2-.5,.24v2.36c0,.72-.19,1.16-1.56,1.28-.04-.32-.1-.56-.28-.71-.18-.14-.46-.28-1.03-.36v-.17s1.2,.08,1.5,.08c.19,0,.25-.08,.25-.24v-2.46h-2.95v1.24l1.28-.05c-.19-.32-.44-.61-.68-.82l.12-.1c2.7,.66,1.88,2.59,.96,1.91-.02-.22-.11-.46-.22-.68-1.06,.23-2.42,.5-4.21,.84-.08,.14-.22,.24-.34,.25l-.44-1.28c.5,.01,1.39-.01,2.45-.05v-1.26h-2.94v3.53c0,.08-.35,.34-.89,.34h-.19v-3.86h-.55l-.11-.35h.66v-.49l1.22,.49h2.79v-1.01h-1.97v.22c0,.11-.48,.35-.94,.35h-.16v-4.16l.52,.2-.11-.85h-2.18l-.1-.35h2.23l-.17-1.3,1.49,.12c-.01,.13-.1,.25-.34,.32l.12,.85h.54l.59-.79s.67,.55,1.07,.95c-.02,.13-.16,.19-.31,.19h-1.84l.08,.64c-.14,.18-.47,.29-.86,.31l.44,.18h4.86l.55-.58,1.15,.88c-.07,.1-.25,.19-.48,.24v2.64c-.01,.1-.55,.36-.92,.36h-.18v-.42h-2.01v1.01h2.84l.52-.6Zm-6.4-3.18v1.04h1.97v-1.04h-1.97Zm1.97,2.42v-1.03h-1.97v1.03h1.97Zm4.91-5.04s.68,.55,1.08,.95c-.02,.13-.14,.19-.31,.19h-2.39l-.12,.71c-.2,.16-.64,.22-1.1,.13l.13-.84h-1.27l-.1-.35h1.43l.2-1.31,1.48,.29c-.04,.14-.14,.28-.47,.29l-.12,.73h.98l.58-.79Zm-3.83,2.61v1.04h2.01v-1.04h-2.01Zm2.01,2.42v-1.03h-2.01v1.03h2.01Z"/>
    <path class="cls-2" d="M573.43,360.1l1.21,.91c-.07,.08-.26,.2-.5,.24v2.36c0,.72-.19,1.16-1.56,1.28-.04-.32-.1-.56-.28-.71-.18-.14-.46-.28-1.03-.36v-.17s1.2,.08,1.5,.08c.19,0,.25-.08,.25-.24v-2.46h-2.95v1.24l1.28-.05c-.19-.32-.44-.61-.68-.82l.12-.1c2.7,.66,1.88,2.59,.96,1.91-.02-.22-.11-.46-.22-.68-1.05,.23-2.42,.5-4.21,.84-.08,.14-.22,.24-.34,.25l-.44-1.28c.5,.01,1.39-.01,2.45-.05v-1.26h-2.94v3.53c0,.08-.35,.33-.89,.33h-.19v-3.86h-.55l-.11-.35h.66v-.49l1.22,.49h2.79v-1.01h-1.97v.22c0,.11-.48,.35-.94,.35h-.16v-4.16l.52,.2-.11-.85h-2.18l-.1-.35h2.23l-.17-1.29,1.49,.12c-.01,.13-.1,.25-.33,.32l.12,.85h.54l.59-.79s.67,.55,1.07,.95c-.02,.13-.16,.19-.31,.19h-1.84l.08,.64c-.14,.18-.47,.29-.86,.31l.44,.18h4.86l.55-.58,1.15,.88c-.07,.1-.25,.19-.48,.24v2.64c-.01,.1-.55,.36-.92,.36h-.18v-.42h-2.01v1.01h2.84l.52-.6Zm-6.4-3.18v1.04h1.97v-1.04h-1.97Zm1.97,2.42v-1.03h-1.97v1.03h1.97Zm4.91-5.04s.68,.55,1.08,.95c-.02,.13-.14,.19-.31,.19h-2.39l-.12,.71c-.2,.16-.64,.22-1.1,.13l.13-.84h-1.27l-.1-.35h1.43l.2-1.31,1.48,.29c-.04,.14-.14,.28-.47,.29l-.12,.73h.98l.58-.79Zm-3.83,2.61v1.04h2.01v-1.04h-2.01Zm2.01,2.42v-1.03h-2.01v1.03h2.01Z"/>
    <path class="cls-2" d="M811.63,187.76l1.21,.91c-.07,.08-.26,.2-.5,.24v2.36c0,.72-.19,1.16-1.56,1.28-.04-.32-.1-.56-.28-.71-.18-.14-.46-.28-1.03-.36v-.17s1.2,.08,1.5,.08c.19,0,.25-.08,.25-.24v-2.46h-2.95v1.24l1.28-.05c-.19-.32-.44-.61-.68-.82l.12-.1c2.7,.66,1.88,2.59,.96,1.91-.02-.22-.11-.46-.22-.68-1.05,.23-2.42,.5-4.21,.84-.08,.14-.22,.24-.34,.25l-.44-1.28c.5,.01,1.39-.01,2.45-.05v-1.26h-2.94v3.53c0,.08-.35,.33-.89,.33h-.19v-3.86h-.55l-.11-.35h.66v-.49l1.22,.49h2.79v-1.01h-1.97v.22c0,.11-.48,.35-.94,.35h-.16v-4.16l.52,.2-.11-.85h-2.18l-.1-.35h2.23l-.17-1.29,1.49,.12c-.01,.13-.1,.25-.33,.32l.12,.85h.54l.59-.79s.67,.55,1.07,.95c-.02,.13-.16,.19-.31,.19h-1.84l.08,.64c-.14,.18-.47,.29-.86,.31l.44,.18h4.86l.55-.58,1.15,.88c-.07,.1-.25,.19-.48,.24v2.64c-.01,.1-.55,.36-.92,.36h-.18v-.42h-2.01v1.01h2.84l.52-.6Zm-6.4-3.18v1.04h1.97v-1.04h-1.97Zm1.97,2.42v-1.03h-1.97v1.03h1.97Zm4.91-5.04s.68,.55,1.08,.95c-.02,.13-.14,.19-.31,.19h-2.39l-.12,.71c-.2,.16-.64,.22-1.1,.13l.13-.84h-1.27l-.1-.35h1.43l.2-1.31,1.48,.29c-.04,.14-.14,.28-.47,.29l-.12,.73h.98l.58-.79Zm-3.83,2.61v1.04h2.01v-1.04h-2.01Zm2.01,2.42v-1.03h-2.01v1.03h2.01Z"/>
    <path class="cls-2" d="M999.26,400.03l1.21,.91c-.07,.08-.26,.2-.5,.24v2.36c0,.72-.19,1.16-1.56,1.28-.04-.32-.1-.56-.28-.71-.18-.14-.46-.28-1.03-.36v-.17s1.2,.08,1.5,.08c.19,0,.25-.08,.25-.24v-2.46h-2.95v1.24l1.28-.05c-.19-.32-.44-.61-.68-.82l.12-.1c2.7,.66,1.88,2.59,.96,1.91-.02-.22-.11-.46-.22-.68-1.05,.23-2.42,.5-4.21,.84-.08,.14-.22,.24-.34,.25l-.44-1.28c.5,.01,1.39-.01,2.45-.05v-1.26h-2.94v3.53c0,.08-.35,.34-.89,.34h-.19v-3.86h-.55l-.11-.35h.66v-.49l1.22,.49h2.79v-1.01h-1.97v.22c0,.11-.48,.35-.94,.35h-.16v-4.16l.52,.2-.11-.85h-2.18l-.1-.35h2.23l-.17-1.3,1.49,.12c-.01,.13-.1,.25-.33,.32l.12,.85h.54l.59-.79s.67,.55,1.07,.95c-.02,.13-.16,.19-.31,.19h-1.84l.08,.64c-.14,.18-.47,.29-.86,.31l.44,.18h4.86l.55-.58,1.15,.88c-.07,.1-.25,.19-.48,.24v2.64c-.01,.1-.55,.36-.92,.36h-.18v-.42h-2.01v1.01h2.84l.52-.6Zm-6.4-3.18v1.04h1.97v-1.04h-1.97Zm1.97,2.42v-1.03h-1.97v1.03h1.97Zm4.91-5.04s.68,.55,1.08,.95c-.02,.13-.14,.19-.31,.19h-2.39l-.12,.71c-.2,.16-.64,.22-1.1,.13l.13-.84h-1.27l-.1-.35h1.43l.2-1.31,1.48,.29c-.04,.14-.14,.28-.47,.29l-.12,.73h.98l.58-.79Zm-3.83,2.62v1.04h2.01v-1.04h-2.01Zm2.01,2.42v-1.03h-2.01v1.03h2.01Z"/>
    <path class="cls-2" d="M1174.36,348.51l1.21,.91c-.07,.08-.26,.2-.5,.24v2.36c0,.72-.19,1.16-1.56,1.28-.04-.32-.1-.56-.28-.71-.18-.14-.46-.28-1.03-.36v-.17s1.2,.08,1.5,.08c.19,0,.25-.08,.25-.24v-2.46h-2.95v1.24l1.28-.05c-.19-.32-.44-.61-.68-.82l.12-.1c2.7,.66,1.88,2.59,.96,1.91-.02-.22-.11-.46-.22-.68-1.05,.23-2.42,.5-4.21,.84-.08,.14-.22,.24-.34,.25l-.44-1.28c.5,.01,1.39-.01,2.45-.05v-1.26h-2.94v3.53c0,.08-.35,.34-.89,.34h-.19v-3.86h-.55l-.11-.35h.66v-.49l1.22,.49h2.79v-1.01h-1.97v.22c0,.11-.48,.35-.94,.35h-.16v-4.16l.52,.2-.11-.85h-2.18l-.1-.35h2.23l-.17-1.3,1.49,.12c-.01,.13-.1,.25-.33,.32l.12,.85h.54l.59-.79s.67,.55,1.07,.95c-.02,.13-.16,.19-.31,.19h-1.84l.08,.64c-.14,.18-.47,.29-.86,.31l.44,.18h4.86l.55-.58,1.15,.88c-.07,.1-.25,.19-.48,.24v2.64c-.01,.1-.55,.36-.92,.36h-.18v-.42h-2.01v1.01h2.84l.52-.6Zm-6.4-3.18v1.04h1.97v-1.04h-1.97Zm1.97,2.42v-1.03h-1.97v1.03h1.97Zm4.91-5.04s.68,.55,1.08,.95c-.02,.13-.14,.19-.31,.19h-2.39l-.12,.71c-.2,.16-.64,.22-1.1,.13l.13-.84h-1.27l-.1-.35h1.43l.2-1.31,1.48,.29c-.04,.14-.14,.28-.47,.29l-.12,.73h.98l.58-.79Zm-3.83,2.62v1.04h2.01v-1.04h-2.01Zm2.01,2.42v-1.03h-2.01v1.03h2.01Z"/>
  </g>
</svg>