<?xml version="1.0" encoding="UTF-8"?>
<svg id="_圖層_2" data-name="圖層 2" xmlns="http://www.w3.org/2000/svg" xmlns:xlink="http://www.w3.org/1999/xlink" viewBox="0 0 178.05 174.99">
  <defs>
    <style>
      .cls-1 {
        fill: #fff;
      }

      .cls-2 {
        fill: none;
        stroke: url(#_未命名漸層_48);
        stroke-miterlimit: 10;
      }

      .cls-3 {
        fill: url(#_新增漸層色票_4);
      }

      .cls-4 {
        fill: #e0bd76;
      }
    </style>
    <linearGradient id="_新增漸層色票_4" data-name="新增漸層色票 4" x1="136.88" y1="46.17" x2="41.98" y2="197.18" gradientUnits="userSpaceOnUse">
      <stop offset=".01" stop-color="#fad7bd"/>
      <stop offset=".28" stop-color="#97673f"/>
      <stop offset=".8" stop-color="#fad7bd"/>
      <stop offset="1" stop-color="#97673f"/>
    </linearGradient>
    <linearGradient id="_未命名漸層_48" data-name="未命名漸層 48" x1="0" y1="123.07" x2="178.05" y2="123.07" gradientUnits="userSpaceOnUse">
      <stop offset="0" stop-color="#97673f"/>
      <stop offset=".2" stop-color="#fad7bd"/>
      <stop offset=".72" stop-color="#97673f"/>
      <stop offset=".99" stop-color="#fad7bd"/>
    </linearGradient>
  </defs>
  <g id="_圖層_4" data-name="圖層 4">
    <g>
      <g>
        <g>
          <path class="cls-3" d="M4.59,100.82H1.21c6.76-6.76,11.26-13.1,13.52-19.02h11.41c-.57,.57-1.41,1.55-2.54,2.96-.85,.84-2.82,2.68-5.92,5.49h13.52v-10.57H2.9v-4.23H70.1v4.23h-30.85v10.57h17.33c-2.54-2.54-5.07-5.07-7.61-7.61l.85-1.27c7.32,3.1,14.22,6.2,20.71,9.3-.28,.85-.42,1.69-.42,2.54-.57,3.66-.99,6.34-1.27,8.03-.57-.28-1.27-.85-2.11-1.69-1.13-.56-1.84-1.12-2.11-1.69v24.93c0,5.07-3.95,8.88-11.83,11.41-1.13-.85-2.26-1.27-3.38-1.27l-3.8,.85-.42-.85c8.17-1.69,11.97-5.07,11.41-10.14v-28.32h-17.33v4.65l.85-.42c0,.28,.42,.71,1.27,1.27,1.97,1.41,3.24,2.11,3.8,2.11,.85-2.25,1.27-4.08,1.27-5.49h8.03c-1.69,3.38-3.38,6.06-5.07,8.03,.56,.57,1.55,1.27,2.96,2.11,1.12,.57,1.83,.85,2.11,.85-.28,.57-.42,1.13-.42,1.69-.57,2.26-.99,3.8-1.27,4.65-.28,0-.71-.28-1.27-.85-2.54-2.54-4.23-4.36-5.07-5.49-1.13,1.13-2.11,2.26-2.96,3.38l-1.27,1.27h-2.96v2.96c3.38,1.69,5.77,2.96,7.19,3.8,.56-1.69,.98-3.23,1.27-4.65h8.03c-1.69,2.82-3.24,5.07-4.65,6.76l2.96,1.69c-.28,.85-.57,1.84-.85,2.96-.28,1.41-.42,2.4-.42,2.96-1.97-1.12-3.66-2.54-5.07-4.23-1.97,1.97-3.95,3.95-5.92,5.92h-2.54v2.11h-8.03v-38.04H15.58v2.96c2.25,1.13,4.5,2.26,6.76,3.38,.28-1.12,.56-2.54,.84-4.23h7.61c-1.69,2.82-3.1,5.22-4.23,7.19,1.41,1.13,2.54,1.97,3.38,2.54,0,.57-.15,1.69-.42,3.38-.28,1.69-.28,2.68,0,2.96-1.41-.84-3.38-2.67-5.92-5.49l-4.65,5.07h-3.38v21.55H7.55v-35.5c-1.41,.85-2.4,1.69-2.96,2.54Zm63.39,35.5v4.65h-28.74v8.88h25.78v4.65h-18.17c4.23,3.1,8.03,5.49,11.41,7.18-1.69,2.54-2.82,4.37-3.38,5.49h15.64v4.65H1.63v-4.65H30.79v-12.68H7.12v-4.65H30.79v-8.88H4.59v-4.65h63.39ZM15.58,98.29v13.52c2.25-2.54,4.08-4.93,5.49-7.19-.57-.28-1.55-1.27-2.96-2.96-1.41-1.69-2.26-2.81-2.54-3.38Zm8.03,16.06h7.61c-1.13,1.97-2.68,4.37-4.65,7.19,.56,.84,1.83,1.69,3.8,2.54-.57,3.1-.84,5.36-.84,6.76-1.41-.84-3.38-2.67-5.92-5.49l-4.23,5.07h-3.38c2.25-2.54,4.08-5.21,5.49-8.03-1.13-.56-2.96-2.54-5.49-5.92l.42-.84c1.41,1.13,3.38,2.4,5.92,3.8,.56-1.97,.98-3.66,1.27-5.07Zm15.64-13.95v11.41c1.97-2.54,3.52-4.79,4.65-6.76l-4.65-4.65Zm0,16.06v13.1c1.41-1.41,3.38-3.94,5.92-7.61-2.82-2.54-4.79-4.37-5.92-5.49Zm5.49,38.04h-5.49v12.68h12.68c-2.26-3.38-4.65-7.61-7.19-12.68Zm124.25-82.84h8.45v91.29c.85,3.94-3.24,7.61-12.26,10.99-1.69-1.13-3.1-1.41-4.23-.84l-5.49,1.27v-1.27c10.14-2.54,14.65-5.49,13.52-8.87v-60.01h-13.1v2.96l1.27,.84-7.61,12.26h3.38v-2.54h8.45v24.51h-7.61v12.26c-.57,2.54,.28,3.53,2.54,2.96h3.38c1.69,.57,2.67-.56,2.96-3.38l1.69-12.68h.84v10.57h1.27l-.42,8.45c-.57,2.54-1.83,3.8-3.8,3.8h-10.99c-4.23,.56-6.06-1.41-5.49-5.92v-16.06h7.19v-2.96h-18.6v2.54h8.87c-1.41,7.05-3.24,11.83-5.49,14.37-3.38,3.1-7.61,6.48-12.68,10.14h-3.38c9.01-5.92,13.1-13.95,12.26-24.09h-7.61v-24.51h8.03v2.54h4.23c-1.97-1.69-3.53-5.77-4.65-12.26h-1.69v-4.23h-12.68v70.16h-8.03V71.66h8.03v4.23h12.68v-2.54h8.03v34.66h-3.8c1.69,1.41,3.66,3.38,5.92,5.92,.56,.57,.98,.84,1.27,.84-.57,1.98-1.69,3.8-3.38,5.49h5.07l7.19-12.26h-4.65v-34.66h8.03v2.54h13.1v-4.23Zm-36.77,8.03h-12.68v8.03h12.68v-8.03Zm-12.68,11.83v8.45h12.68v-8.45h-12.68Zm14.79,32.96v10.57h18.6v-10.57h-18.6Zm34.66-44.8h-13.1v8.03h13.1v-8.03Zm-13.1,11.83v8.45h13.1v-8.45h-13.1Z"/>
          <path class="cls-2" d="M4.59,100.82H1.21c6.76-6.76,11.26-13.1,13.52-19.02h11.41c-.57,.57-1.41,1.55-2.54,2.96-.85,.84-2.82,2.68-5.92,5.49h13.52v-10.57H2.9v-4.23H70.1v4.23h-30.85v10.57h17.33c-2.54-2.54-5.07-5.07-7.61-7.61l.85-1.27c7.32,3.1,14.22,6.2,20.71,9.3-.28,.85-.42,1.69-.42,2.54-.57,3.66-.99,6.34-1.27,8.03-.57-.28-1.27-.85-2.11-1.69-1.13-.56-1.84-1.12-2.11-1.69v24.93c0,5.07-3.95,8.88-11.83,11.41-1.13-.85-2.26-1.27-3.38-1.27l-3.8,.85-.42-.85c8.17-1.69,11.97-5.07,11.41-10.14v-28.32h-17.33v4.65l.85-.42c0,.28,.42,.71,1.27,1.27,1.97,1.41,3.24,2.11,3.8,2.11,.85-2.25,1.27-4.08,1.27-5.49h8.03c-1.69,3.38-3.38,6.06-5.07,8.03,.56,.57,1.55,1.27,2.96,2.11,1.12,.57,1.83,.85,2.11,.85-.28,.57-.42,1.13-.42,1.69-.57,2.26-.99,3.8-1.27,4.65-.28,0-.71-.28-1.27-.85-2.54-2.54-4.23-4.36-5.07-5.49-1.13,1.13-2.11,2.26-2.96,3.38l-1.27,1.27h-2.96v2.96c3.38,1.69,5.77,2.96,7.19,3.8,.56-1.69,.98-3.23,1.27-4.65h8.03c-1.69,2.82-3.24,5.07-4.65,6.76l2.96,1.69c-.28,.85-.57,1.84-.85,2.96-.28,1.41-.42,2.4-.42,2.96-1.97-1.12-3.66-2.54-5.07-4.23-1.97,1.97-3.95,3.95-5.92,5.92h-2.54v2.11h-8.03v-38.04H15.58v2.96c2.25,1.13,4.5,2.26,6.76,3.38,.28-1.12,.56-2.54,.84-4.23h7.61c-1.69,2.82-3.1,5.22-4.23,7.19,1.41,1.13,2.54,1.97,3.38,2.54,0,.57-.15,1.69-.42,3.38-.28,1.69-.28,2.68,0,2.96-1.41-.84-3.38-2.67-5.92-5.49l-4.65,5.07h-3.38v21.55H7.55v-35.5c-1.41,.85-2.4,1.69-2.96,2.54Zm63.39,35.5v4.65h-28.74v8.88h25.78v4.65h-18.17c4.23,3.1,8.03,5.49,11.41,7.18-1.69,2.54-2.82,4.37-3.38,5.49h15.64v4.65H1.63v-4.65H30.79v-12.68H7.12v-4.65H30.79v-8.88H4.59v-4.65h63.39ZM15.58,98.29v13.52c2.25-2.54,4.08-4.93,5.49-7.19-.57-.28-1.55-1.27-2.96-2.96-1.41-1.69-2.26-2.81-2.54-3.38Zm8.03,16.06h7.61c-1.13,1.97-2.68,4.37-4.65,7.19,.56,.84,1.83,1.69,3.8,2.54-.57,3.1-.84,5.36-.84,6.76-1.41-.84-3.38-2.67-5.92-5.49l-4.23,5.07h-3.38c2.25-2.54,4.08-5.21,5.49-8.03-1.13-.56-2.96-2.54-5.49-5.92l.42-.84c1.41,1.13,3.38,2.4,5.92,3.8,.56-1.97,.98-3.66,1.27-5.07Zm15.64-13.95v11.41c1.97-2.54,3.52-4.79,4.65-6.76l-4.65-4.65Zm0,16.06v13.1c1.41-1.41,3.38-3.94,5.92-7.61-2.82-2.54-4.79-4.37-5.92-5.49Zm5.49,38.04h-5.49v12.68h12.68c-2.26-3.38-4.65-7.61-7.19-12.68Zm124.25-82.84h8.45v91.29c.85,3.94-3.24,7.61-12.26,10.99-1.69-1.13-3.1-1.41-4.23-.84l-5.49,1.27v-1.27c10.14-2.54,14.65-5.49,13.52-8.87v-60.01h-13.1v2.96l1.27,.84-7.61,12.26h3.38v-2.54h8.45v24.51h-7.61v12.26c-.57,2.54,.28,3.53,2.54,2.96h3.38c1.69,.57,2.67-.56,2.96-3.38l1.69-12.68h.84v10.57h1.27l-.42,8.45c-.57,2.54-1.83,3.8-3.8,3.8h-10.99c-4.23,.56-6.06-1.41-5.49-5.92v-16.06h7.19v-2.96h-18.6v2.54h8.87c-1.41,7.05-3.24,11.83-5.49,14.37-3.38,3.1-7.61,6.48-12.68,10.14h-3.38c9.01-5.92,13.1-13.95,12.26-24.09h-7.61v-24.51h8.03v2.54h4.23c-1.97-1.69-3.53-5.77-4.65-12.26h-1.69v-4.23h-12.68v70.16h-8.03V71.66h8.03v4.23h12.68v-2.54h8.03v34.66h-3.8c1.69,1.41,3.66,3.38,5.92,5.92,.56,.57,.98,.84,1.27,.84-.57,1.98-1.69,3.8-3.38,5.49h5.07l7.19-12.26h-4.65v-34.66h8.03v2.54h13.1v-4.23Zm-36.77,8.03h-12.68v8.03h12.68v-8.03Zm-12.68,11.83v8.45h12.68v-8.45h-12.68Zm14.79,32.96v10.57h18.6v-10.57h-18.6Zm34.66-44.8h-13.1v8.03h13.1v-8.03Zm-13.1,11.83v8.45h13.1v-8.45h-13.1Z"/>
        </g>
        <path class="cls-4" d="M4.59,100.82H1.21c6.76-6.76,11.26-13.1,13.52-19.02h11.41c-.57,.57-1.41,1.55-2.54,2.96-.85,.84-2.82,2.68-5.92,5.49h13.52v-10.57H2.9v-4.23H70.1v4.23h-30.85v10.57h17.33c-2.54-2.54-5.07-5.07-7.61-7.61l.85-1.27c7.32,3.1,14.22,6.2,20.71,9.3-.28,.85-.42,1.69-.42,2.54-.57,3.66-.99,6.34-1.27,8.03-.57-.28-1.27-.85-2.11-1.69-1.13-.56-1.84-1.12-2.11-1.69v24.93c0,5.07-3.95,8.88-11.83,11.41-1.13-.85-2.26-1.27-3.38-1.27l-3.8,.85-.42-.85c8.17-1.69,11.97-5.07,11.41-10.14v-28.32h-17.33v4.65l.85-.42c0,.28,.42,.71,1.27,1.27,1.97,1.41,3.24,2.11,3.8,2.11,.85-2.25,1.27-4.08,1.27-5.49h8.03c-1.69,3.38-3.38,6.06-5.07,8.03,.56,.57,1.55,1.27,2.96,2.11,1.12,.57,1.83,.85,2.11,.85-.28,.57-.42,1.13-.42,1.69-.57,2.26-.99,3.8-1.27,4.65-.28,0-.71-.28-1.27-.85-2.54-2.54-4.23-4.36-5.07-5.49-1.13,1.13-2.11,2.26-2.96,3.38l-1.27,1.27h-2.96v2.96c3.38,1.69,5.77,2.96,7.19,3.8,.56-1.69,.98-3.23,1.27-4.65h8.03c-1.69,2.82-3.24,5.07-4.65,6.76l2.96,1.69c-.28,.85-.57,1.84-.85,2.96-.28,1.41-.42,2.4-.42,2.96-1.97-1.12-3.66-2.54-5.07-4.23-1.97,1.97-3.95,3.95-5.92,5.92h-2.54v2.11h-8.03v-38.04H15.58v2.96c2.25,1.13,4.5,2.26,6.76,3.38,.28-1.12,.56-2.54,.84-4.23h7.61c-1.69,2.82-3.1,5.22-4.23,7.19,1.41,1.13,2.54,1.97,3.38,2.54,0,.57-.15,1.69-.42,3.38-.28,1.69-.28,2.68,0,2.96-1.41-.84-3.38-2.67-5.92-5.49l-4.65,5.07h-3.38v21.55H7.55v-35.5c-1.41,.85-2.4,1.69-2.96,2.54Zm63.39,35.5v4.65h-28.74v8.88h25.78v4.65h-18.17c4.23,3.1,8.03,5.49,11.41,7.18-1.69,2.54-2.82,4.37-3.38,5.49h15.64v4.65H1.63v-4.65H30.79v-12.68H7.12v-4.65H30.79v-8.88H4.59v-4.65h63.39ZM15.58,98.29v13.52c2.25-2.54,4.08-4.93,5.49-7.19-.57-.28-1.55-1.27-2.96-2.96-1.41-1.69-2.26-2.81-2.54-3.38Zm8.03,16.06h7.61c-1.13,1.97-2.68,4.37-4.65,7.19,.56,.84,1.83,1.69,3.8,2.54-.57,3.1-.84,5.36-.84,6.76-1.41-.84-3.38-2.67-5.92-5.49l-4.23,5.07h-3.38c2.25-2.54,4.08-5.21,5.49-8.03-1.13-.56-2.96-2.54-5.49-5.92l.42-.84c1.41,1.13,3.38,2.4,5.92,3.8,.56-1.97,.98-3.66,1.27-5.07Zm15.64-13.95v11.41c1.97-2.54,3.52-4.79,4.65-6.76l-4.65-4.65Zm0,16.06v13.1c1.41-1.41,3.38-3.94,5.92-7.61-2.82-2.54-4.79-4.37-5.92-5.49Zm5.49,38.04h-5.49v12.68h12.68c-2.26-3.38-4.65-7.61-7.19-12.68Zm124.25-82.84h8.45v91.29c.85,3.94-3.24,7.61-12.26,10.99-1.69-1.13-3.1-1.41-4.23-.84l-5.49,1.27v-1.27c10.14-2.54,14.65-5.49,13.52-8.87v-60.01h-13.1v2.96l1.27,.84-7.61,12.26h3.38v-2.54h8.45v24.51h-7.61v12.26c-.57,2.54,.28,3.53,2.54,2.96h3.38c1.69,.57,2.67-.56,2.96-3.38l1.69-12.68h.84v10.57h1.27l-.42,8.45c-.57,2.54-1.83,3.8-3.8,3.8h-10.99c-4.23,.56-6.06-1.41-5.49-5.92v-16.06h7.19v-2.96h-18.6v2.54h8.87c-1.41,7.05-3.24,11.83-5.49,14.37-3.38,3.1-7.61,6.48-12.68,10.14h-3.38c9.01-5.92,13.1-13.95,12.26-24.09h-7.61v-24.51h8.03v2.54h4.23c-1.97-1.69-3.53-5.77-4.65-12.26h-1.69v-4.23h-12.68v70.16h-8.03V71.66h8.03v4.23h12.68v-2.54h8.03v34.66h-3.8c1.69,1.41,3.66,3.38,5.92,5.92,.56,.57,.98,.84,1.27,.84-.57,1.98-1.69,3.8-3.38,5.49h5.07l7.19-12.26h-4.65v-34.66h8.03v2.54h13.1v-4.23Zm-36.77,8.03h-12.68v8.03h12.68v-8.03Zm-12.68,11.83v8.45h12.68v-8.45h-12.68Zm14.79,32.96v10.57h18.6v-10.57h-18.6Zm34.66-44.8h-13.1v8.03h13.1v-8.03Zm-13.1,11.83v8.45h13.1v-8.45h-13.1Z"/>
      </g>
      <g>
        <polygon class="cls-4" points="77.91 11.56 77.91 14.02 75.28 16.65 79.75 21 79.75 9.72 84.95 4.47 84.95 26.2 86.74 27.99 86.74 2.74 89.36 0 92.04 2.68 92.04 27.65 93.77 26.2 93.77 4.52 98.97 9.66 98.97 21.06 103.44 16.65 100.64 14.02 100.64 11.4 105.84 16.59 97.18 25.25 97.18 10.56 95.51 8.77 95.51 27.15 90.25 32.34 90.25 3.57 89.36 2.63 88.47 3.57 88.47 32.34 83.16 26.87 83.16 8.83 81.54 10.45 81.54 25.14 72.94 16.53 77.91 11.56"/>
        <path class="cls-4" d="M70.19,43.75l-.02-24.98,19.21,19.21,19.21-19.21v24.98h-38.39Zm24.96-1.41h12.02v-12.02l-12.02,12.02Zm-8.14,0h4.74l-2.37-2.37-2.37,2.37Zm-15.41,0h12l-12.01-12.01v12.01Zm18.79-3.37l3.07,3.07,13.72-13.72v-6.15l-16.8,16.8Zm-18.79-10.64l13.72,13.72,3.07-3.07-16.8-16.8v6.15Z"/>
      </g>
      <g>
        <path class="cls-1" d="M45.96,57.56h1.06v-6.51h-1.06v-.13h2.14l1.76,5.12h.02l1.76-5.12h2.1v.13h-1.06v6.51h1.06v.13h-3.06v-.13h1.06v-6.45h-.02l-2.28,6.6-2.27-6.53h-.02v6.39h1.06v.13h-2.26v-.13Z"/>
        <path class="cls-1" d="M54.28,57.56h1.06v-6.51h-1.06v-.13h5.44v1.65h-.1c-.08-.25-.17-.46-.27-.65-.1-.19-.21-.35-.34-.48-.13-.13-.29-.23-.48-.29-.18-.06-.41-.1-.67-.1h-1.58v2.94h.62c.21,0,.39-.02,.53-.06,.15-.04,.27-.11,.38-.21,.11-.1,.19-.25,.27-.43,.07-.18,.14-.41,.21-.7h.1v2.96h-.1c-.04-.18-.09-.36-.14-.53-.05-.17-.11-.32-.2-.46-.09-.13-.2-.24-.34-.32-.14-.08-.33-.12-.56-.12h-.77v3.44h1.8c.35,0,.64-.07,.87-.22,.23-.15,.42-.33,.57-.53,.15-.21,.25-.42,.32-.64,.07-.22,.11-.41,.13-.55h.1v2.08h-5.81v-.13Z"/>
        <path class="cls-1" d="M60.98,57.56h1.06v-6.51h-1.06v-.13h1.81c.08,0,.15,0,.23,0,.08,0,.15,0,.23-.01,.08,0,.15,0,.23,0,.08,0,.15,0,.23,0,.37,0,.7,.02,.99,.06,.29,.04,.55,.16,.8,.36,.22,.17,.38,.37,.47,.58,.09,.22,.14,.42,.14,.61,0,.1-.02,.22-.05,.37-.04,.15-.11,.3-.23,.46-.12,.16-.29,.3-.51,.43-.22,.13-.52,.22-.88,.26v.02c.1,.01,.24,.04,.41,.07,.17,.04,.35,.09,.53,.18,.18,.08,.35,.19,.5,.33,.15,.14,.26,.31,.32,.53,.04,.13,.07,.27,.08,.43,.02,.16,.03,.33,.04,.5,0,.17,.02,.34,.03,.49,.01,.16,.03,.29,.05,.4,.04,.17,.1,.31,.18,.45,.08,.13,.22,.2,.4,.2,.08,0,.17-.02,.26-.05,.09-.03,.17-.08,.24-.15l.09,.1s-.07,.05-.11,.08c-.04,.03-.09,.06-.16,.08-.06,.03-.14,.05-.23,.06-.09,.02-.2,.02-.34,.02-.25,0-.46-.03-.63-.1-.17-.06-.3-.16-.4-.28-.1-.12-.18-.28-.22-.46-.05-.18-.08-.39-.1-.63l-.07-.87c-.03-.32-.09-.56-.19-.74-.1-.18-.22-.31-.36-.39-.14-.08-.28-.13-.42-.15-.15-.02-.27-.02-.38-.02h-.95v3.44h1.06v.13h-3.06v-.13Zm2.01-3.57h.88c.18,0,.34-.02,.49-.07,.15-.04,.27-.12,.38-.23,.1-.11,.19-.26,.24-.45,.06-.19,.09-.43,.09-.72,0-.33-.04-.59-.13-.79-.09-.2-.2-.35-.33-.45-.14-.1-.29-.17-.46-.2-.17-.03-.33-.05-.5-.05-.11,0-.23,0-.35,0-.12,0-.22,.01-.3,.02v2.94Z"/>
        <path class="cls-1" d="M67.86,57.56h1.06v-6.51h-1.06v-.13h1.81c.08,0,.15,0,.23,0,.08,0,.15,0,.23-.01,.08,0,.15,0,.23,0,.08,0,.15,0,.23,0,.37,0,.7,.02,.99,.06,.29,.04,.55,.16,.8,.36,.22,.17,.38,.37,.47,.58,.09,.22,.14,.42,.14,.61,0,.1-.02,.22-.05,.37-.04,.15-.11,.3-.23,.46-.12,.16-.29,.3-.51,.43-.22,.13-.52,.22-.89,.26v.02c.1,.01,.24,.04,.41,.07,.17,.04,.35,.09,.53,.18,.18,.08,.35,.19,.5,.33,.15,.14,.26,.31,.32,.53,.04,.13,.07,.27,.08,.43,.02,.16,.03,.33,.04,.5,0,.17,.02,.34,.03,.49,.01,.16,.03,.29,.05,.4,.04,.17,.1,.31,.18,.45,.08,.13,.22,.2,.4,.2,.08,0,.17-.02,.26-.05,.09-.03,.17-.08,.24-.15l.09,.1s-.07,.05-.11,.08c-.04,.03-.09,.06-.16,.08-.06,.03-.14,.05-.23,.06-.09,.02-.2,.02-.34,.02-.25,0-.46-.03-.63-.1-.17-.06-.3-.16-.4-.28-.1-.12-.18-.28-.22-.46-.05-.18-.08-.39-.1-.63l-.07-.87c-.03-.32-.09-.56-.19-.74-.1-.18-.22-.31-.36-.39-.14-.08-.28-.13-.42-.15-.15-.02-.27-.02-.38-.02h-.95v3.44h1.06v.13h-3.06v-.13Zm2.01-3.57h.88c.18,0,.34-.02,.49-.07,.15-.04,.27-.12,.38-.23,.1-.11,.19-.26,.24-.45,.06-.19,.09-.43,.09-.72,0-.33-.04-.59-.13-.79-.09-.2-.2-.35-.33-.45-.14-.1-.29-.17-.46-.2-.17-.03-.33-.05-.5-.05-.11,0-.23,0-.35,0-.12,0-.22,.01-.3,.02v2.94Z"/>
        <path class="cls-1" d="M74.76,57.56h1.06v-6.51h-1.06v-.13h3.06v.13h-1.06v6.51h1.06v.13h-3.06v-.13Z"/>
        <path class="cls-1" d="M78.42,57.56h1.06v-6.51h-1.06v-.13h5.44v1.65h-.1c-.08-.25-.17-.46-.27-.65-.1-.19-.21-.35-.34-.48-.13-.13-.29-.23-.48-.29-.18-.06-.41-.1-.67-.1h-1.58v2.94h.62c.21,0,.39-.02,.53-.06,.15-.04,.27-.11,.38-.21,.11-.1,.19-.25,.27-.43,.07-.18,.14-.41,.21-.7h.1v2.96h-.1c-.04-.18-.09-.36-.14-.53-.05-.17-.11-.32-.2-.46-.09-.13-.2-.24-.34-.32-.14-.08-.33-.12-.56-.12h-.77v3.44h1.8c.35,0,.64-.07,.87-.22,.23-.15,.42-.33,.57-.53,.15-.21,.25-.42,.32-.64,.07-.22,.11-.41,.13-.55h.1v2.08h-5.81v-.13Z"/>
        <path class="cls-1" d="M85.55,55.65h.1c.07,.34,.16,.63,.27,.87,.11,.23,.23,.43,.37,.58,.13,.15,.27,.27,.42,.35,.15,.08,.29,.14,.44,.18,.15,.04,.29,.06,.43,.07,.14,0,.27,0,.39,0,.34,0,.61-.05,.83-.15,.22-.1,.39-.23,.51-.39,.13-.16,.22-.32,.27-.5,.05-.18,.08-.35,.08-.5,0-.22-.04-.41-.12-.57-.08-.16-.19-.29-.31-.4s-.27-.2-.41-.27c-.15-.07-.29-.12-.42-.16l-1.09-.33c-.51-.16-.9-.37-1.17-.63-.26-.26-.39-.61-.39-1.05,0-.29,.05-.55,.15-.79,.1-.24,.24-.46,.43-.63,.18-.18,.4-.32,.66-.42,.26-.1,.54-.15,.84-.15,.22,0,.41,.02,.56,.06,.15,.04,.28,.08,.39,.13,.11,.05,.2,.09,.29,.13,.09,.04,.17,.06,.26,.06,.08,0,.14-.01,.17-.03,.03-.02,.07-.08,.12-.17h.13v1.72h-.11c-.04-.23-.1-.45-.2-.66s-.21-.4-.36-.56c-.15-.16-.32-.29-.53-.39-.21-.1-.45-.15-.72-.15-.15,0-.32,.02-.5,.06-.18,.04-.36,.11-.51,.21-.16,.1-.29,.23-.39,.4s-.16,.37-.16,.63c0,.2,.04,.38,.12,.52s.19,.26,.32,.36c.13,.1,.28,.18,.44,.25,.16,.07,.33,.13,.49,.18l1.15,.36c.12,.04,.27,.09,.46,.15,.18,.06,.36,.16,.54,.29,.18,.13,.32,.29,.45,.5,.12,.21,.19,.48,.19,.8,0,.3-.06,.58-.17,.85-.11,.27-.27,.51-.48,.71-.21,.21-.46,.37-.76,.5-.3,.12-.63,.19-1.01,.19-.13,0-.25,0-.35,0-.1,0-.2-.01-.29-.02-.09-.01-.18-.03-.27-.04-.09-.02-.19-.04-.3-.07-.13-.04-.26-.08-.41-.13-.15-.05-.27-.08-.38-.08-.1,0-.16,.02-.2,.06-.03,.04-.06,.09-.09,.15h-.14v-2.05Z"/>
        <path class="cls-1" d="M94.11,57.56h1.06v-6.51h-1.06v-.13h1.79c.09,0,.18,0,.27,0,.09,0,.18,0,.27-.01,.09,0,.18,0,.26,0,.09,0,.17,0,.26,0,.36,0,.7,.04,1,.13,.31,.09,.58,.21,.8,.37,.22,.16,.4,.35,.53,.57,.13,.22,.19,.47,.19,.74s-.07,.54-.22,.76c-.15,.22-.34,.41-.58,.56-.24,.15-.52,.27-.84,.35-.32,.08-.66,.12-1,.12-.09,0-.2,0-.34-.02-.14-.02-.26-.03-.37-.05v3.14h1.06v.13h-3.06v-.13Zm2.01-3.27c.13,.03,.26,.04,.4,.06,.14,.01,.26,.02,.37,.02,.47,0,.84-.14,1.1-.41s.39-.69,.39-1.25c0-.32-.03-.59-.1-.81-.06-.22-.16-.39-.3-.52-.14-.13-.31-.22-.53-.27-.22-.05-.48-.08-.78-.08-.12,0-.23,0-.33,.01-.1,0-.17,.01-.22,.02v3.24Z"/>
        <path class="cls-1" d="M99.12,57.56h.84l2.57-6.81h.23l2.59,6.81h.85v.13h-2.93v-.13h1.06l-1-2.65h-2.21l-1,2.65h1.06v.13h-2.05v-.13Zm3.09-5.55l-1.05,2.77h2.09l-1.05-2.77Z"/>
        <path class="cls-1" d="M106.47,57.56h1.06v-6.51h-1.06v-.13h3.06v.13h-1.06v6.51h1.7c.56,0,1-.17,1.31-.52,.32-.35,.55-.82,.69-1.43h.11v2.08h-5.82v-.13Z"/>
        <path class="cls-1" d="M112.69,57.56h.84l2.57-6.81h.23l2.59,6.81h.85v.13h-2.93v-.13h1.06l-1-2.65h-2.21l-1,2.65h1.06v.13h-2.05v-.13Zm3.09-5.55l-1.05,2.77h2.09l-1.05-2.77Z"/>
        <path class="cls-1" d="M125.86,57.7h-.14c-.04-.05-.1-.1-.15-.14-.06-.04-.15-.06-.27-.06-.1,0-.2,.02-.31,.05-.11,.04-.24,.07-.38,.12-.14,.04-.3,.08-.48,.12-.18,.04-.37,.05-.59,.05-.4,0-.79-.07-1.17-.22-.38-.15-.73-.38-1.07-.71-.31-.31-.57-.68-.78-1.1-.21-.42-.31-.92-.31-1.48,0-.48,.09-.93,.26-1.36,.17-.43,.41-.81,.71-1.14,.3-.33,.66-.59,1.08-.79,.41-.19,.86-.29,1.35-.29,.2,0,.37,.02,.52,.06,.15,.04,.29,.08,.41,.13s.23,.09,.33,.13c.1,.04,.2,.06,.29,.06,.13,0,.22-.02,.27-.06,.05-.04,.1-.09,.15-.14h.14v1.9h-.1c-.06-.24-.13-.48-.22-.71-.09-.23-.21-.44-.37-.62-.16-.18-.36-.33-.6-.44-.24-.11-.55-.17-.91-.17-.34,0-.62,.05-.87,.16-.24,.11-.44,.25-.61,.42-.17,.18-.3,.38-.39,.61-.1,.23-.17,.48-.22,.73-.05,.26-.08,.52-.1,.78-.02,.26-.02,.51-.02,.75,0,.67,.05,1.22,.16,1.66,.11,.44,.26,.78,.45,1.04,.19,.25,.43,.43,.7,.53,.27,.1,.57,.15,.9,.15,.43,0,.77-.06,1.03-.18s.47-.28,.63-.47c.16-.19,.28-.41,.36-.66,.08-.24,.16-.49,.22-.73h.11v2.03Z"/>
        <path class="cls-1" d="M126.63,57.56h1.06v-6.51h-1.06v-.13h5.44v1.65h-.1c-.08-.25-.17-.46-.27-.65-.1-.19-.21-.35-.34-.48-.13-.13-.29-.23-.48-.29-.18-.06-.41-.1-.67-.1h-1.58v2.94h.62c.21,0,.39-.02,.53-.06,.15-.04,.27-.11,.38-.21,.11-.1,.19-.25,.27-.43,.07-.18,.14-.41,.21-.7h.1v2.96h-.1c-.04-.18-.09-.36-.14-.53-.05-.17-.11-.32-.2-.46-.09-.13-.2-.24-.34-.32-.14-.08-.33-.12-.56-.12h-.77v3.44h1.8c.35,0,.64-.07,.87-.22,.23-.15,.42-.33,.57-.53,.15-.21,.25-.42,.32-.64,.07-.22,.11-.41,.13-.55h.1v2.08h-5.81v-.13Z"/>
      </g>
      <g>
        <path class="cls-1" d="M49.33,27.52h.75v5.94h2.66v.68h-1.86v5.95c.8-.56,1.46-1.13,2-1.72l.12,.75c-1.17,1.17-2.21,2.05-3.12,2.64l-.43-.75c.25-.14,.48-.27,.68-.41v-6.46h-1.3c-.01,2.24-.09,3.83-.24,4.78-.15,.88-.38,1.63-.7,2.27-.32,.67-.73,1.23-1.25,1.69l-.32-.61c.41-.43,.74-.95,.99-1.57,.26-.59,.45-1.3,.58-2.12,.11-.87,.18-2.35,.19-4.43h-1.69v-.68h2.93v-5.94Zm-1.86,1.28c.65,1.24,1.08,2.5,1.3,3.77l-.75,.2c-.22-1.35-.63-2.6-1.23-3.75l.68-.22Zm4.23,0l.75,.22c-.26,1.24-.69,2.51-1.3,3.82l-.67-.34c.57-1.3,.97-2.53,1.21-3.7Zm2.8,4.3l.68,.22c-.2,.57-.48,1.11-.84,1.64h3.33c-.21-.43-.44-.85-.72-1.24l.55-.39c.4,.48,.76,1.02,1.07,1.64h3.36v.68h-3.68v1.3h3.22v.68h-3.22v1.43h3.22v.67h-3.22v1.65h4.11v.61h-8.05v1.07h-.75v-7.03c-.4,.49-.81,.92-1.25,1.3l-.55-.46c.64-.53,1.19-1.15,1.67-1.84,.5-.67,.85-1.31,1.06-1.93Zm-1.82-5.37h4.21v5.73h-.75v-1.84c-1.09,.74-2.07,1.31-2.93,1.71l-.32-.68c1.35-.55,2.44-1.12,3.26-1.72v-2.51h-3.46v-.68Zm.75,1.07c.8,.47,1.47,1.02,2.03,1.65l-.39,.61c-.52-.63-1.17-1.18-1.93-1.65l.29-.61Zm4.08,8.14v-1.3h-3.19v1.3h3.19Zm0,2.12v-1.43h-3.19v1.43h3.19Zm-3.19,2.32h3.19v-1.65h-3.19v1.65Zm3.12-13.64h4.04v5.99h-.75v-2.2c-.93,.71-1.78,1.23-2.54,1.59l-.32-.68c1.17-.52,2.13-1.07,2.87-1.64v-2.37h-3.29v-.68Zm.49,1.07c.8,.5,1.48,1.1,2.05,1.79l-.43,.61c-.51-.68-1.15-1.28-1.91-1.79l.29-.61Z"/>
        <path class="cls-1" d="M116.81,31.82h4.62c-.31,1.83-.89,3.59-1.74,5.29-.85,1.57-1.89,2.87-3.1,3.91l-.32-.68c1.06-.93,1.98-2.16,2.78-3.68,.72-1.44,1.2-2.83,1.45-4.14h-3.68v-.68Zm2.25-3.97h9.74v.75c-1.41,1.11-2.93,2.08-4.57,2.9,.16,.43,.29,.86,.39,1.28h2.42v.68h-2.27c.14,.64,.23,1.25,.27,1.82h2.39v.68h-2.34c.01,.25,.02,.48,.02,.68,0,.44,0,.86-.02,1.25h3.24v.68h-3.26c-.06,1.68-.2,2.8-.43,3.34-.26,.64-.63,.95-1.09,.95-.74,0-1.51-.19-2.32-.56l-.07-.87c.82,.41,1.55,.61,2.18,.61,.28,0,.5-.18,.65-.53,.16-.34,.26-1.32,.29-2.95h-3.8v-.68h3.82v-1.25c0-.24,0-.47-.02-.68h-2.87v-.68h2.83c-.06-.66-.14-1.27-.26-1.82h-2.22v-.68h2.05c-.22-.93-.54-1.75-.97-2.46l.63-.36c.18,.33,.35,.66,.51,.99,1.31-.73,2.47-1.51,3.5-2.35h-8.44v-.75Zm12.42,3.5l.39,.55c-1.05,1-2.12,1.77-3.22,2.32,.27,.91,.6,1.74,.99,2.49,.73,1.49,1.63,2.72,2.71,3.7l-.55,.68c-1.14-1.06-2.09-2.4-2.87-4.04-.83-1.71-1.38-3.65-1.64-5.83h.75c.09,.81,.23,1.57,.41,2.29,1.1-.56,2.11-1.27,3.02-2.15Z"/>
      </g>
    </g>
  </g>
</svg>