<?xml version="1.0" encoding="UTF-8"?>
<svg id="_圖層_2" data-name="圖層 2" xmlns="http://www.w3.org/2000/svg" viewBox="0 0 204.87 63.39">
  <g id="menu">
    <g>
      <path d="M15.29,10.5c-.13-.09-.42-.11-.87-.07-.45,.09-1.13,.22-2.07,.4-1.47,.31-2.74,.69-3.81,1.13-.98,.4-2,.58-3.07,.53-.45-.04-.69-.22-.73-.53-.04-.53,.02-1,.2-1.4,.13-.18,.42-.24,.87-.2,.71,0,1.22-.02,1.54-.07,.4-.09,.87-.27,1.4-.53,.58-.27,1.67-.6,3.27-1,1.38-.36,2.36-.53,2.94-.53,.18-.04,.36-.07,.53-.07,.58-.13,1.02-.11,1.34,.07,.36,.27,.69,.76,1,1.47,.27,.76,.31,1.49,.13,2.2-.45,1.25-1.67,2.96-3.67,5.14-1.42,1.51-2.89,2.96-4.41,4.34,1.34-.67,2.56-1.16,3.67-1.47,.49-.18,.96-.11,1.4,.2,.67,.45,.91,.96,.74,1.54-.36,1.83-2.36,5.03-6.01,9.62-.58,.85-.78,1.29-.6,1.34,.13,.04,.53-.09,1.2-.4,1.16-.67,2.83-1,5.01-1,1.11,.04,1.83,.73,2.14,2.07,.53,2.63,.33,5.94-.6,9.95-.89,3.87-2.54,8.04-4.94,12.49-.22,.58-1,.87-2.34,.87-2.18,0-4.03-.8-5.54-2.4-1.47-1.65-2.4-3.43-2.8-5.34-.13-.89-.04-1.36,.27-1.4,.58-.04,.96,.16,1.14,.6,1.2,3.03,2.54,4.96,4.01,5.81,1.42,.85,2.47,1.14,3.14,.87,.53-.22,1.47-1.96,2.8-5.21,1.65-4.14,2.63-7.81,2.94-11.02,.27-2.98,.13-4.7-.4-5.14-.22-.13-1-.11-2.34,.07-2.98,.36-6.43,2.23-10.35,5.61-.71,.49-1.36,.45-1.94-.13-.4-.44-.47-.82-.2-1.14,2.76-2,4.7-3.63,5.81-4.88,2.23-2.85,3.96-5.16,5.21-6.95,1.25-2,1.74-3.16,1.47-3.47-.13-.18-1.14,.13-3.01,.94-2.67,1.11-5.23,2.49-7.68,4.14-.58,.31-1.2,.11-1.87-.6-.4-.44-.18-.87,.67-1.27,1.2-.67,2.43-1.27,3.67-1.8,4.36-3.61,7.84-7.23,10.42-10.89,.62-.98,.74-1.8,.33-2.47Zm6.61,22.17c1.16-.27,3.96-1.29,8.41-3.07,6.19-2.54,10.57-4.16,13.16-4.88,2.71-.71,5.01-.93,6.88-.67,.67,.09,1.02,.22,1.07,.4,.13,.36,.07,.62-.2,.8-.27,.22-.4,.56-.4,1-.09,.45-.22,.69-.4,.73-.18,0-.42-.09-.73-.27-.36-.27-.96-.4-1.8-.4-.93,.04-2.36,.29-4.27,.73-2.4,.67-6.5,2.16-12.29,4.47-5.21,2.09-8.21,3.23-9.02,3.41-.76,.18-1.8,.13-3.14-.13-.71-.13-1.09-.56-1.14-1.27-.09-.53,.02-.89,.33-1.07,.27-.18,.56-.2,.87-.07,.8,.36,1.69,.45,2.67,.27Zm3.61,26.45c.84,.09,1.69-.29,2.54-1.14,1.34-1.34,2.74-2.83,4.21-4.47,2.89-3.34,5.23-6.17,7.01-8.48-2.8-.67-5.68-1.09-8.62-1.27-.89,0-1.36-.27-1.4-.8-.04-.58,.56-.87,1.8-.87,3.25,.09,6.41,.49,9.48,1.2,1.47-2.18,2.36-4.01,2.67-5.48,.13-.44,.36-.67,.67-.67,.49,0,.73,.29,.73,.87-.13,1.47-.96,3.36-2.47,5.68,3.12,.76,6.1,1.83,8.95,3.21,2.09,1.11,3.29,1.96,3.61,2.54,.18,.31,.33,.53,.47,.67,.71,.45,1.05,1.09,1,1.94-.09,.58-.42,.85-1,.8-.49,0-1.22,.2-2.2,.6-1.29,.49-2.47,.8-3.54,.93-.67-.04-1.02-.22-1.07-.53,0-.36,.22-.56,.67-.6,2.71-.8,4.16-1.42,4.34-1.87,.22-.44-1.22-1.42-4.34-2.94-2.67-1.29-5.37-2.27-8.08-2.94-3.07,4.5-5.94,8.17-8.62,11.02-2.05,2.09-3.7,3.61-4.94,4.54-.45,.36-.87,.47-1.27,.33-.53-.13-1.02-.11-1.47,.07-.49,.22-.93-.02-1.33-.73-.4-.76-.67-1.96-.8-3.61-.27-2.71-.25-6.17,.07-10.35,.31-4.27,.96-7.84,1.94-10.69,.13-.49,.36-.76,.67-.8,.31,0,.69,.22,1.13,.67,.53,.49,.67,.96,.4,1.4-.85,1.83-1.47,4.43-1.87,7.81-.36,2.8-.4,6.77-.13,11.89,.09,1.38,.36,2.07,.8,2.07Zm-.33-52.16c.13-.53,.29-.89,.47-1.07,.27-.13,.56-.13,.87,0,.27,.18,.56,.49,.87,.94,.49,.53,.8,1.23,.94,2.07,.09,.67,.11,1.49,.07,2.47-.13,1.92-.2,5.41-.2,10.49,0,4.14-.22,6.77-.67,7.88-.45,.89-.96,1.18-1.54,.87-.58-.36-.71-.89-.4-1.6,.49-1.2,.71-3.49,.67-6.88,.04-4.45,.09-7.43,.13-8.95,.09-1.47,.11-2.63,.07-3.47-.09-.84-.33-1.42-.73-1.74-.36-.36-.53-.69-.53-1Zm9.55,4.74c2.54-.8,4.5-1.2,5.88-1.2,.49-.04,.71,.13,.67,.53,.04,.22,.09,.42,.13,.6,.09,.31-.02,.56-.33,.73-.4,.31-.8,.73-1.2,1.27-.71,.94-1.94,2.23-3.67,3.87-1.91,1.83-2.85,2.81-2.8,2.94,.04,.13,.36,.07,.94-.2,2.67-1.11,4.56-1.76,5.68-1.94,1.51-.22,1.94,.42,1.27,1.94-.62,1.87-2.67,3.43-6.14,4.68-.67,.22-1.07,.18-1.2-.13-.09-.22,.02-.42,.33-.6,2.81-1.56,4.01-2.6,3.61-3.14-.18-.31-1.76,.09-4.74,1.2-.98,.36-1.76,.56-2.34,.6-.62,.22-1.02,.2-1.2-.07-.09-.13-.04-.33,.13-.6,.62-.89,1.16-1.49,1.6-1.8,.44-.36,1.83-1.8,4.14-4.34,1.6-1.83,2.38-2.76,2.34-2.8-.09-.18-.94-.04-2.54,.4-1.38,.4-2.2,.62-2.47,.67-.27,0-.49,.02-.67,.07-1.07,.27-1.63-.09-1.67-1.07-.09-.58,.2-.85,.87-.8,.49,0,1.62-.27,3.41-.8Zm1-8.55c2.18-.89,3.49-1.36,3.94-1.4,.53,0,1.02,.09,1.47,.27,.13,.13,.29,.18,.47,.13,1.6,.36,1.74,1.09,.4,2.2-.45,.4-.96,.82-1.54,1.27-4.27,3.03-7.04,4.63-8.28,4.81-.71,.09-1.09,0-1.13-.27-.09-.36,.07-.62,.47-.8,1.42-.58,3.03-1.49,4.81-2.74,2.05-1.42,3.05-2.23,3.01-2.4-.09-.13-1.16,.13-3.21,.8-2.49,.8-4.23,1.18-5.21,1.14-.58-.04-.78-.47-.6-1.27,.27-.98,.69-1.38,1.27-1.2,.76,.22,2.14,.04,4.14-.53Zm10.08,27.58c.31,.13,.56,.53,.73,1.2,.18,.4,.07,.73-.33,1-3.38,2.63-7.9,5.28-13.56,7.95-.53,.18-1.02,.18-1.47,0-.53-.27-.78-.56-.73-.87,.09-.27,.36-.49,.8-.67,3.29-1.47,5.97-2.83,8.01-4.07,2.31-1.38,4.23-2.83,5.74-4.34,.27-.31,.53-.38,.8-.2Z"/>
      <path d="M105.61,37.94c6.01,2.85,11.49,6.41,16.43,10.69,2.94,2.54,4.5,4.34,4.67,5.41,.13,.58,.29,1,.47,1.27,.58,.71,.71,1.42,.4,2.14-.22,.53-.62,.71-1.2,.53-.36-.13-1-.22-1.94-.27-1.16-.09-2.16-.22-3-.4-.58-.31-.85-.62-.8-.93,.04-.22,.33-.31,.87-.27,2.05,.18,3.21,.11,3.47-.2,.58-.67-1.34-2.83-5.74-6.48-4.5-3.83-9.35-7.03-14.56-9.62-2.85,5.43-6.17,9.37-9.95,11.82-4.76,3.07-8.75,4.52-11.96,4.34-.98,.09-1.83-.2-2.54-.87-1.65-.98-2.89-2.23-3.74-3.74-.13-.49-.07-.73,.2-.73,.36-.04,.6,.02,.73,.2,1.56,1.96,3.03,3.09,4.41,3.41,.93,.4,2.43,.27,4.47-.4,3.16-.98,6.28-2.83,9.35-5.54,2.67-2.45,5.08-5.56,7.21-9.35-3.61-1.78-7.41-3.29-11.42-4.54-.76-.31-1.11-.69-1.07-1.14,.04-.58,.67-.73,1.87-.47,4.05,1.11,7.9,2.54,11.55,4.27,.13-.31,.29-.6,.47-.87,2.45-5.39,3.45-9.3,3-11.75-.04-.4,.09-.69,.4-.87,1.2-.94,1.83-.98,1.87-.13,.4,2.94-.62,7.17-3.07,12.69-.31,.62-.6,1.23-.87,1.8Zm-14.49-12.29c7.57-3.16,13.25-5.37,17.03-6.61,3.38-1.07,6.37-1.6,8.95-1.6,2.23,0,3.74,.09,4.54,.27,.44,.13,.73,.6,.87,1.4,.13,.85,.13,1.36,0,1.54-.13,.18-.42,.18-.87,0-.8-.36-2.03-.67-3.67-.94-1.56-.22-3.34-.11-5.34,.33-2.18,.45-5.48,1.47-9.88,3.07-4.72,1.74-9.31,3.63-13.76,5.68-3.16,1.47-5.48,2.05-6.95,1.74-.85-.22-1.07-.69-.67-1.4,.44-.8,.96-1.07,1.54-.8,.62,.27,3.36-.62,8.21-2.67ZM108.41,6.69c1.42,1.11,1.67,2.4,.73,3.87-1.74,1.65-4.5,3.56-8.28,5.74-1.07,.4-1.69,.38-1.87-.07-.13-.4,.2-.76,1-1.07,2.85-2,4.88-3.56,6.08-4.67,.71-.76,1.09-1.29,1.13-1.6-.58-1.6-3.43-2.96-8.55-4.07-1.07-.22-1.58-.56-1.54-1,.09-.53,.62-.8,1.6-.8,3.61,.45,6.83,1.67,9.68,3.67Z"/>
      <path d="M190.25,4.42c.58-.09,1.02-.04,1.34,.13,.36,.22,.69,.73,1,1.54,.18,.53,.18,1.02,0,1.47-.4,.8-1.29,1.87-2.67,3.21-1.11,.98-2.23,1.89-3.34,2.74,.13-.04,.27-.04,.4,0,.85,.04,1.34,.22,1.47,.53,.18,.36,0,.73-.53,1.14-.62,.53-1.49,.82-2.6,.87-1.2,.09-3.03,.49-5.48,1.2-.27,.09-.47,.16-.6,.2,0,1.51-.02,2.76-.07,3.74,.31-.09,.62-.13,.94-.13,5.88-.89,11.02-1.34,15.43-1.34,1.91,0,3.23,.13,3.94,.4,.44,.13,.89,.18,1.34,.13,.53,0,1.07,.09,1.6,.27,.44,.13,.93,.2,1.47,.2,.45-.04,.76,.07,.94,.33,.13,.27,.04,.6-.27,1-.27,.27-.49,.6-.67,1-.13,.27-.47,.31-1,.13-.71-.22-1.49-.24-2.34-.07-.8,.18-1.34,0-1.6-.53-.22-.36-.62-.56-1.2-.6-1.47-.18-4.23-.13-8.28,.13-5.17,.36-10.24,1.07-15.23,2.14-6.01,1.29-10.64,2.49-13.89,3.61-3.34,1.16-5.41,1.74-6.21,1.74-.76,0-1.54-.16-2.34-.47-.27-.18-.38-.49-.33-.94,.09-.27,.22-.49,.4-.67,.18-.13,.42-.18,.73-.13,.44,.09,1.07,.04,1.87-.13,1.6-.31,4.76-1.22,9.48-2.74,3.61-1.25,7.95-2.23,13.02-2.94,0-.22,.02-.42,.07-.6,.13-.8,.2-1.8,.2-3.01-1.51,.36-2.63,.62-3.34,.8-2,.31-3.36,.38-4.07,.2-.4-.13-.67-.47-.8-1-.09-.49-.07-.82,.07-1,0-.04,.09-.04,.27,0-.58-.94-1.02-2.14-1.34-3.61-.62-2.23-1.27-3.54-1.94-3.94-.4-.27-.62-.73-.67-1.4,.04-.49,.22-.8,.53-.94s.76,.07,1.34,.6c.22,.22,.47,.49,.73,.8,.09-.04,.27-.04,.54,0,1.47,.18,2.63,.18,3.47,0,.84-.18,1.89-.53,3.14-1.07,.62-.36,1.54-.62,2.74-.8,.18-1.6,.24-2.56,.2-2.87-.09-.62-.27-1.09-.53-1.4-.4-.4-.87-.53-1.4-.4-.71,.18-1.09,0-1.14-.53-.09-.44,.2-.82,.87-1.14,.49-.22,1.07-.31,1.74-.27,.58,.04,1.09,.36,1.54,.94,.31,.36,.53,.82,.67,1.4,.13,.89,.13,2.14,0,3.74,.71-.22,1.56-.42,2.54-.6,3.07-.62,5.28-.96,6.61-1,.44,0,.87-.02,1.27-.07Zm-20.17,46.68c4.99-2,7.77-3.07,8.35-3.21,.58-.13,1.07-.29,1.47-.47,.53-.27,.96-.24,1.27,.07,.31,.31,.24,.94-.2,1.87-.27,.49-2.07,2-5.41,4.54-3.29,2.63-6.1,4.56-8.42,5.81-2,1.11-3.27,1.6-3.81,1.47-.45-.13-.65-.6-.6-1.4,.13-.98,.36-1.47,.67-1.47s.47,.27,.47,.8c.04,.31,.96-.02,2.74-1,1.69-.94,4.96-3.23,9.82-6.88,.44-.44,.65-.69,.6-.73-.18-.18-1.23,.16-3.14,1-1.74,.76-3.94,1.63-6.61,2.6-3.78,1.42-5.9,2.05-6.34,1.87-.49-.22-.8-.69-.93-1.4-.13-.76,.2-.98,1-.67,.8,.27,3.83-.67,9.08-2.81Zm19.3,3.27c-.22,.4-.56,.62-1,.67h-.27c1.78,.85,3.43,1.89,4.94,3.14,1.16,.89,1.8,1.56,1.94,2,.09,.18,.16,.33,.2,.47,.58,.62,.71,1.34,.4,2.14-.22,.53-.62,.71-1.2,.53-.22-.13-.69-.22-1.4-.27-.85-.09-1.56-.22-2.14-.4-.62-.27-.91-.56-.87-.87,.04-.27,.33-.38,.87-.33,1.25,.04,1.96-.02,2.14-.2,.18-.22-.56-.96-2.2-2.2-3.03-2.27-6.43-3.9-10.22-4.88-.8-.22-1.18-.6-1.13-1.14,.09-.58,.73-.73,1.94-.47,2.27,.53,4.36,1.29,6.28,2.27-.04-.09-.04-.16,0-.2,.04-.27,0-.49-.13-.67-.13-.18-.11-.42,.07-.73,1.11-2.58,1.67-7.17,1.67-13.76,0-7.08-.42-10.77-1.27-11.09-1.38-.49-3.9-.24-7.55,.73-3.65,.98-7.17,2.43-10.55,4.34-.18,.09-.29,.16-.33,.2-.22,1.2-.36,2.56-.4,4.07,.85-.27,2.34-.8,4.47-1.6,2.31-.89,4.34-1.42,6.08-1.6,.67-.04,1.09,.02,1.27,.2,.18,.22,.24,.42,.2,.6,0,.22-.09,.4-.27,.53-2.85,2.27-5.21,4.14-7.08,5.61-.8,.67-1.18,1.14-1.13,1.4,.18,.4,.56,.53,1.13,.4,3.25-.76,5.63-1.34,7.15-1.74,.22-.09,.36-.07,.4,.07,.09,.04,.2,.27,.33,.67,.13,.31,.04,.67-.27,1.07-.18,.18-.42,.27-.73,.27-1.78,.27-3.96,.73-6.54,1.4-2.76,.71-4.61,1.16-5.54,1.34,.04,1.34,.09,2.34,.13,3,.13,.8,.04,1.18-.27,1.14-.4-.09-.87,0-1.4,.27-.45,.18-.58-.02-.4-.6,.13-.49,.13-.87,0-1.14-.13-.36-.11-2.2,.07-5.54,.31-4.32,.62-7.7,.94-10.15,.31-2.05,.69-3.83,1.13-5.34,.13-.49,.36-.73,.67-.73,.4-.04,.69,.09,.87,.4,.22,.31,.27,.73,.13,1.27-.22,.67-.4,1.42-.53,2.27,0-.04,.02-.07,.07-.07,6.05-3.07,11.71-4.83,16.96-5.28,.85-.09,1.62,.02,2.34,.33,.84,.4,1.34,1.16,1.47,2.27,.62,6.99,.71,13.11,.27,18.37-.27,3.38-.82,5.9-1.67,7.55Zm-20.64-10.15c.49-.53,1.13-1.16,1.94-1.87,1.25-1.25,2.56-2.36,3.94-3.34,1.16-.89,1.67-1.47,1.54-1.74-.09-.31-.36-.38-.8-.2-.36,.18-1.49,.62-3.41,1.34-1.56,.58-2.54,1-2.94,1.27-.18,1.69-.27,3.21-.27,4.54Zm8.88-35.46c-.93,.27-1.8,.56-2.6,.87-2,.71-4.03,1.05-6.08,1,.09,.22,.16,.42,.2,.6,.53,2,1.02,3.36,1.47,4.07,.22,.53,.36,1.02,.4,1.47v.27c.67,0,1.56-.09,2.67-.27,1.02-.27,2.23-.56,3.61-.87-.04-2.36,.07-4.74,.33-7.15Zm1.6,3.47c-.04,1.16-.07,2.2-.07,3.14,.76-.27,1.6-.53,2.54-.8,.44-.22,.89-.36,1.34-.4,2.71-1.87,4.9-3.83,6.54-5.88,.4-.58,.51-1.07,.33-1.47-.27-.36-.89-.44-1.87-.27-1.03,.13-2.56,.4-4.61,.8-1.47,.27-2.76,.56-3.87,.87-.22,1.74-.33,3.07-.33,4.01Z"/>
    </g>
  </g>
</svg>