<?xml version="1.0" encoding="UTF-8"?>
<svg id="_圖層_2" data-name="圖層 2" xmlns="http://www.w3.org/2000/svg" viewBox="0 0 117 117">
  <defs>
    <style>
      .cls-1 {
        fill: none;
        stroke: #9ebb57;
        stroke-miterlimit: 10;
      }

      .cls-2 {
        fill: #9ebb57;
      }
    </style>
  </defs>
  <g id="menu">
    <g>
      <circle class="cls-1" cx="58.5" cy="58.5" r="58"/>
      <g>
        <path class="cls-2" d="M50.26,34.84l-.49,.83c-1.31-1.27-2.8-2.42-4.47-3.45-.4,.47-1.07,1.08-1.99,1.83h4.04v.82h-4.11v-.76c-1.1,.81-2.1,1.46-3.01,1.97l-.49-.81c2.33-1.26,4.11-2.67,5.33-4.23l.99,.25c-.04,.09-.09,.16-.15,.21,1.76,1.18,3.21,2.3,4.34,3.36Zm-1.17,12.08h-.87v-.91h-5.2v.91h-.9v-3.96c-.29,1.67-.83,2.97-1.64,3.91l-.67-.59c1.12-1.71,1.68-3.79,1.68-6.25v-4.13h7.6v4.99h-6.71c-.01,.3-.06,.76-.14,1.36h6.85v4.66Zm-.89-8.96v-1.18h-5.77v1.18h5.77Zm0,2.09v-1.23h-5.77v1.23h5.77Zm.02,5.11v-2.04h-5.2v2.04h5.2Zm6.82,.21c0,.42-.11,.75-.32,1.01-.25,.29-.59,.45-1.03,.49-.52,.02-1.04,.04-1.57,.04h-.71l-.34-.98c.78,.02,1.61,.02,2.5-.02,.15,0,.29-.08,.4-.22s.17-.29,.17-.44v-14.07h.91v14.18Zm-3.03-1.78h-.9s0-11.57,0-11.57h.9v11.57Z"/>
        <path class="cls-2" d="M62.26,41.79c-.56,1.43-1.25,2.66-2.05,3.69l-.79-.54c.67-.81,1.35-2,2.01-3.56l.83,.41Zm5.49-1.44h-3.64v6.61h-.9v-6.61h-3.67v-.86h3.67v-1.77h-3.47v-.9h2.2c-.11-.56-.42-1.45-.94-2.67l.63-.43h-1.77v-.93h3.31c-.18-.42-.43-.85-.76-1.3l.86-.38c.29,.39,.6,.95,.92,1.68h3.15v.93h-1.44l.67,.41c-.22,.66-.59,1.56-1.12,2.69h2.09v.9h-3.45v1.77h3.64v.86Zm-2.11-6.63h-3.74c.48,1.17,.82,2.21,1.03,3.1h1.51c.51-1.01,.91-2.04,1.2-3.1Zm1.57,10.08l-.84,.5c-.28-.73-.69-1.58-1.24-2.55l.76-.43c.5,.76,.94,1.59,1.32,2.48Zm7.9-5.91h-1.94v9.08h-.92v-9.08h-2.68c0,4.01-.76,7.06-2.29,9.13l-.76-.58c.78-1.16,1.33-2.34,1.67-3.55s.5-2.8,.5-4.78v-5.4c2.27-.31,4.11-.82,5.54-1.54l.7,.74c-1.59,.74-3.38,1.26-5.34,1.57v3.51h5.53v.9Z"/>
        <path class="cls-2" d="M42.63,62.14c-.5,1.66-1.21,3.19-2.14,4.57l-.86-.45c.78-1.1,1.47-2.56,2.08-4.39l.92,.27Zm11.16-1.6h-12.37v-7.85h12.37v7.85Zm-6.66-4.45v-2.52h-4.76v2.52h4.76Zm0,3.54v-2.65h-4.76v2.65h4.76Zm4.89,5.13c-.12,1.2-.28,1.98-.5,2.33s-.48,.57-.79,.63-1.19,.1-2.63,.1-2.35-.02-2.65-.07-.55-.19-.75-.43-.31-.55-.31-.94v-4.75h.9v4.64c0,.3,.12,.49,.36,.57s1.05,.12,2.43,.12,2.13-.03,2.35-.09,.37-.39,.48-.98,.16-1.07,.16-1.45l.96,.29Zm-2.47-.88l-.83,.47c-.53-.93-1.18-1.86-1.96-2.81l.81-.45c.68,.69,1.34,1.62,1.98,2.79Zm3.26-7.8v-2.52h-4.74v2.52h4.74Zm0,3.56v-2.65h-4.74v2.65h4.74Zm2.7,6.35l-.76,.53c-.86-1.57-1.85-3-2.99-4.29l.87-.43c1.04,1.15,2,2.55,2.88,4.19Z"/>
        <path class="cls-2" d="M61.45,63.74c-.13,1.56-.48,2.98-1.05,4.27l-.84-.38c.52-1.21,.86-2.55,1.01-4.02l.88,.12Zm4.59-1.19l-.9,.33c-.06-.26-.15-.62-.27-1.08-1.83,.56-3.48,.98-4.95,1.26l-.25-.81c1.35-1.37,2.5-2.83,3.47-4.37-1.02,.27-2.09,.47-3.22,.61l-.31-.86c.9-1.19,2-3.02,3.3-5.49l.86,.38c-.86,1.69-1.85,3.33-2.96,4.91,.78-.09,1.78-.31,3.01-.64,.37-.57,.79-1.28,1.26-2.13l.83,.47c-1.55,2.7-3.13,4.95-4.74,6.77,1.65-.38,2.8-.69,3.46-.93l-.47-1.08,.82-.33c.37,.7,.73,1.7,1.07,3.01Zm-2.27,4.81l-.88,.16c.04-.93-.11-2.15-.45-3.67l.86-.17c.36,1.43,.51,2.65,.47,3.67Zm2.47-.84l-.83,.31c-.22-1.23-.54-2.28-.96-3.14l.85-.25c.44,1.05,.75,2.08,.93,3.08Zm9,.36h-7.13v1.02h-.93v-10.15c-.12,.19-.46,.67-1.03,1.44l-.77-.52c1.35-1.79,2.45-3.97,3.3-6.52l.84,.25c-.34,1.08-.74,2.12-1.21,3.11h3.2c-.23-.9-.58-1.86-1.06-2.87l.81-.29c.43,.84,.82,1.9,1.15,3.16h2.63v.89h-3.08v2.37h2.7v.9h-2.7v2.61h2.7v.91h-2.7v2.8h3.28v.89Zm-4.21-8.1v-2.37h-2.92v2.37h2.92Zm0,3.51v-2.61h-2.92v2.61h2.92Zm0,3.71v-2.8h-2.92v2.8h2.92Z"/>
      </g>
      <g>
        <path class="cls-2" d="M29.27,81.47c.4,.08,.8,.23,1.2,.43,.07,.04,.1,.07,.11,.1,0,.03,.02,.1,.04,.21l.17,1.67s-.03,.04-.08,.05c-.05,0-.08,0-.09-.03-.43-1.56-1.39-2.34-2.88-2.34-.78,0-1.47,.17-2.07,.52-.6,.35-1.06,.84-1.39,1.48-.33,.64-.49,1.38-.49,2.23s.18,1.56,.54,2.23,.84,1.21,1.46,1.6c.61,.39,1.28,.59,2,.59,.76,0,1.39-.19,1.86-.56,.48-.37,.84-.94,1.09-1.71,0-.02,.02-.03,.07-.03,.07,0,.1,.01,.1,.04l-.14,1.54c0,.11-.02,.18-.04,.21-.02,.03-.06,.06-.11,.1-.49,.23-.94,.4-1.37,.49-.43,.09-.91,.14-1.46,.14-.98,0-1.86-.19-2.62-.58-.77-.39-1.37-.93-1.8-1.63-.43-.7-.64-1.5-.64-2.41s.22-1.65,.66-2.33c.44-.68,1.04-1.2,1.81-1.57s1.64-.56,2.6-.56c.59,0,1.08,.04,1.48,.13Z"/>
        <path class="cls-2" d="M41.92,90.17c0,.06,0,.08-.03,.08h-1.81c-.23,0-.67-.39-1.32-1.16-.64-.77-1.41-1.84-2.3-3.19-.25,.06-.51,.08-.78,.08-.06,0-.27-.01-.63-.04v3.18c0,.29,.03,.5,.08,.63s.17,.22,.33,.27c.16,.05,.42,.07,.78,.07,.03,0,.04,.03,.04,.08s-.01,.08-.04,.08c-.29,0-.52,0-.69-.01h-.97s-.95,0-.95,0c-.17,0-.41,.01-.71,.01-.02,0-.03-.03-.03-.08s0-.08,.03-.08c.35,0,.62-.02,.78-.07,.17-.05,.28-.14,.34-.27,.06-.14,.09-.34,.09-.62v-6.48c0-.28-.03-.49-.08-.62-.06-.13-.17-.22-.33-.27-.16-.05-.42-.08-.78-.08-.03,0-.04-.03-.04-.08s.01-.08,.04-.08h.69c.39,.03,.71,.04,.95,.04,.21,0,.4,0,.57-.01,.18,0,.33-.02,.45-.03,.34-.03,.66-.04,.94-.04,.74,0,1.31,.17,1.71,.5,.4,.34,.6,.78,.6,1.34,0,.5-.15,.96-.44,1.36s-.68,.73-1.17,.96c.78,1.13,1.44,2.01,1.98,2.65,.54,.64,1.01,1.1,1.43,1.38,.41,.28,.82,.42,1.22,.42,.02,0,.03,.03,.03,.08Zm-6.03-4.51c.73,0,1.25-.16,1.56-.48,.31-.32,.47-.81,.47-1.47,0-.73-.16-1.25-.48-1.57-.32-.32-.79-.48-1.41-.48-.36,0-.62,.07-.76,.2-.14,.13-.21,.4-.21,.8v2.94c.23,.04,.51,.06,.83,.06Z"/>
        <path class="cls-2" d="M49.16,88.14s.05,0,.08,.01c.02,0,.03,.02,.03,.04-.08,.59-.13,1.2-.13,1.85,0,.07-.02,.13-.05,.16-.03,.03-.09,.05-.18,.05h-5.87s-.03-.03-.03-.08,0-.08,.03-.08c.35,0,.61-.02,.78-.07,.16-.05,.28-.14,.34-.27,.06-.14,.09-.34,.09-.62v-6.48c0-.28-.03-.49-.09-.62-.06-.13-.17-.22-.34-.27-.16-.05-.42-.08-.78-.08-.02,0-.03-.03-.03-.08s0-.08,.03-.08h5.63c.08,0,.13,.04,.13,.13l.03,1.72s-.02,.04-.07,.05c-.05,0-.08,0-.08-.03-.03-.49-.18-.88-.45-1.16-.27-.28-.63-.41-1.08-.41h-.85c-.33,0-.57,.03-.72,.08s-.26,.14-.32,.27-.09,.31-.09,.57v2.84h1.71c.45,0,.77-.07,.96-.22,.19-.15,.29-.4,.29-.76,0-.02,.03-.03,.08-.03s.08,0,.08,.03v1.13c-.01,.27,0,.48,0,.62v.67s-.01,.03-.07,.03-.08,0-.08-.03c0-.41-.1-.7-.3-.88-.2-.18-.54-.27-1-.27h-1.67v3.22c0,.26,.03,.45,.08,.57,.06,.12,.16,.21,.31,.25,.15,.05,.38,.07,.7,.07h1.12c.45,0,.82-.16,1.12-.48,.3-.32,.5-.76,.6-1.32,0-.02,.02-.03,.06-.03Z"/>
        <path class="cls-2" d="M60.51,90.17c0,.06-.02,.08-.05,.08-.18,0-.45,0-.83-.03-.37-.02-.64-.03-.81-.03-.21,0-.47,0-.78,.03-.3,.02-.53,.03-.69,.03-.04,0-.06-.03-.06-.08s.02-.08,.06-.08c.34,0,.6-.03,.76-.1,.16-.07,.24-.18,.24-.34,0-.13-.06-.33-.18-.6l-1.25-2.65h-3.33l-.88,2.07c-.13,.32-.2,.57-.2,.77,0,.29,.12,.5,.34,.64,.23,.14,.57,.2,1.03,.2,.05,0,.07,.03,.07,.08s-.02,.08-.07,.08c-.17,0-.41,0-.73-.03-.36-.02-.66-.03-.92-.03-.24,0-.52,0-.84,.03-.28,.02-.51,.03-.7,.03-.05,0-.07-.03-.07-.08s.02-.08,.07-.08c.26,0,.48-.05,.67-.15,.18-.1,.35-.27,.52-.52,.16-.25,.34-.6,.54-1.07l2.95-6.97s.05-.04,.1-.04,.07,.01,.08,.04l3.3,6.96c.32,.69,.59,1.16,.81,1.39,.22,.24,.49,.36,.8,.36,.04,0,.05,.03,.05,.08Zm-6.82-4.05h3.09l-1.64-3.46-1.46,3.46Z"/>
        <path class="cls-2" d="M61.54,82.2c-.29,.3-.51,.81-.64,1.53,0,.02-.03,.03-.08,.03s-.08,0-.08-.03c.04-.34,.08-.77,.13-1.32,.05-.54,.07-.95,.07-1.22,0-.05,.03-.07,.08-.07s.08,.02,.08,.07c0,.21,.25,.31,.76,.31,.79,.03,1.73,.04,2.81,.04,.55,0,1.13,0,1.75-.03h.95c.34-.01,.59-.04,.75-.08,.16-.05,.27-.14,.31-.28,0-.04,.04-.06,.08-.06s.07,.02,.07,.06c-.03,.27-.06,.68-.08,1.23-.03,.55-.04,1-.04,1.34,0,.02-.03,.03-.08,.03s-.08,0-.08-.03c-.03-.73-.18-1.24-.45-1.53-.27-.29-.72-.44-1.34-.44-.42,0-.72,.02-.9,.06-.18,.04-.3,.12-.36,.24-.07,.12-.1,.33-.1,.62v6.45c0,.29,.03,.5,.1,.63s.19,.22,.38,.27c.19,.05,.48,.07,.88,.07,.03,0,.04,.03,.04,.08s-.01,.08-.04,.08c-.31,0-.55,0-.74-.01h-1.09s-1.05,0-1.05,0c-.19,0-.44,.01-.77,.01-.02,0-.03-.03-.03-.08s0-.08,.03-.08c.4,0,.7-.02,.88-.07s.31-.14,.38-.27c.07-.14,.11-.34,.11-.62v-6.48c0-.29-.03-.49-.1-.61-.07-.12-.19-.19-.36-.22-.18-.03-.48-.05-.9-.05-.59,0-1.03,.15-1.32,.45Z"/>
        <path class="cls-2" d="M72.67,89.74c.06,.14,.17,.23,.33,.27,.16,.05,.42,.07,.78,.07,.03,0,.04,.03,.04,.08s-.01,.08-.04,.08c-.28,0-.5,0-.67-.01h-.99s-.97,0-.97,0c-.17,0-.4,.01-.69,.01-.03,0-.04-.03-.04-.08s.01-.08,.04-.08c.35,0,.61-.02,.78-.07,.16-.05,.27-.14,.34-.27,.06-.14,.09-.34,.09-.62v-6.48c0-.28-.03-.49-.09-.62-.06-.13-.17-.22-.34-.27s-.42-.08-.78-.08c-.03,0-.04-.03-.04-.08s.01-.08,.04-.08h.69c.39,.03,.71,.04,.97,.04,.28,0,.62,0,1.01-.03h.66s.04,.01,.04,.07-.01,.08-.04,.08c-.35,0-.6,.03-.76,.08-.16,.06-.28,.15-.34,.29s-.09,.34-.09,.62v6.45c0,.28,.03,.49,.08,.62Z"/>
        <path class="cls-2" d="M84.55,81.59c0,.06-.01,.08-.04,.08-.32,0-.59,.08-.83,.25-.23,.17-.43,.45-.59,.85l-2.98,7.46s-.06,.06-.15,.06c-.08,0-.13-.02-.15-.06l-3.49-7.57c-.16-.36-.33-.62-.5-.77-.18-.15-.41-.22-.69-.22-.03,0-.04-.03-.04-.08s.01-.08,.04-.08h.53c.26,.03,.47,.04,.63,.04,.37,0,.77,0,1.2-.03h.57s.04,.01,.04,.07-.01,.08-.04,.08c-.58,0-.87,.16-.87,.49,0,.11,.04,.26,.13,.45l2.93,6.41,2.52-6.31c.08-.2,.11-.35,.11-.46,0-.2-.09-.34-.27-.43s-.45-.14-.83-.14c-.03,0-.04-.03-.04-.08s.01-.08,.04-.08h.6c.32,.03,.61,.04,.87,.04,.2,0,.42,0,.66-.03h.59s.04,.01,.04,.07Z"/>
        <path class="cls-2" d="M91.87,88.14s.05,0,.08,.01c.02,0,.04,.02,.04,.04-.08,.59-.13,1.2-.13,1.85,0,.07-.02,.13-.05,.16-.03,.03-.09,.05-.17,.05h-5.87s-.03-.03-.03-.08,0-.08,.03-.08c.36,0,.61-.02,.78-.07,.16-.05,.28-.14,.34-.27,.06-.14,.09-.34,.09-.62v-6.48c0-.28-.03-.49-.09-.62-.06-.13-.17-.22-.34-.27s-.42-.08-.78-.08c-.02,0-.03-.03-.03-.08s0-.08,.03-.08h5.63c.08,0,.12,.04,.12,.13l.03,1.72s-.02,.04-.07,.05c-.05,0-.08,0-.08-.03-.03-.49-.18-.88-.45-1.16-.27-.28-.63-.41-1.08-.41h-.85c-.33,0-.57,.03-.72,.08s-.26,.14-.32,.27-.09,.31-.09,.57v2.84h1.71c.45,0,.77-.07,.96-.22,.19-.15,.29-.4,.29-.76,0-.02,.03-.03,.08-.03s.08,0,.08,.03v1.13c-.01,.27,0,.48,0,.62v.67s-.01,.03-.07,.03-.08,0-.08-.03c0-.41-.1-.7-.3-.88-.2-.18-.53-.27-1-.27h-1.67v3.22c0,.26,.03,.45,.08,.57s.16,.21,.31,.25c.15,.05,.38,.07,.7,.07h1.12c.45,0,.82-.16,1.12-.48,.3-.32,.5-.76,.6-1.32,0-.02,.02-.03,.06-.03Z"/>
      </g>
    </g>
  </g>
</svg>