<?xml version="1.0" encoding="UTF-8"?>
<svg id="_圖層_2" data-name="圖層 2" xmlns="http://www.w3.org/2000/svg" viewBox="0 0 408.83 160.86">
  <defs>
    <style>
      .cls-1 {
        fill: #fff;
      }

      .cls-2 {
        fill: #627e83;
      }
    </style>
  </defs>
  <g id="_圖層_3" data-name="圖層 3">
    <g>
      <g>
        <path class="cls-1" d="M4.27,79.27h3.77c.22,0,.33,.08,.33,.25v5.43c.01,.48,.1,.85,.25,1.11,.11,.25,.27,.43,.49,.55,.31,.19,.68,.33,1.11,.41,.55,.08,1.17,.12,1.87,.12h4.45c1.74,0,3.78-.19,6.13-.57,.11-.05,.21-.08,.31-.08,.11,0,.16,.03,.16,.08-.16,.56-.29,1.13-.39,1.7-.01,.23-.13,.35-.35,.35H12.08c-.51,0-1-.03-1.48-.1-.46-.07-.92-.18-1.37-.33-.38-.15-.75-.35-1.11-.59-.22-.22-.47-.59-.76-1.11l-.06-.08c-.1,0-.15,.01-.16,.04-1.39,1.09-2.15,1.83-2.28,2.21-.04,.08-.1,.12-.18,.12-.1,0-.36-.35-.8-1.05-.07-.12-.1-.27-.1-.43,.81-.36,1.81-1,3.01-1.93,.07-.07,.1-.21,.1-.43v-4.35h-2.62c-.16,0-.25-.12-.25-.35v-.66c0-.22,.08-.33,.25-.33Zm.82-4.92c.77,.4,1.4,.77,1.91,1.11,.57,.4,1.06,.77,1.46,1.11,0,.03-.03,.09-.1,.18-.4,.59-.61,.88-.64,.88-.63-.53-1.3-1.01-2.01-1.44-.57-.37-1.05-.62-1.44-.76,0-.08,.21-.39,.64-.92,.07-.11,.13-.16,.18-.16Zm.49-4.33c.72,.34,1.33,.66,1.8,.96,.55,.36,1.01,.68,1.39,.98,0,.03-.03,.09-.1,.18-.4,.59-.61,.88-.64,.88-.6-.46-1.24-.89-1.91-1.27-.55-.33-1-.55-1.37-.68,0-.08,.22-.39,.66-.92,.05-.1,.11-.14,.16-.14Zm5.17,.16h9.6c.21,0,.33,.02,.39,.06,.29,.22,.43,.38,.43,.49l-4.14,2.85c.36,.15,.67,.29,.94,.43,0,.03-.03,.08-.1,.16-.1,.14-.18,.25-.25,.35h3.63c.27,0,.41,.13,.41,.39v9.93c0,.41-.27,.73-.8,.96-.51,.18-1.17,.29-1.99,.35-.15,0-.24-.07-.27-.21-.01-.29-.17-.71-.47-1.27,0-.04,.05-.06,.16-.06,.94,0,1.5-.05,1.68-.14,.19-.1,.29-.25,.29-.45v-1.56h-3.53v3.53c0,.16-.11,.25-.33,.25h-.82c-.22,0-.33-.08-.33-.25v-3.53h-3.28v3.38c0,.15-.11,.23-.33,.23h-.82c-.16,0-.25-.08-.25-.23v-11.01c0-.21,.08-.31,.25-.31h5.37c-.57-.27-1.18-.53-1.8-.76-.79-.31-1.46-.53-2.01-.66,0-.07,.2-.35,.59-.84,.05-.1,.1-.14,.14-.14,1.03,.3,1.88,.59,2.56,.88l2.44-1.62h-7.38c-.16,0-.25-.1-.25-.31v-.68c0-.15,.08-.23,.25-.23Zm1.23,7.71h3.28v-2.07h-3.28v2.07Zm0,3.34h3.28v-2.13h-3.28v2.13Zm4.76-5.41v2.07h3.53v-2.07h-3.53Zm0,3.28v2.13h3.53v-2.13h-3.53Z"/>
        <path class="cls-1" d="M27.37,78.96h3.69c.27,0,.41,.08,.41,.23v4.94c0,.25,.01,.57,.04,.98,.27,.53,.64,.99,1.09,1.37,.57,.38,1.42,.57,2.52,.57h5.74c.51,0,1.36-.05,2.56-.16,1.12-.11,1.98-.24,2.56-.39,.08-.01,.16-.02,.25-.02,.11,0,.16,.06,.16,.18-.26,.46-.47,.89-.64,1.27-.03,.3-.17,.45-.43,.45h-10.21c-1.46,0-2.64-.37-3.53-1.11-.4-.4-.77-.97-1.13-1.72-.68,.68-1.31,1.31-1.87,1.89-.33,.22-.5,.46-.51,.74,0,.25-.05,.37-.14,.37-.07,0-.16-.07-.27-.21l-1.05-1.52c.36-.04,1.33-.7,2.93-1.99,.25-.11,.37-.35,.37-.72v-3.88h-2.56c-.16,0-.25-.11-.25-.33v-.66c0-.21,.08-.31,.25-.31Zm.66-4.86c.75,.37,1.37,.7,1.85,1,.56,.38,1.04,.74,1.44,1.07,0,.01-.03,.07-.1,.16-.41,.59-.62,.88-.64,.88-.62-.49-1.27-.94-1.97-1.35-.56-.31-1.03-.55-1.39-.7,0-.08,.21-.39,.64-.92,.07-.1,.13-.14,.18-.14Zm.74-4.43c.72,.34,1.33,.65,1.8,.92,.55,.36,1.01,.68,1.39,.96,0,.01-.03,.07-.1,.16-.41,.62-.62,.92-.64,.92-.6-.46-1.24-.88-1.91-1.25-.55-.3-1-.52-1.37-.66,0-.07,.22-.38,.66-.92,.05-.1,.11-.14,.16-.14Zm6.23,.35h8.12c.22,0,.33,.08,.33,.23v6.32h1.56c.27,0,.41,.08,.41,.25v8.2c0,.33-.27,.59-.82,.78-.51,.15-1.16,.25-1.97,.29-.15,0-.23-.08-.25-.23-.03-.3-.19-.75-.49-1.33,0-.04,.05-.06,.14-.06,.92,0,1.46-.03,1.62-.08,.19-.08,.29-.2,.29-.35v-6.23h-9.52v7.71c0,.18-.11,.27-.33,.27h-.82c-.22,0-.33-.09-.33-.27v-8.7c0-.16,.11-.25,.33-.25h1.39v-6.32c0-.15,.11-.23,.33-.23Zm1.15,6.54h1.89v-3.12c0-.16,.11-.25,.33-.25h3.61v-1.97h-5.82v5.33Zm.41,2.79h5.25c.22,0,.33,.08,.33,.25v4.18c0,.18-.11,.27-.33,.27h-5.25c-.22,0-.33-.09-.33-.27v-4.18c0-.16,.11-.25,.33-.25Zm4.1,3.45v-2.19h-2.95v2.19h2.95Zm-1.15-6.23h2.46v-2.11h-2.46v2.11Z"/>
        <path class="cls-1" d="M62.55,86.75h-2.03l-7.85-11.81h-.04v11.81h-1.89v-15.05h2.03l7.85,11.81h.04v-11.81h1.89v15.05Z"/>
        <path class="cls-1" d="M78.9,82.51c0,1.29-.5,2.34-1.5,3.18-1.04,.88-2.4,1.31-4.08,1.31-3.12,0-5.12-1.08-6.01-3.24-.22-.52-.35-1.13-.39-1.85l1.89-.16c.04,.57,.18,1.09,.41,1.54,.37,.71,1,1.23,1.91,1.56,.66,.25,1.36,.37,2.11,.37,1.09,0,1.98-.22,2.65-.66,.74-.46,1.11-1.1,1.11-1.91s-.38-1.42-1.15-1.83c-.52-.29-1.66-.64-3.42-1.05-1.48-.36-2.54-.74-3.18-1.15-1.15-.7-1.72-1.7-1.72-3.01,0-1.2,.47-2.19,1.42-2.97,.94-.79,2.23-1.19,3.86-1.19s2.99,.38,3.98,1.15c1.05,.81,1.61,1.93,1.66,3.36l-1.91,.14c-.18-1.91-1.39-2.87-3.65-2.87-.89,0-1.63,.14-2.24,.43-.82,.38-1.23,.99-1.23,1.83,0,.64,.25,1.12,.76,1.44,.49,.33,1.44,.65,2.83,.96,1.89,.41,3.22,.84,4,1.29,1.27,.75,1.91,1.86,1.91,3.32Z"/>
        <path class="cls-1" d="M93.59,73.48h-8.16v4.68h7.05v1.78h-7.05v6.81h-1.99v-15.05h10.15v1.78Z"/>
        <path class="cls-1" d="M97.62,73.11h7.14c.16,0,.25,.08,.25,.24v.81c0,.23-.08,.34-.25,.34h-7.14c-.16,0-.25-.11-.25-.34v-.81c0-.16,.08-.24,.25-.24Zm.82,8.7h5.41c.22,0,.33,.08,.33,.25v6.07c0,.18-.11,.27-.33,.27h-.82c-.22,0-.33-.09-.33-.27v-.74h-3.12v1c0,.15-.11,.23-.33,.23h-.82c-.22,0-.33-.08-.33-.23v-6.25c0-.22,.11-.33,.33-.33Zm.08-5.74h5.33c.16,0,.25,.11,.25,.33v.68c0,.21-.08,.31-.25,.31h-5.33c-.16,0-.25-.1-.25-.31v-.68c0-.22,.08-.33,.25-.33Zm0,2.81h5.33c.16,0,.25,.1,.25,.31v.66c0,.22-.08,.33-.25,.33h-5.33c-.16,0-.25-.11-.25-.33v-.66c0-.21,.08-.31,.25-.31Zm.16-8.7h5.17c.16,0,.25,.1,.25,.31v.66c0,.22-.08,.33-.25,.33h-5.17c-.16,0-.25-.11-.25-.33v-.66c0-.21,.08-.31,.25-.31Zm.9,15.89h3.12v-2.93h-3.12v2.93Zm6.15-4.27l1.39,.37c.11,.03,.16,.1,.16,.23,0,.08-.14,.21-.41,.39-.23,1.24-.44,2.16-.62,2.75-.18,.55-.38,1.08-.62,1.6-.16,0-.29-.03-.39-.1-.21-.12-.45-.21-.74-.27-.07-.05-.1-.12-.1-.21,.08-.15,.16-.32,.25-.51,.21-.41,.38-.86,.51-1.35,.12-.45,.24-1.01,.35-1.68,.08-.36,.12-.73,.12-1.13,0-.05,.03-.08,.08-.08Zm.41-11.63h9.27c.16,0,.25,.1,.25,.31-.03,2.31-.1,3.97-.23,4.98-.14,1.22-.33,2.11-.59,2.69-.22,.63-.85,.94-1.89,.94-.85,0-1.28-.14-1.29-.43-.07-.31-.24-.69-.51-1.13v-.16c.66,.11,1.26,.16,1.8,.16,.44,0,.72-.21,.84-.64,.14-.34,.25-1,.33-1.99,.08-.71,.14-1.86,.18-3.45h-3.22c-.1,.88-.23,1.65-.39,2.34s-.36,1.29-.59,1.83c-.22,.49-.47,.93-.76,1.31-.33,.41-.75,.79-1.27,1.13-.49,.31-1.22,.66-2.17,1.03-.11,0-.18-.05-.23-.14-.21-.26-.39-.52-.55-.78-.08-.07-.12-.11-.12-.12,0-.04,.03-.06,.08-.06,.67-.22,1.27-.48,1.8-.78,.38-.21,.71-.44,.98-.72,.29-.29,.51-.59,.68-.9,.07-.1,.12-.19,.16-.29-.48-.36-.97-.68-1.48-.98-.53-.29-.98-.49-1.33-.62,0-.08,.22-.39,.66-.92,.07-.1,.12-.14,.16-.14,.71,.31,1.3,.62,1.76,.92,.26,.18,.51,.34,.74,.49,.14-.46,.24-.94,.31-1.42,.05-.38,.1-.77,.12-1.17h-3.51c-.16,0-.25-.11-.25-.33v-.66c0-.21,.08-.31,.25-.31Zm1.72,10.97c.98,.08,1.48,.2,1.48,.35,0,.11-.05,.24-.16,.39v4.59c0,.23,.05,.35,.16,.35h3.69c.34,0,.67-.63,.98-1.89l1.31,.82c-.51,1.64-1.13,2.46-1.87,2.46h-4.7c-.71,0-1.07-.33-1.07-1v-5.81c0-.18,.05-.27,.16-.27Zm2.87-1.97c.44,.74,.79,1.42,1.07,2.05,.26,.56,.48,1.16,.66,1.8,0,.04-.44,.18-1.31,.41-.07-.41-.23-.92-.47-1.52-.25-.7-.58-1.39-1-2.09,0-.08,.36-.3,1.07-.66Zm3.69,.9c.55,.85,.98,1.63,1.31,2.36,.33,.64,.6,1.33,.82,2.07,0,.05-.44,.2-1.31,.43-.1-.49-.29-1.09-.59-1.78-.33-.81-.76-1.61-1.29-2.42,0-.08,.36-.3,1.07-.66Z"/>
        <path class="cls-1" d="M120.82,73.11h6.05c.16,0,.25,.11,.25,.33v.66c0,.23-.08,.35-.25,.35h-6.05c-.18,0-.27-.12-.27-.35v-.66c0-.22,.09-.33,.27-.33Zm.39,8.86h4.92c.22,0,.33,.08,.33,.25v6.17c0,.15-.11,.23-.33,.23h-.82c-.16,0-.25-.08-.25-.23v-1h-2.71v1c0,.15-.11,.23-.33,.23h-.82c-.16,0-.25-.08-.25-.23v-6.07c0-.23,.08-.35,.25-.35Zm.08-5.91h4.92c.16,0,.25,.11,.25,.33v.68c0,.21-.08,.31-.25,.31h-4.92c-.16,0-.25-.1-.25-.31v-.68c0-.22,.08-.33,.25-.33Zm0,2.95h4.92c.16,0,.25,.11,.25,.33v.66c0,.22-.08,.33-.25,.33h-4.92c-.16,0-.25-.11-.25-.33v-.66c0-.22,.08-.33,.25-.33Zm.25-8.84h4.68c.16,0,.25,.1,.25,.31v.66c0,.22-.08,.33-.25,.33h-4.68c-.16,0-.25-.11-.25-.33v-.66c0-.21,.08-.31,.25-.31Zm.82,15.89h2.71v-2.77h-2.71v2.77Zm6.4-15.98h4.35c.14,0,.25,.03,.35,.1,.26,.29,.39,.46,.39,.53-.26,.9-.5,1.6-.72,2.09-.29,.62-.57,1.11-.84,1.5-.26,.36-.56,.7-.9,1.03h5.19c-.21-.27-.4-.55-.57-.82-.49-.7-1.16-1.96-1.99-3.79l.9-.82c.26,.56,.51,1.07,.74,1.52,.05-.04,.1-.08,.12-.12,.26-.19,.51-.42,.74-.7,.21-.26,.38-.54,.53-.84,.03-.07,.05-.1,.08-.1l.94,.68c.14,.08,.21,.18,.21,.31,0,.11-.08,.16-.25,.16-.12,0-.21,.04-.25,.12-.56,.63-1.09,1.11-1.6,1.46,.15,.26,.29,.48,.43,.66,.15,.23,.3,.46,.45,.68l.21-.16c.31-.23,.6-.5,.86-.8,.25-.3,.45-.61,.62-.92,.04-.08,.08-.12,.1-.12l.94,.68c.14,.08,.21,.19,.21,.33,0,.1-.08,.14-.25,.14-.14,0-.23,.04-.29,.12-.6,.67-1.17,1.2-1.7,1.6,.16,.19,.33,.37,.49,.53,.63,.64,1.24,1.07,1.83,1.27,0,.11-.05,.18-.16,.23-.38,.34-.67,.62-.86,.82-.04,.07-.14,.1-.29,.1-.68-.46-1.34-1.09-1.97-1.89v.68c0,.21-.08,.31-.23,.31h-5.52c-.16,0-.25-.1-.25-.31v-.53c-.4,.3-.81,.55-1.23,.76-.4,.22-.92,.42-1.56,.59-.18,0-.3-.06-.37-.18-.14-.21-.28-.41-.43-.62-.07-.08-.1-.14-.1-.18,0-.07,.03-.11,.08-.12,.37-.1,.75-.21,1.13-.35,.68-.26,1.26-.59,1.72-1-.25-.26-.5-.5-.76-.72-.34-.29-.63-.49-.86-.62,0-.07,.19-.36,.57-.86,.07-.08,.12-.12,.16-.12,.46,.33,.85,.62,1.15,.88,.22,.22,.41,.42,.57,.59,.11-.12,.21-.25,.31-.39,.3-.41,.55-.89,.74-1.44,.1-.22,.19-.49,.29-.8h-3.47c-.11,0-.16-.08-.16-.23v-.68c0-.15,.05-.23,.16-.23Zm7.38,13.51l1.25,.53c.21,.08,.31,.18,.31,.29,0,.1-.05,.16-.14,.18-.14,0-.23,.07-.27,.21-.33,.96-.66,1.7-1,2.24h2.91c.15,0,.23,.11,.23,.33v.66c0,.23-.08,.35-.23,.35h-11.01c-.16,0-.25-.12-.25-.35v-.66c0-.22,.08-.33,.25-.33h7.26c-.18-.08-.35-.16-.51-.23-.12-.04-.18-.07-.18-.08,0-.04,.01-.1,.04-.16,.33-.48,.57-.91,.72-1.29,.23-.49,.4-.98,.51-1.48,.04-.14,.08-.21,.12-.21Zm-6.48-5.25h7.96c.22,0,.33,.08,.33,.25v4.27c0,.18-.11,.27-.33,.27h-7.96c-.22,0-.33-.09-.33-.27v-4.27c0-.16,.11-.25,.33-.25Zm1.66,5.25c.38,.57,.7,1.1,.94,1.58,.23,.44,.43,.9,.59,1.37,0,.05-.44,.19-1.31,.41-.05-.31-.19-.69-.41-1.13-.22-.52-.52-1.05-.9-1.58,0-.08,.36-.3,1.09-.66Zm5.23-1.72v-2.3h-5.82v2.3h5.82Z"/>
        <path class="cls-1" d="M154.73,76.48v2.3c0,1.04-.22,1.94-.66,2.71-.45,.77-.98,1.26-1.58,1.48l-.82-.82c.38-.15,.73-.44,1.05-.88,.33-.41,.51-.94,.53-1.58h-1.66v-3.2h3.14Z"/>
        <path class="cls-1" d="M171.76,73.93c.16,0,.25,.11,.25,.33v.66c0,.23-.08,.35-.25,.35h-1.48v4.49c.48-.27,.94-.55,1.39-.82,.03-.04,.05-.06,.08-.06,.11,0,.16,.05,.16,.14,0,.7-.03,1.08-.08,1.15-.52,.37-1.04,.71-1.56,1.03v5.95c0,.94-.68,1.42-2.05,1.42h-1.15c-.1,0-.14-.12-.14-.37-.05-.23-.17-.53-.35-.88,0-.11,.05-.16,.16-.16,.49,.11,.93,.16,1.31,.16,.55,0,.82-.21,.82-.64v-4.63c-.36,.22-.71,.42-1.07,.59-.21,.4-.37,.59-.49,.59s-.4-.57-.82-1.72c.67-.23,1.46-.57,2.38-1.03v-5.21h-1.87c-.18,0-.27-.12-.27-.35v-.66c0-.22,.09-.33,.27-.33h1.87v-2.71c0-.4-.01-.7-.04-.9-.03-.16-.04-.3-.04-.41,0-.05,.11-.08,.33-.08l1.58,.23c.15,.08,.23,.14,.23,.18,0,.12-.08,.18-.25,.18-.27,.1-.41,.39-.41,.88v2.62h1.48Zm3.53-1.07l1.56,.86c.05,.12,.08,.19,.08,.21,0,.12-.11,.18-.33,.18-.29,0-.48,.08-.57,.23-.56,1.08-1.1,2.08-1.62,2.99,.37,.37,.74,.77,1.11,1.19,.56-1.08,1.03-2.06,1.42-2.95,.88,.75,1.31,1.16,1.31,1.23,0,.1-.06,.14-.18,.14-.23,0-.38,.07-.43,.21-.89,1.9-1.76,3.66-2.62,5.27,.55-.11,1.18-.24,1.89-.39l.04-.12c.18-.48,.27-1,.29-1.56,0-.07,.04-.1,.12-.1,1.09,.23,1.64,.38,1.64,.43,0,.21-.05,.31-.16,.31-.23,.01-.35,.11-.35,.29-.18,.81-.41,1.58-.7,2.32-.36,.89-.85,1.75-1.5,2.58-.59,.81-1.25,1.48-1.99,2.01-.18,.14-.31,.21-.39,.21-.18,0-.3-.06-.37-.18-.25-.16-.49-.31-.72-.43-.1-.04-.14-.11-.14-.21,0-.04,.03-.09,.1-.14,.62-.31,1.11-.66,1.5-1.03,.64-.6,1.2-1.3,1.66-2.09,.19-.34,.36-.69,.51-1.05l-3.36,1.33c-.33,.33-.52,.49-.57,.49s-.19-.59-.41-1.78c0-.11,.38-.27,1.13-.47,.75-1.33,1.37-2.47,1.87-3.42-.64-.57-1.13-.99-1.48-1.25-.51-.36-1.04-.67-1.6-.94,0-.11,.27-.44,.8-1,.05-.1,.12-.14,.18-.14l.49,.41c.3-.51,.57-1.01,.82-1.52,.46-.92,.79-1.61,.98-2.09Zm3.28-3.53c1.05,0,1.58,.08,1.58,.25,0,.19-.08,.29-.23,.31-.14,.01-.21,.16-.21,.43v1.07h5.68c.15,0,.23,.11,.23,.33v.66c0,.23-.08,.35-.23,.35h-12.41c-.16,0-.25-.12-.25-.35v-.66c0-.22,.08-.33,.25-.33h5.25v-1.8c0-.16,.11-.25,.33-.25Zm1.72,3.61c.98,.52,1.48,.82,1.48,.9,0,.12-.04,.18-.12,.18-.18,.03-.3,.1-.37,.23-.14,.41-.27,.8-.41,1.17h1.33c.18-.25,.31-.44,.39-.59,.25-.41,.45-.91,.62-1.5,.03-.1,.07-.14,.12-.14,1.09,.45,1.64,.7,1.64,.74,0,.07-.08,.12-.25,.16-.16,.03-.29,.12-.37,.29-.16,.34-.34,.69-.53,1.05h1.48c.16,0,.25,.1,.25,.31v.66c0,.22-.08,.33-.25,.33h-1.72v2.38h1.48c.16,0,.25,.11,.25,.33v.66c0,.22-.08,.33-.25,.33h-1.48v2.38h1.48c.16,0,.25,.12,.25,.35v.64c0,.23-.08,.35-.25,.35h-1.48v2.36h1.89c.16,0,.25,.12,.25,.35v.64c0,.22-.08,.33-.25,.33h-4.92v.59c0,.15-.11,.23-.33,.23h-.82c-.16,0-.25-.08-.25-.23v-9.82c-.18,.25-.37,.51-.57,.78-.14,0-.26-.05-.37-.16-.18-.16-.36-.33-.55-.51-.08-.07-.12-.14-.12-.23,.3-.42,.62-.86,.96-1.31,.41-.62,.77-1.31,1.09-2.07,.27-.66,.49-1.31,.64-1.95,.03-.11,.05-.16,.08-.16Zm1.89,6.15v-2.38h-1.64v2.38h1.64Zm0,3.69v-2.38h-1.64v2.38h1.64Zm-1.64,3.69h1.64v-2.36h-1.64v2.36Z"/>
        <path class="cls-1" d="M190.18,72.21h6.32c.27-.68,.55-1.45,.82-2.3,.1-.16,.21-.25,.33-.25l1.64,.59c.16,.12,.25,.23,.25,.31,0,.16-.08,.28-.25,.35-.37,0-.59,.12-.66,.37-.14,.33-.27,.64-.41,.92h10.09c.16,0,.25,.11,.25,.33v.66c0,.23-.08,.35-.25,.35h-10.71c-.42,.83-.81,1.52-1.15,2.05-.07,.11-.14,.21-.21,.31h9.76c.27,0,.41,.12,.41,.35v11.05c0,.46-.35,.83-1.05,1.09-.66,.19-1.51,.32-2.56,.39-.15,0-.23-.08-.25-.23-.03-.3-.19-.75-.49-1.33,0-.05,.07-.08,.21-.08,1.29,0,2.04-.05,2.26-.14,.27-.1,.41-.27,.41-.51v-1.46h-8.86v3.45c0,.15-.11,.23-.33,.23h-.82c-.22,0-.33-.08-.33-.23v-10.32c-.14,.16-.27,.32-.39,.47-.79,.85-1.65,1.61-2.56,2.28-.19,0-.36-.02-.49-.06-.3-.14-.6-.26-.9-.37-.1-.05-.14-.1-.14-.14,0-.11,.05-.19,.16-.25,1.41-1.01,2.66-2.24,3.75-3.67,.67-.83,1.24-1.72,1.72-2.67l.12-.21h-5.7c-.16,0-.25-.12-.25-.35v-.66c0-.22,.08-.33,.25-.33Zm5.91,7.57h8.86v-2.48h-8.86v2.48Zm0,3.92h8.86v-2.62h-8.86v2.62Z"/>
        <path class="cls-1" d="M216.23,69.5c1.26,.62,1.89,.97,1.89,1.07,0,.15-.05,.23-.16,.23-.25,.03-.41,.12-.49,.29-.33,1.13-.66,2.13-.98,2.97v14.33c0,.15-.11,.23-.33,.23h-.82c-.22,0-.33-.08-.33-.23v-11.28c-.34,.57-.78,1.26-1.31,2.07-.16,0-.31-.07-.45-.21-.22-.19-.45-.38-.7-.57-.11-.08-.16-.18-.16-.29,.45-.66,.9-1.36,1.35-2.11,.59-.96,1.1-2.03,1.54-3.22,.38-1.07,.68-2.11,.88-3.12,.01-.11,.04-.16,.08-.16Zm5.91,9.76l1.13,.12c.12,.03,.18,.07,.18,.12,0,.12-.03,.2-.1,.23-.1,.01-.14,.08-.14,.18v1.15c0,.49,.27,.74,.82,.74h2.21c.45,0,.72-.07,.82-.21,.12-.1,.26-.52,.41-1.27,.14,.22,.37,.42,.7,.59,.14,.05,.21,.13,.21,.23-.23,.88-.41,1.35-.53,1.44-.12,.19-.38,.29-.78,.29h-3.12c-.21,0-.39,0-.55-.02-.25,.29-.49,.54-.74,.76h6.79c.12,0,.22,.03,.29,.1,.25,.26,.37,.42,.37,.49-.48,.63-.93,1.11-1.35,1.44-.52,.44-1.05,.8-1.58,1.09-.21,.11-.43,.22-.68,.33,.36,.1,.72,.17,1.11,.23,.83,.19,2.27,.29,4.31,.29,0,.07-.04,.18-.12,.35-.11,.25-.2,.47-.27,.68-.03,.12-.09,.18-.18,.18-1.34,0-2.69-.14-4.04-.43-.89-.16-1.7-.4-2.42-.7-.83,.25-1.74,.46-2.71,.64-.75,.16-1.72,.3-2.89,.41-.15,0-.26-.05-.33-.14-.12-.23-.25-.45-.39-.66-.05-.07-.08-.13-.08-.18,0-.03,.05-.05,.14-.06,.74-.05,1.46-.14,2.17-.25,1.03-.14,1.91-.3,2.67-.49-.29-.18-.55-.38-.78-.59-.45-.33-.91-.84-1.37-1.54-.11,.1-.22,.18-.33,.25-.44,.3-.88,.59-1.33,.86-.46,.23-.83,.4-1.11,.51-.11,0-.2-.05-.27-.14-.12-.22-.28-.42-.47-.59-.11-.07-.16-.12-.16-.16,0-.01,.03-.03,.08-.06,.63-.22,1.15-.44,1.56-.66,.57-.3,1.15-.68,1.72-1.15,.38-.3,.7-.59,.94-.88,.12-.12,.23-.25,.33-.39-.14-.18-.21-.39-.21-.64v-2.3c0-.11,.03-.16,.08-.16Zm-3.36-9.02h12.39c.11,0,.16,.08,.16,.25v.51c0,.15-.05,.23-.16,.23h-5.66c-.22,.37-.44,.72-.66,1.07h4.35c.22,0,.33,.08,.33,.25v5.35h1.89c.22,0,.33,.08,.33,.23v2.13c0,.18-.11,.27-.33,.27h-.82c-.16,0-.25-.09-.25-.27v-1.46h-10.91v1.54c0,.18-.11,.27-.33,.27h-.82c-.16,0-.25-.09-.25-.27v-2.28c0-.11,.08-.16,.25-.16h1.89v-5.43c0-.11,.08-.16,.25-.16h2.79c.22-.25,.4-.46,.55-.66,.1-.12,.18-.26,.27-.41h-5.25c-.11,0-.16-.08-.16-.23v-.51c0-.16,.05-.25,.16-.25Zm1.56,9.76l.98,.41c.16,.08,.25,.17,.25,.27,0,.07-.05,.12-.16,.14-.14,0-.23,.05-.27,.16-.38,.86-.77,1.52-1.17,1.97-.08,.12-.15,.18-.21,.18-.07,0-.16-.05-.29-.14-.23-.1-.44-.19-.64-.29-.1-.03-.14-.05-.14-.08s.02-.06,.06-.1c.37-.42,.65-.79,.84-1.09,.26-.42,.46-.84,.62-1.25,.04-.12,.08-.18,.12-.18Zm1.23-5.82h6.56v-.98h-6.56v.98Zm0,1.8h6.56v-.9h-6.56v.9Zm0,1.91h6.56v-1h-6.56v1Zm.78,6.71c.27,.37,.55,.67,.84,.9,.51,.41,1.06,.75,1.66,1,.57-.19,1.08-.39,1.52-.59,.57-.29,1.05-.61,1.44-.96,.12-.11,.25-.23,.37-.35h-5.82Zm2.58-5.33c.42,.22,.76,.42,1,.62,.31,.22,.58,.43,.8,.64,0,.01-.03,.05-.08,.1-.31,.41-.48,.62-.49,.62-.33-.29-.68-.56-1.05-.82-.3-.19-.55-.33-.76-.41,0-.05,.15-.27,.45-.64,.05-.07,.1-.1,.12-.1Zm4.76,.82c.38,.38,.68,.73,.9,1.05,.23,.3,.42,.61,.57,.92,0,.04-.36,.16-1.07,.35-.05-.22-.19-.46-.41-.74-.22-.34-.52-.67-.9-.98,0-.08,.3-.28,.9-.59Z"/>
        <path class="cls-1" d="M244.42,70.82c-.08,0-.16,0-.23,.02-.64,.27-1.36,.47-2.15,.59-.88,.12-1.78,.19-2.71,.21v1.23h5.91c.11,0,.16,.08,.16,.25v.66c0,.22-.05,.33-.16,.33h-1.97v2.15c0,.15-.11,.23-.33,.23h-.82c-.22,0-.33-.08-.33-.23v-2.15h-2.54c-.05,.37-.14,.68-.27,.92-.15,.44-.44,.88-.88,1.31-.23,.25-.56,.49-.98,.74-.1,0-.16-.01-.21-.04-.23-.21-.49-.38-.78-.53-.05-.07-.08-.15-.08-.25,.38-.21,.72-.46,1.03-.78,.31-.34,.53-.7,.66-1.07,.14-.4,.21-.88,.21-1.46v-2.13c0-.22,.08-.33,.25-.33h.33c1.24-.01,2.21-.07,2.91-.16,.85-.1,1.61-.29,2.3-.59,.08-.04,.15-.06,.21-.06,.07,0,.14,.03,.23,.1,.62,.49,.92,.81,.92,.96,0,.23-.05,.35-.16,.35l-.49-.27Zm-5.33,6.15h12.71c.22,0,.33,.08,.33,.25v8.63c0,.15-.11,.23-.33,.23h-2.58c.64,.31,1.25,.58,1.83,.8,.68,.23,1.65,.49,2.89,.76,.16,.07,.25,.12,.25,.16,0,.12-.3,.48-.9,1.07-.05,0-.16-.01-.31-.04-2.38-.72-4.13-1.4-5.25-2.03-.12-.07-.18-.11-.18-.12,0-.11,.15-.31,.45-.59h-4.59c.53,.48,.8,.75,.8,.82,0,.1-.08,.14-.25,.14-.26,0-.4,.03-.43,.1-1.85,.67-3.79,1.22-5.82,1.64-.15,0-.25-.06-.31-.18-.1-.19-.25-.37-.47-.53-.08-.1-.12-.18-.12-.27,0-.05,.08-.1,.23-.12,1.07-.22,1.98-.45,2.73-.7,.81-.25,1.61-.55,2.4-.9h-3.06c-.22,0-.33-.08-.33-.23v-8.63c0-.16,.11-.25,.33-.25Zm1.15,2.62h10.42v-1.39h-10.42v1.39Zm0,2.62h10.42v-1.39h-10.42v1.39Zm10.42,2.62v-1.39h-10.42v1.39h10.42Zm2.46-14.03c-.08,0-.16,0-.25,.02-.68,.27-1.44,.47-2.28,.59-.94,.12-1.91,.19-2.89,.21v1.23h6.99c.1,0,.14,.08,.14,.25v.66c0,.22-.05,.33-.14,.33h-2.89v2.15c0,.15-.11,.23-.33,.23h-.82c-.22,0-.33-.08-.33-.23v-2.15h-2.71c-.04,.3-.1,.55-.16,.76-.11,.41-.31,.81-.62,1.19-.18,.23-.41,.46-.7,.68-.1,0-.16-.01-.21-.04-.23-.19-.49-.36-.76-.51-.07-.07-.1-.16-.1-.27,.25-.16,.46-.4,.66-.7,.22-.3,.36-.62,.43-.96,.1-.34,.14-.77,.14-1.29v-2.13c0-.22,.08-.33,.25-.33h.33c1.31-.01,2.34-.07,3.1-.16,.9-.1,1.71-.29,2.42-.59,.08-.04,.16-.06,.23-.06s.14,.03,.23,.1c.62,.49,.92,.81,.92,.96,0,.23-.05,.35-.16,.35l-.49-.27Z"/>
        <path class="cls-1" d="M259.48,72.21h6.32c.27-.68,.55-1.45,.82-2.3,.1-.16,.21-.25,.33-.25l1.64,.59c.16,.12,.25,.23,.25,.31,0,.16-.08,.28-.25,.35-.37,0-.59,.12-.66,.37-.14,.33-.27,.64-.41,.92h10.09c.16,0,.25,.11,.25,.33v.66c0,.23-.08,.35-.25,.35h-10.71c-.42,.83-.81,1.52-1.15,2.05-.07,.11-.14,.21-.21,.31h9.76c.27,0,.41,.12,.41,.35v11.05c0,.46-.35,.83-1.05,1.09-.66,.19-1.51,.32-2.56,.39-.15,0-.23-.08-.25-.23-.03-.3-.19-.75-.49-1.33,0-.05,.07-.08,.21-.08,1.29,0,2.04-.05,2.26-.14,.27-.1,.41-.27,.41-.51v-1.46h-8.86v3.45c0,.15-.11,.23-.33,.23h-.82c-.22,0-.33-.08-.33-.23v-10.32c-.14,.16-.27,.32-.39,.47-.79,.85-1.65,1.61-2.56,2.28-.19,0-.36-.02-.49-.06-.3-.14-.6-.26-.9-.37-.1-.05-.14-.1-.14-.14,0-.11,.05-.19,.16-.25,1.41-1.01,2.66-2.24,3.75-3.67,.67-.83,1.24-1.72,1.72-2.67l.12-.21h-5.7c-.16,0-.25-.12-.25-.35v-.66c0-.22,.08-.33,.25-.33Zm5.91,7.57h8.86v-2.48h-8.86v2.48Zm0,3.92h8.86v-2.62h-8.86v2.62Z"/>
        <path class="cls-1" d="M284.96,74.59l1.15,.88c.11,.11,.16,.2,.16,.27s-.04,.11-.12,.12c-.14,.03-.23,.08-.29,.16-.31,.66-.65,1.24-1,1.76-.44,.6-.98,1.2-1.62,1.8-.18,0-.29-.05-.33-.16-.3-.21-.55-.4-.74-.57-.11-.04-.16-.1-.16-.16,0-.04,.02-.08,.06-.12,.31-.18,.57-.38,.78-.59,.42-.45,.79-.95,1.11-1.5,.29-.46,.59-1.04,.9-1.72,.03-.11,.06-.16,.1-.16Zm3.86,2.95c1.2,.42,1.8,.7,1.8,.82,0,.11-.08,.19-.23,.25-.22,0-.38,.11-.47,.33-.36,1.15-.75,2.2-1.19,3.16,.33,.45,.64,.92,.92,1.42,.52,.78,.96,1.59,1.33,2.42,.03,.08,.04,.16,.04,.23,0,.08-.33,.33-.98,.74-.05,0-.11-.03-.16-.1-.59-1.26-1.21-2.35-1.87-3.28-.44,.75-.9,1.42-1.37,2.01-.86,1.04-1.91,2-3.14,2.87-.12,.05-.24,.08-.35,.08-.15,0-.27-.09-.37-.27-.15-.21-.32-.38-.51-.53-.12-.07-.18-.16-.18-.29,0-.05,.05-.1,.14-.14,.46-.18,.92-.46,1.37-.86,.77-.56,1.45-1.22,2.05-1.99,.51-.6,.97-1.33,1.39-2.19l-.45-.49c-.62-.64-1.27-1.29-1.97-1.93-.05-.08-.08-.14-.08-.18,0-.05,.23-.35,.7-.88,.08-.07,.18-.1,.29-.1,.57,.48,1.18,1.07,1.8,1.76,.11,.14,.22,.27,.33,.39,.38-.92,.68-1.91,.88-2.99,.03-.15,.12-.23,.27-.23Zm-1.8-8.04c1.04,0,1.56,.08,1.56,.25,0,.19-.07,.3-.21,.33-.14,.01-.21,.15-.21,.41v1.97h3.86c.16,0,.25,.12,.25,.35v.64c0,.22-.08,.33-.25,.33h-9.6c-.16,0-.25-.11-.25-.33v-.64c0-.23,.08-.35,.25-.35h4.27v-2.71c0-.16,.11-.25,.33-.25Zm2.38,5.02c.68,.68,1.24,1.33,1.66,1.93,.51,.74,.94,1.4,1.29,1.99,0,.03-.03,.08-.1,.16-.4,.6-.61,.9-.64,.9-.55-.94-1.13-1.8-1.76-2.58-.51-.64-.93-1.09-1.27-1.35,0-.07,.21-.38,.64-.92,.07-.08,.13-.12,.18-.12Zm5.58-4.94l1.42,.55c.15,.11,.23,.2,.23,.27,0,.12-.05,.21-.16,.25-.15,0-.25,.09-.29,.27-.21,.74-.4,1.37-.57,1.89h5.46c.16,0,.25,.1,.25,.31v.66c0,.22-.08,.33-.25,.33h-1.17c-.08,2.72-.27,4.72-.57,5.99-.38,1.67-.9,3.07-1.56,4.2,.49,.71,1,1.29,1.52,1.72,.67,.62,1.46,1.1,2.36,1.46,0,.14-.07,.24-.21,.31-.26,.26-.51,.53-.76,.82-.12,.12-.21,.18-.27,.18-1.22-.74-2.01-1.31-2.38-1.72-.46-.4-.88-.88-1.25-1.46-.42,.48-.89,.91-1.39,1.29-.79,.66-1.83,1.26-3.1,1.8-.37-.38-.7-.73-.98-1.05,.67-.23,1.46-.68,2.36-1.33,.92-.64,1.67-1.35,2.28-2.11-.25-.45-.46-.94-.66-1.46-.37-.86-.67-1.93-.9-3.2-.18-1.01-.27-2.19-.29-3.53-.29,.44-.59,.83-.9,1.19-.18,0-.33-.02-.45-.06-.26-.1-.53-.2-.82-.31-.08-.04-.12-.08-.12-.12,0-.07,.02-.12,.06-.16,.6-.67,1.13-1.49,1.6-2.46,.29-.56,.53-1.16,.74-1.78,.23-.67,.46-1.52,.68-2.56,.04-.11,.08-.16,.12-.16Zm-.76,6.23h1.25c.01,1.3,.11,2.45,.29,3.47,.19,.97,.45,1.88,.78,2.73,.1,.23,.19,.46,.29,.68,.44-.9,.77-1.87,.98-2.89,.33-1.27,.53-3.17,.62-5.7h-3.34c-.26,.57-.53,1.12-.8,1.64-.03,.03-.05,.05-.06,.08Z"/>
        <path class="cls-1" d="M305.62,74.84c.67,.37,1.22,.7,1.64,1,.51,.4,.94,.75,1.29,1.05,0,.03-.03,.1-.1,.21-.45,.64-.69,.96-.72,.96-.55-.52-1.12-.99-1.72-1.42-.49-.36-.9-.6-1.23-.74,0-.07,.21-.38,.64-.92,.07-.1,.14-.14,.21-.14Zm3.42,4.43c.07,0,.12,.05,.14,.16,.34,.78,.51,1.2,.51,1.25,0,.1-.03,.18-.1,.27-.59,1.52-1.15,2.8-1.68,3.86-.29,.6-.64,1.26-1.05,1.99-.08,.18-.12,.4-.12,.68,0,.16-.05,.25-.16,.25s-.55-.44-1.33-1.31c-.07-.04-.12-.12-.14-.25,0-.11,.03-.2,.08-.27,.38-.38,.75-.86,1.11-1.44,.52-.78,1.03-1.66,1.52-2.65,.44-.86,.81-1.65,1.11-2.38,.04-.11,.08-.16,.12-.16Zm-1.48-9.35c.7,.37,1.27,.71,1.72,1.03,.52,.37,.96,.71,1.31,1.03,0,.03-.04,.09-.12,.18-.45,.64-.68,.96-.7,.96-.56-.51-1.16-.97-1.78-1.39-.51-.34-.92-.58-1.25-.72,0-.1,.22-.4,.66-.92,.07-.11,.12-.16,.16-.16Zm8.55-.41c1.03,0,1.54,.08,1.54,.25,0,.19-.07,.3-.21,.33-.14,.01-.21,.15-.21,.41v.43h5.5c.11,0,.16,.08,.16,.23v.49c0,.22-.05,.33-.16,.33h-5.5v.98h6.4c.23,0,.35,.08,.35,.25v2.07c0,.15-.11,.23-.34,.23h-.81c-.16,0-.24-.08-.24-.23v-1.17h-6.34v1.13l4.92-.55c.12,0,.18,.08,.18,.25v.51c0,.21-.06,.31-.18,.31l-4.92,.55c.03,.4,.33,.59,.9,.59h3.69c.34,0,.58-.05,.72-.14,.15-.07,.25-.29,.31-.68,.01-.05,.05-.08,.12-.08,.31,.19,.64,.29,.98,.31,.16,.01,.25,.08,.25,.18-.19,.62-.43,1.03-.72,1.25-.21,.16-.54,.25-1,.25h-4.92c-.98,0-1.48-.36-1.48-1.09v-.47l-2.05,.23c-.11,0-.16-.1-.16-.31v-.51c0-.16,.05-.25,.16-.25l2.05-.21v-1.27h-3.04v4.51c0,2.05-.14,3.68-.43,4.88-.18,1-.53,2-1.07,2.99-.29,.6-.69,1.18-1.21,1.72-.1,0-.16-.01-.21-.04-.23-.19-.49-.36-.76-.51-.07-.07-.1-.16-.1-.27,.48-.49,.91-1.18,1.29-2.05,.4-.92,.67-1.87,.82-2.87,.18-1.05,.27-2.34,.27-3.86v-5.41c0-.16,.08-.25,.25-.25h4.84v-3.2c0-.16,.12-.25,.35-.25Zm-3.22,15.18l1.05,.41c.18,.08,.27,.16,.27,.25,0,.1-.04,.16-.12,.21-.11,0-.18,.08-.21,.23-.31,1.03-.62,1.83-.9,2.42-.07,.14-.12,.21-.16,.21-.08,0-.18-.05-.31-.14-.25-.1-.48-.19-.7-.29-.1-.03-.14-.05-.14-.08s.01-.07,.04-.12c.29-.52,.5-.97,.64-1.35,.21-.51,.36-1,.45-1.5,.03-.15,.06-.23,.1-.23Zm.82-5.89h8.86c.22,0,.33,.08,.33,.23v4.51c0,.16-.11,.25-.33,.25h-8.86c-.22,0-.33-.08-.33-.25v-4.51c0-.15,.11-.23,.33-.23Zm1.07,1.95h2.62v-.9h-2.62v.9Zm2.62,1.97v-.9h-2.62v.9h2.62Zm-2.3,1.56c.93,.08,1.39,.19,1.39,.33,0,.08-.08,.2-.25,.35v2.03c0,.16,.05,.25,.16,.25h3.77c.29,0,.56-.41,.82-1.23l1.23,.76c-.46,1.2-1.04,1.8-1.72,1.8h-4.59c-.71,0-1.07-.3-1.07-.9v-3.14c0-.16,.08-.25,.25-.25Zm3.04-.14s.07,.01,.12,.04c.49,.29,1,.66,1.54,1.13,.04,.03,.06,.07,.06,.12,0,.07-.02,.12-.06,.16l-.37,.49c-.11,.05-.21,.08-.31,.08-.03,0-.08-.03-.14-.08-.46-.38-.92-.7-1.37-.94-.08-.03-.12-.06-.12-.1,0-.07,.01-.14,.04-.23l.43-.62c.07-.04,.13-.06,.18-.06Zm.66-4.29v.9h2.71v-.9h-2.71Zm2.71,2.87v-.9h-2.71v.9h2.71Zm.66,1.72c.51,.36,.92,.68,1.25,.96,.38,.38,.7,.72,.96,1,0,.01-.03,.06-.08,.14-.37,.51-.56,.76-.57,.76-.41-.48-.85-.91-1.33-1.29-.38-.31-.7-.54-.96-.68,0-.05,.19-.31,.57-.78,.05-.08,.11-.12,.16-.12Z"/>
        <path class="cls-1" d="M330.5,71.55v16.92c0,.15-.11,.23-.33,.23h-.82c-.22,0-.33-.08-.33-.23v-17.9c0-.22,.11-.33,.33-.33h4.76c.36,0,.58,.05,.68,.16,.31,.33,.47,.6,.47,.82l-2.11,4.96c-.01,.08-.02,.15-.02,.21,0,.07,.03,.14,.1,.21,.7,.94,1.22,1.87,1.58,2.79,.3,.9,.45,1.76,.45,2.58,0,1.22-.22,2.11-.66,2.69-.51,.74-1.33,1.11-2.46,1.11-.62,0-.94-.14-.96-.43-.05-.3-.14-.66-.27-1.07,0-.22,.03-.33,.08-.33l1.15,.18c.67,0,1.09-.21,1.25-.62,.15-.4,.23-.96,.23-1.7s-.17-1.48-.51-2.32c-.37-.96-.92-1.87-1.66-2.73-.07-.08-.1-.15-.1-.21,0-.04,.03-.14,.08-.29l2.09-4.72h-3.01Zm7.05,11.32l1.09,.8c.1,.1,.14,.18,.14,.27s-.05,.12-.14,.12c-.14,.03-.24,.09-.31,.18-.38,.63-.78,1.2-1.19,1.7-.51,.59-1.13,1.18-1.89,1.76-.15,0-.25-.05-.31-.14-.27-.23-.51-.43-.7-.59-.1-.04-.14-.09-.14-.14,0-.04,.03-.08,.08-.12,.36-.18,.65-.38,.88-.59,.51-.44,.94-.92,1.31-1.44,.33-.44,.68-.99,1.05-1.66,.05-.1,.1-.14,.12-.14Zm3.12-13.29l1.52,.74c.14,.1,.21,.18,.21,.25,0,.16-.14,.25-.41,.25-.08,0-.16,0-.25,.02,.36,.55,.72,1.03,1.11,1.46,.53,.57,1.07,1.05,1.62,1.42,.74,.55,1.63,.99,2.67,1.33,.12,.03,.18,.07,.18,.12,0,.11-.03,.2-.1,.27-.31,.23-.59,.48-.84,.74-.07,.11-.14,.16-.21,.16-.79-.31-1.45-.66-1.97-1.03-.72-.45-1.39-1.01-1.99-1.68-.41-.45-.85-1.01-1.33-1.68-.31,.49-.63,.92-.94,1.27-.34,.48-.77,.98-1.27,1.5s-1.01,.98-1.52,1.39c-.51,.4-.92,.68-1.23,.86-.12,0-.23-.06-.33-.18-.16-.29-.36-.54-.59-.76-.15-.08-.23-.15-.23-.21,0-.03,.03-.06,.1-.1,.7-.36,1.28-.71,1.74-1.07,.66-.48,1.31-1.09,1.95-1.85,.44-.49,.79-.96,1.05-1.42,.3-.49,.58-1.03,.84-1.62,.08-.12,.16-.18,.23-.18Zm-2.95,6.32h7.05c.16,0,.25,.12,.25,.35v.64c0,.22-.08,.33-.25,.33h-2.79v3.04h4.68c.16,0,.25,.12,.25,.35v.64c0,.23-.08,.35-.25,.35h-4.68v5.56c0,1.04-.85,1.56-2.54,1.56h-.98c-.08,0-.12-.13-.12-.39-.04-.3-.16-.66-.37-1.09v-.08c.49,.11,.96,.16,1.39,.16,.77,0,1.15-.25,1.15-.74v-4.98h-4.43c-.16,0-.25-.12-.25-.35v-.64c0-.23,.08-.35,.25-.35h4.43v-3.04h-2.79c-.16,0-.25-.11-.25-.33v-.64c0-.23,.08-.35,.25-.35Zm6.48,6.89c.67,.67,1.22,1.29,1.66,1.85,.51,.71,.94,1.35,1.29,1.93,0,.03-.04,.1-.12,.21-.44,.63-.67,.94-.7,.94-.53-.93-1.11-1.77-1.72-2.52-.49-.63-.9-1.07-1.23-1.33,0-.07,.21-.38,.64-.92,.07-.1,.13-.14,.18-.14Z"/>
        <path class="cls-1" d="M351.88,72.05h7.38c.16,0,.25,.11,.25,.33v.66c0,.22-.08,.33-.25,.33h-2.87v9.13c.97-.29,1.91-.57,2.83-.86,.04-.03,.08-.04,.12-.04,.11,0,.16,.08,.16,.23,0,.75-.03,1.16-.08,1.23-2.27,.71-4.57,1.35-6.89,1.91-.23,.37-.42,.55-.57,.55-.14,0-.41-.6-.82-1.8,1.05-.16,2.31-.44,3.77-.82v-9.52h-3.04c-.16,0-.25-.11-.25-.33v-.66c0-.22,.08-.33,.25-.33Zm8.2,1.8h3.42c.01-.77,.02-1.59,.02-2.46,0-.31-.03-.89-.08-1.72,0-.11,.11-.16,.33-.16l1.58,.18c.21,.05,.31,.13,.31,.23,0,.18-.07,.29-.21,.35-.25,.07-.37,.23-.37,.47,0,1.12-.01,2.16-.04,3.12h4.88c.18,0,.27,.11,.27,.33-.04,3.86-.14,6.62-.31,8.31-.18,2.01-.43,3.51-.76,4.49-.29,1.05-1.09,1.58-2.4,1.58-1.03,0-1.55-.14-1.58-.43-.07-.31-.28-.7-.64-1.15v-.14c.81,.1,1.54,.14,2.21,.14s1.09-.37,1.27-1.11c.22-.62,.4-1.8,.53-3.55,.15-1.44,.25-3.82,.31-7.16h-3.83c-.1,2-.25,3.58-.47,4.76-.37,2.12-1.03,3.97-1.99,5.56-.66,1.11-1.46,2.13-2.42,3.08h-.37c-.48-.16-.94-.33-1.37-.49-.07-.05-.1-.14-.1-.27,1.18-.94,2.12-1.97,2.83-3.08,.77-1.11,1.34-2.52,1.72-4.25,.31-1.2,.53-2.97,.64-5.31h-3.38c-.16,0-.25-.11-.25-.33v-.66c0-.22,.08-.33,.25-.33Z"/>
        <path class="cls-1" d="M378.43,69.42c1.31,.42,1.97,.7,1.97,.82,0,.15-.1,.23-.29,.23s-.29,.06-.29,.18c-.4,.74-.91,1.56-1.54,2.46-.19,.31-.39,.61-.59,.88,1.59-.15,3.19-.35,4.8-.59-.22-.62-.48-1.23-.78-1.85,0-.08,.36-.29,1.09-.64,.44,.96,.8,1.84,1.09,2.65,.27,.72,.51,1.5,.7,2.34,0,.05-.44,.2-1.31,.43-.05-.45-.17-.98-.35-1.6-2.06,.33-4.34,.63-6.83,.9-.11,0-.21,.06-.29,.18-.05,.23-.16,.35-.33,.35s-.52-.64-1.07-1.91l1.64-.12c.6-.96,1.16-1.96,1.66-2.99,.25-.56,.44-1.11,.57-1.64,.01-.05,.06-.08,.14-.08Zm-2.3,7.46h7.05c.27,0,.41,.11,.41,.33v9.99c0,.42-.28,.75-.84,.98-.51,.18-1.18,.3-2.03,.37-.15,0-.24-.09-.27-.27-.01-.29-.17-.72-.47-1.31,0-.04,.06-.06,.18-.06,.93,0,1.48-.05,1.64-.14,.21-.08,.31-.23,.31-.45v-1.37h-4.84v3.45c0,.15-.11,.23-.33,.23h-.82c-.22,0-.33-.08-.33-.23v-11.18c0-.22,.11-.33,.33-.33Zm1.15,3.36h4.84v-2.05h-4.84v2.05Zm0,3.36h4.84v-2.03h-4.84v2.03Zm15.42-11.32s-.05,.01-.08,.04c-.44,.3-.93,.58-1.48,.84-.64,.31-1.34,.59-2.09,.82-.51,.16-1.15,.33-1.93,.51v1.48c0,.6,.38,.9,1.15,.9h2.21c.79,0,1.26-.1,1.42-.29,.19-.15,.43-.74,.72-1.76,.18,.29,.47,.55,.88,.78,.18,.07,.27,.16,.27,.29-.4,1.19-.7,1.85-.9,1.99-.19,.26-.63,.39-1.31,.39h-3.45c-1.64,0-2.46-.49-2.46-1.48v-7.05c0-.16,.05-.25,.16-.25l1.39,.18c.16,.03,.25,.08,.25,.14,0,.15-.04,.24-.12,.27-.14,.01-.21,.09-.21,.23v2.85c.64-.15,1.23-.31,1.76-.49,.71-.25,1.37-.55,1.99-.92,.46-.27,.88-.58,1.23-.92,.04-.01,.08-.02,.1-.02,.07,0,.15,.07,.25,.21,.6,.74,.9,1.13,.9,1.19,0,.11-.05,.16-.16,.16l-.49-.08Zm.25,9.84s-.08,0-.1,.02c-.45,.3-.96,.57-1.52,.82-.67,.31-1.39,.58-2.17,.8-.53,.16-1.21,.33-2.03,.49v1.8c0,.6,.38,.9,1.15,.9h2.21c.79,0,1.26-.1,1.42-.29,.19-.18,.43-.82,.72-1.93,.18,.29,.47,.55,.88,.78,.18,.07,.27,.17,.27,.31-.4,1.26-.7,1.96-.9,2.08-.19,.3-.63,.44-1.31,.44h-3.45c-1.64,0-2.46-.49-2.46-1.48v-7.46c0-.16,.05-.25,.16-.25l1.39,.18c.16,.01,.25,.06,.25,.14,0,.15-.04,.24-.12,.27-.14,.01-.21,.09-.21,.23v2.93c.68-.15,1.31-.31,1.89-.47,.72-.25,1.41-.54,2.05-.88,.48-.27,.91-.57,1.29-.9h.1c.08,0,.16,.06,.23,.18,.62,.74,.92,1.13,.92,1.19,0,.11-.05,.16-.16,.16l-.49-.08Z"/>
        <path class="cls-1" d="M408.83,76.48v2.3c0,1.04-.22,1.94-.66,2.71-.45,.77-.98,1.26-1.58,1.48l-.82-.82c.38-.15,.73-.44,1.05-.88,.33-.41,.51-.94,.53-1.58h-1.66v-3.2h3.14Z"/>
        <path class="cls-1" d="M4.27,106.73H22.15c.16,0,.25,.12,.25,.35v.64c0,.22-.08,.33-.25,.33h-2.13v14.93c0,1.05-.85,1.58-2.54,1.58h-1.64c-.1,0-.14-.14-.14-.41-.01-.3-.13-.66-.35-1.09v-.08c.71,.11,1.39,.16,2.05,.16,.77,0,1.15-.25,1.15-.74v-14.36H4.27c-.16,0-.25-.11-.25-.33v-.64c0-.23,.08-.35,.25-.35Zm3.04,4.53h7.05c.23,0,.35,.08,.35,.23v8.29c0,.18-.12,.27-.35,.27h-.82c-.22,0-.33-.09-.33-.27v-1.07h-4.76v1.64c0,.16-.11,.25-.33,.25h-.82c-.22,0-.33-.08-.33-.25v-8.78c0-.21,.11-.31,.33-.31Zm1.15,6.15h4.76v-4.86h-4.76v4.86Z"/>
        <path class="cls-1" d="M27.37,106.41h5.91c.22,0,.33,.08,.33,.25v5.25c0,.23-.11,.35-.33,.35h-3.98c-.11,.89-.25,1.71-.41,2.46-.05,.25-.11,.49-.16,.72h4.8c.16,0,.25,.12,.25,.35-.03,2.41-.13,4.14-.31,5.21-.21,1.26-.49,2.19-.84,2.81-.34,.66-1.24,.98-2.69,.98-1,0-1.51-.16-1.54-.47-.07-.34-.27-.76-.62-1.25v-.16c.77,.22,1.48,.33,2.15,.33,.78,0,1.28-.23,1.5-.68,.26-.36,.47-1.05,.64-2.09,.16-.77,.27-2,.33-3.71h-4l-.16,.62c-.05,.15-.1,.23-.12,.23-.12,0-.24-.02-.35-.06-.3-.05-.62-.12-.96-.21-.11-.03-.16-.08-.16-.16,.26-.74,.43-1.3,.51-1.68,.21-.66,.38-1.39,.51-2.19,.16-.86,.28-1.75,.35-2.67,0-.18,.06-.27,.18-.27,.82,.36,1.23,.55,1.23,.57h2.71v-3.2h-4.76c-.16,0-.25-.11-.25-.33v-.66c0-.22,.08-.33,.25-.33Zm11.32-.98c1.31,.42,1.97,.7,1.97,.82,0,.15-.1,.23-.29,.23s-.29,.06-.29,.18c-.41,.81-.94,1.71-1.58,2.71-.23,.38-.46,.75-.7,1.09,1.9-.16,3.8-.37,5.7-.62-.26-.49-.55-.98-.88-1.46,0-.1,.38-.34,1.15-.74,.57,.92,1.05,1.76,1.42,2.52,.36,.7,.65,1.44,.88,2.24,0,.05-.46,.19-1.39,.41-.1-.46-.28-1.03-.55-1.68-1.03,.15-2.1,.29-3.22,.43v2.07h3.77c.22,0,.33,.09,.33,.27v5.56c0,.16-.11,.25-.33,.25h-.82c-.22,0-.33-.08-.33-.25v-.41h-2.62v3.26c.79-.1,1.57-.2,2.32-.31-.23-.33-.49-.65-.76-.96,0-.12,.38-.38,1.15-.76,.63,.81,1.13,1.54,1.52,2.21,.38,.62,.7,1.28,.94,1.99,0,.04-.46,.17-1.39,.39-.11-.45-.33-.99-.68-1.62-.01-.03-.03-.05-.04-.06-2.68,.36-5.39,.67-8.14,.94-.19,.38-.36,.57-.49,.57s-.41-.57-.82-1.72c1.26-.08,2.77-.24,4.53-.47,.14-.01,.27-.03,.39-.04v-3.42h-2.71v.9c0,.18-.11,.27-.33,.27h-.82c-.22,0-.33-.09-.33-.27v-5.97c0-.23,.11-.35,.33-.35h3.86v-1.91c-1.05,.11-2.14,.21-3.26,.31-.15,0-.27,.08-.35,.23-.05,.21-.16,.31-.33,.31-.15,0-.51-.63-1.07-1.89,.6-.03,1.2-.06,1.78-.1,.63-1.05,1.21-2.15,1.74-3.3,.25-.6,.44-1.18,.59-1.74,0-.07,.05-.1,.14-.1Zm-1.97,12.3h2.71v-2.77h-2.71v2.77Zm4.18-2.77v2.77h2.62v-2.77h-2.62Z"/>
        <path class="cls-1" d="M52.85,110.59l1.15,.88c.11,.11,.16,.2,.16,.27s-.04,.11-.12,.12c-.14,.03-.23,.08-.29,.16-.31,.66-.65,1.24-1,1.76-.44,.6-.98,1.2-1.62,1.8-.18,0-.29-.05-.33-.16-.3-.21-.55-.4-.74-.57-.11-.04-.16-.1-.16-.16,0-.04,.02-.08,.06-.12,.31-.18,.57-.38,.78-.59,.42-.45,.79-.95,1.11-1.5,.29-.46,.59-1.04,.9-1.72,.03-.11,.06-.16,.1-.16Zm3.86,2.95c1.2,.42,1.8,.7,1.8,.82,0,.11-.08,.19-.23,.25-.22,0-.38,.11-.47,.33-.36,1.15-.75,2.2-1.19,3.16,.33,.45,.64,.92,.92,1.42,.52,.78,.96,1.59,1.33,2.42,.03,.08,.04,.16,.04,.23,0,.08-.33,.33-.98,.74-.05,0-.11-.03-.16-.1-.59-1.26-1.21-2.35-1.87-3.28-.44,.75-.9,1.42-1.37,2.01-.86,1.04-1.91,2-3.14,2.87-.12,.05-.24,.08-.35,.08-.15,0-.27-.09-.37-.27-.15-.21-.32-.38-.51-.53-.12-.07-.18-.16-.18-.29,0-.05,.05-.1,.14-.14,.46-.18,.92-.46,1.37-.86,.77-.56,1.45-1.22,2.05-1.99,.51-.6,.97-1.33,1.39-2.19l-.45-.49c-.62-.64-1.27-1.29-1.97-1.93-.05-.08-.08-.14-.08-.18,0-.05,.23-.35,.7-.88,.08-.07,.18-.1,.29-.1,.57,.48,1.18,1.07,1.8,1.76,.11,.14,.22,.27,.33,.39,.38-.92,.68-1.91,.88-2.99,.03-.15,.12-.23,.27-.23Zm-1.8-8.04c1.04,0,1.56,.08,1.56,.25,0,.19-.07,.3-.21,.33-.14,.01-.21,.15-.21,.41v1.97h3.86c.16,0,.25,.12,.25,.35v.64c0,.22-.08,.33-.25,.33h-9.6c-.16,0-.25-.11-.25-.33v-.64c0-.23,.08-.35,.25-.35h4.27v-2.71c0-.16,.11-.25,.33-.25Zm2.38,5.02c.68,.68,1.24,1.33,1.66,1.93,.51,.74,.94,1.4,1.29,1.99,0,.03-.03,.08-.1,.16-.4,.6-.61,.9-.64,.9-.55-.94-1.13-1.8-1.76-2.58-.51-.64-.93-1.09-1.27-1.35,0-.07,.21-.38,.64-.92,.07-.08,.13-.12,.18-.12Zm5.58-4.94l1.42,.55c.15,.11,.23,.2,.23,.27,0,.12-.05,.21-.16,.25-.15,0-.25,.09-.29,.27-.21,.74-.4,1.37-.57,1.89h5.46c.16,0,.25,.1,.25,.31v.66c0,.22-.08,.33-.25,.33h-1.17c-.08,2.72-.27,4.72-.57,5.99-.38,1.67-.9,3.07-1.56,4.2,.49,.71,1,1.29,1.52,1.72,.67,.62,1.46,1.1,2.36,1.46,0,.14-.07,.24-.21,.31-.26,.26-.51,.53-.76,.82-.12,.12-.21,.18-.27,.18-1.22-.74-2.01-1.31-2.38-1.72-.46-.4-.88-.88-1.25-1.46-.42,.48-.89,.91-1.39,1.29-.79,.66-1.83,1.26-3.1,1.8-.37-.38-.7-.73-.98-1.05,.67-.23,1.46-.68,2.36-1.33,.92-.64,1.67-1.35,2.28-2.11-.25-.45-.46-.94-.66-1.46-.37-.86-.67-1.93-.9-3.2-.18-1.01-.27-2.19-.29-3.53-.29,.44-.59,.83-.9,1.19-.18,0-.33-.02-.45-.06-.26-.1-.53-.2-.82-.31-.08-.04-.12-.08-.12-.12,0-.07,.02-.12,.06-.16,.6-.67,1.13-1.49,1.6-2.46,.29-.56,.53-1.16,.74-1.78,.23-.67,.46-1.52,.68-2.56,.04-.11,.08-.16,.12-.16Zm-.76,6.23h1.25c.01,1.3,.11,2.45,.29,3.47,.19,.97,.45,1.88,.78,2.73,.1,.23,.19,.46,.29,.68,.44-.9,.77-1.87,.98-2.89,.33-1.27,.53-3.17,.62-5.7h-3.34c-.26,.57-.53,1.12-.8,1.64-.03,.03-.05,.05-.06,.08Z"/>
        <path class="cls-1" d="M75.45,109.2h6.32v-3.28c0-.16,.11-.25,.33-.25,1.04,0,1.56,.08,1.56,.25,0,.19-.07,.3-.21,.33-.14,.01-.21,.15-.21,.41v2.54h6.56c.16,0,.25,.12,.25,.35v.64c0,.23-.08,.35-.25,.35h-6.56v4h8.29c.16,0,.25,.09,.25,.27v.8c0,.22-.08,.33-.25,.33h-9s-.02,.05-.02,.08c-.7,1.24-1.61,2.66-2.73,4.25-.53,.77-1.09,1.48-1.66,2.13,3.21-.38,6.43-.9,9.64-1.56-.67-.96-1.33-1.83-1.97-2.6,0-.15,.3-.36,.9-.64,.14,0,.22,.02,.25,.06,1.67,1.9,3.17,3.92,4.51,6.07,0,.21-.04,.31-.12,.33-.51,.34-.9,.51-1.19,.51-.51-.86-1-1.67-1.5-2.42-3.83,.72-8.08,1.39-12.76,1.99-.21,0-.38,.14-.51,.43-.07,.15-.21,.23-.41,.23-.16,0-.52-.65-1.07-1.95,.83-.08,1.67-.17,2.5-.27,1.26-1.64,2.39-3.38,3.4-5.21,.25-.48,.46-.96,.66-1.44h-6.81c-.16,0-.25-.11-.25-.33v-.8c0-.18,.08-.27,.25-.27h8.12v-4h-6.32c-.16,0-.25-.12-.25-.35v-.64c0-.23,.08-.35,.25-.35Z"/>
        <path class="cls-1" d="M98.39,107.55v16.92c0,.15-.11,.23-.33,.23h-.82c-.22,0-.33-.08-.33-.23v-17.9c0-.22,.11-.33,.33-.33h4.76c.36,0,.58,.05,.68,.16,.31,.33,.47,.6,.47,.82l-2.11,4.96c-.01,.08-.02,.15-.02,.21,0,.07,.03,.14,.1,.21,.7,.94,1.22,1.87,1.58,2.79,.3,.9,.45,1.76,.45,2.58,0,1.22-.22,2.11-.66,2.69-.51,.74-1.33,1.11-2.46,1.11-.62,0-.94-.14-.96-.43-.05-.3-.14-.66-.27-1.07,0-.22,.03-.33,.08-.33l1.15,.18c.67,0,1.09-.21,1.25-.62,.15-.4,.23-.96,.23-1.7s-.17-1.48-.51-2.32c-.37-.96-.92-1.87-1.66-2.73-.07-.08-.1-.15-.1-.21,0-.04,.03-.14,.08-.29l2.09-4.72h-3.01Zm7.05,11.32l1.09,.8c.1,.1,.14,.18,.14,.27s-.05,.12-.14,.12c-.14,.03-.24,.09-.31,.18-.38,.63-.78,1.2-1.19,1.7-.51,.59-1.13,1.18-1.89,1.76-.15,0-.25-.05-.31-.14-.27-.23-.51-.43-.7-.59-.1-.04-.14-.09-.14-.14,0-.04,.03-.08,.08-.12,.36-.18,.65-.38,.88-.59,.51-.44,.94-.92,1.31-1.44,.33-.44,.68-.99,1.05-1.66,.05-.1,.1-.14,.12-.14Zm3.12-13.29l1.52,.74c.14,.1,.21,.18,.21,.25,0,.16-.14,.25-.41,.25-.08,0-.16,0-.25,.02,.36,.55,.72,1.03,1.11,1.46,.53,.57,1.07,1.05,1.62,1.42,.74,.55,1.63,.99,2.67,1.33,.12,.03,.18,.07,.18,.12,0,.11-.03,.2-.1,.27-.31,.23-.59,.48-.84,.74-.07,.11-.14,.16-.21,.16-.79-.31-1.45-.66-1.97-1.03-.72-.45-1.39-1.01-1.99-1.68-.41-.45-.85-1.01-1.33-1.68-.31,.49-.63,.92-.94,1.27-.34,.48-.77,.98-1.27,1.5s-1.01,.98-1.52,1.39c-.51,.4-.92,.68-1.23,.86-.12,0-.23-.06-.33-.18-.16-.29-.36-.54-.59-.76-.15-.08-.23-.15-.23-.21,0-.03,.03-.06,.1-.1,.7-.36,1.28-.71,1.74-1.07,.66-.48,1.31-1.09,1.95-1.85,.44-.49,.79-.96,1.05-1.42,.3-.49,.58-1.03,.84-1.62,.08-.12,.16-.18,.23-.18Zm-2.95,6.32h7.05c.16,0,.25,.12,.25,.35v.64c0,.22-.08,.33-.25,.33h-2.79v3.04h4.68c.16,0,.25,.12,.25,.35v.64c0,.23-.08,.35-.25,.35h-4.68v5.56c0,1.04-.85,1.56-2.54,1.56h-.98c-.08,0-.12-.13-.12-.39-.04-.3-.16-.66-.37-1.09v-.08c.49,.11,.96,.16,1.39,.16,.77,0,1.15-.25,1.15-.74v-4.98h-4.43c-.16,0-.25-.12-.25-.35v-.64c0-.23,.08-.35,.25-.35h4.43v-3.04h-2.79c-.16,0-.25-.11-.25-.33v-.64c0-.23,.08-.35,.25-.35Zm6.48,6.89c.67,.67,1.22,1.29,1.66,1.85,.51,.71,.94,1.35,1.29,1.93,0,.03-.04,.1-.12,.21-.44,.63-.67,.94-.7,.94-.53-.93-1.11-1.77-1.72-2.52-.49-.63-.9-1.07-1.23-1.33,0-.07,.21-.38,.64-.92,.07-.1,.13-.14,.18-.14Z"/>
        <path class="cls-1" d="M120.18,110.45h5.82c.14,0,.28,.04,.43,.12,.26,.18,.39,.33,.39,.44-.15,1.17-.31,2.14-.47,2.9-.19,.81-.44,1.6-.76,2.38-.18,.49-.44,1.06-.8,1.7-.33,.62-.72,1.2-1.17,1.74-.34,.41-.79,.83-1.33,1.27-.4,.34-.99,.73-1.78,1.17-.14,0-.25-.07-.35-.21-.29-.23-.59-.45-.92-.66-.08-.1-.12-.16-.12-.21,0-.05,.03-.1,.1-.12,.82-.36,1.5-.75,2.03-1.17,.59-.41,1.09-.9,1.52-1.46,.51-.6,.89-1.18,1.15-1.74,.33-.7,.61-1.42,.84-2.17,.19-.67,.37-1.54,.53-2.6h-5.11c-.16,0-.25-.11-.25-.33v-.83c0-.15,.08-.23,.25-.23Zm8.7-4.61l1.78,.23c.18,.08,.27,.14,.27,.18,0,.15-.1,.23-.29,.23-.29,.12-.43,.49-.43,1.09v2.17c.26,1.11,.56,2.08,.9,2.93,1.57-1.18,2.91-2.31,4.02-3.4,.26-.21,.47-.31,.64-.31,.11,0,.22,.05,.33,.16,.88,.63,1.31,1.01,1.31,1.15,0,.27-.08,.41-.25,.41l-.49-.14c-.25,0-.53,.12-.86,.35-1.12,.82-2.49,1.89-4.1,3.22,.25,.49,.5,.96,.76,1.39,.77,1.23,1.7,2.31,2.79,3.24,1,.86,2.11,1.5,3.32,1.93,.1,.05,.14,.12,.14,.18,0,.14-.07,.25-.21,.33-.23,.26-.46,.54-.7,.84-.07,.15-.18,.23-.33,.23-.08,0-.38-.18-.88-.55-1.61-1.04-2.96-2.23-4.04-3.57-.85-1.07-1.5-2.17-1.95-3.32-.12-.26-.26-.61-.41-1.05v9.23c0,1.09-.77,1.64-2.32,1.64h-2.13c-.11,0-.16-.13-.16-.39-.05-.27-.19-.61-.41-1,0-.16,.05-.25,.16-.25,.88,.16,1.67,.25,2.38,.25,.6,0,.9-.25,.9-.74v-15.01c0-.45-.01-.79-.04-1.03-.03-.18-.04-.32-.04-.43,0-.12,.11-.18,.33-.18Z"/>
        <path class="cls-1" d="M143.85,109.44h7.55v-3.53c0-.16,.11-.25,.33-.25,1.09,0,1.64,.08,1.64,.25,0,.19-.07,.3-.21,.33-.14,.01-.21,.15-.21,.41v2.79h7.05c.27,0,.41,.09,.41,.27v9.52c0,.15-.14,.23-.41,.23h-.82c-.22,0-.33-.08-.33-.23v-1.58h-5.91v6.83c0,.15-.14,.23-.41,.23h-.82c-.22,0-.33-.08-.33-.23v-6.83h-6.32v1.5c0,.15-.14,.23-.41,.23h-.82c-.22,0-.33-.08-.33-.23v-9.37c0-.22,.11-.33,.33-.33Zm1.23,6.73h6.32v-5.25h-6.32v5.25Zm7.88-5.25v5.25h5.91v-5.25h-5.91Z"/>
        <path class="cls-1" d="M175.97,105.2c.88,.6,1.31,.95,1.31,1.05,0,.11-.11,.16-.33,.16s-.42,.08-.59,.25c-.29,.22-.65,.46-1.09,.74h6.19c.31,0,.49,.03,.51,.08,.1,.1,.14,.24,.14,.43-1.09,1.46-2.27,2.65-3.53,3.57-1.35,1.05-3.07,2-5.15,2.85-1.8,.81-3.92,1.39-6.34,1.76-.12,0-.23-.08-.33-.25-.16-.36-.36-.7-.57-1.05,0-.21,.15-.33,.45-.37,1.3-.15,2.69-.43,4.16-.84,.82-.22,1.6-.48,2.34-.78-.74-.77-1.44-1.42-2.11-1.97,0-.14,.3-.36,.9-.66,.14,0,.22,.03,.25,.08,.86,.6,1.65,1.24,2.38,1.93,.88-.42,1.7-.91,2.46-1.46,.89-.56,1.73-1.23,2.52-2.01h-6.52c-.53,.26-1.09,.5-1.66,.72-.63,.27-1.5,.57-2.62,.9-.19,0-.32-.07-.39-.21-.21-.23-.4-.46-.57-.68-.12-.05-.18-.12-.18-.18,0-.04,.05-.08,.14-.1,1.33-.31,2.41-.65,3.24-1,1.01-.42,1.89-.87,2.62-1.33,.75-.46,1.41-.96,1.97-1.5,.12-.1,.25-.14,.39-.14Zm3.12,7.44l1.6,.8c.14,.1,.21,.18,.21,.27,0,.18-.14,.27-.41,.27-.46,0-.81,.08-1.05,.23-.31,.26-.62,.51-.9,.76h4.57c.19,0,.33,.05,.41,.14,.38,.36,.57,.6,.57,.74-.68,.92-1.42,1.83-2.21,2.75-.83,.92-1.72,1.76-2.67,2.52-.88,.62-1.83,1.17-2.87,1.66-1.35,.6-2.8,1.07-4.35,1.39-1.39,.36-2.45,.53-3.16,.53-.21,0-.35-.12-.43-.35-.19-.4-.4-.83-.64-1.29,0-.15,.03-.23,.08-.23l1.07,.06c1.07,0,2.11-.1,3.12-.31,.94-.15,1.88-.38,2.81-.68,.45-.16,.9-.37,1.35-.62-.78-.85-1.54-1.57-2.28-2.15,0-.18,.36-.42,1.07-.74,.08,0,.14,.02,.16,.06,.9,.63,1.73,1.29,2.48,1.99,.15-.1,.31-.2,.47-.31,.82-.56,1.69-1.34,2.6-2.34,.48-.52,.94-1.04,1.37-1.56h-5.46c-.6,.42-1.34,.85-2.21,1.29-.92,.48-1.84,.9-2.77,1.27-.92,.37-1.66,.64-2.24,.8-.14,0-.25-.07-.35-.21-.18-.31-.4-.57-.66-.78-.15-.1-.23-.17-.23-.23,0-.04,.05-.08,.16-.1,1.31-.33,2.39-.66,3.24-1,1.19-.44,2.39-1,3.59-1.7,.79-.44,1.44-.87,1.95-1.29,.56-.45,1.07-.94,1.54-1.48,.16-.12,.31-.18,.43-.18Z"/>
        <path class="cls-1" d="M189.07,107.96h6.48c.16,0,.25,.11,.25,.33v.66c0,.22-.08,.33-.25,.33h-2.3v8.88c.82-.3,1.6-.62,2.34-.94,.04-.04,.08-.06,.12-.06,.11,0,.16,.05,.16,.16,0,.71-.03,1.09-.08,1.15-2.02,.88-4.07,1.67-6.15,2.38-.19,.38-.36,.57-.49,.57s-.41-.57-.82-1.72c.96-.21,2.11-.54,3.45-1v-9.41h-2.71c-.16,0-.25-.11-.25-.33v-.66c0-.22,.08-.33,.25-.33Zm7.55-1.72h10.66c.16,0,.25,.11,.25,.33v.66c0,.22-.08,.33-.25,.33h-4.78c-.3,.85-.62,1.67-.94,2.46h4.9c.22,0,.33,.08,.33,.25v10.58c0,.16-.11,.25-.33,.25h-2.01c1.08,.92,2.19,1.68,3.32,2.3,0,.08-.04,.18-.12,.29-.41,.63-.64,.94-.7,.94-1.26-.68-2.52-1.58-3.77-2.69,0-.01,.25-.29,.74-.84h-3.96l.59,.45c.11,.11,.16,.21,.16,.31,0,.04-.05,.07-.16,.08-.19,.01-.33,.05-.41,.12-.46,.46-.94,.88-1.44,1.25-.62,.44-1.39,.88-2.34,1.31-.16,0-.27-.05-.33-.14-.3-.23-.55-.43-.74-.59-.11-.04-.16-.1-.16-.16,0-.03,.03-.05,.1-.08,.44-.14,.81-.29,1.11-.47,.62-.31,1.16-.68,1.62-1.09,.31-.29,.66-.62,1.03-.98h-1.89c-.22,0-.33-.08-.33-.25v-10.58c0-.16,.11-.25,.33-.25h2.81c.27-.51,.49-.94,.66-1.31,.14-.31,.27-.7,.41-1.15h-4.37c-.16,0-.25-.11-.25-.33v-.66c0-.22,.08-.33,.25-.33Zm1.64,7.05h7.05v-1.95h-7.05v1.95Zm0,3.3h7.05v-1.99h-7.05v1.99Zm7.05,3.18v-1.89h-7.05v1.89h7.05Z"/>
        <path class="cls-1" d="M212.17,108.21h6.32c.27-.68,.55-1.45,.82-2.3,.1-.16,.21-.25,.33-.25l1.64,.59c.16,.12,.25,.23,.25,.31,0,.16-.08,.28-.25,.35-.37,0-.59,.12-.66,.37-.14,.33-.27,.64-.41,.92h10.09c.16,0,.25,.11,.25,.33v.66c0,.23-.08,.35-.25,.35h-10.71c-.42,.83-.81,1.52-1.15,2.05-.07,.11-.14,.21-.21,.31h9.76c.27,0,.41,.12,.41,.35v11.05c0,.46-.35,.83-1.05,1.09-.66,.19-1.51,.32-2.56,.39-.15,0-.23-.08-.25-.23-.03-.3-.19-.75-.49-1.33,0-.05,.07-.08,.21-.08,1.29,0,2.04-.05,2.26-.14,.27-.1,.41-.27,.41-.51v-1.46h-8.86v3.45c0,.15-.11,.23-.33,.23h-.82c-.22,0-.33-.08-.33-.23v-10.32c-.14,.16-.27,.32-.39,.47-.79,.85-1.65,1.61-2.56,2.28-.19,0-.36-.02-.49-.06-.3-.14-.6-.26-.9-.37-.1-.05-.14-.1-.14-.14,0-.11,.05-.19,.16-.25,1.41-1.01,2.66-2.24,3.75-3.67,.67-.83,1.24-1.72,1.72-2.67l.12-.21h-5.7c-.16,0-.25-.12-.25-.35v-.66c0-.22,.08-.33,.25-.33Zm5.91,7.57h8.86v-2.48h-8.86v2.48Zm0,3.92h8.86v-2.62h-8.86v2.62Z"/>
        <path class="cls-1" d="M243.8,105.59c1.04,0,1.56,.08,1.56,.25,0,.19-.07,.3-.21,.33-.14,.01-.21,.15-.21,.41v.57h8.12c.22,0,.33,.08,.33,.25v4.1c0,.16-.11,.25-.33,.25h-.82c-.22,0-.33-.08-.33-.25v-3.04h-15.26v3.12c0,.16-.11,.25-.33,.25h-.82c-.21,0-.31-.08-.31-.25v-4.1c0-.22,.1-.33,.31-.33h7.96v-1.31c0-.16,.11-.25,.33-.25Zm6.4,5.33c-.05,0-.12,0-.21,.02-.9,.15-1.91,.29-3.01,.43-.68,.07-1.39,.14-2.11,.21v1.58h6.15c.16,0,.25,.1,.25,.31v.66c0,.22-.08,.33-.25,.33h-6.15v1.64h8.2c.16,0,.25,.11,.25,.33v.66c0,.23-.08,.35-.25,.35h-17.39c-.16,0-.25-.12-.25-.35v-.66c0-.22,.08-.33,.25-.33h7.71v-1.64h-5.82c-.16,0-.25-.11-.25-.33v-.66c0-.21,.08-.31,.25-.31h5.82v-1.44c-.27,.01-.53,.03-.78,.06-1.24,.08-2.87,.18-4.88,.29l-.41-1.23c2-.11,3.8-.23,5.41-.37,.23-.03,.45-.05,.66-.06v-1.37c0-.15,.11-.23,.33-.23,1.04,0,1.56,.08,1.56,.23,0,.19-.07,.29-.21,.31s-.21,.16-.21,.43v.45c.7-.08,1.37-.17,2.03-.27,.97-.14,1.85-.31,2.62-.51h.18c.07,0,.14,.07,.23,.21,.62,.74,.92,1.13,.92,1.19,0,.11-.05,.16-.16,.16l-.49-.08Zm-11.57,7.96h11.73c.22,0,.33,.09,.33,.27v5.25c0,.15-.11,.23-.33,.23h-.82c-.22,0-.33-.08-.33-.23v-.51h-9.43v.51c0,.15-.11,.23-.33,.23h-.82c-.22,0-.33-.08-.33-.23v-5.17c0-.23,.11-.35,.33-.35Zm1.15,3.69h9.43v-2.36h-9.43v2.36Z"/>
        <path class="cls-1" d="M259.43,107.23l1.56,.43c.11,.03,.16,.11,.16,.25,0,.08-.14,.21-.41,.39-.12,.64-.23,1.22-.33,1.72h1.39v-4.18c0-.16,.11-.25,.33-.25,1.04,0,1.56,.08,1.56,.25,0,.19-.07,.3-.21,.33-.14,.01-.21,.15-.21,.41v3.45h2.54c.16,0,.25,.11,.25,.33v.66c0,.23-.08,.35-.25,.35h-2.54v4.84c.82-.31,1.6-.65,2.34-1,.04-.05,.08-.08,.12-.08,.11,0,.16,.05,.16,.16,0,.7-.03,1.08-.08,1.15-.83,.38-1.68,.76-2.54,1.13v6.93c0,.15-.11,.23-.33,.23h-.82c-.22,0-.33-.08-.33-.23v-6.34c-.88,.34-1.75,.68-2.62,1-.21,.37-.37,.55-.49,.55s-.4-.57-.82-1.72c1.03-.23,2.26-.62,3.69-1.15l.25-.08v-5.39h-1.68c-.1,.36-.18,.67-.25,.94-.23,.79-.52,1.57-.86,2.32-.18,0-.32-.04-.43-.12-.25-.11-.53-.19-.84-.25-.08-.05-.12-.12-.12-.18,.12-.22,.24-.46,.35-.74,.29-.59,.53-1.23,.74-1.93,.16-.66,.32-1.45,.47-2.38,.11-.52,.16-1.06,.16-1.62,0-.11,.03-.16,.08-.16Zm9.43-1.72l1.42,.55c.15,.11,.23,.2,.23,.27,0,.12-.05,.21-.16,.25-.16,0-.26,.09-.29,.27-.25,.93-.48,1.69-.7,2.28h6.97c.27,0,.41,.11,.41,.32,0,4.94-.08,8.34-.23,10.22-.14,1.7-.35,2.9-.64,3.61-.25,.64-.58,1.05-1,1.23-.48,.23-1.14,.35-1.99,.35-1.07,0-1.61-.14-1.64-.43-.05-.41-.16-.81-.33-1.21,0-.11,.03-.16,.08-.16,0,.03,.07,.06,.21,.1,.51,.1,.96,.14,1.35,.14,.83,0,1.4-.14,1.7-.43,.33-.34,.57-1.25,.72-2.73,.18-1.56,.27-4.76,.29-9.62h-.98c-.12,.89-.26,1.76-.41,2.62-.21,1.24-.47,2.34-.8,3.28-.27,.9-.62,1.83-1.05,2.79-.44,.93-.92,1.74-1.44,2.42-.53,.72-1.05,1.29-1.54,1.7-.46,.38-.96,.73-1.5,1.05-.12,0-.23-.05-.33-.16-.25-.33-.5-.64-.76-.92-.1-.1-.14-.18-.14-.25s.03-.14,.1-.21c.59-.25,1.11-.55,1.58-.92,.45-.41,.86-.86,1.23-1.35,.56-.68,1.05-1.51,1.48-2.48,.38-.75,.73-1.66,1.05-2.73,.27-.78,.5-1.62,.68-2.52,.14-.71,.26-1.48,.37-2.32h-1.17c-.59,1.74-1.1,3.09-1.54,4.06-.48,1.11-.99,2.13-1.54,3.08-.64,1.04-1.28,1.91-1.91,2.6-.15,0-.27-.04-.37-.12-.27-.26-.53-.5-.78-.72-.05-.1-.08-.16-.08-.21,.62-.62,1.11-1.2,1.48-1.74,.57-.77,1.16-1.8,1.76-3.12,.37-.77,.87-2.04,1.5-3.83h-1.35c-.22,.49-.45,.97-.7,1.44-.36,.57-.73,1.1-1.13,1.58-.18,0-.33-.02-.45-.06-.27-.11-.54-.21-.8-.29-.1-.04-.14-.08-.14-.12,0-.1,.03-.16,.08-.21,.62-.7,1.16-1.56,1.64-2.58,.29-.58,.53-1.2,.74-1.87,.23-.71,.46-1.61,.68-2.71,.05-.12,.1-.18,.14-.18Z"/>
        <path class="cls-1" d="M289.51,106.82c-.08,0-.16,0-.23,.02-.64,.27-1.36,.47-2.15,.59-.88,.12-1.78,.19-2.71,.21v1.23h5.91c.11,0,.16,.08,.16,.25v.66c0,.22-.05,.33-.16,.33h-1.97v2.15c0,.15-.11,.23-.33,.23h-.82c-.22,0-.33-.08-.33-.23v-2.15h-2.54c-.05,.37-.14,.68-.27,.92-.15,.44-.44,.88-.88,1.31-.23,.25-.56,.49-.98,.74-.1,0-.16-.01-.21-.04-.23-.21-.49-.38-.78-.53-.05-.07-.08-.15-.08-.25,.38-.21,.72-.46,1.03-.78,.31-.34,.53-.7,.66-1.07,.14-.4,.21-.88,.21-1.46v-2.13c0-.22,.08-.33,.25-.33h.33c1.24-.01,2.21-.07,2.91-.16,.85-.1,1.61-.29,2.3-.59,.08-.04,.15-.06,.21-.06,.07,0,.14,.03,.23,.1,.62,.49,.92,.81,.92,.96,0,.23-.05,.35-.16,.35l-.49-.27Zm-5.33,6.15h12.71c.22,0,.33,.08,.33,.25v8.63c0,.15-.11,.23-.33,.23h-2.58c.64,.31,1.25,.58,1.83,.8,.68,.23,1.65,.49,2.89,.76,.16,.07,.25,.12,.25,.16,0,.12-.3,.48-.9,1.07-.05,0-.16-.01-.31-.04-2.38-.72-4.13-1.4-5.25-2.03-.12-.07-.18-.11-.18-.12,0-.11,.15-.31,.45-.59h-4.59c.53,.48,.8,.75,.8,.82,0,.1-.08,.14-.25,.14-.26,0-.4,.03-.43,.1-1.85,.67-3.79,1.22-5.82,1.64-.15,0-.25-.06-.31-.18-.1-.19-.25-.37-.47-.53-.08-.1-.12-.18-.12-.27,0-.05,.08-.1,.23-.12,1.07-.22,1.98-.45,2.73-.7,.81-.25,1.61-.55,2.4-.9h-3.06c-.22,0-.33-.08-.33-.23v-8.63c0-.16,.11-.25,.33-.25Zm1.15,2.62h10.42v-1.39h-10.42v1.39Zm0,2.62h10.42v-1.39h-10.42v1.39Zm10.42,2.62v-1.39h-10.42v1.39h10.42Zm2.46-14.03c-.08,0-.16,0-.25,.02-.68,.27-1.44,.47-2.28,.59-.94,.12-1.91,.19-2.89,.21v1.23h6.99c.1,0,.14,.08,.14,.25v.66c0,.22-.05,.33-.14,.33h-2.89v2.15c0,.15-.11,.23-.33,.23h-.82c-.22,0-.33-.08-.33-.23v-2.15h-2.71c-.04,.3-.1,.55-.16,.76-.11,.41-.31,.81-.62,1.19-.18,.23-.41,.46-.7,.68-.1,0-.16-.01-.21-.04-.23-.19-.49-.36-.76-.51-.07-.07-.1-.16-.1-.27,.25-.16,.46-.4,.66-.7,.22-.3,.36-.62,.43-.96,.1-.34,.14-.77,.14-1.29v-2.13c0-.22,.08-.33,.25-.33h.33c1.31-.01,2.34-.07,3.1-.16,.9-.1,1.71-.29,2.42-.59,.08-.04,.16-.06,.23-.06s.14,.03,.23,.1c.62,.49,.92,.81,.92,.96,0,.23-.05,.35-.16,.35l-.49-.27Z"/>
        <path class="cls-1" d="M315.31,112.48v2.3c0,1.04-.22,1.94-.66,2.71-.45,.77-.98,1.26-1.58,1.48l-.82-.82c.38-.15,.73-.44,1.05-.88,.33-.41,.51-.94,.53-1.58h-1.66v-3.2h3.14Z"/>
        <path class="cls-1" d="M331.85,105.42c1.15,.62,1.72,.97,1.72,1.07,0,.12-.05,.18-.16,.18-.25,.03-.41,.11-.49,.25-.52,1.48-1.04,2.73-1.56,3.75v13.72c0,.15-.11,.23-.33,.23h-.8c-.23,0-.35-.08-.35-.23v-11.3c-.44,.62-1.01,1.37-1.72,2.26-.15,0-.29-.06-.41-.18l-.66-.53c-.11-.08-.16-.17-.16-.27,.57-.68,1.15-1.41,1.72-2.17,.74-1.01,1.38-2.13,1.93-3.36,.48-1.11,.85-2.19,1.11-3.24,.03-.11,.08-.16,.16-.16Zm1.89,2.21h5.25v-1.97c0-.16,.03-.25,.08-.25l1.48,.12c.22,.05,.33,.12,.33,.21,0,.12-.07,.21-.21,.27-.14,.07-.21,.2-.21,.39v1.23h5.58c.16,0,.25,.11,.25,.33v.68c0,.21-.08,.31-.25,.31h-5.58v2.13h4.59c.22,0,.33,.09,.33,.27v6.54c0,.16-.11,.25-.33,.25h-.82c-.22,0-.33-.08-.33-.25v-.98h-3.63c-.01,.08-.03,.16-.04,.23-.14,1.04-.42,1.93-.86,2.69-.19,.38-.44,.77-.74,1.15,.31,.16,.65,.31,1,.45,.51,.23,1.29,.51,2.36,.82,.72,.18,1.57,.36,2.52,.55,.45,.05,.98,.12,1.6,.21,.16,0,.25,.02,.25,.06,0,.14-.07,.25-.21,.35-.25,.3-.48,.58-.7,.84-.11,.15-.25,.23-.41,.23-1.45-.26-2.74-.56-3.88-.9-1-.33-1.81-.63-2.44-.9-.38-.19-.75-.38-1.09-.57-.81,.79-1.72,1.44-2.75,1.95-.68,.34-1.16,.51-1.42,.51-.11,0-.19-.08-.25-.23-.18-.37-.38-.7-.59-.98-.1-.05-.14-.1-.14-.12,0-.1,.03-.14,.1-.14,.92-.18,1.66-.44,2.24-.78,.57-.31,1.08-.67,1.52-1.07-.67-.52-1.35-1.16-2.05-1.93,0-.18,.44-.4,1.31-.68,.64,.67,1.22,1.19,1.74,1.56,.27-.36,.51-.75,.7-1.17,.34-.57,.55-1.2,.64-1.89,.03-.07,.04-.14,.04-.23h-3.36v.51c0,.15-.11,.23-.33,.23h-.82c-.22,0-.33-.08-.33-.23v-5.99c0-.23,.11-.35,.33-.35h4.76v-2.13h-5.25c-.16,0-.25-.1-.25-.31v-.68c0-.22,.08-.33,.25-.33Zm1.64,7.96h3.55c.04-.44,.06-.93,.06-1.48v-1.72h-3.61v3.2Zm5.09-3.2v1.72c0,.56-.01,1.05-.04,1.48h3.49v-3.2h-3.45Z"/>
        <path class="cls-1" d="M355.44,105.2l1.54,.7c.12,.11,.18,.21,.18,.29,0,.15-.14,.23-.41,.23-.12,0-.23,.02-.31,.06,.63,.66,1.16,1.13,1.6,1.42,.68,.51,1.51,.97,2.48,1.39,0,.14-.04,.24-.12,.31-.21,.16-.46,.39-.78,.68-.04,0-.1-.02-.16-.06-.57-.23-1.13-.55-1.68-.94-.01,0-.03,0-.04-.02v.62c0,.22-.05,.33-.16,.33h-3.77c-.11,0-.16-.11-.16-.33v-.12s-.05,.03-.06,.06c-.49,.45-.98,.85-1.48,1.19-.48,.36-.87,.61-1.17,.76-.12,0-.23-.06-.33-.18-.16-.3-.36-.55-.59-.74-.15-.08-.23-.16-.23-.23,0-.03,.03-.05,.1-.08,.67-.31,1.22-.62,1.66-.92,.63-.42,1.25-.96,1.87-1.62,.41-.42,.75-.83,1-1.23,.29-.41,.55-.87,.8-1.37,.1-.11,.17-.16,.23-.16Zm-2.21,13.35v3.86c.21-.05,.4-.11,.59-.16,1.15-.3,2.24-.63,3.28-.98-.18-.41-.38-.81-.59-1.21,0-.11,.36-.33,1.07-.68,.48,.92,.87,1.76,1.17,2.54,.27,.68,.51,1.42,.72,2.21,0,.05-.44,.2-1.31,.43-.08-.53-.25-1.17-.51-1.91-.03-.1-.05-.18-.08-.25-1.93,.67-3.89,1.27-5.89,1.8-.21,.38-.37,.57-.49,.57s-.4-.57-.82-1.72c.45-.07,.94-.16,1.48-.29v-11.03c0-.16,.08-.25,.25-.25h6.64c.22,0,.33,.08,.33,.25v6.48c0,.22-.11,.33-.33,.33h-5.5Zm0-5.82v1.64h4.43v-1.64h-4.43Zm0,2.87v1.72h4.43v-1.72h-4.43Zm1.19-6.64h2.95c-.52-.42-1.09-.94-1.7-1.56-.29,.42-.58,.79-.88,1.09-.11,.16-.23,.32-.37,.47Zm8.16-3.45c1.2,.22,1.8,.42,1.8,.59,0,.1-.1,.2-.29,.31-.14,.05-.23,.19-.27,.41-.1,.6-.25,1.31-.45,2.13h5.35c.21,0,.33,.03,.39,.1,.29,.23,.43,.42,.43,.57l-1.97,4.61c-.04,.08-.1,.12-.16,.12-.77-.22-1.15-.41-1.15-.57l1.56-3.53h-4.8c-.08,.23-.16,.46-.23,.7-.34,1.13-.85,2.35-1.54,3.65-.04,0-.15-.03-.33-.08-.26-.07-.57-.13-.92-.18-.1-.05-.14-.15-.14-.29,.41-.68,.76-1.35,1.05-1.99,.42-.94,.8-2.12,1.13-3.53,.22-.97,.34-1.93,.37-2.87,0-.11,.05-.16,.16-.16Zm1.07,6.67c1.2,.16,1.8,.27,1.8,.31,0,.14-.05,.21-.16,.23-.16,.1-.25,.27-.25,.51v1.31c0,.27,0,.55-.02,.82,.07,.82,.17,1.49,.31,2.01,.22,.78,.49,1.57,.82,2.36,.31,.64,.77,1.31,1.35,1.99,.67,.75,1.46,1.45,2.38,2.09,0,.08-.06,.15-.18,.21-.23,.18-.49,.37-.78,.57-.1,.08-.21,.12-.35,.12-.56-.44-1.13-.95-1.7-1.54-.68-.74-1.22-1.46-1.6-2.15-.26-.48-.51-1.03-.74-1.66-.1,.34-.21,.68-.33,1.03-.34,.86-.78,1.65-1.31,2.36-.38,.59-1,1.22-1.87,1.89-.08,0-.16-.05-.23-.16-.21-.23-.43-.43-.68-.59-.11-.07-.16-.14-.16-.21,.92-.78,1.54-1.41,1.87-1.89,.4-.55,.71-1.16,.94-1.85,.27-.66,.49-1.53,.64-2.62,.11-.89,.16-1.81,.16-2.77v-2.13c0-.15,.03-.23,.08-.23Z"/>
        <path class="cls-1" d="M374.28,110.45h5.82c.14,0,.28,.04,.43,.12,.26,.18,.39,.33,.39,.44-.15,1.17-.31,2.14-.47,2.9-.19,.81-.44,1.6-.76,2.38-.18,.49-.44,1.06-.8,1.7-.33,.62-.72,1.2-1.17,1.74-.34,.41-.79,.83-1.33,1.27-.4,.34-.99,.73-1.78,1.17-.14,0-.25-.07-.35-.21-.29-.23-.59-.45-.92-.66-.08-.1-.12-.16-.12-.21,0-.05,.03-.1,.1-.12,.82-.36,1.5-.75,2.03-1.17,.59-.41,1.09-.9,1.52-1.46,.51-.6,.89-1.18,1.15-1.74,.33-.7,.61-1.42,.84-2.17,.19-.67,.37-1.54,.53-2.6h-5.11c-.16,0-.25-.11-.25-.33v-.83c0-.15,.08-.23,.25-.23Zm8.7-4.61l1.78,.23c.18,.08,.27,.14,.27,.18,0,.15-.1,.23-.29,.23-.29,.12-.43,.49-.43,1.09v2.17c.26,1.11,.56,2.08,.9,2.93,1.57-1.18,2.91-2.31,4.02-3.4,.26-.21,.47-.31,.64-.31,.11,0,.22,.05,.33,.16,.88,.63,1.31,1.01,1.31,1.15,0,.27-.08,.41-.25,.41l-.49-.14c-.25,0-.53,.12-.86,.35-1.12,.82-2.49,1.89-4.1,3.22,.25,.49,.5,.96,.76,1.39,.77,1.23,1.7,2.31,2.79,3.24,1,.86,2.11,1.5,3.32,1.93,.1,.05,.14,.12,.14,.18,0,.14-.07,.25-.21,.33-.23,.26-.46,.54-.7,.84-.07,.15-.18,.23-.33,.23-.08,0-.38-.18-.88-.55-1.61-1.04-2.96-2.23-4.04-3.57-.85-1.07-1.5-2.17-1.95-3.32-.12-.26-.26-.61-.41-1.05v9.23c0,1.09-.77,1.64-2.32,1.64h-2.13c-.11,0-.16-.13-.16-.39-.05-.27-.19-.61-.41-1,0-.16,.05-.25,.16-.25,.88,.16,1.67,.25,2.38,.25,.6,0,.9-.25,.9-.74v-15.01c0-.45-.01-.79-.04-1.03-.03-.18-.04-.32-.04-.43,0-.12,.11-.18,.33-.18Z"/>
        <path class="cls-1" d="M4.92,151.78h7.46c.22,0,.33,.08,.33,.23v8.29c0,.18-.11,.27-.33,.27h-.82c-.22,0-.33-.09-.33-.27v-.98H6.07v.98c0,.18-.11,.27-.33,.27h-.82c-.22,0-.33-.09-.33-.27v-8.2c0-.21,.11-.31,.33-.31Zm1.15,6.21h5.17v-4.92H6.07v4.92Zm2.21-15.75h10.34c.22,0,.33,.08,.33,.25v7.63c0,.16-.11,.25-.33,.25h-.82c-.22,0-.33-.08-.33-.25v-.74H9.45v.82c0,.16-.12,.25-.35,.25h-.82c-.22,0-.33-.08-.33-.25v-7.63c0-.22,.11-.33,.33-.33Zm1.17,5.82h8.02v-4.51H9.45v4.51Zm5.07,3.63h7.46c.22,0,.33,.08,.33,.23v8.29c0,.18-.11,.27-.33,.27h-.82c-.22,0-.33-.09-.33-.27v-.9h-5.17v.98c0,.18-.11,.27-.33,.27h-.82c-.22,0-.33-.09-.33-.27v-8.29c0-.21,.11-.31,.33-.31Zm1.15,6.3h5.17v-5h-5.17v5Z"/>
        <path class="cls-1" d="M35.4,142.82c-.08,0-.16,0-.23,.02-.64,.27-1.36,.47-2.15,.59-.88,.12-1.78,.19-2.71,.21v1.23h5.91c.11,0,.16,.08,.16,.25v.66c0,.22-.05,.33-.16,.33h-1.97v2.15c0,.15-.11,.23-.33,.23h-.82c-.22,0-.33-.08-.33-.23v-2.15h-2.54c-.05,.37-.14,.68-.27,.92-.15,.44-.44,.88-.88,1.31-.23,.25-.56,.49-.98,.74-.1,0-.16-.01-.21-.04-.23-.21-.49-.38-.78-.53-.05-.07-.08-.15-.08-.25,.38-.21,.72-.46,1.03-.78,.31-.34,.53-.7,.66-1.07,.14-.4,.21-.88,.21-1.46v-2.13c0-.22,.08-.33,.25-.33h.33c1.24-.01,2.21-.07,2.91-.16,.85-.1,1.61-.29,2.3-.59,.08-.04,.15-.06,.21-.06,.07,0,.14,.03,.23,.1,.62,.49,.92,.81,.92,.96,0,.23-.05,.35-.16,.35l-.49-.27Zm-5.33,6.15h12.71c.22,0,.33,.08,.33,.25v8.63c0,.15-.11,.23-.33,.23h-2.58c.64,.31,1.25,.58,1.83,.8,.68,.23,1.65,.49,2.89,.76,.16,.07,.25,.12,.25,.16,0,.12-.3,.48-.9,1.07-.05,0-.16-.01-.31-.04-2.38-.72-4.13-1.4-5.25-2.03-.12-.07-.18-.11-.18-.12,0-.11,.15-.31,.45-.59h-4.59c.53,.48,.8,.75,.8,.82,0,.1-.08,.14-.25,.14-.26,0-.4,.03-.43,.1-1.85,.67-3.79,1.22-5.82,1.64-.15,0-.25-.06-.31-.18-.1-.19-.25-.37-.47-.53-.08-.1-.12-.18-.12-.27,0-.05,.08-.1,.23-.12,1.07-.22,1.98-.45,2.73-.7,.81-.25,1.61-.55,2.4-.9h-3.06c-.22,0-.33-.08-.33-.23v-8.63c0-.16,.11-.25,.33-.25Zm1.15,2.62h10.42v-1.39h-10.42v1.39Zm0,2.62h10.42v-1.39h-10.42v1.39Zm10.42,2.62v-1.39h-10.42v1.39h10.42Zm2.46-14.03c-.08,0-.16,0-.25,.02-.68,.27-1.44,.47-2.28,.59-.94,.12-1.91,.19-2.89,.21v1.23h6.99c.1,0,.14,.08,.14,.25v.66c0,.22-.05,.33-.14,.33h-2.89v2.15c0,.15-.11,.23-.33,.23h-.82c-.22,0-.33-.08-.33-.23v-2.15h-2.71c-.04,.3-.1,.55-.16,.76-.11,.41-.31,.81-.62,1.19-.18,.23-.41,.46-.7,.68-.1,0-.16-.01-.21-.04-.23-.19-.49-.36-.76-.51-.07-.07-.1-.16-.1-.27,.25-.16,.46-.4,.66-.7,.22-.3,.36-.62,.43-.96,.1-.34,.14-.77,.14-1.29v-2.13c0-.22,.08-.33,.25-.33h.33c1.31-.01,2.34-.07,3.1-.16,.9-.1,1.71-.29,2.42-.59,.08-.04,.16-.06,.23-.06s.14,.03,.23,.1c.62,.49,.92,.81,.92,.96,0,.23-.05,.35-.16,.35l-.49-.27Z"/>
        <path class="cls-1" d="M50.96,142.57h17.23c.16,0,.25,.12,.25,.35v.64c0,.23-.08,.35-.25,.35h-7.88v.06l-.02,1.66h5.76c.22,0,.33,.08,.33,.23v8.29c0,.18-.11,.27-.33,.27h-.82c-.22,0-.33-.09-.33-.27v-.55h-4.72c-.05,.45-.14,.82-.25,1.11-.18,.83-.53,1.57-1.07,2.19-.07,.08-.14,.16-.21,.23,.18,.11,.38,.21,.59,.31,.92,.42,1.87,.75,2.85,.96,1.11,.26,2.31,.46,3.61,.59,.93,.11,1.91,.16,2.95,.16,0,.1-.05,.22-.16,.37-.15,.33-.29,.65-.41,.96-.03,.15-.08,.23-.16,.23-1.3-.08-2.43-.2-3.38-.35-1.09-.16-2.08-.37-2.97-.62-1.09-.3-2.08-.66-2.97-1.09-.37-.19-.7-.38-.98-.57-.23,.18-.47,.35-.72,.51-1.05,.71-2.26,1.28-3.61,1.7-.86,.27-1.45,.41-1.76,.41-.1,0-.17-.06-.23-.18-.19-.38-.39-.72-.59-1-.11-.05-.16-.1-.16-.12,0-.08,.04-.12,.12-.12,1.16-.14,2.11-.33,2.83-.59,.94-.31,1.73-.69,2.36-1.13,.21-.11,.39-.23,.55-.35-.51-.48-1.04-1.13-1.6-1.97,0-.05,.44-.23,1.31-.51,.37,.64,.79,1.16,1.27,1.56l.04,.04,.16-.21c.42-.45,.69-.94,.8-1.48,.12-.3,.21-.65,.27-1.05h-4.51v.55c0,.18-.11,.27-.33,.27h-.8c-.23,0-.35-.09-.35-.27v-8.2c0-.21,.12-.31,.35-.31h5.78l.02-1.09v-.64h-7.88c-.16,0-.25-.12-.25-.35v-.64c0-.23,.08-.35,.25-.35Zm3.2,6.4h4.63l.02-2.05h-4.66v2.05Zm0,3.28h4.59l.02-1.97h-4.61v1.97Zm6.09-1.97l-.02,1.97h4.68v-1.97h-4.66Zm.04-3.36l-.02,2.05h4.63v-2.05h-4.61Z"/>
        <path class="cls-1" d="M77.83,141.28c1.15,.6,1.72,.95,1.72,1.05,0,.12-.05,.18-.16,.18-.25,.03-.41,.1-.49,.23-.52,1.38-1.04,2.55-1.56,3.51v14.15c0,.15-.11,.23-.33,.23h-.82c-.22,0-.33-.08-.33-.23v-11.85c-.49,.64-1.18,1.47-2.05,2.48-.15,0-.29-.06-.43-.18-.21-.18-.42-.36-.64-.53-.11-.07-.16-.15-.16-.25,.62-.68,1.22-1.41,1.83-2.17,.79-.98,1.48-2.08,2.07-3.3,.52-1.07,.92-2.12,1.19-3.16,.03-.1,.08-.14,.16-.14Zm2.3,12.69h4.51v-2.28c0-.18,.11-.27,.33-.27,1.04,0,1.56,.09,1.56,.27s-.07,.28-.21,.31c-.14,.01-.21,.15-.21,.41v1.56h4.68c.16,0,.25,.12,.25,.35v.64c0,.23-.08,.35-.25,.35h-4.68v3.36h5.58c.16,0,.25,.1,.25,.31v.68c0,.21-.08,.31-.25,.31h-12.8c-.16,0-.25-.1-.25-.31v-.68c0-.21,.08-.31,.25-.31h5.74v-3.36h-4.51c-.16,0-.25-.12-.25-.35v-.64c0-.23,.08-.35,.25-.35Zm.16-9.6h4.43v-2.46c0-.16,.11-.25,.33-.25,1.05,0,1.58,.08,1.58,.25,0,.19-.08,.3-.23,.33-.14,.01-.21,.15-.21,.41v1.72h4.51c.16,0,.25,.12,.25,.35v.64c0,.23-.08,.35-.25,.35h-4.51v3.01h5.41c.18,0,.27,.12,.27,.35v.64c0,.23-.09,.35-.27,.35h-12.47c-.16,0-.25-.12-.25-.35v-.64c0-.23,.08-.35,.25-.35h5.58v-3.01h-4.43c-.16,0-.25-.12-.25-.35v-.64c0-.23,.08-.35,.25-.35Z"/>
        <path class="cls-1" d="M100.03,141.42l1.62,.92c.07,.14,.1,.21,.1,.23,0,.12-.12,.18-.35,.18-.33,0-.54,.08-.64,.25-.68,1.22-1.33,2.32-1.95,3.32,.49,.45,.99,.96,1.5,1.52,.19-.3,.36-.58,.51-.84,.77-1.18,1.4-2.24,1.91-3.18,.98,.79,1.48,1.22,1.48,1.29,0,.11-.08,.16-.23,.16-.31,0-.51,.05-.59,.16-1.18,1.98-2.34,3.8-3.49,5.46,.94-.11,2.04-.22,3.3-.33-.19-.62-.43-1.23-.72-1.85,0-.08,.36-.3,1.07-.66,.41,.92,.75,1.76,1.03,2.52,.23,.71,.44,1.46,.62,2.24,0,.05-.44,.19-1.31,.41-.05-.48-.18-1.07-.39-1.76l-2.07,.45v8.47c0,.15-.11,.23-.33,.23h-.82c-.22,0-.33-.08-.33-.23v-8.16l-2.87,.59c-.34,.4-.53,.59-.57,.59-.05,0-.19-.66-.41-1.99,0-.08,.68-.2,2.03-.35,.6-.86,1.13-1.64,1.6-2.34-.75-.68-1.33-1.17-1.74-1.46-.59-.42-1.22-.79-1.89-1.11,0-.12,.29-.49,.88-1.09,.05-.1,.12-.14,.18-.14,.22,.15,.44,.31,.66,.49,.4-.6,.75-1.19,1.05-1.76,.55-1,.94-1.75,1.17-2.26Zm-2.3,12.55c1.04,.22,1.56,.38,1.56,.49,0,.15-.08,.26-.25,.33-.18,.11-.27,.25-.29,.41-.15,1.29-.35,2.34-.59,3.18-.14,.46-.3,.94-.49,1.42-.07,.11-.13,.16-.18,.16-.46-.14-.87-.23-1.21-.29-.12-.03-.18-.1-.18-.21,.31-.62,.59-1.29,.82-2.03s.42-1.82,.57-3.24c0-.15,.08-.23,.25-.23Zm5.91,0s.07,.05,.08,.16c.4,1.08,.86,2.8,1.39,5.17,0,.11-.38,.23-1.15,.35-.18,0-.27-.08-.27-.23-.23-1.6-.58-3.3-1.05-5.11,0-.12,.33-.24,.98-.35Zm1.64-9.76h4.18v-2.38c0-.16,.05-.25,.16-.25,.98,.08,1.48,.19,1.48,.33,0,.12-.05,.26-.16,.41v1.89h4.18c.16,0,.25,.11,.25,.33v.66c0,.23-.08,.35-.25,.35h-4.18v7.14h2.38v-5.25c0-.11,.08-.16,.25-.16,.98,0,1.48,.08,1.48,.23,0,.16-.05,.26-.16,.29-.11,.01-.16,.14-.16,.39v6.97c0,.15-.11,.23-.33,.23h-.82c-.16,0-.25-.08-.25-.23v-1.17h-2.38v4.7c0,.21,.05,.31,.16,.31h1.89c.4,0,.78-.74,1.15-2.21l1.31,.82c-.55,1.86-1.23,2.79-2.05,2.79h-2.87c-.71,0-1.07-.33-1.07-1v-5.4h-2.36v1.8c0,.18-.11,.27-.34,.27h-.81c-.16,0-.24-.09-.24-.27v-8.35c0-.11,.08-.16,.24-.16,.97,0,1.46,.08,1.46,.23,0,.16-.05,.26-.16,.29-.1,.01-.14,.14-.14,.39v4.51h2.36v-7.14h-4.18c-.16,0-.25-.12-.25-.35v-.66c0-.22,.08-.33,.25-.33Z"/>
        <path class="cls-1" d="M120.09,146.92c.72,.4,1.33,.76,1.8,1.09,.55,.42,1.01,.81,1.39,1.15,0,.01-.04,.07-.12,.16-.38,.59-.59,.88-.62,.88-.6-.53-1.24-1.02-1.91-1.46-.55-.36-1-.61-1.37-.76,0-.07,.22-.38,.66-.92,.07-.1,.12-.14,.16-.14Zm3.36,4.51c.07,0,.12,.05,.14,.16,.34,.78,.51,1.19,.51,1.23,0,.11-.03,.21-.1,.31-.62,1.64-1.2,3.04-1.74,4.18-.29,.66-.64,1.37-1.07,2.13-.08,.21-.12,.46-.12,.76,0,.18-.05,.27-.16,.27-.1,0-.54-.44-1.33-1.33-.08-.04-.13-.12-.14-.25,0-.11,.03-.21,.08-.29,.38-.41,.77-.92,1.15-1.54,.52-.86,1.03-1.83,1.52-2.91,.45-.92,.83-1.77,1.15-2.56,.04-.11,.08-.16,.12-.16Zm-2.13-9.76c.7,.37,1.26,.7,1.7,1,.52,.4,.96,.75,1.33,1.05,0,.03-.03,.09-.1,.18-.41,.6-.62,.9-.64,.9-.57-.51-1.18-.96-1.8-1.37-.53-.31-.97-.55-1.31-.7,0-.07,.21-.38,.64-.92,.07-.1,.13-.14,.18-.14Zm4.76,6.58h10.83c.22,0,.33,.08,.33,.23v3.04h1.23c.16,0,.25,.11,.25,.33v.68c0,.21-.08,.31-.25,.31h-1.23v3.77c0,.16-.11,.25-.33,.25h-.82c-.22,0-.33-.08-.33-.25v-.47h-3.69v3.1c0,1.04-.85,1.56-2.54,1.56h-1.64c-.1,0-.14-.12-.14-.37-.01-.31-.13-.68-.35-1.11v-.08c.72,.11,1.41,.16,2.05,.16,.77,0,1.15-.24,1.15-.72v-2.54h-4.35c-.16,0-.25-.12-.25-.35v-.64c0-.23,.08-.35,.25-.35h4.35v-1.97h-5.58c-.16,0-.25-.1-.25-.31v-.68c0-.22,.08-.33,.25-.33h5.58v-1.97h-4.51c-.16,0-.25-.11-.25-.33v-.66c0-.21,.08-.31,.25-.31Zm-.16-3.61c.08,0,.14,.03,.16,.08,.57,.74,1.09,1.52,1.56,2.36,0,.19-.04,.29-.12,.31-.42,.29-.77,.43-1.03,.43-.49-1.05-.96-1.93-1.39-2.62,0-.12,.27-.31,.82-.55Zm10.83-1.91c-1.35,.42-3.14,.75-5.37,.96-1.63,.18-3.31,.27-5.04,.27-.18,0-.29-.09-.35-.27-.16-.33-.32-.59-.47-.78,0-.18,.05-.27,.16-.27,2.62,0,4.5-.07,5.62-.21,1.79-.12,3.34-.44,4.66-.94,.14-.05,.29-.08,.47-.08,.08,0,.17,.05,.27,.14,.53,.57,.8,.88,.8,.92,0,.22-.05,.33-.16,.33l-.57-.08Zm-5.91,1.56c.08,0,.14,.03,.16,.08,.45,.78,.86,1.6,1.23,2.46,0,.21-.04,.31-.12,.33-.46,.33-.83,.49-1.11,.49-.37-1.08-.72-1.98-1.07-2.71,0-.14,.3-.36,.9-.66Zm1.23,5.25v1.97h3.69v-1.97h-3.69Zm0,3.28v1.97h3.69v-1.97h-3.69Zm4.27-8.92l1.13,.45c.18,.07,.27,.16,.27,.29,0,.1-.06,.16-.18,.21-.15,0-.25,.07-.29,.21-.42,1.11-.85,1.97-1.27,2.58-.1,.12-.17,.18-.23,.18-.08,0-.18-.04-.31-.12-.27-.12-.53-.24-.76-.35-.11-.04-.16-.07-.16-.08,0-.05,.03-.11,.08-.16,.4-.53,.7-1,.9-1.39,.3-.53,.52-1.06,.66-1.58,.04-.15,.1-.23,.16-.23Z"/>
        <path class="cls-1" d="M151.56,146.26l1.68,1.11c.08,.11,.12,.18,.12,.21,0,.15-.09,.24-.27,.27-.37,.01-.58,.09-.64,.23-.38,.67-.82,1.38-1.31,2.13h9.93c.16,0,.25,.08,.25,.25v.82c0,.22-.08,.33-.25,.33h-4.12c-.25,.74-.53,1.42-.86,2.05-.45,.92-.96,1.69-1.54,2.32-.11,.15-.23,.29-.35,.41,.22,.11,.43,.21,.64,.31,2.16,1.09,3.99,2.08,5.5,2.97,0,.01-.04,.07-.12,.16-.44,.64-.67,.96-.7,.96-2.04-1.23-4.19-2.37-6.46-3.4-.19,.14-.39,.27-.59,.41-.77,.51-1.7,.99-2.79,1.46-1.33,.56-2.91,1.07-4.76,1.54-.14,0-.22-.05-.25-.14-.19-.26-.4-.58-.64-.96-.12-.1-.18-.19-.18-.29,.37,0,.86-.09,1.48-.27,.81-.15,1.67-.37,2.58-.66,1.23-.44,2.28-.9,3.14-1.37,.19-.14,.38-.27,.55-.39-1.57-.68-2.94-1.2-4.1-1.54-.3,.36-.62,.72-.94,1.11-.11,0-.21-.03-.29-.1-.26-.14-.54-.25-.84-.35-.07-.03-.1-.1-.1-.21,1.27-1.53,2.25-2.8,2.93-3.79,.05-.07,.11-.14,.16-.23h-5.56c-.16,0-.25-.11-.25-.33v-.82c0-.16,.08-.25,.25-.25h6.48c.51-.75,.96-1.5,1.35-2.24,.34-.64,.57-1.15,.7-1.52,.05-.12,.11-.18,.16-.18Zm.08-4.51c1.11,0,1.66,.09,1.66,.27s-.08,.28-.23,.31c-.14,.01-.21,.15-.21,.41v1.09h7.22c.22,0,.33,.08,.33,.23v4.12c0,.15-.11,.23-.33,.23h-.82c-.22,0-.33-.08-.33-.23v-3.06h-14.27v3.06c0,.15-.11,.23-.33,.23h-.82c-.22,0-.33-.08-.33-.23v-4.04c0-.21,.11-.31,.33-.31h7.79v-1.8c0-.18,.11-.27,.33-.27Zm3.79,9.84h-5.19l-.04,.08c-.48,.68-1.08,1.47-1.8,2.36,1.65,.6,3.12,1.18,4.41,1.72,.03-.03,.05-.05,.08-.06,.62-.6,1.14-1.29,1.58-2.05,.33-.53,.65-1.22,.96-2.05Z"/>
        <path class="cls-1" d="M173.33,143.58h-2.69c-.16,0-.25-.11-.25-.33v-.83c0-.15,.08-.23,.25-.23h4.76c.21,0,.36,.07,.47,.21,.94,1.86,1.89,3.17,2.83,3.93,1.19,1.17,3.09,1.99,5.7,2.49,.29,.03,.43,.12,.43,.29,0,.07-.05,.14-.14,.23-.26,.25-.5,.48-.72,.7-.1,.14-.22,.21-.37,.21-.75-.21-1.44-.43-2.05-.68v.6c0,.22-.08,.33-.25,.33h-5.5v3.26h5.33c.16,0,.25,.08,.25,.24v.81c0,.23-.08,.34-.25,.34h-5.33v3.63h7.71c.16,0,.25,.08,.25,.23v.83c0,.22-.08,.33-.25,.33h-17.14c-.16,0-.25-.11-.25-.33v-.83c0-.15,.08-.23,.25-.23h7.88v-3.63h-5.5c-.15,0-.23-.11-.23-.34v-.81c0-.16,.08-.24,.23-.24h5.5v-3.26h-5.72c-.18,0-.27-.11-.27-.33v-.45c-1.09,.57-1.72,.86-1.89,.86-.1,0-.18-.09-.27-.27-.21-.23-.44-.49-.7-.78-.12-.11-.18-.2-.18-.27,1.37-.48,2.54-.97,3.51-1.48,.94-.55,1.9-1.24,2.87-2.09,.48-.48,1.05-1.18,1.72-2.09Zm-3.98,5.5h11.03c-1.18-.53-2.11-1.11-2.81-1.74-.83-.77-1.72-1.98-2.67-3.65-.46,.74-.96,1.37-1.48,1.91-.68,.79-1.39,1.5-2.13,2.11-.6,.48-1.25,.94-1.95,1.37Z"/>
        <path class="cls-1" d="M198.17,148.23c.75,0,1.42,.29,2.01,.88,.56,.59,.84,1.28,.84,2.07,0,.75-.28,1.42-.84,2.01-.59,.57-1.26,.86-2.01,.86-.79,0-1.48-.29-2.07-.86-.59-.59-.88-1.26-.88-2.01,0-.79,.29-1.48,.88-2.07s1.28-.88,2.07-.88Zm0,5.09c.56,0,1.06-.21,1.5-.64,.41-.44,.62-.94,.62-1.5s-.21-1.11-.62-1.56c-.44-.44-.94-.66-1.5-.66-.6,0-1.12,.22-1.56,.66s-.68,.97-.68,1.56,.23,1.06,.68,1.5c.44,.42,.96,.64,1.56,.64Z"/>
      </g>
      <rect class="cls-2" x="0" y="0" width="391" height="39" rx="19.5" ry="19.5"/>
      <g>
        <path class="cls-1" d="M58.84,30.17h-2.71l-10.47-15.75h-.05v15.75h-2.52V10.1h2.71l10.47,15.75h.05V10.1h2.52V30.17Z"/>
        <path class="cls-1" d="M80.64,24.51c0,1.71-.67,3.13-2,4.24-1.39,1.17-3.2,1.75-5.44,1.75-4.16,0-6.83-1.44-8.01-4.32-.29-.69-.46-1.51-.52-2.46l2.52-.22c.05,.77,.24,1.45,.55,2.05,.49,.95,1.34,1.64,2.54,2.08,.88,.33,1.81,.49,2.82,.49,1.46,0,2.63-.29,3.53-.88,.98-.62,1.48-1.47,1.48-2.54s-.51-1.89-1.53-2.43c-.69-.38-2.21-.85-4.57-1.39-1.97-.47-3.38-.98-4.24-1.53-1.53-.93-2.3-2.27-2.3-4.02,0-1.6,.63-2.93,1.89-3.96,1.26-1.06,2.97-1.59,5.14-1.59s3.99,.51,5.3,1.53c1.4,1.08,2.14,2.57,2.21,4.48l-2.54,.19c-.24-2.55-1.86-3.83-4.87-3.83-1.19,0-2.18,.19-2.98,.57-1.09,.51-1.64,1.32-1.64,2.43,0,.86,.34,1.5,1.01,1.91,.66,.44,1.91,.87,3.77,1.29,2.52,.55,4.29,1.12,5.33,1.72,1.7,1,2.54,2.48,2.54,4.43Z"/>
        <path class="cls-1" d="M100.23,12.48h-10.88v6.23h9.41v2.38h-9.41v9.08h-2.65V10.1h13.54v2.38Z"/>
        <path class="cls-1" d="M106.69,8.16h22.31c.29,0,.44,.11,.44,.33v23.87c0,.2-.15,.3-.44,.3h-1.09c-.29,0-.44-.1-.44-.3v-.9h-19.25v.9c0,.2-.15,.3-.44,.3h-1.09c-.29,0-.44-.1-.44-.3V8.48c0-.22,.15-.33,.44-.33Zm1.53,21.55h19.25V9.8h-19.25V29.7Zm9.62-5.8c.15,0,.22,.12,.22,.36,0,.86-.04,1.32-.11,1.39-2.26,.66-4.56,1.24-6.89,1.75-.26,.51-.47,.77-.66,.77-.16,0-.49-.73-.98-2.19,1.09-.16,2.41-.45,3.94-.85,1.53-.35,2.98-.74,4.35-1.18,.05-.04,.1-.05,.14-.05Zm-7.98-10.83h9.13c-.02-.58-.04-1.2-.05-1.86,0-.22,.07-.33,.22-.33l1.7,.14c.33,0,.49,.06,.49,.19,0,.24-.07,.39-.22,.46-.15,.07-.22,.32-.22,.74v.66h3.61c-.44-.36-.89-.71-1.37-1.04-.42-.27-.77-.46-1.04-.57,0-.11,.25-.49,.77-1.15,.07-.13,.15-.19,.22-.19,.56,.31,1.04,.6,1.42,.88,.42,.33,.78,.62,1.09,.88,0,.04-.05,.11-.14,.22-.37,.51-.61,.84-.74,.98h1.86c.15,0,.22,.11,.22,.33v.88c0,.29-.07,.44-.22,.44h-5.66c.02,1.04,.05,1.94,.11,2.71,.11,1.33,.32,2.56,.63,3.69,.11,.51,.24,.97,.38,1.37,.36-.66,.7-1.39,1.01-2.21,.42-.95,.74-1.98,.96-3.09,.04-.18,.13-.27,.27-.27,1.46,.51,2.19,.84,2.19,.98,0,.18-.11,.34-.33,.46-.22,0-.37,.1-.46,.3-.44,1.46-.96,2.77-1.56,3.94-.38,.75-.79,1.43-1.23,2.05,.27,.51,.56,.96,.88,1.34,.31,.22,.56,.33,.74,.33,.13,0,.27-.16,.44-.49,.22-.38,.44-.95,.66-1.7,.11,0,.21,.09,.3,.27,.22,.31,.49,.6,.82,.88,.2,.16,.3,.37,.3,.6-.38,.84-.73,1.5-1.04,1.97-.49,.67-.95,1.01-1.37,1.01-.22,0-.43-.05-.63-.16-.38-.18-.78-.5-1.2-.96-.38-.42-.76-.93-1.12-1.53-.78,.82-1.69,1.6-2.71,2.32-.11,.05-.23,.08-.36,.08-.22,0-.39-.1-.52-.3-.18-.29-.4-.55-.66-.77-.16-.07-.25-.19-.25-.36,0-.05,.05-.11,.16-.16,.47-.18,.96-.47,1.45-.88,.75-.53,1.4-1.15,1.97-1.86-.27-.67-.51-1.4-.71-2.19-.35-1.38-.6-2.81-.77-4.27-.09-.86-.17-1.9-.25-3.12h-9.19c-.15,0-.22-.15-.22-.44v-.88c0-.22,.07-.33,.22-.33Zm.77,3.39h6.56c.29,0,.44,.11,.44,.33v5.58c0,.22-.15,.33-.44,.33h-6.56c-.29,0-.44-.11-.44-.33v-5.58c0-.22,.15-.33,.44-.33Zm5.14,4.59v-2.95h-3.72v2.95h3.72Z"/>
        <path class="cls-1" d="M137.17,8.07h6.12c.47,0,.77,.05,.9,.16,.42,.4,.63,.75,.63,1.04l-3.25,7.11c-.02,.11-.03,.21-.03,.3,0,.07,.04,.15,.14,.22,.97,1.15,1.7,2.28,2.21,3.39,.4,1.06,.6,2.08,.6,3.06,0,1.57-.23,2.72-.68,3.45-.55,.91-1.41,1.37-2.6,1.37-.82,0-1.25-.16-1.29-.49-.07-.4-.19-.86-.36-1.37,0-.29,.04-.44,.11-.44l1.53,.22c.53,0,.87-.25,1.01-.74,.13-.51,.19-1.24,.19-2.19,0-.86-.24-1.79-.71-2.79-.51-1.15-1.28-2.21-2.3-3.2-.11-.13-.16-.22-.16-.27,0-.07,.04-.21,.14-.41l3.14-6.81h-3.83v22.53c0,.24-.15,.36-.44,.36h-1.09c-.29,0-.44-.12-.44-.36V8.38c0-.2,.15-.3,.44-.3Zm11.05-.9l1.42,.79c-.31,.6-.59,1.14-.85,1.61h3.14c.16,0,.3,.05,.41,.14,.31,.4,.46,.65,.46,.74-.37,1.33-.7,2.36-1.01,3.09-.38,.93-.78,1.69-1.18,2.27-.4,.58-.91,1.17-1.53,1.75-.67,.62-1.42,1.14-2.24,1.56-.53,.33-1.24,.61-2.13,.85-.2,0-.35-.06-.44-.19-.16-.31-.34-.6-.52-.88-.09-.09-.14-.17-.14-.25,0-.05,.04-.1,.14-.14,.51-.15,1.03-.33,1.56-.55,.64-.24,1.18-.53,1.64-.88-.24-.25-.48-.5-.74-.74-.38-.36-.7-.62-.96-.77,0-.09,.26-.44,.79-1.04,.07-.11,.14-.16,.19-.16,.49,.4,.9,.76,1.23,1.07,.22,.26,.42,.5,.6,.74,.38-.38,.72-.77,1.01-1.15-.26-.31-.52-.59-.79-.85-.38-.38-.7-.65-.96-.79,0-.09,.25-.44,.77-1.04,.09-.11,.16-.16,.22-.16,.49,.42,.9,.79,1.23,1.12,.13,.15,.25,.29,.36,.44,.2-.4,.37-.83,.52-1.29,.16-.36,.32-.82,.46-1.37h-3.04c-.37,.55-.76,1.07-1.18,1.56-.58,.62-1.17,1.16-1.75,1.61-.18,0-.33-.05-.44-.16-.29-.29-.59-.58-.9-.88-.04-.11-.05-.2-.05-.27,.55-.36,1-.71,1.37-1.04,.51-.46,1.05-1.08,1.61-1.86,.4-.53,.97-1.49,1.7-2.9Zm.33,18.29l1.53,1.15c.15,.15,.22,.26,.22,.36s-.06,.15-.19,.16c-.2,.04-.36,.11-.46,.22-.51,.8-1.06,1.53-1.64,2.19-.69,.75-1.57,1.49-2.62,2.24-.22,0-.37-.07-.44-.22-.4-.29-.73-.55-.98-.77-.15-.05-.22-.13-.22-.22,0-.05,.04-.11,.11-.16,.49-.2,.91-.46,1.26-.77,.69-.57,1.29-1.18,1.8-1.86,.46-.56,.96-1.28,1.5-2.13,.05-.13,.1-.19,.14-.19Zm-2.19-3.2h13.67c.22,0,.33,.15,.33,.44v.88c0,.29-.11,.44-.33,.44h-5.8v6.56c0,1.38-1.13,2.08-3.39,2.08h-1.42c-.13,0-.19-.17-.19-.52-.04-.4-.19-.88-.46-1.45v-.11c.69,.15,1.35,.22,1.97,.22,1.02,0,1.53-.33,1.53-.98v-5.8h-5.91c-.22,0-.33-.15-.33-.44v-.88c0-.29,.11-.44,.33-.44Zm3.06-4.38h7.55c.22,0,.33,.16,.33,.46v.85c0,.31-.11,.46-.33,.46h-7.55c-.22,0-.33-.15-.33-.46v-.85c0-.31,.11-.46,.33-.46Zm5.25-9.41c.49,1.71,.93,2.98,1.31,3.8,.15,.37,.32,.71,.52,1.04,.27-.24,.54-.49,.79-.77,.4-.44,.8-.98,1.2-1.64,.16-.22,.36-.52,.57-.9h-2.98c-.22,0-.33-.11-.33-.33v-.88c0-.22,.11-.33,.33-.33h3.83c.2,0,.36,.04,.49,.11l.63,.55c.05,.11,.08,.26,.08,.44-.27,.64-.6,1.32-.98,2.05-.42,.78-.88,1.5-1.37,2.13-.38,.46-.78,.88-1.18,1.26,.35,.46,.82,.98,1.42,1.56,.49,.42,1.06,.83,1.7,1.23,.33,.13,.69,.28,1.09,.46,.13,0,.19,.06,.19,.19s-.07,.25-.22,.36c-.26,.33-.52,.64-.79,.93-.11,.15-.25,.22-.41,.22-.98-.51-1.86-1.13-2.62-1.86-.69-.66-1.26-1.28-1.7-1.86-.55-.8-1.04-1.69-1.48-2.65-.47-1.11-.98-2.55-1.53-4.32,0-.2,.47-.46,1.42-.79Zm2.41,17.39c1.04,.78,1.9,1.5,2.57,2.16,.78,.82,1.46,1.57,2.02,2.24,0,.02-.05,.09-.14,.22-.55,.78-.83,1.18-.85,1.18-.86-1.04-1.77-2-2.73-2.87-.78-.69-1.44-1.19-1.97-1.5,0-.09,.29-.5,.88-1.23,.07-.13,.15-.19,.22-.19Z"/>
        <path class="cls-1" d="M167.2,11.98h9.52c.22,0,.33,.11,.33,.32v1.08c0,.31-.11,.46-.33,.46h-9.52c-.22,0-.33-.15-.33-.46v-1.08c0-.21,.11-.32,.33-.32Zm1.09,11.59h7.22c.29,0,.44,.11,.44,.33v8.09c0,.24-.15,.36-.44,.36h-1.09c-.29,0-.44-.12-.44-.36v-.98h-4.16v1.34c0,.2-.15,.3-.44,.3h-1.09c-.29,0-.44-.1-.44-.3v-8.34c0-.29,.15-.44,.44-.44Zm.11-7.66h7.11c.22,0,.33,.15,.33,.44v.9c0,.27-.11,.41-.33,.41h-7.11c-.22,0-.33-.14-.33-.41v-.9c0-.29,.11-.44,.33-.44Zm0,3.75h7.11c.22,0,.33,.14,.33,.41v.88c0,.29-.11,.44-.33,.44h-7.11c-.22,0-.33-.15-.33-.44v-.88c0-.27,.11-.41,.33-.41Zm.22-11.59h6.89c.22,0,.33,.14,.33,.41v.88c0,.29-.11,.44-.33,.44h-6.89c-.22,0-.33-.15-.33-.44v-.88c0-.27,.11-.41,.33-.41Zm1.2,21.19h4.16v-3.91h-4.16v3.91Zm8.2-5.69l1.86,.49c.15,.04,.22,.14,.22,.3,0,.11-.18,.28-.55,.52-.31,1.66-.58,2.88-.82,3.66-.24,.73-.51,1.44-.82,2.13-.22,0-.39-.05-.52-.14-.27-.16-.6-.28-.98-.36-.09-.07-.14-.16-.14-.27,.11-.2,.22-.43,.33-.68,.27-.55,.5-1.15,.68-1.8,.16-.6,.32-1.35,.46-2.24,.11-.47,.16-.97,.16-1.5,0-.07,.04-.11,.11-.11Zm.55-15.5h12.36c.22,0,.33,.14,.33,.41-.04,3.08-.14,5.3-.3,6.64-.18,1.62-.45,2.82-.79,3.58-.29,.84-1.13,1.26-2.52,1.26-1.13,0-1.71-.19-1.72-.57-.09-.42-.32-.92-.68-1.5v-.22c.88,.15,1.68,.22,2.41,.22,.58,0,.96-.28,1.12-.85,.18-.46,.33-1.34,.44-2.65,.11-.95,.19-2.48,.25-4.59h-4.29c-.13,1.17-.3,2.21-.52,3.12-.22,.91-.48,1.72-.79,2.43-.29,.66-.63,1.24-1.01,1.75-.44,.55-1,1.05-1.7,1.5-.66,.42-1.62,.88-2.9,1.37-.15,0-.25-.06-.3-.19-.27-.35-.52-.69-.74-1.04-.11-.09-.16-.15-.16-.16,0-.05,.04-.08,.11-.08,.89-.29,1.7-.64,2.41-1.04,.51-.27,.95-.59,1.31-.96s.68-.78,.9-1.2c.09-.13,.16-.25,.22-.38-.64-.47-1.29-.91-1.97-1.31-.71-.38-1.3-.66-1.78-.82,0-.11,.29-.52,.88-1.23,.09-.13,.16-.19,.22-.19,.95,.42,1.73,.83,2.35,1.23,.35,.24,.67,.46,.98,.66,.18-.62,.32-1.25,.41-1.89,.07-.51,.13-1.03,.16-1.56h-4.68c-.22,0-.33-.15-.33-.44v-.88c0-.27,.11-.41,.33-.41Zm2.3,14.63c1.31,.11,1.97,.26,1.97,.46,0,.15-.07,.32-.22,.52v6.12c0,.31,.07,.46,.22,.46h4.92c.46,0,.89-.84,1.31-2.52l1.75,1.09c-.67,2.19-1.5,3.28-2.49,3.28h-6.26c-.95,0-1.42-.44-1.42-1.33v-7.75c0-.24,.07-.36,.22-.36Zm3.83-2.62c.58,.98,1.06,1.9,1.42,2.73,.35,.75,.64,1.55,.88,2.41,0,.05-.58,.24-1.75,.55-.09-.55-.3-1.22-.63-2.02-.33-.93-.78-1.86-1.34-2.79,0-.11,.47-.4,1.42-.88Zm4.92,1.2c.73,1.13,1.31,2.18,1.75,3.14,.44,.86,.8,1.78,1.09,2.76,0,.07-.58,.26-1.75,.57-.13-.66-.39-1.45-.79-2.38-.44-1.08-1.01-2.15-1.72-3.23,0-.11,.47-.4,1.42-.88Z"/>
        <path class="cls-1" d="M198.14,11.98h8.07c.22,0,.33,.15,.33,.44v.88c0,.31-.11,.46-.33,.46h-8.07c-.24,0-.36-.15-.36-.46v-.88c0-.29,.12-.44,.36-.44Zm.52,11.81h6.56c.29,0,.44,.11,.44,.33v8.23c0,.2-.15,.3-.44,.3h-1.09c-.22,0-.33-.1-.33-.3v-1.34h-3.61v1.34c0,.2-.15,.3-.44,.3h-1.09c-.22,0-.33-.1-.33-.3v-8.09c0-.31,.11-.46,.33-.46Zm.11-7.88h6.56c.22,0,.33,.15,.33,.44v.9c0,.27-.11,.41-.33,.41h-6.56c-.22,0-.33-.14-.33-.41v-.9c0-.29,.11-.44,.33-.44Zm0,3.94h6.56c.22,0,.33,.15,.33,.44v.88c0,.29-.11,.44-.33,.44h-6.56c-.22,0-.33-.15-.33-.44v-.88c0-.29,.11-.44,.33-.44Zm.33-11.79h6.23c.22,0,.33,.14,.33,.41v.88c0,.29-.11,.44-.33,.44h-6.23c-.22,0-.33-.15-.33-.44v-.88c0-.27,.11-.41,.33-.41Zm1.09,21.19h3.61v-3.69h-3.61v3.69Zm8.53-21.3h5.8c.18,0,.34,.05,.46,.14,.35,.38,.52,.62,.52,.71-.35,1.2-.67,2.13-.96,2.79-.38,.82-.76,1.49-1.12,2-.35,.47-.75,.93-1.2,1.37h6.92c-.27-.36-.53-.73-.77-1.09-.66-.93-1.54-2.62-2.65-5.06l1.2-1.09c.35,.75,.67,1.42,.98,2.02,.07-.05,.13-.11,.16-.16,.35-.25,.67-.56,.98-.93,.27-.35,.51-.72,.71-1.12,.04-.09,.07-.14,.11-.14l1.26,.9c.18,.11,.27,.25,.27,.41,0,.15-.11,.22-.33,.22-.16,0-.27,.05-.33,.16-.75,.84-1.46,1.49-2.13,1.94,.2,.35,.39,.64,.57,.88,.2,.31,.4,.61,.6,.9,.09-.07,.18-.15,.27-.22,.42-.31,.8-.67,1.15-1.07,.33-.4,.6-.81,.82-1.23,.05-.11,.1-.16,.14-.16l1.26,.9c.18,.11,.27,.26,.27,.44,0,.13-.11,.19-.33,.19-.18,0-.31,.05-.38,.16-.8,.89-1.56,1.6-2.27,2.13,.22,.26,.44,.49,.66,.71,.84,.86,1.65,1.42,2.43,1.7,0,.15-.07,.25-.22,.3-.51,.46-.89,.82-1.15,1.09-.05,.09-.18,.14-.38,.14-.91-.62-1.79-1.46-2.62-2.52v.9c0,.27-.1,.41-.3,.41h-7.36c-.22,0-.33-.14-.33-.41v-.71c-.53,.4-1.08,.74-1.64,1.01-.53,.29-1.22,.56-2.08,.79-.24,0-.4-.08-.49-.25-.18-.27-.37-.55-.57-.82-.09-.11-.14-.19-.14-.25,0-.09,.04-.15,.11-.16,.49-.13,.99-.28,1.5-.46,.91-.35,1.68-.79,2.3-1.34-.33-.35-.67-.67-1.01-.96-.46-.38-.84-.66-1.15-.82,0-.09,.25-.47,.77-1.15,.09-.11,.16-.16,.22-.16,.62,.44,1.13,.83,1.53,1.18,.29,.29,.55,.56,.77,.79,.15-.16,.28-.34,.41-.52,.4-.55,.73-1.18,.98-1.91,.13-.29,.25-.65,.38-1.07h-4.62c-.15,0-.22-.1-.22-.3v-.9c0-.2,.07-.3,.22-.3Zm9.84,18.02l1.67,.71c.27,.11,.41,.24,.41,.38,0,.13-.06,.21-.19,.25-.18,0-.3,.09-.36,.27-.44,1.28-.88,2.27-1.34,2.98h3.88c.2,0,.3,.15,.3,.44v.88c0,.31-.1,.46-.3,.46h-14.68c-.22,0-.33-.16-.33-.46v-.88c0-.29,.11-.44,.33-.44h9.68c-.24-.11-.46-.21-.68-.3-.16-.05-.25-.09-.25-.11,0-.05,.02-.13,.05-.22,.44-.64,.76-1.21,.96-1.72,.31-.66,.54-1.31,.68-1.97,.05-.18,.11-.27,.16-.27Zm-8.64-7h10.61c.29,0,.44,.11,.44,.33v5.69c0,.24-.15,.36-.44,.36h-10.61c-.29,0-.44-.12-.44-.36v-5.69c0-.22,.15-.33,.44-.33Zm2.21,7c.51,.77,.93,1.47,1.26,2.11,.31,.58,.57,1.19,.79,1.83,0,.07-.58,.25-1.75,.55-.07-.42-.26-.92-.55-1.5-.29-.69-.69-1.39-1.2-2.11,0-.11,.48-.4,1.45-.88Zm6.97-2.3v-3.06h-7.77v3.06h7.77Z"/>
        <path class="cls-1" d="M229.02,19.78h4.92c.36,0,.55,.1,.55,.3v6.59c0,.33,.02,.77,.05,1.31,.36,.71,.85,1.32,1.45,1.83,.77,.51,1.89,.77,3.36,.77h7.66c.67,0,1.81-.07,3.42-.22,1.49-.15,2.63-.32,3.42-.52,.11-.02,.22-.03,.33-.03,.15,0,.22,.08,.22,.25-.35,.62-.63,1.18-.85,1.7-.04,.4-.23,.6-.57,.6h-13.62c-1.95,0-3.52-.49-4.7-1.48-.53-.53-1.03-1.29-1.5-2.3-.91,.91-1.74,1.75-2.49,2.52-.44,.29-.67,.62-.68,.98,0,.33-.06,.49-.19,.49-.09,0-.21-.09-.36-.27l-1.39-2.02c.47-.05,1.78-.94,3.91-2.65,.33-.15,.49-.46,.49-.96v-5.17h-3.42c-.22,0-.33-.15-.33-.44v-.88c0-.27,.11-.41,.33-.41Zm.88-6.48c1,.49,1.82,.94,2.46,1.34,.75,.51,1.38,.98,1.91,1.42,0,.02-.05,.09-.14,.22-.55,.78-.83,1.18-.85,1.18-.82-.66-1.7-1.26-2.62-1.8-.75-.42-1.37-.73-1.86-.93,0-.11,.28-.52,.85-1.23,.09-.13,.17-.19,.25-.19Zm.98-5.91c.97,.46,1.77,.87,2.41,1.23,.73,.47,1.35,.9,1.86,1.29,0,.02-.05,.09-.14,.22-.55,.82-.83,1.23-.85,1.23-.8-.62-1.65-1.18-2.54-1.67-.73-.4-1.34-.69-1.83-.88,0-.09,.29-.5,.88-1.23,.07-.13,.15-.19,.22-.19Zm8.31,.46h10.83c.29,0,.44,.1,.44,.3v8.42h2.08c.36,0,.55,.11,.55,.33v10.94c0,.44-.37,.78-1.09,1.04-.67,.2-1.55,.33-2.62,.38-.2,0-.31-.1-.33-.3-.04-.4-.26-.99-.66-1.78,0-.05,.06-.08,.19-.08,1.22,0,1.94-.04,2.16-.11,.25-.11,.38-.26,.38-.46v-8.31h-12.69v10.28c0,.24-.15,.36-.44,.36h-1.09c-.29,0-.44-.12-.44-.36v-11.59c0-.22,.15-.33,.44-.33h1.86V8.16c0-.2,.15-.3,.44-.3Zm1.53,8.72h2.52v-4.16c0-.22,.15-.33,.44-.33h4.81v-2.62h-7.77v7.11Zm.55,3.72h7c.29,0,.44,.11,.44,.33v5.58c0,.24-.15,.36-.44,.36h-7c-.29,0-.44-.12-.44-.36v-5.58c0-.22,.15-.33,.44-.33Zm5.47,4.59v-2.93h-3.94v2.93h3.94Zm-1.53-8.31h3.28v-2.82h-3.28v2.82Z"/>
        <path class="cls-1" d="M259.74,14.28c.89,.49,1.62,.94,2.19,1.34,.67,.53,1.25,.99,1.72,1.39,0,.04-.05,.13-.14,.27-.6,.86-.92,1.29-.96,1.29-.73-.69-1.5-1.32-2.3-1.89-.66-.47-1.2-.8-1.64-.98,0-.09,.28-.5,.85-1.23,.09-.13,.18-.19,.27-.19Zm4.57,5.91c.09,0,.15,.07,.19,.22,.46,1.04,.68,1.6,.68,1.67,0,.13-.05,.25-.14,.36-.78,2.02-1.53,3.74-2.24,5.14-.38,.8-.85,1.69-1.39,2.65-.11,.24-.16,.54-.16,.9,0,.22-.07,.33-.22,.33s-.74-.58-1.78-1.75c-.09-.05-.16-.16-.19-.33,0-.15,.04-.26,.11-.36,.51-.51,1-1.15,1.48-1.91,.69-1.04,1.37-2.21,2.02-3.53,.58-1.15,1.08-2.21,1.48-3.17,.05-.15,.11-.22,.16-.22Zm-1.97-12.47c.93,.49,1.7,.95,2.3,1.37,.69,.49,1.28,.95,1.75,1.37,0,.04-.05,.12-.16,.25-.6,.86-.91,1.29-.93,1.29-.75-.67-1.54-1.29-2.38-1.86-.67-.46-1.23-.77-1.67-.96,0-.13,.29-.54,.88-1.23,.09-.15,.16-.22,.22-.22Zm11.4-.55c1.37,0,2.05,.11,2.05,.33,0,.26-.09,.4-.27,.44-.18,.02-.27,.2-.27,.55v.57h7.33c.15,0,.22,.1,.22,.3v.66c0,.29-.07,.44-.22,.44h-7.33v1.31h8.53c.31,0,.46,.11,.46,.33v2.76c0,.2-.15,.3-.46,.3h-1.08c-.22,0-.32-.1-.32-.3v-1.56h-8.45v1.5l6.56-.74c.16,0,.25,.11,.25,.33v.68c0,.27-.08,.41-.25,.41l-6.56,.74c.04,.53,.44,.79,1.2,.79h4.92c.46,0,.77-.06,.96-.19,.2-.09,.34-.39,.41-.9,.02-.07,.07-.11,.16-.11,.42,.26,.86,.39,1.31,.41,.22,.02,.33,.1,.33,.25-.26,.82-.57,1.38-.96,1.67-.27,.22-.72,.33-1.34,.33h-6.56c-1.31,0-1.97-.48-1.97-1.45v-.63l-2.73,.3c-.15,0-.22-.14-.22-.41v-.68c0-.22,.07-.33,.22-.33l2.73-.27v-1.7h-4.05v6.02c0,2.73-.19,4.9-.57,6.51-.24,1.33-.71,2.66-1.42,3.99-.38,.8-.92,1.57-1.61,2.3-.13,0-.22-.02-.27-.05-.31-.26-.65-.48-1.01-.68-.09-.09-.14-.21-.14-.36,.64-.66,1.21-1.57,1.72-2.73,.53-1.22,.89-2.5,1.09-3.83,.24-1.4,.36-3.12,.36-5.14v-7.22c0-.22,.11-.33,.33-.33h6.45V7.5c0-.22,.15-.33,.46-.33Zm-4.29,20.23l1.39,.55c.24,.11,.36,.22,.36,.33,0,.13-.05,.22-.16,.27-.15,0-.24,.1-.27,.3-.42,1.37-.82,2.44-1.2,3.23-.09,.18-.16,.27-.22,.27-.11,0-.25-.06-.41-.19-.33-.13-.64-.26-.93-.38-.13-.04-.19-.07-.19-.11s.02-.09,.05-.16c.38-.69,.67-1.29,.85-1.8,.27-.67,.47-1.34,.6-2,.04-.2,.08-.3,.14-.3Zm1.09-7.85h11.81c.29,0,.44,.1,.44,.3v6.02c0,.22-.15,.33-.44,.33h-11.81c-.29,0-.44-.11-.44-.33v-6.02c0-.2,.15-.3,.44-.3Zm1.42,2.6h3.5v-1.2h-3.5v1.2Zm3.5,2.62v-1.2h-3.5v1.2h3.5Zm-3.06,2.08c1.24,.11,1.86,.26,1.86,.44,0,.11-.11,.26-.33,.46v2.71c0,.22,.07,.33,.22,.33h5.03c.38,0,.75-.55,1.09-1.64l1.64,1.01c-.62,1.6-1.39,2.41-2.3,2.41h-6.12c-.95,0-1.42-.4-1.42-1.2v-4.18c0-.22,.11-.33,.33-.33Zm4.05-.19s.09,.02,.16,.05c.66,.38,1.34,.88,2.05,1.5,.05,.04,.08,.09,.08,.16,0,.09-.03,.16-.08,.22l-.49,.66c-.15,.07-.28,.11-.41,.11-.04,0-.1-.04-.19-.11-.62-.51-1.23-.93-1.83-1.26-.11-.04-.16-.08-.16-.14,0-.09,.02-.19,.05-.3l.57-.82c.09-.05,.17-.08,.25-.08Zm.88-5.71v1.2h3.61v-1.2h-3.61Zm3.61,3.83v-1.2h-3.61v1.2h3.61Zm.88,2.3c.67,.47,1.23,.9,1.67,1.29,.51,.51,.94,.96,1.29,1.34,0,.02-.04,.08-.11,.19-.49,.67-.75,1.01-.77,1.01-.55-.64-1.14-1.21-1.78-1.72-.51-.42-.94-.72-1.29-.9,0-.07,.25-.42,.77-1.04,.07-.11,.15-.16,.22-.16Z"/>
        <path class="cls-1" d="M293.79,13.95l1.53,1.18c.15,.15,.22,.26,.22,.36s-.05,.15-.16,.16c-.18,.04-.31,.11-.38,.22-.42,.88-.87,1.66-1.34,2.35-.58,.8-1.3,1.6-2.16,2.41-.24,0-.38-.07-.44-.22-.4-.27-.73-.53-.98-.77-.15-.05-.22-.13-.22-.22,0-.05,.03-.11,.08-.16,.42-.24,.77-.5,1.04-.79,.56-.6,1.06-1.27,1.48-2,.38-.62,.78-1.38,1.2-2.3,.04-.15,.08-.22,.14-.22Zm5.14,3.94c1.6,.57,2.41,.93,2.41,1.09,0,.15-.1,.26-.3,.33-.29,0-.5,.15-.63,.44-.47,1.53-1,2.94-1.59,4.21,.44,.6,.85,1.23,1.23,1.89,.69,1.04,1.29,2.12,1.78,3.23,.04,.11,.05,.21,.05,.3,0,.11-.44,.44-1.31,.98-.07,0-.15-.05-.22-.14-.78-1.68-1.61-3.13-2.49-4.38-.58,1-1.19,1.9-1.83,2.68-1.15,1.38-2.54,2.66-4.18,3.83-.16,.07-.32,.11-.46,.11-.2,0-.37-.12-.49-.36-.2-.27-.43-.51-.68-.71-.16-.09-.25-.22-.25-.38,0-.07,.06-.14,.19-.19,.62-.24,1.23-.62,1.83-1.15,1.02-.75,1.93-1.63,2.73-2.65,.67-.8,1.29-1.78,1.86-2.93-.2-.22-.4-.44-.6-.66-.82-.86-1.7-1.71-2.62-2.57-.07-.11-.11-.19-.11-.25,0-.07,.31-.46,.93-1.18,.11-.09,.24-.14,.38-.14,.77,.64,1.57,1.42,2.41,2.35,.15,.18,.29,.36,.44,.52,.51-1.22,.9-2.55,1.18-3.99,.04-.2,.15-.3,.36-.3Zm-2.41-10.72c1.38,0,2.08,.11,2.08,.33,0,.26-.09,.4-.27,.44-.18,.02-.27,.2-.27,.55v2.62h5.14c.22,0,.33,.16,.33,.46v.85c0,.29-.11,.44-.33,.44h-12.8c-.22,0-.33-.15-.33-.44v-.85c0-.31,.11-.46,.33-.46h5.69v-3.61c0-.22,.15-.33,.44-.33Zm3.17,6.7c.91,.91,1.65,1.77,2.21,2.57,.67,.98,1.25,1.87,1.72,2.65,0,.04-.05,.11-.14,.22-.53,.8-.81,1.2-.85,1.2-.73-1.26-1.51-2.41-2.35-3.45-.67-.86-1.24-1.46-1.7-1.8,0-.09,.28-.5,.85-1.23,.09-.11,.17-.16,.25-.16Zm7.44-6.59l1.89,.74c.2,.15,.3,.26,.3,.36,0,.16-.07,.27-.22,.33-.2,0-.33,.12-.38,.36-.27,.98-.53,1.82-.77,2.52h7.27c.22,0,.33,.14,.33,.41v.88c0,.29-.11,.44-.33,.44h-1.56c-.11,3.63-.37,6.29-.77,7.98-.51,2.22-1.2,4.09-2.08,5.61,.66,.95,1.33,1.71,2.02,2.3,.89,.82,1.94,1.47,3.14,1.94,0,.18-.09,.32-.27,.41-.35,.35-.68,.71-1.01,1.09-.16,.16-.28,.25-.36,.25-1.62-.98-2.68-1.75-3.17-2.3-.62-.53-1.18-1.18-1.67-1.94-.57,.64-1.19,1.21-1.86,1.72-1.06,.88-2.43,1.68-4.13,2.41-.49-.51-.93-.98-1.31-1.39,.89-.31,1.94-.9,3.14-1.78,1.22-.86,2.23-1.79,3.04-2.82-.33-.6-.62-1.25-.88-1.94-.49-1.15-.89-2.57-1.2-4.27-.24-1.35-.37-2.92-.38-4.7-.38,.58-.78,1.11-1.2,1.59-.24,0-.44-.03-.6-.08-.35-.13-.71-.26-1.09-.41-.11-.05-.16-.11-.16-.16,0-.09,.03-.16,.08-.22,.8-.89,1.51-1.99,2.13-3.28,.38-.75,.71-1.54,.98-2.38,.31-.89,.61-2.03,.9-3.42,.05-.15,.11-.22,.16-.22Zm-1.01,8.31h1.67c.02,1.73,.15,3.27,.38,4.62,.25,1.29,.6,2.51,1.04,3.64,.13,.31,.25,.61,.38,.9,.58-1.2,1.02-2.49,1.31-3.86,.44-1.7,.71-4.23,.82-7.6h-4.46c-.35,.77-.7,1.5-1.07,2.19-.04,.04-.06,.07-.08,.11Z"/>
        <path class="cls-1" d="M326.01,7.06c1.75,.57,2.62,.93,2.62,1.09,0,.2-.13,.3-.38,.3s-.38,.08-.38,.25c-.53,.98-1.21,2.08-2.05,3.28-.26,.42-.52,.81-.79,1.18,2.11-.2,4.25-.46,6.4-.79-.29-.82-.64-1.64-1.04-2.46,0-.11,.48-.39,1.45-.85,.58,1.28,1.07,2.45,1.45,3.53,.36,.97,.67,2.01,.93,3.12,0,.07-.58,.26-1.75,.57-.07-.6-.23-1.31-.46-2.13-2.75,.44-5.79,.84-9.11,1.2-.15,0-.27,.08-.38,.25-.07,.31-.22,.46-.44,.46s-.69-.85-1.42-2.54c.73-.05,1.46-.11,2.19-.16,.8-1.28,1.54-2.61,2.21-3.99,.33-.75,.58-1.48,.77-2.19,.02-.07,.08-.11,.19-.11Zm-3.06,9.95h9.41c.36,0,.55,.15,.55,.44v13.32c0,.56-.37,1-1.12,1.31-.67,.24-1.58,.4-2.71,.49-.2,0-.32-.12-.36-.36-.02-.38-.23-.97-.63-1.75,0-.05,.08-.08,.25-.08,1.24,0,1.97-.06,2.19-.19,.27-.11,.41-.31,.41-.6v-1.83h-6.45v4.59c0,.2-.15,.3-.44,.3h-1.09c-.29,0-.44-.1-.44-.3v-14.9c0-.29,.15-.44,.44-.44Zm1.53,4.48h6.45v-2.73h-6.45v2.73Zm0,4.48h6.45v-2.71h-6.45v2.71Zm20.56-15.09s-.07,.02-.11,.05c-.58,.4-1.24,.78-1.97,1.12-.86,.42-1.79,.78-2.79,1.09-.67,.22-1.53,.45-2.57,.68v1.97c0,.8,.51,1.2,1.53,1.2h2.95c1.06,0,1.69-.13,1.89-.38,.25-.2,.57-.98,.96-2.35,.24,.38,.63,.73,1.18,1.04,.24,.09,.36,.22,.36,.38-.53,1.59-.93,2.47-1.2,2.65-.26,.35-.84,.52-1.75,.52h-4.59c-2.19,0-3.28-.66-3.28-1.97V7.5c0-.22,.07-.33,.22-.33l1.86,.25c.22,.04,.33,.1,.33,.19,0,.2-.05,.32-.16,.36-.18,.02-.27,.12-.27,.3v3.8c.86-.2,1.64-.42,2.35-.66,.95-.33,1.83-.74,2.65-1.23,.62-.36,1.17-.77,1.64-1.23,.05-.02,.1-.03,.14-.03,.09,0,.2,.09,.33,.27,.8,.98,1.2,1.51,1.2,1.59,0,.15-.07,.22-.22,.22l-.66-.11Zm.33,13.12c-.05,0-.1,0-.14,.03-.6,.4-1.28,.77-2.02,1.09-.89,.42-1.86,.78-2.9,1.07-.71,.22-1.61,.44-2.71,.66v2.41c0,.8,.51,1.2,1.53,1.2h2.95c1.06,0,1.69-.13,1.89-.38,.25-.24,.57-1.09,.96-2.57,.24,.38,.63,.73,1.18,1.04,.24,.09,.36,.23,.36,.41-.53,1.69-.93,2.61-1.2,2.77-.26,.39-.84,.59-1.75,.59h-4.59c-2.19,0-3.28-.66-3.28-1.97v-9.95c0-.22,.07-.33,.22-.33l1.86,.25c.22,.02,.33,.08,.33,.19,0,.2-.05,.32-.16,.36-.18,.02-.27,.12-.27,.3v3.91c.91-.2,1.75-.41,2.52-.63,.97-.33,1.88-.72,2.73-1.18,.64-.36,1.21-.77,1.72-1.2h.14c.11,0,.21,.08,.3,.25,.82,.98,1.23,1.51,1.23,1.59,0,.15-.07,.22-.22,.22l-.66-.11Z"/>
      </g>
    </g>
  </g>
</svg>