<?xml version="1.0" encoding="UTF-8"?>
<svg id="_圖層_2" data-name="圖層 2" xmlns="http://www.w3.org/2000/svg" viewBox="0 0 205.7 64.86">
  <g id="menu">
    <g>
      <path d="M15.83,10.69c.36,.13,.69,.18,1,.13,.53,0,.73,.62,.6,1.87,0,.85-.83,3.03-2.47,6.54-.58,1.2-.85,1.96-.8,2.27,.04,.27,.36,1,.93,2.2,2,4.19,2.87,8.1,2.6,11.75-.09,.8-.49,1.23-1.2,1.27-2.27-.04-4.9-1-7.88-2.87-1.07-.67-1.89-1.49-2.47-2.47v.53c-.45,4.23-.73,9.31-.87,15.23-.04,4.05,.13,6.77,.53,8.15,.18,.62,.24,1.16,.2,1.6-.18,.62-.49,1.02-.93,1.2-.49,.13-.82,.04-1-.27-.36-.49-.56-.94-.6-1.34-.13-.84-.29-1.42-.47-1.74-.22-.36-.31-.62-.27-.8,.13-.8,.22-3.03,.27-6.68,.18-4.76,.4-8.44,.67-11.02,.44-4.01,.76-7.64,.93-10.89,.22-3.61,.18-5.74-.13-6.41-.31-.76-.18-1.34,.4-1.74,.44-.27,.96-.18,1.54,.27,.44,.4,.69,.89,.73,1.47,0,.93-.22,4.01-.67,9.22,.71,1.83,2.14,3.36,4.27,4.61,2.49,1.43,4.1,1.98,4.81,1.67,.36-.27,.31-1.6-.13-4.01-.53-2.76-1.47-5.54-2.8-8.35-.36-.8-.33-1.56,.07-2.27,2.18-4.14,3.07-6.43,2.67-6.88-.36-.36-2.09,.13-5.21,1.47-4.63,1.92-7.81,2.78-9.55,2.6-.45-.09-.65-.4-.6-.94,.13-.53,.29-.82,.47-.87,2.8-.13,7.3-1.56,13.49-4.27,.71-.36,1.34-.44,1.87-.27Zm6.08,2.27c.27-.94,.69-1.31,1.27-1.14,2.18,.71,6.23,.18,12.15-1.6,.85-.22,1.69-.4,2.54-.53v-2.74c-.09-2.23-.67-3.67-1.74-4.34-.31-.27-.38-.53-.2-.8,.22-.27,.42-.49,.6-.67,.27-.22,.69-.18,1.27,.13,1.25,.71,1.96,1.94,2.14,3.67,.04,.98,.07,2.43,.07,4.34,3.78-.76,6.23-1.11,7.35-1.07,.49,.04,.96,.22,1.4,.53,.13,.13,.29,.2,.47,.2,1.6,.53,1.65,1.29,.13,2.27-.49,.27-1.03,.53-1.6,.8-4.27,1.69-6.95,2.52-8.01,2.47-.13,.93-.22,1.96-.27,3.07,.49-.18,1.02-.29,1.6-.33,3.65-.62,6.37-.73,8.15-.33,.8,.22,1.56,.82,2.27,1.8,.36,.8,.56,1.56,.6,2.27,.04,.71-.29,1.87-1,3.47-1.6,3.83-2.74,6.63-3.41,8.41-.22,.62-.76,1.63-1.6,3.01-.22,.36-.56,.53-1,.53-.53,.04-.87,0-1-.13-.22-.18-.25-.42-.07-.73,.09-.31,.2-.56,.33-.73-1.92,.18-3.96,.67-6.14,1.47-.09,4.41-.04,8.55,.13,12.42,5.21,.49,10.28,1.63,15.23,3.41,3.03,1.16,4.81,2.09,5.34,2.8,.31,.45,.56,.73,.73,.87,.67,.58,.91,1.29,.74,2.14-.18,.62-.56,.87-1.14,.73-.22-.13-.69-.22-1.4-.27-.85-.09-1.56-.22-2.14-.4-.62-.27-.91-.56-.87-.87,.04-.27,.33-.38,.87-.33,.94,.09,1.47,.07,1.6-.07,.22-.67-1.89-1.74-6.34-3.21-4.1-1.42-8.28-2.36-12.56-2.81,.22,4.99,.18,9.04-.13,12.15-.09,1.16-.53,1.76-1.33,1.8-.53,0-1.09-.29-1.67-.87-.49-.36-1.36-.87-2.6-1.54-1.74-.94-4.3-2.76-7.68-5.48-.36-.36-.38-.69-.07-1,.27-.31,.62-.31,1.07,0,5.48,3.92,8.82,5.79,10.02,5.61,.53-.04,.6-3.69,.2-10.95-3.12-.27-6.3-.31-9.55-.13-.27,.09-.49,.22-.67,.4-3.83,2.36-7.5,4.5-11.02,6.41-.4,.22-1,.31-1.8,.27-.18-.09-.29-.22-.33-.4-.09-.27-.11-.42-.07-.47,.45-.53,1.16-1.02,2.14-1.47,3.29-1.91,6.28-3.63,8.95-5.14-.04-.13-.07-.22-.07-.27-.13-.58,.4-.94,1.6-1.07,.22-.04,.47-.04,.73,0,1.91-1.29,3.76-2.69,5.54-4.21,1.83-1.6,3.07-3.01,3.74-4.21,.27-.53,.42-.96,.47-1.27v-.53s-.04-.07,0-.07c0-.22,.02-.42,.07-.6v-.6c-.09-.04-.16-.04-.2,0-2.36,.76-4.16,1.11-5.41,1.07l-.2,.2c-.4,.04-.8,.27-1.2,.67-.36,.4-.56,.27-.6-.4,0-.4-.09-.69-.27-.87-.22-.18-.69-1.54-1.4-4.07-.93-3.25-1.56-5.83-1.87-7.75-.31-1.51-.49-2.89-.53-4.14-.04-.53,.09-.87,.4-1,.31-.09,.62-.04,.94,.13,.18,.09,.29,.22,.33,.4,.4-.27,1-.53,1.8-.8,2.58-1.07,5.81-1.94,9.68-2.6,.22-2.36,.36-4.43,.4-6.21-.71,.13-1.43,.29-2.14,.47-6.41,1.74-10.82,2.45-13.22,2.14-.67-.18-.85-.62-.54-1.34Zm4.34,10.35c.13,1.2,.4,2.63,.8,4.27,.98-.27,2.74-.82,5.28-1.67,1.6-.71,3.09-1.22,4.47-1.54,.04-.31,.09-.62,.13-.94,.13-1.2,.22-2.34,.27-3.41-3.65,.71-7.3,1.8-10.95,3.27Zm3.21,12.29c.49-.49,1.09-1.02,1.8-1.6,1.11-.98,2.8-2.63,5.08-4.94,.04-.98,.13-1.89,.27-2.74-2.05,.76-3.81,1.47-5.28,2.14-1.07,.45-2.29,.82-3.67,1.13,.76,2.63,1.36,4.63,1.8,6.01Zm6.41,7.35c-.45,.45-.89,.93-1.33,1.47-1.25,1.16-2.89,2.47-4.94,3.94,2.14-.09,4.3-.04,6.48,.13-.13-1.91-.2-3.76-.2-5.54Zm.27-10.82c-.53,.49-1.09,1.02-1.67,1.6-1.6,1.51-2.34,2.36-2.2,2.54,.18,.13,.89-.09,2.14-.67,.49-.27,1.02-.49,1.6-.67,.04-.93,.09-1.87,.13-2.8Zm3.27-12.56c-.09,0-.13,.02-.13,.07,0,.49-.02,1-.07,1.54-.18,.85-.27,1.69-.27,2.54,.89-.27,1.6-.42,2.14-.47,1.29-.04,1.58,.69,.87,2.2-.8,1.16-1.96,2.6-3.47,4.34-.09,1.47-.16,2.89-.2,4.27,1.51-.58,3.07-1,4.67-1.27,.4-.13,.67-.22,.8-.27,.09-.18,.04-.36-.13-.53-.13-.18-.22-.36-.27-.53-.09-.53,0-.82,.27-.87,.31-.09,.53,.02,.67,.33,.27,.36,.49,.62,.67,.8,.22,.22,.4,.47,.53,.73,.53-1.07,.94-1.96,1.2-2.67,.71-1.96,1.34-3.61,1.87-4.94,.58-1.47,.89-2.63,.93-3.47,.04-.62-.16-1.27-.6-1.94-1.2-.76-4.36-.71-9.48,.13Zm.53-8.28c-.09,.62-.13,1.29-.13,2,1.07-.27,2.36-.69,3.87-1.27,2-.76,2.98-1.2,2.94-1.34-.27-.44-2.49-.24-6.68,.6Z"/>
      <path d="M97.07,20.97c2.71-.76,4.61-1.13,5.68-1.13,.67,0,1.02,.16,1.07,.47-.04,.4-.09,.69-.13,.87-.09,.31-.49,.53-1.2,.67-1.33,.36-2.27,.82-2.8,1.4-.45,.58-.89,.65-1.34,.2-.27-.31-.96-.33-2.07-.07v.27c-.31,1.83-.49,3.61-.53,5.34-.04,.18-.07,.36-.07,.53-.4,4.63-.6,8.15-.6,10.55,.31-.27,.62-.53,.94-.8,2.36-2.09,4.43-4.1,6.21-6.01,.31-.31,.62-.38,.93-.2,.31,.27,.31,.62,0,1.07-1.87,2.49-3.76,4.63-5.68,6.41-.85,.67-1.62,1.29-2.34,1.87,.13,6.28,.11,9.95-.07,11.02-.22,1.02-.27,2.07-.13,3.14,.09,1.11,.07,1.83-.07,2.14-.13,.31-.13,.8,0,1.47,.09,.49,.04,.87-.13,1.14-.18,.31-.62,.33-1.34,.07-.76-.22-1.05-.62-.87-1.2,.22-.76,.27-1.6,.13-2.54-.09-1.47,.02-2.94,.33-4.41,.27-1.29,.31-4.36,.13-9.22-2.4,1.78-4.16,3.03-5.28,3.74-1.78,.98-3.56,1.67-5.34,2.07-.49,.18-.96,.49-1.4,.94-.18,.18-.42,.18-.74,0-.31-.18-.56-.47-.73-.87-.18-.4-.13-.76,.13-1.07,.22-.36,.49-.73,.8-1.14,.62-1.25,2.09-3.61,4.41-7.08,2.94-4.45,5.81-8.57,8.62-12.35,.09-.13,.2-.22,.33-.27,.13-1.38,.27-2.76,.4-4.14-.27,.04-.47,.09-.6,.13-1.87,.53-4.3,1.42-7.28,2.67-2.58,1.11-4.74,1.89-6.48,2.34-1.56,.4-2.63,.53-3.21,.4-.62-.13-.96-.53-1-1.2-.04-.62,0-1,.13-1.14,.18-.13,.56-.11,1.14,.07,.67,.18,2.03-.02,4.07-.6,2.09-.67,4.56-1.56,7.41-2.67,1.91-.8,3.89-1.49,5.94-2.07,.22-3.52,.36-7.5,.4-11.95,0-2.76-.07-4.23-.2-4.41-.18-.31-.67-.62-1.47-.93-.62-.31-.91-.62-.87-.94,.09-.31,.29-.53,.6-.67,.4-.18,1.02-.11,1.87,.2,.67,.27,1.16,.69,1.47,1.27,.36,.67,.54,1.54,.54,2.6,0,5.61-.13,10.35-.4,14.23,.18-.09,.4-.16,.67-.2Zm-3.61,11.42c-3.56,4.5-6.7,9.02-9.42,13.56-.31,.67-.38,1.14-.2,1.4,.13,.18,.6,.04,1.4-.4,2.63-1.56,5.23-3.29,7.81-5.21-.04-3.12,.09-6.23,.4-9.35Zm36.46,21.37c-.22,.98-.53,1.69-.94,2.14-.93,.8-1.63,1.18-2.07,1.13-.45-.04-.96-.29-1.54-.73-1.11-1.2-1.76-2.16-1.94-2.87-.04-.09-.07-.16-.07-.2-.36-.04-.69-.07-1-.07-1.34,.04-3.56,.29-6.68,.73-2.85,.4-4.47,.6-4.88,.6-.45,0-.96-.16-1.54-.47-.4,.22-.76,.31-1.07,.27-.27-.09-.42-.62-.47-1.6-.04-6.9,.13-12.31,.53-16.23,.44-4.01,.6-6.75,.47-8.21s-.36-2.34-.67-2.6c-.31-.22-.49-.56-.53-1,0-.27,.09-.49,.27-.67,.31-.31,.69-.44,1.14-.4,.49,.09,.82,.29,1,.6,.18,.31,.33,.76,.47,1.34v.07h.67c-.04-.09-.07-.16-.07-.2-.04-.18,.16-.56,.6-1.14,1.42-1.56,3-3.69,4.74-6.41,1.51-2.45,2.43-4.3,2.74-5.54,.18-.98,.04-1.62-.4-1.94-1.2-.71-1.67-1.29-1.4-1.74,.22-.4,.8-.53,1.74-.4,.8,.13,1.49,.67,2.07,1.6,.45,.71,.51,1.56,.2,2.54-.36,1.25-1.43,3.3-3.21,6.14-1.83,2.94-3.47,5.1-4.94,6.48,1.29-.44,2.96-.96,5.01-1.54,1.83-.49,3.43-.76,4.81-.8,1.56-.4,2.96-.51,4.21-.33,1.16,.31,2.03,.8,2.6,1.47,.49,.53,.93,1.54,1.34,3.01-.49,7.21-.71,13.25-.67,18.1,.04,4.05-.13,7.01-.53,8.88Zm-1.2-26.78c-.31-.76-.67-1.34-1.07-1.74-.4-.4-.93-.62-1.6-.67-.53-.13-.96-.18-1.27-.13-1.51,.04-3.43,.4-5.74,1.07-3.25,.89-5.41,1.56-6.48,2-.71,.27-1.36,.4-1.94,.4,.27,2.85,.24,5.63-.07,8.35-.04,.31-.09,.62-.13,.93,.27,.04,.62,.04,1.07,0,1.47-.31,3.34-.89,5.61-1.74,1.65-.58,2.89-.93,3.74-1.07,.49-.04,1.02,.22,1.6,.8,.58,.58,.87,1.2,.87,1.87-.04,.71-.42,1.43-1.13,2.14-.89,.94-4.76,3.96-11.62,9.08-.36,.13-.62,.27-.8,.4-.09,1.29-.04,2.34,.13,3.14,.4,.22,.82,.36,1.27,.4,.67,0,2.23-.2,4.67-.6,3.47-.53,5.9-.82,7.28-.87,1.47-.04,2.67,.13,3.61,.53,.58,.18,.89,.4,.93,.67,.04,.31-.07,.53-.33,.67-.31,.18-.54,.47-.67,.87-.13,.18-.22,.33-.27,.47,.27,.18,.47,.27,.6,.27,.49-.27,.82-1.22,1-2.87,.22-1.65,.31-4.07,.27-7.28-.09-4.14,.07-9.84,.47-17.1Zm-18.97,19.97c2.14-1.6,4.7-3.74,7.68-6.41,2.18-2.05,3.12-3.29,2.8-3.74-.09-.13-.56-.04-1.4,.27-2.14,.76-3.87,1.34-5.21,1.74-1.56,.4-2.69,.6-3.41,.6-.27,2.45-.42,4.96-.47,7.55Z"/>
      <path d="M192.4,63.32c-.13,.31-.42,.49-.87,.53-.18,.04-.42,.22-.74,.53-.49,.44-1.07,.58-1.74,.4-3.47-1.25-6.77-3.16-9.88-5.74-1.78-1.51-2.83-3.03-3.14-4.54-.18-.94,.02-1.96,.6-3.07,.58-1.34,1.42-2.29,2.54-2.87,1.42-.89,2.74-1.18,3.94-.87,1.6,.4,2.87,1.2,3.81,2.4,.49,.71,.47,1.76-.07,3.14-.36,.71-.76,.6-1.2-.33-1.56-2.18-3.1-3.34-4.61-3.47-.53,0-1.2,.29-2,.87-.67,.36-1.13,1-1.4,1.94-.36,1.25,.02,2.49,1.14,3.74,1.91,2.27,4.43,4.1,7.55,5.48,2.18,.93,3.43,1.34,3.74,1.2,.53-.4,.71-1.96,.53-4.67-.13-2.81-.2-5.83-.2-9.08-.04-2.54-.04-4.63,0-6.28-.09-.04-.16-.04-.2,0-1.2,.31-2.69,.76-4.47,1.34-2.36,.8-3.9,1.27-4.61,1.4-.85,.09-1.56,.04-2.14-.13-.67-.18-1-.53-1-1.07,0-.4,.13-.69,.4-.87,.31-.18,.69-.2,1.14-.07,.62,.09,1.22,.11,1.8,.07,.4-.09,1.96-.62,4.67-1.6,1.6-.67,3.09-1.09,4.47-1.27-.09-1.74-.36-3.27-.8-4.61-.4-.71-1.2-.91-2.4-.6-.22,0-.36-.16-.4-.47-.04-.04-.04-.07,0-.07-2,.09-3.63,.29-4.88,.6-2.94,.62-6.61,1.69-11.02,3.21-5.65,1.87-9.44,2.96-11.35,3.27-2.14,.31-3.9,.2-5.28-.33-.62-.27-.91-.62-.87-1.07,0-.44,.13-.76,.4-.94,.31-.13,.69-.13,1.14,0,1.38,.45,2.87,.6,4.47,.47,1.02-.13,5.03-1.36,12.02-3.67,7.39-2.45,14.03-3.74,19.9-3.87,3.52-.04,6.28,.02,8.28,.2,.93,.09,2.07,.07,3.41-.07,1.16-.09,1.94,.02,2.34,.33,.22,.13,.31,.29,.27,.47,0,.27-.16,.49-.47,.67-.36,.27-.56,.56-.6,.87-.04,.36-.47,.53-1.27,.53-.4,0-.69-.09-.87-.27-.22-.27-1.94-.42-5.14-.47-2.32-.09-4.41-.11-6.28-.07,.84,1.25,1.29,3.09,1.34,5.54,.53-.13,1.02-.2,1.47-.2,1.38-.09,2.47-.11,3.27-.07,.4,0,.87-.02,1.4-.07,1.11-.18,1.87-.13,2.27,.13,.27,.18,.38,.36,.33,.53,0,.18-.16,.4-.47,.67-.36,.27-.56,.56-.6,.87,0,.4-.4,.62-1.2,.67-.18-.04-.29-.09-.33-.13-.09-.09-.8-.16-2.14-.2-1.74-.09-3.09-.07-4.07,.07-.27,3.43-.18,8.01,.27,13.76,.18,2.94,.11,5.34-.2,7.21Zm-25.71-42.74c6.01-1.91,12.11-3.29,18.3-4.14,5.43-.58,10.31-.33,14.62,.73,1.78,.71,2.65,1.43,2.61,2.14-.09,.67-.49,1.02-1.2,1.07-.4-.04-1.23,.09-2.47,.4-2.18,.49-3.9,.71-5.14,.67-.93-.13-1.47-.36-1.6-.67-.04-.36,.09-.53,.4-.53,3.87-.71,5.83-1.2,5.88-1.47-.09-.4-1.36-.69-3.81-.87-2.76-.22-6.34,.07-10.75,.87-6.77,1.38-12.22,2.76-16.36,4.14-5.43,1.87-8.91,2.34-10.42,1.4-.76-.4-.98-.87-.67-1.4,.4-.62,.76-.8,1.07-.53,.89,.45,4.07-.16,9.55-1.8Zm-7.95,22.91c.22-.13,.49-.11,.8,.07,.49,.27,.8,.62,.94,1.07,.09,.31,.2,.62,.33,.94,2.58-1.51,5.36-2.76,8.35-3.74,1.02-.4,2.14-.27,3.34,.4,.85,.45,1,1.47,.47,3.07-.36,.98-.96,1.96-1.8,2.94-.62,.85-.91,1.29-.87,1.34,.09,.09,.89-.13,2.4-.67,1.56-.58,2.56-1.14,3.01-1.67,.4-.76,.73-1.07,1-.94,.18,.18,.13,.56-.13,1.14-.45,1.02-1.16,1.83-2.14,2.4-1.69,.94-3.83,1.83-6.41,2.67-.58,.13-1.07-.09-1.47-.67-.27-.44-.04-.93,.67-1.47,.53-.4,1.07-.94,1.6-1.6,.98-1.38,1.67-2.56,2.07-3.54,.18-.53,.04-.96-.4-1.27-.31-.27-1.49,.07-3.54,1-2.4,1.02-4.16,1.89-5.28,2.6,.67,1.43,1.36,2.49,2.07,3.21,.76,.76,1.29,1.05,1.6,.87,.53-.36,.8-.33,.8,.07s.13,.69,.4,.87c.22,.18,.13,.47-.27,.87-.31,.31-.73,.45-1.27,.4-.85,0-1.89-.8-3.14-2.4-1.34-1.78-2.43-3.96-3.27-6.54-.09-.76-.04-1.22,.13-1.4Zm6.81-33.73c-.62-.18-.93-.62-.93-1.34,0-.53,.13-.87,.4-1,.36-.18,.67-.18,.93,0,.53,.36,1.22,.51,2.07,.47,.98-.13,3.29-.69,6.95-1.67,2.09-.67,3.96-1.16,5.61-1.47,0-.49-.02-.89-.07-1.2-.27-.89-.82-1.42-1.67-1.6-.85-.22-1.25-.56-1.2-1,.09-.67,.53-.98,1.34-.93,.44,.04,.87,.07,1.27,.07,.89-.04,1.56,.6,2,1.94,.18,.58,.24,1.36,.2,2.34,1.38-.4,2.54-.67,3.47-.8,2.18-.31,4.01-.27,5.48,.13,.62,.09,.96,.27,1,.53,.09,.31,0,.56-.27,.73-.31,.22-.49,.53-.53,.94-.13,.45-.29,.67-.47,.67-.27,0-.49-.09-.67-.27-.27-.31-.73-.49-1.4-.53-.8-.04-1.96,.02-3.47,.2-.89,.09-2.03,.33-3.41,.73-.36,1.69-.62,3.01-.8,3.94,.67-.18,1.36-.29,2.07-.33,1.34-.09,2.36-.13,3.07-.13,.4,0,.82-.02,1.27-.07,1.11-.13,1.89-.11,2.34,.07,.22,.18,.33,.36,.33,.53s-.16,.4-.47,.67c-.36,.31-.53,.62-.53,.94,0,.4-.4,.62-1.2,.67-.18-.04-.29-.09-.33-.13-.09-.04-.76-.09-2-.13-2.63,0-4.56,.16-5.81,.47-1.11,.36-2.49,.82-4.14,1.4-2.18,.85-3.63,1.29-4.34,1.34-.8,.18-1.47,.18-2,0-.62-.18-.96-.53-1-1.07,0-.44,.13-.76,.4-.94,.22-.09,.6-.11,1.14-.07,.53,.09,1.09,.11,1.67,.07,.36-.04,1.8-.6,4.34-1.67,1.02-.44,2.07-.8,3.14-1.07,.36-1.11,.69-2.47,1-4.07-1.43,.31-3.03,.73-4.81,1.27-4.36,1.16-6.83,1.76-7.41,1.8-.71,.04-1.56-.09-2.54-.4Zm3.67,23.51c-.36-.27-.51-.73-.47-1.4,.09-.85,.36-1.11,.8-.8,.36,.22,.8,.27,1.34,.13,3.43-1.29,6.3-2.14,8.62-2.54,1.34-1.29,2.43-2.56,3.27-3.81,.22-.4,.24-.73,.07-1-.13-.18-.47-.2-1-.07-.53,.18-1.36,.42-2.47,.73-1.74,.53-3.23,1.09-4.47,1.67-1.16,.53-2.36,.82-3.61,.87-.45,0-.69-.16-.73-.47-.09-.49-.07-.96,.07-1.4,.09-.22,.36-.31,.8-.27,.85,.04,1.49-.02,1.94-.2,.4-.18,.94-.42,1.6-.73,.76-.4,2.03-.89,3.81-1.47,1.6-.58,2.76-.89,3.47-.93,.31-.04,.56-.09,.73-.13,.58-.18,1.02-.18,1.34,0,.36,.22,.73,.69,1.13,1.4,.09,.4,.11,.76,.07,1.07-.22,.58-.76,1.4-1.6,2.47-.53,.62-1.07,1.22-1.6,1.8,.09-.04,.2-.07,.33-.07,1.47-.13,2.67-.42,3.61-.87,.8-.44,2-.38,3.61,.2,.44,.18,.58,.6,.4,1.27-.27,.71-.69,1.07-1.27,1.07-2.05-.22-4.56-.04-7.55,.53-2.94,.53-6.5,1.54-10.69,3.01-.71,.22-1.22,.2-1.54-.07Z"/>
    </g>
  </g>
</svg>