<?xml version="1.0" encoding="UTF-8"?>
<svg xmlns="http://www.w3.org/2000/svg" xmlns:xlink="http://www.w3.org/1999/xlink" viewBox="0 0 218.26 218.26">
  <defs>
    <style>
      .cls-1 {
        fill: url(#linear-gradient-2);
      }

      .cls-2 {
        fill: #604c3f;
      }

      .cls-3 {
        fill: url(#linear-gradient);
        mix-blend-mode: multiply;
        opacity: .5;
      }

      .cls-4 {
        isolation: isolate;
      }

      .cls-5 {
        fill: none;
        stroke: url(#linear-gradient-3);
        stroke-miterlimit: 10;
        stroke-width: 16px;
      }
    </style>
    <linearGradient id="linear-gradient" x1="-85.11" y1="113.39" x2="28.97" y2="108.13" gradientUnits="userSpaceOnUse">
      <stop offset=".03" stop-color="#fadaa3"/>
      <stop offset=".18" stop-color="#ae8657"/>
      <stop offset=".51" stop-color="#e7c690"/>
      <stop offset=".71" stop-color="#fff"/>
      <stop offset=".79" stop-color="#b48d5d"/>
      <stop offset=".95" stop-color="#fadaa3"/>
      <stop offset="1" stop-color="#b38c5b"/>
    </linearGradient>
    <linearGradient id="linear-gradient-2" x1="-40.05" y1="6.89" x2="321.16" y2="258.23" xlink:href="#linear-gradient"/>
    <linearGradient id="linear-gradient-3" x1="31.96" y1="31.96" x2="186.3" y2="186.3" gradientTransform="translate(109.13 -45.2) rotate(45)" xlink:href="#linear-gradient"/>
  </defs>
  <g class="cls-4">
    <g id="_圖層_2" data-name="圖層 2">
      <g id="_圖層_1-2" data-name="圖層 1">
        <g>
          <path class="cls-3" d="M11.69,109.13c0-9.72,1.44-19.12,4.1-27.99-.53-1.24-1-2.5-1.08-3.86-.07-1.19,.17-2.42-.17-3.57-.27-.93-.91-1.74-1.04-2.7-.19-1.36,.66-2.62,1.05-3.93,.29-.96,.28-2.05-.06-2.98-6.52,13.65-10.18,28.93-10.18,45.04s3.55,30.9,9.88,44.39c.42-1.43,.63-2.95,.68-4.43,.11-3.28-.43-6.54-.54-9.82-.04-1.37,.13-2.96,.94-3.96-2.33-8.33-3.58-17.11-3.58-26.18Z"/>
          <g>
            <circle class="cls-1" cx="110.88" cy="111.91" r="99.16"/>
            <circle class="cls-5" cx="109.13" cy="109.13" r="101.13" transform="translate(-45.2 109.13) rotate(-45)"/>
            <g>
              <path class="cls-2" d="M85.1,81.71l3.21,2.49c-.21,.24-.68,.51-1.3,.61v24.13c0,2.29-.44,3.62-4.03,3.93-.1-.96-.24-1.74-.65-2.18-.41-.51-1.09-.89-2.42-1.09v-.51s2.73,.2,3.31,.2,.72-.24,.72-.68v-8.36h-4.17c-.38,4.51-1.5,9.18-4.64,12.8l-.51-.27c2.35-5.7,2.39-12.94,2.39-19.39v-11.33l3.55,1.37h3.07l1.47-1.71Zm-1.16,17.54v-7.07h-3.93v1.19c0,1.81,0,3.82-.14,5.87h4.06Zm-3.93-14.88v6.83h3.93v-6.83h-3.93Zm26.25,11.23c-.24,.31-.58,.41-1.3,.51-.75,3.38-2.01,6.69-4.06,9.63,1.81,1.67,3.93,2.94,6.28,3.93l-.1,.38c-1.4,.17-2.46,1.16-3.04,2.7-1.98-1.33-3.65-2.83-4.98-4.71-1.57,1.64-3.45,3.11-5.73,4.33l-.31-.44c2.01-1.57,3.62-3.52,4.92-5.67-1.57-2.77-2.63-6.21-3.21-10.58h-1.88v16.35c0,.27-.99,1.02-2.56,1.02h-.51v-31.03l3.52,1.4h7.85l1.6-1.57,3.04,2.42c-.24,.24-.61,.44-1.23,.55-.1,4.03-.38,6.11-1.54,6.96-.82,.58-1.98,.82-3.48,.82,0-.82-.1-1.43-.61-1.88-.48-.44-1.64-.75-2.83-.96v-.51c1.19,.07,3.31,.24,3.89,.24,.48,0,.72-.07,.89-.24,.38-.34,.51-2.01,.58-4.88h-8.6v10.31h8.57l1.77-1.74,3.07,2.66Zm-10.89,.07c.75,3.34,2.05,6.04,3.79,8.19,1.19-2.59,1.98-5.39,2.46-8.19h-6.25Z"/>
              <path class="cls-2" d="M140.85,86.93c-.99,2.35-2.46,4.37-4.33,6.08,2.18,1.06,4.88,1.81,8.16,2.29l-.07,.41c-.89,.41-1.43,1.54-1.6,3.04-3.75-1.02-6.45-2.39-8.5-4.13-1.02,.72-2.15,1.37-3.35,1.95l4.37,.41c-.07,.44-.34,.79-1.16,.89-.1,.92-.24,1.84-.41,2.76h4.5l1.67-1.64,3.04,2.53c-.24,.27-.61,.44-1.33,.55-.34,5.53-1.13,8.77-2.63,9.93-.96,.68-2.18,1.02-3.79,1.02,0-.85-.14-1.6-.62-2.05-.51-.48-1.74-.85-3-1.09v-.51c1.3,.1,3.55,.27,4.23,.27,.58,0,.89-.07,1.16-.31,.68-.61,1.26-3.38,1.57-7.71h-5.02c-1.06,4.51-3.69,8.88-11.23,11.4l-.31-.51c5.36-2.56,7.51-6.62,8.36-10.89h-6.04l-.31-.99h6.52c.24-1.33,.34-2.7,.38-4.03-2.01,.96-4.3,1.74-6.79,2.36l-.24-.48c3.65-1.37,6.62-3.14,8.91-5.32-1.26-1.4-2.25-3-3.14-4.81-1.16,1.19-2.42,2.15-3.72,2.9l2.42,2.32c-.27,.24-.61,.34-1.33,.38-1.09,1.26-3.11,2.9-4.68,3.86l-.38-.24c.58-1.13,1.33-2.83,1.77-4.16h-2.35v15.43c0,2.25-.55,3.89-4.33,4.2-.03-.96-.24-1.77-.72-2.29-.51-.51-1.33-.89-2.97-1.13v-.48s3.48,.24,4.2,.24c.58,0,.72-.2,.72-.65v-9.05c-1.6,2.66-3.62,5.05-6.04,7.07l-.44-.44c2.76-3.45,4.78-8.29,5.91-12.9h-5.19l-.31-.96h8.23c-.27-.03-.55-.1-.85-.27-.68-1.84-2.63-3.96-4.2-5.22l.31-.27c1.98,.27,3.45,.79,4.44,1.4,.79-1.09,1.67-2.49,2.29-3.62h-9.35l-.31-.96h9.73l1.81-1.77,3.14,2.97c-.27,.27-.65,.34-1.4,.38-1.26,1.06-3.38,2.53-5.15,3.52,1.95,1.64,1.37,3.72-.1,3.86h2.9l1.67-1.74,.17,.17c1.91-2.22,3.69-5.77,4.74-9.52l4.17,1.54c-.14,.38-.58,.65-1.33,.58-.44,.89-.96,1.71-1.47,2.49h7.1l1.88-2.49s2.05,1.71,3.35,2.94c-.1,.38-.44,.55-.92,.55h-2.39Zm-9.76,0c-.21,.27-.44,.55-.68,.82,1.06,1.57,2.35,2.9,3.92,3.99,1.23-1.47,2.18-3.07,2.8-4.81h-6.04Z"/>
            </g>
            <g>
              <path class="cls-2" d="M80.22,127.12c.22,.33,.48,.61,.79,.83,.31,.22,.74,.5,1.29,.83,.6,.36,1.07,.67,1.39,.9,.32,.24,.6,.54,.84,.91,.23,.37,.35,.81,.35,1.32,0,.55-.14,1.04-.41,1.48s-.67,.79-1.2,1.05c-.53,.26-1.16,.38-1.9,.38-.88,0-1.68-.2-2.41-.6-.06-.03-.09-.07-.11-.12-.02-.05-.03-.11-.04-.2l-.22-2.32s.01-.07,.08-.08,.1,0,.11,.05c.18,.82,.52,1.53,1.02,2.12,.5,.59,1.15,.89,1.97,.89,.57,0,1.05-.16,1.44-.47s.59-.81,.59-1.49c0-.51-.11-.96-.34-1.33s-.5-.69-.83-.93c-.32-.24-.76-.53-1.32-.86-.55-.33-.98-.61-1.29-.85-.31-.24-.58-.54-.79-.9-.22-.36-.32-.79-.32-1.28,0-.57,.15-1.06,.45-1.46,.3-.4,.69-.71,1.18-.9,.48-.2,1-.3,1.54-.3,.67,0,1.34,.14,2,.41,.17,.06,.26,.15,.26,.29l.12,1.96s-.03,.07-.08,.07-.09-.02-.1-.07c-.09-.59-.34-1.14-.73-1.65s-.97-.76-1.72-.76c-.64,0-1.11,.19-1.43,.55-.31,.37-.47,.83-.47,1.37,0,.44,.11,.83,.33,1.16Z"/>
              <path class="cls-2" d="M93.98,132.05s.06,0,.09,.02c.03,.01,.04,.03,.04,.05-.1,.72-.15,1.47-.15,2.25,0,.09-.02,.16-.06,.2s-.11,.06-.21,.06h-7.15s-.03-.03-.03-.1,.01-.1,.03-.1c.43,0,.75-.03,.95-.08,.2-.06,.33-.17,.41-.33s.11-.42,.11-.76v-7.9c0-.34-.04-.59-.11-.75-.07-.16-.21-.27-.41-.33-.2-.06-.52-.09-.95-.09-.02,0-.03-.03-.03-.1s.01-.1,.03-.1h6.86c.1,0,.15,.05,.15,.15l.03,2.1s-.03,.05-.09,.06-.09,0-.1-.04c-.03-.6-.22-1.07-.55-1.41-.33-.34-.77-.5-1.31-.5h-1.04c-.4,0-.69,.03-.88,.09-.19,.06-.32,.17-.39,.32-.07,.15-.11,.38-.11,.69v3.47h2.08c.55,0,.94-.09,1.17-.27,.23-.18,.35-.49,.35-.92,0-.02,.03-.03,.1-.03s.1,.01,.1,.03l-.02,1.38c0,.33,0,.58,.02,.75l.02,.82s-.03,.03-.1,.03-.1-.01-.1-.03c0-.5-.12-.86-.37-1.08-.25-.22-.65-.32-1.22-.32h-2.03v3.93c0,.32,.03,.55,.1,.7s.19,.25,.38,.31c.18,.06,.47,.09,.85,.09h1.37c.55,0,1-.19,1.37-.58,.36-.39,.61-.92,.73-1.6,0-.02,.02-.03,.07-.03Z"/>
              <path class="cls-2" d="M106.66,134.53c0,.07-.01,.1-.03,.1h-2.2c-.28,0-.82-.47-1.6-1.42-.79-.94-1.72-2.24-2.8-3.89-.31,.07-.63,.1-.96,.1-.07,0-.32-.02-.77-.05v3.87c0,.35,.03,.61,.1,.77,.07,.16,.2,.27,.4,.32s.51,.08,.95,.08c.03,0,.05,.03,.05,.1s-.02,.1-.05,.1c-.35,0-.63,0-.84-.02l-1.18-.02-1.16,.02c-.21,.01-.5,.02-.87,.02-.02,0-.03-.03-.03-.1s.01-.1,.03-.1c.43,0,.75-.03,.96-.08,.21-.06,.34-.17,.42-.33,.07-.17,.11-.42,.11-.76v-7.9c0-.34-.03-.59-.1-.75-.07-.16-.2-.27-.4-.33-.2-.06-.52-.09-.95-.09-.03,0-.05-.03-.05-.1s.02-.1,.05-.1l.84,.02c.48,.02,.86,.03,1.16,.03,.25,0,.48,0,.7-.02s.4-.02,.55-.03c.42-.03,.8-.05,1.14-.05,.9,0,1.59,.21,2.08,.61s.73,.96,.73,1.64c0,.61-.18,1.17-.54,1.66s-.83,.88-1.42,1.17c.96,1.38,1.76,2.46,2.42,3.23,.65,.78,1.23,1.34,1.74,1.68,.51,.34,1,.51,1.49,.51,.02,0,.03,.03,.03,.1Zm-7.36-5.5c.89,0,1.52-.19,1.9-.58,.38-.39,.57-.98,.57-1.79,0-.89-.2-1.52-.59-1.91-.39-.39-.96-.58-1.71-.58-.44,0-.75,.08-.92,.24-.17,.16-.26,.48-.26,.97v3.58c.29,.05,.62,.07,1.01,.07Z"/>
              <path class="cls-2" d="M116.74,124.06c0,.07-.02,.1-.05,.1-.39,0-.72,.1-1.01,.31-.28,.2-.52,.55-.72,1.04l-3.64,9.1s-.07,.07-.19,.07c-.09,0-.15-.02-.19-.07l-4.25-9.23c-.19-.44-.4-.76-.61-.94s-.5-.27-.84-.27c-.03,0-.05-.03-.05-.1s.02-.1,.05-.1l.65,.02c.32,.02,.57,.03,.77,.03,.46,0,.94-.01,1.47-.03l.7-.02s.05,.03,.05,.1-.02,.1-.05,.1c-.71,0-1.06,.2-1.06,.6,0,.14,.05,.32,.15,.55l3.57,7.82,3.07-7.7c.09-.24,.14-.43,.14-.56,0-.24-.11-.42-.32-.53-.22-.11-.55-.17-1.01-.17-.03,0-.05-.03-.05-.1s.02-.1,.05-.1l.73,.02c.39,.02,.74,.03,1.06,.03,.24,0,.51-.01,.8-.03l.72-.02s.05,.03,.05,.1Z"/>
              <path class="cls-2" d="M120.13,134.01c.07,.17,.2,.28,.4,.33s.51,.08,.95,.08c.03,0,.05,.03,.05,.1s-.02,.1-.05,.1c-.34,0-.61,0-.82-.02l-1.21-.02-1.18,.02c-.21,.01-.48,.02-.84,.02-.03,0-.05-.03-.05-.1s.02-.1,.05-.1c.43,0,.75-.03,.95-.08,.2-.06,.33-.17,.41-.33s.11-.42,.11-.76v-7.9c0-.34-.04-.59-.11-.75-.07-.16-.21-.27-.41-.33-.2-.06-.52-.09-.95-.09-.03,0-.05-.03-.05-.1s.02-.1,.05-.1l.84,.02c.48,.02,.87,.03,1.18,.03,.34,0,.75-.01,1.23-.03l.8-.02s.05,.03,.05,.1-.02,.1-.05,.1c-.42,0-.73,.03-.93,.1s-.33,.19-.41,.35-.11,.42-.11,.76v7.87c0,.34,.03,.59,.1,.76Z"/>
              <path class="cls-2" d="M131.12,123.93c.49,.1,.98,.28,1.47,.53,.08,.05,.12,.09,.14,.12,.01,.03,.03,.12,.05,.26l.21,2.03s-.03,.05-.09,.06c-.06,0-.1,0-.11-.04-.52-1.9-1.7-2.85-3.52-2.85-.96,0-1.8,.21-2.53,.63-.73,.42-1.29,1.02-1.69,1.8-.4,.78-.6,1.69-.6,2.72s.22,1.9,.66,2.72c.44,.83,1.03,1.48,1.78,1.95s1.56,.72,2.43,.72c.93,0,1.69-.23,2.27-.68,.58-.46,1.02-1.15,1.33-2.08,0-.02,.03-.03,.08-.03,.08,0,.12,.02,.12,.05l-.17,1.88c-.01,.14-.03,.22-.05,.26-.02,.03-.07,.07-.14,.12-.59,.28-1.15,.48-1.66,.6-.52,.11-1.11,.17-1.78,.17-1.2,0-2.26-.24-3.2-.71-.94-.47-1.67-1.14-2.19-1.99-.52-.85-.79-1.83-.79-2.94s.27-2.02,.8-2.84,1.27-1.47,2.21-1.92c.94-.46,1.99-.68,3.17-.68,.72,0,1.32,.05,1.81,.15Z"/>
              <path class="cls-2" d="M142.19,132.05s.06,0,.09,.02c.03,.01,.04,.03,.04,.05-.1,.72-.15,1.47-.15,2.25,0,.09-.02,.16-.06,.2s-.11,.06-.21,.06h-7.15s-.03-.03-.03-.1,.01-.1,.03-.1c.43,0,.75-.03,.95-.08,.2-.06,.33-.17,.41-.33s.11-.42,.11-.76v-7.9c0-.34-.04-.59-.11-.75-.07-.16-.21-.27-.41-.33-.2-.06-.52-.09-.95-.09-.02,0-.03-.03-.03-.1s.01-.1,.03-.1h6.86c.1,0,.15,.05,.15,.15l.03,2.1s-.03,.05-.09,.06-.09,0-.1-.04c-.03-.6-.22-1.07-.55-1.41-.33-.34-.77-.5-1.31-.5h-1.04c-.4,0-.69,.03-.88,.09-.19,.06-.32,.17-.39,.32-.07,.15-.11,.38-.11,.69v3.47h2.08c.55,0,.94-.09,1.17-.27,.23-.18,.35-.49,.35-.92,0-.02,.03-.03,.1-.03s.1,.01,.1,.03l-.02,1.38c0,.33,0,.58,.02,.75l.02,.82s-.03,.03-.1,.03-.1-.01-.1-.03c0-.5-.12-.86-.37-1.08-.25-.22-.65-.32-1.22-.32h-2.03v3.93c0,.32,.03,.55,.1,.7s.19,.25,.38,.31c.18,.06,.47,.09,.85,.09h1.37c.55,0,1-.19,1.37-.58,.36-.39,.61-.92,.73-1.6,0-.02,.02-.03,.07-.03Z"/>
            </g>
          </g>
        </g>
      </g>
    </g>
  </g>
</svg>