<?xml version="1.0" encoding="UTF-8"?>
<svg id="_圖層_2" data-name="圖層 2" xmlns="http://www.w3.org/2000/svg" viewBox="0 0 56 54">
  <defs>
    <style>
      .cls-1 {
        fill: #534741;
      }

      .cls-2 {
        fill: #fff;
        opacity: .8;
      }
    </style>
  </defs>
  <g id="_外觀" data-name="外觀">
    <g>
      <rect class="cls-2" width="56" height="54"/>
      <g>
        <path class="cls-1" d="M27.65,19.67c-4.52,0-8.18,3.66-8.18,8.18s3.66,8.18,8.18,8.18,8.18-3.66,8.18-8.18-3.66-8.18-8.18-8.18h0Zm0,15.26c-3.91,0-7.09-3.18-7.09-7.09s3.18-7.09,7.09-7.09,7.09,3.18,7.09,7.09-3.18,7.09-7.09,7.09Z"/>
        <path class="cls-1" d="M27.1,11.48h1.09v6.55h-1.09v-6.55h0Z"/>
        <path class="cls-1" d="M27.1,37.66h1.09v6.53h-1.09v-6.53h0Z"/>
        <path class="cls-1" d="M11.29,27.29h6.54v1.09h-6.54v-1.09h0Z"/>
        <path class="cls-1" d="M37.46,27.29h6.54v1.09h-6.54v-1.09h0Z"/>
        <path class="cls-1" d="M38.83,15.85l.77,.77-4.56,4.56-.77-.77,4.56-4.56h0Z"/>
        <path class="cls-1" d="M16.47,39.75l-.77-.77,4.56-4.56,.77,.77-4.56,4.56h0Z"/>
        <path class="cls-1" d="M16.47,15.86l4.56,4.56-.77,.77-4.56-4.56,.77-.77h0Z"/>
        <path class="cls-1" d="M38.83,39.76l-4.56-4.56,.77-.77,4.56,4.56-.77,.77Z"/>
      </g>
    </g>
  </g>
</svg>