<?xml version="1.0" encoding="UTF-8"?>
<svg id="_圖層_2" data-name="圖層 2" xmlns="http://www.w3.org/2000/svg" viewBox="0 0 56 54">
  <defs>
    <style>
      .cls-1 {
        fill: #534741;
      }

      .cls-2 {
        fill: #fff;
        opacity: .8;
      }
    </style>
  </defs>
  <g id="_外觀" data-name="外觀">
    <g>
      <rect class="cls-2" width="56" height="54"/>
      <path class="cls-1" d="M28.6,41.34c-7.87,0-14.25-6.37-14.25-14.24,0-7.17,5.33-13.23,12.44-14.14l1.87-.24-1.23,1.43c-4.34,5.04-3.78,12.65,1.27,16.99,3.06,2.64,7.24,3.56,11.12,2.47l1.82-.5-1.01,1.59c-2.6,4.13-7.15,6.64-12.03,6.63Zm-3.42-26.58c-6.81,1.89-10.8,8.94-8.91,15.74,1.89,6.81,8.94,10.8,15.74,8.91,2.45-.68,4.65-2.08,6.3-4.01-.57,.08-1.14,.11-1.71,.11-7.46,0-13.52-6.04-13.53-13.5,0-2.57,.73-5.09,2.11-7.26Z"/>
    </g>
  </g>
</svg>