<?xml version="1.0" encoding="UTF-8"?>
<svg id="_圖層_2" data-name="圖層 2" xmlns="http://www.w3.org/2000/svg" viewBox="0 0 24.22 33.84">
  <defs>
    <style>
      .cls-1 {
        fill: #fff;
      }

      .cls-2 {
        fill: #ed1c24;
      }
    </style>
  </defs>
  <g id="_圖層_2-2" data-name="圖層 2">
    <g>
      <circle class="cls-1" cx="11.84" cy="13.9" r="9.95"/>
      <path class="cls-2" d="M11.94,0C5.26,.09-.13,5.67,0,12.35c.09,4.56,2.7,8.5,6.49,10.49,1.05,.55,1.86,1.46,2.3,2.57l3.33,8.43,3.33-8.43c.44-1.11,1.26-2.02,2.31-2.58,3.84-2.03,6.47-6.07,6.47-10.72C24.22,5.36,18.7-.09,11.94,0Zm.14,19.43c-4.09,0-7.4-3.31-7.4-7.4s3.31-7.4,7.4-7.4,7.4,3.31,7.4,7.4-3.31,7.4-7.4,7.4Z"/>
    </g>
  </g>
</svg>