<?xml version="1.0" encoding="UTF-8"?>
<svg id="_圖層_2" data-name="圖層 2" xmlns="http://www.w3.org/2000/svg" viewBox="0 0 524.22 138.9">
  <defs>
    <style>
      .cls-1 {
        fill: #fff;
      }

      .cls-2 {
        fill: #00adea;
      }

      .cls-3 {
        fill: none;
        stroke: #00adea;
        stroke-miterlimit: 10;
      }
    </style>
  </defs>
  <g id="_圖層_3" data-name="圖層 3">
    <g>
      <g>
        <path class="cls-2" d="M87.96,19.64v-4.46h-5.42l-.38-1.34h5.81v-4.22h-6.58l-.38-1.34h6.96V2.55l6.91,.62c-.1,.62-.48,1.06-1.63,1.25v3.84h1.97l2.4-3.12s2.74,2.16,4.42,3.7c-.14,.53-.58,.77-1.25,.77h-7.54v4.22h1.34l2.21-2.83s2.5,1.97,4.03,3.41c-.1,.53-.58,.77-1.25,.77h-6.34v4.46h2.54l2.45-3.12s2.78,2.21,4.46,3.7c-.14,.53-.62,.77-1.3,.77h-20.88l-.38-1.34h7.83Zm35.09,3.46s1.92,1.92,2.93,3.26c-.14,.53-.53,.77-1.15,.77h-3.22v8.59c-.05,.34-2.4,1.25-3.98,1.25h-.82v-2.5h-3.36v6.43c0,3.5-.82,6.1-6.38,6.58-.05-1.63-.34-2.93-.91-3.65-.67-.82-1.68-1.39-3.94-1.73v-.77s4.46,.34,5.42,.34c.77,0,.96-.29,.96-.86v-6.34h-5.81l-.43-1.39h6.24v-5.95h-7.06l-.24-.96c-.34,.34-.91,.67-1.78,.86v15.12c0,3.17-.67,4.9-5.95,5.33-.05-1.3-.19-2.4-.72-3.07-.53-.62-1.3-1.1-3.02-1.39v-.67s3.17,.19,3.98,.19c.67,0,.86-.29,.86-.82v-5.18h-7.3c-.58,3.84-2.21,8.06-6.58,11.04l-.43-.48c2.45-4.61,2.4-10.42,2.4-15.41v-8.93l5.71,2.11h5.71l2.16-2.5,4.9,3.65-.1-.29h7.44v-5.71h-5.42l-.43-1.34h13.68l2.21-2.3,4.46,3.41c-.24,.29-.77,.58-1.49,.72v4.9l1.44-2.3Zm-28.37,12.1v-3.7h-7.01v.19c0,1.06-.05,2.26-.14,3.5h7.15Zm-7.01-8.93v3.84h7.01v-3.84h-7.01ZM124.2,6.96c-.53,.48-1.58,.53-2.93,.05-4.94,.72-12.96,1.06-19.39,.91l-.19-.77c5.95-1.06,13.49-3.26,17.42-4.94l5.09,4.75Zm-21.41,2.54c9.07,3.6,4.8,10.18,1.49,7.1,0-2.3-1.06-5.04-2.02-6.82l.53-.29Zm5.9-.62c9.12,3.65,4.8,10.71,1.49,7.58,.24-2.5-.82-5.42-2.02-7.3l.53-.29Zm4.75,16.85h3.36v-5.71h-3.36v5.71Zm3.36,1.39h-3.36v5.95h3.36v-5.95Zm-1.97-9.55c1.06-2.4,2.35-6.19,3.31-9.65l6.34,2.45c-.24,.58-.82,.96-1.87,.86-2.16,2.54-4.75,5.09-7.1,6.67l-.67-.34Z"/>
        <path class="cls-2" d="M171.04,16.33s3.65,2.83,5.76,4.75c-.1,.53-.67,.77-1.34,.77h-42.29l-.38-1.34h24.82c1.25-2.93,2.54-6.96,3.31-9.94h-16.61c11.71,3.84,6.24,12.87,1.58,8.64-.1-2.98-1.34-6.24-2.64-8.59l.1-.05h-7.97l-.38-1.39h19.44c-.38-.1-.86-.29-1.34-.62-.34-2.16-1.78-4.51-2.98-5.9l.38-.24c9.7,.29,8.74,5.95,5.52,6.77h10.18l3.12-3.98s3.5,2.74,5.57,4.61c-.1,.53-.62,.77-1.3,.77h-11.52l6.43,2.02c-.19,.58-.77,.96-1.82,.82-1.92,2.11-5.09,4.9-7.97,7.1h9.12l3.22-4.18Zm-5.9,7.39l5.67,4.37c-.34,.38-1.01,.82-1.97,1.06v16.23c-.05,.43-2.83,1.87-4.99,1.87h-.96v-3.41h-16.37v1.82c0,.58-2.45,1.82-4.85,1.82h-.82V24.34l6,2.45h15.5l2.78-3.07Zm-18.62,4.42v6.38h16.37v-6.38h-16.37Zm16.37,14.35v-6.62h-16.37v6.62h16.37Z"/>
        <path class="cls-2" d="M203.16,8.16c-.38,.43-1.06,.62-2.16,.67-1.68,2.93-4.8,7.97-7.25,10.94,4.75,3.22,6.77,7.87,6.77,11.76,.05,4.66-1.63,7.44-6.86,7.54,0-1.58-.24-3.5-.58-4.22-.38-.48-1.06-.91-1.97-1.15v12.15c0,.43-1.68,1.78-4.32,1.78h-.96V3.7l5.9,2.26h3.26l2.83-2.78,5.33,4.99Zm-9.75,24.87c.48,0,.77-.05,1.1-.24,.62-.38,1.01-1.25,1.01-2.74,0-3.26-.77-6.96-3.02-10.13,.91-3.12,2.16-8.78,2.78-12.58h-4.18v25.68h2.3Zm17.09-.67c-.19,.48-.67,.62-1.58,.53-2.06,3.84-6.67,8.3-11.57,10.8l-.38-.58c3.36-3.6,6.1-9.27,7.1-13.49l6.43,2.74Zm7.01-28.03c-.14,.58-.62,.86-1.97,1.01,2.88,4.56,9.07,7.06,14.11,8.54v.62c-2.3,.72-3.7,2.98-4.03,5.23-4.8-3.07-8.88-7.82-10.71-13.92-3.17,6.34-10.18,12.24-17.09,15.51l-.34-.43c5.47-4.56,11.04-12.72,12.24-18.34l7.78,1.78Zm-1.2,22.66v14.06c0,3.6-.82,6-6.53,6.48-.1-1.63-.24-2.93-.82-3.7s-1.49-1.34-3.55-1.68v-.67s3.84,.24,4.71,.24c.72,0,.91-.29,.91-.82v-13.92h-10.37l-.34-1.39h10.71v-6.14h-6.48l-.38-1.39h12l2.69-3.31s3.02,2.26,4.9,3.94c-.14,.53-.62,.77-1.3,.77h-6.14v6.14h4.22l2.78-3.7s3.12,2.59,4.99,4.32c-.14,.53-.67,.77-1.34,.77h-10.66Zm2.21,3.07c14.64,5.57,10.18,16.13,4.99,12-.72-3.89-3.31-8.45-5.47-11.76l.48-.24Z"/>
        <path class="cls-2" d="M242.18,30.92v5.62c0,.58-2.16,1.78-4.37,1.78h-.86V7.49l5.42,2.3h3.55l2.54-2.78,5.09,4.03c-.29,.38-.96,.77-1.92,1.01v21.7c-.05,.43-2.5,1.63-4.37,1.63h-.86v-4.46h-4.22Zm0-19.78V29.57h4.22V11.14h-4.22Zm25.87,13.34c2.78,6.24,8.02,11.23,13.2,13.68l-.14,.53c-2.06,.48-3.7,2.21-4.51,4.99-4.66-4.18-7.63-10.51-9.36-18.96v21.07c0,.48-2.4,1.58-4.61,1.58h-1.15v-14.07c-3.98,4.9-9.55,8.78-16.71,11.62l-.43-.58c7.54-4.75,12.77-12.15,15.36-19.87h-7.25l-.38-1.39h9.41V14.31h-8.4l-.38-1.3h8.79V2.98l7.54,.77c-.14,.67-.48,1.15-1.78,1.34v7.92h3.6l3.07-4.18s3.36,2.83,5.38,4.7c-.14,.53-.67,.77-1.34,.77h-10.7v8.78h4.8l3.07-4.18s3.41,2.88,5.47,4.8c-.14,.53-.62,.77-1.34,.77h-11.19Z"/>
      </g>
      <g>
        <path class="cls-1" d="M8.94,88.71c.16,0,.25,.12,.25,.35v.8c0,.22-.08,.33-.25,.33l-4.68,1.27v5.56c0,.6,.38,.9,1.15,.9h.33c.94,0,1.5-.16,1.68-.47,.25-.25,.53-1.22,.86-2.91,.19,.27,.48,.53,.86,.78,.19,.08,.29,.18,.29,.29-.45,1.86-.81,2.89-1.07,3.09-.23,.42-.75,.62-1.56,.62h-1.56c-1.64,0-2.46-.49-2.46-1.48v-5.95l-2.54,.7c-.16,0-.25-.12-.25-.35v-.82c0-.22,.08-.33,.25-.33l2.54-.7v-6.58c0-.18,.05-.27,.16-.27l1.39,.18c.16,.01,.25,.07,.25,.16,0,.12-.05,.2-.14,.23-.12,.03-.18,.11-.18,.25v5.64l4.68-1.29Zm.33-4.27h9.52c.22,0,.33,.14,.33,.43,0,3.98-.07,6.99-.21,9.02-.15,2.13-.38,3.88-.68,5.23-.29,1.22-.64,2.03-1.05,2.44-.37,.46-1.09,.7-2.17,.7-.57,0-1.12-.04-1.64-.12-.22-.03-.33-.1-.33-.21-.08-.38-.22-.77-.41-1.17v-.23c.96,.15,1.72,.23,2.3,.23s1-.15,1.25-.45c.26-.25,.47-.75,.64-1.52,.22-.98,.4-2.32,.55-4.02,.16-1.56,.25-4.57,.27-9.02h-3.77c-.07,3.1-.21,5.38-.41,6.83-.25,1.98-.62,3.64-1.11,4.96-.41,1.07-.91,1.97-1.5,2.71-.53,.77-1.22,1.46-2.07,2.09-.41-.42-.77-.81-1.07-1.17,.42-.25,.93-.74,1.52-1.48,.66-.83,1.19-1.74,1.6-2.73,.51-1.41,.86-2.97,1.07-4.7,.22-1.45,.36-3.62,.41-6.52h-3.04c-.16,0-.25-.11-.25-.33v-.64c0-.23,.08-.35,.25-.35Z"/>
        <path class="cls-1" d="M23.32,87.97h2.3v-3.1c0-.41-.03-.72-.08-.92-.05-.16-.08-.3-.08-.41s.14-.16,.43-.16l1.62,.23c.16,.07,.25,.14,.25,.21,0,.12-.08,.18-.25,.18-.27,.11-.41,.42-.41,.94v3.04h2.05c.16,0,.25,.12,.25,.35v.64c0,.22-.08,.33-.25,.33h-2.05v4.45c.74-.36,1.44-.72,2.11-1.09,.03-.04,.06-.06,.1-.06,.11,0,.16,.05,.16,.16,0,.68-.03,1.06-.08,1.13-.77,.44-1.53,.85-2.3,1.25v5.8c0,.98-.74,1.48-2.21,1.48h-.74c-.12,0-.18-.12-.18-.37-.04-.26-.17-.57-.39-.94,0-.11,.05-.16,.16-.16,.37,.11,.7,.16,.98,.16,.6,0,.9-.25,.9-.74v-4.49c-.52,.26-1.04,.5-1.56,.72-.21,.38-.37,.57-.49,.57s-.4-.57-.82-1.72c.81-.23,1.76-.58,2.87-1.05v-5.11h-2.3c-.16,0-.25-.11-.25-.33v-.64c0-.23,.08-.35,.25-.35Zm10.5-4.84l1.52,.74c.14,.1,.21,.18,.21,.25,0,.16-.14,.25-.41,.25-.19,0-.33,.05-.41,.16-.15,.22-.29,.41-.43,.57h4.78c.21,0,.33,.03,.39,.1,.29,.25,.43,.43,.43,.55l-1.95,2.48h2.77c.22,0,.33,.08,.33,.23v6.97h.9c.16,0,.25,.11,.25,.33v.66c0,.22-.08,.33-.25,.33h-5.6c.21,.46,.43,.89,.68,1.27,.37,.56,.84,1.05,1.42,1.48,.64,.53,1.37,.95,2.17,1.25,.41,.15,.79,.26,1.15,.33,.12,.04,.18,.08,.18,.1,0,.15-.04,.25-.12,.31-.23,.27-.44,.53-.62,.76-.05,.11-.14,.16-.25,.16-.08,0-.36-.09-.82-.27-1.19-.48-2.13-1.03-2.83-1.64-.55-.48-1.04-1.04-1.48-1.68-.11-.21-.22-.42-.33-.64-.03,.04-.05,.08-.08,.1-.49,1.04-1.13,1.87-1.93,2.48-.83,.7-1.9,1.24-3.2,1.64-.15,0-.25-.03-.31-.08-.19-.19-.43-.37-.72-.53-.14-.11-.21-.21-.21-.29,0-.07,.11-.12,.33-.16,1.18-.46,2.06-.94,2.65-1.44,.7-.46,1.22-1.04,1.58-1.72,.27-.41,.49-.89,.64-1.44h-5.11c-.16,0-.25-.11-.25-.33v-.66c0-.22,.08-.33,.25-.33h1.31v-6.89c0-.08,.01-.14,.04-.18-.07-.03-.13-.08-.18-.16-.18-.29-.38-.53-.62-.74-.15-.08-.23-.16-.23-.23,0-.03,.03-.05,.08-.06,.52-.23,.94-.46,1.27-.7,.48-.33,.96-.74,1.44-1.23,.31-.31,.57-.62,.78-.92,.22-.31,.42-.66,.59-1.05,.08-.1,.14-.14,.18-.14Zm-2.38,5.11h4.78l1.46-1.8h-4.49c-.16,.16-.34,.32-.53,.47-.37,.34-.74,.64-1.11,.9-.23,.16-.44,.31-.64,.43h.53Zm.49,7.2h2.58c.05-.46,.08-.96,.08-1.5,0-.21,.12-.31,.37-.31l1.42,.12c.26,0,.39,.1,.39,.29,0,.25-.1,.39-.29,.43-.19,.01-.29,.14-.29,.39-.03,.19-.05,.38-.06,.57h3.42v-5.91h-7.63v5.91Zm3.69-5.82l1.09,.8c.1,.1,.14,.18,.14,.27s-.04,.12-.12,.12c-.14,.04-.24,.1-.31,.18-.1,.16-.18,.31-.27,.45,.53,.31,.98,.6,1.35,.86,.55,.44,1.01,.83,1.39,1.19,0,.01-.03,.07-.1,.16-.4,.59-.61,.88-.64,.88-.59-.55-1.23-1.05-1.93-1.5-.27-.19-.53-.36-.78-.51-.05,.08-.1,.15-.14,.21-.45,.6-1.03,1.2-1.74,1.8-.16,0-.27-.05-.31-.14-.26-.23-.49-.43-.7-.59-.1-.04-.14-.1-.14-.16,0-.04,.02-.08,.06-.12,.34-.18,.62-.38,.84-.59,.46-.44,.87-.93,1.21-1.48,.31-.45,.64-1.01,.98-1.68,.04-.1,.08-.14,.1-.14Z"/>
        <path class="cls-1" d="M48.76,83.3l1.27,.9c.19,.11,.29,.25,.29,.41,0,.12-.11,.18-.33,.18-.21,0-.36,.1-.45,.29-1.16,2.04-2.24,3.55-3.24,4.53-.12,0-.23-.05-.31-.14-.21-.25-.41-.45-.62-.62-.1-.1-.14-.17-.14-.23,0-.08,.03-.14,.08-.16,.36-.26,.7-.6,1.03-1.03,.48-.53,.92-1.13,1.33-1.8,.36-.67,.67-1.37,.94-2.09,.05-.16,.1-.25,.14-.25Zm.66,4.59c.08,0,.55,.36,1.39,1.07,0,.21-.11,.34-.33,.41-.15,.07-.25,.16-.29,.27-.41,.83-.83,1.57-1.27,2.19v10.36c0,.15-.11,.23-.33,.23h-.82c-.22,0-.33-.08-.33-.23v-8.41c-.31,.37-.67,.76-1.07,1.17-.4-.42-.7-.72-.9-.9-.11-.11-.16-.19-.16-.25,0-.03,.02-.07,.06-.12,.9-.78,1.7-1.7,2.38-2.77,.53-.81,1.04-1.76,1.52-2.87,.05-.1,.1-.14,.14-.14Zm2.38,7.14c1.15,.14,1.72,.23,1.72,.27,0,.14-.05,.22-.16,.25-.16,.1-.25,.29-.25,.57v1.37c0,.38-.03,.81-.08,1.27-.05,.49-.19,.94-.41,1.33-.18,.4-.42,.75-.74,1.07-.22,.26-.57,.54-1.07,.84-.07,0-.14-.05-.21-.16-.19-.21-.4-.38-.64-.53-.1-.07-.14-.14-.14-.21,.48-.3,.8-.55,.96-.76,.22-.21,.39-.44,.51-.7,.14-.27,.24-.63,.31-1.07,.07-.34,.1-.7,.1-1.09v-2.19c0-.18,.03-.27,.08-.27Zm-1.07-2.36h7.14c.11,0,.16,.08,.16,.23v.68c0,.21-.05,.31-.16,.31h-7.14c-.11,0-.16-.1-.16-.31v-.68c0-.15,.05-.23,.16-.23Zm3.2-9.29c.88,0,1.31,.05,1.31,.16,0,.18-.05,.27-.16,.29s-.16,.14-.16,.37v5.41h1.31v-4.82c0-.12,.11-.18,.33-.18,.88,0,1.31,.06,1.31,.18,0,.16-.05,.25-.16,.27s-.16,.14-.16,.37v5.91c0,.16-.11,.25-.33,.25h-.66c-.22,0-.33-.08-.33-.25v-.47h-3.94v.9c0,.15-.11,.23-.33,.23h-.66c-.22,0-.33-.08-.33-.23v-6.97c0-.12,.11-.18,.33-.18,.88,0,1.31,.06,1.31,.18,0,.16-.05,.25-.16,.27s-.16,.14-.16,.37v4.18h1.31v-6.07c0-.11,.11-.16,.33-.16Zm1.39,11.65c.98,0,1.48,.09,1.48,.27,0,.16-.05,.25-.16,.27s-.16,.14-.16,.37v3.12c.67-.33,1.31-.66,1.91-1,.01-.03,.03-.04,.06-.04,.11,0,.16,.08,.16,.23,0,.66-.03,1.01-.08,1.07-1.13,.7-2.28,1.33-3.45,1.89-.19,.38-.36,.57-.49,.57-.12,0-.37-.55-.74-1.64,.36-.11,.77-.25,1.23-.43v-4.47c0-.12,.08-.18,.25-.18Zm4.43-11.73l1.27,.47c.14,.12,.21,.21,.21,.27,0,.12-.05,.21-.16,.25-.11,0-.18,.1-.21,.31-.21,1.26-.39,2.25-.55,2.97h4.2c.16,0,.25,.11,.25,.33v.66c0,.22-.08,.33-.25,.33h-.9c-.07,2.52-.21,4.36-.43,5.54-.29,1.6-.68,2.95-1.19,4.04,.34,.59,.69,1.07,1.05,1.46,.49,.57,1.07,1.03,1.72,1.35,0,.11-.06,.2-.18,.27-.22,.23-.43,.47-.64,.72-.12,.11-.21,.16-.25,.16-.9-.68-1.48-1.21-1.74-1.58-.29-.3-.55-.65-.78-1.05-.25,.34-.52,.66-.82,.94-.57,.62-1.32,1.18-2.24,1.68-.37-.36-.7-.68-.98-.96,.46-.22,1.03-.63,1.68-1.23,.64-.6,1.18-1.25,1.6-1.95-.19-.45-.36-.93-.51-1.44-.27-.81-.49-1.78-.66-2.93-.1-.66-.16-1.37-.18-2.15-.14,.26-.26,.51-.37,.74-.16,0-.3-.02-.41-.06-.26-.11-.51-.21-.76-.31-.1-.04-.14-.08-.14-.12,0-.08,.02-.14,.06-.18,.45-.83,.84-1.84,1.17-3.01,.23-.67,.42-1.39,.55-2.15,.16-.83,.33-1.88,.49-3.14,.03-.14,.06-.21,.1-.21Zm-.21,7.14h.7c.01,1.22,.08,2.29,.21,3.22,.14,.9,.33,1.75,.57,2.54,.04,.14,.08,.27,.12,.39,.29-.77,.5-1.59,.64-2.46,.22-1.18,.36-2.93,.41-5.25h-2.19c-.15,.55-.3,1.07-.45,1.56Z"/>
        <path class="cls-1" d="M70.27,83.71h14.03c.11,.01,.22,.08,.33,.18,.22,.37,.33,.61,.33,.72-.16,1.5-.27,2.91-.33,4.2-.05,1.19-.08,2.36-.08,3.51,0,2.69,.14,4.79,.43,6.28,.26,1.24,.5,1.87,.72,1.87,.16,0,.27-.12,.33-.35,.12-.23,.25-.92,.39-2.05,.04-.1,.1-.14,.18-.14s.14,.04,.18,.12c.23,.22,.45,.4,.66,.53,.1,.04,.14,.14,.14,.31-.33,1.44-.71,2.48-1.15,3.14-.21,.31-.45,.47-.74,.47-.4,0-.8-.44-1.21-1.31-.46-.94-.79-2.17-.98-3.69-.23-1.64-.35-3.36-.35-5.17,0-1.9,.15-4.33,.45-7.3h-12.18v7.14c0,2.19-.12,3.92-.37,5.21-.18,1.07-.51,2.14-1,3.22-.25,.63-.61,1.24-1.09,1.83-.1,0-.16,0-.21-.02-.23-.23-.49-.43-.76-.59-.07-.07-.1-.16-.1-.29,.42-.53,.79-1.26,1.11-2.19,.34-.97,.58-1.99,.72-3.06,.15-1.12,.23-2.49,.23-4.1v-8.12c0-.22,.11-.33,.33-.33Zm10.99,3.71c-.08,0-.19,.02-.33,.06-.6,.21-1.31,.39-2.13,.55-.34,.07-.67,.14-.98,.21v1.95h3.28c.22,0,.33,.08,.33,.25v6.32c0,.18-.11,.27-.33,.27h-3.28v2.38c1.01-.14,2-.28,2.95-.43-.26-.33-.53-.65-.82-.96,0-.1,.36-.32,1.07-.68,.68,.83,1.24,1.61,1.66,2.32,.42,.64,.77,1.32,1.05,2.03,0,.05-.44,.19-1.31,.41-.12-.46-.38-1.05-.76-1.74-.01-.01-.02-.03-.02-.04-2.9,.38-5.84,.74-8.82,1.07-.23,.37-.42,.55-.57,.55-.12,0-.4-.6-.82-1.8,1.34-.11,2.96-.28,4.86-.51h.06v-2.58h-3.12c-.22,0-.33-.09-.33-.27v-6.32c0-.16,.11-.25,.33-.25h3.12v-1.74c-.1,.01-.18,.03-.25,.04-.98,.1-1.89,.14-2.71,.14-.23,0-.38-.09-.43-.27-.19-.27-.4-.56-.64-.86,0-.18,.08-.27,.25-.27h1.23c1.01,0,1.89-.05,2.62-.16,.67-.03,1.34-.13,2.01-.31,.75-.18,1.39-.41,1.93-.7,.07-.04,.12-.06,.16-.06,.16,0,.29,.03,.37,.1,.79,.7,1.19,1.13,1.19,1.31,0,.15-.08,.23-.25,.23l-.57-.23Zm-4.92,8.26v-4.18h-1.97v4.18h1.97Zm3.61,0v-4.18h-2.13v4.18h2.13Z"/>
        <path class="cls-1" d="M91.04,93.3h3.69c.22,0,.33,.09,.33,.27v4.82c.01,.48,.08,.83,.21,1.07,.11,.26,.27,.45,.47,.57,.27,.16,.61,.28,1,.35,.51,.11,1.07,.16,1.68,.16h4.63c1.83,0,3.99-.2,6.46-.59,.1-.05,.2-.08,.31-.08s.16,.03,.16,.08c-.16,.57-.29,1.14-.39,1.7-.03,.23-.14,.35-.35,.35h-10.83c-.46,0-.92-.03-1.35-.1-.44-.08-.86-.18-1.27-.31-.38-.14-.73-.33-1.05-.59-.22-.19-.45-.54-.7-1.05l-.06-.08c-.1,0-.15,.02-.16,.06-1.34,1.16-2.08,1.95-2.21,2.36-.03,.08-.08,.12-.16,.12-.1,0-.36-.35-.8-1.05-.07-.12-.1-.27-.1-.43,.78-.38,1.76-1.07,2.93-2.05,.08-.07,.12-.23,.12-.49v-3.77h-2.56c-.16,0-.25-.1-.25-.31v-.68c0-.22,.08-.33,.25-.33Zm.74-5.5c.77,.44,1.4,.84,1.91,1.21,.57,.46,1.06,.88,1.46,1.25,0,.03-.03,.09-.1,.18-.41,.59-.62,.88-.64,.88-.63-.59-1.3-1.13-2.01-1.62-.57-.38-1.05-.66-1.42-.84,0-.07,.21-.38,.62-.92,.07-.1,.13-.14,.18-.14Zm.66-4.43c.71,.4,1.29,.76,1.74,1.09,.53,.42,.99,.81,1.37,1.15,0,.01-.03,.07-.1,.16-.4,.59-.61,.88-.64,.88-.59-.53-1.21-1.02-1.87-1.46-.53-.37-.98-.62-1.33-.76,0-.07,.22-.38,.66-.92,.05-.1,.11-.14,.16-.14Zm4.51,1.64h5.33v-1.64c0-.16,.11-.25,.33-.25,1.04,0,1.56,.08,1.56,.25,0,.19-.07,.29-.21,.31s-.21,.16-.21,.43v.9h5.6c.15,0,.23,.11,.23,.33v.66c0,.22-.08,.33-.23,.33h-5.6v1.64h4.35c.22,0,.33,.09,.33,.27v4.66c0,.16-.11,.25-.33,.25h-3.73c.3,.46,.61,.88,.92,1.23,.52,.59,1.04,1.05,1.56,1.39,.7,.56,1.55,1.02,2.56,1.37,.11,.03,.16,.06,.16,.1,0,.1-.03,.18-.1,.27-.31,.25-.59,.49-.84,.72-.07,.11-.14,.16-.21,.16-.75-.29-1.38-.62-1.89-1-.7-.46-1.33-1.03-1.91-1.7-.27-.3-.57-.67-.88-1.11v4.88c0,.18-.11,.27-.33,.27h-.82c-.22,0-.33-.09-.33-.27v-4.94c-.07,.07-.12,.13-.16,.18-.48,.6-.97,1.13-1.48,1.6-.56,.49-1.2,.94-1.91,1.35-.85,.49-1.33,.74-1.46,.74-.08,0-.18-.09-.29-.27-.19-.25-.42-.51-.68-.78-.12-.11-.18-.19-.18-.25,.93-.36,1.72-.72,2.38-1.09,.66-.38,1.31-.88,1.97-1.48,.31-.33,.69-.79,1.13-1.39h-3.51c-.22,0-.33-.08-.33-.25v-4.66c0-.18,.11-.27,.33-.27h4.18v-1.64h-5.33c-.16,0-.25-.11-.25-.33v-.66c0-.22,.08-.33,.25-.33Zm5.33,6.83v-2.56h-3.04v2.56h3.04Zm4.68,0v-2.56h-3.2v2.56h3.2Z"/>
        <path class="cls-1" d="M119.6,83.38c1.04,0,1.56,.08,1.56,.25,0,.19-.07,.3-.21,.33-.14,.01-.21,.15-.21,.41v18.05c0,.16-.11,.25-.33,.25h-.82c-.22,0-.33-.08-.33-.25v-7.2h-3.04v1.52c0,1.01-.09,1.93-.27,2.77-.15,.74-.44,1.39-.88,1.95-.27,.37-.66,.75-1.15,1.13-.15,0-.27-.05-.37-.14-.19-.26-.38-.5-.55-.72-.1-.1-.14-.18-.14-.27,.85-.7,1.4-1.51,1.66-2.44,.15-.67,.23-1.44,.23-2.32v-1.48h-1.07c-.16,0-.25-.12-.25-.35v-.66c0-.22,.08-.33,.25-.33h5.58v-3.12h-3.36v1.09c0,.15-.11,.23-.33,.23h-.82c-.22,0-.33-.08-.33-.23v-7.49c0-.16,.11-.25,.33-.25,1.04,0,1.56,.08,1.56,.25,0,.19-.07,.3-.21,.33-.14,.01-.21,.15-.21,.41v4.35h3.36v-5.82c0-.16,.11-.25,.33-.25Zm2.38,6.48h3.83c.07-1.35,.1-2.91,.1-4.68,0-.3-.03-.85-.08-1.64,0-.11,.08-.16,.25-.16l1.52,.14c.19,.04,.29,.1,.29,.18,0,.18-.06,.29-.18,.35-.26,.07-.39,.23-.39,.47,0,2.05-.04,3.83-.12,5.33h4.63c.16,0,.25,.11,.25,.33v.68c0,.21-.08,.31-.25,.31h-4.45c.4,1.71,.77,3.09,1.13,4.14,.4,1.12,.81,2.04,1.23,2.77,.4,.72,.82,1.34,1.27,1.85,.4,.51,.83,.95,1.31,1.33,0,.11-.05,.19-.16,.25-.22,.21-.41,.44-.57,.72-.05,.08-.16,.12-.33,.12-.57-.48-1.16-1.11-1.74-1.89-.48-.72-.93-1.51-1.35-2.36-.37-.81-.75-1.77-1.13-2.89-.1-.29-.18-.59-.27-.9-.33,1.89-.86,3.54-1.6,4.96-.56,1.11-1.24,2.13-2.05,3.08h-.31c-.46-.15-.9-.3-1.29-.45-.05-.04-.08-.12-.08-.23,1-.94,1.8-1.98,2.4-3.1,.66-1.12,1.16-2.54,1.5-4.25,.16-.81,.3-1.86,.41-3.16h-3.75c-.16,0-.25-.1-.25-.31v-.68c0-.22,.08-.33,.25-.33Zm7.32-4.68c.64,.46,1.17,.9,1.58,1.31,.51,.48,.93,.92,1.27,1.31,0,.03-.03,.08-.1,.16-.4,.6-.61,.9-.64,.9-.55-.63-1.12-1.2-1.72-1.72-.49-.41-.9-.71-1.23-.9,0-.07,.21-.38,.64-.92,.07-.1,.14-.14,.21-.14Z"/>
        <path class="cls-1" d="M139.88,83.13c1.15,.33,1.72,.55,1.72,.68,0,.14-.08,.21-.23,.21-.18,0-.27,.06-.27,.18-.34,.55-.79,1.16-1.33,1.83-.16,.18-.31,.36-.45,.53,1.39-.14,2.79-.3,4.18-.49-.25-.34-.53-.69-.84-1.05,0-.08,.36-.3,1.07-.66,.56,.7,1.02,1.33,1.37,1.91,.33,.53,.61,1.1,.84,1.7,0,.05-.41,.19-1.23,.41-.08-.33-.25-.72-.51-1.19-2.08,.31-4.38,.59-6.91,.84-.11,0-.21,.07-.29,.21-.05,.15-.16,.23-.33,.23-.14,0-.44-.55-.9-1.64,.68-.04,1.37-.09,2.05-.14,.51-.71,.98-1.46,1.42-2.24,.22-.42,.4-.84,.53-1.25,0-.04,.03-.06,.1-.06Zm-1.64,14.6l1.25,.51c.21,.1,.31,.2,.31,.31,0,.12-.08,.21-.25,.25-.19,0-.31,.08-.37,.25-.55,1.24-1.09,2.21-1.64,2.89-.12,.16-.22,.25-.29,.25-.08,0-.2-.05-.35-.14-.27-.14-.53-.25-.78-.35-.12-.04-.18-.08-.18-.1,0-.04,.03-.1,.08-.16,.52-.6,.92-1.13,1.19-1.6,.37-.6,.65-1.2,.84-1.8,.05-.19,.12-.29,.18-.29Zm-.98-9.11h7.22c.22,0,.33,.08,.33,.25v5.91c0,.68-.08,1.13-.25,1.33-.04,.3-.72,.6-2.05,.9-.25,0-.37-.1-.37-.31-.04-.23-.14-.6-.29-1.11,1.03-.07,1.54-.34,1.56-.82v-.57h-5v2.46c0,.18-.11,.27-.33,.27h-.82c-.16,0-.25-.09-.25-.27v-7.79c0-.16,.08-.25,.25-.25Zm1.15,2.24h5v-1.09h-5v1.09Zm0,2.19h5v-1.07h-5v1.07Zm2.62,4.86l1.33,.12c.15,.01,.23,.05,.23,.1,0,.14-.03,.22-.1,.25-.1,.03-.14,.11-.14,.25v1.48c0,.6,.36,.9,1.07,.9h3.86c.79,0,1.26-.09,1.42-.27,.19-.15,.43-.75,.72-1.78,.18,.26,.45,.51,.82,.74,.16,.05,.25,.14,.25,.25-.4,1.19-.69,1.85-.88,1.99-.21,.27-.65,.41-1.33,.41h-5c-1.53,0-2.3-.47-2.3-1.42v-2.87c0-.1,.03-.14,.08-.14Zm3.69-.27s.11,.02,.21,.06c.78,.4,1.57,.89,2.38,1.48,.08,.05,.12,.12,.12,.18s-.02,.13-.06,.18l-.37,.53c-.11,.07-.21,.1-.31,.1-.04,0-.12-.04-.23-.12-.75-.55-1.48-.99-2.19-1.33-.14-.04-.21-.1-.21-.18,0-.07,.02-.14,.06-.21l.39-.64c.08-.04,.15-.06,.21-.06Zm2.05-7.3l1.31,.14c.16,.01,.25,.05,.25,.1,0,.15-.04,.24-.12,.27-.08,.01-.12,.09-.12,.23v1.19c.51-.07,.98-.14,1.44-.23,.63-.12,1.22-.29,1.78-.49,.42-.12,.8-.27,1.13-.45,.03-.01,.05-.02,.08-.02,.07,0,.14,.06,.21,.18,.57,.7,.86,1.07,.86,1.13,0,.12-.05,.18-.16,.18l-.41-.1s-.05,0-.08,.02c-.4,.14-.83,.27-1.31,.39-.6,.14-1.24,.26-1.91,.37-.44,.08-.98,.16-1.62,.25v1.44c0,.6,.36,.9,1.07,.9h2.38c.67,0,1.07-.09,1.19-.27,.18-.15,.38-.75,.62-1.78,.16,.26,.43,.5,.8,.72,.18,.07,.27,.16,.27,.27-.33,1.19-.58,1.85-.76,1.97-.18,.27-.55,.41-1.13,.41h-3.53c-1.53,0-2.3-.46-2.3-1.39v-5.25c0-.11,.03-.16,.08-.16Zm.16-7.05l1.31,.14c.16,.01,.25,.05,.25,.1,0,.14-.03,.23-.1,.27-.1,.01-.14,.09-.14,.23v1.6c.55-.11,1.06-.22,1.54-.33,.64-.15,1.25-.34,1.83-.57,.42-.18,.81-.38,1.15-.59,.03-.01,.05-.02,.08-.02,.07,0,.14,.05,.21,.16,.52,.66,.78,1.01,.78,1.07,0,.11-.05,.16-.16,.16l-.41-.08s-.05,0-.08,.02c-.41,.19-.86,.36-1.35,.51-.6,.19-1.24,.36-1.93,.51-.42,.1-.97,.19-1.64,.29v.8c0,.6,.36,.9,1.07,.9h2.38c.55,0,.88-.08,.98-.23,.14-.14,.3-.64,.49-1.5,.16,.26,.43,.51,.8,.74,.18,.05,.27,.14,.27,.25-.27,1.04-.48,1.61-.62,1.7-.16,.23-.48,.35-.94,.35h-3.53c-1.53,0-2.3-.46-2.3-1.39v-4.92c0-.11,.03-.16,.08-.16Zm4.18,14.62c.81,.44,1.47,.85,1.99,1.23,.6,.48,1.11,.92,1.54,1.31,0,.01-.03,.07-.1,.16-.4,.59-.61,.88-.64,.88-.66-.6-1.36-1.16-2.11-1.66-.6-.41-1.1-.7-1.5-.88,0-.07,.21-.38,.64-.92,.08-.08,.14-.12,.18-.12Z"/>
        <path class="cls-1" d="M158.7,87.81h2.69v-2.87c0-.4-.02-.7-.06-.9-.07-.18-.1-.31-.1-.41,0-.11,.14-.16,.41-.16l1.66,.23c.15,.08,.23,.15,.23,.21,0,.12-.08,.18-.25,.18-.27,.1-.41,.41-.41,.94v2.79h2.3c.16,0,.25,.11,.25,.33v.66c0,.23-.08,.35-.25,.35h-2.3v4.2c.67-.3,1.31-.62,1.93-.96,.05-.04,.1-.06,.12-.06,.11,0,.16,.05,.16,.16,0,.71-.03,1.09-.08,1.15-.7,.38-1.41,.75-2.13,1.11v5.95c0,1-.74,1.5-2.21,1.5l-1.48-.1c-.11,0-.16-.12-.16-.35-.05-.26-.19-.58-.41-.96,0-.1,.05-.14,.16-.14,.64,.15,1.22,.23,1.72,.23,.6,0,.9-.25,.9-.74v-4.68c-.68,.31-1.37,.62-2.05,.9-.19,.4-.36,.59-.49,.59s-.41-.57-.82-1.72c.89-.25,1.96-.64,3.22-1.17,.05-.01,.1-.03,.14-.06v-4.84h-2.69c-.18,0-.27-.12-.27-.35v-.66c0-.22,.09-.33,.27-.33Zm7.94-1.64h3.94v-2.46c0-.16,.11-.25,.33-.25,1.04,0,1.56,.08,1.56,.25,0,.19-.07,.3-.21,.33-.14,.01-.21,.15-.21,.41v1.72h4.02c.16,0,.25,.12,.25,.35v.64c0,.23-.08,.35-.25,.35h-4.02v2.85h5.17c.16,0,.25,.11,.25,.33v.66c0,.23-.08,.35-.25,.35h-2.54v2.44h2.13c.18,0,.27,.12,.27,.35v.64c0,.22-.09,.33-.27,.33h-2.13v5.25c0,1.05-.85,1.58-2.54,1.58l-1.39-.08c-.1,0-.14-.14-.14-.41-.03-.3-.14-.66-.35-1.09v-.06c.63,.15,1.23,.23,1.8,.23,.77,0,1.15-.25,1.15-.74v-4.68h-7.3c-.16,0-.25-.11-.25-.33v-.64c0-.23,.08-.35,.25-.35h7.3v-2.44h-7.46c-.16,0-.25-.12-.25-.35v-.66c0-.22,.08-.33,.25-.33h4.84v-2.85h-3.94c-.16,0-.25-.12-.25-.35v-.64c0-.23,.08-.35,.25-.35Zm1.07,10.03c.6,.41,1.1,.79,1.5,1.15,.44,.45,.81,.85,1.13,1.21,0,.01-.03,.08-.1,.18-.41,.6-.62,.9-.64,.9-.49-.57-1.02-1.1-1.58-1.58-.45-.38-.83-.66-1.13-.82,0-.07,.22-.38,.66-.92,.07-.08,.12-.12,.16-.12Z"/>
        <path class="cls-1" d="M182.24,94.86l1.54,.45c.12,.03,.18,.1,.18,.21,0,.1-.14,.23-.41,.41-.27,1.46-.51,2.54-.7,3.22-.19,.63-.42,1.25-.7,1.87-.18,0-.32-.04-.43-.12-.23-.11-.51-.19-.84-.25-.08-.05-.12-.12-.12-.18,.1-.18,.18-.38,.27-.62,.25-.48,.45-1,.62-1.56,.14-.53,.26-1.18,.37-1.95,.1-.42,.14-.86,.14-1.31,0-.11,.03-.16,.08-.16Zm2.79-11.57l1.56,.86c.05,.12,.08,.19,.08,.21,0,.12-.11,.18-.33,.18-.29,0-.48,.08-.57,.25-.72,1.03-1.42,1.98-2.07,2.85,.45,.41,.9,.85,1.35,1.31,.68-.96,1.25-1.83,1.7-2.62,.88,.75,1.31,1.16,1.31,1.23,0,.1-.08,.14-.23,.14-.27,0-.45,.05-.53,.14-1.05,1.64-2.1,3.14-3.14,4.51,.79-.1,1.73-.2,2.81-.31-.11-.36-.24-.7-.39-1.05,0-.07,.3-.26,.9-.57,.31,.7,.57,1.33,.78,1.91,.18,.53,.33,1.1,.45,1.7,0,.04-.38,.16-1.15,.35-.04-.4-.14-.88-.31-1.44l-1.42,.33v8.8c0,.18-.11,.27-.33,.27h-.82c-.22,0-.33-.09-.33-.27v-8.43l-2.38,.55c-.33,.33-.52,.49-.57,.49s-.19-.6-.41-1.8c0-.07,.47-.17,1.42-.31,.83-1.08,1.53-2.02,2.09-2.83-.7-.59-1.23-1-1.6-1.25-.55-.36-1.13-.67-1.74-.94,0-.11,.27-.44,.8-1,.05-.08,.12-.12,.18-.12,.21,.14,.4,.27,.59,.41,.4-.52,.75-1.03,1.07-1.54,.56-.89,.96-1.56,1.21-2.01Zm2.54,11.73s.07,.06,.08,.18c.23,.88,.51,2.29,.82,4.25,0,.12-.38,.23-1.15,.33-.11,0-.16-.05-.16-.16-.12-1.35-.31-2.77-.57-4.25,0-.11,.33-.23,.98-.35Zm2.46-1.97h8.45c.22,0,.33,.08,.33,.25v6.34c0,.15-.11,.23-.33,.23h-1.56c.45,.33,.88,.61,1.27,.84,.42,.22,1.04,.46,1.85,.74,.11,.05,.16,.1,.16,.14,0,.11-.27,.44-.82,.98-.04,0-.11,0-.21-.02-1.56-.7-2.71-1.35-3.45-1.97-.08-.07-.12-.11-.12-.12,0-.1,.18-.29,.53-.59h-3.94c.63,.52,.94,.82,.94,.9,0,.1-.08,.14-.23,.14-.26,0-.4,.03-.43,.1-1.11,.57-2.26,1.04-3.45,1.39-.15,0-.26-.05-.33-.16-.08-.18-.23-.34-.43-.49-.1-.08-.14-.16-.14-.25,0-.05,.05-.09,.16-.1,.64-.19,1.2-.4,1.66-.62,.56-.23,1.11-.54,1.66-.92h-1.6c-.22,0-.33-.08-.33-.23v-6.34c0-.16,.11-.25,.33-.25Zm-1.15-8.61h4.59v-.98c0-.16,.11-.25,.33-.25,1.04,0,1.56,.08,1.56,.25,0,.19-.07,.29-.21,.31-.14,.03-.21,.17-.21,.43v.25h4.76c.11,0,.16,.09,.16,.27v.64c0,.18-.05,.27-.16,.27h-4.76v1.05h3.77c.11,0,.16,.08,.16,.25v.51c0,.21-.05,.31-.16,.31h-8.7c-.11,0-.16-.1-.16-.31v-.51c0-.16,.05-.25,.16-.25h3.45v-1.05h-4.59c-.11,0-.16-.09-.16-.27v-.64c0-.18,.05-.27,.16-.27Zm.27,4.1h10.32c.22,0,.33,.08,.33,.25v3.12c0,.16-.11,.25-.33,.25h-10.32c-.23,0-.35-.08-.35-.25v-3.12c0-.16,.12-.25,.35-.25Zm2.85,2.54v-1.48h-1.89v1.48h1.89Zm-.9,3.94h6.32v-.9h-6.32v.9Zm0,1.91h6.32v-.92h-6.32v.92Zm6.32,1.89v-.9h-6.32v.9h6.32Zm-2.21-7.73v-1.48h-1.89v1.48h1.89Zm3.28,0v-1.48h-1.97v1.48h1.97Z"/>
        <path class="cls-1" d="M209.41,83.38c1.04,0,1.56,.08,1.56,.25,0,.19-.07,.3-.21,.33-.14,.01-.21,.15-.21,.41v17.9c0,.15-.11,.23-.33,.23h-.82c-.21,0-.31-.08-.31-.23v-7.79h-2.38s-.02,.09-.02,.14c-.04,1.54-.14,2.72-.29,3.53-.18,1.08-.4,1.93-.68,2.56-.31,.72-.7,1.29-1.17,1.7-.15,0-.25-.03-.31-.08-.19-.19-.43-.37-.72-.53-.14-.11-.21-.21-.21-.29s.03-.14,.1-.18c.44-.46,.76-.95,.96-1.46,.26-.49,.45-1.09,.57-1.78,.21-.89,.32-2.09,.35-3.61h-1.48c-.18,0-.27-.12-.27-.35v-.64c0-.23,.09-.35,.27-.35h5.25v-2.54h-3.3v1.09c0,.15-.11,.23-.33,.23h-.82c-.22,0-.33-.08-.33-.23v-7.24c0-.16,.11-.25,.33-.25,1.04,0,1.56,.08,1.56,.25,0,.19-.07,.3-.21,.33-.14,.01-.21,.15-.21,.41v4.1h3.3v-5.66c0-.16,.1-.25,.31-.25Zm7.3-.25l1.52,.74c.14,.1,.21,.18,.21,.25,0,.16-.14,.25-.41,.25-.22,0-.38,.05-.49,.16-.14,.18-.27,.34-.41,.49h4.35c.15,0,.27,.05,.37,.14,.3,.37,.45,.59,.45,.68-.44,1.01-.85,1.79-1.23,2.34-.45,.68-.92,1.24-1.39,1.68-.49,.44-1.11,.88-1.85,1.31-.81,.46-1.71,.85-2.71,1.15-.66,.26-1.52,.48-2.58,.66-.19,0-.33-.06-.43-.18-.16-.26-.33-.51-.51-.74-.08-.08-.12-.15-.12-.21s.05-.1,.14-.12c.64-.11,1.29-.25,1.95-.41,.38-.1,.75-.2,1.11-.31-.07-.12-.16-.26-.27-.41-.29-.4-.66-.81-1.13-1.23,0-.08,.36-.3,1.09-.66,.46,.46,.85,.89,1.15,1.27,.14,.18,.27,.36,.39,.53,.22-.1,.42-.2,.62-.31,.29-.15,.56-.31,.82-.49-.1-.16-.23-.34-.41-.53-.34-.44-.79-.87-1.35-1.29,0-.08,.36-.3,1.07-.66,.56,.46,1.02,.9,1.37,1.31,.12,.14,.24,.27,.35,.41,.05-.04,.1-.09,.14-.14,.52-.48,.95-1.02,1.29-1.62,.16-.23,.32-.52,.47-.86h-4.49c-.18,.16-.37,.32-.57,.47-.42,.31-.85,.61-1.29,.88-.44,.25-.79,.43-1.05,.55-.12,0-.23-.07-.33-.21-.16-.29-.36-.54-.59-.76-.14-.08-.21-.15-.21-.21,0-.01,.02-.03,.06-.06,.6-.22,1.09-.44,1.48-.68,.55-.3,1.09-.69,1.64-1.17,.37-.3,.67-.59,.9-.88,.26-.3,.49-.64,.7-1.03,.08-.08,.15-.12,.21-.12Zm-4.92,10.66h7.14v-.49c0-.4-.03-.7-.08-.92-.05-.15-.08-.28-.08-.39,0-.1,.14-.14,.41-.14l1.66,.21c.15,.07,.23,.13,.23,.18,0,.12-.08,.18-.25,.18-.27,.12-.41,.44-.41,.96v.41h1.97c.16,0,.25,.11,.25,.33v.66c0,.22-.08,.33-.25,.33h-1.97v5.91c0,.98-.74,1.48-2.21,1.48h-1.48c-.11,0-.16-.12-.16-.37-.05-.26-.19-.57-.41-.94,0-.11,.05-.16,.16-.16,.64,.11,1.22,.16,1.72,.16,.6,0,.9-.24,.9-.72v-5.35h-7.14c-.16,0-.25-.11-.25-.33v-.66c0-.22,.08-.33,.25-.33Zm1.97,2.4s.1,.03,.18,.08c.81,.59,1.63,1.34,2.48,2.26,.08,.07,.12,.16,.12,.29,0,.08-.02,.15-.06,.21l-.47,.66c-.14,.07-.26,.1-.37,.1-.05,0-.13-.06-.23-.18-.79-.81-1.55-1.48-2.28-2.01-.14-.07-.21-.16-.21-.27,0-.08,.02-.16,.06-.25l.53-.8c.08-.05,.16-.08,.23-.08Z"/>
        <path class="cls-1" d="M226.49,89.37c.59,.34,1.07,.67,1.44,.98,.44,.37,.81,.7,1.13,.98,0,.03-.05,.09-.14,.18-.44,.64-.67,.96-.7,.96-.46-.48-.96-.92-1.48-1.33-.42-.34-.78-.58-1.07-.72,0-.07,.21-.38,.64-.92,.08-.1,.14-.14,.18-.14Zm2.71,5.93c.07,0,.12,.05,.14,.14,.34,.72,.51,1.11,.51,1.15,0,.08-.03,.16-.08,.23-.53,1.18-1.03,2.19-1.5,3.04-.26,.46-.57,.98-.94,1.54-.07,.14-.1,.31-.1,.53,0,.18-.05,.27-.16,.27-.1,0-.51-.42-1.25-1.27-.07-.04-.12-.12-.14-.23,0-.08,.03-.15,.08-.21,.33-.3,.66-.68,.98-1.13,.46-.62,.92-1.31,1.35-2.09,.38-.67,.72-1.29,1-1.87,.04-.07,.08-.1,.1-.1Zm-2.13-11.26c.62,.36,1.12,.69,1.52,1,.46,.4,.86,.75,1.19,1.05,0,.03-.04,.09-.12,.18-.45,.64-.68,.96-.7,.96-.49-.51-1.02-.97-1.58-1.39-.45-.36-.83-.6-1.13-.74,0-.07,.21-.38,.64-.92,.07-.1,.13-.14,.18-.14Zm3.28-.06h3.28c.22,0,.33,.08,.33,.23v4s.03,0,.04-.02c.7-.48,1.22-.9,1.58-1.27,.52-.48,.9-.96,1.13-1.44,.08-.14,.18-.21,.29-.21l1.13,.47c.18,.08,.27,.17,.27,.27s-.1,.16-.29,.18c-.27,0-.44,.07-.51,.21-.52,.74-1.03,1.35-1.54,1.85h3.16v-3.06h-4.18c-.11,0-.16-.1-.16-.31v-.68c0-.15,.05-.23,.16-.23h10.01c.11,0,.16,.08,.16,.23v.68c0,.21-.05,.31-.16,.31h-4.51v3.06h3.61c-.34-.34-.68-.67-1.03-.98-.51-.42-.93-.73-1.27-.92,0-.07,.19-.36,.57-.86,.07-.08,.12-.12,.16-.12,.7,.48,1.26,.92,1.7,1.33,.52,.52,.96,.98,1.33,1.37,0,.01-.03,.07-.1,.16-.4,.56-.61,.84-.64,.84-.11-.14-.22-.27-.33-.39v12.06c0,.51-.2,.9-.59,1.17-.37,.22-.85,.37-1.46,.45-.12,0-.2-.08-.23-.25-.01-.25-.16-.64-.43-1.17,0-.05,.03-.08,.1-.08,.62,0,.98-.06,1.09-.18,.14-.12,.21-.32,.21-.59v-1l-.33,.39c-.22-.41-.44-.81-.68-1.19-.23,.36-.45,.66-.66,.9-.12,.14-.23,.21-.31,.21-.07,0-.15-.03-.25-.08-.16-.08-.33-.16-.49-.23v2.77c0,.16-.11,.25-.33,.25h-.64c-.23,0-.35-.08-.35-.25v-2.77c-.21,.26-.31,.39-.33,.39-.22-.36-.44-.7-.66-1.03-.21,.33-.41,.62-.62,.88-.12,.16-.22,.25-.29,.25s-.14-.04-.23-.12c-.21-.08-.4-.16-.57-.25-.07-.03-.1-.05-.1-.06,0-.04,.03-.1,.08-.16,.48-.51,.85-.96,1.11-1.37-.1-.14-.2-.27-.31-.39-.34-.42-.64-.75-.88-.96v5.6c0,.16-.11,.25-.33,.25h-.66c-.22,0-.33-.08-.33-.25v-12.96c-.1,0-.21-.04-.33-.12-.26-.12-.51-.24-.76-.35-.03-.01-.05-.02-.06-.02v1.07c0,.22-.11,.33-.33,.33h-2.32c-.07,.82-.16,1.57-.29,2.26l-.08,.37h3.1c.18,0,.27,.09,.27,.27-.04,2.65-.14,4.56-.29,5.72-.15,1.39-.38,2.43-.68,3.12-.26,.71-.98,1.07-2.17,1.07-.68,0-1.03-.12-1.05-.37-.05-.29-.2-.63-.43-1.03v-.16h1.48c.56,0,.92-.25,1.07-.74,.19-.4,.35-1.17,.47-2.32,.11-.89,.19-2.33,.25-4.33h-2.28l-.16,.74c-.04,.11-.07,.16-.08,.16-.11,0-.21,0-.31-.02-.3-.04-.61-.1-.92-.16-.1-.03-.14-.08-.14-.14,.19-.67,.32-1.16,.39-1.48,.15-.59,.28-1.25,.39-1.99,.14-.75,.23-1.54,.29-2.36,0-.16,.05-.25,.14-.25,.4,.18,.68,.31,.86,.41h1.35v-3.36h-2.13c-.11,0-.16-.1-.16-.31v-.68c0-.15,.05-.23,.16-.23Zm6.07,9.68c.52-.52,.91-.98,1.17-1.37-.03-.05-.06-.1-.1-.14-.4-.53-.72-.91-.98-1.13,0-.04,.15-.25,.45-.64,.05-.07,.1-.1,.12-.1,.4,.44,.75,.84,1.05,1.21,.19-.31,.34-.64,.45-.96,.07-.16,.14-.25,.23-.25l.41,.18v-1.09h-2.79v4.29Zm0,1.99c.05-.08,.12-.17,.21-.27,.04-.05,.08-.08,.12-.08,.55,.53,1,1.03,1.37,1.48,.23-.4,.42-.81,.55-1.23,.07-.16,.14-.25,.21-.25l.33,.14v-1.56c-.21,.29-.31,.43-.33,.43-.23-.42-.46-.82-.7-1.19-.23,.37-.47,.68-.72,.94-.12,.16-.23,.25-.31,.25-.05,0-.13-.04-.23-.12-.19-.08-.36-.16-.51-.23v1.68Zm2.26-3.36c.19,.31,.37,.6,.53,.86v-1.93s-.05,.06-.06,.1c-.15,.36-.31,.68-.47,.96Zm.02,5.29c.19,.27,.36,.53,.51,.76v-1.87c-.18,.41-.35,.78-.51,1.11Zm1.83-6.5c.08-.1,.18-.22,.29-.37,.04-.07,.08-.1,.12-.1,.42,.41,.79,.79,1.09,1.15,.21-.41,.36-.81,.45-1.21,.05-.18,.12-.27,.18-.27l.57,.27v-1.17h-2.71v1.7Zm0,7.69c.48-.51,.85-.95,1.13-1.33l-.08-.12c-.38-.53-.7-.9-.96-1.11,0-.05,.15-.27,.45-.66,.04-.07,.08-.1,.12-.1,.38,.44,.72,.83,1,1.19,.18-.3,.31-.62,.41-.94,.07-.16,.14-.25,.23-.25l.41,.18v-1.58l-.33,.43c-.22-.37-.44-.71-.68-1.03-.16,.29-.32,.55-.47,.78-.11,.16-.19,.25-.25,.25s-.14-.03-.25-.1l-.53-.27c-.08-.03-.12-.05-.12-.06,0-.04,.03-.1,.08-.16,.37-.48,.66-.9,.88-1.27-.04-.08-.09-.15-.14-.21-.36-.41-.66-.72-.9-.94v7.3Zm2.13-6.23c.21,.3,.4,.57,.57,.82v-2.19c-.04,.05-.08,.12-.1,.18-.16,.44-.32,.83-.47,1.19Zm.04,4.9c.19,.31,.37,.6,.53,.86v-1.89s-.02,.05-.02,.08c-.18,.34-.35,.66-.51,.94Z"/>
        <path class="cls-1" d="M252.76,93.57c.07,0,.12,.05,.14,.14,.34,.72,.51,1.11,.51,1.15,0,.11-.03,.22-.1,.33-.67,1.59-1.3,2.95-1.89,4.08-.31,.63-.7,1.33-1.17,2.09-.08,.18-.12,.42-.12,.72,0,.18-.05,.27-.16,.27-.1,0-.52-.42-1.27-1.27-.07-.04-.11-.12-.12-.23,0-.11,.03-.2,.1-.27,.38-.41,.77-.92,1.17-1.52,.55-.83,1.08-1.78,1.6-2.83,.45-.92,.85-1.75,1.19-2.5,.04-.11,.08-.16,.12-.16Zm-3.28-4.7c.72,.37,1.33,.7,1.8,1,.55,.38,1.01,.74,1.39,1.07,0,.01-.03,.07-.1,.16-.45,.64-.69,.96-.72,.96-.59-.51-1.21-.97-1.87-1.39-.53-.34-.98-.58-1.33-.72,0-.1,.22-.41,.66-.94,.07-.1,.12-.14,.16-.14Zm1.23-5.25c.72,.38,1.31,.74,1.74,1.07,.53,.38,.99,.74,1.37,1.07,0,.03-.03,.09-.1,.18-.46,.64-.7,.96-.72,.96-.57-.53-1.18-1.02-1.83-1.46-.52-.36-.95-.6-1.29-.74,0-.1,.21-.41,.64-.94,.07-.1,.13-.14,.18-.14Zm4.43,12.57h10.34c.15,0,.27,.03,.35,.1,.26,.27,.39,.45,.39,.53-.53,.79-1.02,1.41-1.46,1.85-.56,.53-1.13,.98-1.72,1.33-.3,.18-.64,.36-1.03,.55,.34,.08,.68,.16,1.03,.23,.9,.21,2.45,.31,4.66,.31,0,.08-.05,.22-.14,.41-.14,.29-.24,.55-.31,.78-.01,.14-.08,.21-.21,.21-1.46,0-2.93-.17-4.39-.51-.85-.18-1.63-.42-2.36-.74-.85,.29-1.76,.53-2.75,.74-.79,.21-1.84,.38-3.14,.51-.19,0-.32-.05-.39-.16-.16-.25-.32-.48-.47-.7-.08-.08-.12-.14-.12-.18s.06-.07,.18-.08c.81-.1,1.59-.21,2.36-.33,1.07-.16,2-.36,2.81-.57-.44-.29-.82-.6-1.15-.94-.56-.45-1.12-1.16-1.68-2.11h-.8c-.16,0-.25-.1-.25-.31v-.68c0-.15,.08-.23,.25-.23Zm-.49-5.19h12.22c.22,0,.33,.08,.33,.25v3.61c0,.16-.11,.25-.33,.25h-12.22c-.22,0-.33-.08-.33-.25v-3.61c0-.16,.11-.25,.33-.25Zm1.15-7.3h9.76c.22,0,.33,.09,.33,.27v5.72c0,.18-.11,.27-.33,.27h-9.76c-.22,0-.33-.09-.33-.27v-5.72c0-.18,.11-.27,.33-.27Zm2.32,10.25v-1.8h-2.32v1.8h2.32Zm-1.17-7.71h7.46v-1.37h-7.46v1.37Zm7.46,2.54v-1.37h-7.46v1.37h7.46Zm-7.16,8.61c.31,.51,.65,.91,1,1.21,.6,.53,1.26,.98,1.99,1.33,.7-.26,1.31-.54,1.83-.84,.63-.37,1.15-.78,1.56-1.23,.16-.15,.31-.31,.45-.47h-6.83Zm4.53-3.45v-1.8h-2.28v1.8h2.28Zm3.94,0v-1.8h-2.54v1.8h2.54Z"/>
        <path class="cls-1" d="M276.15,83.46l1.21,.29c.18,.04,.27,.14,.27,.29,0,.21-.1,.31-.31,.31-.12,.04-.21,.13-.27,.27-.4,.93-.8,1.75-1.21,2.46h3.26c.23,0,.35,.09,.35,.27v13.92c0,.16-.12,.25-.35,.25h-.82c-.22,0-.33-.08-.33-.25v-1.07h-4.43v1.64c0,.16-.11,.25-.33,.25h-.82c-.22,0-.33-.08-.33-.25v-14.42c0-.23,.11-.35,.33-.35h1.89c.55-.93,1.09-2.08,1.64-3.45,.04-.11,.12-.16,.25-.16Zm-2.62,9.43h4.43v-4.51h-4.43v4.51Zm0,5.99h4.43v-4.68h-4.43v4.68Zm10.25-15.59l1.42,.55c.15,.11,.23,.2,.23,.27,0,.12-.05,.21-.16,.25-.18,0-.29,.08-.33,.25-.3,.92-.57,1.65-.8,2.21h5.15c.27,0,.41,.14,.41,.41,0,4.79-.08,8.09-.25,9.93-.16,1.63-.42,2.79-.78,3.49-.27,.63-.65,1.02-1.13,1.17-.59,.25-1.37,.37-2.36,.37-.88,0-1.33-.14-1.35-.43-.05-.36-.15-.71-.29-1.07,0-.1,.03-.14,.08-.14l.16,.02c.4,.04,.75,.06,1.07,.06,1.03,0,1.73-.15,2.11-.45,.41-.31,.7-1.2,.88-2.65,.22-1.5,.34-4.63,.37-9.39h-4.74c-.23,.42-.48,.84-.74,1.25-.38,.53-.8,1.03-1.25,1.48-.16,0-.31-.02-.45-.06-.26-.12-.53-.23-.82-.33-.08-.04-.12-.08-.12-.12,0-.07,.03-.12,.08-.16,.7-.66,1.31-1.46,1.85-2.42,.33-.56,.61-1.15,.84-1.76,.27-.66,.53-1.5,.76-2.54,.04-.11,.1-.16,.16-.16Zm-.66,8.55c.14,0,.22,.02,.25,.06,.78,1.29,1.49,2.65,2.13,4.1,0,.21-.05,.31-.14,.33-.49,.33-.88,.49-1.17,.49-.68-1.75-1.34-3.2-1.97-4.35,0-.15,.3-.36,.9-.64Z"/>
        <path class="cls-1" d="M296.35,98.31l1.25,.53c.21,.08,.31,.18,.31,.29s-.08,.18-.25,.23c-.22,0-.36,.08-.41,.25-.57,1.19-1.16,2.11-1.74,2.77-.12,.14-.23,.21-.31,.21-.1,0-.23-.05-.39-.14-.29-.14-.57-.27-.84-.41-.11-.04-.16-.08-.16-.1,0-.04,.03-.1,.1-.16,.57-.56,1-1.06,1.29-1.5,.41-.57,.72-1.14,.92-1.7,.07-.16,.14-.25,.23-.25Zm2.79-15.24c.81,.67,1.54,1.4,2.19,2.19,.07,.04,.1,.1,.1,.16,0,.05-.05,.11-.14,.16-.03,.04-.05,.08-.08,.1h4.45c.68-.88,1.3-1.78,1.85-2.71l1.42,.78c.21,.11,.31,.23,.31,.35,0,.07-.11,.1-.33,.1-.14,.01-.63,.51-1.48,1.48h5c.16,0,.25,.1,.25,.31v.66c0,.22-.08,.33-.25,.33h-18.21c-.16,0-.25-.11-.25-.33v-.66c0-.21,.08-.31,.25-.31h5.5c-.51-.55-1-1-1.48-1.37-.05-.05-.08-.1-.08-.12,0-.07,.24-.39,.72-.96,.08-.11,.17-.16,.27-.16Zm-3.28,5.07h7.46c.22,0,.33,.08,.33,.25v6.91c0,.67-.1,1.1-.29,1.29-.03,.31-.78,.62-2.26,.9-.25,0-.37-.09-.37-.27-.04-.26-.14-.63-.29-1.11,1.19-.08,1.79-.36,1.8-.82v-.59h-5.25v2.32c0,.15-.11,.23-.33,.23h-.82c-.22,0-.33-.08-.33-.23v-8.63c0-.16,.11-.25,.33-.25Zm1.15,2.73h5.25v-1.5h-5.25v1.5Zm0,2.62h5.25v-1.42h-5.25v1.42Zm3.69,4.9c.42,.67,.76,1.29,1,1.87,.26,.52,.47,1.07,.64,1.66,0,.05-.46,.2-1.39,.43-.07-.38-.21-.84-.43-1.37-.25-.62-.57-1.23-.96-1.85,0-.1,.38-.34,1.15-.74Zm4.68-.33c.48,.72,.87,1.39,1.17,2.01,.27,.55,.52,1.13,.74,1.76,0,.05-.47,.2-1.42,.43-.08-.41-.25-.9-.51-1.48-.29-.66-.66-1.31-1.13-1.97,0-.12,.38-.38,1.15-.76Zm.25-9.43c.98,0,1.48,.08,1.48,.25,0,.18-.05,.27-.16,.29s-.16,.14-.16,.37v5.76c0,.15-.11,.23-.33,.23h-.82c-.16,0-.25-.08-.25-.23v-6.5c0-.11,.08-.16,.25-.16Zm3.94-.39l1.58,.21c.15,.08,.23,.14,.23,.18,0,.12-.08,.18-.25,.18-.27,.1-.41,.39-.41,.88v6.23c0,.93-.63,1.39-1.89,1.39h-.98c-.1,0-.14-.11-.14-.33-.04-.26-.16-.55-.35-.88,0-.12,.05-.18,.16-.18,.44,.12,.82,.18,1.15,.18,.44,0,.66-.23,.66-.68v-5.82c0-.4-.01-.7-.04-.92-.03-.15-.04-.27-.04-.37,0-.05,.11-.08,.33-.08Zm.49,10.07c.57,.64,1.03,1.24,1.35,1.78,.34,.49,.63,1.02,.86,1.58,0,.05-.46,.19-1.39,.41-.1-.34-.3-.77-.62-1.27-.34-.59-.79-1.18-1.35-1.76,0-.1,.38-.34,1.15-.74Z"/>
        <path class="cls-1" d="M323.52,86.66l1.09,.82c.1,.1,.14,.18,.14,.25s-.03,.11-.1,.12c-.11,.03-.19,.08-.25,.16-.26,.63-.54,1.2-.84,1.72-.36,.59-.81,1.18-1.35,1.76-.15,0-.26-.05-.33-.16-.19-.15-.36-.29-.51-.43-.04,1.04-.11,2.03-.21,2.97,.36,.97,.69,1.74,1,2.3,.36,.72,.98,1.56,1.87,2.5,.1,.05,.14,.12,.14,.21,0,.05-.05,.12-.14,.18-.15,.19-.36,.4-.62,.64-.08,.11-.16,.16-.23,.16s-.16-.04-.27-.12c-.62-.71-1.15-1.51-1.6-2.4-.19-.37-.37-.75-.53-1.15-.23,1.16-.59,2.27-1.09,3.32-.57,1.16-1.27,2.15-2.09,2.97-.42-.21-.77-.36-1.05-.45-.18-.05-.27-.1-.27-.12,.66-.68,1.21-1.4,1.66-2.15,.67-1.11,1.17-2.48,1.5-4.12,.3-1.39,.45-3.49,.45-6.28,0-1.65,.03-3.51,.08-5.56,0-.29,.08-.43,.25-.43l1.48,.18c.27,.03,.41,.14,.41,.33,0,.16-.1,.27-.31,.31-.29,.03-.43,.16-.43,.41v5.68c.14-.12,.25-.26,.35-.41,.37-.41,.68-.88,.94-1.42,.25-.44,.5-.98,.76-1.64,.03-.11,.05-.16,.08-.16Zm-6.07,1.07c.98,.22,1.48,.39,1.48,.51,0,.1-.05,.17-.16,.23-.11,.12-.17,.28-.18,.47-.1,1.54-.22,2.82-.37,3.81-.1,.55-.2,1.11-.31,1.68-.04,.12-.08,.18-.12,.18-.44-.14-.82-.23-1.15-.29-.11-.04-.16-.11-.16-.21,.19-.71,.36-1.5,.49-2.36s.25-2.12,.33-3.77c0-.18,.05-.27,.16-.27Zm8.78-.66l1.25,.51c.21,.1,.31,.2,.31,.31,0,.19-.1,.33-.29,.41-.26,0-.42,.14-.49,.41-.68,2.06-1.37,3.66-2.05,4.8-.15,.25-.27,.37-.35,.37-.11,0-.23-.04-.37-.12-.27-.12-.54-.25-.8-.37-.11-.04-.16-.07-.16-.08,0-.07,.03-.16,.1-.27,.67-1,1.18-1.87,1.52-2.6,.49-.98,.85-1.96,1.07-2.91,.08-.3,.17-.45,.27-.45Zm6.81,6.07c1.2,.42,1.8,.7,1.8,.82,0,.11-.08,.19-.25,.25-.3,0-.51,.09-.64,.27-.59,1.16-1.29,2.21-2.09,3.16-.81,.92-1.66,1.72-2.56,2.4-1.23,.88-2.73,1.67-4.49,2.4-.16,.04-.32,.06-.47,.06s-.27-.08-.37-.23c-.15-.22-.32-.4-.51-.55-.12-.07-.18-.16-.18-.27,0-.05,.08-.1,.23-.14,.66-.16,1.32-.4,1.99-.72,1.11-.46,2.1-1.03,2.97-1.68,1.12-.78,2.08-1.8,2.89-3.06,.56-.77,1-1.61,1.31-2.52,.04-.12,.16-.18,.37-.18Zm-4.1-9.93l1.64,.23c.16,.07,.25,.13,.25,.18,0,.14-.08,.21-.25,.21-.27,.11-.41,.43-.41,.96v9.68c0,.97-.74,1.46-2.21,1.46h-1.31c-.11,0-.16-.12-.16-.35-.05-.26-.19-.58-.41-.96,0-.1,.05-.14,.16-.14,.57,.1,1.09,.14,1.56,.14,.6,0,.9-.25,.9-.74v-9.17c0-.41-.03-.72-.08-.94-.05-.15-.08-.28-.08-.39s.14-.16,.41-.16Zm2.87,3.69c.88,.77,1.6,1.48,2.17,2.15,.66,.81,1.22,1.54,1.68,2.19,0,.03-.03,.09-.1,.18-.41,.59-.62,.88-.64,.88-.72-1.04-1.48-1.99-2.28-2.85-.66-.7-1.21-1.2-1.66-1.5,0-.07,.22-.38,.66-.92,.07-.1,.12-.14,.16-.14Z"/>
        <path class="cls-1" d="M341.5,96.42v3.77c.15-.04,.31-.08,.47-.12,1.11-.29,2.17-.6,3.18-.94-.21-.46-.44-.93-.7-1.39,0-.11,.38-.35,1.15-.72,.48,.89,.87,1.71,1.17,2.46,.29,.7,.53,1.43,.72,2.19,0,.05-.46,.19-1.39,.41-.07-.44-.21-.98-.43-1.62-1.89,.6-3.79,1.14-5.72,1.62-.23,.38-.42,.57-.57,.57-.14,0-.41-.6-.82-1.8,.46-.08,.98-.18,1.56-.31v-11.01c0-.21,.08-.31,.25-.31h6.4c.22,0,.33,.08,.33,.23v6.67c0,.21-.11,.31-.33,.31h-5.25Zm2.13-13.35l1.37,.64c.12,.11,.18,.2,.18,.27,0,.15-.11,.23-.33,.23-.15,0-.29,.04-.41,.12,.49,.59,.91,1.01,1.25,1.27,.52,.44,1.14,.85,1.87,1.23,0,.14-.04,.23-.12,.29-.21,.19-.46,.42-.78,.7-.03,0-.07-.01-.12-.04-.36-.18-.7-.4-1.03-.66v.45c0,.22-.05,.33-.16,.33h-3.53c-.07,0-.12-.03-.14-.1-.3,.31-.62,.6-.94,.86-.44,.34-.79,.58-1.05,.72-.12,0-.22-.05-.29-.16-.16-.27-.36-.51-.57-.7-.14-.08-.21-.14-.21-.18,0-.03,.03-.05,.08-.08,.6-.31,1.1-.62,1.5-.9,.53-.42,1.07-.95,1.62-1.58,.37-.41,.67-.81,.9-1.19,.26-.4,.49-.85,.7-1.35,.08-.1,.15-.14,.21-.14Zm-2.13,7.44v1.72h4.18v-1.72h-4.18Zm0,2.97v1.62h4.18v-1.62h-4.18Zm1.27-6.83h2.24c-.38-.36-.79-.8-1.21-1.33-.23,.34-.46,.64-.68,.88-.1,.16-.21,.31-.35,.45Zm10.05-3.59l1.54,.7c.12,.11,.18,.2,.18,.27,0,.16-.14,.25-.41,.25-.12,0-.22,.02-.29,.06,.29,.55,.58,1.03,.88,1.46,.44,.59,.88,1.06,1.33,1.42,.6,.56,1.33,1.03,2.17,1.39,.11,.01,.16,.05,.16,.1,0,.1-.03,.18-.1,.25-.29,.22-.55,.44-.78,.68-.07,.1-.13,.14-.18,.14-.64-.29-1.18-.62-1.6-1-.6-.46-1.15-1.03-1.64-1.7-.31-.42-.67-.97-1.07-1.64-.25,.38-.5,.72-.76,1-.3,.42-.68,.87-1.15,1.33s-.91,.86-1.37,1.23c-.45,.36-.82,.62-1.11,.78-.12,0-.23-.06-.31-.18-.18-.29-.39-.54-.64-.76-.14-.08-.21-.15-.21-.21,0-.03,.03-.05,.08-.08,.64-.33,1.17-.65,1.58-.96,.59-.44,1.18-.98,1.76-1.64,.38-.45,.7-.88,.94-1.29,.27-.42,.53-.9,.76-1.42,.08-.11,.15-.16,.21-.16Zm-3.12,13.19l1.25,.51c.21,.08,.31,.19,.31,.33,0,.11-.06,.19-.18,.25-.16,0-.27,.09-.33,.27-.45,1.37-.91,2.42-1.37,3.16-.11,.16-.19,.25-.25,.25-.08,0-.2-.04-.35-.12-.27-.12-.54-.24-.8-.35-.11-.04-.16-.07-.16-.08,0-.05,.02-.12,.06-.21,.44-.66,.76-1.24,.96-1.74,.31-.66,.55-1.31,.7-1.97,.04-.19,.1-.29,.16-.29Zm0-6.56h6.73c.16,0,.25,.12,.25,.35v.64c0,.22-.08,.33-.25,.33h-2.79v2.71h4.04c.15,0,.23,.11,.23,.33v.66c0,.22-.08,.33-.23,.33h-4.04v6.07c0,1.04-.85,1.56-2.54,1.56h-.16c-.1,0-.14-.12-.14-.37-.01-.31-.13-.68-.35-1.11v-.08c.21,.11,.4,.16,.57,.16,.77,0,1.15-.24,1.15-.72v-5.52h-3.69c-.16,0-.25-.11-.25-.33v-.66c0-.22,.08-.33,.25-.33h3.69v-2.71h-2.46c-.16,0-.25-.11-.25-.33v-.64c0-.23,.08-.35,.25-.35Zm6.23,6.56c.52,.83,.94,1.6,1.27,2.3,.31,.64,.57,1.33,.78,2.07,0,.04-.44,.17-1.31,.39-.08-.48-.27-1.05-.55-1.72-.31-.79-.73-1.58-1.25-2.36,0-.11,.36-.33,1.07-.68Z"/>
        <path class="cls-1" d="M362.19,84.94h5.33c.22,0,.33,.08,.33,.25v12.55c0,.18-.11,.27-.33,.27h-.82c-.22,0-.33-.09-.33-.27v-.98h-3.04v2.71c0,.18-.11,.27-.33,.27h-.82c-.21,0-.31-.09-.31-.27v-14.19c0-.22,.1-.33,.31-.33Zm1.15,10.5h3.04v-9.19h-3.04v9.19Zm6.32-9h4.02v-2.89c0-.16,.11-.25,.33-.25,1.04,0,1.56,.08,1.56,.25,0,.19-.07,.3-.21,.33-.14,.01-.21,.15-.21,.41v2.15h4.02c.16,0,.25,.1,.25,.31v.68c0,.21-.08,.31-.25,.31h-4.02v3.61h4.92c.16,0,.25,.12,.25,.35v.64c0,.23-.08,.35-.25,.35h-4.47c.56,1.3,1.07,2.3,1.52,3.01,.52,.93,1.14,1.77,1.87,2.52,.6,.63,1.21,1.11,1.83,1.44,0,.08-.06,.15-.18,.21-.27,.26-.51,.52-.7,.78-.08,.1-.14,.14-.18,.14-.94-.7-1.72-1.44-2.32-2.24-.67-.83-1.24-1.74-1.72-2.71-.18-.33-.36-.7-.55-1.13v7.49c0,.15-.11,.23-.33,.23h-.82c-.22,0-.33-.08-.33-.23v-7.34c-.31,.55-.61,1.03-.88,1.44-.6,.92-1.26,1.77-1.99,2.56-.82,.86-1.64,1.59-2.46,2.17-.14,0-.25-.04-.33-.12-.26-.26-.51-.5-.76-.72-.04-.1-.06-.17-.06-.23,.78-.51,1.42-.99,1.91-1.46,.71-.62,1.46-1.47,2.24-2.56,.46-.66,1.11-1.74,1.95-3.26h-4.37c-.16,0-.25-.12-.25-.35v-.64c0-.23,.08-.35,.25-.35h4.76v-3.61h-4.02c-.16,0-.25-.1-.25-.31v-.68c0-.21,.08-.31,.25-.31Z"/>
        <path class="cls-1" d="M384.35,87.73h2.05v-2.71c0-.4-.03-.7-.08-.9-.05-.16-.08-.3-.08-.41s.14-.16,.41-.16l1.66,.23c.15,.08,.23,.15,.23,.21,0,.12-.08,.18-.25,.18-.27,.1-.41,.41-.41,.94v2.62h2.05c.16,0,.25,.11,.25,.33v.66c0,.23-.08,.35-.25,.35h-2.05v4.31c.74-.41,1.44-.84,2.11-1.29,.04-.05,.08-.08,.1-.08,.11,0,.16,.05,.16,.16,0,.7-.03,1.08-.08,1.15-.77,.52-1.53,1.02-2.3,1.5v6.21c0,.98-.74,1.48-2.21,1.48h-.74c-.11,0-.16-.12-.16-.37-.05-.26-.19-.57-.41-.94,0-.11,.05-.16,.16-.16,.37,.11,.7,.16,.98,.16,.6,0,.9-.24,.9-.72v-4.78c-.44,.26-.88,.51-1.31,.74-.19,.4-.36,.59-.49,.59s-.41-.57-.82-1.72c.74-.26,1.61-.65,2.62-1.17v-5.07h-2.05c-.16,0-.25-.12-.25-.35v-.66c0-.22,.08-.33,.25-.33Zm10.09-4.43c1.2,.16,1.8,.27,1.8,.33,0,.14-.05,.22-.16,.25-.16,.1-.25,.26-.25,.49v8.31c0,.82-.05,1.74-.16,2.77-.1,1.09-.31,2.08-.64,2.95-.33,.86-.75,1.64-1.25,2.34-.38,.56-.98,1.18-1.8,1.85-.07,0-.14-.06-.23-.18-.21-.22-.43-.41-.68-.57-.11-.07-.16-.14-.16-.23,.86-.74,1.46-1.35,1.78-1.85,.37-.53,.67-1.13,.9-1.78,.1-.26,.18-.55,.27-.88-.94,.41-1.9,.79-2.87,1.15-.19,.4-.36,.59-.49,.59-.12,0-.39-.57-.8-1.72,.64-.16,1.42-.4,2.32-.7,.75-.26,1.47-.53,2.15-.82,.01-.07,.02-.14,.02-.21,.1-.82,.15-1.65,.16-2.48h-3.04c-.16,0-.25-.1-.25-.31v-.68c0-.22,.08-.33,.25-.33h3.04v-2.95h-3.28c-.16,0-.25-.1-.25-.31v-.68c0-.21,.08-.31,.25-.31h3.28v-3.79c0-.16,.03-.25,.08-.25Zm3.86,0c1.04,0,1.56,.08,1.56,.25,0,.19-.07,.3-.21,.33-.14,.01-.21,.15-.21,.41v3.06h3.45c.16,0,.25,.1,.25,.31v.68c0,.21-.08,.31-.25,.31h-3.45v2.95h3.2c.16,0,.25,.11,.25,.33v.68c0,.21-.08,.31-.25,.31h-3.2v3.3h3.69c.16,0,.25,.1,.25,.31v.66c0,.22-.08,.33-.25,.33h-3.69v4.7c0,.15-.11,.23-.33,.23h-.82c-.22,0-.33-.08-.33-.23v-18.64c0-.16,.11-.25,.33-.25Z"/>
        <path class="cls-1" d="M408.81,85.35v16.92c0,.15-.11,.23-.33,.23h-.82c-.22,0-.33-.08-.33-.23v-17.9c0-.22,.11-.33,.33-.33h4.76c.36,0,.58,.05,.68,.16,.31,.33,.47,.6,.47,.82l-2.11,4.96c-.01,.08-.02,.15-.02,.21,0,.07,.03,.14,.1,.21,.7,.94,1.22,1.87,1.58,2.79,.3,.9,.45,1.76,.45,2.58,0,1.22-.22,2.11-.66,2.69-.51,.74-1.33,1.11-2.46,1.11-.62,0-.94-.14-.96-.43-.05-.3-.14-.66-.27-1.07,0-.22,.03-.33,.08-.33l1.15,.18c.67,0,1.09-.21,1.25-.62,.15-.4,.23-.96,.23-1.7s-.17-1.48-.51-2.32c-.37-.96-.92-1.87-1.66-2.73-.07-.08-.1-.15-.1-.21,0-.04,.03-.14,.08-.29l2.09-4.72h-3.01Zm7.05,11.32l1.09,.8c.1,.1,.14,.18,.14,.27s-.05,.12-.14,.12c-.14,.03-.24,.09-.31,.18-.38,.63-.78,1.2-1.19,1.7-.51,.59-1.13,1.18-1.89,1.76-.15,0-.25-.05-.31-.14-.27-.23-.51-.43-.7-.59-.1-.04-.14-.09-.14-.14,0-.04,.03-.08,.08-.12,.36-.18,.65-.38,.88-.59,.51-.44,.94-.92,1.31-1.44,.33-.44,.68-.99,1.05-1.66,.05-.1,.1-.14,.12-.14Zm3.12-13.29l1.52,.74c.14,.1,.21,.18,.21,.25,0,.16-.14,.25-.41,.25-.08,0-.16,0-.25,.02,.36,.55,.72,1.03,1.11,1.46,.53,.57,1.07,1.05,1.62,1.42,.74,.55,1.63,.99,2.67,1.33,.12,.03,.18,.07,.18,.12,0,.11-.03,.2-.1,.27-.31,.23-.59,.48-.84,.74-.07,.11-.14,.16-.21,.16-.79-.31-1.45-.66-1.97-1.03-.72-.45-1.39-1.01-1.99-1.68-.41-.45-.85-1.01-1.33-1.68-.31,.49-.63,.92-.94,1.27-.34,.48-.77,.98-1.27,1.5s-1.01,.98-1.52,1.39c-.51,.4-.92,.68-1.23,.86-.12,0-.23-.06-.33-.18-.16-.29-.36-.54-.59-.76-.15-.08-.23-.15-.23-.21,0-.03,.03-.06,.1-.1,.7-.36,1.28-.71,1.74-1.07,.66-.48,1.31-1.09,1.95-1.85,.44-.49,.79-.96,1.05-1.42,.3-.49,.58-1.03,.84-1.62,.08-.12,.16-.18,.23-.18Zm-2.95,6.32h7.05c.16,0,.25,.12,.25,.35v.64c0,.22-.08,.33-.25,.33h-2.79v3.04h4.68c.16,0,.25,.12,.25,.35v.64c0,.23-.08,.35-.25,.35h-4.68v5.56c0,1.04-.85,1.56-2.54,1.56h-.98c-.08,0-.12-.13-.12-.39-.04-.3-.16-.66-.37-1.09v-.08c.49,.11,.96,.16,1.39,.16,.77,0,1.15-.25,1.15-.74v-4.98h-4.43c-.16,0-.25-.12-.25-.35v-.64c0-.23,.08-.35,.25-.35h4.43v-3.04h-2.79c-.16,0-.25-.11-.25-.33v-.64c0-.23,.08-.35,.25-.35Zm6.48,6.89c.67,.67,1.22,1.29,1.66,1.85,.51,.71,.94,1.35,1.29,1.93,0,.03-.04,.1-.12,.21-.44,.63-.67,.94-.7,.94-.53-.93-1.11-1.77-1.72-2.52-.49-.63-.9-1.07-1.23-1.33,0-.07,.21-.38,.64-.92,.07-.1,.13-.14,.18-.14Z"/>
        <path class="cls-1" d="M440.41,90.27v2.3c0,1.04-.22,1.94-.66,2.71-.45,.77-.98,1.26-1.58,1.48l-.82-.82c.38-.15,.73-.44,1.05-.88,.33-.41,.51-.94,.53-1.58h-1.66v-3.2h3.14Z"/>
        <path class="cls-1" d="M.68,122.99H6.81c.16,0,.25,.12,.25,.35v.64c0,.23-.08,.35-.25,.35H.68c-.18,0-.27-.12-.27-.35v-.64c0-.23,.09-.35,.27-.35Zm.64,8.53H6.07c.22,0,.33,.08,.33,.25v5.99c0,.16-.11,.25-.33,.25h-.82c-.16,0-.25-.08-.25-.25v-.74H2.46v1.07c0,.18-.11,.27-.33,.27h-.82c-.16,0-.25-.09-.25-.27v-6.23c0-.22,.08-.33,.25-.33Zm.16-5.66H6.15c.16,0,.25,.11,.25,.33v.68c0,.21-.08,.31-.25,.31H1.48c-.16,0-.25-.1-.25-.31v-.68c0-.22,.08-.33,.25-.33Zm0,2.81H6.15c.16,0,.25,.1,.25,.31v.66c0,.22-.08,.33-.25,.33H1.48c-.16,0-.25-.11-.25-.33v-.66c0-.21,.08-.31,.25-.31Zm.25-8.63H6.15c.16,0,.25,.11,.25,.33v.66c0,.22-.08,.33-.25,.33H1.72c-.16,0-.25-.11-.25-.33v-.66c0-.22,.08-.33,.25-.33Zm.74,15.69h2.54v-2.89H2.46v2.89Zm5.17-8.47h2.79v-.98c0-.1,.08-.14,.25-.14,.98,0,1.48,.08,1.48,.23,0,.16-.05,.25-.16,.27-.11,.03-.16,.16-.16,.39v.25h2.79v-.98c0-.1,.08-.14,.25-.14,.98,0,1.48,.08,1.48,.23,0,.16-.05,.25-.16,.27-.11,.03-.16,.16-.16,.39v.25h2.79c.11,0,.16,.08,.16,.25v.66c0,.16-.05,.25-.16,.25h-2.79v1.09h2.38c.11,0,.16,.08,.16,.23v.68c0,.15-.05,.23-.16,.23h-2.38v1.15h3.2c.11,0,.16,.08,.16,.25v.66c0,.18-.05,.27-.16,.27h-5.07c.59,.74,1.11,1.33,1.56,1.76l.16,.16c.29-.16,.55-.33,.78-.49,.4-.26,.79-.61,1.19-1.05,.07-.05,.12-.08,.14-.08,.77,.67,1.15,1.05,1.15,1.15s-.08,.14-.23,.14c-.26,0-.4,.03-.43,.1-.48,.44-.98,.81-1.5,1.13,.26,.18,.52,.35,.78,.51,.67,.4,1.35,.7,2.03,.9,0,.1-.06,.16-.18,.21-.27,.25-.51,.49-.72,.72-.07,.11-.12,.16-.16,.16-1.03-.49-1.86-1-2.5-1.52-.74-.56-1.37-1.17-1.89-1.83-.42-.48-.85-1.07-1.29-1.78-.62,.56-1.21,1.03-1.78,1.42v2.11c1-.3,1.95-.61,2.85-.92,.04-.01,.08-.02,.1-.02,.11,0,.16,.05,.16,.14,0,.6-.03,.93-.08,.98-1.7,.55-3.42,1.05-5.17,1.5-.16,.31-.3,.47-.41,.47-.1,0-.31-.46-.66-1.37,.53-.1,1.13-.23,1.8-.41v-1.66c-.72,.36-1.41,.66-2.05,.9-.08,0-.16-.07-.23-.21-.18-.22-.35-.46-.51-.74-.05-.08-.08-.18-.08-.29,.77-.18,1.64-.5,2.62-.96,.55-.29,1.13-.67,1.74-1.15h-3.96c-.11,0-.16-.09-.16-.27v-.66c0-.16,.05-.25,.16-.25h3.04v-1.15h-2.3c-.11,0-.16-.08-.16-.23v-.68c0-.15,.05-.23,.16-.23h2.3v-1.09h-2.79c-.11,0-.16-.08-.16-.25v-.66c0-.16,.05-.25,.16-.25Zm5.17-7.96c1.04,0,1.56,.08,1.56,.25,0,.19-.07,.3-.21,.33-.14,.01-.21,.15-.21,.41v.16h5.11c.1,0,.14,.09,.14,.27v.64c0,.18-.05,.27-.14,.27H7.38c-.11,0-.16-.09-.16-.27v-.64c0-.18,.05-.27,.16-.27h5.09v-.9c0-.16,.11-.25,.33-.25Zm-4.35,3.3h3.69c.22,0,.33,.08,.33,.23v2.79c0,.16-.11,.25-.33,.25h-3.69c-.22,0-.33-.08-.33-.25v-2.79c0-.15,.11-.23,.33-.23Zm2.73,2.19v-1.15h-1.74v1.15h1.74Zm3.42,4.7v-1.09h-2.79v1.09h2.79Zm-2.79,2.28h2.79v-1.15h-2.79v1.15Zm2.21-9.17h3.77c.22,0,.33,.08,.33,.23v2.79c0,.16-.11,.25-.33,.25h-3.77c-.22,0-.33-.08-.33-.25v-2.79c0-.15,.11-.23,.33-.23Zm2.79,2.19v-1.15h-1.8v1.15h1.8Z"/>
        <path class="cls-1" d="M26.1,130.62h13.37c.16,0,.25,.11,.25,.33v.66c0,.22-.08,.33-.25,.33h-5.99v4.61h8.04c.16,0,.25,.1,.25,.31v.66c0,.22-.08,.33-.25,.33H23.73c-.16,0-.25-.11-.25-.33v-.66c0-.21,.08-.31,.25-.31h8.29v-4.61h-5.91c-.15,0-.23-.11-.23-.33v-.66c0-.22,.08-.33,.23-.33Zm3.94-7.71l1.31,.62c.16,.08,.25,.18,.25,.29,0,.08-.08,.12-.25,.12-.14,0-.25,.07-.33,.21-.4,.82-.8,1.49-1.21,2.01-.53,.75-1.15,1.4-1.85,1.95-.63,.49-1.33,.94-2.09,1.33-.49,.23-.91,.41-1.25,.53-.21,0-.32-.05-.35-.16-.19-.36-.43-.7-.72-1.05,.63-.22,1.26-.49,1.89-.82,.74-.4,1.41-.85,2.01-1.37,.62-.51,1.15-1.09,1.6-1.76,.34-.51,.64-1.08,.9-1.72,.03-.11,.05-.16,.08-.16Zm2.13-3.36c1.05,0,1.58,.09,1.58,.27s-.08,.28-.23,.31c-.14,.01-.21,.15-.21,.41v1.09h7.55c.22,0,.33,.08,.33,.23v3.38c0,.15-.11,.23-.33,.23h-.82c-.22,0-.33-.08-.33-.23v-2.32h-4.51v3.86c0,.62,.39,.92,1.17,.92h2.36c.53,0,.9-.08,1.11-.25,.26-.11,.42-.47,.49-1.09,.03-.11,.1-.16,.21-.16,.41,.25,.83,.38,1.27,.39,.19,.01,.29,.11,.29,.29-.26,.92-.62,1.55-1.07,1.88-.29,.22-.78,.33-1.48,.33h-3.94c-1.24,0-1.87-.46-1.87-1.38v-4.79h-8.63v2.62c0,.16-.11,.25-.33,.25h-.82c-.22,0-.33-.08-.33-.25v-3.61c0-.21,.11-.31,.33-.31h7.88v-1.8c0-.18,.11-.27,.33-.27Z"/>
        <path class="cls-1" d="M46.79,120.03h6.91c.21,0,.31,.08,.31,.25v6.58c0,.21-.1,.31-.31,.31h-5.76v11.01c0,.15-.11,.23-.33,.23h-.82c-.22,0-.33-.08-.33-.23v-17.9c0-.16,.11-.25,.33-.25Zm1.15,2.95h4.59v-1.72h-4.59v1.72Zm0,2.97h4.59v-1.72h-4.59v1.72Zm3.2,2.52h7.38c.22,0,.33,.09,.33,.27v7.61c0,.18-.11,.27-.33,.27h-.82c-.16,0-.25-.09-.25-.27v-.49h-5.17v.59c0,.15-.11,.23-.33,.23h-.82c-.16,0-.25-.08-.25-.23v-7.71c0-.18,.08-.27,.25-.27Zm1.15,3.04h5.17v-1.8h-5.17v1.8Zm0,3.12h5.17v-1.89h-5.17v1.89Zm3.86-14.6h6.89c.27,0,.41,.08,.41,.25v16.08c0,.67-.31,1.19-.92,1.56-.57,.3-1.33,.49-2.28,.57-.15,0-.23-.08-.25-.23-.03-.3-.19-.75-.49-1.33,0-.08,.06-.12,.18-.12,1.09,0,1.74-.08,1.93-.23,.23-.18,.35-.44,.35-.8v-8.61h-5.82c-.22,0-.33-.1-.33-.31v-6.58c0-.16,.11-.25,.33-.25Zm1.15,2.95h4.68v-1.72h-4.68v1.72Zm0,2.97h4.68v-1.72h-4.68v1.72Z"/>
        <path class="cls-1" d="M70.52,119.97h14.36c.22,0,.33,.08,.33,.23v6.89c0,.16-.11,.25-.33,.25h-3.04v1.97h3.77c.16,0,.25,.11,.25,.33v.68c0,.21-.08,.31-.25,.31h-3.77v2.21h5c.16,0,.25,.11,.25,.33v.68c0,.21-.08,.31-.25,.31h-18.44c-.18,0-.27-.1-.27-.31v-.68c0-.22,.09-.33,.27-.33h5.15v-2.21h-4.02c-.16,0-.25-.1-.25-.31v-.68c0-.22,.08-.33,.25-.33h4.02v-1.97h-3.04c-.22,0-.33-.08-.33-.25v-6.89c0-.15,.11-.23,.33-.23Zm4.02,14.5c.88,.6,1.31,.96,1.31,1.09,0,.11-.11,.16-.33,.16-.15,0-.28,.05-.39,.16-.31,.22-.75,.52-1.31,.9-.64,.41-1.33,.77-2.05,1.07-.41,.19-.99,.4-1.74,.64-.18,0-.31-.06-.39-.18-.19-.25-.38-.47-.57-.68-.12-.05-.18-.12-.18-.18,0-.04,.03-.07,.08-.08,.9-.23,1.64-.48,2.21-.74,.68-.3,1.28-.62,1.78-.94,.49-.34,.93-.71,1.31-1.11,.08-.07,.17-.1,.27-.1Zm-2.87-11.48h5.33v-1.72h-5.33v1.72Zm5.33,3.06v-1.72h-5.33v1.72h5.33Zm3.36,3.26v-1.97h-5.33v1.97h5.33Zm-5.33,3.53h5.33v-2.21h-5.33v2.21Zm3.45-11.57v1.72h5.25v-1.72h-5.25Zm5.25,4.78v-1.72h-5.25v1.72h5.25Zm-2.79,8.43c.85,.68,1.66,1.24,2.44,1.66,.62,.33,1.5,.68,2.67,1.07,.15,.1,.23,.18,.23,.25,0,.11-.3,.49-.9,1.13-.05,0-.15-.01-.29-.04-2.23-1-3.88-1.93-4.96-2.79-.11-.1-.16-.16-.16-.18,0-.15,.33-.51,.98-1.09Z"/>
        <path class="cls-1" d="M91.29,120.94h5.33c.22,0,.33,.08,.33,.25v12.55c0,.18-.11,.27-.33,.27h-.82c-.22,0-.33-.09-.33-.27v-.98h-3.04v2.71c0,.18-.11,.27-.33,.27h-.82c-.21,0-.31-.09-.31-.27v-14.19c0-.22,.1-.33,.31-.33Zm1.15,10.5h3.04v-9.19h-3.04v9.19Zm6.32-9h4.02v-2.89c0-.16,.11-.25,.33-.25,1.04,0,1.56,.08,1.56,.25,0,.19-.07,.3-.21,.33-.14,.01-.21,.15-.21,.41v2.15h4.02c.16,0,.25,.1,.25,.31v.68c0,.21-.08,.31-.25,.31h-4.02v3.61h4.92c.16,0,.25,.12,.25,.35v.64c0,.23-.08,.35-.25,.35h-4.47c.56,1.3,1.07,2.3,1.52,3.01,.52,.93,1.14,1.77,1.87,2.52,.6,.63,1.21,1.11,1.83,1.44,0,.08-.06,.15-.18,.21-.27,.26-.51,.52-.7,.78-.08,.1-.14,.14-.18,.14-.94-.7-1.72-1.44-2.32-2.24-.67-.83-1.24-1.74-1.72-2.71-.18-.33-.36-.7-.55-1.13v7.49c0,.15-.11,.23-.33,.23h-.82c-.22,0-.33-.08-.33-.23v-7.34c-.31,.55-.61,1.03-.88,1.44-.6,.92-1.26,1.77-1.99,2.56-.82,.86-1.64,1.59-2.46,2.17-.14,0-.25-.04-.33-.12-.26-.26-.51-.5-.76-.72-.04-.1-.06-.17-.06-.23,.78-.51,1.42-.99,1.91-1.46,.71-.62,1.46-1.47,2.24-2.56,.46-.66,1.11-1.74,1.95-3.26h-4.37c-.16,0-.25-.12-.25-.35v-.64c0-.23,.08-.35,.25-.35h4.76v-3.61h-4.02c-.16,0-.25-.1-.25-.31v-.68c0-.21,.08-.31,.25-.31Z"/>
        <path class="cls-1" d="M113.94,124.14c.94,.44,1.72,.84,2.32,1.21,.7,.46,1.29,.88,1.78,1.25,0,.03-.03,.1-.1,.21-.45,.64-.69,.96-.72,.96-.75-.62-1.54-1.18-2.38-1.68-.68-.41-1.26-.7-1.72-.86,0-.08,.22-.39,.66-.92,.07-.11,.12-.16,.16-.16Zm4.35,5.09c.07,0,.12,.05,.14,.16,.34,.78,.51,1.19,.51,1.23,0,.11-.04,.21-.12,.31-.83,1.63-1.61,3.01-2.34,4.14-.41,.64-.9,1.35-1.48,2.11-.11,.19-.16,.44-.16,.74,0,.18-.05,.27-.16,.27-.1,0-.54-.44-1.33-1.33-.08-.04-.13-.12-.14-.23,0-.12,.03-.23,.1-.31,.48-.4,.96-.9,1.46-1.52,.66-.85,1.3-1.8,1.93-2.87,.56-.92,1.04-1.76,1.44-2.54,.05-.11,.11-.16,.16-.16Zm-2.79-9.52c.81,.44,1.47,.84,1.99,1.21,.6,.46,1.11,.88,1.54,1.25,0,.03-.03,.09-.1,.18-.45,.66-.69,.98-.72,.98-.64-.63-1.33-1.19-2.07-1.68-.59-.41-1.07-.7-1.46-.86,0-.1,.22-.4,.66-.92,.07-.11,.12-.16,.16-.16Zm5.93,.57c.08,0,.13,.03,.14,.08,.7,1.11,1.33,2.28,1.89,3.53,0,.21-.04,.32-.12,.35-.46,.31-.83,.47-1.11,.47-.6-1.5-1.18-2.76-1.72-3.77,0-.14,.31-.36,.92-.66Zm4.08-.9c1.04,0,1.56,.08,1.56,.25,0,.19-.07,.3-.21,.33-.12,.01-.18,.15-.18,.41v5.09h3.92c.27,0,.41,.11,.41,.33v11.22c0,.48-.32,.84-.96,1.09-.59,.21-1.36,.34-2.32,.41-.15,0-.24-.08-.27-.23-.03-.3-.18-.75-.47-1.33,0-.05,.06-.08,.18-.08,1.13,0,1.8-.05,1.99-.14,.25-.11,.37-.29,.37-.53v-1.95h-7.05v4.04c0,.15-.11,.23-.33,.23h-.82c-.22,0-.33-.08-.33-.23v-12.49c0-.22,.11-.33,.33-.33h3.86v-5.82c0-.16,.11-.25,.33-.25Zm-3.04,9.76h7.05v-2.38h-7.05v2.38Zm0,3.79h7.05v-2.46h-7.05v2.46Zm7.79-12.74l1.13,.45c.18,.1,.27,.19,.27,.29,0,.12-.06,.21-.18,.25-.16,0-.27,.09-.33,.27-.45,1.31-.91,2.32-1.37,3.04-.11,.15-.19,.23-.25,.23-.08,0-.19-.04-.33-.12-.26-.12-.51-.24-.74-.35-.11-.04-.16-.08-.16-.1,0-.04,.02-.1,.06-.16,.45-.63,.79-1.18,1.03-1.66,.31-.62,.55-1.23,.7-1.85,.07-.18,.13-.27,.18-.27Z"/>
        <path class="cls-1" d="M140.87,119.54c1.15,.6,1.72,.96,1.72,1.07,0,.14-.05,.21-.16,.21-.25,.01-.41,.08-.49,.21-.34,.83-.68,1.57-1,2.21h4.33l-.04-2.13c0-.63-.03-1.09-.08-1.39,0-.16,.05-.25,.16-.25l1.54,.12c.23,.05,.35,.13,.35,.23,0,.14-.08,.23-.23,.29-.18,.07-.27,.21-.27,.43l.08,2.71h6.07c.16,0,.25,.11,.25,.33v.68c0,.21-.08,.31-.25,.31h-6.05l.06,2.71c0,.71-.03,1.34-.08,1.89h7.3c.16,0,.25,.12,.25,.35v.64c0,.23-.08,.35-.25,.35h-7.12c.3,.75,.65,1.42,1.05,1.99,.53,.81,1.22,1.52,2.05,2.15,.93,.77,1.98,1.35,3.16,1.76,.6,.23,1.16,.4,1.66,.49,.18,.05,.27,.1,.27,.14,0,.15-.05,.26-.14,.33-.23,.3-.45,.57-.66,.8-.07,.14-.16,.21-.27,.21s-.5-.12-1.17-.37c-1.7-.7-3.04-1.46-4.04-2.3-.78-.7-1.48-1.48-2.09-2.36-.26-.41-.5-.85-.72-1.33-.21,.46-.46,.89-.78,1.27-.53,.75-1.31,1.5-2.32,2.24-1.22,.92-2.62,1.66-4.2,2.24-1.01,.36-1.7,.53-2.07,.53-.11,0-.2-.08-.27-.25-.19-.38-.4-.73-.64-1.05-.11-.05-.16-.1-.16-.12,0-.1,.05-.14,.14-.14,1.35-.21,2.47-.48,3.34-.82,1.11-.44,2.04-.94,2.79-1.52,.86-.55,1.54-1.19,2.03-1.93,.51-.6,.83-1.26,.96-1.97h-8.7c-.16,0-.25-.12-.25-.35v-.64c0-.23,.08-.35,.25-.35h8.98c.08-.55,.12-1.18,.12-1.89l-.04-2.71h-5.13c-.11,.18-.23,.35-.35,.51-.4,.53-1.07,1.32-2.03,2.36-.15,0-.29-.06-.43-.18-.19-.18-.41-.36-.66-.53-.1-.08-.14-.17-.14-.27,.51-.52,1.01-1.08,1.52-1.68,.64-.77,1.2-1.63,1.68-2.58,.42-.83,.75-1.65,.98-2.46,.04-.11,.1-.16,.16-.16Z"/>
        <path class="cls-1" d="M161.72,134l1.15,.86c.11,.11,.16,.2,.16,.27,0,.05-.05,.09-.14,.1-.14,.03-.24,.08-.31,.14-.36,.52-.72,.99-1.11,1.42-.48,.49-1.08,.98-1.8,1.48-.18,0-.29-.06-.35-.18-.27-.22-.52-.41-.74-.57-.1-.04-.14-.09-.14-.14,0-.04,.02-.08,.06-.12,.36-.14,.64-.3,.86-.49,.48-.37,.9-.78,1.27-1.23,.3-.37,.63-.83,.98-1.39,.04-.08,.08-.12,.1-.12Zm1.15-14.93c1.09,.55,1.64,.87,1.64,.96,0,.12-.05,.18-.14,.18-.21,.03-.34,.1-.41,.23-.21,.36-.4,.68-.57,.98h12.69c.16,0,.25,.11,.25,.33v.68c0,.21-.08,.31-.25,.31h-1.72v3.86h2.62c.16,0,.25,.12,.25,.35v.64c0,.22-.08,.33-.25,.33h-2.62v4.02h2.05c.16,0,.25,.11,.25,.33v.68c0,.21-.08,.31-.25,.31h-16.9c-.16,0-.25-.1-.25-.31v-.68c0-.22,.08-.33,.25-.33h2.13v-4.02h-2.87c-.16,0-.25-.11-.25-.33v-.64c0-.23,.08-.35,.25-.35h2.87v-2.91c-.41,.41-1.01,.94-1.8,1.6-.14,0-.27-.05-.41-.16-.18-.18-.38-.34-.59-.49-.08-.07-.12-.15-.12-.25,.46-.41,.95-.84,1.46-1.29,.63-.6,1.18-1.26,1.66-1.97,.42-.64,.75-1.28,.96-1.91,.01-.1,.04-.14,.08-.14Zm2.46,7.53v-3.86h-2.21v3.86h2.21Zm-2.21,5.33h2.21v-4.02h-2.21v4.02Zm2.87,2.13c.12,0,.21,.03,.25,.08,.6,1.01,1.15,2.08,1.64,3.22,0,.19-.04,.29-.12,.31-.51,.34-.9,.51-1.17,.51-.52-1.39-1.02-2.54-1.5-3.45,0-.16,.3-.39,.9-.68Zm3.12-7.46v-3.86h-2.3v3.86h2.3Zm-2.3,5.33h2.3v-4.02h-2.3v4.02Zm3.28,2.13c.14,0,.22,.03,.25,.08,.75,1.04,1.44,2.14,2.05,3.3,0,.19-.05,.29-.14,.31-.49,.34-.88,.51-1.17,.51-.66-1.42-1.28-2.6-1.87-3.53,0-.16,.29-.39,.88-.68Zm2.79-7.46v-3.86h-2.3v3.86h2.3Zm-2.3,5.33h2.3v-4.02h-2.3v4.02Zm3.53,2.07c.77,.56,1.39,1.08,1.89,1.56,.57,.6,1.07,1.14,1.48,1.62,0,.01-.03,.08-.1,.18-.41,.6-.62,.9-.64,.9-.63-.78-1.3-1.48-2.01-2.11-.57-.52-1.05-.89-1.44-1.11,0-.07,.22-.38,.66-.92,.05-.08,.11-.12,.16-.12Z"/>
        <path class="cls-1" d="M181.5,120.28h9.93c.16,0,.25,.11,.25,.33v.66c0,.23-.08,.35-.25,.35h-2.05v6.07h2.62c.16,0,.25,.1,.25,.31v.68c0,.21-.08,.31-.25,.31h-2.62v9.21c0,.15-.11,.23-.33,.23h-.82c-.22,0-.33-.08-.33-.23v-9.21h-2.95c-.05,1.75-.22,3.17-.49,4.27-.21,1.12-.62,2.24-1.23,3.34-.33,.67-.79,1.31-1.39,1.91-.1,0-.16-.01-.21-.04-.23-.22-.49-.41-.76-.57-.07-.07-.1-.16-.1-.29,.55-.56,1.04-1.33,1.48-2.3,.44-1.01,.75-2.07,.94-3.18,.15-.9,.24-1.95,.27-3.14h-2.17c-.18,0-.27-.1-.27-.31v-.68c0-.21,.09-.31,.27-.31h2.19v-6.07h-1.97c-.15,0-.23-.12-.23-.35v-.66c0-.22,.08-.33,.23-.33Zm6.4,7.4v-6.07h-2.95v6.07h2.95Zm10.99,3.75c.88,.62,1.31,.97,1.31,1.07,0,.11-.11,.16-.33,.16-.21,0-.38,.12-.53,.37-.42,.46-1.02,1.09-1.78,1.89-.83,.83-1.74,1.56-2.71,2.17-.57,.4-1.36,.83-2.36,1.31-.18,0-.31-.06-.39-.18-.19-.25-.38-.47-.57-.68-.12-.05-.18-.12-.18-.18,0-.08,.04-.14,.12-.16,1.19-.45,2.17-.94,2.95-1.46,.89-.59,1.67-1.22,2.34-1.89,.67-.7,1.26-1.43,1.76-2.19,.12-.15,.25-.23,.37-.23Zm-.08-6.15c.88,.62,1.31,.97,1.31,1.07,0,.11-.11,.16-.33,.16-.19,0-.36,.12-.49,.37-.41,.45-.98,1.06-1.72,1.83-.81,.81-1.67,1.51-2.58,2.11-.56,.38-1.31,.81-2.26,1.29-.19,0-.32-.08-.39-.23-.21-.23-.4-.45-.57-.66-.12-.07-.18-.14-.18-.21,0-.05,.03-.1,.1-.14,1.15-.45,2.09-.92,2.83-1.42,.86-.57,1.61-1.19,2.26-1.85,.63-.67,1.19-1.37,1.68-2.11,.11-.15,.23-.23,.35-.23Zm-.66-5.82c.88,.6,1.31,.96,1.31,1.07,0,.12-.11,.18-.33,.18-.15,0-.29,.1-.43,.31-.34,.42-.83,.98-1.46,1.66-.7,.74-1.44,1.39-2.24,1.95-.48,.36-1.13,.74-1.95,1.15-.18,0-.31-.07-.39-.21-.21-.23-.4-.46-.57-.68-.12-.05-.18-.12-.18-.18,0-.05,.03-.1,.1-.12,1-.41,1.81-.85,2.44-1.31,.74-.51,1.39-1.06,1.95-1.66,.55-.6,1.03-1.25,1.44-1.95,.11-.14,.21-.21,.31-.21Z"/>
        <path class="cls-1" d="M214.66,126.27v2.3c0,1.04-.22,1.94-.66,2.71-.45,.77-.98,1.26-1.58,1.48l-.82-.82c.38-.15,.73-.44,1.05-.88,.33-.41,.51-.94,.53-1.58h-1.66v-3.2h3.14Z"/>
        <path class="cls-1" d="M226.9,122.74h5.13c.36-.94,.63-1.96,.82-3.04,.04-.16,.14-.25,.29-.25,1.2,.42,1.8,.7,1.8,.82,0,.11-.08,.19-.25,.25-.22,0-.38,.12-.49,.35-.18,.66-.38,1.28-.59,1.87h10.6c.16,0,.25,.08,.25,.25v.82c0,.22-.08,.33-.25,.33h-11.16c-.12,.33-.26,.64-.41,.94-.46,.93-.96,1.78-1.48,2.54v10.56c0,.15-.14,.23-.41,.23h-.82c-.22,0-.33-.08-.33-.23v-8.67c-.67,.67-1.42,1.31-2.26,1.93-.14,.05-.26,.08-.37,.08-.15,0-.27-.08-.37-.23-.16-.22-.33-.41-.51-.57-.12-.05-.18-.14-.18-.25,0-.07,.05-.14,.16-.21,.49-.19,.98-.51,1.48-.94,.82-.63,1.55-1.37,2.19-2.21,.64-.81,1.21-1.8,1.7-2.97h-4.55c-.16,0-.25-.11-.25-.33v-.82c0-.16,.08-.25,.25-.25Zm6.4,6.75h4.35v-3.3c0-.15,.11-.23,.33-.23,1.09,0,1.64,.08,1.64,.23,0,.19-.07,.29-.21,.31-.14,.03-.21,.18-.21,.45v2.54h4.18c.16,0,.25,.1,.25,.31v.82c0,.22-.08,.33-.25,.33h-4.18v5.6h5c.16,0,.25,.1,.25,.31v.66c0,.22-.08,.33-.25,.33h-11.57c-.16,0-.25-.11-.25-.33v-.66c0-.21,.08-.31,.25-.31h5v-5.6h-4.35c-.16,0-.25-.11-.25-.33v-.82c0-.21,.08-.31,.25-.31Z"/>
        <path class="cls-1" d="M248.9,121.51h3.28v-1.89c0-.11,.08-.16,.25-.16,.98,0,1.48,.08,1.48,.25,0,.18-.05,.27-.16,.29s-.16,.14-.16,.37v1.15h3.61c.11,0,.16,.08,.16,.25v.68c0,.21-.05,.31-.16,.31h-3.61v1.72h2.87c.22,0,.33,.08,.33,.25v7.55c0,.16-.11,.25-.33,.25h-2.87v1.89h3.86c.11,0,.16,.08,.16,.25v.66c0,.23-.05,.35-.16,.35h-3.86v2.54c0,.15-.11,.23-.33,.23h-.82c-.16,0-.25-.08-.25-.23v-2.54h-3.53c-.11,0-.16-.12-.16-.35v-.66c0-.16,.05-.25,.16-.25h3.53v-1.89h-2.95c-.22,0-.33-.08-.33-.25v-7.55c0-.16,.11-.25,.33-.25h2.95v-1.72h-3.28c-.11,0-.16-.1-.16-.31v-.68c0-.16,.05-.25,.16-.25Zm1.39,6.4h1.89v-2.21h-1.89v2.21Zm1.89,3.38v-2.15h-1.89v2.15h1.89Zm1.39-5.6v2.21h1.8v-2.21h-1.8Zm1.8,5.6v-2.15h-1.8v2.15h1.8Zm3.94-9.37l1.54,.9c.12,.07,.18,.15,.18,.25,0,.14-.08,.21-.25,.21-.23,0-.42,.13-.57,.39-.37,.78-.82,1.6-1.35,2.46-.08,.08-.12,.16-.12,.23,0,.08,.04,.16,.12,.23,.81,.88,1.48,1.87,2.01,2.99,0,.14-.03,.21-.1,.23l-.49,.45c-.1,.1-.2,.14-.31,.14-.05,0-.11-.08-.16-.25-.83-1.39-1.61-2.47-2.32-3.22-.15-.15-.23-.29-.23-.41,0-.14,.05-.27,.16-.39,.72-1.19,1.26-2.48,1.62-3.88,.07-.22,.16-.33,.27-.33Zm-.74,9.29h8.45c.11,0,.16,.08,.16,.23v.68c0,.21-.05,.31-.16,.31h-3.53v4.27h4.18c.11,0,.16,.08,.16,.25v.66c0,.22-.05,.33-.16,.33h-9.84c-.11,0-.16-.11-.16-.33v-.66c0-.16,.05-.25,.16-.25h4.18v-4.27h-3.45c-.11,0-.16-.1-.16-.31v-.68c0-.15,.05-.23,.16-.23Zm-.57-11.09h9.37c.1,0,.14,.08,.14,.25v.66c0,.22-.05,.33-.14,.33h-9.37c-.11,0-.16-.11-.16-.33v-.66c0-.16,.05-.25,.16-.25Zm4.51,1.89l1.54,.88c.12,.08,.18,.17,.18,.27,0,.14-.08,.21-.23,.21-.23,0-.42,.12-.55,.37-.37,.74-.81,1.52-1.31,2.34-.08,.08-.12,.15-.12,.21,0,.08,.04,.16,.12,.23,.74,.85,1.35,1.81,1.85,2.89,0,.15-.03,.23-.1,.25l-.49,.45c-.1,.08-.2,.12-.31,.12-.05,0-.11-.07-.16-.21-.77-1.37-1.48-2.43-2.15-3.18-.15-.14-.23-.27-.23-.39,0-.14,.05-.26,.16-.37,.7-1.15,1.22-2.4,1.56-3.75,.07-.21,.15-.31,.25-.31Zm3.36,0l1.54,.88c.12,.08,.18,.17,.18,.27,0,.14-.09,.21-.27,.21-.26,0-.47,.11-.64,.33-.42,.71-.92,1.45-1.5,2.21-.1,.08-.14,.16-.14,.23,0,.08,.03,.16,.1,.23,.82,.92,1.5,1.96,2.03,3.14,0,.14-.03,.21-.1,.23l-.49,.45c-.1,.1-.2,.14-.31,.14-.05,0-.11-.08-.16-.25-.82-1.45-1.59-2.58-2.32-3.38-.15-.14-.23-.27-.23-.41,0-.12,.05-.25,.16-.37,.83-1.11,1.45-2.31,1.85-3.61,.08-.19,.18-.29,.29-.29Z"/>
        <path class="cls-1" d="M271.72,131.44h3.45v-1.64c0-.11,.08-.16,.25-.16,.98,0,1.48,.08,1.48,.25s-.05,.25-.16,.27c-.11,.03-.16,.16-.16,.39v.9h2.89c.1,0,.14,.08,.14,.25v.66c0,.22-.05,.33-.14,.33h-2.73c.42,.66,.79,1.13,1.09,1.44,.46,.52,1.03,1,1.7,1.46,0,.12-.04,.21-.12,.27-.18,.15-.41,.36-.7,.64-.03,0-.06-.03-.1-.08-.4-.23-.77-.55-1.13-.94-.27-.3-.57-.68-.9-1.15v4.12c0,.16-.11,.25-.33,.25h-.82c-.16,0-.25-.08-.25-.25v-3.83c-.44,.6-.9,1.15-1.39,1.64-.48,.52-1.05,1-1.72,1.46-.14,0-.24-.03-.31-.08-.29-.12-.57-.26-.84-.41-.11,0-.16-.03-.16-.08,.89-.57,1.61-1.13,2.15-1.68,.53-.49,.95-.98,1.25-1.48,.22-.3,.46-.72,.72-1.27h-3.14c-.1,0-.14-.11-.14-.33v-.66c0-.16,.05-.25,.14-.25Zm2.54-10.64v.9h5.99c.11,0,.16,.08,.16,.23v.51c0,.15-.05,.23-.16,.23h-5.99v.84h5.99c.11,0,.16,.08,.16,.23v.51c0,.15-.05,.23-.16,.23h-5.99v.82h6.73c.11,0,.16,.08,.16,.25v.51c0,.21-.05,.31-.16,.31h-1.78c.68,1.03,1.31,2.1,1.87,3.22,0,.15-.04,.23-.12,.25-.38,.26-.7,.39-.94,.39-.3-.64-.61-1.24-.92-1.8-2.28,.4-4.44,.7-6.46,.9-.1,0-.18,.1-.25,.29-.01,.3-.1,.45-.25,.45s-.42-.57-.82-1.72c.19,0,.53-.03,1-.08l.04-.04c.41-.66,.78-1.27,1.11-1.85h-2.07c-.11,0-.16-.1-.16-.31v-.51c0-.16,.05-.25,.16-.25h1.48v-5.31c0-.18,.08-.27,.25-.27h7.46c.11,0,.16,.09,.16,.27v.47c0,.23-.05,.35-.16,.35h-6.32Zm4.31,6.64c-.23-.38-.45-.75-.66-1.09h-3.16c-.44,.74-.78,1.32-1.03,1.74,1.54-.16,3.16-.38,4.84-.66Zm3.24,3.42l1.31,.62c.11,.08,.16,.15,.16,.21,0,.16-.11,.25-.33,.25-.11,0-.18,.05-.23,.14-.19,.41-.38,.76-.57,1.05-.14,.23-.31,.48-.51,.74-.19,.25-.39,.47-.59,.68-.19,.21-.35,.35-.47,.43-.11,0-.21-.05-.29-.14-.14-.26-.31-.48-.51-.66-.12-.07-.18-.12-.18-.16,0-.03,.01-.05,.04-.06,.26-.19,.47-.37,.64-.53,.25-.25,.49-.55,.74-.92,.16-.25,.3-.49,.41-.72,.11-.25,.21-.51,.31-.8,.03-.07,.05-.1,.08-.1Zm2.13,1.64c1.15,.34,1.72,.56,1.72,.66,0,.15-.08,.23-.25,.23s-.25,.06-.25,.18c-.36,.68-.8,1.46-1.33,2.32-.18,.27-.36,.53-.53,.78,1.29-.18,2.56-.38,3.83-.62-.3-.45-.66-.89-1.07-1.31,0-.11,.36-.33,1.07-.68,.64,.79,1.16,1.52,1.56,2.17,.4,.6,.72,1.25,.98,1.95,0,.04-.41,.17-1.23,.39-.1-.4-.3-.87-.62-1.42-1.93,.38-4.07,.73-6.42,1.05-.1,0-.18,.07-.27,.21-.05,.16-.16,.25-.33,.25-.14,0-.44-.55-.9-1.64,.64-.05,1.29-.12,1.93-.18,.53-.88,1.02-1.79,1.46-2.75,.22-.51,.4-1,.53-1.5,0-.05,.03-.08,.1-.08Zm3.38-13.37c.81,.56,1.21,.89,1.21,.98,0,.11-.08,.16-.25,.16s-.31,.06-.43,.18c-.34,.26-.83,.58-1.48,.96-.7,.44-1.44,.82-2.21,1.15-.48,.19-1.13,.41-1.95,.66-.18,0-.3-.06-.37-.18-.18-.22-.35-.42-.51-.62-.12-.05-.18-.12-.18-.18,0-.04,.03-.07,.1-.08,.97-.23,1.76-.49,2.38-.78,.75-.3,1.4-.63,1.95-.98,.53-.36,1.01-.74,1.44-1.15,.08-.08,.18-.12,.31-.12Zm2.19,5.82c.82,.56,1.23,.9,1.23,1s-.08,.16-.25,.16c-.21,0-.38,.06-.53,.18-.45,.26-1.09,.61-1.91,1.05-.89,.46-1.85,.88-2.87,1.23-.6,.22-1.43,.46-2.48,.72-.16,0-.28-.06-.35-.18-.19-.22-.38-.42-.55-.62-.11-.05-.16-.12-.16-.18,0-.04,.04-.07,.12-.08,1.24-.26,2.27-.54,3.08-.84,.94-.33,1.77-.68,2.48-1.07,.68-.4,1.29-.81,1.83-1.23,.12-.1,.25-.14,.37-.14Zm-.9-3.2c.82,.56,1.23,.89,1.23,.98,0,.11-.08,.16-.25,.16s-.31,.07-.45,.21c-.38,.27-.92,.63-1.6,1.07-.74,.45-1.54,.85-2.42,1.21-.51,.21-1.2,.45-2.09,.74-.18,0-.3-.06-.37-.18-.18-.23-.35-.44-.51-.64-.12-.04-.18-.1-.18-.16,0-.04,.03-.07,.1-.08,1.05-.27,1.91-.55,2.58-.84,.81-.34,1.5-.71,2.09-1.11,.59-.37,1.11-.77,1.56-1.21,.1-.1,.2-.14,.31-.14Zm-5,8.04h3.71c.07,0,.12,.05,.16,.14,.33,1.15,.67,1.96,1.03,2.42,.44,.72,1.13,1.24,2.07,1.54,.11,.03,.16,.08,.16,.16,0,.05-.04,.12-.12,.18l-.55,.55c-.08,.11-.18,.16-.31,.16-1.03-.51-1.77-1.12-2.24-1.85-.29-.45-.59-1.15-.9-2.09h-3.01c-.16,0-.25-.11-.25-.33v-.66c0-.16,.08-.25,.25-.25Z"/>
        <path class="cls-1" d="M297.17,134l1.15,.86c.11,.11,.16,.2,.16,.27,0,.05-.05,.09-.14,.1-.14,.03-.24,.08-.31,.14-.36,.52-.72,.99-1.11,1.42-.48,.49-1.08,.98-1.8,1.48-.18,0-.29-.06-.35-.18-.27-.22-.52-.41-.74-.57-.1-.04-.14-.09-.14-.14,0-.04,.02-.08,.06-.12,.36-.14,.64-.3,.86-.49,.48-.37,.9-.78,1.27-1.23,.3-.37,.63-.83,.98-1.39,.04-.08,.08-.12,.1-.12Zm1.15-14.93c1.09,.55,1.64,.87,1.64,.96,0,.12-.05,.18-.14,.18-.21,.03-.34,.1-.41,.23-.21,.36-.4,.68-.57,.98h12.69c.16,0,.25,.11,.25,.33v.68c0,.21-.08,.31-.25,.31h-1.72v3.86h2.62c.16,0,.25,.12,.25,.35v.64c0,.22-.08,.33-.25,.33h-2.62v4.02h2.05c.16,0,.25,.11,.25,.33v.68c0,.21-.08,.31-.25,.31h-16.9c-.16,0-.25-.1-.25-.31v-.68c0-.22,.08-.33,.25-.33h2.13v-4.02h-2.87c-.16,0-.25-.11-.25-.33v-.64c0-.23,.08-.35,.25-.35h2.87v-2.91c-.41,.41-1.01,.94-1.8,1.6-.14,0-.27-.05-.41-.16-.18-.18-.38-.34-.59-.49-.08-.07-.12-.15-.12-.25,.46-.41,.95-.84,1.46-1.29,.63-.6,1.18-1.26,1.66-1.97,.42-.64,.75-1.28,.96-1.91,.01-.1,.04-.14,.08-.14Zm2.46,7.53v-3.86h-2.21v3.86h2.21Zm-2.21,5.33h2.21v-4.02h-2.21v4.02Zm2.87,2.13c.12,0,.21,.03,.25,.08,.6,1.01,1.15,2.08,1.64,3.22,0,.19-.04,.29-.12,.31-.51,.34-.9,.51-1.17,.51-.52-1.39-1.02-2.54-1.5-3.45,0-.16,.3-.39,.9-.68Zm3.12-7.46v-3.86h-2.3v3.86h2.3Zm-2.3,5.33h2.3v-4.02h-2.3v4.02Zm3.28,2.13c.14,0,.22,.03,.25,.08,.75,1.04,1.44,2.14,2.05,3.3,0,.19-.05,.29-.14,.31-.49,.34-.88,.51-1.17,.51-.66-1.42-1.28-2.6-1.87-3.53,0-.16,.29-.39,.88-.68Zm2.79-7.46v-3.86h-2.3v3.86h2.3Zm-2.3,5.33h2.3v-4.02h-2.3v4.02Zm3.53,2.07c.77,.56,1.39,1.08,1.89,1.56,.57,.6,1.07,1.14,1.48,1.62,0,.01-.03,.08-.1,.18-.41,.6-.62,.9-.64,.9-.63-.78-1.3-1.48-2.01-2.11-.57-.52-1.05-.89-1.44-1.11,0-.07,.22-.38,.66-.92,.05-.08,.11-.12,.16-.12Z"/>
        <path class="cls-1" d="M318.92,121.35v5.66c0,1.98-.09,3.55-.27,4.72-.11,.96-.34,1.92-.7,2.89-.16,.57-.42,1.13-.76,1.66-.1,0-.16-.01-.21-.04-.23-.19-.49-.36-.76-.51-.07-.07-.1-.16-.1-.27,.27-.48,.53-1.14,.76-1.99,.22-.86,.38-1.78,.47-2.75,.11-1.03,.16-2.26,.16-3.71v-6.64c0-.16,.08-.25,.25-.25h16.57c.11,0,.16,.08,.16,.25v.66c0,.22-.05,.33-.16,.33h-15.42Zm1.31,6.15h6.81c.22,0,.33,.06,.33,.18v5.04c0,.22-.24,.39-.72,.51h-.08c1.03,0,1.54,.08,1.54,.25,0,.19-.07,.3-.21,.33-.14,.01-.21,.15-.21,.41h6.07c.11,0,.16,.08,.16,.25v.66c0,.16-.05,.25-.16,.25h-6.07v1.31h7.46c.11,0,.16,.08,.16,.25v.66c0,.22-.05,.33-.16,.33h-16.9c-.11,0-.16-.11-.16-.33v-.66c0-.16,.05-.25,.16-.25h7.96v-1.31h-5.74c-.11,0-.16-.08-.16-.25v-.66c0-.16,.05-.25,.16-.25h5.74v-.74c0-.1,.04-.16,.12-.21-.4,.05-.88,.1-1.44,.12-.11,0-.18-.06-.21-.18-.01-.23-.14-.57-.37-1.03,0-.03,.04-.04,.12-.04,.82,0,1.3-.02,1.44-.06,.16-.03,.25-.1,.25-.21v-.51h-4.92v1.72c0,.15-.11,.23-.33,.23h-.66c-.22,0-.33-.08-.33-.23v-5.41c0-.12,.11-.18,.33-.18Zm.49-5.25h5.91c.22,0,.33,.09,.33,.27v3.83c0,.16-.11,.25-.33,.25h-5.91c-.22,0-.33-.08-.33-.25v-3.83c0-.18,.11-.27,.33-.27Zm.49,6.89h4.92v-.74h-4.92v.74Zm0,1.48h4.92v-.74h-4.92v.74Zm.49-6.56h3.94v-.9h-3.94v.9Zm3.94,1.64v-.9h-3.94v.9h3.94Zm2.3-.47h2.44c.05-.85,.08-1.79,.08-2.83,0-.26,.06-.39,.18-.39l1.21,.1c.23,0,.35,.08,.35,.23,0,.22-.08,.34-.25,.37s-.25,.15-.25,.37c-.01,.81-.05,1.52-.1,2.15h2.89c.11,0,.16,.08,.16,.23v.68c0,.21-.05,.31-.16,.31h-2.73c.33,1,.63,1.78,.9,2.34,.31,.72,.7,1.39,1.17,2.01,.38,.52,.77,.9,1.15,1.15,0,.1-.06,.16-.18,.21-.27,.25-.51,.49-.72,.72-.07,.11-.12,.16-.16,.16-.59-.59-1.07-1.21-1.44-1.87-.42-.68-.79-1.42-1.09-2.21-.07-.16-.14-.36-.23-.57-.19,.94-.43,1.72-.72,2.34-.37,.92-.85,1.63-1.46,2.13-.15,0-.25-.03-.29-.1-.18-.16-.4-.31-.68-.45-.12-.1-.18-.18-.18-.27,0-.11,.05-.18,.14-.23,.55-.57,.97-1.18,1.27-1.8,.31-.6,.56-1.33,.74-2.17,.1-.41,.18-.87,.25-1.37h-2.32c-.11,0-.16-.1-.16-.31v-.68c0-.15,.05-.23,.16-.23Zm5.33-2.97c.41,.3,.75,.57,1.03,.8,.3,.31,.57,.59,.8,.84,0,.01-.04,.06-.12,.14-.36,.51-.54,.76-.55,.76-.33-.41-.68-.79-1.05-1.13-.3-.29-.55-.49-.76-.59,0-.05,.17-.29,.51-.72,.05-.07,.1-.1,.14-.1Z"/>
        <path class="cls-1" d="M343.88,119.46l1.21,.29c.18,.04,.27,.14,.27,.29,0,.21-.1,.31-.31,.31-.12,.04-.21,.13-.27,.27-.4,.93-.8,1.75-1.21,2.46h3.26c.23,0,.35,.09,.35,.27v13.92c0,.16-.12,.25-.35,.25h-.82c-.22,0-.33-.08-.33-.25v-1.07h-4.43v1.64c0,.16-.11,.25-.33,.25h-.82c-.22,0-.33-.08-.33-.25v-14.42c0-.23,.11-.35,.33-.35h1.89c.55-.93,1.09-2.08,1.64-3.45,.04-.11,.12-.16,.25-.16Zm-2.62,9.43h4.43v-4.51h-4.43v4.51Zm0,5.99h4.43v-4.68h-4.43v4.68Zm10.25-15.59l1.42,.55c.15,.11,.23,.2,.23,.27,0,.12-.05,.21-.16,.25-.18,0-.29,.08-.33,.25-.3,.92-.57,1.65-.8,2.21h5.15c.27,0,.41,.14,.41,.41,0,4.79-.08,8.09-.25,9.93-.16,1.63-.42,2.79-.78,3.49-.27,.63-.65,1.02-1.13,1.17-.59,.25-1.37,.37-2.36,.37-.88,0-1.33-.14-1.35-.43-.05-.36-.15-.71-.29-1.07,0-.1,.03-.14,.08-.14l.16,.02c.4,.04,.75,.06,1.07,.06,1.03,0,1.73-.15,2.11-.45,.41-.31,.7-1.2,.88-2.65,.22-1.5,.34-4.63,.37-9.39h-4.74c-.23,.42-.48,.84-.74,1.25-.38,.53-.8,1.03-1.25,1.48-.16,0-.31-.02-.45-.06-.26-.12-.53-.23-.82-.33-.08-.04-.12-.08-.12-.12,0-.07,.03-.12,.08-.16,.7-.66,1.31-1.46,1.85-2.42,.33-.56,.61-1.15,.84-1.76,.27-.66,.53-1.5,.76-2.54,.04-.11,.1-.16,.16-.16Zm-.66,8.55c.14,0,.22,.02,.25,.06,.78,1.29,1.49,2.65,2.13,4.1,0,.21-.05,.31-.14,.33-.49,.33-.88,.49-1.17,.49-.68-1.75-1.34-3.2-1.97-4.35,0-.15,.3-.36,.9-.64Z"/>
        <path class="cls-1" d="M370.64,124.05l1.68,1.11c.08,.11,.12,.18,.12,.21,0,.15-.09,.24-.27,.27-.37,.01-.58,.09-.64,.23-.38,.67-.82,1.38-1.31,2.13h9.93c.16,0,.25,.08,.25,.25v.82c0,.22-.08,.33-.25,.33h-4.12c-.25,.74-.53,1.42-.86,2.05-.45,.92-.96,1.69-1.54,2.32-.11,.15-.23,.29-.35,.41,.22,.11,.43,.21,.64,.31,2.16,1.09,3.99,2.08,5.5,2.97,0,.01-.04,.07-.12,.16-.44,.64-.67,.96-.7,.96-2.04-1.23-4.19-2.37-6.46-3.4-.19,.14-.39,.27-.59,.41-.77,.51-1.7,.99-2.79,1.46-1.33,.56-2.91,1.07-4.76,1.54-.14,0-.22-.05-.25-.14-.19-.26-.4-.58-.64-.96-.12-.1-.18-.19-.18-.29,.37,0,.86-.09,1.48-.27,.81-.15,1.67-.37,2.58-.66,1.23-.44,2.28-.9,3.14-1.37,.19-.14,.38-.27,.55-.39-1.57-.68-2.94-1.2-4.1-1.54-.3,.36-.62,.72-.94,1.11-.11,0-.21-.03-.29-.1-.26-.14-.54-.25-.84-.35-.07-.03-.1-.1-.1-.21,1.27-1.53,2.25-2.8,2.93-3.79,.05-.07,.11-.14,.16-.23h-5.56c-.16,0-.25-.11-.25-.33v-.82c0-.16,.08-.25,.25-.25h6.48c.51-.75,.96-1.5,1.35-2.24,.34-.64,.57-1.15,.7-1.52,.05-.12,.11-.18,.16-.18Zm.08-4.51c1.11,0,1.66,.09,1.66,.27s-.08,.28-.23,.31c-.14,.01-.21,.15-.21,.41v1.09h7.22c.22,0,.33,.08,.33,.23v4.12c0,.15-.11,.23-.33,.23h-.82c-.22,0-.33-.08-.33-.23v-3.06h-14.27v3.06c0,.15-.11,.23-.33,.23h-.82c-.22,0-.33-.08-.33-.23v-4.04c0-.21,.11-.31,.33-.31h7.79v-1.8c0-.18,.11-.27,.33-.27Zm3.79,9.84h-5.19l-.04,.08c-.48,.68-1.08,1.47-1.8,2.36,1.65,.6,3.12,1.18,4.41,1.72,.03-.03,.05-.05,.08-.06,.62-.6,1.14-1.29,1.58-2.05,.33-.53,.65-1.22,.96-2.05Z"/>
        <path class="cls-1" d="M384.45,121.02h3.34v-1.56c0-.11,.11-.16,.33-.16,.88,0,1.31,.05,1.31,.16,0,.16-.05,.25-.16,.27-.11,.03-.16,.16-.16,.39v.9h3.28c.11,0,.16,.08,.16,.25v.66c0,.16-.05,.25-.16,.25h-3.28v1.48h2.87c.11,0,.16,.08,.16,.25v.66c0,.16-.05,.25-.16,.25h-2.87v1.39h3.61c.11,0,.16,.08,.16,.25v.66c0,.22-.05,.33-.16,.33h-8.45c-.11,0-.16-.11-.16-.33v-.66c0-.16,.05-.25,.16-.25h3.53v-1.39h-2.95c-.11,0-.16-.08-.16-.25v-.66c0-.16,.05-.25,.16-.25h2.95v-1.48h-3.34c-.12,0-.18-.08-.18-.25v-.66c0-.16,.06-.25,.18-.25Zm.64,7.46h6.64c.27,0,.41,.11,.41,.33v8.39c0,.36-.23,.63-.7,.82-.45,.16-1.03,.27-1.74,.33-.16,0-.26-.08-.29-.25-.01-.27-.17-.69-.47-1.25,0-.03,.05-.04,.14-.04,.79,0,1.26-.04,1.39-.12,.18-.07,.27-.19,.27-.37v-1.85h-4.51v3.45c0,.18-.11,.27-.33,.27h-.82c-.16,0-.25-.09-.25-.27v-9.17c0-.18,.08-.27,.25-.27Zm1.15,2.38h4.51v-1.15h-4.51v1.15Zm0,2.38h4.51v-1.13h-4.51v1.13Zm7.96-7.28h7.79c.22,0,.33,.08,.33,.23v3.2h.98c.11,0,.16,.08,.16,.25v.68c0,.21-.05,.31-.16,.31h-.98v3.22c0,.15-.11,.23-.33,.23h-3.36v2.87c0,.98-.79,1.48-2.38,1.48h-.9c-.08,0-.12-.12-.12-.37-.01-.29-.1-.63-.27-1.03v-.08c.41,.11,.81,.16,1.21,.16,.71,0,1.07-.25,1.07-.74v-2.3h-3.28c-.11,0-.16-.11-.16-.33v-.64c0-.18,.05-.27,.16-.27h3.28v-2.21h-3.94c-.11,0-.16-.1-.16-.31v-.68c0-.16,.05-.25,.16-.25h3.94v-2.21h-3.04c-.11,0-.16-.1-.16-.31v-.68c0-.15,.05-.23,.16-.23Zm.08-3.53c.36,.48,.64,.92,.86,1.33,.21,.38,.38,.78,.53,1.19,0,.04-.44,.18-1.31,.41-.05-.26-.18-.58-.37-.96-.19-.45-.45-.9-.78-1.33,0-.08,.36-.29,1.07-.64Zm7.05-1.91c-.11,0-.22,.01-.33,.04-.9,.34-1.91,.59-3.01,.74-1.3,.21-2.65,.31-4.04,.31-.19,0-.31-.08-.37-.23-.03-.22-.1-.44-.21-.68-.05-.08-.08-.17-.08-.27,1.74-.01,3.09-.09,4.06-.23,1.18-.12,2.24-.38,3.2-.76,.11-.05,.21-.08,.29-.08,.07,0,.14,.03,.21,.1,.63,.49,.94,.81,.94,.96,0,.23-.05,.35-.16,.35l-.49-.27Zm-3.75,1.48c.34,.51,.62,.98,.82,1.42,.22,.37,.4,.77,.55,1.21,0,.05-.44,.2-1.31,.43-.04-.29-.16-.63-.37-1.03-.19-.45-.45-.91-.78-1.37,0-.08,.36-.3,1.09-.66Zm1.05,5.17v2.21h2.3v-2.21h-2.3Zm0,3.45v2.21h2.3v-2.21h-2.3Zm3.04-8.92s.1,.02,.18,.06c.31,.14,.61,.26,.88,.37,.11,.03,.16,.1,.16,.21-.36,.97-.85,1.96-1.48,2.95-.18,0-.33-.03-.45-.08-.23-.16-.47-.31-.72-.43-.1-.08-.14-.16-.14-.23,.34-.44,.62-.85,.82-1.23,.27-.46,.49-.98,.66-1.56l.08-.06Z"/>
        <path class="cls-1" d="M407.17,120.71h5.58c.11,0,.16,.08,.16,.23v.68c0,.21-.05,.31-.16,.31h-2.05v4.68h2.05c.11,0,.16,.09,.16,.27v.64c0,.23-.05,.35-.16,.35h-2.05v5.02c.79-.33,1.55-.68,2.28-1.05,.03-.04,.06-.06,.1-.06,.11,0,.16,.08,.16,.25,0,.66-.03,1.02-.08,1.09-1.72,.83-3.47,1.59-5.25,2.28-.21,.38-.37,.57-.49,.57-.11,0-.36-.55-.74-1.64,.72-.18,1.57-.46,2.54-.84v-5.62h-2.19c-.12,0-.18-.12-.18-.35v-.64c0-.18,.06-.27,.18-.27h2.19v-4.68h-2.05c-.1,0-.14-.1-.14-.31v-.68c0-.15,.05-.23,.14-.23Zm7.46,7.44h9.6c.22,0,.33,.08,.33,.25v3.36c0,.16-.11,.25-.33,.25h-3.65c.15,.41,.32,.79,.51,1.13,.23,.46,.5,.88,.8,1.25,.15-.04,.28-.08,.39-.12,.48-.18,.9-.38,1.25-.62,.31-.18,.65-.4,1-.66,.04-.04,.08-.06,.1-.06l1.09,.78c.1,.11,.14,.21,.14,.29,0,.01-.04,.03-.12,.04-.14,0-.25,.02-.33,.06-.34,.23-.72,.46-1.13,.68-.4,.19-.89,.38-1.48,.57,.26,.25,.55,.46,.86,.64,.64,.42,1.35,.74,2.11,.94,.05,.03,.08,.05,.08,.08,0,.11-.05,.21-.16,.31-.21,.22-.41,.45-.62,.7-.05,.16-.15,.25-.29,.25-.05,0-.24-.1-.55-.31-1.04-.53-1.9-1.13-2.58-1.8-.55-.56-.96-1.13-1.25-1.7-.26-.4-.59-1.21-.98-2.44h-.86c-.36,.46-.72,.87-1.11,1.21l-.21,.21v3.16c1.18-.31,2.29-.65,3.34-1,.03-.01,.06-.02,.1-.02,.11,0,.16,.08,.16,.23,0,.66-.03,1.01-.08,1.07-1.75,.55-3.53,1.05-5.33,1.5-.19,.37-.36,.55-.49,.55-.12,0-.37-.55-.74-1.64,.48-.08,1-.18,1.56-.31v-2.34c-.53,.36-1.12,.69-1.76,1-.89,.38-1.39,.57-1.52,.57-.08,0-.17-.08-.27-.25-.18-.23-.39-.48-.64-.74-.11-.11-.16-.19-.16-.25,.96-.26,1.77-.53,2.44-.82,.68-.3,1.36-.68,2.03-1.15,.29-.23,.64-.56,1.07-.98h-2.34c-.22,0-.33-.08-.33-.25v-3.36c0-.16,.11-.25,.33-.25Zm-.9-2.3h11.24c.11,0,.16,.09,.16,.27v.64c0,.22-.05,.33-.16,.33h-11.24c-.11,0-.16-.11-.16-.33v-.64c0-.18,.05-.27,.16-.27Zm.25-5.89h10.66c.22,0,.33,.08,.33,.23v4.18c0,.16-.11,.25-.33,.25h-10.66c-.22,0-.33-.08-.33-.25v-4.18c0-.15,.11-.23,.33-.23Zm3.04,3.53v-2.4h-1.97v2.4h1.97Zm6.15,7.36v-1.56h-7.46v1.56h7.46Zm-2.87-7.36v-2.4h-1.89v2.4h1.89Zm3.28,0v-2.4h-1.89v2.4h1.89Z"/>
        <path class="cls-1" d="M429.83,124.96h1.8v-4.51c0-.16,.11-.25,.33-.25,1.04,0,1.56,.08,1.56,.25,0,.19-.07,.3-.21,.33-.14,.01-.21,.15-.21,.41v3.77h1.64c.16,0,.25,.11,.25,.33v.68c0,.21-.08,.31-.25,.31h-1.64v6.87c.77-.27,1.5-.55,2.19-.82,.03-.04,.06-.06,.1-.06,.11,0,.16,.05,.16,.16,0,.7-.03,1.08-.08,1.15-1.63,.67-3.27,1.27-4.92,1.8-.21,.38-.37,.57-.49,.57s-.4-.57-.82-1.72c.67-.14,1.46-.35,2.38-.64v-7.32h-1.8c-.15,0-.23-.1-.23-.31v-.68c0-.22,.08-.33,.23-.33Zm7.65,2.46h8.59c.22,0,.33,.09,.33,.27v5.89c0,.18-.11,.27-.33,.27h-2.13v2.28c0,.6,.36,.9,1.07,.9h1.07c.44,0,.7-.19,.78-.57,.08-.22,.18-.68,.29-1.39,.41,.31,.77,.52,1.09,.62,.15,.03,.23,.12,.23,.29-.15,.83-.33,1.4-.53,1.7-.16,.46-.62,.7-1.35,.7h-2.3c-1.15,0-1.72-.44-1.72-1.33v-3.18h-1.66c0,.46-.03,.88-.08,1.23-.1,.44-.26,.83-.49,1.19-.25,.37-.6,.72-1.07,1.05-.49,.3-1.1,.55-1.83,.76-.6,.16-1.27,.31-2.01,.43-.14,0-.22-.07-.25-.21-.21-.26-.4-.55-.57-.86-.05-.08-.08-.16-.08-.25,1.04-.11,1.87-.23,2.5-.37,.49-.11,.9-.27,1.21-.49,.29-.15,.52-.34,.7-.57,.22-.26,.38-.55,.49-.86,.05-.26,.09-.61,.1-1.05h-2.03c-.23,0-.35-.09-.35-.27v-5.89c0-.18,.12-.27,.35-.27Zm1.78-4.76c.37,.52,.68,.98,.92,1.39,.15,.27,.28,.55,.39,.82h2.54c.3-.34,.53-.65,.7-.92,.27-.41,.48-.83,.62-1.25,.05-.12,.11-.18,.16-.18l1.13,.45c.18,.07,.27,.16,.27,.27,0,.08-.06,.14-.18,.18-.14,0-.23,.05-.27,.16-.23,.51-.46,.94-.68,1.29h2.93c.16,0,.25,.12,.25,.35v.64c0,.22-.08,.33-.25,.33h-11.65c-.16,0-.25-.11-.25-.33v-.64c0-.23,.08-.35,.25-.35h3.04c-.03-.05-.05-.12-.08-.18-.22-.46-.52-.92-.9-1.35,0-.11,.36-.33,1.07-.68Zm2.3-3.28c1.04,0,1.56,.08,1.56,.25,0,.19-.07,.3-.21,.33-.12,.01-.18,.15-.18,.41v.66h4.57c.11,0,.16,.08,.16,.25v.66c0,.22-.05,.33-.16,.33h-10.66c-.11,0-.16-.11-.16-.33v-.66c0-.16,.05-.25,.16-.25h4.59v-1.39c0-.16,.11-.25,.33-.25Zm-2.95,10.58h6.32v-1.37h-6.32v1.37Zm6.32,2.71v-1.46h-6.32v1.46h6.32Z"/>
        <path class="cls-1" d="M454.37,120.12h14.27c.27,0,.41,.11,.41,.33v15.71c0,.66-.33,1.17-1,1.54-.64,.27-1.48,.46-2.52,.57-.15,0-.24-.09-.27-.27-.03-.29-.18-.72-.47-1.31,0-.07,.07-.1,.21-.1,1.23,0,1.96-.09,2.19-.27,.26-.15,.39-.4,.39-.76v-3.36h-5.33v5.48c0,.16-.11,.25-.33,.25h-.82c-.22,0-.33-.08-.33-.25v-5.48h-5.56c-.03,.18-.05,.35-.08,.51-.18,1.19-.52,2.38-1.03,3.57-.27,.72-.65,1.42-1.13,2.07-.1,0-.16-.01-.21-.04-.23-.23-.49-.43-.78-.59-.05-.07-.08-.16-.08-.27,.44-.6,.83-1.43,1.17-2.48,.34-1.09,.58-2.24,.72-3.45,.16-1.26,.25-2.78,.25-4.57v-6.5c0-.22,.11-.33,.33-.33Zm.98,10.75h5.41v-4.1h-5.25v.18c0,1.49-.05,2.8-.16,3.92Zm.16-5.41h5.25v-4.02h-5.25v4.02Zm6.73-4.02v4.02h5.33v-4.02h-5.33Zm0,9.43h5.33v-4.1h-5.33v4.1Z"/>
        <path class="cls-1" d="M484.17,124.55l1.25,.57c.15,.07,.23,.15,.23,.25,0,.11-.08,.16-.25,.16-.1,0-.18,.04-.27,.12,.75,.57,1.45,1.03,2.09,1.37,.7,.34,1.42,.64,2.15,.88,.7,.22,1.45,.4,2.26,.55,.7,.18,1.46,.32,2.3,.43,0,.11-.06,.19-.18,.25-.23,.23-.44,.49-.62,.78-.07,.08-.18,.12-.35,.12-1.01-.16-2.02-.39-3.01-.68-.82-.26-1.59-.54-2.3-.84-.21-.1-.42-.19-.64-.29,.03,.04,.04,.1,.04,.16v.49c0,.22-.05,.33-.16,.33h-5.09c-.11,0-.16-.11-.16-.33v-.47c-.33,.18-.68,.34-1.05,.49-.97,.38-2.04,.72-3.22,1.03-.75,.19-1.38,.34-1.89,.45-.21,0-.32-.06-.35-.18-.19-.33-.43-.66-.72-.98,.98-.16,1.96-.37,2.91-.62,1.13-.33,2.17-.7,3.1-1.11,.93-.4,1.75-.86,2.46-1.39,.51-.41,.96-.88,1.37-1.39,.03-.11,.05-.16,.08-.16Zm-4.51-5.25c.98,0,1.48,.08,1.48,.25,0,.18-.05,.27-.16,.29s-.16,.14-.16,.37v.16h3.61c.11,0,.16,.08,.16,.25v.66c0,.16-.05,.25-.16,.25h-3.61v1h2.3c.12,0,.22,.03,.29,.1,.25,.29,.37,.46,.37,.53-.38,.66-.74,1.16-1.07,1.52-.4,.45-.81,.82-1.23,1.11-.42,.3-.96,.59-1.62,.86-.7,.31-1.48,.57-2.34,.78-.57,.15-1.33,.29-2.28,.43-.15,0-.26-.05-.33-.16-.14-.22-.27-.44-.39-.66-.07-.07-.1-.12-.1-.16s.04-.08,.12-.1c.57-.07,1.14-.15,1.7-.25,.77-.14,1.43-.29,1.99-.47-.07-.11-.14-.23-.23-.35-.25-.31-.57-.64-.96-.98,0-.08,.36-.3,1.07-.66,.41,.38,.75,.74,1.03,1.07,.12,.14,.23,.27,.33,.41,.42-.18,.8-.38,1.13-.62,.45-.3,.83-.64,1.13-1.03,.05-.05,.1-.11,.14-.16h-5.15s-.03,.05-.06,.08c-.26,.29-.52,.54-.78,.76-.27,.22-.49,.38-.64,.49-.1,0-.18-.05-.25-.16-.14-.23-.3-.42-.49-.57-.11-.07-.16-.13-.16-.18,0-.03,.01-.05,.04-.06,.36-.19,.65-.38,.88-.57,.33-.27,.65-.62,.96-1.03,.22-.27,.4-.53,.53-.78,.15-.27,.29-.57,.41-.88,.04-.07,.08-.1,.12-.1l1.17,.59c.1,.07,.14,.14,.14,.21,0,.12-.08,.18-.25,.18-.14,0-.24,.04-.31,.12-.12,.25-.25,.48-.39,.7h1.76v-3.06c0-.11,.08-.16,.25-.16Zm0,15.91v1.62c1.3-.18,2.54-.38,3.71-.62,.04-.01,.09-.02,.14-.02,.11,0,.16,.05,.16,.16,0,.6-.03,.94-.08,1-2.28,.38-4.61,.73-6.97,1.05-.18,.33-.31,.49-.41,.49-.11,0-.36-.51-.74-1.54,.79-.08,1.7-.19,2.71-.33v-6.73c0-.18,.11-.27,.33-.27h10.58c.22,0,.33,.09,.33,.27v4.66c0,.16-.11,.25-.33,.25h-4.29c.22,.25,.45,.44,.7,.59,.55,.36,1.14,.64,1.78,.86,.15,.05,.3,.1,.45,.12,1.05-.63,1.94-1.24,2.67-1.83,.18-.1,.31-.14,.41-.14,.08,0,.17,.04,.27,.12,.7,.51,1.05,.81,1.05,.92,0,.16-.08,.25-.25,.25l-.41-.08c-.15,0-.33,.05-.53,.16-.45,.27-.98,.58-1.58,.92,.04,.01,.08,.02,.1,.02,.77,.15,2.06,.23,3.9,.23,0,.08-.05,.21-.14,.37-.14,.27-.24,.52-.31,.74-.01,.12-.08,.18-.21,.18-1.2,0-2.41-.11-3.63-.33-.82-.16-1.57-.37-2.26-.62-.77-.3-1.39-.65-1.87-1.05-.48-.33-.94-.81-1.39-1.46h-3.9Zm0-4v.9h8.29v-.9h-8.29Zm0,1.95v.9h8.29v-.9h-8.29Zm2.34-5h4.7c-.41-.19-.81-.42-1.19-.68-.4-.26-.81-.57-1.23-.92-.34,.31-.68,.58-1.03,.8-.38,.3-.8,.57-1.25,.8Zm3.57-8.04h5.99c.12,0,.25,.03,.37,.1,.25,.16,.37,.29,.37,.39-.12,.59-.25,1.07-.39,1.46-.15,.42-.36,.83-.62,1.21-.14,.26-.34,.55-.62,.86-.26,.29-.55,.55-.86,.8,.67,.4,1.42,.71,2.24,.94,.49,.15,.94,.25,1.35,.31,.14,.04,.21,.07,.21,.08,0,.12-.03,.21-.1,.25-.21,.26-.4,.49-.57,.68-.05,.1-.13,.14-.23,.14s-.41-.08-.94-.23c-1.3-.42-2.34-.9-3.14-1.42-.33,.18-.8,.37-1.42,.57-.12,0-.23-.05-.31-.16-.26-.21-.53-.4-.82-.57-.07-.07-.1-.12-.1-.16,0-.03,.02-.05,.06-.06,.59-.15,1.08-.31,1.48-.49-.23-.22-.46-.46-.7-.72-.41-.55-.8-1.22-1.17-2.01,0-.11,.38-.24,1.15-.39,.29,.66,.64,1.23,1.05,1.72,.25,.27,.52,.53,.82,.78,.1-.07,.18-.13,.27-.18,.4-.3,.7-.59,.92-.86,.26-.34,.49-.7,.7-1.07,.1-.22,.19-.49,.29-.82h-5.27c-.16,0-.25-.08-.25-.25v-.66c0-.16,.08-.25,.25-.25Z"/>
        <path class="cls-1" d="M506.5,126.02c.75,0,1.42,.29,2.01,.88,.56,.59,.84,1.28,.84,2.07,0,.75-.28,1.42-.84,2.01-.59,.57-1.26,.86-2.01,.86-.79,0-1.48-.29-2.07-.86-.59-.59-.88-1.26-.88-2.01,0-.79,.29-1.48,.88-2.07s1.28-.88,2.07-.88Zm0,5.09c.56,0,1.06-.21,1.5-.64,.41-.44,.62-.94,.62-1.5s-.21-1.11-.62-1.56c-.44-.44-.94-.66-1.5-.66-.6,0-1.12,.22-1.56,.66s-.68,.97-.68,1.56,.23,1.06,.68,1.5c.44,.42,.96,.64,1.56,.64Z"/>
      </g>
      <line class="cls-3" y1="67.12" x2="524.22" y2="67.12"/>
      <g>
        <path class="cls-2" d="M41.69,23.24c0-7.01,0-14.02,0-21.03,0-1.14,.55-1.92,1.51-2.15,1.19-.29,2.35,.52,2.47,1.74,.01,.14,0,.29,.01,.44,0,14.04,0,28.08,0,42.11,0,1.09-.5,1.87-1.36,2.15-1.28,.42-2.58-.5-2.62-1.86-.03-.89,0-1.79,0-2.68,0-6.24,0-12.48,0-18.72Z"/>
        <path class="cls-2" d="M37.7,23.3c0,4.39,0,8.77,0,13.16,0,.87-.34,1.54-1.12,1.93-.71,.36-1.42,.28-2.06-.19-.56-.41-.82-.97-.82-1.67,0-1.29,0-2.58,0-3.87,0-7.48,0-14.97,0-22.45,0-1.12,.52-1.89,1.43-2.15,1.3-.37,2.54,.56,2.56,1.95,.02,1.46,0,2.91,0,4.37,0,2.97,0,5.95,0,8.92Z"/>
        <path class="cls-2" d="M17.72,23.3c0-3.53,0-7.07,0-10.6,0-.96,.58-1.73,1.43-1.97,.82-.24,1.74,.06,2.19,.8,.21,.34,.36,.77,.36,1.16,.02,7.07,.02,14.14,.01,21.21,0,1.18-.86,2.04-1.99,2.04-1.15,0-2-.87-2-2.09,0-3.51,0-7.03,0-10.54Z"/>
        <path class="cls-2" d="M49.68,23.26c0-2.64,0-5.28,0-7.93,0-1.07,.75-1.9,1.76-2.02,.98-.12,1.91,.51,2.16,1.5,.06,.24,.07,.49,.07,.74,0,5.16,0,10.32,0,15.48,0,1.33-.81,2.24-1.98,2.25-1.2,0-2.01-.91-2.01-2.28,0-2.58,0-5.16,0-7.74Z"/>
        <path class="cls-2" d="M25.71,23.3c0-1.7,0-3.41,0-5.11,0-1.31,.84-2.23,2.01-2.22,1.17,0,1.99,.92,1.99,2.24,0,3.39,0,6.77,0,10.16,0,1.33-.8,2.24-1.98,2.25-1.18,.02-2.01-.92-2.02-2.28,0-1.68,0-3.37,0-5.05Z"/>
        <path class="cls-2" d="M13.72,23.29c0,.87,.01,1.75,0,2.62-.02,1.17-.87,2.03-1.99,2.03-1.12,0-1.99-.85-2-2.02-.01-1.74-.01-3.49,0-5.23,0-1.18,.86-2.03,1.99-2.03,1.13,0,1.98,.85,2,2.02,.02,.87,0,1.74,0,2.62Z"/>
        <path class="cls-2" d="M61.67,23.26c0,.87,0,1.74,0,2.62-.02,1.21-.87,2.08-2.02,2.07-1.12-.01-1.96-.88-1.97-2.05-.01-1.72-.01-3.45,0-5.17,0-1.22,.86-2.08,2.02-2.06,1.12,.01,1.95,.87,1.97,2.05,.01,.85,0,1.7,0,2.55Z"/>
      </g>
    </g>
  </g>
</svg>