<?xml version="1.0" encoding="UTF-8"?>
<svg id="_圖層_2" data-name="圖層 2" xmlns="http://www.w3.org/2000/svg" viewBox="0 0 524.23 164.93">
  <defs>
    <style>
      .cls-1 {
        fill: #fff;
      }

      .cls-2 {
        fill: #00adea;
      }

      .cls-3 {
        fill: none;
        stroke: #00adea;
        stroke-miterlimit: 10;
      }
    </style>
  </defs>
  <g id="_圖層_3" data-name="圖層 3">
    <g>
      <g>
        <path class="cls-2" d="M125.98,43.51c-.34,.43-.91,.72-1.97,.86-.24,15.79-.72,21.89-2.93,24.1-1.34,1.44-3.26,1.87-5.81,1.92,0-1.39-.19-2.4-.86-3.07-.72-.77-2.21-1.3-4.03-1.68l.05-.67c1.73,.14,4.37,.34,5.33,.34,.82,0,1.15-.14,1.58-.53,1.25-1.25,1.63-7.87,1.82-21.17h-11.23c-1.15,1.68-2.45,3.12-3.84,4.42l2.02,.82h1.49v-3.94l4.75,.48c-.05,.53-.43,.91-1.39,1.06v2.4h2.11l1.73-1.92,3.6,2.74c-.29,.34-.72,.58-1.63,.72v6.62c0,.19-1.3,.91-2.98,.91h-.58v-1.3h-2.26v4.32l2.45-.29c-.38-.91-.91-1.78-1.34-2.4l.53-.29c8.16,2.54,4.51,8.16,1.58,5.57-.05-.53-.14-1.15-.34-1.73-2.54,1.06-5.95,2.4-10.42,3.94-.24,.62-.67,.96-1.2,1.1l-2.11-4.94c1.58-.1,4.27-.34,7.49-.62v-4.66h-2.06v.82c0,.24-1.1,.96-2.83,.96h-.58v-8.74c-.96,.72-1.92,1.34-2.93,1.92v13.44c0,3.12-.62,4.9-5.52,5.33-.1-1.3-.29-2.35-.82-2.98-.58-.67-1.44-1.1-3.26-1.44v-.67s3.6,.24,4.46,.24c.72,0,.86-.29,.86-.91v-9.36h-7.97c-.48,5.28-1.92,10.85-6,15.12l-.58-.48c2.74-6.48,2.74-14.54,2.74-21.7v-7.82c-.72,.82-1.54,1.54-2.3,2.21l-.67-.43c2.45-4.13,4.8-10.56,6-16.85l6.34,1.97c-.19,.58-.77,1.01-1.82,.96-.34,.86-.72,1.68-1.1,2.5h2.4l2.35-2.45,4.22,3.84c-.34,.38-.91,.48-1.82,.53-1.39,1.49-3.41,3.55-5.33,4.99h3.12l1.97-2.26,4.42,3.36c-.29,.34-.86,.67-1.68,.82v10.32c2.16-2.74,4.08-6.38,5.42-10.42-.67,.29-1.63,.53-2.88,.53h-.72v-13.11l4.85,1.92h13.1l2.02-2.4,4.37,3.22c-.34,.38-.82,.67-1.78,.86v8.02c0,.19-1.49,.96-3.7,.96h-.77v-1.49h-11.42l4.08,1.54c-.24,.62-.86,1.01-1.92,.91-.34,.62-.67,1.25-1.01,1.82h9.84l2.59-2.69,4.7,3.98Zm-37.11-11.47c-.91,1.73-1.87,3.31-2.93,4.8l2.02,.77h2.16c.77-1.58,1.49-3.84,1.97-5.57h-3.22Zm-1.63,16.08c0,1.78,0,3.74-.14,5.76h2.16v-6.86h-2.02v1.1Zm0-2.5h2.02v-6.62h-2.02v6.62Zm5.57-6.62v6.62h2.11v-6.62h-2.11Zm2.11,14.88v-6.86h-2.11v6.86h2.11Zm10.46-23.71v6.38h2.45v-6.38h-2.45Zm.14,20.02v5.04h2.06v-5.04h-2.06Zm5.38-20.02v6.38h2.59v-6.38h-2.59Zm.05,20.02v5.04h2.26v-5.04h-2.26Zm5.67-20.02v6.38h2.5v-6.38h-2.5Z"/>
        <path class="cls-2" d="M149.12,44.62c-1.54,1.1-3.55,2.54-5.95,4.22v14.98c0,3.84-.72,6.05-6.43,6.58-.1-1.78-.34-3.12-.91-4.03-.62-.82-1.63-1.44-3.6-1.78v-.72s4.03,.29,4.95,.29c.72,0,.91-.24,.91-.82v-11.23c-.96,.58-2.02,1.25-3.07,1.87-.19,.62-.67,1.2-1.25,1.39l-2.06-6.34c1.25-.29,3.55-.91,6.38-1.73v-9.26h-5.67l-.34-1.39h6v-11.28l6.86,.67c-.1,.72-.58,1.15-1.78,1.34v9.26h.14l2.21-3.5s1.3,1.25,2.59,2.59c.14-.14,.34-.29,.48-.38,.96-.96,2.11-3.41,1.73-5.33h.67c.38,.82,.67,1.63,.86,2.4h9.22c-.34-.14-.72-.38-1.1-.67-.05-2.21-1.3-4.8-2.54-6.34l.34-.29c8.93,1.06,8.45,6.1,5.76,7.3h6.82l2.54-2.59,4.51,4.37c-.38,.34-.91,.48-1.82,.53-1.34,1.44-3.55,3.79-5.04,5.09l-.58-.29c.24-1.44,.53-3.89,.77-5.71h-3.22v7.97c0,1.25,.05,1.25,.86,1.25h4.56c.34,0,.67,0,1.1-.14h.43l.29,.05c1.34,.53,1.63,.82,1.63,1.54,0,1.73-1.01,2.54-4.75,2.54h-4.08c-4.42,0-4.75-.53-4.75-5.23v-7.97h-10.61c.53,2.74,.1,4.85-.91,5.95-1.01,1.1-3.41,1.01-4.18-.62-.14-.38-.24-.77-.19-1.1h-3.74v7.82c1.87-.58,3.79-1.15,5.76-1.78l.19,.53Zm22.51,18.05s3.46,2.74,5.57,4.61c-.14,.53-.62,.77-1.34,.77h-29.57l-.38-1.39h12.87v-13.63h-8.64l-.38-1.34h16.46l2.88-3.74s3.31,2.54,5.28,4.32c-.14,.53-.62,.77-1.3,.77h-8.88v13.63h4.37l3.07-3.98Zm-23.57-13.58c6.38-5.09,7.34-10.13,7.54-14.64l6.48,1.54c-.19,.58-.72,1.1-1.82,1.06-.86,3.79-2.5,8.83-11.71,12.77l-.48-.72Z"/>
        <path class="cls-2" d="M226.93,63.96c1.68,2.88,1.92,4.46,1.1,5.23-2.26,2.21-6.19,.14-8.35-1.82-7.78-7.06-10.51-17.52-11.38-29.76h-23.95l-.43-1.39h24.29c-.19-3.41-.29-6.96-.29-10.61l7.58,.77c-.1,.62-.53,1.2-1.73,1.39-.05,2.83-.05,5.66,.1,8.45h5.47l2.26-2.69c-.38-.05-.77-.19-1.15-.38-.82-2.06-2.98-4.46-4.66-5.76l.34-.38c8.98-.48,9.74,4.37,7.58,6.05,1.25,.91,3.36,2.54,4.9,3.79-.14,.53-.72,.77-1.39,.77h-13.3c.62,10.08,2.83,19.11,9.12,24.15,.67,.67,1.06,.67,1.49-.14,.77-1.3,2.11-3.84,2.98-5.9l.53,.1-1.1,8.16Zm-27.27-3.46c3.22-.62,6.67-1.3,10.18-2.02l.14,.62c-4.46,2.21-10.95,5.14-20.83,8.98-.24,.67-.72,1.06-1.2,1.25l-3.65-6.1c2.06-.29,5.52-.91,9.7-1.68v-14.31h-8.02l-.38-1.34h14.69l3.02-3.89s3.36,2.64,5.42,4.46c-.14,.53-.62,.77-1.3,.77h-7.78v13.25Z"/>
        <path class="cls-2" d="M235.08,49.51l-.29-.58c8.79-5.38,17.38-15.94,19.3-23.67l8.64,2.11c-.14,.67-.82,.96-2.3,1.1,4.18,6.91,12.72,10.66,20.55,12.96l-.05,.72c-2.59,.72-4.22,3.17-4.66,5.38-7.82-3.89-13.97-9.79-16.66-18.43-4.37,8.3-14.02,16.47-24.53,20.4Zm20.11-6.19c-.1,.62-.43,1.15-1.58,1.3v4.46c-.14,7.87-2.35,17.19-17.38,21.36l-.34-.53c10.8-5.38,12.05-13.63,12.05-20.88v-6.38l7.25,.67Zm13.83-.14c-.1,.67-.43,1.15-1.78,1.34v24.29c0,.48-2.5,1.58-4.7,1.58h-1.06v-27.89l7.54,.67Z"/>
        <path class="cls-2" d="M325.81,25.75s3.74,2.83,6.1,4.75c-.14,.53-.67,.77-1.34,.77h-17.95c-1.97,2.45-4.46,5.14-6.58,7.1h16.13l2.88-3.26,5.23,4.13c-.38,.43-.91,.86-2.06,1.01v27.94c0,.34-1.87,1.54-4.8,1.54h-.96v-3.5h-26.5v2.4c0,.43-1.73,1.49-4.56,1.49h-.96V36.07l6.1,2.3h7.73c.24-2.02,.53-4.8,.72-7.1h-17.57l-.38-1.34h35.43l3.36-4.18Zm-29.86,39.12h5.09v-25.15h-5.09v25.15Zm16.08-25.15h-5.81v7.34h5.81v-7.34Zm-5.81,16.23h5.81v-7.54h-5.81v7.54Zm0,8.93h5.81v-7.54h-5.81v7.54Zm11.04-25.15v25.15h5.18v-25.15h-5.18Z"/>
      </g>
      <g>
        <path class="cls-1" d="M4.1,109.9H15.18c.22,0,.33,.09,.33,.27v12.94h3.28c.16,0,.25,.11,.25,.33v.68c0,.21-.08,.31-.25,.31H.25c-.16,0-.25-.1-.25-.31v-.68c0-.22,.08-.33,.25-.33H3.77v-12.86c0-.23,.11-.35,.33-.35Zm1.97,15.01l1.15,.86c.11,.12,.16,.22,.16,.29,0,.05-.08,.09-.23,.1-.21,.01-.36,.05-.47,.12-.56,.46-1.16,.88-1.78,1.25-.75,.44-1.7,.88-2.85,1.31-.18,0-.29-.05-.35-.16l-.72-.57c-.11-.04-.16-.1-.16-.16,0-.03,.04-.05,.12-.08,.55-.12,1-.28,1.35-.47,.77-.31,1.44-.68,2.01-1.09,.49-.34,1.03-.77,1.6-1.27,.05-.08,.11-.12,.16-.12Zm-.82-11.73H14.03v-1.97H5.25v1.97Zm0,3.28H14.03v-1.95H5.25v1.95Zm0,3.45H14.03v-2.13H5.25v2.13Zm0,3.2H14.03v-1.89H5.25v1.89Zm7.71,1.64c.85,.72,1.65,1.29,2.4,1.7,.6,.34,1.48,.7,2.62,1.09,.15,.11,.23,.19,.23,.25,0,.12-.3,.48-.9,1.07-.05,0-.15-.01-.29-.04-2.16-1.03-3.76-1.98-4.8-2.87-.11-.11-.16-.18-.16-.21,0-.12,.3-.45,.9-.98Z"/>
        <path class="cls-1" d="M22.99,112.27h6.32c.27-.68,.55-1.45,.82-2.3,.1-.16,.21-.25,.33-.25l1.64,.59c.16,.12,.25,.23,.25,.31,0,.16-.08,.28-.25,.35-.37,0-.59,.12-.66,.37-.14,.33-.27,.64-.41,.92h10.09c.16,0,.25,.11,.25,.33v.66c0,.23-.08,.35-.25,.35h-10.71c-.42,.83-.81,1.52-1.15,2.05-.07,.11-.14,.21-.21,.31h9.76c.27,0,.41,.12,.41,.35v11.05c0,.46-.35,.83-1.05,1.09-.66,.19-1.51,.32-2.56,.39-.15,0-.23-.08-.25-.23-.03-.3-.19-.75-.49-1.33,0-.05,.07-.08,.21-.08,1.29,0,2.04-.05,2.26-.14,.27-.1,.41-.27,.41-.51v-1.46h-8.86v3.45c0,.15-.11,.23-.33,.23h-.82c-.22,0-.33-.08-.33-.23v-10.32c-.14,.16-.27,.32-.39,.47-.79,.85-1.65,1.61-2.56,2.28-.19,0-.36-.02-.49-.06-.3-.14-.6-.26-.9-.37-.1-.05-.14-.1-.14-.14,0-.11,.05-.19,.16-.25,1.41-1.01,2.66-2.24,3.75-3.67,.67-.83,1.24-1.72,1.72-2.67l.12-.21h-5.7c-.16,0-.25-.12-.25-.35v-.66c0-.22,.08-.33,.25-.33Zm5.91,7.57h8.86v-2.48h-8.86v2.48Zm0,3.92h8.86v-2.62h-8.86v2.62Z"/>
        <path class="cls-1" d="M53.11,111.15c-.71,.46-1.59,.84-2.62,1.13v2.87h3.04c.16,0,.25,.12,.25,.35v.64c0,.22-.08,.33-.25,.33h-2.75c.53,1.12,.98,1.92,1.35,2.4,.55,.75,1.2,1.46,1.97,2.11,0,.15-.05,.26-.14,.33-.21,.19-.49,.44-.84,.74-.04,0-.09-.03-.14-.08-.44-.38-.85-.87-1.25-1.46-.37-.56-.78-1.27-1.23-2.13v10.09c0,.15-.11,.23-.33,.23h-.82c-.22,0-.33-.08-.33-.23v-8.82c-.38,.78-.79,1.48-1.21,2.11-.48,.75-1.03,1.45-1.66,2.09-.16,0-.28-.03-.35-.1-.31-.15-.63-.29-.94-.43-.12,0-.18-.03-.18-.1,.86-.83,1.55-1.65,2.07-2.44,.52-.75,.92-1.48,1.21-2.19,.25-.46,.51-1.17,.8-2.11h-3.34c-.16,0-.25-.11-.25-.33v-.64c0-.23,.08-.35,.25-.35h3.61v-2.52c-1.01,.21-2.05,.31-3.12,.31-.18,0-.29-.09-.35-.27-.16-.33-.32-.59-.47-.78,0-.23,.08-.35,.25-.35,1.8,0,3.1-.1,3.88-.29,1.22-.19,2.28-.66,3.18-1.42,.11-.07,.22-.1,.33-.1,.08,0,.18,.05,.29,.16,.57,.66,.86,1.02,.86,1.09,0,.15-.05,.23-.16,.23l-.57-.06Zm10.83,8.92c.16,0,.25,.11,.25,.33v.82c0,.23-.08,.35-.25,.35l-1.97,.51v6.38c0,.15-.11,.23-.33,.23h-.82c-.22,0-.33-.08-.33-.23v-5.99l-6.15,1.64c-.16,0-.25-.12-.25-.35v-.82c0-.22,.08-.33,.25-.33l6.15-1.62v-11.01c0-.16,.11-.25,.33-.25,1.04,0,1.56,.08,1.56,.25,0,.19-.07,.3-.21,.33-.14,.01-.21,.15-.21,.41v9.88l1.97-.53Zm-8.29-3.61c.78,.41,1.42,.79,1.93,1.13,.59,.44,1.09,.83,1.52,1.17,0,.01-.03,.08-.1,.18-.41,.6-.62,.9-.64,.9-.64-.56-1.33-1.07-2.05-1.52-.59-.38-1.08-.65-1.48-.8,0-.07,.22-.38,.66-.92,.05-.1,.11-.14,.16-.14Zm.41-5.39c.77,.44,1.39,.85,1.89,1.23,.59,.48,1.08,.92,1.48,1.31,0,.01-.03,.07-.1,.16-.4,.59-.61,.88-.64,.88-.63-.6-1.3-1.16-2.01-1.66-.57-.41-1.05-.7-1.44-.88,0-.07,.21-.38,.64-.92,.08-.08,.14-.12,.18-.12Z"/>
        <path class="cls-1" d="M68.13,113.83h2.79v-2.77c0-.41-.03-.72-.08-.92-.05-.16-.08-.3-.08-.41s.14-.16,.41-.16l1.66,.23c.15,.07,.23,.13,.23,.18,0,.14-.08,.21-.25,.21-.27,.11-.41,.43-.41,.96v2.69h2.62c.16,0,.25,.11,.25,.33v.66c0,.22-.08,.33-.25,.33h-2.62v4.66c.9-.44,1.76-.9,2.58-1.37,.05-.05,.1-.08,.12-.08,.11,0,.16,.05,.16,.16,0,.7-.03,1.08-.08,1.15-.93,.53-1.86,1.05-2.79,1.54v5.76c0,1-.74,1.5-2.21,1.5h-1.23c-.12,0-.18-.12-.18-.37-.04-.26-.17-.58-.39-.96,0-.11,.05-.16,.16-.16,.55,.11,1.04,.16,1.48,.16,.6,0,.9-.25,.9-.74v-4.45c-.7,.36-1.41,.69-2.13,1-.21,.38-.37,.57-.49,.57s-.4-.57-.82-1.72c.96-.29,2.11-.72,3.45-1.31v-5.33h-2.79c-.16,0-.25-.11-.25-.33v-.66c0-.22,.08-.33,.25-.33Zm8.2-.96h4.18v-2.97c0-.16,.11-.25,.33-.25,1.04,0,1.56,.08,1.56,.25,0,.19-.07,.3-.21,.33-.14,.01-.21,.15-.21,.41v2.24h4.35c.16,0,.25,.1,.25,.31v.66c0,.22-.08,.33-.25,.33h-4.35v3.45h3.28c.14,0,.28,.04,.43,.12,.26,.21,.39,.36,.39,.45-.23,1.09-.48,1.99-.74,2.69-.3,.77-.7,1.51-1.21,2.24-.29,.46-.7,1-1.25,1.6-.07,.07-.14,.15-.23,.25,.74,.64,1.55,1.16,2.44,1.56,.59,.29,1.13,.49,1.62,.62,.18,.07,.27,.12,.27,.16,0,.14-.04,.24-.12,.31-.22,.27-.42,.52-.62,.74-.05,.14-.14,.21-.25,.21s-.49-.15-1.15-.45c-1.31-.66-2.41-1.37-3.28-2.15-.18,.14-.36,.27-.53,.39-.52,.38-1.2,.77-2.05,1.17-.64,.33-1.59,.7-2.83,1.13-.14,0-.25-.08-.35-.23-.29-.23-.59-.45-.92-.66-.08-.1-.12-.16-.12-.21,0-.05,.05-.1,.14-.12,1.31-.33,2.39-.69,3.22-1.09,.92-.38,1.7-.83,2.36-1.33,.01-.03,.03-.05,.06-.08-.63-.72-1.2-1.54-1.7-2.46-.49-.97-.96-2.14-1.39-3.51h-1.05c-.16,0-.25-.12-.25-.35v-.64c0-.23,.08-.35,.25-.35h4.1v-3.45h-4.18c-.16,0-.25-.11-.25-.33v-.66c0-.21,.08-.31,.25-.31Zm2.58,6.07c.3,1,.66,1.89,1.09,2.67,.45,.88,1.01,1.66,1.68,2.36,.22-.21,.42-.41,.59-.62,.52-.64,.96-1.32,1.31-2.03,.29-.62,.57-1.41,.84-2.38h-5.52Z"/>
        <path class="cls-1" d="M93.27,123.51l1.13,.86c.11,.11,.16,.21,.16,.29,0,.07-.04,.1-.12,.1-.14,.03-.23,.1-.29,.21-.34,.62-.7,1.16-1.09,1.64-.44,.59-1,1.17-1.7,1.74-.18,0-.29-.05-.33-.16-.3-.21-.55-.4-.74-.57-.11-.05-.16-.11-.16-.16,0-.04,.02-.08,.06-.12,.34-.16,.62-.36,.82-.57,.45-.44,.84-.92,1.17-1.44,.3-.44,.62-.98,.96-1.64,.03-.11,.07-.16,.12-.16Zm.23-10.58v2.87c0,1.57-.12,2.81-.35,3.71-.15,.77-.44,1.52-.88,2.28-.23,.46-.56,.9-.98,1.31-.1,0-.16-.01-.21-.04-.23-.21-.49-.39-.76-.55-.07-.08-.1-.18-.1-.31,.37-.36,.7-.85,.98-1.5,.3-.66,.51-1.36,.62-2.11,.14-.75,.21-1.68,.21-2.79v-3.83c0-.18,.11-.27,.33-.27h9.58c-.04-.62-.06-1.27-.06-1.97,0-.11,.03-.16,.08-.16,1.22,.07,1.83,.15,1.83,.25,0,.08-.07,.18-.21,.29-.15,.11-.23,.29-.23,.53,0,.38,0,.74,.02,1.07h4.16c.11,0,.16,.09,.16,.27v.64c0,.22-.05,.33-.16,.33h-4.1c.04,.67,.09,1.23,.14,1.68,.18,.98,.4,1.88,.68,2.69,.15,.41,.33,.81,.55,1.19,.22-.42,.42-.89,.59-1.39,.25-.63,.44-1.31,.57-2.03,.01-.11,.07-.16,.16-.16,1.09,.38,1.64,.63,1.64,.74,0,.15-.08,.26-.25,.33-.12,0-.22,.07-.29,.21-.26,.93-.57,1.78-.94,2.54-.21,.42-.42,.82-.64,1.19,.18,.23,.37,.44,.57,.64,.42,.45,.75,.68,.96,.68,.16,0,.33-.14,.49-.41,.21-.37,.37-.94,.49-1.7,.04-.11,.1-.16,.16-.16,.11,0,.19,.03,.25,.1,.22,.1,.44,.2,.66,.31,.16,.1,.25,.17,.25,.23-.19,1-.42,1.78-.7,2.34-.34,.68-.74,1.03-1.19,1.03-.21,0-.44-.07-.72-.21-.3-.14-.6-.34-.9-.62-.31-.27-.69-.65-1.13-1.13-.49,.56-1.06,1.09-1.7,1.58-.07,.03-.14,.04-.23,.04-.16,0-.29-.08-.39-.23-.14-.22-.3-.4-.49-.55-.12-.07-.18-.16-.18-.27,0-.04,.03-.09,.08-.14,.3-.11,.59-.29,.88-.55,.42-.33,.81-.7,1.15-1.11-.22-.34-.42-.7-.59-1.07-.29-.75-.51-1.37-.68-1.85-.26-.96-.45-1.89-.57-2.79-.04-.36-.08-.73-.1-1.13h-8.53Zm1.31,1.39h6.15c.12,0,.18,.09,.18,.27v.64c0,.22-.06,.33-.18,.33h-6.15c-.11,0-.16-.11-.16-.33v-.64c0-.18,.05-.27,.16-.27Zm.33,2.46h5.33c.22,0,.33,.08,.33,.25v4.61c0,.15-.11,.23-.33,.23h-.66c-.22,0-.33-.08-.33-.23v-.51h-3.36v.57c0,.16-.11,.25-.33,.25h-.66c-.22,0-.33-.08-.33-.25v-4.68c0-.16,.11-.25,.33-.25Zm.76,6.23l1.29,.12c.16,.01,.25,.06,.25,.14,0,.12-.03,.2-.1,.23-.1,.03-.14,.11-.14,.25v2.38c0,.6,.36,.9,1.07,.9h4.1c.82,0,1.31-.11,1.48-.33,.21-.19,.45-.9,.74-2.13,.18,.27,.44,.51,.8,.72,.18,.07,.27,.16,.27,.27-.4,1.41-.7,2.18-.92,2.32-.22,.31-.68,.47-1.37,.47h-5.25c-1.53,0-2.3-.46-2.3-1.39v-3.75c0-.12,.03-.18,.1-.18Zm.23-3.04h3.36v-2.03h-3.36v2.03Zm3.36,3.22c.64,.34,1.16,.66,1.56,.96,.48,.36,.89,.68,1.23,.98,0,.03-.03,.09-.1,.18-.41,.59-.62,.88-.64,.88-.53-.46-1.09-.89-1.68-1.27-.48-.33-.88-.55-1.19-.68,0-.08,.21-.39,.64-.92,.08-.1,.14-.14,.18-.14Zm5.74-13.95c.49,.23,.9,.45,1.21,.66,.36,.27,.66,.51,.92,.72,0,.03-.04,.08-.12,.16-.38,.55-.59,.82-.62,.82-.4-.33-.81-.64-1.25-.92-.34-.22-.64-.37-.88-.45,0-.08,.19-.37,.57-.86,.07-.08,.12-.12,.16-.12Zm1.72,14.25c.64,.72,1.17,1.39,1.58,2.01,.38,.55,.7,1.13,.96,1.76,0,.05-.46,.2-1.39,.43-.11-.41-.35-.9-.72-1.48-.4-.66-.92-1.31-1.58-1.97,0-.11,.38-.36,1.15-.76Z"/>
        <path class="cls-1" d="M116.16,109.49l1.11,.45c.19,.1,.29,.2,.29,.31,0,.15-.12,.25-.35,.31-.21,0-.36,.05-.47,.16h3.86c.16,0,.27,.03,.31,.08,.23,.22,.35,.38,.35,.49l-2.03,2.95h1.89c.26,0,.39,.12,.39,.35v4.04c.27-.22,.55-.44,.84-.66,.44-.38,.81-.8,1.13-1.25,.25-.33,.44-.66,.59-1h-1.25c-.22,0-.33-.08-.33-.23v-4.86c0-.16,.11-.25,.33-.25h8.45c.23,0,.35,.08,.35,.25v4.86c0,.15-.12,.23-.35,.23h-6.54c.64,.33,.96,.53,.96,.59,0,.11-.05,.16-.14,.16-.22,.03-.36,.1-.43,.23-.12,.21-.25,.4-.37,.57h7.1c.16,0,.25,.08,.25,.25-.03,3.05-.11,5.25-.25,6.6-.15,1.59-.37,2.78-.66,3.57-.25,.82-.93,1.23-2.05,1.23-.77,0-1.16-.12-1.19-.37-.05-.29-.21-.63-.45-1.03v-.16h1.64c.51,0,.83-.29,.98-.88,.01-.04,.03-.1,.04-.16-.11,.07-.48,.17-1.11,.31-.03-.18-.09-.38-.18-.59-1.78,.4-3.58,.76-5.39,1.09-.16,.34-.3,.51-.41,.51s-.36-.53-.74-1.58c.86-.1,1.9-.26,3.12-.49v-1.89h-2.46c-.22,0-.33-.08-.33-.25v-3.2c0-.16,.11-.25,.33-.25h2.46v-1.48h-1.78c-.25,.26-.69,.62-1.33,1.07-.12,0-.23-.05-.33-.16-.16-.12-.33-.25-.49-.39v8.22c0,.52-.25,.94-.74,1.25-.46,.22-1.07,.36-1.8,.43-.15,0-.24-.08-.27-.23-.01-.29-.17-.7-.47-1.25,0-.07,.05-.1,.14-.1,.83,0,1.33-.06,1.48-.18,.18-.12,.27-.33,.27-.62v-2.79h-4.84c-.01,.1-.03,.18-.04,.27-.12,1.03-.38,2.05-.76,3.08-.19,.6-.47,1.18-.84,1.74-.1,0-.16,0-.21-.02-.23-.21-.49-.38-.76-.53-.07-.07-.1-.16-.1-.27,.31-.51,.6-1.2,.86-2.09,.25-.93,.42-1.91,.51-2.93,.12-1.08,.18-2.39,.18-3.92v-4.2s-.04,.03-.04,.04c-.19,.21-.34,.31-.45,.31-.08,0-.19-.04-.33-.12-.26-.14-.51-.25-.74-.35-.11-.04-.16-.08-.16-.1,0-.04,.05-.11,.14-.21,.85-.83,1.49-1.56,1.93-2.17,.63-.81,1.09-1.62,1.39-2.44,.1-.23,.2-.35,.31-.35Zm-1.15,4.76h2.71l1.66-2.28h-3.3c-.49,.89-.98,1.65-1.46,2.28h.39Zm.37,8.29h1.76v-2.77h-1.64c-.01,1.04-.05,1.96-.12,2.77Zm.12-4.02h1.64v-3.01h-1.64v3.01Zm3.04-3.01v3.01h1.56v-3.01h-1.56Zm0,7.03h1.56v-2.77h-1.56v2.77Zm6.56-8.02v-2.89h-1.23v2.89h1.23Zm.33,8.1v-1.56h-1.48v1.56h1.48Zm2.21-8.1v-2.89h-1.23v2.89h1.23Zm1.17,9.17c.33,.48,.59,.92,.8,1.33,.23,.38,.42,.8,.55,1.25,.14-.52,.25-1.35,.33-2.48,.11-1.07,.19-2.82,.25-5.27h-4v1.48h2.54c.22,0,.33,.08,.33,.25v3.2c0,.16-.11,.25-.33,.25h-.47Zm-.51-1.07v-1.56h-1.56v1.56h1.56Zm.08,2.38c-.16-.3-.36-.59-.57-.88,0-.08,.2-.23,.59-.43h-1.66v1.66c.56-.11,1.11-.23,1.64-.35Zm1.83-10.48v-2.89h-1.23v2.89h1.23Z"/>
        <path class="cls-1" d="M135.8,114h2.28v-2.71c0-.4-.03-.7-.08-.9-.05-.16-.08-.3-.08-.41s.14-.16,.41-.16l1.64,.23c.16,.08,.25,.15,.25,.21,0,.12-.08,.18-.25,.18-.27,.1-.41,.41-.41,.94v2.62h1.72c.16,0,.25,.11,.25,.33v.66c0,.23-.08,.35-.25,.35h-1.72v3.94c.53-.31,1.05-.62,1.56-.92,.03-.05,.05-.08,.08-.08,.11,0,.16,.05,.16,.16,0,.7-.03,1.08-.08,1.15-.57,.38-1.15,.75-1.72,1.11v6.6c0,.98-.74,1.48-2.21,1.48h-1.07c-.11,0-.16-.12-.16-.37-.05-.26-.19-.57-.41-.94,0-.11,.05-.16,.16-.16,.48,.11,.92,.16,1.31,.16,.6,0,.9-.24,.9-.72v-5.17l-1.64,.9c-.19,.37-.36,.55-.49,.55s-.41-.57-.82-1.72c.79-.25,1.74-.65,2.85-1.21,.03-.01,.06-.03,.1-.04v-4.72h-2.28c-.18,0-.27-.12-.27-.35v-.66c0-.22,.09-.33,.27-.33Zm7.61,6.97h9.68c.16,0,.25,.11,.25,.33v.66c0,.22-.08,.33-.25,.33h-4.1v4.53h5.41c.16,0,.25,.1,.25,.31v.66c0,.22-.08,.33-.25,.33h-12.47c-.16,0-.25-.11-.25-.33v-.66c0-.21,.08-.31,.25-.31h5.58v-4.53h-4.1c-.16,0-.25-.11-.25-.33v-.66c0-.22,.08-.33,.25-.33Zm4.1-11.24c1.04,0,1.56,.08,1.56,.25,0,.19-.07,.3-.21,.33-.14,.01-.21,.15-.21,.41v1.56h5.17c.23,0,.35,.08,.35,.25v3.79c0,.15-.12,.23-.35,.23h-.82c-.22,0-.33-.08-.33-.23v-2.81h-2.54v3.63c0,.6,.36,.9,1.07,.9h1.07c.34,0,.54-.11,.59-.33,.07-.1,.14-.32,.23-.68,.42,.31,.79,.51,1.09,.59,.15,.03,.23,.14,.23,.33-.12,.48-.27,.81-.45,.98-.15,.26-.55,.39-1.19,.39h-2.3c-1.15,0-1.72-.43-1.72-1.29v-4.53h-5.33v2.81c0,.15-.11,.23-.33,.23h-.82c-.22,0-.33-.08-.33-.23v-3.79c0-.16,.11-.25,.33-.25h4.92v-2.3c0-.16,.11-.25,.33-.25Zm-1.72,3.77l1.23,.55c.16,.08,.25,.17,.25,.27,0,.11-.09,.16-.27,.16-.12,0-.23,.08-.31,.25-.22,.72-.44,1.32-.66,1.78-.29,.67-.63,1.25-1.03,1.74-.36,.42-.74,.81-1.15,1.15-.29,.23-.52,.4-.7,.49-.21,0-.32-.05-.35-.14-.19-.34-.43-.68-.72-1,.36-.19,.71-.42,1.07-.7,.42-.37,.8-.79,1.13-1.25,.36-.45,.66-.98,.9-1.6,.19-.44,.36-.94,.51-1.52,.03-.12,.05-.18,.08-.18Z"/>
        <path class="cls-1" d="M167.46,109.16l1.68,.78c.14,.12,.21,.23,.21,.31,0,.21-.14,.31-.41,.31-.14,0-.25,.01-.35,.04,.94,1.15,1.78,2.04,2.5,2.69,1.03,.92,2.02,1.66,2.99,2.24,1.12,.68,2.22,1.13,3.3,1.35,0,.14-.06,.23-.18,.29-.48,.4-.82,.72-1.03,.98-.05,.08-.17,.12-.35,.12-1.82-.71-3.55-1.8-5.21-3.28-.81-.64-1.87-1.78-3.18-3.42-.66,.77-1.29,1.42-1.89,1.97-.57,.62-1.29,1.24-2.15,1.87-.83,.63-1.67,1.2-2.52,1.72-.83,.49-1.51,.85-2.03,1.07-.14,0-.25-.07-.35-.21-.21-.33-.44-.61-.72-.84-.16-.11-.25-.2-.25-.27,0-.04,.05-.08,.16-.12,1.19-.44,2.17-.88,2.93-1.31,1.09-.6,2.18-1.37,3.26-2.3,.72-.6,1.32-1.18,1.78-1.74,.52-.6,.98-1.26,1.39-1.99,.16-.16,.29-.25,.39-.25Zm-4.02,7.71c1.26,.18,1.89,.29,1.89,.35,0,.14-.06,.22-.18,.25-.15,.1-.23,.29-.23,.57v2.11c0,.71-.07,1.5-.21,2.38-.14,.92-.44,1.76-.9,2.52-.42,.72-.98,1.38-1.68,1.97-.52,.49-1.34,1.03-2.46,1.6-.08,0-.16-.07-.23-.21-.23-.22-.48-.41-.74-.57-.12-.07-.18-.14-.18-.21,1.22-.64,2.05-1.16,2.5-1.56,.52-.45,.94-.95,1.27-1.5,.36-.55,.64-1.26,.84-2.15,.15-.74,.23-1.5,.23-2.28v-3.01c0-.18,.03-.27,.08-.27Zm7.22,.08c1.09,0,1.64,.09,1.64,.27s-.07,.27-.21,.29c-.14,.03-.21,.18-.21,.45v10.58c0,.15-.13,.23-.39,.23h-.84c-.22,0-.33-.08-.33-.23v-11.32c0-.18,.11-.27,.33-.27Z"/>
        <path class="cls-1" d="M180.95,110.47h18.38c.15,0,.23,.11,.23,.33v.66c0,.22-.08,.33-.23,.33h-8.96c-.44,.93-.93,1.84-1.48,2.73h9.11c.22,0,.33,.08,.33,.23v13.72c0,.15-.11,.23-.33,.23h-.82c-.22,0-.33-.08-.33-.23v-1.25h-13.37v1.25c0,.15-.11,.23-.33,.23h-.82c-.22,0-.33-.08-.33-.23v-13.64c0-.21,.11-.31,.33-.31h4.7c.44-.56,.78-1.05,1.03-1.46,.22-.34,.44-.77,.66-1.27h-7.75c-.18,0-.27-.11-.27-.33v-.66c0-.22,.09-.33,.27-.33Zm2.52,15.44h3.04v-10.11h-3.04v10.11Zm4.51-7.65h4.35v-2.46h-4.35v2.46Zm0,3.86h4.35v-2.54h-4.35v2.54Zm0,3.79h4.35v-2.48h-4.35v2.48Zm5.82,0h3.04v-10.11h-3.04v10.11Z"/>
        <path class="cls-1" d="M214.33,116.54v2.3c0,1.04-.22,1.94-.66,2.71-.45,.77-.98,1.26-1.58,1.48l-.82-.82c.38-.15,.73-.44,1.05-.88,.33-.41,.51-.94,.53-1.58h-1.66v-3.2h3.14Z"/>
        <path class="cls-1" d="M231.82,111.21c-.05,0-.15,.03-.29,.1-.78,.29-1.7,.53-2.75,.74v2.28h3.28c.16,0,.25,.11,.25,.33v.68c0,.21-.08,.31-.25,.31h-3.28v2.71h3.36c.16,0,.25,.11,.25,.33v.66c0,.22-.08,.33-.25,.33h-3.36v2.81h4.59v-4.51c0-.12,.11-.18,.33-.18,.88,0,1.31,.06,1.31,.18,0,.16-.05,.25-.16,.27s-.16,.14-.16,.37v3.88h1.64v-5.68h-2.54c-.22,0-.33-.11-.33-.33v-6.64c0-.11,.11-.16,.33-.16,.88,0,1.31,.05,1.31,.16,0,.18-.05,.27-.16,.29s-.16,.14-.16,.37v1.64h2.79c.11,0,.16,.08,.16,.25v.66c0,.22-.05,.33-.16,.33h-2.79v2.15h2.62c.22,0,.33,.08,.33,.23v6.75h4.02v-2.81h-3.12c-.16,0-.25-.11-.25-.33v-.66c0-.22,.08-.33,.25-.33h3.12v-2.71h-3.12c-.16,0-.25-.1-.25-.31v-.68c0-.22,.08-.33,.25-.33h3.12v-2.62h-3.2c-.16,0-.25-.11-.25-.33v-.82c0-.16,.08-.25,.25-.25h4.35c.22,0,.33,.08,.33,.25v11.92h1.31c.16,0,.25,.1,.25,.31v.66c0,.22-.08,.33-.25,.33h-18.62c-.16,0-.25-.11-.25-.33v-.66c0-.21,.08-.31,.25-.31h1.39v-11.83c0-.16,.08-.25,.25-.25l.96,.39c.53-.1,.96-.2,1.29-.31,.64-.19,1.2-.42,1.68-.7,.12-.08,.21-.12,.25-.12,.55,.89,.82,1.41,.82,1.56,0,.11-.05,.16-.16,.16l-.57-.16Zm-.08,12.8l1.54,.72c.12,.11,.18,.21,.18,.29,0,.15-.14,.23-.41,.23-.22,0-.38,.05-.49,.14-.44,.49-.86,.9-1.27,1.23-.3,.29-.67,.57-1.11,.86-.44,.3-.88,.57-1.31,.8s-.79,.4-1.07,.49c-.14,0-.25-.06-.33-.18-.16-.29-.37-.53-.62-.74-.14-.08-.21-.15-.21-.21,0-.03,.03-.05,.08-.06,.6-.22,1.11-.43,1.52-.64,.55-.29,1.1-.64,1.66-1.07,.37-.29,.67-.56,.9-.82,.26-.29,.51-.59,.74-.92,.07-.08,.13-.12,.18-.12Zm7.38,0c.72,.93,1.39,1.61,2.01,2.03,.93,.72,1.9,1.26,2.91,1.6,0,.08-.33,.46-.98,1.13-1.07-.4-1.96-.89-2.67-1.48-.82-.6-1.63-1.36-2.42-2.28,0-.12,.38-.46,1.15-1Z"/>
        <path class="cls-1" d="M257.59,109.65c1.05,0,1.58,.08,1.58,.25,0,.19-.08,.3-.23,.33-.14,.01-.21,.15-.21,.41v1.15h8.2c.16,0,.25,.11,.25,.33v.68c0,.21-.08,.31-.25,.31h-18.21c-.16,0-.25-.1-.25-.31v-.68c0-.22,.08-.33,.25-.33h8.53v-1.89c0-.16,.11-.25,.33-.25Zm-7.79,10.19h15.91c.27,0,.41,.1,.41,.31v7.69c0,.3-.25,.55-.74,.74-.46,.14-1.07,.23-1.8,.27-.15,0-.24-.08-.27-.23-.01-.3-.17-.75-.47-1.33,0-.03,.05-.04,.14-.04,.79,0,1.26-.03,1.39-.1,.18-.05,.27-.16,.27-.31v-5.7h-13.7v7.32c0,.15-.11,.23-.33,.23h-.82c-.22,0-.33-.08-.33-.23v-8.31c0-.21,.11-.31,.33-.31Zm2.62-5.52h10.75c.22,0,.33,.09,.33,.27v3.83c0,.16-.11,.25-.33,.25h-10.75c-.22,0-.33-.08-.33-.25v-3.83c0-.18,.11-.27,.33-.27Zm1.39,8.2h8.37c.22,0,.33,.08,.33,.25v3.69c0,.18-.11,.27-.33,.27h-8.37c-.22,0-.33-.09-.33-.27v-3.69c0-.16,.11-.25,.33-.25Zm8.2-5.17v-1.72h-8.45v1.72h8.45Zm-.98,8.12v-1.72h-6.07v1.72h6.07Z"/>
        <path class="cls-1" d="M273.69,114.65l1.15,.88c.11,.11,.16,.2,.16,.27s-.04,.11-.12,.12c-.14,.03-.23,.08-.29,.16-.31,.66-.65,1.24-1,1.76-.44,.6-.98,1.2-1.62,1.8-.18,0-.29-.05-.33-.16-.3-.21-.55-.4-.74-.57-.11-.04-.16-.1-.16-.16,0-.04,.02-.08,.06-.12,.31-.18,.57-.38,.78-.59,.42-.45,.79-.95,1.11-1.5,.29-.46,.59-1.04,.9-1.72,.03-.11,.06-.16,.1-.16Zm3.86,2.95c1.2,.42,1.8,.7,1.8,.82,0,.11-.08,.19-.23,.25-.22,0-.38,.11-.47,.33-.36,1.15-.75,2.2-1.19,3.16,.33,.45,.64,.92,.92,1.42,.52,.78,.96,1.59,1.33,2.42,.03,.08,.04,.16,.04,.23,0,.08-.33,.33-.98,.74-.05,0-.11-.03-.16-.1-.59-1.26-1.21-2.35-1.87-3.28-.44,.75-.9,1.42-1.37,2.01-.86,1.04-1.91,2-3.14,2.87-.12,.05-.24,.08-.35,.08-.15,0-.27-.09-.37-.27-.15-.21-.32-.38-.51-.53-.12-.07-.18-.16-.18-.29,0-.05,.05-.1,.14-.14,.46-.18,.92-.46,1.37-.86,.77-.56,1.45-1.22,2.05-1.99,.51-.6,.97-1.33,1.39-2.19l-.45-.49c-.62-.64-1.27-1.29-1.97-1.93-.05-.08-.08-.14-.08-.18,0-.05,.23-.35,.7-.88,.08-.07,.18-.1,.29-.1,.57,.48,1.18,1.07,1.8,1.76,.11,.14,.22,.27,.33,.39,.38-.92,.68-1.91,.88-2.99,.03-.15,.12-.23,.27-.23Zm-1.8-8.04c1.04,0,1.56,.08,1.56,.25,0,.19-.07,.3-.21,.33-.14,.01-.21,.15-.21,.41v1.97h3.86c.16,0,.25,.12,.25,.35v.64c0,.22-.08,.33-.25,.33h-9.6c-.16,0-.25-.11-.25-.33v-.64c0-.23,.08-.35,.25-.35h4.27v-2.71c0-.16,.11-.25,.33-.25Zm2.38,5.02c.68,.68,1.24,1.33,1.66,1.93,.51,.74,.94,1.4,1.29,1.99,0,.03-.03,.08-.1,.16-.4,.6-.61,.9-.64,.9-.55-.94-1.13-1.8-1.76-2.58-.51-.64-.93-1.09-1.27-1.35,0-.07,.21-.38,.64-.92,.07-.08,.13-.12,.18-.12Zm5.58-4.94l1.42,.55c.15,.11,.23,.2,.23,.27,0,.12-.05,.21-.16,.25-.15,0-.25,.09-.29,.27-.21,.74-.4,1.37-.57,1.89h5.46c.16,0,.25,.1,.25,.31v.66c0,.22-.08,.33-.25,.33h-1.17c-.08,2.72-.27,4.72-.57,5.99-.38,1.67-.9,3.07-1.56,4.2,.49,.71,1,1.29,1.52,1.72,.67,.62,1.46,1.1,2.36,1.46,0,.14-.07,.24-.21,.31-.26,.26-.51,.53-.76,.82-.12,.12-.21,.18-.27,.18-1.22-.74-2.01-1.31-2.38-1.72-.46-.4-.88-.88-1.25-1.46-.42,.48-.89,.91-1.39,1.29-.79,.66-1.83,1.26-3.1,1.8-.37-.38-.7-.73-.98-1.05,.67-.23,1.46-.68,2.36-1.33,.92-.64,1.67-1.35,2.28-2.11-.25-.45-.46-.94-.66-1.46-.37-.86-.67-1.93-.9-3.2-.18-1.01-.27-2.19-.29-3.53-.29,.44-.59,.83-.9,1.19-.18,0-.33-.02-.45-.06-.26-.1-.53-.2-.82-.31-.08-.04-.12-.08-.12-.12,0-.07,.02-.12,.06-.16,.6-.67,1.13-1.49,1.6-2.46,.29-.56,.53-1.16,.74-1.78,.23-.67,.46-1.52,.68-2.56,.04-.11,.08-.16,.12-.16Zm-.76,6.23h1.25c.01,1.3,.11,2.45,.29,3.47,.19,.97,.45,1.88,.78,2.73,.1,.23,.19,.46,.29,.68,.44-.9,.77-1.87,.98-2.89,.33-1.27,.53-3.17,.62-5.7h-3.34c-.26,.57-.53,1.12-.8,1.64-.03,.03-.05,.05-.06,.08Z"/>
        <path class="cls-1" d="M293.88,123.51h8.29v-1.31c0-.16,.11-.25,.33-.25,1.04,0,1.56,.08,1.56,.25,0,.19-.07,.3-.21,.33-.14,.01-.21,.15-.21,.41v.57h8.45c.16,0,.25,.11,.25,.33v.66c0,.22-.08,.33-.25,.33h-8.45v3.71c0,.15-.11,.23-.33,.23h-.82c-.22,0-.33-.08-.33-.23v-3.71h-8.29c-.16,0-.25-.11-.25-.33v-.66c0-.22,.08-.33,.25-.33Zm4.51-5.66c.05,0,.1,.05,.12,.16,.3,.67,.45,1.03,.45,1.07,0,.07-.04,.12-.12,.16-.68,.83-1.33,1.54-1.95,2.13-.34,.34-.75,.71-1.23,1.11-.1,.1-.14,.22-.14,.37,0,.16-.05,.25-.16,.25-.1,0-.49-.39-1.19-1.17-.05-.04-.1-.12-.12-.23,0-.05,.03-.1,.1-.14,.41-.22,.81-.49,1.21-.8,.57-.44,1.13-.94,1.68-1.5,.46-.48,.88-.92,1.23-1.31,.04-.07,.08-.1,.12-.1Zm4.27-8.12c1.04,0,1.56,.08,1.56,.25,0,.19-.07,.3-.21,.33-.14,.01-.21,.15-.21,.41v1.07h7.63c.16,0,.25,.11,.25,.33v.68c0,.21-.08,.31-.25,.31h-16.9c-.16,0-.25-.1-.25-.31v-.68c0-.22,.08-.33,.25-.33h7.79v-1.8c0-.16,.11-.25,.33-.25Zm-7.22,3.77c.67,.4,1.21,.77,1.62,1.11,.49,.4,.91,.77,1.25,1.11,0,.03-.03,.09-.1,.18-.4,.59-.61,.88-.64,.88-.53-.53-1.11-1.01-1.72-1.44-.49-.37-.9-.62-1.23-.76,0-.08,.21-.39,.64-.92,.07-.11,.13-.16,.18-.16Zm7.05-.33l1.54,.84c.07,.14,.1,.21,.1,.23,0,.14-.1,.21-.31,.21-.31,0-.51,.07-.59,.21-.56,.82-1.09,1.57-1.6,2.26,.34,.33,.7,.68,1.07,1.07,.19-.22,.36-.41,.51-.57,.83-.9,1.52-1.71,2.07-2.42,.98,.79,1.48,1.24,1.48,1.33,0,.07-.09,.1-.27,.1-.34,0-.55,.04-.64,.12-1.19,1.29-2.38,2.47-3.57,3.57,.96-.08,2.08-.18,3.38-.31-.21-.37-.44-.75-.72-1.13,0-.08,.36-.29,1.07-.64,.52,.77,.94,1.47,1.27,2.11,.3,.59,.56,1.22,.78,1.89,0,.05-.44,.2-1.31,.43-.08-.44-.27-.97-.55-1.6-.03-.05-.05-.12-.08-.18l-6.58,1.35c-.34,.38-.53,.57-.57,.57-.05,0-.19-.65-.41-1.95,0-.1,.61-.21,1.83-.35,.62-.62,1.17-1.18,1.66-1.68-.66-.52-1.16-.9-1.5-1.13-.52-.33-1.07-.62-1.66-.88,0-.11,.27-.45,.8-1.03,.05-.07,.12-.1,.18-.1,.27,.18,.55,.38,.82,.59,.3-.41,.57-.81,.8-1.21,.46-.75,.8-1.32,1-1.7Zm7.38,.33l1.25,.51c.21,.1,.31,.2,.31,.31,0,.08-.08,.14-.25,.18-.22,0-.35,.05-.39,.16-.59,.88-1.18,1.55-1.76,2.03-.12,.11-.23,.16-.31,.16-.1,0-.21-.04-.35-.12-.27-.12-.54-.24-.8-.35-.11-.04-.16-.07-.16-.08,0-.04,.03-.09,.08-.14,.56-.44,.98-.83,1.27-1.17,.4-.44,.7-.87,.9-1.29,.07-.14,.14-.21,.21-.21Zm-.74,4.61c.67,.81,1.21,1.55,1.62,2.24,.4,.63,.73,1.31,1,2.03,0,.04-.46,.17-1.39,.39-.11-.45-.36-1-.74-1.66-.41-.75-.96-1.5-1.64-2.26,0-.12,.38-.37,1.15-.74Z"/>
        <path class="cls-1" d="M323.84,116.13c1.8,1.42,3.36,2.89,4.66,4.41l-1.37,1.42c-1.31-1.85-2.76-3.51-4.35-5l1.07-.82Z"/>
        <path class="cls-1" d="M343.3,109.65c1.15,.6,1.72,.96,1.72,1.07,0,.12-.05,.18-.16,.18-.25,.01-.41,.1-.49,.25-.55,1.49-1.09,2.73-1.64,3.71v13.6c0,.15-.11,.23-.33,.23h-.8c-.23,0-.35-.08-.35-.23v-11.36c-.4,.51-.89,1.12-1.48,1.85-.15,0-.29-.08-.43-.23-.19-.16-.41-.33-.66-.51-.1-.07-.14-.15-.14-.25,.55-.66,1.1-1.34,1.66-2.05,.71-.93,1.33-1.96,1.85-3.1,.48-1.03,.84-2.02,1.09-2.99,.03-.11,.08-.16,.16-.16Zm12.22,1.56c-.14,0-.27,.03-.39,.08-.79,.38-1.65,.7-2.58,.94-.04,.08-.06,.18-.06,.29,0,1.63,.03,3.05,.1,4.27h4.49c.18,0,.27,.12,.27,.35v.64c0,.23-.09,.35-.27,.35h-4.41c.05,.71,.13,1.34,.23,1.89,.19,1.39,.46,2.62,.82,3.67,.41,1.12,.89,1.98,1.44,2.56,.36,.38,.64,.57,.86,.57,.1,0,.18-.21,.27-.64,.1-.38,.18-1.13,.25-2.24,.01-.07,.03-.1,.06-.1,.08,0,.16,.04,.25,.12,.25,.11,.48,.25,.7,.41,.19,.11,.29,.18,.29,.21-.31,1.52-.58,2.5-.8,2.95-.15,.31-.29,.54-.43,.68-.19,.16-.36,.25-.49,.25-.42,0-.88-.18-1.37-.53-.66-.57-1.22-1.29-1.68-2.13-.48-1-.89-2.17-1.23-3.53-.29-1.31-.49-2.58-.59-3.81-.03-.11-.04-.22-.04-.33h-4.33v6.21l.08-.04c1.34-.42,2.6-.88,3.79-1.37,.04-.04,.08-.06,.12-.06,.11,0,.16,.08,.16,.25,0,.66-.03,1.02-.08,1.09-2.04,.78-4.12,1.48-6.23,2.11-.19,.4-.35,.59-.47,.59-.14,0-.39-.55-.76-1.66,.57-.11,1.2-.27,1.89-.47v-13.23c0-.16,.08-.25,.25-.25l.98,.39c1.75-.04,3.15-.16,4.2-.35,1.44-.23,2.73-.66,3.88-1.29,.15-.1,.27-.14,.37-.14,.08,0,.16,.04,.25,.12,.66,.56,.98,.94,.98,1.13,0,.21-.08,.31-.25,.31l-.49-.25Zm-9.52,15.61h6.48c.16,0,.25,.1,.25,.31v.66c0,.22-.08,.33-.25,.33h-6.48c-.16,0-.25-.11-.25-.33v-.66c0-.21,.08-.31,.25-.31Zm5.09-10.03c-.05-1.18-.08-2.58-.08-4.22-1.35,.23-2.74,.36-4.16,.37v3.86h4.25Z"/>
        <path class="cls-1" d="M369.24,111.54c-.75,.52-1.68,.94-2.79,1.25v2.11h2.71c.18,0,.27,.11,.27,.33v.66c0,.23-.09,.35-.27,.35h-2.71v2.19h3.28c.16,0,.25,.11,.25,.33v.66c0,.23-.08,.35-.25,.35h-3.18c.62,1.09,1.13,1.87,1.54,2.34,.59,.75,1.3,1.45,2.13,2.09,0,.14-.05,.24-.14,.31-.21,.18-.49,.42-.84,.74-.04,0-.09-.03-.14-.08-.49-.36-.96-.82-1.39-1.39-.38-.52-.8-1.16-1.25-1.93v6.71c0,.15-.11,.23-.33,.23h-.82c-.22,0-.33-.08-.33-.23v-5.74c-.36,.64-.73,1.23-1.13,1.76-.48,.68-1.03,1.32-1.66,1.91-.16,0-.28-.03-.35-.1-.31-.15-.63-.29-.94-.43-.12,0-.18-.03-.18-.1,.86-.77,1.55-1.5,2.07-2.21,.52-.68,.92-1.35,1.21-1.99,.23-.42,.49-1.05,.78-1.87h-3.32c-.16,0-.25-.12-.25-.35v-.66c0-.22,.08-.33,.25-.33h3.53v-2.19h-2.87c-.16,0-.25-.12-.25-.35v-.66c0-.22,.08-.33,.25-.33h2.87v-1.76c-.96,.19-1.94,.29-2.95,.29-.18,0-.29-.09-.35-.27-.16-.33-.32-.59-.47-.8,0-.22,.08-.33,.25-.33,1.57,0,2.75-.08,3.53-.25v-1.89c0-.16,.11-.25,.33-.25,1.04,0,1.56,.08,1.56,.25,0,.19-.07,.3-.21,.33-.14,.01-.21,.15-.21,.41v.8c.75-.26,1.44-.65,2.05-1.17,.11-.07,.22-.1,.33-.1,.08,0,.18,.05,.29,.14,.57,.66,.86,1.01,.86,1.07,0,.16-.05,.25-.16,.25l-.57-.08Zm9.27-.25c-.98,.68-2.26,1.22-3.83,1.6v2.6l4.49-.84c.16,0,.25,.08,.25,.25v.82c0,.22-.08,.33-.25,.33l-4.49,.82v3.63l5.31-1.09c.16,0,.25,.08,.25,.25v.82c0,.22-.08,.33-.25,.33l-5.31,1.09v4.57c0,.6,.38,.9,1.13,.9h1.39c.74,0,1.18-.12,1.31-.35,.18-.19,.4-.95,.66-2.28,.19,.29,.49,.55,.88,.78,.18,.07,.27,.17,.27,.31-.37,1.48-.64,2.29-.82,2.44-.19,.33-.6,.49-1.23,.49h-2.62c-1.64,0-2.46-.49-2.46-1.48v-5.11l-2.87,.59c-.16,0-.25-.1-.25-.31v-.82c0-.18,.08-.27,.25-.27l2.87-.57v-3.65l-2.54,.45c-.16,0-.25-.11-.25-.33v-.82c0-.15,.08-.23,.25-.23l2.54-.49v-2.58c-.81,.12-1.63,.18-2.46,.18-.18,0-.29-.09-.35-.27-.16-.33-.32-.59-.47-.8,0-.21,.08-.31,.25-.31,1.96,0,3.34-.12,4.16-.37,1.33-.22,2.47-.75,3.45-1.58,.11-.08,.23-.12,.35-.12,.08,0,.18,.05,.29,.14,.57,.67,.86,1.04,.86,1.11,0,.15-.05,.23-.16,.23l-.57-.08Z"/>
        <path class="cls-1" d="M384.51,114h2.3v-2.93c0-.41-.02-.72-.06-.92-.07-.16-.1-.3-.1-.41s.14-.16,.41-.16l1.66,.23c.15,.07,.23,.13,.23,.18,0,.14-.08,.21-.25,.21-.27,.11-.41,.43-.41,.96v2.85h2.13c.16,0,.25,.11,.25,.33v.66c0,.23-.08,.35-.25,.35h-2.13v4.12c.62-.3,1.2-.62,1.76-.96,.04-.04,.08-.06,.12-.06,.11,0,.16,.05,.16,.16,0,.7-.03,1.09-.08,1.17-.66,.37-1.31,.73-1.97,1.09v6.19c0,1-.77,1.5-2.3,1.5h-1.56c-.11,0-.16-.12-.16-.37-.05-.26-.19-.58-.41-.96,0-.11,.05-.16,.16-.16,.67,.11,1.27,.16,1.8,.16,.66,0,.98-.25,.98-.74v-4.84c-.68,.34-1.37,.67-2.05,.98-.19,.4-.36,.59-.49,.59s-.41-.57-.82-1.72c.88-.26,1.92-.67,3.14-1.23,.08-.03,.16-.05,.23-.08v-4.84h-2.3c-.16,0-.25-.12-.25-.35v-.66c0-.22,.08-.33,.25-.33Zm7.38,2.46h9.84c.22,0,.33,.08,.33,.25v8.86c0,.18-.11,.27-.33,.27h-2.17c.44,.36,.85,.66,1.25,.92,.41,.25,1.03,.53,1.85,.84,.1,.08,.14,.14,.14,.18,0,.12-.3,.48-.9,1.07-.04,0-.11-.01-.21-.04-1.52-.79-2.64-1.55-3.36-2.28-.08-.07-.12-.12-.12-.14,0-.08,.15-.27,.45-.55h-3.42l.59,.43c.11,.11,.16,.21,.16,.29,0,.04-.05,.06-.16,.06-.18,.03-.32,.07-.43,.12-.44,.38-.92,.73-1.44,1.05-.6,.36-1.37,.71-2.32,1.07-.16,0-.27-.05-.33-.16-.3-.22-.55-.41-.74-.57-.11-.04-.16-.1-.16-.16,0-.03,.03-.05,.1-.08,.45-.1,.81-.23,1.09-.39,.63-.26,1.18-.57,1.64-.92,.3-.21,.62-.44,.94-.72h-2.3c-.22,0-.33-.09-.33-.27v-8.86c0-.16,.11-.25,.33-.25Zm.66-6.15h8.37c.22,0,.33,.08,.33,.25v4.35c0,.16-.11,.25-.33,.25h-8.37c-.22,0-.33-.08-.33-.25v-4.35c0-.16,.11-.25,.33-.25Zm.49,8.86h7.55v-1.48h-7.55v1.48Zm0,2.71h7.55v-1.48h-7.55v1.48Zm7.55,2.71v-1.48h-7.55v1.48h7.55Zm-.82-10.75v-2.21h-6.07v2.21h6.07Z"/>
        <path class="cls-1" d="M4.92,145.73l1.21,.29c.18,.04,.27,.14,.27,.29,0,.21-.1,.31-.31,.31-.12,.04-.21,.13-.27,.27-.4,.93-.8,1.75-1.21,2.46h3.26c.23,0,.35,.09,.35,.27v13.92c0,.16-.12,.25-.35,.25h-.82c-.22,0-.33-.08-.33-.25v-1.07H2.3v1.64c0,.16-.11,.25-.33,.25h-.82c-.22,0-.33-.08-.33-.25v-14.42c0-.23,.11-.35,.33-.35h1.89c.55-.93,1.09-2.08,1.64-3.45,.04-.11,.12-.16,.25-.16Zm-2.62,9.43H6.73v-4.51H2.3v4.51Zm0,5.99H6.73v-4.68H2.3v4.68Zm10.25-15.59l1.42,.55c.15,.11,.23,.2,.23,.27,0,.12-.05,.21-.16,.25-.18,0-.29,.08-.33,.25-.3,.92-.57,1.65-.8,2.21h5.15c.27,0,.41,.14,.41,.41,0,4.79-.08,8.09-.25,9.93-.16,1.63-.42,2.79-.78,3.49-.27,.63-.65,1.02-1.13,1.17-.59,.25-1.37,.37-2.36,.37-.88,0-1.33-.14-1.35-.43-.05-.36-.15-.71-.29-1.07,0-.1,.03-.14,.08-.14l.16,.02c.4,.04,.75,.06,1.07,.06,1.03,0,1.73-.15,2.11-.45,.41-.31,.7-1.2,.88-2.65,.22-1.5,.34-4.63,.37-9.39h-4.74c-.23,.42-.48,.84-.74,1.25-.38,.53-.8,1.03-1.25,1.48-.16,0-.31-.02-.45-.06-.26-.12-.53-.23-.82-.33-.08-.04-.12-.08-.12-.12,0-.07,.03-.12,.08-.16,.7-.66,1.31-1.46,1.85-2.42,.33-.56,.61-1.15,.84-1.76,.27-.66,.53-1.5,.76-2.54,.04-.11,.1-.16,.16-.16Zm-.66,8.55c.14,0,.22,.02,.25,.06,.78,1.29,1.49,2.65,2.13,4.1,0,.21-.05,.31-.14,.33-.49,.33-.88,.49-1.17,.49-.68-1.75-1.34-3.2-1.97-4.35,0-.15,.3-.36,.9-.64Z"/>
        <path class="cls-1" d="M26.43,145.49c1.31,.42,1.97,.7,1.97,.82,0,.15-.1,.23-.29,.23s-.29,.06-.29,.18c-.4,.74-.91,1.56-1.54,2.46-.19,.31-.39,.61-.59,.88,1.59-.15,3.19-.35,4.8-.59-.22-.62-.48-1.23-.78-1.85,0-.08,.36-.29,1.09-.64,.44,.96,.8,1.84,1.09,2.65,.27,.72,.51,1.5,.7,2.34,0,.05-.44,.2-1.31,.43-.05-.45-.17-.98-.35-1.6-2.06,.33-4.34,.63-6.83,.9-.11,0-.21,.06-.29,.18-.05,.23-.16,.35-.33,.35s-.52-.64-1.07-1.91l1.64-.12c.6-.96,1.16-1.96,1.66-2.99,.25-.56,.44-1.11,.57-1.64,.01-.05,.06-.08,.14-.08Zm-2.3,7.46h7.05c.27,0,.41,.11,.41,.33v9.99c0,.42-.28,.75-.84,.98-.51,.18-1.18,.3-2.03,.37-.15,0-.24-.09-.27-.27-.01-.29-.17-.72-.47-1.31,0-.04,.06-.06,.18-.06,.93,0,1.48-.05,1.64-.14,.21-.08,.31-.23,.31-.45v-1.37h-4.84v3.45c0,.15-.11,.23-.33,.23h-.82c-.22,0-.33-.08-.33-.23v-11.18c0-.22,.11-.33,.33-.33Zm1.15,3.36h4.84v-2.05h-4.84v2.05Zm0,3.36h4.84v-2.03h-4.84v2.03Zm15.42-11.32s-.05,.01-.08,.04c-.44,.3-.93,.58-1.48,.84-.64,.31-1.34,.59-2.09,.82-.51,.16-1.15,.33-1.93,.51v1.48c0,.6,.38,.9,1.15,.9h2.21c.79,0,1.26-.1,1.42-.29,.19-.15,.43-.74,.72-1.76,.18,.29,.47,.55,.88,.78,.18,.07,.27,.16,.27,.29-.4,1.19-.7,1.85-.9,1.99-.19,.26-.63,.39-1.31,.39h-3.45c-1.64,0-2.46-.49-2.46-1.48v-7.05c0-.16,.05-.25,.16-.25l1.39,.18c.16,.03,.25,.08,.25,.14,0,.15-.04,.24-.12,.27-.14,.01-.21,.09-.21,.23v2.85c.64-.15,1.23-.31,1.76-.49,.71-.25,1.37-.55,1.99-.92,.46-.27,.88-.58,1.23-.92,.04-.01,.08-.02,.1-.02,.07,0,.15,.07,.25,.21,.6,.74,.9,1.13,.9,1.19,0,.11-.05,.16-.16,.16l-.49-.08Zm.25,9.84s-.08,0-.1,.02c-.45,.3-.96,.57-1.52,.82-.67,.31-1.39,.58-2.17,.8-.53,.16-1.21,.33-2.03,.49v1.8c0,.6,.38,.9,1.15,.9h2.21c.79,0,1.26-.1,1.42-.29,.19-.18,.43-.82,.72-1.93,.18,.29,.47,.55,.88,.78,.18,.07,.27,.17,.27,.31-.4,1.26-.7,1.96-.9,2.08-.19,.3-.63,.44-1.31,.44h-3.45c-1.64,0-2.46-.49-2.46-1.48v-7.46c0-.16,.05-.25,.16-.25l1.39,.18c.16,.01,.25,.06,.25,.14,0,.15-.04,.24-.12,.27-.14,.01-.21,.09-.21,.23v2.93c.68-.15,1.31-.31,1.89-.47,.72-.25,1.41-.54,2.05-.88,.48-.27,.91-.57,1.29-.9h.1c.08,0,.16,.06,.23,.18,.62,.74,.92,1.13,.92,1.19,0,.11-.05,.16-.16,.16l-.49-.08Z"/>
        <path class="cls-1" d="M45.72,151.41c.7,.31,1.27,.62,1.72,.92,.52,.34,.96,.66,1.31,.94,0,.03-.04,.09-.12,.18-.45,.64-.68,.96-.7,.96-.56-.48-1.16-.9-1.78-1.27-.51-.33-.92-.56-1.25-.7,0-.07,.22-.38,.66-.92,.07-.08,.12-.12,.16-.12Zm2.95,4.66c.07,0,.11,.06,.12,.18,.36,.75,.53,1.16,.53,1.23,0,.1-.03,.19-.08,.29-.55,1.52-1.07,2.82-1.56,3.9-.26,.6-.58,1.26-.96,1.99-.07,.18-.1,.41-.1,.7,0,.18-.05,.27-.16,.27s-.55-.44-1.33-1.33c-.07-.04-.12-.12-.14-.25,0-.1,.03-.18,.08-.27,.36-.38,.7-.86,1.05-1.44,.48-.81,.95-1.71,1.42-2.71,.41-.88,.75-1.67,1.03-2.4,.04-.11,.08-.16,.12-.16Zm-1.48-10.17c.66,.33,1.19,.62,1.6,.88,.51,.34,.93,.65,1.27,.92,0,.03-.03,.1-.1,.21-.45,.64-.69,.96-.72,.96-.52-.46-1.07-.89-1.66-1.27-.49-.29-.9-.49-1.21-.62,0-.1,.21-.41,.64-.94,.07-.1,.13-.14,.18-.14Zm5.41,1.8v4.61c0,2.53-.17,4.54-.51,6.03-.22,1.24-.65,2.48-1.29,3.71-.36,.74-.85,1.45-1.48,2.13-.1,0-.16-.01-.21-.04-.23-.21-.49-.39-.76-.55-.07-.08-.1-.18-.1-.31,.59-.63,1.11-1.49,1.56-2.58,.46-1.15,.8-2.34,1-3.59,.21-1.33,.31-2.93,.31-4.8v-5.6c0-.22,.11-.33,.33-.33h12.22c.16,0,.25,.11,.25,.33v.66c0,.22-.08,.33-.25,.33h-4.02l.12,.06c.19,.11,.29,.23,.29,.35,0,.08-.1,.12-.31,.12-.14,.01-.64,.55-1.5,1.6h4.43c.22,0,.33,.08,.33,.25v7.57c0,.15-.11,.23-.33,.23h-3.45v5.17c0,1.05-.85,1.58-2.54,1.58h-1.07c-.1,0-.14-.14-.14-.41-.03-.3-.14-.66-.35-1.09v-.08c.51,.11,1,.16,1.48,.16,.77,0,1.15-.25,1.15-.74v-4.59h-3.53c-.22,0-.33-.08-.33-.23v-7.57c0-.16,.11-.25,.33-.25h2.3c.51-.67,.97-1.38,1.39-2.13h-5.33Zm2.3,11.07l1.37,.68c.12,.08,.18,.16,.18,.23,0,.16-.11,.25-.33,.25-.14,0-.23,.05-.29,.16-.25,.46-.49,.86-.72,1.19-.19,.26-.41,.54-.66,.84-.26,.27-.51,.53-.76,.78-.26,.22-.46,.38-.62,.47-.12,0-.22-.06-.29-.18-.16-.26-.36-.49-.57-.68-.14-.08-.21-.15-.21-.21,0-.01,.01-.03,.04-.06,.36-.19,.64-.39,.86-.59,.31-.27,.62-.62,.92-1.05,.22-.27,.4-.54,.53-.8,.15-.27,.28-.58,.39-.92,.05-.07,.1-.1,.12-.1Zm.49-5.56h6.15v-2.15h-6.15v2.15Zm6.15,3.45v-2.24h-6.15v2.24h6.15Zm0,2.28c.12,0,.21,.03,.25,.08,.89,1.11,1.68,2.28,2.38,3.53,0,.21-.04,.32-.12,.35-.51,.31-.9,.47-1.19,.47-.78-1.5-1.52-2.76-2.21-3.77,0-.14,.3-.36,.9-.66Z"/>
        <path class="cls-1" d="M77.08,147.06c-.08,0-.2,.02-.35,.06-.57,.23-1.26,.44-2.07,.64-.15,.05-.3,.1-.45,.12v3.67h3.94c.16,0,.25,.11,.25,.33v.66c0,.22-.08,.33-.25,.33h-3.71c.42,.89,.81,1.6,1.17,2.13,.46,.72,1.25,1.56,2.36,2.5,.12,.05,.18,.12,.18,.21,0,.05-.05,.12-.14,.18-.15,.19-.36,.4-.62,.64-.08,.11-.16,.16-.23,.16-.08,0-.21-.04-.37-.12-.75-.71-1.42-1.52-1.99-2.42-.21-.33-.4-.67-.59-1.03v9.33c0,.15-.11,.23-.33,.23h-.82c-.22,0-.33-.08-.33-.23v-8.7c-.08,.15-.16,.29-.23,.41-.48,.82-1,1.59-1.56,2.32-.63,.75-1.26,1.39-1.91,1.93-.16,0-.29-.04-.37-.12-.26-.26-.53-.5-.8-.72-.04-.1-.06-.16-.06-.21,.6-.45,1.1-.89,1.5-1.31,.56-.56,1.15-1.31,1.76-2.26,.37-.59,.88-1.57,1.52-2.93h-4.45c-.16,0-.25-.11-.25-.33v-.66c0-.22,.08-.33,.25-.33h4.59v-3.38c-.25,.04-.49,.08-.72,.1-.97,.11-1.85,.16-2.65,.16-.23,0-.38-.1-.45-.29-.18-.26-.38-.55-.62-.86,0-.15,.08-.23,.25-.23h1.23c.98,0,1.84-.06,2.56-.18,.66-.05,1.31-.18,1.95-.37,.75-.19,1.39-.46,1.91-.8,.07-.04,.12-.06,.14-.06,.16,0,.28,.03,.35,.1,.81,.7,1.21,1.13,1.21,1.31,0,.15-.08,.23-.25,.23l-.57-.23Zm3.04,1.13c1.04,0,1.56,.08,1.56,.25,0,.19-.07,.3-.21,.33-.14,.01-.21,.15-.21,.41v10.58c0,.16-.11,.25-.33,.25h-.82c-.22,0-.33-.08-.33-.25v-11.32c0-.16,.11-.25,.33-.25Zm4.27-2.3l1.78,.23c.19,.08,.29,.14,.29,.18,0,.15-.1,.23-.31,.23-.3,.12-.45,.49-.45,1.09v15.34c0,1.11-.77,1.66-2.3,1.66h-1.48c-.11,0-.16-.14-.16-.41-.05-.27-.19-.61-.41-1,0-.16,.05-.25,.16-.25,.64,.16,1.22,.25,1.72,.25,.6,0,.9-.25,.9-.74v-14.93c0-.45-.01-.79-.04-1.03-.03-.18-.04-.32-.04-.43,0-.12,.11-.18,.33-.18Z"/>
        <path class="cls-1" d="M92.84,146.39h14.27c.27,0,.41,.11,.41,.33v15.71c0,.66-.33,1.17-1,1.54-.64,.27-1.48,.46-2.52,.57-.15,0-.24-.09-.27-.27-.03-.29-.18-.72-.47-1.31,0-.07,.07-.1,.21-.1,1.23,0,1.96-.09,2.19-.27,.26-.15,.39-.4,.39-.76v-3.36h-5.33v5.48c0,.16-.11,.25-.33,.25h-.82c-.22,0-.33-.08-.33-.25v-5.48h-5.56c-.03,.18-.05,.35-.08,.51-.18,1.19-.52,2.38-1.03,3.57-.27,.72-.65,1.42-1.13,2.07-.1,0-.16-.01-.21-.04-.23-.23-.49-.43-.78-.59-.05-.07-.08-.16-.08-.27,.44-.6,.83-1.43,1.17-2.48,.34-1.09,.58-2.24,.72-3.45,.16-1.26,.25-2.78,.25-4.57v-6.5c0-.22,.11-.33,.33-.33Zm.98,10.75h5.41v-4.1h-5.25v.18c0,1.49-.05,2.8-.16,3.92Zm.16-5.41h5.25v-4.02h-5.25v4.02Zm6.73-4.02v4.02h5.33v-4.02h-5.33Zm0,9.43h5.33v-4.1h-5.33v4.1Z"/>
        <path class="cls-1" d="M113.29,159.51h8.29v-1.31c0-.16,.11-.25,.33-.25,1.04,0,1.56,.08,1.56,.25,0,.19-.07,.3-.21,.33-.14,.01-.21,.15-.21,.41v.57h8.45c.16,0,.25,.11,.25,.33v.66c0,.22-.08,.33-.25,.33h-8.45v3.71c0,.15-.11,.23-.33,.23h-.82c-.22,0-.33-.08-.33-.23v-3.71h-8.29c-.16,0-.25-.11-.25-.33v-.66c0-.22,.08-.33,.25-.33Zm4.51-5.66c.05,0,.1,.05,.12,.16,.3,.67,.45,1.03,.45,1.07,0,.07-.04,.12-.12,.16-.68,.83-1.33,1.54-1.95,2.13-.34,.34-.75,.71-1.23,1.11-.1,.1-.14,.22-.14,.37,0,.16-.05,.25-.16,.25-.1,0-.49-.39-1.19-1.17-.05-.04-.1-.12-.12-.23,0-.05,.03-.1,.1-.14,.41-.22,.81-.49,1.21-.8,.57-.44,1.13-.94,1.68-1.5,.46-.48,.88-.92,1.23-1.31,.04-.07,.08-.1,.12-.1Zm4.27-8.12c1.04,0,1.56,.08,1.56,.25,0,.19-.07,.3-.21,.33-.14,.01-.21,.15-.21,.41v1.07h7.63c.16,0,.25,.11,.25,.33v.68c0,.21-.08,.31-.25,.31h-16.9c-.16,0-.25-.1-.25-.31v-.68c0-.22,.08-.33,.25-.33h7.79v-1.8c0-.16,.11-.25,.33-.25Zm-7.22,3.77c.67,.4,1.21,.77,1.62,1.11,.49,.4,.91,.77,1.25,1.11,0,.03-.03,.09-.1,.18-.4,.59-.61,.88-.64,.88-.53-.53-1.11-1.01-1.72-1.44-.49-.37-.9-.62-1.23-.76,0-.08,.21-.39,.64-.92,.07-.11,.13-.16,.18-.16Zm7.05-.33l1.54,.84c.07,.14,.1,.21,.1,.23,0,.14-.1,.21-.31,.21-.31,0-.51,.07-.59,.21-.56,.82-1.09,1.57-1.6,2.26,.34,.33,.7,.68,1.07,1.07,.19-.22,.36-.41,.51-.57,.83-.9,1.52-1.71,2.07-2.42,.98,.79,1.48,1.24,1.48,1.33,0,.07-.09,.1-.27,.1-.34,0-.55,.04-.64,.12-1.19,1.29-2.38,2.47-3.57,3.57,.96-.08,2.08-.18,3.38-.31-.21-.37-.44-.75-.72-1.13,0-.08,.36-.29,1.07-.64,.52,.77,.94,1.47,1.27,2.11,.3,.59,.56,1.22,.78,1.89,0,.05-.44,.2-1.31,.43-.08-.44-.27-.97-.55-1.6-.03-.05-.05-.12-.08-.18l-6.58,1.35c-.34,.38-.53,.57-.57,.57-.05,0-.19-.65-.41-1.95,0-.1,.61-.21,1.83-.35,.62-.62,1.17-1.18,1.66-1.68-.66-.52-1.16-.9-1.5-1.13-.52-.33-1.07-.62-1.66-.88,0-.11,.27-.45,.8-1.03,.05-.07,.12-.1,.18-.1,.27,.18,.55,.38,.82,.59,.3-.41,.57-.81,.8-1.21,.46-.75,.8-1.32,1-1.7Zm7.38,.33l1.25,.51c.21,.1,.31,.2,.31,.31,0,.08-.08,.14-.25,.18-.22,0-.35,.05-.39,.16-.59,.88-1.18,1.55-1.76,2.03-.12,.11-.23,.16-.31,.16-.1,0-.21-.04-.35-.12-.27-.12-.54-.24-.8-.35-.11-.04-.16-.07-.16-.08,0-.04,.03-.09,.08-.14,.56-.44,.98-.83,1.27-1.17,.4-.44,.7-.87,.9-1.29,.07-.14,.14-.21,.21-.21Zm-.74,4.61c.67,.81,1.21,1.55,1.62,2.24,.4,.63,.73,1.31,1,2.03,0,.04-.46,.17-1.39,.39-.11-.45-.36-1-.74-1.66-.41-.75-.96-1.5-1.64-2.26,0-.12,.38-.37,1.15-.74Z"/>
        <path class="cls-1" d="M146.61,152.54v2.3c0,1.04-.22,1.94-.66,2.71-.45,.77-.98,1.26-1.58,1.48l-.82-.82c.38-.15,.73-.44,1.05-.88,.33-.41,.51-.94,.53-1.58h-1.66v-3.2h3.14Z"/>
        <path class="cls-1" d="M162.62,145.49c1.15,.62,1.72,.97,1.72,1.07,0,.12-.05,.18-.16,.18-.25,.03-.41,.11-.49,.25-.52,1.48-1.04,2.73-1.56,3.75v13.72c0,.15-.11,.23-.33,.23h-.8c-.23,0-.35-.08-.35-.23v-11.3c-.44,.62-1.01,1.37-1.72,2.26-.15,0-.29-.06-.41-.18l-.66-.53c-.11-.08-.16-.17-.16-.27,.57-.68,1.15-1.41,1.72-2.17,.74-1.01,1.38-2.13,1.93-3.36,.48-1.11,.85-2.19,1.11-3.24,.03-.11,.08-.16,.16-.16Zm1.89,2.21h5.25v-1.97c0-.16,.03-.25,.08-.25l1.48,.12c.22,.05,.33,.12,.33,.21,0,.12-.07,.21-.21,.27-.14,.07-.21,.2-.21,.39v1.23h5.58c.16,0,.25,.11,.25,.33v.68c0,.21-.08,.31-.25,.31h-5.58v2.13h4.59c.22,0,.33,.09,.33,.27v6.54c0,.16-.11,.25-.33,.25h-.82c-.22,0-.33-.08-.33-.25v-.98h-3.63c-.01,.08-.03,.16-.04,.23-.14,1.04-.42,1.93-.86,2.69-.19,.38-.44,.77-.74,1.15,.31,.16,.65,.31,1,.45,.51,.23,1.29,.51,2.36,.82,.72,.18,1.57,.36,2.52,.55,.45,.05,.98,.12,1.6,.21,.16,0,.25,.02,.25,.06,0,.14-.07,.25-.21,.35-.25,.3-.48,.58-.7,.84-.11,.15-.25,.23-.41,.23-1.45-.26-2.74-.56-3.88-.9-1-.33-1.81-.63-2.44-.9-.38-.19-.75-.38-1.09-.57-.81,.79-1.72,1.44-2.75,1.95-.68,.34-1.16,.51-1.42,.51-.11,0-.19-.08-.25-.23-.18-.37-.38-.7-.59-.98-.1-.05-.14-.1-.14-.12,0-.1,.03-.14,.1-.14,.92-.18,1.66-.44,2.24-.78,.57-.31,1.08-.67,1.52-1.07-.67-.52-1.35-1.16-2.05-1.93,0-.18,.44-.4,1.31-.68,.64,.67,1.22,1.19,1.74,1.56,.27-.36,.51-.75,.7-1.17,.34-.57,.55-1.2,.64-1.89,.03-.07,.04-.14,.04-.23h-3.36v.51c0,.15-.11,.23-.33,.23h-.82c-.22,0-.33-.08-.33-.23v-5.99c0-.23,.11-.35,.33-.35h4.76v-2.13h-5.25c-.16,0-.25-.1-.25-.31v-.68c0-.22,.08-.33,.25-.33Zm1.64,7.96h3.55c.04-.44,.06-.93,.06-1.48v-1.72h-3.61v3.2Zm5.09-3.2v1.72c0,.56-.01,1.05-.04,1.48h3.49v-3.2h-3.45Z"/>
        <path class="cls-1" d="M183.14,146.39h14.27c.27,0,.41,.11,.41,.33v15.71c0,.66-.33,1.17-1,1.54-.64,.27-1.48,.46-2.52,.57-.15,0-.24-.09-.27-.27-.03-.29-.18-.72-.47-1.31,0-.07,.07-.1,.21-.1,1.23,0,1.96-.09,2.19-.27,.26-.15,.39-.4,.39-.76v-3.36h-5.33v5.48c0,.16-.11,.25-.33,.25h-.82c-.22,0-.33-.08-.33-.25v-5.48h-5.56c-.03,.18-.05,.35-.08,.51-.18,1.19-.52,2.38-1.03,3.57-.27,.72-.65,1.42-1.13,2.07-.1,0-.16-.01-.21-.04-.23-.23-.49-.43-.78-.59-.05-.07-.08-.16-.08-.27,.44-.6,.83-1.43,1.17-2.48,.34-1.09,.58-2.24,.72-3.45,.16-1.26,.25-2.78,.25-4.57v-6.5c0-.22,.11-.33,.33-.33Zm.98,10.75h5.41v-4.1h-5.25v.18c0,1.49-.05,2.8-.16,3.92Zm.16-5.41h5.25v-4.02h-5.25v4.02Zm6.73-4.02v4.02h5.33v-4.02h-5.33Zm0,9.43h5.33v-4.1h-5.33v4.1Z"/>
        <path class="cls-1" d="M213.18,162.81h-9.41v-15.05h1.99v13.27h7.42v1.78Z"/>
        <path class="cls-1" d="M228.07,162.81h-11.24v-15.05h10.87v1.78h-8.88v4.61h8.33v1.78h-8.33v5.09h9.25v1.78Z"/>
        <path class="cls-1" d="M244.53,155.21c0,2.69-.72,4.72-2.15,6.09-1.07,1.01-2.69,1.52-4.86,1.52h-5.41v-15.05h5.19c1.2,0,2.12,.08,2.75,.25,1.08,.26,1.97,.79,2.67,1.6,1.22,1.41,1.83,3.27,1.83,5.6Zm-2.05-.04c0-2.16-.54-3.71-1.62-4.66-.48-.42-1.05-.7-1.72-.82-.41-.1-1.04-.14-1.89-.14h-3.16v11.48h3.22c1.45,0,2.53-.25,3.24-.74,1.29-.88,1.93-2.58,1.93-5.13Z"/>
        <path class="cls-1" d="M251.32,145.57l1.39,.68c.11,.08,.16,.16,.16,.23,0,.16-.11,.25-.33,.25-.16,0-.28,.06-.35,.18-.16,.33-.32,.62-.47,.88h5.41c.11,0,.16,.08,.16,.25v.68c0,.21-.05,.31-.16,.31h-3.01c.49,.45,.95,.92,1.37,1.39,0,.19-.04,.29-.12,.31-.44,.29-.78,.43-1.03,.43-.63-.83-1.23-1.54-1.8-2.13h-1.62l-.41,.49c-.3,.38-.61,.72-.92,1.03-.3,.29-.55,.49-.74,.62-.12,0-.22-.06-.29-.18-.16-.26-.36-.49-.59-.68-.12-.08-.18-.15-.18-.21,0-.03,.01-.05,.04-.06,.44-.26,.79-.52,1.05-.78,.4-.36,.79-.8,1.17-1.33,.26-.36,.47-.7,.64-1.05,.19-.34,.36-.72,.49-1.15,.05-.1,.1-.14,.14-.14Zm-1.56,6.4h7.14c.22,0,.33,.09,.33,.27v5.89c0,.23-.11,.35-.33,.35h-5.99v4.02c.29-.08,.59-.16,.92-.25,1.18-.34,2.3-.7,3.38-1.07-.26-.45-.55-.9-.86-1.33,0-.08,.36-.29,1.07-.64,.63,.92,1.13,1.76,1.52,2.54,.37,.72,.68,1.48,.94,2.28,0,.05-.44,.2-1.31,.43-.11-.53-.34-1.19-.7-1.97-.03-.05-.06-.12-.1-.18-2.05,.72-4.14,1.38-6.25,1.97-.19,.38-.36,.57-.49,.57s-.41-.57-.82-1.72c.38-.07,.79-.15,1.23-.25v-10.64c0-.18,.11-.27,.33-.27Zm1.15,2.62h4.84v-1.37h-4.84v1.37Zm0,2.62h4.84v-1.37h-4.84v1.37Zm9.43-11.65l1.37,.68c.12,.08,.18,.16,.18,.23,0,.16-.11,.25-.33,.25-.14,0-.25,.07-.35,.21-.11,.26-.22,.49-.33,.7h5.76c.11,0,.16,.09,.16,.27v.64c0,.23-.05,.35-.16,.35h-2.99c.49,.45,.94,.94,1.35,1.46,0,.21-.04,.31-.12,.33-.46,.33-.83,.49-1.11,.49-.64-.9-1.25-1.66-1.83-2.28h-1.76c-.16,.26-.35,.53-.55,.82-.3,.38-.59,.73-.88,1.05-.3,.3-.54,.53-.72,.68-.11,0-.21-.07-.29-.21-.16-.26-.36-.49-.57-.68-.14-.08-.21-.15-.21-.21,0-.03,.02-.05,.06-.08,.4-.26,.72-.53,.98-.82,.37-.36,.74-.82,1.11-1.39,.23-.38,.44-.74,.62-1.07,.16-.38,.31-.8,.45-1.25,.05-.1,.1-.14,.14-.14Zm.16,7.57v11.32c0,.15-.11,.23-.33,.23h-.82c-.22,0-.33-.08-.33-.23v-12.33c0-.16,.11-.25,.33-.25h5.82c.22,0,.33,.08,.33,.25v8.78c0,.74-.1,1.21-.31,1.42-.04,.34-.84,.66-2.4,.96-.27,0-.41-.1-.41-.29-.04-.27-.15-.66-.33-1.17,1.29-.1,1.94-.4,1.97-.92v-7.77h-3.53Z"/>
        <path class="cls-1" d="M274.22,145.49c1.31,.42,1.97,.7,1.97,.82,0,.15-.1,.23-.29,.23s-.29,.06-.29,.18c-.4,.74-.91,1.56-1.54,2.46-.19,.31-.39,.61-.59,.88,1.59-.15,3.19-.35,4.8-.59-.22-.62-.48-1.23-.78-1.85,0-.08,.36-.29,1.09-.64,.44,.96,.8,1.84,1.09,2.65,.27,.72,.51,1.5,.7,2.34,0,.05-.44,.2-1.31,.43-.05-.45-.17-.98-.35-1.6-2.06,.33-4.34,.63-6.83,.9-.11,0-.21,.06-.29,.18-.05,.23-.16,.35-.33,.35s-.52-.64-1.07-1.91l1.64-.12c.6-.96,1.16-1.96,1.66-2.99,.25-.56,.44-1.11,.57-1.64,.01-.05,.06-.08,.14-.08Zm-2.3,7.46h7.05c.27,0,.41,.11,.41,.33v9.99c0,.42-.28,.75-.84,.98-.51,.18-1.18,.3-2.03,.37-.15,0-.24-.09-.27-.27-.01-.29-.17-.72-.47-1.31,0-.04,.06-.06,.18-.06,.93,0,1.48-.05,1.64-.14,.21-.08,.31-.23,.31-.45v-1.37h-4.84v3.45c0,.15-.11,.23-.33,.23h-.82c-.22,0-.33-.08-.33-.23v-11.18c0-.22,.11-.33,.33-.33Zm1.15,3.36h4.84v-2.05h-4.84v2.05Zm0,3.36h4.84v-2.03h-4.84v2.03Zm15.42-11.32s-.05,.01-.08,.04c-.44,.3-.93,.58-1.48,.84-.64,.31-1.34,.59-2.09,.82-.51,.16-1.15,.33-1.93,.51v1.48c0,.6,.38,.9,1.15,.9h2.21c.79,0,1.26-.1,1.42-.29,.19-.15,.43-.74,.72-1.76,.18,.29,.47,.55,.88,.78,.18,.07,.27,.16,.27,.29-.4,1.19-.7,1.85-.9,1.99-.19,.26-.63,.39-1.31,.39h-3.45c-1.64,0-2.46-.49-2.46-1.48v-7.05c0-.16,.05-.25,.16-.25l1.39,.18c.16,.03,.25,.08,.25,.14,0,.15-.04,.24-.12,.27-.14,.01-.21,.09-.21,.23v2.85c.64-.15,1.23-.31,1.76-.49,.71-.25,1.37-.55,1.99-.92,.46-.27,.88-.58,1.23-.92,.04-.01,.08-.02,.1-.02,.07,0,.15,.07,.25,.21,.6,.74,.9,1.13,.9,1.19,0,.11-.05,.16-.16,.16l-.49-.08Zm.25,9.84s-.08,0-.1,.02c-.45,.3-.96,.57-1.52,.82-.67,.31-1.39,.58-2.17,.8-.53,.16-1.21,.33-2.03,.49v1.8c0,.6,.38,.9,1.15,.9h2.21c.79,0,1.26-.1,1.42-.29,.19-.18,.43-.82,.72-1.93,.18,.29,.47,.55,.88,.78,.18,.07,.27,.17,.27,.31-.4,1.26-.7,1.96-.9,2.08-.19,.3-.63,.44-1.31,.44h-3.45c-1.64,0-2.46-.49-2.46-1.48v-7.46c0-.16,.05-.25,.16-.25l1.39,.18c.16,.01,.25,.06,.25,.14,0,.15-.04,.24-.12,.27-.14,.01-.21,.09-.21,.23v2.93c.68-.15,1.31-.31,1.89-.47,.72-.25,1.41-.54,2.05-.88,.48-.27,.91-.57,1.29-.9h.1c.08,0,.16,.06,.23,.18,.62,.74,.92,1.13,.92,1.19,0,.11-.05,.16-.16,.16l-.49-.08Z"/>
        <path class="cls-1" d="M295.56,160.33l1.25,.51c.21,.1,.31,.2,.31,.31s-.08,.18-.25,.23c-.23,0-.38,.08-.45,.25-.62,1.18-1.23,2.09-1.85,2.75-.14,.16-.25,.25-.33,.25-.11,0-.23-.05-.37-.16-.29-.15-.57-.29-.84-.41-.12-.04-.18-.08-.18-.1s.03-.08,.1-.14c.62-.57,1.07-1.08,1.37-1.52,.46-.56,.8-1.13,1-1.7,.07-.16,.14-.25,.23-.25Zm-1.31-14.03h5.74c.22,0,.33,.08,.33,.25v12.14c0,.16-.11,.25-.33,.25h-.82c-.16,0-.25-.08-.25-.25v-.74h-3.53v1.42c0,.15-.11,.23-.33,.23h-.82c-.16,0-.25-.08-.25-.23v-12.74c0-.22,.08-.33,.25-.33Zm1.15,5.19h3.53v-3.88h-3.53v3.88Zm0,5.25h3.53v-4.04h-3.53v4.04Zm4.76,3.75c.41,.68,.75,1.31,1.03,1.87,.25,.52,.45,1.07,.62,1.66,0,.05-.46,.2-1.39,.43-.07-.38-.21-.84-.43-1.37-.25-.62-.57-1.23-.96-1.85,0-.1,.38-.34,1.15-.74Zm1.89-14.25h8.7c.16,0,.25,.1,.25,.31-.01,1.59-.1,2.73-.25,3.42-.14,.82-.33,1.44-.59,1.85-.25,.42-.9,.64-1.95,.64-.88,0-1.33-.13-1.35-.39-.05-.27-.23-.61-.53-1v-.16h1.89c.45,0,.75-.13,.88-.39,.15-.23,.27-.66,.37-1.27,.07-.38,.12-.95,.16-1.7h-3.57c-.05,.88-.15,1.52-.29,1.95-.22,.68-.51,1.24-.88,1.68-.33,.37-.73,.68-1.21,.92-.41,.26-.95,.49-1.62,.7-.37-.34-.7-.67-.98-.98,.34-.07,.74-.21,1.19-.43,.53-.26,.95-.53,1.25-.82,.41-.42,.7-.9,.86-1.42,.14-.38,.23-.92,.27-1.6h-2.58c-.16,0-.25-.11-.25-.33v-.66c0-.21,.08-.31,.25-.31Zm-.08,7.28h8.45c.22,0,.33,.08,.33,.25v5.52c0,.15-.11,.23-.33,.23h-.82c-.16,0-.25-.08-.25-.23v-.43h-6.23v.51c0,.15-.11,.23-.33,.23h-.82c-.16,0-.25-.08-.25-.23v-5.6c0-.16,.08-.25,.25-.25Zm1.15,4.04h6.23v-2.81h-6.23v2.81Zm1.48,3.01c.66,.64,1.18,1.24,1.56,1.78,.4,.49,.72,1.02,.98,1.58,0,.05-.46,.19-1.39,.41-.11-.34-.35-.77-.72-1.27-.4-.59-.92-1.18-1.58-1.76,0-.1,.38-.34,1.15-.74Zm3.86-.39c.72,.56,1.33,1.08,1.8,1.56,.55,.59,1.02,1.13,1.42,1.62,0,.03-.05,.1-.14,.21-.44,.64-.67,.96-.7,.96-.57-.81-1.2-1.53-1.87-2.17-.53-.53-.98-.91-1.33-1.13,0-.07,.22-.38,.66-.92,.07-.08,.12-.12,.16-.12Z"/>
        <path class="cls-1" d="M316.83,147.15h6.32c.22,0,.33,.08,.33,.23v12.39c0,.16-.11,.25-.33,.25h-.82c-.22,0-.33-.08-.33-.25v-.66h-4.02v2.38c0,.16-.11,.25-.33,.25h-.82c-.22,0-.33-.08-.33-.25v-14.03c0-.21,.11-.31,.33-.31Zm1.15,5.25h4.02v-3.96h-4.02v3.96Zm0,5.39h4.02v-4.1h-4.02v4.1Zm7.71-11.24h7.46c.27,0,.41,.11,.41,.33v15.65c0,.64-.33,1.15-.98,1.52-.63,.29-1.45,.48-2.46,.57-.15,0-.23-.09-.25-.27-.04-.29-.21-.72-.49-1.31,0-.08,.07-.12,.21-.12,1.19,0,1.9-.08,2.13-.25,.25-.15,.37-.4,.37-.74v-3.81h-5.52c-.08,.52-.19,.98-.33,1.39-.25,1.05-.75,2.09-1.5,3.12-.4,.64-.96,1.25-1.68,1.83-.1,0-.16-.02-.21-.06-.23-.22-.49-.41-.76-.57-.07-.07-.1-.16-.1-.29,.68-.52,1.3-1.23,1.85-2.13,.55-.96,.93-1.95,1.15-2.97,.25-1.09,.37-2.43,.37-4v-7.55c0-.22,.11-.33,.33-.33Zm1.05,10.25h5.35v-3.94h-5.25v1.56c0,.88-.03,1.67-.1,2.38Zm.1-5.25h5.25v-3.67h-5.25v3.67Z"/>
        <path class="cls-1" d="M359.23,149.61c.08,0,.66,.38,1.72,1.13,0,.1-.12,.16-.37,.18-.29,0-.49,.05-.62,.14-.86,.79-1.65,1.39-2.38,1.8-.71,.44-1.61,.85-2.69,1.25-.55,.21-1.13,.39-1.74,.55h8.2c.22,0,.33,.09,.33,.27v9.6c0,.15-.11,.23-.33,.23h-.82c-.22,0-.33-.08-.33-.23v-.51h-9.52v.59c0,.15-.11,.23-.33,.23h-.82c-.22,0-.33-.08-.33-.23v-9.15c-.94,.16-1.96,.31-3.04,.43-.1,0-.17-.06-.23-.18-.12-.31-.31-.66-.55-1.03-.08-.04-.12-.1-.12-.18,1.52,0,2.99-.13,4.41-.39,1.15-.22,2.41-.51,3.77-.88,.93-.29,1.76-.62,2.48-.98,.71-.38,1.29-.79,1.72-1.23,.42-.31,.89-.76,1.39-1.33,.05-.05,.11-.08,.16-.08Zm-8.53-2.89l1.15,.86c.11,.11,.16,.21,.16,.31,0,.07-.05,.11-.16,.12-.21,.03-.36,.08-.45,.16-.48,.66-.99,1.25-1.54,1.78-.64,.62-1.46,1.23-2.44,1.85-.18,0-.29-.05-.35-.16-.27-.21-.51-.4-.72-.57-.11-.04-.16-.1-.16-.16,0-.04,.03-.08,.1-.12,.48-.18,.87-.39,1.17-.64,.66-.45,1.23-.96,1.72-1.52,.42-.46,.88-1.05,1.37-1.74,.04-.11,.09-.16,.14-.16Zm0,10.66h9.52v-1.48h-9.52v1.48Zm0,2.73h9.52v-1.5h-9.52v1.5Zm0,2.71h9.52v-1.5h-9.52v1.5Zm4.1-17.25l1.66,.23c.15,.07,.23,.13,.23,.18,0,.14-.08,.21-.25,.21-.27,.11-.41,.43-.41,.96v3.59c0,1-.6,1.5-1.8,1.5h-1.89c-.11,0-.16-.12-.16-.37-.05-.26-.19-.58-.41-.96,0-.11,.05-.16,.16-.16,.79,.11,1.5,.16,2.13,.16,.33,0,.49-.25,.49-.74v-3.1c0-.41-.03-.72-.08-.92-.05-.16-.08-.3-.08-.41s.14-.16,.41-.16Zm4.35,1.31c1.16,.63,2.11,1.2,2.85,1.72,.89,.68,1.63,1.29,2.24,1.8,0,.03-.03,.1-.1,.21-.45,.63-.69,.94-.72,.94-.93-.86-1.92-1.65-2.97-2.36-.83-.59-1.54-1-2.11-1.23,0-.08,.22-.39,.66-.92,.07-.11,.12-.16,.16-.16Z"/>
        <path class="cls-1" d="M370.24,145.81h14.44c.11,0,.16,.09,.16,.27v.64c0,.23-.05,.35-.16,.35h-6.48v1.37h7.88c.22,0,.33,.09,.33,.27v4c0,.16-.11,.25-.33,.25h-.82c-.22,0-.33-.08-.33-.25v-3.01h-6.73v4.66c0,.16-.11,.25-.33,.25h-.82c-.22,0-.33-.08-.33-.25v-4.66h-6.89v3.01c0,.16-.11,.25-.33,.25h-.82c-.22,0-.33-.08-.33-.25v-4c0-.18,.11-.27,.33-.27h8.04v-1.37h-6.48c-.11,0-.16-.12-.16-.35v-.64c0-.18,.05-.27,.16-.27Zm.57,9.43h13.29c.22,0,.33,.08,.33,.25v5.82c0,.16-.11,.25-.33,.25h-5.82v.66c0,.6,.36,.9,1.07,.9h4.51c.83,0,1.33-.1,1.48-.29,.19-.16,.44-.77,.74-1.83,.16,.25,.43,.48,.8,.7,.18,.05,.27,.15,.27,.29-.41,1.23-.72,1.91-.92,2.03-.22,.29-.68,.43-1.37,.43h-5.66c-1.53,0-2.3-.47-2.3-1.42v-1.48h-6.07c-.22,0-.33-.08-.33-.25v-5.82c0-.16,.11-.25,.33-.25Zm.25-4.35h4.27c.11,0,.16,.08,.16,.25v.66c0,.16-.05,.25-.16,.25h-4.27c-.1,0-.14-.08-.14-.25v-.66c0-.16,.05-.25,.14-.25Zm0,2.13h4.27c.11,0,.16,.08,.16,.25v.68c0,.15-.05,.23-.16,.23h-4.27c-.1,0-.14-.08-.14-.23v-.68c0-.16,.05-.25,.14-.25Zm.9,4.76h4.92v-1.31h-4.92v1.31Zm4.92,2.54v-1.39h-4.92v1.39h4.92Zm1.39-3.86v1.31h4.68v-1.31h-4.68Zm4.68,3.86v-1.39h-4.68v1.39h4.68Zm-3.36-9.43h4.27c.12,0,.18,.08,.18,.25v.66c0,.16-.06,.25-.18,.25h-4.27c-.11,0-.16-.08-.16-.25v-.66c0-.16,.05-.25,.16-.25Zm0,2.13h4.27c.12,0,.18,.08,.18,.25v.68c0,.15-.06,.23-.18,.23h-4.27c-.11,0-.16-.08-.16-.23v-.68c0-.16,.05-.25,.16-.25Z"/>
        <path class="cls-1" d="M393.3,150.65l1.15,.88c.11,.11,.16,.2,.16,.27s-.04,.11-.12,.12c-.14,.03-.23,.08-.29,.16-.31,.66-.65,1.24-1,1.76-.44,.6-.98,1.2-1.62,1.8-.18,0-.29-.05-.33-.16-.3-.21-.55-.4-.74-.57-.11-.04-.16-.1-.16-.16,0-.04,.02-.08,.06-.12,.31-.18,.57-.38,.78-.59,.42-.45,.79-.95,1.11-1.5,.29-.46,.59-1.04,.9-1.72,.03-.11,.06-.16,.1-.16Zm3.86,2.95c1.2,.42,1.8,.7,1.8,.82,0,.11-.08,.19-.23,.25-.22,0-.38,.11-.47,.33-.36,1.15-.75,2.2-1.19,3.16,.33,.45,.64,.92,.92,1.42,.52,.78,.96,1.59,1.33,2.42,.03,.08,.04,.16,.04,.23,0,.08-.33,.33-.98,.74-.05,0-.11-.03-.16-.1-.59-1.26-1.21-2.35-1.87-3.28-.44,.75-.9,1.42-1.37,2.01-.86,1.04-1.91,2-3.14,2.87-.12,.05-.24,.08-.35,.08-.15,0-.27-.09-.37-.27-.15-.21-.32-.38-.51-.53-.12-.07-.18-.16-.18-.29,0-.05,.05-.1,.14-.14,.46-.18,.92-.46,1.37-.86,.77-.56,1.45-1.22,2.05-1.99,.51-.6,.97-1.33,1.39-2.19l-.45-.49c-.62-.64-1.27-1.29-1.97-1.93-.05-.08-.08-.14-.08-.18,0-.05,.23-.35,.7-.88,.08-.07,.18-.1,.29-.1,.57,.48,1.18,1.07,1.8,1.76,.11,.14,.22,.27,.33,.39,.38-.92,.68-1.91,.88-2.99,.03-.15,.12-.23,.27-.23Zm-1.8-8.04c1.04,0,1.56,.08,1.56,.25,0,.19-.07,.3-.21,.33-.14,.01-.21,.15-.21,.41v1.97h3.86c.16,0,.25,.12,.25,.35v.64c0,.22-.08,.33-.25,.33h-9.6c-.16,0-.25-.11-.25-.33v-.64c0-.23,.08-.35,.25-.35h4.27v-2.71c0-.16,.11-.25,.33-.25Zm2.38,5.02c.68,.68,1.24,1.33,1.66,1.93,.51,.74,.94,1.4,1.29,1.99,0,.03-.03,.08-.1,.16-.4,.6-.61,.9-.64,.9-.55-.94-1.13-1.8-1.76-2.58-.51-.64-.93-1.09-1.27-1.35,0-.07,.21-.38,.64-.92,.07-.08,.13-.12,.18-.12Zm5.58-4.94l1.42,.55c.15,.11,.23,.2,.23,.27,0,.12-.05,.21-.16,.25-.15,0-.25,.09-.29,.27-.21,.74-.4,1.37-.57,1.89h5.46c.16,0,.25,.1,.25,.31v.66c0,.22-.08,.33-.25,.33h-1.17c-.08,2.72-.27,4.72-.57,5.99-.38,1.67-.9,3.07-1.56,4.2,.49,.71,1,1.29,1.52,1.72,.67,.62,1.46,1.1,2.36,1.46,0,.14-.07,.24-.21,.31-.26,.26-.51,.53-.76,.82-.12,.12-.21,.18-.27,.18-1.22-.74-2.01-1.31-2.38-1.72-.46-.4-.88-.88-1.25-1.46-.42,.48-.89,.91-1.39,1.29-.79,.66-1.83,1.26-3.1,1.8-.37-.38-.7-.73-.98-1.05,.67-.23,1.46-.68,2.36-1.33,.92-.64,1.67-1.35,2.28-2.11-.25-.45-.46-.94-.66-1.46-.37-.86-.67-1.93-.9-3.2-.18-1.01-.27-2.19-.29-3.53-.29,.44-.59,.83-.9,1.19-.18,0-.33-.02-.45-.06-.26-.1-.53-.2-.82-.31-.08-.04-.12-.08-.12-.12,0-.07,.02-.12,.06-.16,.6-.67,1.13-1.49,1.6-2.46,.29-.56,.53-1.16,.74-1.78,.23-.67,.46-1.52,.68-2.56,.04-.11,.08-.16,.12-.16Zm-.76,6.23h1.25c.01,1.3,.11,2.45,.29,3.47,.19,.97,.45,1.88,.78,2.73,.1,.23,.19,.46,.29,.68,.44-.9,.77-1.87,.98-2.89,.33-1.27,.53-3.17,.62-5.7h-3.34c-.26,.57-.53,1.12-.8,1.64-.03,.03-.05,.05-.06,.08Z"/>
        <path class="cls-1" d="M416.06,146.24h12.94c.22,0,.33,.08,.33,.23v8.39c0,.15-.11,.23-.33,.23h-.82c-.22,0-.33-.08-.33-.23v-.59h-4.59v2.05h8.12c.16,0,.25,.12,.25,.35v.64c0,.23-.08,.35-.25,.35h-7.4c.83,.74,1.58,1.33,2.24,1.76,.86,.59,1.89,1.13,3.08,1.64,.98,.41,1.98,.72,2.99,.94,0,.11-.07,.19-.21,.25-.33,.34-.6,.66-.82,.94-.08,.12-.15,.18-.21,.18-1.53-.52-2.78-1.06-3.73-1.62-1.09-.63-2.03-1.29-2.81-1.97-.41-.34-.83-.73-1.25-1.17v5.93c0,.15-.11,.23-.33,.23h-.82c-.22,0-.33-.08-.33-.23v-5.66c-.59,.53-1.11,.98-1.58,1.35-.85,.64-1.76,1.24-2.75,1.78-1.13,.6-2.26,1.11-3.38,1.52-.16,0-.29-.05-.39-.14-.29-.27-.57-.53-.84-.78-.05-.1-.08-.17-.08-.23,1.08-.34,1.96-.67,2.62-.98,.98-.44,2.02-1.03,3.1-1.76,.6-.42,1.41-1.09,2.42-1.99h-7.16c-.16,0-.25-.12-.25-.35v-.64c0-.23,.08-.35,.25-.35h8.04v-2.05h-4.59v.68c0,.15-.11,.23-.33,.23h-.8c-.23,0-.35-.08-.35-.23v-8.39c0-.21,.12-.31,.35-.31Zm1.13,3.36h4.59v-2.07h-4.59v2.07Zm0,3.34h4.59v-2.05h-4.59v2.05Zm6.07-5.41v2.07h4.59v-2.07h-4.59Zm0,3.36v2.05h4.59v-2.05h-4.59Z"/>
        <path class="cls-1" d="M436.57,146.63h17.23c.16,0,.25,.12,.25,.35v.64c0,.23-.08,.35-.25,.35h-7.88v.06l-.02,1.66h5.76c.22,0,.33,.08,.33,.23v8.29c0,.18-.11,.27-.33,.27h-.82c-.22,0-.33-.09-.33-.27v-.55h-4.72c-.05,.45-.14,.82-.25,1.11-.18,.83-.53,1.57-1.07,2.19-.07,.08-.14,.16-.21,.23,.18,.11,.38,.21,.59,.31,.92,.42,1.87,.75,2.85,.96,1.11,.26,2.31,.46,3.61,.59,.93,.11,1.91,.16,2.95,.16,0,.1-.05,.22-.16,.37-.15,.33-.29,.65-.41,.96-.03,.15-.08,.23-.16,.23-1.3-.08-2.43-.2-3.38-.35-1.09-.16-2.08-.37-2.97-.62-1.09-.3-2.08-.66-2.97-1.09-.37-.19-.7-.38-.98-.57-.23,.18-.47,.35-.72,.51-1.05,.71-2.26,1.28-3.61,1.7-.86,.27-1.45,.41-1.76,.41-.1,0-.17-.06-.23-.18-.19-.38-.39-.72-.59-1-.11-.05-.16-.1-.16-.12,0-.08,.04-.12,.12-.12,1.16-.14,2.11-.33,2.83-.59,.94-.31,1.73-.69,2.36-1.13,.21-.11,.39-.23,.55-.35-.51-.48-1.04-1.13-1.6-1.97,0-.05,.44-.23,1.31-.51,.37,.64,.79,1.16,1.27,1.56l.04,.04,.16-.21c.42-.45,.69-.94,.8-1.48,.12-.3,.21-.65,.27-1.05h-4.51v.55c0,.18-.11,.27-.33,.27h-.8c-.23,0-.35-.09-.35-.27v-8.2c0-.21,.12-.31,.35-.31h5.78l.02-1.09v-.64h-7.88c-.16,0-.25-.12-.25-.35v-.64c0-.23,.08-.35,.25-.35Zm3.2,6.4h4.63l.02-2.05h-4.66v2.05Zm0,3.28h4.59l.02-1.97h-4.61v1.97Zm6.09-1.97l-.02,1.97h4.68v-1.97h-4.66Zm.04-3.36l-.02,2.05h4.63v-2.05h-4.61Z"/>
        <path class="cls-1" d="M468.33,146.98c-.78,.46-1.74,.86-2.87,1.19v3.92c0,.49-.01,.97-.04,1.44h5.54v-7.44c0-.18,.11-.27,.33-.27,1.09,0,1.64,.09,1.64,.27s-.07,.28-.21,.31c-.14,.01-.21,.15-.21,.41v6.73h4.35c.16,0,.25,.11,.25,.33v.82c0,.23-.08,.35-.25,.35h-4.35v9.43c0,.15-.14,.23-.41,.23h-.82c-.22,0-.33-.08-.33-.23v-9.43h-5.64c-.1,.9-.24,1.77-.43,2.6-.37,1.46-1.07,2.76-2.09,3.9-.64,.75-1.53,1.5-2.67,2.26-.16,0-.3-.05-.41-.14-.21-.29-.4-.54-.59-.76-.1-.11-.14-.22-.14-.33,2.23-1.46,3.68-3.21,4.35-5.23,.18-.72,.31-1.49,.41-2.3h-5c-.16,0-.25-.12-.25-.35v-.82c0-.22,.08-.33,.25-.33h5.15c.01-.38,.02-.77,.02-1.17v-3.83c-1.3,.27-2.64,.41-4.02,.41-.18,0-.29-.09-.35-.27-.16-.33-.32-.59-.47-.78,0-.23,.08-.35,.25-.35,2.11,0,3.6-.1,4.49-.31,1.45-.23,2.7-.75,3.75-1.54,.11-.08,.23-.12,.37-.12,.07,0,.16,.05,.29,.16,.59,.66,.88,1.01,.88,1.07,0,.18-.06,.27-.18,.27l-.57-.08Z"/>
        <path class="cls-1" d="M485.16,145.26l1.62,.9c.07,.14,.1,.21,.1,.23,0,.12-.12,.18-.35,.18-.33,0-.54,.08-.64,.23-.88,1.3-1.71,2.47-2.5,3.53,.49,.44,1,.92,1.52,1.46,.19-.25,.38-.49,.55-.74,.93-1.2,1.7-2.29,2.32-3.26,.98,.85,1.48,1.31,1.48,1.39,0,.11-.1,.16-.29,.16-.37,0-.6,.05-.7,.16-1.37,1.9-2.71,3.65-4.04,5.25,1-.15,2.21-.31,3.65-.49-.18-.52-.38-1.04-.59-1.56,0-.08,.36-.3,1.07-.66,.4,.92,.72,1.76,.96,2.52,.23,.7,.43,1.44,.59,2.24,0,.05-.44,.19-1.31,.41-.05-.52-.19-1.16-.41-1.91v-.04l-2.3,.59v8.67c0,.15-.11,.23-.33,.23h-.82c-.22,0-.33-.08-.33-.23v-8.29l-2.46,.64c-.38,.45-.6,.68-.66,.68s-.19-.69-.41-2.07c0-.1,.45-.23,1.35-.39,.75-.92,1.42-1.74,2.01-2.48-.75-.62-1.33-1.07-1.72-1.35-.59-.38-1.22-.72-1.89-1.03,0-.12,.29-.49,.88-1.09,.05-.1,.12-.14,.18-.14,.22,.15,.44,.31,.66,.47,.49-.63,.93-1.25,1.31-1.87,.7-1.07,1.19-1.85,1.48-2.36Zm-2.71,12.69c1.04,.22,1.56,.39,1.56,.51,0,.14-.08,.24-.23,.31-.21,.11-.32,.24-.35,.39-.16,1.23-.38,2.24-.64,3.04-.16,.44-.35,.88-.55,1.33-.07,.12-.14,.18-.21,.18-.46-.15-.87-.25-1.21-.31-.12-.03-.18-.1-.18-.21,.36-.59,.66-1.24,.9-1.95,.26-.68,.47-1.71,.64-3.08,0-.15,.09-.23,.27-.23Zm5.5-.25s.07,.05,.08,.16c.26,.74,.56,1.91,.9,3.53,0,.12-.38,.23-1.15,.33-.11,0-.16-.05-.16-.14-.14-1.12-.36-2.3-.66-3.55,0-.1,.33-.21,.98-.33Zm3.45-10.56h-1.8c-.16,0-.25-.12-.25-.35v-.64c0-.18,.08-.27,.25-.27h7.79c.21,0,.33,.03,.37,.08,.3,.22,.45,.38,.45,.49l-1.83,5.99h2.4c.14,0,.28,.04,.43,.12,.26,.19,.39,.34,.39,.45-.19,1.24-.38,2.27-.57,3.08-.25,.86-.56,1.71-.94,2.54-.23,.53-.55,1.14-.96,1.83l-.62,.86,.16,.16c.96,.82,2.1,1.58,3.42,2.28,0,.08-.05,.16-.16,.23l-.74,.55c-.08,.08-.19,.12-.33,.12-.82-.46-1.63-1.03-2.42-1.68-.3-.23-.57-.46-.8-.68-.41,.44-.95,.89-1.62,1.35-.51,.37-1.24,.79-2.21,1.25-.15,0-.27-.07-.35-.21-.29-.23-.59-.45-.92-.66-.08-.1-.12-.16-.12-.21,0-.05,.04-.1,.12-.12,1.03-.4,1.87-.82,2.52-1.27,.59-.34,1.1-.75,1.54-1.21-.16-.19-.33-.39-.49-.59-.59-.79-1.09-1.79-1.52-2.99-.05-.14-.11-.28-.16-.43-.07,.37-.14,.71-.23,1.03-.29,1.33-.87,2.65-1.74,3.98-.45,.78-1.09,1.54-1.93,2.3-.1,0-.16-.01-.21-.04-.23-.23-.49-.43-.76-.59-.07-.07-.1-.16-.1-.27,.79-.7,1.51-1.63,2.15-2.79,.63-1.23,1.08-2.52,1.35-3.88,.29-1.41,.43-3.13,.43-5.17v-4.66Zm1.48,5.31h2.07l1.72-5.31h-3.79v5.31Zm.18,1.31c.08,1.22,.26,2.21,.53,2.97,.29,.83,.67,1.69,1.15,2.56,.21,.31,.45,.64,.74,.98,.34-.44,.62-.85,.84-1.25,.41-.74,.76-1.5,1.05-2.3,.22-.77,.45-1.76,.7-2.97h-5Z"/>
        <path class="cls-1" d="M512.9,152.29c.75,0,1.42,.29,2.01,.88,.56,.59,.84,1.28,.84,2.07,0,.75-.28,1.42-.84,2.01-.59,.57-1.26,.86-2.01,.86-.79,0-1.48-.29-2.07-.86-.59-.59-.88-1.26-.88-2.01,0-.79,.29-1.48,.88-2.07s1.28-.88,2.07-.88Zm0,5.09c.56,0,1.06-.21,1.5-.64,.41-.44,.62-.94,.62-1.5s-.21-1.11-.62-1.56c-.44-.44-.94-.66-1.5-.66-.6,0-1.12,.22-1.56,.66s-.68,.97-.68,1.56,.23,1.06,.68,1.5c.44,.42,.96,.64,1.56,.64Z"/>
      </g>
      <line class="cls-3" x1="0" y1="91" x2="524.23" y2="91"/>
      <g>
        <path class="cls-2" d="M15.89,0c.77,.66,.82,1.14,.13,1.86-5.76,5.92-5.86,15.56,.02,21.61,.37,.38,.64,.84,.3,1.29-.21,.27-.67,.41-1.04,.48-.18,.03-.45-.21-.62-.38-6.62-6.52-6.6-17.96,.04-24.46,.15-.15,.32-.27,.48-.4,.23,0,.47,0,.7,0Z"/>
        <path class="cls-2" d="M39.2,0c2.38,2.14,3.97,4.78,4.78,7.85,1.68,6.35,.28,11.98-4.13,16.86-.11,.12-.22,.25-.35,.34-.45,.34-.92,.35-1.32-.06-.38-.38-.39-.85-.07-1.27,.41-.53,.91-1,1.32-1.53,4.73-6.1,4.31-14.63-.97-20.24C37.69,1.15,37.7,.73,38.5,0h.7Z"/>
        <path class="cls-2" d="M31.96,35.45c2.61-1.61,5.96-.85,7.28,2.47,3.23-2.12,6.45-.47,7.47,2.31,.2-.11,.39-.22,.58-.33,3.04-1.8,6.94,.27,7.12,3.8,.06,1.11,.03,2.23,.03,3.35,0,7.63,0,15.25,0,22.88,0,1.28-.24,1.52-1.49,1.52-9.67,0-19.35,0-29.02,.02-.82,0-1.27-.3-1.61-1.02-2.26-4.74-4.55-9.46-6.82-14.19-3.28-6.82-1.62-14.18,4.26-18.93,.14-.12,.29-.23,.43-.35,.75-.62,1.78-1.11,2.16-1.91,.38-.77,.1-1.87,.1-2.82,0-4.6,0-9.21-.02-13.81,0-.35-.17-.77-.4-1.02-2.54-2.83-2.44-7.15,.27-9.77,2.72-2.64,7.06-2.63,9.76,0,2.71,2.65,2.81,6.93,.26,9.77-.21,.23-.38,.59-.38,.89-.02,5.56-.02,11.11-.02,16.67,0,.13,.01,.27,.03,.48Zm-9.5,2.21c-.6,.48-1.08,.86-1.56,1.25-5.08,4.15-6.5,10.53-3.66,16.44,2.16,4.5,4.34,8.99,6.48,13.5,.23,.48,.48,.66,1.04,.66,8.97-.02,17.95-.02,26.92-.02h.77c.02-.26,.04-.44,.04-.62,0-8.21,0-16.41,0-24.62,0-.34-.03-.7-.12-1.03-.38-1.3-1.62-2.16-2.9-2.04-1.32,.12-2.31,1.12-2.49,2.5-.11,.86-.44,1.26-1.03,1.24-.62-.02-.94-.47-.95-1.37,0-.67,.02-1.35-.03-2.02-.13-1.5-1.32-2.62-2.75-2.62-1.48,0-2.59,1.04-2.75,2.59-.08,.76-.47,1.18-1.05,1.14-.58-.03-.89-.47-.92-1.25-.03-.88,.02-1.78-.12-2.64-.21-1.27-1.45-2.2-2.7-2.19-1.26,0-2.37,.9-2.67,2.15-.06,.25-.03,.51-.09,.76-.13,.54-.47,.88-1.04,.83-.52-.05-.84-.37-.88-.91-.02-.23,0-.46,0-.7,0-6.72,0-13.44,0-20.16,0-.7,.02-1.4,0-2.09-.07-1.67-1.41-2.9-3.02-2.79-1.51,.1-2.54,1.32-2.54,3.03,0,12.09,0,24.18,0,36.27,0,.26,.02,.52-.02,.77-.09,.52-.4,.83-.95,.84-.55,0-.86-.31-.97-.82-.05-.22-.02-.46-.02-.7,0-4.84,0-9.67,0-14.51v-.88Zm.24-22.85c.88-1.95,2.31-3.1,4.48-3.11,2.19,0,3.6,1.2,4.51,3.16,1.06-2.2,.46-4.74-1.4-6.18-1.88-1.46-4.54-1.41-6.37,.14-1.73,1.47-2.28,4.05-1.22,5.98Z"/>
        <path class="cls-2" d="M15.47,12.65c.06-3.08,1.09-5.76,3.19-8.02,.58-.62,1.09-.71,1.57-.3,.48,.41,.42,1.01-.15,1.63-3.55,3.89-3.55,9.5,.01,13.39,.55,.6,.61,1.17,.18,1.59-.45,.44-1.04,.35-1.62-.27-2.1-2.26-3.13-4.95-3.18-8.02Z"/>
        <path class="cls-2" d="M38.91,13.04c-.07,2.75-1.12,5.46-3.26,7.72-.63,.66-1.47,.58-1.75-.16-.2-.51,.04-.88,.39-1.24,1.2-1.25,2.01-2.73,2.4-4.41,.75-3.31-.02-6.25-2.22-8.82-.08-.09-.16-.17-.24-.26-.46-.53-.49-1.09-.08-1.48,.44-.43,1.06-.41,1.51,.19,.77,1.01,1.54,2.04,2.14,3.15,.82,1.51,1.13,3.27,1.12,5.32Z"/>
      </g>
    </g>
  </g>
</svg>