<?xml version="1.0" encoding="UTF-8"?>
<svg id="_圖層_2" data-name="圖層 2" xmlns="http://www.w3.org/2000/svg" xmlns:xlink="http://www.w3.org/1999/xlink" viewBox="0 0 160.76 160.76">
  <defs>
    <style>
      .cls-1 {
        fill: #0076c0;
      }

      .cls-2 {
        fill: url(#_未命名漸層_28);
        stroke: #fff;
        stroke-miterlimit: 10;
        stroke-width: 2px;
      }
    </style>
    <linearGradient id="_未命名漸層_28" data-name="未命名漸層 28" x1="1.67" y1="56.1" x2="161.88" y2="105.52" gradientUnits="userSpaceOnUse">
      <stop offset="0" stop-color="#fff" stop-opacity=".7"/>
      <stop offset=".1" stop-color="#fff" stop-opacity=".78"/>
      <stop offset=".22" stop-color="#fff" stop-opacity=".85"/>
      <stop offset=".35" stop-color="#fff" stop-opacity=".89"/>
      <stop offset=".5" stop-color="#fff" stop-opacity=".9"/>
      <stop offset=".66" stop-color="#fff" stop-opacity=".89"/>
      <stop offset=".77" stop-color="#fff" stop-opacity=".86"/>
      <stop offset=".85" stop-color="#fff" stop-opacity=".8"/>
      <stop offset=".92" stop-color="#fff" stop-opacity=".72"/>
      <stop offset=".99" stop-color="#fff" stop-opacity=".62"/>
      <stop offset="1" stop-color="#fff" stop-opacity=".6"/>
    </linearGradient>
  </defs>
  <g id="_圖層_3" data-name="圖層 3">
    <g>
      <circle class="cls-2" cx="80.38" cy="80.38" r="79.38"/>
      <g>
        <path class="cls-1" d="M32.22,64.82l2.74,2.1c-.2,.2-.62,.48-1.2,.56v10.75c0,1.82-.34,2.86-3.11,3.11-.03-.76-.14-1.37-.45-1.76-.31-.39-.78-.7-1.74-.84v-.42s1.82,.14,2.32,.14c.42,0,.5-.17,.5-.5v-3.61c-1.15,.73-2.46,1.51-4,2.24-.08,.36-.34,.59-.62,.67l-.64-1.4c-.45,2.1-1.4,4.2-3.56,5.8l-.31-.31c1.76-2.86,1.85-6.47,1.85-9.83v-6.38l2.8,1.09h4.2l1.2-1.4Zm-1.51-5.68c7.06,2.18,4.87,7.36,2.49,5.43-.06-.62-.28-1.29-.56-1.96-2.07,.56-5.01,1.34-8.29,2.02-.2,.31-.45,.48-.67,.59l-1.2-2.94s.5-.11,.76-.25c1.71-1.26,3.89-4.76,4.65-6.64l3.53,1.43c-.14,.25-.45,.48-1.01,.45-1.34,1.54-3.56,3.56-5.57,4.96,1.9-.06,4.59-.17,7.45-.34-.5-.95-1.2-1.85-1.85-2.55l.28-.2Zm-4.31,12.38c0,.95-.03,2.02-.14,3.05,1.43-.25,3.25-.64,5.04-1.18v-6.36h-4.9v2.52c4.82-1.46,5.88,2.77,3.56,2.49-.84-.64-2.04-1.26-3.56-1.6v1.06Zm12.91-3.98c-2.49,0-2.97-.53-2.97-2.35v-9.44l3.47,.34c-.03,.36-.31,.62-.87,.7v3.22h3.78l1.37-1.76s1.51,1.23,2.44,2.13c-.08,.31-.34,.45-.73,.45h-6.86v3.81c0,.42,.11,.56,1.01,.56h2.35c.9,0,1.79-.03,2.13-.03,.22-.03,.56-.06,.73-.08,.2,0,.53-.08,.76-.14h.25l.14,.03c.78,.31,1.06,.56,1.06,1.06,0,1.06-1.09,1.51-5.38,1.51h-2.69Zm7.34,10.58c.78,.28,.98,.59,.98,1.06,0,1.12-1.12,1.6-5.46,1.6h-2.74c-2.55,0-3.08-.56-3.08-2.41v-10.19l3.53,.34c-.06,.36-.31,.62-.9,.7v2.91h4.09l1.34-1.76s1.54,1.23,2.46,2.13c-.08,.31-.34,.45-.73,.45h-7.17v4.84c0,.45,.14,.59,1.06,.59h2.38c.98,0,1.82-.03,2.13-.03,.34-.03,.5-.11,.67-.31,.25-.36,.64-1.51,1.01-2.74h.31l.11,2.83Z"/>
        <path class="cls-1" d="M52.46,62.22c6.52,.56,4.62,5.29,2.18,3.72-.34-1.29-1.46-2.69-2.41-3.5l.22-.22Zm7.73-1.88c-.98,3.53-2.77,10-3.08,11.48-.22,.9-.39,1.85-.36,2.58,.03,1.4,1.04,2.52,.92,4.96-.06,1.32-.78,2.16-1.93,2.16-.59,0-1.09-.45-1.23-1.4,.45-2.88,.31-5.38-.31-5.8-.39-.28-.81-.39-1.4-.45v-.56h1.23c.36,0,.48-.03,.73-.59q.5-1.01,4.96-12.46l.48,.08Zm-5.96-4.59c6.94,.76,4.93,5.68,2.41,4.06-.39-1.4-1.6-2.94-2.66-3.84l.25-.22Zm21.48,.11s1.76,1.34,2.83,2.32c-.06,.31-.36,.45-.76,.45h-7.87l2.74,.67c-.11,.36-.45,.62-1.04,.64-.59,.73-1.29,1.51-1.99,2.1h4.34l1.2-1.32,2.58,1.99c-.17,.2-.56,.42-1.09,.53v7.95c-.03,.17-1.23,.67-2.02,.67h-.39v-1.06h-2.27v7.31c0,1.82-.42,3.11-3.3,3.36-.03-.81-.17-1.43-.5-1.82-.34-.39-.92-.7-2.13-.87v-.39s2.38,.14,2.91,.14c.42,0,.53-.14,.53-.48v-7.25h-2.32v.59c0,.2-1.04,.76-2.02,.76h-.36v-11.17l2.52,1.06h1.32c.2-.95,.36-2.18,.45-3.42h-5.94v5.88c0,5.07-.31,12.15-5.12,16.91l-.39-.25c2.72-4.96,3-11.17,3-16.66v-7.81l2.94,1.15h10.64l1.51-1.99Zm-7.03,18.12c-.14,.31-.36,.45-1.04,.36-1.2,1.9-3.3,4.28-5.77,5.8l-.31-.34c1.82-2.02,3.39-5.12,4.06-7.28l3.05,1.46Zm-1.51-11.12v3.28h7.08v-3.28h-7.08Zm7.08,7.14v-3.05h-7.08v3.05h7.08Zm-1.2,2.97c7.36,3.02,5.43,8.04,3.02,6.19-.39-1.99-2.02-4.42-3.33-5.99l.31-.2Z"/>
        <path class="cls-1" d="M89.73,63.51c-.14,.31-.5,.53-1.06,.45-1.6,2.72-3.78,4.76-6.08,5.99l-.34-.31c1.62-1.71,3.22-4.51,4.17-7.5l3.3,1.37Zm4.59,4.51c-.11,.34-.48,.59-1.15,.53-.28,1.06-.64,2.46-1.46,4.03,4.51,3.86,3.11,7.48,.73,5.96-.45-1.15-1.2-2.44-2.1-3.67-1.54,2.13-3.86,4.4-7.59,6.5l-.34-.45c3.3-2.66,5.32-5.38,6.52-7.81-1.23-1.48-2.6-2.86-3.84-3.95l.31-.22c1.76,.7,3.19,1.46,4.37,2.24,.62-1.68,.9-3.16,1.01-4.31l3.53,1.15Zm-11.62-6.5l-.22-.78h10.86l1.51-1.99s1.74,1.37,2.77,2.32c-.08,.31-.36,.45-.76,.45h-14.17Zm3.81-5.88c7.17,.98,5.15,6.38,2.44,4.65-.31-1.57-1.54-3.36-2.69-4.45l.25-.2Zm3.98,6.72c7.45,1.18,5.94,6.5,3.28,5.01-.48-1.68-2.13-3.67-3.53-4.79l.25-.22Zm16.13,.25c-.56,4.31-1.6,8.15-3.7,11.37,1.51,2.16,3.47,3.89,6.02,5.21l-.08,.28c-1.2,.22-1.99,.87-2.35,2.04-2.1-1.51-3.7-3.47-4.87-5.77-1.99,2.35-4.65,4.34-8.26,5.82l-.25-.31c3.47-2.1,5.88-4.7,7.56-7.67-.92-2.38-1.54-5.04-1.93-7.92-.84,1.76-1.82,3.33-2.94,4.68l-.39-.22c1.6-3.78,2.88-9.32,3.36-14.59l3.84,.78c-.08,.39-.42,.64-1.01,.67-.36,1.68-.81,3.28-1.32,4.82h4.34l1.54-1.99s1.74,1.37,2.8,2.35c-.08,.31-.36,.45-.76,.45h-1.6Zm-6.61,0c-.25,.7-.53,1.37-.81,2.02,.53,2.63,1.32,5.01,2.41,7.14,1.18-2.8,1.85-5.85,2.16-9.16h-3.75Z"/>
        <path class="cls-1" d="M135.48,72.08s1.9,1.4,3.11,2.46c-.06,.31-.36,.45-.78,.45h-10.92v5.77c0,.2-1.2,.67-2.24,.67h-.5v-6.44h-11.31l-.22-.81h11.54v-2.88l3.67,.34c-.06,.34-.25,.62-.92,.7v1.85h6.89l1.71-2.1Zm-14.31-5.66c-1.34,1.18-3.28,2.91-6.02,5.07-.06,.36-.25,.67-.5,.81l-1.82-2.66c1.4-.5,4.82-1.96,8.2-3.56l.14,.34Zm-7.87-7.39h11.65c-.08-.06-.17-.11-.25-.17-.08-1.23-.87-2.6-1.68-3.42l.25-.2c4.37,.56,4.48,3,3.36,3.78h6.41l1.71-2.04s1.9,1.4,3.08,2.41c-.08,.31-.34,.45-.76,.45h-12.12l2.21,1.12c-.14,.25-.48,.48-1.06,.39-1.01,.81-2.49,1.79-3.86,2.55,1.2,0,2.77,0,4.4-.03,.7-.81,1.32-1.54,1.74-2.13l2.86,1.71c-.14,.25-.53,.45-1.12,.31-1.79,1.68-5.04,3.89-7.98,5.46,1.71-.08,4.06-.22,6.5-.39-.36-.78-.84-1.51-1.29-2.07l.28-.2c6.52,2.07,3.98,6.78,1.68,4.76-.03-.56-.17-1.18-.39-1.79-1.9,.56-4.65,1.29-7.62,1.93-.11,.14-.28,.25-.42,.31l-1.2-2.6s.56-.08,.84-.22c1.62-.84,3.53-2.44,5.15-4.06-1.18,.28-2.55,.56-3.98,.84-.14,.25-.31,.42-.5,.5l-1.15-2.41s.42-.11,.59-.2c1.23-.64,2.69-2.58,3.42-3.78h-10.44l-.28-.81Zm1.4,1.99c6.78,1.76,4.54,6.52,2.18,4.73-.28-1.57-1.46-3.42-2.46-4.54l.28-.2Zm15.85,5.01c8.76,1.06,8.01,6.41,5.29,5.29-1.06-1.74-3.61-3.86-5.49-5.04l.2-.25Zm6.61-3.61c-.17,.25-.56,.45-1.18,.28-1.51,1.09-3.28,2.16-4.76,2.8l-.31-.31c.87-1.09,2.07-2.94,3.02-4.7l3.22,1.93Z"/>
        <path class="cls-1" d="M48.73,95.39c-1.48,2.02-3.28,3.61-5.07,4.7l-.34-.28c1.71-1.99,3.42-5.21,4.42-8.54l3.58,1.23c-.14,.31-.48,.53-1.09,.5-.31,.53-.62,1.06-.92,1.57h3.92l1.26-1.68s1.48,1.18,2.35,2.04c-.08,.31-.34,.45-.7,.45h-7.42Zm17.56,11.62l2.55,2.07c-.2,.22-.53,.36-1.09,.45-.31,3.11-.92,4.98-2.07,5.71-.76,.48-1.74,.73-3,.73,.03-.7-.08-1.37-.48-1.74-.39-.36-1.29-.67-2.3-.84v-.42c1.01,.08,2.72,.2,3.22,.2,.45,0,.67-.03,.87-.2,.45-.34,.87-1.74,1.09-3.84h-7.2v7.64c-.03,.17-.87,.73-2.21,.73h-.5v-6.44c-2.77,2.6-6.66,4.51-11.23,5.77l-.22-.39c4.06-1.74,7.56-4.42,9.72-7.31h-4.54l-1.06,1.18-2.52-1.68c.25-.2,.67-.42,1.06-.59,.36-1.54,.78-3.92,.92-5.26l3,1.37h4.87v-3.36h-9.27l-.25-.81h17.81l1.26-1.32,2.66,1.99c-.14,.2-.53,.45-1.04,.53v4.23c-.03,.2-1.32,.76-2.18,.76h-.42v-1.2h-5.85v3.36h7l1.4-1.32Zm-11.12,1.32v-3.36h-5.6c-.2,1.04-.45,2.32-.67,3.36h6.27Zm-5.18-12.4c5.21,.73,3.22,4.45,1.32,3-.14-1.01-.87-2.16-1.6-2.8l.28-.2Zm16.88-3.16s1.6,1.23,2.6,2.18c-.08,.31-.36,.45-.76,.45h-8.99c-1.2,1.54-2.6,2.77-4.09,3.64l-.36-.25c1.4-1.79,2.74-4.59,3.56-7.5l3.5,1.34c-.14,.34-.48,.53-1.06,.48-.28,.5-.62,1.01-.92,1.48h5.07l1.46-1.82Zm-8.99,11.4h5.85v-3.36h-5.85v3.36Zm3.08-8.2c5.46,.45,3.5,4.37,1.46,2.91-.17-.95-.95-2.1-1.71-2.72l.25-.2Z"/>
        <path class="cls-1" d="M87.03,112.5v2.63h-12.96v-2.02c1.68-1.74,3.3-3.47,4.68-4.87,3.14-3.3,4.4-5.52,4.4-8.09s-1.43-4.2-3.72-4.2c-.42,0-.95,.06-1.51,.17l-.64,2.38c-.34,1.51-.95,1.99-1.76,1.99-.67,0-1.2-.36-1.54-.98,.36-3.11,3.19-4.7,6.41-4.7,4.03,0,5.91,2.18,5.91,5.32,0,2.69-1.71,4.93-6.55,9.1-.87,.78-2.16,1.99-3.58,3.28h10.89Z"/>
        <path class="cls-1" d="M93.81,109.73c.98,2.91,.67,5.12-.08,6.22-.53,.73-1.79,.9-2.3,.14-.36-.67-.06-1.43,.56-1.93,.73-.81,1.54-2.74,1.37-4.42h.45Zm-2.16-3.56s.64-.14,.9-.31c1.37-1.06,3.05-3.11,4.42-5.15-1.01,.36-2.24,.78-3.47,1.18-.2,.28-.42,.48-.64,.56l-1.23-2.97s.56-.11,.78-.28c1.48-1.54,3.33-5.54,3.95-7.67l3.28,1.65c-.14,.25-.45,.45-1.01,.39-1.15,1.82-3.28,4.37-5.12,6.05,1.15,0,2.66,0,4.23-.03,.64-1.09,1.2-2.1,1.57-2.91l2.97,2.02c-.14,.22-.53,.39-1.06,.28-1.54,2.13-4.56,5.15-7.31,7.2,1.48-.08,3.5-.22,5.54-.36-.31-1.01-.76-2.02-1.15-2.74l.34-.14c5.21,2.83,3.05,6.75,1.23,5.04-.03-.45-.08-.95-.22-1.43-1.57,.56-3.78,1.32-6.16,2.02-.22,.31-.48,.5-.76,.59l-1.06-2.97Zm4.56,3.08c4.12,3.58,1.51,7.36-.11,5.35,.28-1.71,.06-3.81-.28-5.24l.39-.11Zm2.72-.5c4.9,2.1,2.74,5.85,.98,4.23,0-1.37-.64-3.02-1.32-4.06l.34-.17Zm18.28-6.64c-.2,.28-.5,.36-1.15,.45-.81,3.22-2.07,6.16-4.12,8.71,1.65,1.65,3.64,2.97,5.82,3.92l-.08,.31c-1.09,.08-1.96,.81-2.46,2.02-1.93-1.26-3.5-2.74-4.82-4.62-1.96,1.9-4.51,3.44-7.78,4.56l-.22-.39c2.97-1.46,5.29-3.42,7.03-5.71-1.34-2.49-2.3-5.52-2.86-9.24h-.42c-.45,5.82-1.76,11.17-5.94,15.4l-.45-.39c4.26-6.55,4.14-14.78,4.17-22.76h-2.07l-.25-.81h9.55l1.12-1.26,2.52,2.02c-.22,.22-.48,.31-.98,.36l-.95,6.64h.36l1.48-1.43,2.49,2.24Zm-10.78-7.76c-.03,2.35-.06,4.68-.22,6.94h4.17l.95-6.94h-4.9Zm.7,7.76c.67,3.02,1.82,5.54,3.42,7.56,1.4-2.27,2.3-4.84,2.86-7.56h-6.27Z"/>
      </g>
    </g>
  </g>
</svg>