<?xml version="1.0" encoding="UTF-8"?>
<svg id="_圖層_2" data-name="圖層 2" xmlns="http://www.w3.org/2000/svg" viewBox="0 0 466.13 85.05">
  <defs>
    <style>
      .cls-1 {
        fill: #fff;
      }
    </style>
  </defs>
  <g id="_圖層_3" data-name="圖層 3">
    <g>
      <g>
        <path class="cls-1" d="M142.42,1.55s2.88,2.09,4.61,3.56c-.11,.4-.5,.58-1.01,.58h-32l-.32-1.01h15.3c-.4-1.66-1.76-3.42-3.02-4.43l.25-.22c6.88-.36,7.45,3.28,5.83,4.64h7.88l2.48-3.13Zm.07,14.11l4.18,3.1c-.22,.29-.72,.61-1.48,.76v9.79c0,2.7-.61,4.25-5.29,4.61-.11-1.22-.25-2.16-.76-2.74s-1.19-1.04-2.88-1.33v-.47s3.17,.22,4,.22c.54,0,.68-.25,.68-.68v-10.12h-21.02v13.71c0,.43-1.84,1.37-3.56,1.37h-.61V16.02l4.5,1.76h20.34l1.91-2.12Zm-7.13,.76v-1.62h-9.93v.79c0,.32-1.87,1.22-3.6,1.22h-.58V6.8l4.39,1.73h9.36l1.91-2.12,4.1,3.1c-.22,.29-.68,.61-1.4,.76v5.29c-.04,.22-2.2,.86-3.53,.86h-.72Zm1.62,12.24c-.04,.25-1.91,1.04-3.24,1.04h-.65v-1.76h-5.65v1.15c0,.32-1.76,1.15-3.31,1.15h-.54v-10.19l4,1.58h5.15l1.8-1.87,3.78,2.77c-.22,.29-.65,.58-1.33,.72v5.4Zm-1.62-14.87v-4.21h-9.93v4.21h9.93Zm-2.27,13.14v-4.25h-5.65v4.25h5.65Z"/>
        <path class="cls-1" d="M166.57,10.69c-.18,.43-.65,.72-1.44,.61-2.23,3.56-5.15,6.08-8.35,7.59l-.43-.36c2.09-2.27,4.18-5.97,5.29-9.86l4.93,2.02Zm5.97,5.83c-.14,.43-.61,.76-1.51,.68-.4,1.33-.9,3.13-1.91,5.15,5.65,4.93,3.42,9.97-.11,7.74-.5-1.33-1.26-2.77-2.2-4.17-2.05,2.59-5.15,5.29-9.9,7.77l-.4-.58c4.14-3.38,6.7-6.8,8.31-9.93-1.58-1.94-3.31-3.74-4.86-5.22l.36-.29c2.27,.79,4.18,1.66,5.76,2.59,.76-2.12,1.08-4,1.22-5.51l5.22,1.76Zm-15.66-8.53l-.29-1.01h13.71l2.2-2.92s2.52,1.98,4,3.35c-.11,.4-.5,.58-1.01,.58h-18.61Zm4.57-7.63c10.44,.65,7.38,8.68,3.2,6.08-.43-2.12-2.02-4.43-3.49-5.9l.29-.18Zm5.33,8.64c10.51,.9,8.21,8.64,4.28,6.48-.72-2.2-2.77-4.75-4.57-6.26l.29-.22Zm21.24,.36c-.65,5.47-1.98,10.47-4.68,14.61,1.94,2.59,4.39,4.68,7.56,6.23l-.11,.36c-1.87,.4-3.06,1.44-3.56,3.28-2.56-1.87-4.46-4.28-5.9-7.2-2.66,3.06-6.23,5.51-11.12,7.34l-.25-.4c4.68-2.81,7.88-6.34,9.97-10.33-1.01-2.84-1.66-6.05-2.09-9.5-1.12,2.2-2.48,4.18-4,5.87l-.47-.25c1.98-5.04,3.56-12.35,4.1-19.22l5.69,1.19c-.11,.5-.54,.83-1.37,.86-.47,2.16-1.04,4.21-1.69,6.16h4.68l2.16-2.92s2.48,1.98,3.96,3.35c-.11,.4-.47,.58-1.01,.58h-1.87Zm-8.28,0c-.4,1.08-.83,2.12-1.3,3.13,.61,2.95,1.51,5.65,2.74,8.06,1.37-3.46,2.09-7.2,2.38-11.2h-3.82Z"/>
        <path class="cls-1" d="M211.29,18.43c-.25,.25-.58,.29-1.22,.32-.79,2.48-2.41,5.18-4.57,7.31,.22,.04,.43,.14,.68,.32,2.74,2.23,7.2,2.66,15.33,2.66,4.36-.04,7.77-.04,12.09-.29v.47c-1.69,.32-2.7,1.87-2.88,3.49h-10.69c-8.21,0-11.34-1.22-14.29-5-.54-.68-.9-.58-1.22,.07-.5,1.08-1.19,2.84-1.84,4.61,.11,.32,0,.54-.25,.72l-2.92-4.03c1.33-.72,3.2-2.09,4.39-2.74,1.12-2.27,1.94-5.29,2.23-7.88h-1.22l-1.22,1.22-3.24-2.16c.32-.29,.83-.54,1.33-.72,.9-1.73,2.12-4.25,2.84-6.05h-4.14l-.32-1.04h4.43l1.62-1.66,3.24,2.95c-.25,.29-.76,.47-1.37,.54-.72,1.58-1.94,4.1-2.88,5.9h.72l1.94-1.98,3.42,2.7v-6.95l2.77,1.12V.97l3.89,1.55h6.77l1.62-2.12,4.07,2.84c-.25,.36-.72,.58-1.62,.68V12.78l1.15-1.69,2.48,3.31c-.25,.25-.79,.5-1.37,.61v9.54c0,2.3-.65,3.64-4.46,3.82,0-1.15-.11-1.66-.43-2.23-.32-.58-1.01-1.01-2.2-1.22v-.47s1.69,.11,2.74,.11c.4,0,.54-.07,.54-.4V13.86h-12.27v12.67c0,.36-1.58,1.22-3.13,1.22h-.54v-9.32ZM201.89,.79c9.25,1.62,5.72,8.53,2.23,5.83-.18-1.94-1.4-4.21-2.56-5.62l.32-.22Zm20.52,23.72v-1.33h-2.66v1.15c0,.22-1.37,.94-2.66,.94h-.43V15.3l3.28,1.37h2.2l1.44-1.51,3.02,2.27c-.18,.22-.58,.47-1.08,.54v5.62c-.04,.25-1.55,.94-2.59,.94h-.5Zm-4.79-20.95V12.81h2.02V5.51l3.46,1.37h2.02V3.56h-7.49Zm4.79,18.57v-4.46h-2.66v4.46h2.66Zm.22-9.32h2.48V7.92h-2.48v4.9Z"/>
        <path class="cls-1" d="M242.97,8.85c9.11,.79,5.79,7.42,2.27,4.93-.32-1.69-1.51-3.56-2.56-4.68l.29-.25Zm9.57-2.63c-1.12,4.5-3.1,12.74-3.49,14.72-.22,1.22-.4,2.48-.4,3.42,.07,1.98,1.48,3.31,1.37,6.55-.04,1.8-1.19,2.99-2.84,2.99-.83,0-1.66-.5-1.87-1.91,.65-3.71,.5-7.16-.32-7.7-.5-.36-1.04-.5-1.84-.58v-.72h1.58c.47,0,.61,0,1.01-.76q.65-1.33,6.19-16.16l.61,.14Zm-7.2-5.83c9.72,1.01,6.3,8.03,2.56,5.44-.4-1.91-1.69-3.92-2.84-5.22l.29-.22Zm16.16,22.97c0,.25-1.08,.86-2.84,.86h-.61V13.68l3.78,1.55h7.81l1.01-1.15c-.76,.04-1.62,.04-2.7,.04h-3.17c-3.13,0-3.67-.65-3.67-2.66v-.32l-4.1,.4-.29-.79v4.21c0,5.94-.4,13.82-6.8,18.97l-.43-.25c3.24-5.54,3.49-12.45,3.49-18.72V4.5l4.32,1.58h4V.07l5.18,.47c-.07,.5-.36,.86-1.33,.97v1.76h3.74l1.98-2.63s2.2,1.84,3.53,3.1c-.07,.32-.32,.5-.68,.54l3.2,3.1c-.25,.29-.65,.36-1.33,.4-.86,.68-2.41,1.87-3.35,2.48l-.43-.22,.04-.32c-.14,.25-.43,.4-.79,.43l-6.33,.61v.36c0,.36,.07,.5,1.01,.5h5c.25-.04,.68-.07,.9-.11,.25,0,.68-.07,.94-.18h.32l.18,.07c1.01,.36,1.33,.61,1.33,1.19,0,.86-.54,1.26-2.16,1.4l2.45,1.84c-.22,.29-.58,.5-1.33,.61v6.66c0,.14-1.15,.76-2.95,.76h-.61v-.97h-8.28v.47Zm-3.35,1.37c2.2,9.29-5.79,7.92-3.31,4.61,1.33-.76,2.45-2.3,2.77-4.64l.54,.04Zm2.95-14.61v-3.02l4.64,.4c-.07,.47-.4,.79-1.04,.86v1.4l2.34-.22,1.51-2.27s2.02,1.26,3.28,2.2l.25-2.38h-15.37v3.46l4.39-.43Zm9.9,19.51c.86,.36,1.12,.76,1.12,1.33,0,1.4-1.26,1.87-5.94,1.87h-2.92c-2.95,0-3.42-.61-3.42-2.77v-5.51l4.43,.4c-.07,.43-.4,.76-1.08,.86v3.64c0,.36,.11,.47,.97,.47h2.38c.9,0,1.73,0,2.05-.04,.36,0,.58-.07,.79-.29,.25-.29,.68-1.19,1.12-2.34h.4l.11,2.38Zm-9.5-13.39v2.34h2.63v-2.34h-2.63Zm2.63,5.62v-2.23h-2.63v2.23h2.63Zm.22,1.51c7.59,1.12,4.32,7.16,1.8,4.75-.29-1.22-.9-3.2-2.12-4.46l.32-.29Zm.79-17.28h6.62l1.76-1.76h-8.39v1.76Zm2.09,10.15v2.34h2.56v-2.34h-2.56Zm2.56,5.62v-2.23h-2.56v2.23h2.56Zm1.08,2.59c7.85,2.27,4.21,8.42,1.83,5.76-.22-1.44-.79-3.85-2.16-5.44l.32-.32Z"/>
        <path class="cls-1" d="M305.1,6.91c1.51,4,1.26,7.09,.32,8.67-.68,1.08-2.34,1.33-3.06,.32-.58-.9-.22-1.94,.61-2.7,.86-1.04,1.8-3.89,1.55-6.3h.58Zm6.8-6.26c-.07,.5-.32,.86-1.33,1.01v31.06c0,.36-1.66,1.15-3.17,1.15h-.79V.11l5.29,.54Zm-.61,5.87c6.3,3.71,2.99,8.6,.65,6.08,.18-1.94-.43-4.36-1.12-5.9l.47-.18Zm21.96,8.75s2.09,1.98,3.2,3.31c-.07,.4-.4,.58-.9,.58h-11.7c-1.12,6.33-4.46,11.77-12.67,14.72l-.29-.36c5.72-3.71,7.96-8.71,8.75-14.36h-7.34l-.29-1.04h7.74c.14-1.44,.22-2.95,.22-4.46V7.85h-5.29l-.32-1.04h5.62V.14l5.62,.5c-.07,.5-.36,.9-1.3,1.04V6.8h2.84l1.98-2.09,3.92,2.99c-.22,.29-.72,.58-1.48,.72v9.47l1.69-2.63Zm-8.96-1.58c0,1.51-.11,2.99-.29,4.43h3.49V7.85h-3.2v5.83Zm1.26,7.92c12.53,5.9,9.36,14.83,5.15,11.38-.72-3.6-3.31-8.03-5.54-11.16l.4-.22Z"/>
        <path class="cls-1" d="M353.77,29.05c0,2.88-.54,4.43-4.93,4.86-.07-1.3-.22-2.27-.65-2.88-.5-.65-1.15-1.08-2.63-1.33v-.5s2.88,.18,3.49,.18c.54,0,.72-.14,.72-.61v-8.42c-.65,.4-1.33,.83-2.05,1.26-.11,.47-.47,.83-.9,.97l-1.73-4.79c.97-.22,2.63-.61,4.68-1.12v-7.06h-3.85l-.29-1.01h4.14V.04l5.33,.54c-.07,.5-.43,.86-1.33,1.01v7.02h.07l1.76-2.99s1.94,2.12,2.92,3.42c-.07,.4-.43,.58-.9,.58h-3.85v6.01c1.33-.36,2.7-.72,4.07-1.12l.11,.4c-1.08,.79-2.48,1.73-4.17,2.88v11.27Zm15.12-.04c1.15,.11,2.41,.14,3.82,.14,1.62,0,5.36,0,7.23-.04v.43c-1.22,.29-1.8,1.76-1.76,3.46h-5.69c-6.01,0-9.5-1.4-11.52-6.84-1.48,3.74-3.74,6.19-6.91,7.77l-.43-.36c2.74-3.28,4.36-7.74,4.39-13.35l5.47,.94c-.11,.47-.5,.79-1.33,.86-.22,1.12-.5,2.16-.83,3.13,.9,1.4,2.02,2.3,3.46,2.92v-9.36h-6.08l-.32-1.01h6.41v-3.82h-8.17l-.29-1.04h8.46v-3.56h-5.94l-.32-1.04h6.26v-2.92h-7.74l-.29-1.04h8.03V.25l5.36,.54c-.07,.5-.32,.86-1.26,1.01v2.48h4l2.2-2.95s2.45,2.02,3.92,3.42c-.11,.4-.5,.58-1.01,.58h-9.11v2.92h2.81l1.8-1.87,3.67,2.77c-.22,.25-.68,.54-1.26,.65v3.06h.04l1.48-2.38s1.73,1.69,2.63,2.84c-.07,.4-.43,.58-.9,.58h-3.24v4.97c-.04,.25-1.91,1.08-3.2,1.08h-.65v-1.22h-3.17v4.36h2.56l2.12-2.88s2.38,1.98,3.78,3.31c-.11,.4-.5,.58-1.01,.58h-7.45v4.93Zm0-16.16h3.17v-3.56h-3.17v3.56Zm0,4.86h3.17v-3.82h-3.17v3.82Z"/>
        <path class="cls-1" d="M407.63,20.48c-.36,2.45-1.12,4.68-2.7,6.62,4.79,1.8,11.01,2.34,17.42,2.3v.47c-1.76,.58-2.77,1.94-3.1,4-6.59-.68-12.13-1.98-16.27-4.89-2.77,2.2-7.05,3.89-13.68,4.97l-.18-.43c5.83-1.87,9.4-3.92,11.52-6.48-1.26-1.3-2.38-2.81-3.24-4.61l.4-.36c1.01,1.4,2.3,2.59,3.89,3.53,.9-1.51,1.4-3.2,1.69-5.11h-5.51v.94c0,.4-1.84,1.33-3.56,1.33h-.61V6.7l4.43,1.73h5.47V4.39h-13.64l-.29-1.04h25.12l2.52-3.06s2.81,2.09,4.54,3.53c-.11,.4-.5,.58-1.01,.58h-12.99v4.03h5.58l1.94-2.12,4.07,3.1c-.22,.29-.65,.61-1.4,.76v11.34c-.04,.29-2.16,1.04-3.53,1.04h-.72v-2.05h-6.16Zm-9.75-11.01v4.39h5.72v-4.39h-5.72Zm5.62,10.01c.07-.9,.11-1.84,.11-2.84v-1.73h-5.72v4.57h5.62Zm10.29,0v-4.57h-5.94v1.62c0,1.01-.04,2.02-.11,2.95h6.05Zm-5.94-10.01v4.39h5.94v-4.39h-5.94Z"/>
        <path class="cls-1" d="M462.02,9.72s2.59,2.12,4.1,3.6c-.07,.4-.47,.58-.97,.58h-3.1v18.83c0,.25-1.26,1.12-3.42,1.12h-.72V13.89h-3.46v1.29c0,6.44-.61,13.93-8.64,18.65l-.4-.4c4.46-5.18,4.97-11.77,4.97-18.32v-1.01c-.18,.18-.47,.25-.79,.25h-6.84v4.28h1.69l1.87-2.56s2.09,1.76,3.31,2.99c-.11,.4-.43,.58-.94,.58h-5.94v13.25c0,.22-1.22,.9-3.31,.9h-.72v-10.44h-.11c-1.33,2.56-3.42,5.79-6.19,7.95l-.36-.4c1.69-2.88,2.77-7.27,3.2-10.15l3.46,1.51v-2.63h-5.83l-.29-1.01h6.12v-4.28h-6.51l-.29-1.04h9.65c.65-2.05,1.3-4.75,1.62-6.77h-7.63c7.34,3.28,3.6,8.75,.9,5.98,.04-1.98-.76-4.28-1.48-5.9l.22-.07h-2.45l-.29-1.04h7.56c-.29-.11-.58-.29-.86-.5-.11-1.69-1.04-3.6-1.91-4.82l.29-.18c6.52,.94,6.19,4.64,4.21,5.51h2.3l1.83-2.56s2.16,1.76,3.46,3.02c-.11,.4-.47,.58-.97,.58h-4.57l4.32,1.33c-.14,.43-.58,.72-1.33,.65-1.04,1.4-2.59,3.24-4.21,4.79h2.48l1.98-2.66s2.02,1.69,3.35,2.95V3.02l4.21,1.33c2.45-1.3,5-3.02,6.41-4.28l4.43,3.53c-.4,.36-1.12,.43-2.2,.11-2.2,.72-5.54,1.44-8.78,1.87v7.27h5.25l2.3-3.13Zm-18.75,11.52c8.03,3.38,4.46,9.61,1.55,6.8,.04-2.27-.9-4.86-1.91-6.62l.36-.18Z"/>
      </g>
      <g>
        <path class="cls-1" d="M.29,65.01H7.34c.18,0,.27,.12,.27,.36v.72c0,.25-.09,.38-.27,.38h-2.59v16.44c0,1.15-.92,1.72-2.77,1.72H.8c-.1,0-.16-.15-.16-.45-.03-.33-.15-.72-.36-1.19v-.09c.54,.12,1.07,.18,1.59,.18,.85,0,1.27-.27,1.27-.81v-15.81H.29c-.19,0-.29-.13-.29-.38v-.72c0-.24,.1-.36,.29-.36Zm11.07,15.86l1.25,.94c.12,.12,.18,.22,.18,.29,0,.04-.06,.07-.18,.09-.16,.02-.29,.06-.38,.13-.45,.46-.91,.88-1.39,1.25-.6,.43-1.35,.87-2.26,1.3-.18,0-.3-.05-.36-.16-.33-.25-.6-.47-.81-.65-.12-.04-.18-.1-.18-.18,0-.03,.03-.06,.09-.09,.43-.12,.79-.28,1.07-.47,.6-.31,1.12-.68,1.57-1.1,.39-.33,.81-.75,1.25-1.25,.04-.07,.09-.11,.13-.11Zm-2.86-16.19h11.83c.1,0,.16,.08,.16,.25v.74c0,.22-.05,.33-.16,.33h-5.23l-1.16,2.24h5.57c.24,0,.36,.1,.36,.29v12.06c0,.19-.12,.29-.36,.29H9.12c-.24,0-.36-.1-.36-.29v-12.06c0-.19,.12-.29,.36-.29h3.02l1.16-2.24h-4.81c-.12,0-.18-.11-.18-.33v-.74c0-.16,.06-.25,.18-.25Zm1.88,7.22h7.87v-2.24h-7.87v2.24Zm0,3.85h7.87v-2.42h-7.87v2.42Zm7.87,3.67v-2.24h-7.87v2.24h7.87Zm-1.43,1.45c.64,.63,1.25,1.13,1.81,1.5,.43,.3,1.08,.61,1.95,.94,.12,.09,.18,.16,.18,.22,0,.15-.33,.57-.98,1.25-.04,0-.12,0-.22-.02-1.65-.92-2.88-1.78-3.67-2.57-.09-.09-.13-.15-.13-.18,0-.13,.36-.51,1.07-1.14Z"/>
        <path class="cls-1" d="M29.84,63.6l1.77,.98c.07,.15,.11,.23,.11,.25,0,.13-.13,.2-.38,.2-.36,0-.59,.08-.69,.25-.95,1.42-1.86,2.7-2.73,3.85,.54,.48,1.09,1.01,1.66,1.59,.21-.27,.41-.54,.6-.81,1.01-1.31,1.86-2.5,2.53-3.56,1.07,.92,1.61,1.43,1.61,1.52,0,.12-.1,.18-.31,.18-.4,0-.66,.06-.76,.18-1.49,2.07-2.96,3.98-4.41,5.73,1.09-.16,2.42-.34,3.98-.54-.19-.57-.41-1.13-.65-1.7,0-.09,.39-.33,1.16-.72,.43,1,.78,1.92,1.05,2.75,.25,.76,.47,1.57,.65,2.44,0,.06-.48,.21-1.43,.45-.06-.57-.21-1.26-.45-2.08v-.04l-2.5,.65v9.46c0,.16-.12,.25-.36,.25h-.89c-.24,0-.36-.08-.36-.25v-9.04l-2.68,.69c-.42,.49-.66,.74-.72,.74s-.21-.75-.45-2.26c0-.1,.49-.25,1.48-.42,.82-1,1.55-1.9,2.19-2.71-.82-.67-1.45-1.16-1.88-1.48-.64-.42-1.33-.79-2.06-1.12,0-.13,.32-.53,.96-1.19,.06-.1,.13-.16,.2-.16,.24,.16,.48,.33,.72,.51,.54-.69,1.01-1.36,1.43-2.04,.76-1.16,1.3-2.02,1.61-2.57Zm-2.95,13.84c1.13,.24,1.7,.42,1.7,.56,0,.15-.08,.26-.25,.33-.22,.12-.35,.26-.38,.42-.18,1.34-.41,2.45-.69,3.31-.18,.48-.38,.96-.6,1.45-.07,.13-.15,.2-.22,.2-.51-.16-.95-.28-1.32-.34-.13-.03-.2-.1-.2-.22,.39-.64,.72-1.35,.98-2.12,.28-.75,.51-1.86,.69-3.35,0-.16,.1-.25,.29-.25Zm5.99-.27s.07,.06,.09,.18c.28,.8,.61,2.09,.98,3.85,0,.13-.42,.25-1.25,.36-.12,0-.18-.05-.18-.16-.15-1.22-.39-2.51-.72-3.87,0-.1,.36-.22,1.07-.36Zm3.76-11.52h-1.97c-.18,0-.27-.13-.27-.38v-.69c0-.19,.09-.29,.27-.29h8.5c.22,0,.36,.03,.4,.09,.33,.24,.49,.42,.49,.54l-1.99,6.53h2.62c.15,0,.3,.04,.47,.13,.28,.21,.43,.37,.43,.49-.21,1.36-.42,2.47-.63,3.35-.27,.94-.61,1.86-1.03,2.77-.25,.58-.6,1.25-1.05,1.99-.22,.31-.45,.63-.67,.94,.06,.06,.12,.12,.18,.18,1.04,.89,2.29,1.72,3.73,2.48,0,.09-.06,.17-.18,.25-.24,.18-.51,.38-.8,.6-.09,.09-.21,.13-.36,.13-.89-.51-1.77-1.12-2.64-1.83-.33-.25-.62-.5-.87-.74-.45,.48-1.04,.97-1.77,1.48-.55,.4-1.36,.86-2.42,1.36-.16,0-.29-.08-.38-.22-.31-.25-.65-.49-1.01-.72-.09-.1-.13-.18-.13-.22,0-.06,.04-.1,.13-.13,1.12-.43,2.04-.89,2.75-1.39,.64-.37,1.2-.81,1.68-1.32-.18-.21-.36-.42-.54-.65-.64-.86-1.19-1.95-1.66-3.26-.06-.15-.12-.31-.18-.47-.08,.4-.16,.78-.25,1.12-.31,1.45-.95,2.89-1.9,4.34-.49,.85-1.19,1.68-2.1,2.5-.1,0-.18-.02-.22-.04-.25-.25-.53-.47-.83-.65-.07-.08-.11-.17-.11-.29,.86-.76,1.65-1.77,2.35-3.04,.69-1.34,1.18-2.75,1.48-4.23,.31-1.54,.47-3.41,.47-5.64v-5.08Zm1.61,5.79h2.26l1.88-5.79h-4.14v5.79Zm.2,1.43c.09,1.33,.28,2.41,.58,3.24,.31,.91,.73,1.84,1.25,2.8,.22,.34,.49,.7,.8,1.07,.37-.48,.68-.93,.92-1.36,.45-.8,.83-1.64,1.14-2.5,.24-.83,.49-1.92,.76-3.24h-5.46Z"/>
        <path class="cls-1" d="M60.4,64.03c1.15,0,1.72,.09,1.72,.27,0,.21-.08,.33-.25,.36-.15,.02-.22,.16-.22,.45v1.25h8.95c.18,0,.27,.12,.27,.36v.74c0,.22-.09,.34-.27,.34h-19.86c-.18,0-.27-.11-.27-.34v-.74c0-.24,.09-.36,.27-.36h9.3v-2.06c0-.18,.12-.27,.36-.27Zm-8.5,11.12h17.36c.3,0,.45,.11,.45,.34v8.39c0,.33-.27,.6-.8,.81-.51,.15-1.16,.25-1.97,.29-.16,0-.26-.08-.29-.25-.02-.33-.19-.81-.51-1.45,0-.03,.05-.04,.16-.04,.87,0,1.37-.04,1.52-.11,.19-.06,.29-.17,.29-.33v-6.22h-14.94v7.98c0,.16-.12,.25-.36,.25h-.89c-.24,0-.36-.08-.36-.25v-9.06c0-.22,.12-.34,.36-.34Zm2.86-6.02h11.72c.24,0,.36,.1,.36,.29v4.18c0,.18-.12,.27-.36,.27h-11.72c-.24,0-.36-.09-.36-.27v-4.18c0-.19,.12-.29,.36-.29Zm1.52,8.95h9.12c.24,0,.36,.09,.36,.27v4.03c0,.19-.12,.29-.36,.29h-9.12c-.24,0-.36-.1-.36-.29v-4.03c0-.18,.12-.27,.36-.27Zm8.95-5.64v-1.88h-9.21v1.88h9.21Zm-1.07,8.86v-1.88h-6.62v1.88h6.62Z"/>
        <path class="cls-1" d="M82.56,69.42l1.52,.18c.18,.03,.27,.08,.27,.16,0,.15-.05,.24-.16,.27-.13,.01-.2,.11-.2,.29v3.96c.98-.48,2-1.03,3.04-1.66,1-.63,1.83-1.23,2.5-1.81,.58-.43,1.12-.93,1.63-1.5,.09-.12,.17-.18,.25-.18s.21,.04,.4,.13c.82,.73,1.23,1.13,1.23,1.21,0,.18-.1,.27-.29,.27l-.36-.09c-.16,0-.33,.08-.49,.22-1.46,1.09-2.59,1.92-3.4,2.5-.86,.54-1.83,1.09-2.91,1.66-.3,.13-.6,.27-.89,.4,.15,.03,.33,.04,.54,.04h3.4c1,0,1.59-.1,1.79-.31,.24-.19,.54-.89,.89-2.08,.19,.3,.51,.57,.96,.83,.19,.09,.29,.2,.29,.33-.49,1.38-.87,2.13-1.12,2.27-.27,.32-.82,.49-1.65,.49h-4.74c-1.24,0-2.04-.26-2.42-.77-.13,.04-.25,.08-.36,.11-1.54,.52-3.36,1-5.46,1.44-.28,0-.45-.05-.49-.16-.17-.28-.43-.56-.78-.82-.1-.09-.16-.18-.16-.26,0-.07,.08-.11,.25-.11,1.09-.12,1.84-.21,2.26-.29,.91-.16,1.83-.38,2.75-.64,.63-.18,1.2-.37,1.72-.58v-5.26c0-.16,.06-.25,.18-.25Zm3.04-5.3c1.15,0,1.72,.09,1.72,.27,0,.21-.08,.33-.25,.36-.15,.01-.22,.16-.22,.45v.89h8.23c.24,0,.36,.09,.36,.27v4.38c0,.18-.12,.27-.36,.27h-.9c-.24,0-.36-.09-.36-.27v-3.2h-15.92v3.29c0,.18-.12,.27-.36,.27h-.89c-.24,0-.36-.09-.36-.27v-4.36c0-.25,.12-.38,.36-.38h8.59v-1.7c0-.18,.12-.27,.36-.27Zm-6.26,5.64c1.13,.24,1.7,.42,1.7,.56,0,.15-.09,.26-.27,.34-.21,.09-.32,.19-.33,.31-.17,1.01-.38,1.84-.65,2.48-.18,.36-.38,.72-.6,1.1-.07,.09-.14,.13-.2,.13-.51-.15-.95-.25-1.32-.31-.13-.03-.2-.1-.2-.2,.37-.51,.69-1.05,.94-1.63,.28-.6,.5-1.46,.65-2.59,0-.12,.1-.18,.29-.18Zm6.17,8.25c1.13,0,1.7,.08,1.7,.25,0,.21-.08,.32-.22,.33-.15,.02-.22,.17-.22,.47v3.04h5.46v-3.11c0-.19,.12-.29,.36-.29,1.13,0,1.7,.1,1.7,.29s-.08,.3-.22,.31c-.15,.03-.22,.19-.22,.49v4.83c0,.16-.12,.25-.36,.25h-.89c-.24,0-.36-.08-.36-.25v-1.1h-12.7v1.1c0,.16-.12,.25-.36,.25h-.89c-.24,0-.36-.08-.36-.25v-5.64c0-.19,.12-.29,.36-.29,1.13,0,1.7,.1,1.7,.29s-.08,.3-.22,.31c-.15,.03-.22,.19-.22,.49v2.3h5.64v-3.85c0-.16,.12-.25,.36-.25Zm.45-9.48c.7,.27,1.28,.53,1.72,.78,.52,.3,.96,.57,1.32,.8,0,.02-.04,.08-.11,.18-.45,.61-.68,.92-.69,.92-.55-.4-1.14-.76-1.77-1.07-.51-.27-.93-.45-1.27-.56,0-.08,.21-.38,.63-.92,.07-.09,.13-.13,.18-.13Zm7.69,2.68c.61,.8,1.11,1.54,1.5,2.21,.36,.61,.66,1.27,.92,1.97,0,.06-.48,.21-1.43,.45-.1-.45-.33-1-.67-1.65-.37-.76-.86-1.52-1.48-2.28,0-.09,.39-.32,1.16-.69Z"/>
        <path class="cls-1" d="M112.22,64.03c1.13,0,1.7,.09,1.7,.27,0,.21-.07,.33-.22,.36-.15,.02-.22,.16-.22,.45v.98h7.51c.18,0,.27,.13,.27,.38v.69c0,.25-.09,.38-.27,.38h-16.82v5.73c0,2.47-.14,4.44-.42,5.88-.18,1.22-.54,2.44-1.07,3.65-.27,.73-.66,1.42-1.19,2.08-.1,0-.18-.02-.22-.04-.25-.24-.53-.45-.83-.63-.07-.08-.11-.18-.11-.31,.45-.61,.85-1.45,1.21-2.5,.37-1.1,.63-2.26,.78-3.47,.16-1.28,.25-2.83,.25-4.65v-6.8c0-.25,.12-.38,.36-.38h8.95v-1.79c0-.18,.12-.27,.36-.27Zm-5.99,12.61h12.01c.15,0,.28,.04,.38,.11,.33,.33,.49,.53,.49,.6-.58,1.06-1.13,1.87-1.63,2.44-.63,.73-1.26,1.33-1.9,1.79-.21,.15-.42,.29-.63,.42,.54,.16,1.13,.33,1.79,.49,1.07,.28,2.45,.54,4.14,.76,.19,.03,.29,.06,.29,.09,0,.1-.04,.2-.13,.29-.3,.27-.61,.57-.94,.92-.1,.15-.19,.22-.27,.22s-.25-.04-.51-.11c-.82-.15-1.7-.34-2.64-.56-1.16-.3-2.21-.64-3.15-1.03-.13-.04-.25-.09-.36-.13-.03,0-.05,0-.07,.02-1.1,.49-2.32,.9-3.65,1.23-.89,.25-2.06,.48-3.49,.67-.22,0-.38-.07-.47-.2l-.54-.81c-.1-.09-.16-.16-.16-.22,0-.07,.07-.12,.2-.13,.89-.1,1.77-.24,2.62-.4,1.52-.28,2.79-.63,3.8-1.05-.18-.1-.34-.21-.49-.31-.83-.54-1.44-1.09-1.81-1.65-.54-.55-1.01-1.25-1.41-2.08h-1.48c-.18,0-.27-.13-.27-.38v-.69c0-.19,.09-.29,.27-.29Zm-1.07-6.42h3.4v-1.45c0-.16,.12-.25,.36-.25,1.13,0,1.7,.08,1.7,.25,0,.21-.08,.32-.22,.34-.15,.01-.22,.17-.22,.47v.65h5.28v-1.45c0-.16,.12-.25,.36-.25,1.13,0,1.7,.08,1.7,.25,0,.21-.08,.32-.22,.34-.15,.01-.22,.17-.22,.47v.65h3.85c.13,0,.2,.08,.2,.25v.74c0,.22-.07,.33-.2,.33h-3.85v3.04c0,.24-.12,.36-.36,.36h-7.78c-.24,0-.36-.12-.36-.36v-3.04h-3.4c-.12,0-.18-.11-.18-.33v-.74c0-.16,.06-.25,.18-.25Zm4.25,7.78c.19,.33,.4,.63,.63,.89,.45,.55,1.01,1.07,1.7,1.54,.42,.31,.89,.58,1.41,.81,.45-.22,.86-.46,1.23-.72,.7-.48,1.28-1.03,1.72-1.66,.24-.24,.47-.53,.69-.87h-7.38Zm6.04-4.41v-2.06h-5.28v2.06h5.28Z"/>
        <path class="cls-1" d="M126.25,69.75c.73,.4,1.33,.77,1.79,1.1,.55,.43,1.02,.81,1.41,1.14,0,.03-.04,.1-.11,.22-.49,.7-.75,1.05-.78,1.05-.6-.57-1.22-1.08-1.88-1.54-.54-.39-.98-.66-1.34-.8,0-.07,.23-.41,.69-1.01,.07-.1,.15-.16,.22-.16Zm3.73,4.83c.08,0,.13,.06,.16,.18,.37,.85,.56,1.3,.56,1.36,0,.1-.04,.2-.11,.29-.64,1.65-1.25,3.06-1.83,4.2-.31,.66-.69,1.38-1.14,2.17-.09,.19-.13,.44-.13,.74,0,.18-.06,.27-.18,.27s-.6-.48-1.45-1.43c-.07-.04-.13-.13-.16-.27,0-.12,.03-.22,.09-.29,.42-.42,.82-.94,1.21-1.57,.57-.85,1.12-1.81,1.66-2.88,.48-.94,.88-1.8,1.21-2.59,.04-.12,.09-.18,.13-.18Zm-1.61-10.2c.76,.4,1.39,.78,1.88,1.12,.57,.4,1.04,.78,1.43,1.12,0,.03-.04,.1-.13,.2-.49,.7-.75,1.05-.76,1.05-.61-.55-1.26-1.06-1.95-1.52-.55-.37-1.01-.63-1.36-.78,0-.1,.24-.44,.72-1.01,.07-.12,.13-.18,.18-.18Zm9.33-.45c1.12,0,1.68,.09,1.68,.27,0,.21-.07,.33-.22,.36-.15,.01-.22,.16-.22,.45v.47h5.99c.12,0,.18,.08,.18,.25v.54c0,.24-.06,.36-.18,.36h-5.99v1.07h6.98c.25,0,.38,.09,.38,.27v2.26c0,.16-.12,.25-.38,.25h-.88c-.18,0-.26-.08-.26-.25v-1.28h-6.91v1.23l5.37-.6c.13,0,.2,.09,.2,.27v.56c0,.22-.07,.34-.2,.34l-5.37,.6c.03,.43,.36,.65,.98,.65h4.03c.37,0,.63-.05,.78-.16,.16-.07,.28-.32,.34-.74,.01-.06,.06-.09,.13-.09,.34,.21,.7,.32,1.07,.34,.18,.01,.27,.08,.27,.2-.21,.67-.47,1.13-.78,1.36-.22,.18-.59,.27-1.1,.27h-5.37c-1.07,0-1.61-.39-1.61-1.19v-.51l-2.24,.25c-.12,0-.18-.11-.18-.33v-.56c0-.18,.06-.27,.18-.27l2.24-.22v-1.39h-3.31v4.92c0,2.24-.16,4.01-.47,5.32-.19,1.09-.58,2.18-1.16,3.26-.31,.66-.75,1.28-1.32,1.88-.1,0-.18-.01-.22-.04-.25-.21-.53-.39-.83-.56-.07-.08-.11-.17-.11-.29,.52-.54,.99-1.28,1.41-2.24,.43-1,.73-2.04,.89-3.13,.19-1.15,.29-2.55,.29-4.2v-5.9c0-.18,.09-.27,.27-.27h5.28v-3.49c0-.18,.13-.27,.38-.27Zm-3.51,16.55l1.14,.45c.19,.09,.29,.18,.29,.27,0,.1-.04,.18-.13,.22-.12,0-.19,.08-.22,.25-.34,1.12-.67,2-.98,2.64-.07,.15-.13,.22-.18,.22-.09,0-.2-.05-.33-.16-.27-.1-.52-.21-.76-.31-.1-.03-.16-.06-.16-.09s.01-.08,.04-.13c.31-.57,.54-1.06,.69-1.48,.22-.55,.39-1.1,.49-1.63,.03-.16,.07-.25,.11-.25Zm.89-6.42h9.66c.24,0,.36,.08,.36,.25v4.92c0,.18-.12,.27-.36,.27h-9.66c-.24,0-.36-.09-.36-.27v-4.92c0-.16,.12-.25,.36-.25Zm1.16,2.12h2.86v-.98h-2.86v.98Zm2.86,2.15v-.98h-2.86v.98h2.86Zm-2.5,1.7c1.01,.09,1.52,.21,1.52,.36,0,.09-.09,.22-.27,.38v2.21c0,.18,.06,.27,.18,.27h4.12c.31,0,.61-.45,.89-1.34l1.34,.83c-.51,1.31-1.13,1.97-1.88,1.97h-5.01c-.78,0-1.16-.33-1.16-.98v-3.42c0-.18,.09-.27,.27-.27Zm3.31-.16s.07,.01,.13,.04c.54,.31,1.1,.72,1.68,1.23,.04,.03,.07,.08,.07,.13,0,.08-.02,.13-.07,.18l-.4,.54c-.12,.06-.23,.09-.34,.09-.03,0-.08-.03-.16-.09-.51-.42-1.01-.76-1.5-1.03-.09-.03-.13-.07-.13-.11,0-.07,.01-.16,.04-.25l.47-.67c.07-.04,.14-.07,.2-.07Zm.72-4.67v.98h2.95v-.98h-2.95Zm2.95,3.13v-.98h-2.95v.98h2.95Zm.72,1.88c.55,.39,1.01,.74,1.36,1.05,.42,.42,.77,.78,1.05,1.1,0,.01-.03,.07-.09,.16-.4,.55-.61,.83-.63,.83-.45-.52-.93-.99-1.45-1.41-.42-.34-.77-.59-1.05-.74,0-.06,.21-.34,.63-.85,.06-.09,.12-.13,.18-.13Z"/>
        <path class="cls-1" d="M153.66,71.63l1.5,.63c.25,.1,.38,.22,.38,.36,0,.25-.09,.44-.27,.56-.25,0-.42,.19-.49,.56-.67,2.8-1.34,4.97-2.01,6.51-.15,.36-.27,.54-.36,.54-.12,0-.26-.06-.42-.18-.34-.16-.67-.3-.98-.42-.13-.06-.2-.1-.2-.13,0-.07,.04-.19,.11-.36,.66-1.34,1.14-2.51,1.45-3.51,.48-1.31,.83-2.62,1.05-3.94,.07-.4,.16-.6,.25-.6Zm3.85-2.3l1.68,.18c.19,.03,.29,.08,.29,.16,0,.15-.05,.24-.16,.27-.13,.02-.2,.11-.2,.29v11.16c0,.72,.42,1.07,1.25,1.07h4.29c1.25,0,2.01-.21,2.28-.63,.3-.36,.67-1.7,1.12-4.03,.21,.34,.54,.65,1.01,.92,.22,.09,.34,.2,.34,.33-.61,2.52-1.08,3.91-1.41,4.16-.33,.57-1.02,.85-2.08,.85h-5.73c-1.85,0-2.77-.57-2.77-1.7v-12.79c0-.16,.03-.25,.09-.25Zm1.07-5.12c.09,0,.22,.04,.4,.13,1.74,.79,3.52,1.8,5.32,3.02,.18,.09,.27,.2,.27,.34,0,.09-.03,.16-.09,.22l-.47,.65c-.17,.08-.31,.11-.43,.11s-.28-.08-.47-.25c-1.71-1.09-3.37-1.99-4.97-2.71-.31-.09-.47-.21-.47-.36,0-.09,.02-.17,.07-.25l.58-.83c.09-.06,.17-.09,.25-.09Zm7.69,7.18c1.31,.83,2.38,1.62,3.22,2.35,.98,.92,1.82,1.75,2.5,2.46,0,.03-.04,.1-.13,.22-.54,.75-.82,1.12-.85,1.12-1.07-1.16-2.21-2.21-3.4-3.15-.95-.79-1.76-1.35-2.42-1.68,0-.09,.28-.48,.85-1.16,.09-.1,.16-.16,.22-.16Z"/>
        <path class="cls-1" d="M176.64,69.75c.73,.4,1.33,.77,1.79,1.1,.55,.43,1.02,.81,1.41,1.14,0,.03-.04,.1-.11,.22-.49,.7-.75,1.05-.78,1.05-.6-.57-1.22-1.08-1.88-1.54-.54-.39-.98-.66-1.34-.8,0-.07,.23-.41,.69-1.01,.07-.1,.15-.16,.22-.16Zm3.73,4.83c.08,0,.13,.06,.16,.18,.37,.85,.56,1.3,.56,1.36,0,.1-.04,.2-.11,.29-.64,1.65-1.25,3.06-1.83,4.2-.31,.66-.69,1.38-1.14,2.17-.09,.19-.13,.44-.13,.74,0,.18-.06,.27-.18,.27s-.6-.48-1.45-1.43c-.07-.04-.13-.13-.16-.27,0-.12,.03-.22,.09-.29,.42-.42,.82-.94,1.21-1.57,.57-.85,1.12-1.81,1.66-2.88,.48-.94,.88-1.8,1.21-2.59,.04-.12,.09-.18,.13-.18Zm-1.61-10.2c.76,.4,1.39,.78,1.88,1.12,.57,.4,1.04,.78,1.43,1.12,0,.03-.04,.1-.13,.2-.49,.7-.75,1.05-.76,1.05-.61-.55-1.26-1.06-1.95-1.52-.55-.37-1.01-.63-1.36-.78,0-.1,.24-.44,.72-1.01,.07-.12,.13-.18,.18-.18Zm9.33-.45c1.12,0,1.68,.09,1.68,.27,0,.21-.07,.33-.22,.36-.15,.01-.22,.16-.22,.45v.47h5.99c.12,0,.18,.08,.18,.25v.54c0,.24-.06,.36-.18,.36h-5.99v1.07h6.98c.25,0,.38,.09,.38,.27v2.26c0,.16-.12,.25-.38,.25h-.88c-.18,0-.26-.08-.26-.25v-1.28h-6.91v1.23l5.37-.6c.13,0,.2,.09,.2,.27v.56c0,.22-.07,.34-.2,.34l-5.37,.6c.03,.43,.36,.65,.98,.65h4.03c.37,0,.63-.05,.78-.16,.16-.07,.28-.32,.34-.74,.01-.06,.06-.09,.13-.09,.34,.21,.7,.32,1.07,.34,.18,.01,.27,.08,.27,.2-.21,.67-.47,1.13-.78,1.36-.22,.18-.59,.27-1.1,.27h-5.37c-1.07,0-1.61-.39-1.61-1.19v-.51l-2.24,.25c-.12,0-.18-.11-.18-.33v-.56c0-.18,.06-.27,.18-.27l2.24-.22v-1.39h-3.31v4.92c0,2.24-.16,4.01-.47,5.32-.19,1.09-.58,2.18-1.16,3.26-.31,.66-.75,1.28-1.32,1.88-.1,0-.18-.01-.22-.04-.25-.21-.53-.39-.83-.56-.07-.08-.11-.17-.11-.29,.52-.54,.99-1.28,1.41-2.24,.43-1,.73-2.04,.89-3.13,.19-1.15,.29-2.55,.29-4.2v-5.9c0-.18,.09-.27,.27-.27h5.28v-3.49c0-.18,.13-.27,.38-.27Zm-3.51,16.55l1.14,.45c.19,.09,.29,.18,.29,.27,0,.1-.04,.18-.13,.22-.12,0-.19,.08-.22,.25-.34,1.12-.67,2-.98,2.64-.07,.15-.13,.22-.18,.22-.09,0-.2-.05-.33-.16-.27-.1-.52-.21-.76-.31-.1-.03-.16-.06-.16-.09s.01-.08,.04-.13c.31-.57,.54-1.06,.69-1.48,.22-.55,.39-1.1,.49-1.63,.03-.16,.07-.25,.11-.25Zm.89-6.42h9.66c.24,0,.36,.08,.36,.25v4.92c0,.18-.12,.27-.36,.27h-9.66c-.24,0-.36-.09-.36-.27v-4.92c0-.16,.12-.25,.36-.25Zm1.16,2.12h2.86v-.98h-2.86v.98Zm2.86,2.15v-.98h-2.86v.98h2.86Zm-2.5,1.7c1.01,.09,1.52,.21,1.52,.36,0,.09-.09,.22-.27,.38v2.21c0,.18,.06,.27,.18,.27h4.12c.31,0,.61-.45,.89-1.34l1.34,.83c-.51,1.31-1.13,1.97-1.88,1.97h-5.01c-.78,0-1.16-.33-1.16-.98v-3.42c0-.18,.09-.27,.27-.27Zm3.31-.16s.07,.01,.13,.04c.54,.31,1.1,.72,1.68,1.23,.04,.03,.07,.08,.07,.13,0,.08-.02,.13-.07,.18l-.4,.54c-.12,.06-.23,.09-.34,.09-.03,0-.08-.03-.16-.09-.51-.42-1.01-.76-1.5-1.03-.09-.03-.13-.07-.13-.11,0-.07,.01-.16,.04-.25l.47-.67c.07-.04,.14-.07,.2-.07Zm.72-4.67v.98h2.95v-.98h-2.95Zm2.95,3.13v-.98h-2.95v.98h2.95Zm.72,1.88c.55,.39,1.01,.74,1.36,1.05,.42,.42,.77,.78,1.05,1.1,0,.01-.03,.07-.09,.16-.4,.55-.61,.83-.63,.83-.45-.52-.93-.99-1.45-1.41-.42-.34-.77-.59-1.05-.74,0-.06,.21-.34,.63-.85,.06-.09,.12-.13,.18-.13Z"/>
        <path class="cls-1" d="M219.27,65.19h8.59v-.98c0-.18,.12-.27,.36-.27,1.13,0,1.7,.09,1.7,.27,0,.21-.07,.33-.22,.36-.15,.01-.22,.16-.22,.45v.18h9.04c.12,0,.18,.1,.18,.29v.69c0,.25-.06,.38-.18,.38h-9.04v1.41h5.9c.24,0,.36,.09,.36,.27v6.44c0,.18-.12,.27-.36,.27h-5.9v1.5c1.39-.04,2.91-.1,4.56-.18,.73-.03,1.36-.06,1.88-.09-.1-.21-.22-.41-.36-.6,0-.1,.42-.37,1.25-.8,.43,.69,.78,1.32,1.03,1.9,.27,.52,.49,1.08,.67,1.68,0,.06-.51,.22-1.52,.47-.07-.37-.22-.83-.45-1.39-.01-.01-.02-.03-.02-.04-.8,.03-1.63,.07-2.48,.11v1.74h4.85c.1,0,.16,.09,.16,.27v.72c0,.24-.05,.36-.16,.36h-4.85v2.59c0,1.13-.92,1.7-2.77,1.7h-.8c-.1,0-.16-.14-.16-.42-.03-.33-.16-.72-.38-1.19v-.09c.43,.12,.85,.18,1.25,.18,.83,0,1.25-.27,1.25-.8v-1.97h-13.58c-.13,0-.2-.12-.2-.36v-.72c0-.18,.07-.27,.2-.27h13.58v-1.65c-3.71,.22-7.53,.45-11.45,.67-.12,.4-.24,.62-.36,.65-.09,0-.17-.05-.25-.16l-.56-1.92c1.13-.03,3.82-.13,8.05-.31v-1.57h-5.73c-.24,0-.36-.09-.36-.27v-6.44c0-.18,.12-.27,.36-.27h5.73v-1.41h-8.59c-.12,0-.18-.13-.18-.38v-.69c0-.19,.06-.29,.18-.29Zm4.65,15.59s.11,.02,.2,.07c.88,.48,1.78,1.1,2.71,1.86,.09,.06,.13,.13,.13,.2,0,.1-.02,.19-.07,.25l-.51,.69c-.15,.09-.28,.13-.4,.13-.06,0-.14-.05-.25-.16-.86-.64-1.69-1.17-2.48-1.59-.15-.06-.22-.13-.22-.22,0-.07,.02-.16,.07-.27l.58-.87c.09-.06,.17-.09,.25-.09Zm-.54-10.04h4.47v-1.41h-4.47v1.41Zm4.47,2.86v-1.52h-4.47v1.52h4.47Zm1.61-4.27v1.41h4.65v-1.41h-4.65Zm4.65,4.27v-1.52h-4.65v1.52h4.65Z"/>
        <path class="cls-1" d="M253.86,65.57c-.09,0-.22,.02-.38,.07-.63,.25-1.38,.48-2.26,.69-.16,.06-.33,.1-.49,.13v4h4.29c.18,0,.27,.12,.27,.36v.72c0,.24-.09,.36-.27,.36h-4.05c.46,.97,.89,1.74,1.28,2.33,.51,.79,1.36,1.7,2.57,2.73,.13,.06,.2,.13,.2,.22,0,.06-.05,.13-.16,.2-.16,.21-.39,.44-.67,.69-.09,.12-.17,.18-.25,.18-.09,0-.22-.04-.4-.13-.82-.77-1.54-1.65-2.17-2.64-.22-.36-.44-.73-.65-1.12v10.18c0,.16-.12,.25-.36,.25h-.89c-.24,0-.36-.08-.36-.25v-9.48c-.09,.16-.17,.31-.25,.45-.52,.89-1.09,1.74-1.7,2.53-.69,.82-1.38,1.52-2.08,2.1-.18,0-.31-.04-.4-.13-.28-.28-.57-.54-.87-.78-.04-.1-.07-.18-.07-.22,.66-.49,1.2-.97,1.63-1.43,.61-.61,1.25-1.43,1.92-2.46,.4-.64,.95-1.71,1.66-3.2h-4.85c-.18,0-.27-.12-.27-.36v-.72c0-.24,.09-.36,.27-.36h5.01v-3.69c-.27,.04-.53,.08-.78,.11-1.06,.12-2.02,.18-2.89,.18-.25,0-.42-.1-.49-.31-.19-.28-.42-.6-.67-.94,0-.16,.09-.25,.27-.25h1.34c1.07,0,2-.07,2.79-.2,.72-.06,1.42-.19,2.12-.4,.82-.21,1.51-.5,2.08-.87,.07-.04,.13-.07,.16-.07,.18,0,.31,.04,.38,.11,.88,.76,1.32,1.24,1.32,1.43,0,.16-.09,.25-.27,.25l-.63-.25Zm3.31,1.23c1.13,0,1.7,.09,1.7,.27,0,.21-.08,.33-.22,.36-.15,.01-.22,.16-.22,.45v11.54c0,.18-.12,.27-.36,.27h-.89c-.24,0-.36-.09-.36-.27v-12.35c0-.18,.12-.27,.36-.27Zm4.65-2.5l1.95,.25c.21,.09,.31,.16,.31,.2,0,.16-.11,.25-.34,.25-.33,.13-.49,.53-.49,1.19v16.73c0,1.21-.84,1.81-2.5,1.81h-1.61c-.12,0-.18-.15-.18-.45-.06-.3-.21-.66-.45-1.1,0-.18,.06-.27,.18-.27,.7,.18,1.33,.27,1.88,.27,.66,0,.98-.27,.98-.8v-16.28c0-.49-.01-.86-.04-1.12-.03-.19-.04-.35-.04-.47,0-.13,.12-.2,.36-.2Z"/>
        <path class="cls-1" d="M269.23,69.75c.73,.4,1.33,.77,1.79,1.1,.55,.43,1.02,.81,1.41,1.14,0,.03-.04,.1-.11,.22-.49,.7-.75,1.05-.78,1.05-.6-.57-1.22-1.08-1.88-1.54-.54-.39-.98-.66-1.34-.8,0-.07,.23-.41,.69-1.01,.07-.1,.15-.16,.22-.16Zm3.73,4.83c.08,0,.13,.06,.16,.18,.37,.85,.56,1.3,.56,1.36,0,.1-.04,.2-.11,.29-.64,1.65-1.25,3.06-1.83,4.2-.31,.66-.69,1.38-1.14,2.17-.09,.19-.13,.44-.13,.74,0,.18-.06,.27-.18,.27s-.6-.48-1.45-1.43c-.07-.04-.13-.13-.16-.27,0-.12,.03-.22,.09-.29,.42-.42,.82-.94,1.21-1.57,.57-.85,1.12-1.81,1.66-2.88,.48-.94,.88-1.8,1.21-2.59,.04-.12,.09-.18,.13-.18Zm-1.61-10.2c.76,.4,1.39,.78,1.88,1.12,.57,.4,1.04,.78,1.43,1.12,0,.03-.04,.1-.13,.2-.49,.7-.75,1.05-.76,1.05-.61-.55-1.26-1.06-1.95-1.52-.55-.37-1.01-.63-1.36-.78,0-.1,.24-.44,.72-1.01,.07-.12,.13-.18,.18-.18Zm9.33-.45c1.12,0,1.68,.09,1.68,.27,0,.21-.07,.33-.22,.36-.15,.01-.22,.16-.22,.45v.47h5.99c.12,0,.18,.08,.18,.25v.54c0,.24-.06,.36-.18,.36h-5.99v1.07h6.98c.25,0,.38,.09,.38,.27v2.26c0,.16-.12,.25-.38,.25h-.88c-.18,0-.26-.08-.26-.25v-1.28h-6.91v1.23l5.37-.6c.13,0,.2,.09,.2,.27v.56c0,.22-.07,.34-.2,.34l-5.37,.6c.03,.43,.36,.65,.98,.65h4.03c.37,0,.63-.05,.78-.16,.16-.07,.28-.32,.34-.74,.01-.06,.06-.09,.13-.09,.34,.21,.7,.32,1.07,.34,.18,.01,.27,.08,.27,.2-.21,.67-.47,1.13-.78,1.36-.22,.18-.59,.27-1.1,.27h-5.37c-1.07,0-1.61-.39-1.61-1.19v-.51l-2.24,.25c-.12,0-.18-.11-.18-.33v-.56c0-.18,.06-.27,.18-.27l2.24-.22v-1.39h-3.31v4.92c0,2.24-.16,4.01-.47,5.32-.19,1.09-.58,2.18-1.16,3.26-.31,.66-.75,1.28-1.32,1.88-.1,0-.18-.01-.22-.04-.25-.21-.53-.39-.83-.56-.07-.08-.11-.17-.11-.29,.52-.54,.99-1.28,1.41-2.24,.43-1,.73-2.04,.89-3.13,.19-1.15,.29-2.55,.29-4.2v-5.9c0-.18,.09-.27,.27-.27h5.28v-3.49c0-.18,.13-.27,.38-.27Zm-3.51,16.55l1.14,.45c.19,.09,.29,.18,.29,.27,0,.1-.04,.18-.13,.22-.12,0-.19,.08-.22,.25-.34,1.12-.67,2-.98,2.64-.07,.15-.13,.22-.18,.22-.09,0-.2-.05-.33-.16-.27-.1-.52-.21-.76-.31-.1-.03-.16-.06-.16-.09s.01-.08,.04-.13c.31-.57,.54-1.06,.69-1.48,.22-.55,.39-1.1,.49-1.63,.03-.16,.07-.25,.11-.25Zm.89-6.42h9.66c.24,0,.36,.08,.36,.25v4.92c0,.18-.12,.27-.36,.27h-9.66c-.24,0-.36-.09-.36-.27v-4.92c0-.16,.12-.25,.36-.25Zm1.16,2.12h2.86v-.98h-2.86v.98Zm2.86,2.15v-.98h-2.86v.98h2.86Zm-2.5,1.7c1.01,.09,1.52,.21,1.52,.36,0,.09-.09,.22-.27,.38v2.21c0,.18,.06,.27,.18,.27h4.12c.31,0,.61-.45,.89-1.34l1.34,.83c-.51,1.31-1.13,1.97-1.88,1.97h-5.01c-.78,0-1.16-.33-1.16-.98v-3.42c0-.18,.09-.27,.27-.27Zm3.31-.16s.07,.01,.13,.04c.54,.31,1.1,.72,1.68,1.23,.04,.03,.07,.08,.07,.13,0,.08-.02,.13-.07,.18l-.4,.54c-.12,.06-.23,.09-.34,.09-.03,0-.08-.03-.16-.09-.51-.42-1.01-.76-1.5-1.03-.09-.03-.13-.07-.13-.11,0-.07,.01-.16,.04-.25l.47-.67c.07-.04,.14-.07,.2-.07Zm.72-4.67v.98h2.95v-.98h-2.95Zm2.95,3.13v-.98h-2.95v.98h2.95Zm.72,1.88c.55,.39,1.01,.74,1.36,1.05,.42,.42,.77,.78,1.05,1.1,0,.01-.03,.07-.09,.16-.4,.55-.61,.83-.63,.83-.45-.52-.93-.99-1.45-1.41-.42-.34-.77-.59-1.05-.74,0-.06,.21-.34,.63-.85,.06-.09,.12-.13,.18-.13Z"/>
        <path class="cls-1" d="M296.64,71.63l1.5,.63c.25,.1,.38,.22,.38,.36,0,.25-.09,.44-.27,.56-.25,0-.42,.19-.49,.56-.67,2.8-1.34,4.97-2.01,6.51-.15,.36-.27,.54-.36,.54-.12,0-.26-.06-.42-.18-.34-.16-.67-.3-.98-.42-.13-.06-.2-.1-.2-.13,0-.07,.04-.19,.11-.36,.66-1.34,1.14-2.51,1.45-3.51,.48-1.31,.83-2.62,1.05-3.94,.07-.4,.16-.6,.25-.6Zm3.85-2.3l1.68,.18c.19,.03,.29,.08,.29,.16,0,.15-.05,.24-.16,.27-.13,.02-.2,.11-.2,.29v11.16c0,.72,.42,1.07,1.25,1.07h4.29c1.25,0,2.01-.21,2.28-.63,.3-.36,.67-1.7,1.12-4.03,.21,.34,.54,.65,1.01,.92,.22,.09,.34,.2,.34,.33-.61,2.52-1.08,3.91-1.41,4.16-.33,.57-1.02,.85-2.08,.85h-5.73c-1.85,0-2.77-.57-2.77-1.7v-12.79c0-.16,.03-.25,.09-.25Zm1.07-5.12c.09,0,.22,.04,.4,.13,1.74,.79,3.52,1.8,5.32,3.02,.18,.09,.27,.2,.27,.34,0,.09-.03,.16-.09,.22l-.47,.65c-.17,.08-.31,.11-.43,.11s-.28-.08-.47-.25c-1.71-1.09-3.37-1.99-4.97-2.71-.31-.09-.47-.21-.47-.36,0-.09,.02-.17,.07-.25l.58-.83c.09-.06,.17-.09,.25-.09Zm7.69,7.18c1.31,.83,2.38,1.62,3.22,2.35,.98,.92,1.82,1.75,2.5,2.46,0,.03-.04,.1-.13,.22-.54,.75-.82,1.12-.85,1.12-1.07-1.16-2.21-2.21-3.4-3.15-.95-.79-1.76-1.35-2.42-1.68,0-.09,.28-.48,.85-1.16,.09-.1,.16-.16,.22-.16Z"/>
        <path class="cls-1" d="M328,64.21c1.13,0,1.7,.1,1.7,.29s-.07,.31-.22,.33c-.15,.02-.22,.17-.22,.45v2.33h7.87c.18,0,.27,.12,.27,.36v.72c0,.24-.09,.36-.27,.36h-7.87v3.49h10.4c.16,0,.25,.12,.25,.36v.72c0,.24-.08,.36-.25,.36h-10.4v2.01c1.51,.67,2.74,1.28,3.71,1.83,1.21,.78,2.24,1.47,3.09,2.08,0,.01-.04,.07-.11,.18-.43,.64-.66,.96-.69,.96-1.3-.97-2.68-1.85-4.16-2.64-.69-.36-1.3-.66-1.83-.92v7.31c0,.18-.12,.27-.36,.27h-.89c-.24,0-.36-.09-.36-.27v-10.82h-8.03c-.19,0-.29-.12-.29-.36v-.72c0-.24,.1-.36,.29-.36h8.03v-8.03c0-.19,.12-.29,.36-.29Z"/>
        <path class="cls-1" d="M344.7,68.95h2.59v-4.74c0-.18,.13-.27,.38-.27,1.12,0,1.68,.09,1.68,.27,0,.21-.08,.33-.22,.36-.15,.01-.22,.16-.22,.45v3.94h2.42s.08,0,.11,.02c-.03-.03-.06-.05-.09-.07-.13-.09-.2-.16-.2-.22,0-.01,.02-.04,.07-.07,.46-.28,.85-.55,1.16-.81,.43-.39,.86-.86,1.3-1.41,.28-.37,.52-.74,.72-1.1,.19-.36,.37-.76,.54-1.21,.06-.1,.11-.16,.16-.16l1.5,.74c.13,.09,.2,.17,.2,.25,0,.18-.12,.27-.36,.27-.18,0-.31,.07-.4,.2-.33,.63-.65,1.16-.96,1.59h3.33c.3-.39,.53-.74,.69-1.05,.31-.48,.54-.95,.67-1.41,.04-.15,.1-.22,.16-.22l1.36,.56c.22,.1,.33,.22,.33,.34,0,.09-.06,.15-.18,.18-.16,0-.27,.07-.31,.2-.25,.55-.5,1.02-.74,1.41h4.18c.12,0,.18,.09,.18,.27v.72c0,.25-.06,.38-.18,.38h-4.47v1.59h3.67c.12,0,.18,.1,.18,.29v.69c0,.25-.06,.38-.18,.38h-3.67v1.5h3.67c.12,0,.18,.1,.18,.29v.69c0,.25-.06,.38-.18,.38h-3.67v1.5h4.83c.12,0,.18,.1,.18,.29v.69c0,.25-.06,.38-.18,.38h-10.2v.78c0,.18-.12,.27-.36,.27h-.89c-.24,0-.36-.09-.36-.27v-8.59c-.33,.3-.6,.51-.8,.63-.13,0-.24-.06-.31-.18-.13-.22-.28-.42-.45-.6,.03,.06,.04,.15,.04,.27v.69c0,.25-.09,.38-.27,.38h-2.17c.36,.95,.68,1.71,.96,2.28,.39,.79,1.04,1.71,1.95,2.75,.1,.06,.16,.13,.16,.22,0,.04-.05,.1-.16,.18-.13,.21-.34,.42-.6,.65-.09,.1-.17,.16-.22,.16-.08,0-.17-.05-.29-.16-.63-.76-1.18-1.63-1.66-2.62-.13-.27-.26-.56-.38-.87v11.63c0,.16-.12,.25-.36,.25h-.87c-.25,0-.38-.08-.38-.25v-9.75c-.18,.49-.36,.96-.54,1.39-.36,.84-.78,1.62-1.25,2.35-.17,0-.28-.04-.36-.11-.33-.16-.65-.32-.96-.47-.13,0-.2-.04-.2-.11,.64-.94,1.15-1.84,1.52-2.71,.4-.85,.71-1.67,.92-2.46,.16-.51,.36-1.29,.58-2.35h-2.3c-.18,0-.27-.13-.27-.38v-.69c0-.25,.09-.38,.27-.38Zm6.62,10.65h6.71v-1.52c0-.18,.12-.27,.36-.27,1.13,0,1.7,.09,1.7,.27,0,.21-.08,.32-.22,.34-.15,.03-.22,.19-.22,.49v.69h5.37c.18,0,.27,.13,.27,.38v.69c0,.24-.09,.36-.27,.36h-5.37v3.6c0,.16-.12,.25-.36,.25h-.89c-.24,0-.36-.08-.36-.25v-3.6h-6.71c-.18,0-.27-.12-.27-.36v-.69c0-.25,.09-.38,.27-.38Zm7.16-9.66v-1.59h-3.76v1.59h3.76Zm0,2.86v-1.5h-3.76v1.5h3.76Zm-3.76,2.86h3.76v-1.5h-3.76v1.5Z"/>
        <path class="cls-1" d="M369.8,67.78h7.96c.18,0,.27,.12,.27,.36v.72c0,.24-.09,.36-.27,.36h-7.96c-.18,0-.27-.12-.27-.36v-.72c0-.24,.09-.36,.27-.36Zm.63,9.75h6.71c.24,0,.36,.09,.36,.27v6.62c0,.19-.12,.29-.36,.29h-.89c-.24,0-.36-.1-.36-.29v-.78h-4.21v.89c0,.16-.12,.25-.36,.25h-.89c-.24,0-.36-.08-.36-.25v-6.62c0-.25,.12-.38,.36-.38Zm.27-3.29h6.17c.18,0,.27,.11,.27,.34v.72c0,.24-.09,.36-.27,.36h-6.17c-.18,0-.27-.12-.27-.36v-.72c0-.22,.09-.34,.27-.34Zm.09-3.33h6.08c.18,0,.27,.13,.27,.38v.69c0,.24-.09,.36-.27,.36h-6.08c-.18,0-.27-.12-.27-.36v-.69c0-.25,.09-.38,.27-.38Zm.09-6.24h5.99c.18,0,.27,.11,.27,.34v.72c0,.24-.09,.36-.27,.36h-5.99c-.18,0-.27-.12-.27-.36v-.72c0-.22,.09-.34,.27-.34Zm.8,17.51h4.21v-3.2h-4.21v3.2Zm7.6-8.5h8.68c.16,0,.29,.04,.38,.13,.28,.42,.42,.67,.42,.76-.42,1.4-.81,2.49-1.18,3.26-.46,.96-.93,1.75-1.41,2.37-.24,.34-.51,.66-.83,.96,.55,.45,1.27,.84,2.15,1.19,.78,.36,1.78,.67,3.02,.94,.15,.04,.22,.09,.22,.13,0,.1-.04,.19-.11,.27-.25,.22-.52,.48-.8,.78-.1,.15-.19,.22-.25,.22-.04,0-.17-.04-.38-.13-.6-.19-1.25-.42-1.97-.69-.86-.36-1.66-.75-2.37-1.19-.22-.18-.44-.34-.65-.49-.75,.58-1.57,1.08-2.46,1.5-.66,.34-1.51,.65-2.55,.92-.19,0-.33-.08-.42-.22-.18-.24-.35-.49-.51-.74-.09-.09-.13-.16-.13-.22,0-.08,.04-.13,.13-.16,.66-.15,1.29-.34,1.9-.56,1.16-.42,2.12-.94,2.86-1.57-.03-.03-.06-.06-.09-.09-.61-.63-1.06-1.27-1.34-1.95-.43-.7-.81-1.64-1.14-2.82v-.18c0-.07,.48-.17,1.43-.29,.18,.81,.41,1.48,.69,2.04,.31,.72,.73,1.36,1.25,1.95,.1,.13,.21,.25,.31,.36,.34-.34,.65-.69,.92-1.03,.51-.69,.93-1.47,1.27-2.35,.21-.42,.41-.97,.6-1.66h-7.65c-.18,0-.27-.13-.27-.38v-.69c0-.25,.09-.38,.27-.38Zm1.7-9.19h5.37c.24,0,.36,.08,.36,.25v5.23c0,.19,.05,.32,.16,.38,.15,.08,.37,.11,.65,.11h.8c.33,0,.54-.12,.65-.36,.15-.3,.28-.87,.4-1.72,0-.1,.07-.16,.2-.16,.06,0,.16,.04,.29,.11,.21,.09,.45,.17,.74,.25,.21,.04,.31,.16,.31,.36-.22,1.07-.46,1.92-.72,2.55-.19,.39-.61,.58-1.25,.58h-2.24c-.6,0-1.04-.09-1.32-.27-.19-.13-.29-.36-.29-.67v-5.41h-2.86v1.14c0,.98-.1,1.88-.31,2.68-.19,.72-.57,1.34-1.12,1.88-.34,.36-.82,.72-1.43,1.1-.18,0-.31-.04-.4-.13-.19-.27-.4-.51-.63-.74-.09-.09-.13-.18-.13-.27,1.13-.66,1.86-1.44,2.19-2.35,.21-.66,.31-1.39,.31-2.21v-2.08c0-.16,.09-.25,.27-.25Z"/>
        <path class="cls-1" d="M394.9,67.78h9.48c.18,0,.27,.12,.27,.36v.72c0,.24-.09,.36-.27,.36h-9.48c-.18,0-.27-.12-.27-.36v-.72c0-.24,.09-.36,.27-.36Zm1.07,9.66h7.16c.24,0,.36,.09,.36,.27v6.82c0,.16-.12,.25-.36,.25h-.89c-.24,0-.36-.08-.36-.25v-1.1h-4.65v1.1c0,.16-.12,.25-.36,.25h-.89c-.24,0-.36-.08-.36-.25v-6.73c0-.24,.12-.36,.36-.36Zm.18-3.38h6.89c.18,0,.27,.11,.27,.34v.74c0,.22-.09,.34-.27,.34h-6.89c-.18,0-.27-.11-.27-.34v-.74c0-.22,.09-.34,.27-.34Zm.09-3.15h6.8c.18,0,.27,.13,.27,.38v.69c0,.24-.09,.36-.27,.36h-6.8c-.18,0-.27-.12-.27-.36v-.69c0-.25,.09-.38,.27-.38Zm.09-6.24h6.53c.18,0,.27,.11,.27,.34v.72c0,.24-.09,.36-.27,.36h-6.53c-.18,0-.27-.12-.27-.36v-.72c0-.22,.09-.34,.27-.34Zm.89,17.33h4.65v-3.11h-4.65v3.11Zm7.69-11.27h4.29v-6.24c0-.19,.12-.29,.36-.29,1.13,0,1.7,.1,1.7,.29s-.07,.31-.22,.33c-.15,.02-.22,.17-.22,.45v5.46h4.47c.18,0,.27,.12,.27,.36v.72c0,.25-.09,.38-.27,.38h-4.47v12.35c0,.16-.12,.25-.36,.25h-.89c-.24,0-.36-.08-.36-.25v-12.35h-4.29c-.18,0-.27-.13-.27-.38v-.72c0-.24,.09-.36,.27-.36Z"/>
        <path class="cls-1" d="M420.39,73.17h20.04c.16,0,.25,.14,.25,.42v.89c0,.3-.08,.45-.25,.45h-20.04c-.19,0-.29-.15-.29-.45v-.89c0-.28,.1-.42,.29-.42Z"/>
        <path class="cls-1" d="M447.79,71.63l1.5,.63c.25,.1,.38,.22,.38,.36,0,.25-.09,.44-.27,.56-.25,0-.42,.19-.49,.56-.67,2.8-1.34,4.97-2.01,6.51-.15,.36-.27,.54-.36,.54-.12,0-.26-.06-.42-.18-.34-.16-.67-.3-.98-.42-.13-.06-.2-.1-.2-.13,0-.07,.04-.19,.11-.36,.66-1.34,1.14-2.51,1.45-3.51,.48-1.31,.83-2.62,1.05-3.94,.07-.4,.16-.6,.25-.6Zm3.85-2.3l1.68,.18c.19,.03,.29,.08,.29,.16,0,.15-.05,.24-.16,.27-.13,.02-.2,.11-.2,.29v11.16c0,.72,.42,1.07,1.25,1.07h4.29c1.25,0,2.01-.21,2.28-.63,.3-.36,.67-1.7,1.12-4.03,.21,.34,.54,.65,1.01,.92,.22,.09,.34,.2,.34,.33-.61,2.52-1.08,3.91-1.41,4.16-.33,.57-1.02,.85-2.08,.85h-5.73c-1.85,0-2.77-.57-2.77-1.7v-12.79c0-.16,.03-.25,.09-.25Zm1.07-5.12c.09,0,.22,.04,.4,.13,1.74,.79,3.52,1.8,5.32,3.02,.18,.09,.27,.2,.27,.34,0,.09-.03,.16-.09,.22l-.47,.65c-.17,.08-.31,.11-.43,.11s-.28-.08-.47-.25c-1.71-1.09-3.37-1.99-4.97-2.71-.31-.09-.47-.21-.47-.36,0-.09,.02-.17,.07-.25l.58-.83c.09-.06,.17-.09,.25-.09Zm7.69,7.18c1.31,.83,2.38,1.62,3.22,2.35,.98,.92,1.82,1.75,2.5,2.46,0,.03-.04,.1-.13,.22-.54,.75-.82,1.12-.85,1.12-1.07-1.16-2.21-2.21-3.4-3.15-.95-.79-1.76-1.35-2.42-1.68,0-.09,.28-.48,.85-1.16,.09-.1,.16-.16,.22-.16Z"/>
      </g>
    </g>
  </g>
</svg>