<?xml version="1.0" encoding="UTF-8"?>
<svg id="_圖層_2" data-name="圖層 2" xmlns="http://www.w3.org/2000/svg" viewBox="0 0 476.69 141.91">
  <defs>
    <style>
      .cls-1, .cls-2 {
        fill: #fff;
      }

      .cls-2, .cls-3 {
        fill-rule: evenodd;
      }

      .cls-3 {
        fill: #00549a;
      }

      .cls-4 {
        fill: none;
        stroke: #fff;
        stroke-miterlimit: 10;
        stroke-width: 1.5px;
      }

      .cls-5 {
        fill: #cc6732;
      }
    </style>
  </defs>
  <g id="_圖層_3" data-name="圖層 3">
    <g>
      <g>
        <g>
          <rect class="cls-5" x="200.94" y="68.6" width="138.77" height="1.93"/>
          <rect class="cls-5" x="322.55" y="13.74" width="1.7" height="65.92"/>
          <path class="cls-2" d="M275.96,51.74v-6.97h14.55v23.55c-5.75,.03-4.81,.1-7.17,.14-2.99,.06-4.68-.04-7.61-.04-3.62,0-6.57,.42-8.84-1.37-2.28-1.78-4.05-3.13-5.3-6.65-1.26-3.53-1.88-10.2-1.88-14.77,0-4.81,.69-10.52,2.06-14.08,1.47-3.8,3.72-5.96,6.04-7.23,2.4-1.32,4.85-1.7,8.34-1.7s5.89,.66,7.56,1.54c1.67,.88,3.93,2.25,5.03,4.1,1.41,2.37,1.23,5.91,1.18,8.57l-8.62-.03c-.38-1.68-.17-3.55-.6-5.18-.37-1.41-2.39-2.56-4.74-2.65-2.07-.08-3.72,.6-4.96,2.68-1.23,2.08-1.85,9.3-1.85,13.8,0,4.78-.02,11.68,1.2,13.74,2.36,3.98,3.61,3.51,5.82,3.51,1.07,0,1.91-.02,3-.22,1.34-.25,.86-.05,2.18-.28v-10.46h-5.39Z"/>
          <path class="cls-2" d="M292.98,54.57l9.88,.06c.19,2.11,.11,4.82,.7,5.92,.97,1.79,3.62,2.03,5.42,2.03,1.34,0,2.6-.89,3.33-1.81,.73-.91,1.02-2.85,.87-4.05-.2-1.65-.78-1.95-1.47-2.85-.69-.9-1.33-1.4-3.72-2.99,1.19,.79-9.26-6.12-10.14-6.66-2.42-1.49-3.84-5.04-3.97-8.72-.08-2.26,.42-5.19,1.58-7.07,1.15-1.88,2.71-3.16,4.54-4.31,1.83-1.15,5.64-1.73,8.81-1.73,3.9,0,8.84,1.7,10.88,3.79,2.05,2.09,2.26,5.09,2.34,9.9l-9.08-.04c-.23-1.98-.42-4.43-1.06-5.42-.82-1.28-2.69-1.35-4.03-1.35-1.11,0-2.59,.77-3.15,1.44-.56,.67-1.06,2.36-1.06,3.33,0,1.24,.37,2.71,1.14,3.64,.45,.58,6.32,4.83,7.98,5.33,4.12,1.29,7.34,4.65,8.15,6.6,.81,1.94,1.22,2.6,1.22,5,0,2.83,.12,5.65-.97,8.04-1.08,2.39-2.93,3.5-4.97,4.56-2.62,1.35-4.39,1.22-7.34,1.22-5.19,0-10.5,.33-13.17-2.62-3.51-3.88-2.37-5.78-2.69-11.25"/>
          <path class="cls-2" d="M228.31,54.57l9.88,.06c.19,2.11,.11,4.82,.7,5.92,.97,1.79,3.62,2.03,5.42,2.03,1.34,0,2.6-.89,3.33-1.81,.73-.91,1.01-2.85,.88-4.05-.2-1.65-.78-1.95-1.47-2.85-.69-.9-1.33-1.4-3.72-2.99,1.18,.79-9.27-6.12-10.14-6.66-2.42-1.49-3.84-5.04-3.97-8.72-.08-2.26,.42-5.19,1.58-7.07,1.15-1.88,2.71-3.16,4.54-4.31,1.83-1.15,5.64-1.73,8.81-1.73,3.9,0,8.84,1.7,10.88,3.79,2.05,2.09,2.26,5.09,2.34,9.9l-9.08-.04c-.24-1.98-.43-4.43-1.07-5.42-.82-1.28-2.69-1.35-4.03-1.35-1.11,0-2.59,.77-3.15,1.44-.56,.67-1.06,2.36-1.06,3.33,0,1.24,.36,2.71,1.14,3.64,.46,.58,6.32,4.83,7.98,5.33,4.11,1.29,7.33,4.65,8.15,6.6,.81,1.94,1.22,2.6,1.22,5,0,2.83,.11,5.65-.97,8.04-1.08,2.39-2.93,3.5-4.97,4.56-2.62,1.35-4.39,1.22-7.34,1.22-5.19,0-10.5,.33-13.18-2.62-3.51-3.88-2.37-5.78-2.69-11.25"/>
        </g>
        <g>
          <path class="cls-1" d="M231.93,114.34c.15,0,.22,.05,.22,.17v3.63c0,.34,.06,.57,.16,.74,.07,.17,.19,.31,.37,.4,.21,.11,.48,.2,.77,.25,.38,.06,.83,.08,1.3,.08h3.14c1.21,0,2.66-.12,4.34-.38,.06-.03,.13-.05,.22-.05,.06,0,.11,.03,.11,.05-.12,.37-.21,.75-.27,1.14-.03,.15-.11,.24-.25,.24h-7.29c-.35,0-.7-.03-1.02-.08-.34-.06-.66-.13-.98-.21-.28-.11-.55-.24-.78-.41-.16-.14-.34-.39-.52-.73l-.06-.05c-.06,0-.1,.01-.1,.04-.98,.72-1.53,1.21-1.62,1.46-.03,.05-.07,.1-.13,.1-.06,0-.25-.24-.56-.72-.06-.08-.07-.18-.07-.28,.56-.25,1.27-.67,2.13-1.29,.04-.03,.07-.13,.07-.3v-2.91h-1.85c-.12,0-.18-.07-.18-.23v-.44c0-.14,.06-.22,.18-.22h2.67Zm-.75-2.56c.4,.28,.74,.53,1.04,.76,0,.01-.03,.06-.07,.11-.3,.4-.44,.59-.44,.59-.45-.35-.92-.67-1.42-.97-.41-.24-.74-.41-1.01-.51,0-.05,.15-.25,.46-.62,.04-.05,.09-.1,.12-.1,.53,.27,.98,.51,1.33,.73m.28-3c.38,.25,.71,.48,.99,.67,0,.01-.03,.06-.07,.11-.3,.41-.44,.6-.44,.6-.43-.31-.89-.6-1.36-.87-.38-.21-.71-.37-.96-.45,0-.05,.15-.25,.46-.62,.04-.05,.09-.1,.12-.1,.52,.24,.95,.45,1.27,.65m9.15-.53c.14,0,.22,.03,.27,.06,.21,.14,.31,.25,.31,.32l-2.92,1.9c.24,.11,.44,.21,.65,.3,0,.03-.03,.05-.07,.11-.07,.1-.13,.17-.18,.22h2.58c.18,0,.28,.1,.28,.27v6.65c0,.28-.19,.49-.58,.63-.36,.13-.83,.21-1.39,.25-.12,0-.18-.04-.18-.15-.03-.18-.13-.46-.34-.84,0-.03,.03-.04,.12-.04,.65,0,1.05-.03,1.17-.1,.15-.05,.22-.15,.22-.31v-1.03h-2.49v2.36c0,.11-.09,.15-.23,.15h-.58c-.16,0-.24-.04-.24-.15v-2.36h-2.31v2.25c0,.11-.09,.17-.23,.17h-.58c-.12,0-.16-.06-.16-.17v-7.37c0-.14,.05-.21,.16-.21h3.79c-.41-.18-.84-.35-1.26-.51-.58-.2-1.05-.35-1.42-.44,0-.04,.13-.23,.4-.56,.03-.05,.07-.08,.12-.08,.73,.21,1.32,.41,1.79,.58l1.75-1.08h-5.21c-.12,0-.18-.07-.18-.21v-.44c0-.11,.06-.17,.18-.17h6.77Zm-3.6,3.78h-2.31v1.38h2.31v-1.38Zm0,2.21h-2.31v1.42h2.31v-1.42Zm1.05-.83h2.49v-1.38h-2.49v1.38Zm0,2.25h2.49v-1.42h-2.49v1.42Z"/>
          <path class="cls-1" d="M246.67,114.13c.18,0,.28,.06,.28,.17v3.29c0,.17,.01,.4,.04,.66,.18,.36,.43,.67,.74,.93,.4,.25,.99,.4,1.79,.4h4.04c.36,0,.95-.04,1.81-.13,.78-.08,1.39-.15,1.81-.25,.06,0,.12-.01,.18-.01,.07,0,.12,.04,.12,.11-.18,.31-.34,.6-.46,.86-.03,.2-.12,.3-.3,.3h-7.19c-1.04,0-1.87-.25-2.49-.73-.3-.28-.55-.65-.78-1.14-.5,.47-.93,.87-1.32,1.27-.23,.13-.36,.28-.37,.48,0,.15-.04,.24-.1,.24-.04,0-.1-.04-.18-.13l-.74-1.03c.24-.03,.93-.47,2.06-1.32,.16-.07,.25-.24,.25-.49v-2.59h-1.79c-.12,0-.18-.07-.18-.21v-.45c0-.14,.06-.21,.18-.21h2.61Zm-.84-2.57c.38,.27,.73,.51,1,.7,0,.01-.03,.06-.06,.11-.3,.41-.44,.6-.46,.6-.44-.32-.9-.63-1.38-.91-.4-.21-.73-.37-.99-.47,0-.04,.15-.25,.46-.62,.04-.05,.09-.1,.12-.1,.53,.25,.96,.48,1.3,.68m.49-3.03c.39,.25,.71,.47,.99,.65,0,.03-.03,.07-.07,.13-.3,.4-.44,.59-.44,.59-.43-.31-.89-.58-1.36-.83-.38-.2-.71-.35-.96-.44,0-.04,.15-.25,.46-.62,.05-.06,.09-.1,.12-.1,.52,.22,.95,.44,1.27,.62m8.86-.4c.15,0,.24,.06,.24,.17v4.23h1.1c.18,0,.28,.06,.28,.16v5.48c0,.23-.19,.41-.56,.52-.36,.11-.83,.18-1.41,.21-.1,0-.16-.06-.18-.17-.03-.2-.13-.49-.34-.89,0-.03,.03-.04,.12-.04,.64,0,1.01-.01,1.13-.06,.13-.04,.21-.12,.21-.24v-4.16h-6.71v5.16c0,.11-.09,.17-.24,.17h-.58c-.15,0-.22-.06-.22-.17v-5.82c0-.1,.07-.16,.22-.16h.99v-4.23c0-.11,.07-.17,.22-.17h5.73Zm-3.58,4.4v-2.1c0-.11,.08-.17,.22-.17h2.55v-1.31h-4.1v3.57h1.33Zm2.65,1.86c.15,0,.24,.06,.24,.17v2.8c0,.11-.09,.17-.24,.17h-3.7c-.15,0-.22-.06-.22-.17v-2.8c0-.11,.07-.17,.22-.17h3.7Zm-.8,.83h-2.09v1.48h2.09v-1.48Zm.92-4.12h-1.73v1.44h1.73v-1.44Z"/>
          <path class="cls-1" d="M264.1,118.73c-.67,.42-1.51,.63-2.52,.63-1.87,0-3.01-.79-3.41-2.36l.96-.37c.33,1.21,1.14,1.81,2.44,1.81,.8,0,1.44-.15,1.92-.49,.44-.31,.68-.72,.68-1.22,0-.53-.37-.99-1.1-1.37-.27-.14-.88-.35-1.82-.66-.92-.28-1.57-.58-1.95-.86-.59-.39-.87-.91-.87-1.56,0-.82,.31-1.42,.96-1.84,.56-.37,1.3-.55,2.24-.55,1.04,0,1.83,.23,2.4,.66,.38,.31,.68,.77,.92,1.36l-.95,.37c-.18-.45-.38-.77-.64-1-.38-.31-.96-.48-1.73-.48-1.45,0-2.18,.49-2.18,1.48,0,.41,.33,.77,.98,1.08,.25,.12,.77,.31,1.54,.55,.99,.32,1.72,.63,2.16,.93,.71,.51,1.07,1.12,1.07,1.89,0,.86-.37,1.52-1.11,2"/>
          <path class="cls-1" d="M273.35,112.2c-.59-.93-1.53-1.39-2.8-1.39-1.01,0-1.81,.34-2.43,1.01-.68,.73-1,1.75-1,3.03,0,1.1,.33,1.98,.99,2.66,.62,.63,1.36,.94,2.25,.94,.71,0,1.33-.24,1.87-.72,.62-.56,.95-1.36,.95-2.38v-.12h-2.58v-.92h3.61v4.95h-1.04v-1.28c-.8,.93-1.73,1.38-2.81,1.38-1.17,0-2.16-.4-2.97-1.21-.86-.84-1.29-1.95-1.29-3.3,0-1.52,.42-2.74,1.27-3.64,.81-.87,1.88-1.31,3.18-1.31,1.7,0,2.97,.66,3.81,1.98l-1.01,.32Z"/>
          <path class="cls-1" d="M281.16,118.73c-.67,.42-1.51,.63-2.52,.63-1.87,0-3.01-.79-3.41-2.36l.96-.37c.33,1.21,1.14,1.81,2.44,1.81,.8,0,1.44-.15,1.92-.49,.44-.31,.68-.72,.68-1.22,0-.53-.37-.99-1.1-1.37-.27-.14-.87-.35-1.82-.66-.92-.28-1.57-.58-1.95-.86-.59-.39-.87-.91-.87-1.56,0-.82,.31-1.42,.96-1.84,.56-.37,1.3-.55,2.24-.55,1.04,0,1.83,.23,2.4,.66,.38,.31,.68,.77,.92,1.36l-.95,.37c-.18-.45-.38-.77-.64-1-.38-.31-.96-.48-1.73-.48-1.45,0-2.18,.49-2.18,1.48,0,.41,.33,.77,.98,1.08,.25,.12,.77,.31,1.54,.55,.99,.32,1.72,.63,2.16,.93,.71,.51,1.07,1.12,1.07,1.89,0,.86-.37,1.52-1.11,2"/>
          <path class="cls-1" d="M295.8,108.31c.15,0,.24,.05,.24,.15v11.98c0,.11-.09,.17-.24,.17h-.58c-.16,0-.24-.06-.24-.17v-.44h-10.17v.44c0,.11-.09,.17-.24,.17h-.58c-.15,0-.22-.06-.22-.17v-11.98c0-.1,.07-.15,.22-.15h11.8Zm-.81,.81h-10.17v10h10.17v-10Zm-4.98,7.26c0,.44-.01,.67-.04,.72-1.22,.32-2.43,.62-3.66,.87-.15,.27-.25,.39-.34,.39s-.25-.37-.52-1.11c.56-.08,1.26-.21,2.07-.41,.81-.18,1.58-.38,2.31-.61,.02-.01,.05-.03,.07-.03,.06,0,.1,.05,.1,.17m.5-5.6c-.01-.29-.03-.6-.03-.94,0-.11,.03-.17,.1-.17l.92,.07c.16,0,.25,.04,.25,.1,0,.11-.04,.2-.12,.23-.09,.04-.12,.17-.12,.38v.34h1.91c-.24-.19-.49-.36-.72-.53-.22-.14-.4-.24-.55-.29,0-.04,.13-.24,.4-.58,.05-.05,.09-.08,.12-.08,.3,.17,.55,.31,.74,.44,.22,.17,.42,.31,.59,.45,0,.01-.03,.04-.07,.1-.22,.28-.36,.45-.4,.51h.99c.07,0,.12,.06,.12,.16v.44c0,.15-.04,.22-.12,.22h-2.99c0,.53,.03,.99,.06,1.35,.06,.67,.16,1.29,.33,1.86,.06,.25,.13,.49,.19,.69,.21-.34,.38-.7,.55-1.11,.21-.48,.39-1,.5-1.56,.01-.08,.06-.12,.15-.12,.77,.25,1.15,.42,1.15,.49,0,.11-.06,.18-.18,.23-.12,0-.19,.05-.25,.15-.24,.73-.5,1.39-.8,1.98-.21,.38-.43,.72-.65,1.03,.13,.27,.28,.49,.46,.67,.16,.11,.29,.17,.38,.17,.06,0,.14-.08,.24-.25,.1-.18,.22-.47,.34-.85,.04,0,.1,.04,.16,.13,.1,.17,.23,.32,.41,.46,.12,.07,.18,.17,.18,.29-.21,.42-.4,.75-.56,.97-.27,.34-.51,.51-.71,.51-.12,0-.22-.01-.34-.07-.21-.08-.42-.25-.64-.49-.21-.2-.4-.45-.59-.76-.41,.42-.9,.81-1.44,1.17-.06,.03-.12,.04-.18,.04-.12,0-.21-.04-.27-.15-.12-.14-.24-.27-.37-.38-.09-.03-.12-.1-.12-.18,0-.03,.03-.04,.09-.07,.25-.1,.51-.25,.76-.45,.38-.25,.74-.58,1.05-.94-.15-.34-.28-.7-.38-1.1-.18-.67-.31-1.39-.4-2.14-.06-.42-.09-.94-.12-1.56h-4.87c-.07,0-.1-.07-.1-.22v-.44c0-.1,.03-.16,.1-.16h4.84Zm-.96,1.7c.15,0,.24,.06,.24,.15v2.81c0,.11-.09,.16-.24,.16h-3.46c-.16,0-.24-.04-.24-.16v-2.81c0-.1,.08-.15,.24-.15h3.46Zm-.75,.82h-1.95v1.49h1.95v-1.49Z"/>
          <path class="cls-1" d="M301.86,108.25c.25,0,.42,.04,.48,.1,.22,.19,.34,.37,.34,.51l-1.72,3.57c-.01,.06-.01,.11-.01,.16s.01,.08,.06,.12c.52,.56,.9,1.12,1.17,1.69,.21,.53,.33,1.04,.33,1.55,0,.79-.13,1.35-.37,1.71-.28,.48-.74,.7-1.36,.7-.45,0-.67-.08-.68-.27-.05-.2-.11-.42-.19-.67,0-.14,.02-.21,.06-.21l.82,.1c.28,0,.46-.13,.53-.38,.06-.25,.1-.62,.1-1.1,0-.42-.14-.89-.37-1.39-.27-.56-.68-1.11-1.21-1.62-.06-.04-.09-.08-.09-.13,0-.03,.01-.1,.06-.21l1.67-3.42h-2.03v11.32c0,.11-.07,.17-.22,.17h-.59c-.15,0-.22-.05-.22-.17v-11.97c0-.11,.07-.17,.22-.17h3.24Zm3.36-.06c-.18,.31-.33,.59-.46,.83h1.67c.09,0,.15,.03,.21,.05,.16,.2,.25,.32,.25,.38-.19,.67-.37,1.18-.53,1.55-.21,.46-.41,.84-.62,1.14-.22,.29-.49,.59-.8,.87-.36,.31-.75,.58-1.18,.79-.3,.17-.68,.31-1.14,.44-.12,0-.19-.03-.24-.11-.09-.14-.19-.28-.28-.42-.05-.05-.06-.1-.06-.13s.01-.05,.06-.08c.28-.05,.56-.15,.83-.27,.34-.12,.64-.27,.89-.44-.15-.14-.28-.27-.4-.38-.21-.17-.38-.3-.51-.38,0-.04,.14-.21,.4-.52,.03-.06,.07-.08,.12-.08,.27,.2,.47,.38,.65,.53,.12,.14,.22,.25,.31,.35,.21-.17,.38-.37,.53-.56-.15-.14-.28-.28-.42-.42-.21-.17-.38-.31-.5-.4,0-.04,.13-.21,.4-.52,.03-.05,.08-.08,.12-.08,.27,.21,.48,.4,.65,.56,.07,.08,.13,.15,.18,.21,.1-.2,.19-.41,.28-.63,.08-.18,.16-.41,.25-.69h-1.62c-.21,.28-.4,.55-.61,.78-.33,.34-.64,.6-.93,.81-.1,0-.18-.01-.22-.07-.18-.15-.34-.31-.5-.45-.03-.05-.03-.1-.03-.12,.3-.18,.53-.37,.73-.53,.27-.23,.56-.53,.86-.93,.21-.27,.5-.74,.9-1.45l.75,.38Zm.22,9.37c.07,.08,.12,.14,.12,.2,0,.04-.04,.07-.1,.07-.12,.03-.19,.05-.24,.11-.28,.41-.58,.77-.87,1.1-.37,.37-.83,.75-1.39,1.13-.12,0-.21-.04-.24-.1-.21-.16-.37-.28-.52-.39-.07-.03-.1-.07-.1-.1,0-.03,.01-.05,.06-.08,.27-.11,.47-.24,.65-.39,.37-.28,.7-.59,.98-.94,.24-.28,.49-.63,.77-1.07,.03-.06,.06-.1,.09-.1l.8,.58Zm5.27-2.16c.12,0,.18,.07,.18,.21v.45c0,.14-.06,.21-.18,.21h-3.07v3.3c0,.69-.61,1.04-1.79,1.04h-.75c-.08,0-.1-.1-.1-.26-.03-.21-.11-.45-.24-.73v-.04c.36,.06,.7,.1,1.04,.1,.53,0,.81-.17,.81-.49v-2.91h-3.12c-.12,0-.18-.07-.18-.21v-.45c0-.14,.06-.21,.18-.21h7.23Zm-1.63-2.21c.12,0,.18,.08,.18,.22v.44c0,.16-.06,.23-.18,.23h-3.98c-.12,0-.18-.07-.18-.23v-.44c0-.14,.06-.22,.18-.22h3.98Zm-.52-2.81c.09,.19,.18,.37,.28,.52,.15-.11,.28-.25,.41-.4,.21-.21,.43-.48,.64-.81,.07-.11,.18-.26,.3-.45h-1.57c-.12,0-.16-.06-.16-.17v-.44c0-.11,.04-.17,.16-.17h2.03c.11,0,.19,.03,.25,.06l.33,.27c.03,.07,.06,.15,.06,.24-.15,.31-.33,.65-.52,1.01-.24,.39-.47,.76-.74,1.07-.21,.24-.4,.45-.61,.62,.18,.24,.43,.51,.76,.8,.25,.21,.55,.42,.9,.62,.15,.07,.34,.16,.58,.24,.06,0,.09,.03,.09,.08,0,.07-.04,.14-.12,.2-.15,.17-.28,.31-.4,.45-.06,.08-.15,.13-.24,.13-.53-.25-.99-.56-1.39-.93-.36-.34-.65-.64-.87-.96-.31-.39-.58-.84-.78-1.32-.27-.56-.55-1.28-.81-2.18,0-.08,.24-.22,.74-.4,.27,.87,.49,1.51,.7,1.92m1.96,7.9c.41,.42,.75,.79,1.05,1.12,0,0-.03,.04-.06,.11-.3,.39-.44,.6-.46,.6-.46-.53-.95-1.01-1.45-1.45-.41-.35-.77-.61-1.04-.76,0-.04,.15-.25,.46-.62,.04-.05,.09-.08,.12-.08,.56,.4,1.02,.75,1.38,1.07"/>
          <path class="cls-1" d="M247.33,135.82c.15,0,.22,.06,.22,.17v5.54c0,.11-.07,.17-.22,.17h-.58c-.16,0-.24-.05-.24-.17v-.66h-3.64v.66c0,.11-.09,.17-.24,.17h-.58c-.15,0-.22-.05-.22-.17v-5.5c0-.14,.07-.21,.22-.21h5.27Zm-.82,.87h-3.64v3.3h3.64v-3.3Zm5.21-7.24c.15,0,.22,.06,.22,.16v5.12c0,.11-.07,.15-.22,.15h-.59c-.15,0-.22-.04-.22-.15v-.49h-5.67v.55c0,.11-.09,.15-.24,.15h-.58c-.15,0-.22-.04-.22-.15v-5.12c0-.14,.07-.21,.22-.21h7.3Zm-.82,.87h-5.67v3.02h5.67v-3.02Zm3.18,5.44c.15,0,.22,.05,.22,.17v5.54c0,.11-.07,.17-.22,.17h-.58c-.16,0-.24-.05-.24-.17v-.6h-3.64v.66c0,.11-.09,.17-.24,.17h-.58c-.15,0-.22-.05-.22-.17v-5.54c0-.14,.07-.22,.22-.22h5.27Zm-.81,.87h-3.64v3.36h3.64v-3.36Z"/>
          <path class="cls-1" d="M261.91,129.86c-.46,.17-.96,.3-1.52,.38-.62,.1-1.26,.14-1.9,.14v.83h4.16c.07,0,.12,.05,.12,.15v.45c0,.14-.04,.21-.12,.21h-1.39v1.44c0,.11-.09,.17-.24,.17h-.58c-.15,0-.22-.06-.22-.17v-1.44h-1.79c-.05,.26-.1,.47-.19,.63-.12,.28-.33,.58-.62,.86-.18,.17-.4,.34-.7,.49-.07,0-.12,0-.15-.03-.16-.12-.34-.24-.53-.35-.06-.04-.07-.1-.07-.17,.27-.12,.52-.3,.72-.52,.21-.22,.37-.47,.46-.72,.09-.25,.15-.58,.15-.96v-1.43c0-.14,.06-.22,.18-.22h.22c.87,0,1.55-.04,2.06-.11,.59-.05,1.14-.2,1.61-.39,.06-.03,.11-.04,.15-.04s.1,.03,.16,.07c.43,.34,.65,.55,.65,.65,0,.15-.04,.22-.12,.22l-.34-.17c-.06,0-.12,.01-.16,.03m5.36,4.09c.15,0,.24,.06,.24,.17v5.76c0,.11-.09,.17-.24,.17h-1.79c.44,.21,.86,.38,1.27,.52,.46,.16,1.13,.33,2.02,.51,.12,.04,.19,.08,.19,.13,0,.07-.22,.31-.63,.7-.06,0-.14-.01-.24-.03-1.66-.48-2.9-.94-3.7-1.36-.09-.04-.12-.07-.12-.08,0-.05,.1-.18,.31-.38h-3.23c.36,.31,.55,.49,.55,.55s-.06,.1-.16,.1c-.18,0-.28,.01-.29,.06-1.32,.45-2.7,.82-4.12,1.11-.1,0-.18-.06-.22-.14-.06-.11-.16-.24-.31-.35-.08-.07-.1-.12-.1-.17,0-.06,.06-.08,.18-.1,.74-.14,1.38-.29,1.92-.45,.55-.15,1.1-.35,1.66-.6h-2.13c-.16,0-.24-.05-.24-.17v-5.76c0-.11,.07-.17,.24-.17h8.96Zm-.8,.83h-7.34v.93h7.34v-.93Zm0,1.76h-7.34v.93h7.34v-.93Zm0,1.76h-7.34v.93h7.34v-.93Zm1.55-8.44c-.49,.17-1.02,.3-1.61,.38-.67,.1-1.35,.14-2.03,.14v.83h4.92c.07,0,.12,.05,.12,.15v.45c0,.14-.04,.21-.12,.21h-2.03v1.44c0,.11-.07,.17-.22,.17h-.58c-.16,0-.24-.06-.24-.17v-1.44h-1.91c-.03,.21-.07,.38-.12,.51-.09,.28-.24,.55-.44,.8-.12,.17-.27,.31-.47,.45-.07,0-.13,0-.16-.03-.16-.13-.34-.24-.53-.35-.04-.03-.06-.08-.06-.17,.18-.11,.33-.27,.47-.47,.13-.2,.24-.42,.3-.65,.06-.22,.1-.52,.1-.86v-1.43c0-.14,.04-.22,.16-.22h.23c.92,0,1.64-.04,2.18-.11,.62-.05,1.2-.2,1.72-.39,.06-.03,.11-.04,.15-.04,.05,0,.1,.03,.16,.07,.43,.34,.65,.55,.65,.65,0,.15-.05,.22-.12,.22l-.34-.17c-.07,0-.13,.01-.18,.03"/>
          <path class="cls-1" d="M272.75,132.02v-2.85c0-.11,.07-.17,.24-.17,.73,0,1.1,.05,1.1,.17,0,.13-.06,.2-.15,.21-.09,.01-.13,.11-.13,.28v2.36h1.49c.12,0,.18,.08,.18,.23v.44c0,.15-.06,.22-.18,.22h-1.32c.15,.55,.3,.99,.44,1.3,.18,.46,.47,1,.92,1.59,.04,.04,.07,.09,.07,.14,0,.03-.04,.07-.1,.1-.09,.12-.22,.25-.38,.39-.06,.08-.12,.11-.15,.11s-.07-.03-.13-.1c-.3-.45-.56-.96-.79-1.52-.03-.05-.04-.11-.06-.17v6.78c0,.11-.09,.17-.24,.17h-.58c-.16,0-.24-.05-.24-.17v-5.64c-.07,.2-.15,.37-.22,.53-.22,.52-.48,1-.76,1.42-.12,0-.19-.01-.24-.07-.21-.08-.41-.18-.62-.3-.09,0-.12-.01-.12-.07,.38-.55,.7-1.1,.93-1.63,.22-.49,.4-.99,.55-1.46,.09-.31,.21-.77,.36-1.41h-1.49c-.12,0-.18-.07-.18-.22v-.44c0-.14,.06-.23,.18-.23h1.61Zm5.58,6.2c.09,.08,.15,.14,.15,.17,0,.08-.04,.14-.12,.17-.12,0-.18,.04-.21,.13-.06,.14-.12,.27-.18,.38,.56,.4,1.15,.89,1.75,1.45,.06,.04,.09,.11,.09,.2,0,.04-.01,.08-.04,.13l-.3,.39c-.09,.04-.18,.07-.24,.07s-.12-.04-.18-.13c-.52-.51-1.02-.91-1.5-1.26-.04,.07-.07,.12-.1,.17-.22,.35-.46,.67-.71,.98-.25,.27-.52,.52-.82,.75-.12,0-.21-.03-.3-.06-.18-.08-.36-.14-.53-.2-.06-.03-.09-.05-.09-.08,0-.04,.01-.07,.04-.08,.46-.34,.86-.75,1.21-1.22,.21-.28,.4-.58,.56-.9,.16-.34,.33-.76,.49-1.28,.03-.06,.07-.08,.12-.08l.89,.32Zm2.38-8.83c.09,.07,.13,.13,.13,.17,0,.11-.07,.15-.22,.15-.12,0-.21,.03-.27,.06,.29,.45,.58,.86,.87,1.19,.4,.45,.8,.8,1.21,1.07,.56,.44,1.23,.79,2.01,1.05,.09,.03,.15,.06,.15,.08,0,.07-.03,.13-.07,.17-.21,.16-.38,.31-.55,.45-.04,.07-.09,.1-.13,.1-.59-.22-1.09-.48-1.48-.76-.55-.34-1.05-.77-1.51-1.28-.33-.34-.67-.79-1.05-1.35-.23,.34-.47,.64-.68,.9-.27,.35-.58,.7-.95,1.05-.19,.2-.37,.37-.55,.52,0,0,.01-.01,.03-.01h4.34c.07,0,.12,.06,.12,.15v.45c0,.14-.04,.21-.12,.21h-4.34c-.07,0-.1-.07-.1-.21v-.45s0-.08,.01-.11c-.18,.17-.36,.31-.5,.44-.39,.28-.68,.49-.9,.62-.09,0-.16-.04-.21-.12-.12-.17-.27-.33-.42-.47-.09-.04-.13-.08-.13-.13,0-.01,.02-.04,.06-.07,.52-.25,.95-.51,1.29-.76,.47-.34,.95-.76,1.44-1.29,.31-.34,.56-.67,.77-1,.22-.34,.43-.72,.61-1.14,.06-.08,.12-.13,.18-.13l.96,.44Zm-1.42,5.33c.15,0,.22,.05,.22,.15v2.76c0,.11-.07,.15-.22,.15h-3.01c-.16,0-.23-.04-.23-.15v-2.76c0-.1,.07-.15,.23-.15h3.01Zm-.75,.81h-1.51v1.44h1.51v-1.44Zm4.25,2.69c.09,.08,.15,.14,.15,.17,0,.08-.04,.14-.12,.17-.1,0-.16,.04-.19,.13-.09,.21-.15,.39-.21,.55,.61,.45,1.23,1,1.86,1.65,.06,.05,.1,.12,.1,.21,0,.06-.03,.1-.06,.13l-.28,.39c-.09,.06-.18,.08-.25,.08-.05,0-.11-.05-.18-.15-.56-.57-1.1-1.04-1.62-1.44-.21,.34-.4,.65-.61,.96-.24,.27-.48,.52-.71,.75-.12,0-.22-.03-.3-.06-.19-.08-.37-.14-.55-.2-.06-.03-.09-.05-.09-.08,0-.04,.01-.07,.04-.08,.4-.34,.75-.75,1.07-1.22,.19-.28,.36-.58,.49-.9,.15-.34,.3-.76,.44-1.28,.03-.06,.06-.08,.11-.08l.89,.32Zm.73-3.5c.15,0,.24,.05,.24,.15v2.76c0,.11-.09,.15-.24,.15h-2.95c-.16,0-.24-.04-.24-.15v-2.76c0-.1,.07-.15,.24-.15h2.95Zm-.75,.81h-1.44v1.44h1.44v-1.44Z"/>
          <path class="cls-1" d="M286.69,138.56c0,.27-.01,.6-.04,1.03-.03,.55-.04,1.08-.07,1.62-.06,0-.16-.01-.28-.04-.21-.03-.38-.08-.56-.15-.09-.01-.13-.05-.13-.14,.03-.17,.06-.37,.09-.59,.06-.44,.1-1.04,.13-1.83,.01-.05,.06-.1,.12-.1,.51,.08,.75,.16,.75,.21m2.77-6.86h1.57c.07,0,.12,.05,.12,.17v.44c0,.14-.04,.21-.12,.21h-1.57v1.38h1.57c.07,0,.12,.05,.12,.17v.44c0,.15-.04,.23-.12,.23h-1.57v1.36h1.97c.12,0,.18,.05,.18,.17-.03,1.46-.07,2.5-.15,3.14-.09,.77-.21,1.33-.36,1.7-.15,.4-.55,.6-1.17,.6-.55,0-.83-.08-.84-.24-.04-.18-.15-.39-.33-.65v-.1h1.17c.24,0,.4-.14,.48-.41,.09-.2,.15-.58,.19-1.14-.12,.04-.27,.08-.44,.11-.03-.15-.09-.35-.18-.59-.1-.25-.24-.52-.4-.79,0-.06,.21-.18,.64-.38,.18,.29,.31,.56,.43,.82,0,.03,.01,.04,.01,.04,.03-.41,.04-.9,.06-1.46h-3.81v.49c0,.11-.07,.17-.22,.17h-.58c-.12,0-.18-.05-.18-.17v-7.75c0-.1,.06-.15,.18-.15h5.26c.07,0,.12,.05,.12,.15v.45c0,.14-.04,.21-.12,.21h-1.91v1.38Zm-2.55,0h1.57v-1.38h-1.57v1.38Zm1.57,.81h-1.57v1.38h1.57v-1.38Zm0,2.21h-1.57v1.37h1.57v-1.37Zm-.67,3.72c.11,.62,.19,1.25,.27,1.87,0,.11-.07,.15-.22,.15l-.65,.13v-2.04c0-.05,.03-.08,.12-.11l.46-.1s.01,.04,.03,.1m1.05-.39c.3,.57,.53,1.15,.71,1.71,0,.11-.07,.16-.19,.16l-.62,.12c-.06,0-.09-.04-.1-.14-.09-.47-.23-1.04-.47-1.73,0-.05,.04-.1,.13-.11l.44-.11s.07,.04,.11,.1m7.18-8.67c.07,.07,.12,.13,.12,.17,0,.11-.07,.15-.22,.15-.14,0-.22,.03-.28,.07,.23,.38,.49,.7,.75,.98,.36,.38,.73,.68,1.08,.9,.49,.37,1.08,.66,1.79,.89,.07,.01,.12,.04,.12,.07,0,.07-.03,.13-.07,.17-.21,.16-.38,.31-.55,.45-.04,.07-.09,.1-.13,.1-.53-.18-.96-.39-1.3-.64-.49-.28-.93-.65-1.33-1.08-.27-.28-.56-.63-.89-1.08-.18,.28-.36,.51-.53,.7-.24,.31-.52,.63-.84,.96-.33,.32-.67,.62-.99,.89-.34,.25-.61,.44-.82,.55-.09,0-.16-.04-.21-.13-.12-.17-.25-.32-.4-.46-.1-.04-.15-.08-.15-.13,0-.03,.01-.04,.06-.07,.46-.22,.84-.45,1.16-.67,.41-.31,.84-.69,1.27-1.17,.28-.31,.52-.62,.7-.9,.19-.31,.37-.65,.55-1.03,.06-.07,.1-.11,.15-.11l.98,.44Zm-1.87,8.78c.09,.08,.13,.14,.13,.18,0,.08-.04,.13-.1,.16-.09,0-.15,.04-.16,.12-.07,.23-.13,.41-.19,.58,.12,.17,.24,.31,.36,.42,.16,.2,.44,.41,.85,.63,.04,.03,.07,.04,.07,.05,0,.03-.04,.07-.1,.11-.1,.14-.25,.28-.43,.44-.06,.07-.12,.11-.16,.11-.03,0-.07-.01-.13-.04-.27-.2-.5-.42-.71-.67-.04-.04-.07-.08-.1-.14-.15,.31-.31,.6-.47,.89-.19,.27-.39,.52-.59,.75-.12,0-.22-.03-.31-.06-.18-.08-.36-.14-.53-.19-.06-.03-.09-.06-.09-.08,0-.04,0-.07,.03-.08,.34-.34,.64-.75,.9-1.23,.15-.28,.29-.57,.41-.88,.12-.34,.25-.78,.37-1.3,.01-.05,.04-.08,.07-.08l.9,.33Zm.55-3.84c.15,0,.22,.06,.22,.17v2.86c0,.11-.07,.17-.22,.17h-2.31c-.16,0-.24-.06-.24-.17v-2.86c0-.11,.08-.17,.24-.17h2.31Zm-.7,.77h-.93v1.64h.93v-1.64Zm3.12-2.36c.07,0,.12,.05,.12,.17v.44c0,.16-.04,.23-.12,.23h-3.88c-.09,0-.12-.07-.12-.23v-.44c0-.11,.03-.17,.12-.17h3.88Zm.55,5.33c.09,.07,.15,.13,.15,.17,0,.08-.04,.14-.12,.15-.09,0-.13,.04-.15,.13-.09,.32-.18,.59-.27,.8,.1,.21,.22,.39,.34,.55,.18,.25,.37,.47,.56,.62,.25,.24,.56,.44,.95,.6,.03,0,.06,.03,.06,.06,0,.06-.03,.1-.06,.15-.21,.14-.4,.3-.56,.45-.05,.07-.09,.11-.12,.11-.28-.14-.52-.3-.7-.47-.25-.21-.49-.47-.7-.75-.07-.11-.15-.21-.21-.34-.1,.2-.21,.4-.31,.59-.18,.25-.37,.51-.58,.73-.12,0-.22-.03-.3-.05-.18-.07-.36-.14-.53-.2-.08-.03-.1-.05-.1-.08,0-.04,.01-.07,.04-.08,.33-.34,.61-.75,.86-1.22,.15-.28,.28-.58,.4-.89,.12-.34,.24-.76,.36-1.3,.01-.04,.04-.07,.07-.07l.9,.32Zm.67-3.74c.15,0,.22,.06,.22,.17v2.86c0,.11-.07,.17-.22,.17h-2.37c-.16,0-.24-.06-.24-.17v-2.86c0-.11,.07-.17,.24-.17h2.37Zm-.7,.77h-.98v1.64h.98v-1.64Z"/>
        </g>
      </g>
      <g>
        <g>
          <polygon class="cls-1" points="6.56 140.36 1.03 132.51 1.03 140.36 0 140.36 0 131.15 1.24 131.15 6.77 139 6.77 131.15 7.8 131.15 7.8 140.36 6.56 140.36"/>
          <path class="cls-1" d="M60.39,108.25c0,.08-.04,.13-.1,.13-.15,.01-.25,.05-.3,.14-.12,.27-.22,.51-.34,.72h3.64c.1,0,.16,.08,.16,.23v.44c0,.15-.06,.22-.16,.22h-1.83c.32,.42,.64,.83,.9,1.25,0,.14-.03,.22-.09,.22-.36,.23-.64,.34-.83,.34-.4-.73-.78-1.33-1.14-1.81h-1.14c-.21,.34-.41,.6-.61,.82-.27,.34-.71,.82-1.35,1.43-.1,0-.19-.04-.28-.12-.13-.1-.28-.21-.43-.32-.06-.04-.09-.1-.09-.16,.33-.31,.65-.64,.99-1.01,.43-.46,.8-.98,1.12-1.56,.28-.51,.5-1,.65-1.49,0-.07,.03-.11,.06-.11,.77,.37,1.15,.59,1.15,.66m.93,4.18c0,.08-.04,.11-.1,.11-.16,.03-.27,.07-.31,.15-.38,.72-.77,1.31-1.15,1.79v5.96c0,.11-.07,.17-.22,.17h-.58c-.16,0-.24-.05-.24-.17v-4.85c-.37,.34-.86,.74-1.45,1.22-.1,0-.19-.04-.28-.13-.14-.1-.28-.21-.43-.32-.06-.03-.09-.08-.09-.15,.43-.34,.86-.69,1.3-1.08,.56-.49,1.07-1.04,1.48-1.66,.36-.53,.65-1.07,.86-1.59,0-.07,.03-.11,.06-.11,.77,.37,1.15,.59,1.15,.66m5.26,1.42v-.6c0-.27-.03-.48-.06-.62-.04-.1-.06-.18-.06-.26s.09-.11,.3-.11l1.16,.14c.12,.06,.18,.11,.18,.14,0,.08-.06,.12-.18,.12-.21,.07-.3,.28-.3,.63v.55h2.15c.12,0,.18,.08,.18,.22v.44c0,.15-.06,.23-.18,.23h-2.15v4.88c0,.66-.52,1-1.55,1h-1.27c-.09,0-.12-.08-.12-.24-.04-.18-.13-.4-.28-.65,0-.08,.03-.11,.12-.11,.53,.07,1.01,.11,1.44,.11s.64-.17,.64-.49v-4.5h-5.2c-.12,0-.18-.07-.18-.23v-.44c0-.14,.06-.22,.18-.22h5.2Zm-3.02,2.9c.34,.42,.64,.79,.89,1.11,0,.03-.03,.07-.07,.13-.3,.39-.44,.59-.46,.59-.38-.52-.78-1-1.21-1.44-.36-.35-.64-.6-.86-.76,0-.04,.15-.25,.46-.62,.03-.06,.07-.1,.12-.1,.46,.4,.84,.76,1.14,1.08m2.9-8.38c0,.08-.03,.11-.09,.11-.16,.03-.27,.07-.31,.15-.09,.22-.16,.42-.22,.6h3.93c.12,0,.18,.08,.18,.23v.44c0,.15-.06,.22-.18,.22h-2.04c.33,.4,.65,.79,.95,1.21,0,.14-.04,.21-.1,.21-.36,.22-.62,.34-.83,.34-.43-.7-.83-1.28-1.2-1.76h-1.08c-.16,.35-.33,.63-.47,.86-.19,.33-.53,.79-1.01,1.39-.1,0-.19-.04-.28-.12-.13-.1-.27-.21-.41-.32-.07-.04-.1-.1-.1-.16,.24-.31,.49-.63,.74-.98,.33-.45,.61-.96,.84-1.52,.21-.49,.37-.97,.49-1.45,0-.07,.03-.11,.06-.11,.77,.36,1.16,.59,1.16,.66"/>
          <path class="cls-1" d="M79.02,108.34c.1,.07,.16,.12,.16,.18,0,.15-.11,.22-.3,.22-.15,0-.27,.03-.36,.06,.43,.53,.87,1.01,1.32,1.43,.59,.55,1.2,.99,1.81,1.31,.81,.52,1.81,.94,2.98,1.27,.15,.03,.22,.05,.22,.11,0,.07-.03,.12-.09,.17-.22,.17-.41,.32-.58,.49-.06,.08-.1,.11-.15,.11-.9-.27-1.64-.58-2.22-.92-.83-.42-1.58-.93-2.27-1.53-.53-.45-1.1-1.04-1.72-1.77-.41,.48-.81,.89-1.2,1.22-.38,.39-.86,.79-1.42,1.21-.56,.42-1.11,.79-1.67,1.12-.56,.34-1.02,.56-1.36,.7-.1,0-.19-.04-.25-.14-.15-.22-.31-.41-.5-.56-.12-.05-.16-.11-.16-.17,0-.03,.03-.05,.09-.08,.78-.28,1.43-.58,1.97-.86,.71-.39,1.42-.9,2.16-1.51,.47-.39,.87-.77,1.18-1.15,.33-.39,.64-.82,.92-1.29,.1-.1,.19-.15,.27-.15l1.17,.52Zm3.29,6.72c.15,0,.22,.06,.22,.17v5.27c0,.11-.07,.17-.22,.17h-.58c-.16,0-.24-.06-.24-.17v-.66h-6.94v.66c0,.11-.07,.17-.22,.17h-.58c-.16,0-.24-.06-.24-.17v-5.22c0-.14,.07-.23,.24-.23h8.56Zm-.82,.89h-6.94v3.03h6.94v-3.03Zm-.57-3.4c.12,0,.18,.07,.18,.21v.44c0,.15-.06,.22-.18,.22h-5.85c-.12,0-.16-.07-.16-.22v-.44c0-.14,.04-.21,.16-.21h5.85Z"/>
          <path class="cls-1" d="M98.72,108.31c.15,0,.23,.05,.23,.15v11.98c0,.11-.09,.17-.23,.17h-.58c-.16,0-.24-.06-.24-.17v-.44h-10.17v.44c0,.11-.09,.17-.24,.17h-.58c-.15,0-.22-.06-.22-.17v-11.98c0-.1,.07-.15,.22-.15h11.8Zm-.82,.81h-10.17v10h10.17v-10Zm-4.97,7.26c0,.44-.01,.67-.04,.72-1.21,.32-2.43,.62-3.66,.87-.15,.27-.25,.39-.34,.39s-.25-.37-.52-1.11c.56-.08,1.26-.21,2.07-.41,.81-.18,1.58-.38,2.31-.61,.01-.01,.04-.03,.07-.03,.06,0,.1,.05,.1,.17m.5-5.6c-.01-.29-.03-.6-.03-.94,0-.11,.03-.17,.1-.17l.92,.07c.16,0,.25,.04,.25,.1,0,.11-.05,.2-.12,.23-.09,.04-.12,.17-.12,.38v.34h1.91c-.24-.19-.49-.36-.73-.53-.22-.14-.4-.24-.55-.29,0-.04,.14-.24,.4-.58,.04-.05,.09-.08,.12-.08,.3,.17,.55,.31,.74,.44,.22,.17,.41,.31,.59,.45,0,.01-.03,.04-.07,.1-.22,.28-.36,.45-.4,.51h.99c.07,0,.12,.06,.12,.16v.44c0,.15-.04,.22-.12,.22h-2.99c0,.53,.03,.99,.06,1.35,.06,.67,.16,1.29,.33,1.86,.06,.25,.13,.49,.19,.69,.21-.34,.38-.7,.55-1.11,.21-.48,.39-1,.51-1.56,.01-.08,.06-.12,.15-.12,.77,.25,1.15,.42,1.15,.49,0,.11-.06,.18-.18,.23-.12,0-.19,.05-.25,.15-.24,.73-.51,1.39-.8,1.98-.21,.38-.43,.72-.65,1.03,.14,.27,.28,.49,.46,.67,.16,.11,.3,.17,.38,.17,.06,0,.13-.08,.24-.25,.1-.18,.22-.47,.34-.85,.04,0,.1,.04,.16,.13,.1,.17,.24,.32,.42,.46,.12,.07,.18,.17,.18,.29-.21,.42-.4,.75-.56,.97-.27,.34-.5,.51-.71,.51-.12,0-.22-.01-.34-.07-.21-.08-.41-.25-.64-.49-.21-.2-.4-.45-.59-.76-.41,.42-.9,.81-1.44,1.17-.06,.03-.12,.04-.18,.04-.12,0-.21-.04-.27-.15-.12-.14-.24-.27-.37-.38-.09-.03-.12-.1-.12-.18,0-.03,.03-.04,.09-.07,.25-.1,.5-.25,.75-.45,.38-.25,.74-.58,1.05-.94-.15-.34-.28-.7-.38-1.1-.18-.67-.31-1.39-.4-2.14-.06-.42-.09-.94-.12-1.56h-4.87c-.07,0-.1-.07-.1-.22v-.44c0-.1,.03-.16,.1-.16h4.84Zm-.96,1.7c.15,0,.24,.06,.24,.15v2.81c0,.11-.09,.16-.24,.16h-3.46c-.16,0-.24-.04-.24-.16v-2.81c0-.1,.07-.15,.24-.15h3.46Zm-.76,.82h-1.95v1.49h1.95v-1.49Z"/>
          <path class="cls-1" d="M104.78,108.25c.25,0,.42,.04,.48,.1,.22,.19,.34,.37,.34,.51l-1.72,3.57c-.01,.06-.01,.11-.01,.16s.01,.08,.06,.12c.52,.56,.9,1.12,1.17,1.69,.21,.53,.33,1.04,.33,1.55,0,.79-.13,1.35-.37,1.71-.28,.48-.74,.7-1.36,.7-.45,0-.67-.08-.68-.27-.05-.2-.11-.42-.19-.67,0-.14,.02-.21,.06-.21l.82,.1c.28,0,.46-.13,.53-.38,.06-.25,.1-.62,.1-1.1,0-.42-.14-.89-.37-1.39-.27-.56-.68-1.11-1.21-1.62-.06-.04-.09-.08-.09-.13,0-.03,.01-.1,.06-.21l1.67-3.42h-2.03v11.32c0,.11-.07,.17-.22,.17h-.59c-.15,0-.22-.05-.22-.17v-11.97c0-.11,.07-.17,.22-.17h3.24Zm3.36-.06c-.18,.31-.33,.59-.46,.83h1.67c.09,0,.15,.03,.21,.05,.16,.2,.25,.32,.25,.38-.19,.67-.37,1.18-.53,1.55-.21,.46-.41,.84-.62,1.14-.22,.29-.49,.59-.8,.87-.36,.31-.75,.58-1.18,.79-.3,.17-.68,.31-1.14,.44-.12,0-.19-.03-.24-.11-.09-.14-.19-.28-.28-.42-.05-.05-.06-.1-.06-.13s.01-.05,.06-.08c.28-.05,.56-.15,.83-.27,.34-.12,.64-.27,.89-.44-.15-.14-.28-.27-.4-.38-.21-.17-.38-.3-.51-.38,0-.04,.14-.21,.4-.52,.03-.06,.07-.08,.12-.08,.27,.2,.47,.38,.65,.53,.12,.14,.22,.25,.31,.35,.21-.17,.38-.37,.53-.56-.15-.14-.28-.28-.42-.42-.21-.17-.38-.31-.5-.4,0-.04,.13-.21,.4-.52,.03-.05,.08-.08,.12-.08,.27,.21,.48,.4,.65,.56,.07,.08,.13,.15,.18,.21,.1-.2,.19-.41,.28-.63,.08-.18,.16-.41,.25-.69h-1.62c-.21,.28-.4,.55-.61,.78-.33,.34-.64,.6-.93,.81-.1,0-.18-.01-.22-.07-.18-.15-.34-.31-.5-.45-.03-.05-.03-.1-.03-.12,.3-.18,.53-.37,.73-.53,.27-.23,.56-.53,.86-.93,.21-.27,.5-.74,.9-1.45l.75,.38Zm.22,9.37c.07,.08,.12,.14,.12,.2,0,.04-.04,.07-.1,.07-.12,.03-.19,.05-.24,.11-.28,.41-.58,.77-.87,1.1-.37,.37-.83,.75-1.39,1.13-.12,0-.21-.04-.24-.1-.21-.16-.37-.28-.52-.39-.07-.03-.1-.07-.1-.1,0-.03,.01-.05,.06-.08,.27-.11,.47-.24,.65-.39,.37-.28,.7-.59,.98-.94,.24-.28,.49-.63,.77-1.07,.03-.06,.06-.1,.09-.1l.8,.58Zm5.27-2.16c.12,0,.18,.07,.18,.21v.45c0,.14-.06,.21-.18,.21h-3.07v3.3c0,.69-.61,1.04-1.79,1.04h-.75c-.08,0-.1-.1-.1-.26-.03-.21-.11-.45-.24-.73v-.04c.36,.06,.7,.1,1.04,.1,.53,0,.81-.17,.81-.49v-2.91h-3.12c-.12,0-.18-.07-.18-.21v-.45c0-.14,.06-.21,.18-.21h7.23Zm-1.63-2.21c.12,0,.18,.08,.18,.22v.44c0,.16-.06,.23-.18,.23h-3.98c-.12,0-.18-.07-.18-.23v-.44c0-.14,.06-.22,.18-.22h3.98Zm-.52-2.81c.09,.19,.18,.37,.28,.52,.15-.11,.28-.25,.41-.4,.21-.21,.43-.48,.64-.81,.07-.11,.18-.26,.3-.45h-1.57c-.12,0-.16-.06-.16-.17v-.44c0-.11,.04-.17,.16-.17h2.03c.11,0,.19,.03,.25,.06l.33,.27c.03,.07,.06,.15,.06,.24-.15,.31-.33,.65-.52,1.01-.24,.39-.47,.76-.74,1.07-.21,.24-.4,.45-.61,.62,.18,.24,.43,.51,.76,.8,.25,.21,.55,.42,.9,.62,.15,.07,.34,.16,.58,.24,.06,0,.09,.03,.09,.08,0,.07-.04,.14-.12,.2-.15,.17-.28,.31-.4,.45-.06,.08-.15,.13-.24,.13-.53-.25-.99-.56-1.39-.93-.36-.34-.65-.64-.87-.96-.31-.39-.58-.84-.78-1.32-.27-.56-.55-1.28-.81-2.18,0-.08,.24-.22,.74-.4,.27,.87,.49,1.51,.7,1.92m1.96,7.9c.41,.42,.75,.79,1.05,1.12,0,0-.03,.04-.06,.11-.3,.39-.44,.6-.46,.6-.46-.53-.95-1.01-1.45-1.45-.41-.35-.77-.61-1.04-.76,0-.04,.15-.25,.46-.62,.04-.05,.09-.08,.12-.08,.56,.4,1.02,.75,1.38,1.07"/>
          <path class="cls-1" d="M15.24,139.87c-.67,.42-1.51,.63-2.52,.63-1.86,0-3.01-.79-3.41-2.36l.96-.37c.33,1.21,1.14,1.81,2.44,1.81,.8,0,1.44-.15,1.93-.49,.44-.31,.68-.72,.68-1.22,0-.53-.37-.99-1.1-1.37-.27-.14-.87-.35-1.82-.66-.92-.28-1.57-.58-1.96-.86-.59-.39-.87-.91-.87-1.56,0-.82,.31-1.42,.96-1.84,.56-.37,1.3-.55,2.24-.55,1.04,0,1.83,.23,2.4,.66,.38,.31,.68,.77,.92,1.36l-.95,.37c-.18-.45-.38-.77-.64-1-.38-.31-.96-.48-1.73-.48-1.45,0-2.18,.49-2.18,1.48,0,.41,.32,.77,.98,1.08,.25,.12,.77,.31,1.54,.55,.99,.32,1.72,.63,2.16,.93,.71,.51,1.07,1.12,1.07,1.89,0,.86-.37,1.52-1.11,2"/>
          <polygon class="cls-1" points="18.55 132.08 18.55 135.21 22.95 135.21 22.95 136.13 18.55 136.13 18.55 140.39 17.53 140.39 17.53 131.15 23.57 131.15 23.57 132.08 18.55 132.08"/>
          <polygon class="cls-1" points="25.11 141.67 24.28 141.46 27.36 130.31 28.16 130.53 25.11 141.67"/>
          <path class="cls-1" d="M36.63,140.36l-1.14-2.63h-4.77l-1.14,2.63h-1.08l4.04-9.21h1.13l4.04,9.21h-1.08Zm-3.52-8.07l-1.98,4.53h3.97l-1.98-4.53Z"/>
          <polygon class="cls-1" points="45.38 140.38 39.85 132.51 39.85 140.38 38.81 140.38 38.81 131.15 40.06 131.15 45.59 139.01 45.59 131.15 46.63 131.15 46.63 140.38 45.38 140.38"/>
          <path class="cls-1" d="M53.73,139.87c-.67,.42-1.51,.63-2.52,.63-1.87,0-3.01-.79-3.41-2.36l.96-.37c.33,1.21,1.14,1.81,2.44,1.81,.8,0,1.44-.15,1.92-.49,.44-.31,.68-.72,.68-1.22,0-.53-.37-.99-1.1-1.37-.27-.14-.87-.35-1.82-.66-.92-.28-1.57-.58-1.95-.86-.59-.39-.87-.91-.87-1.56,0-.82,.31-1.42,.96-1.84,.56-.37,1.3-.55,2.24-.55,1.04,0,1.83,.23,2.4,.66,.38,.31,.68,.77,.92,1.36l-.95,.37c-.18-.45-.38-.77-.64-1-.38-.31-.96-.48-1.73-.48-1.45,0-2.18,.49-2.18,1.48,0,.41,.33,.77,.98,1.08,.25,.12,.77,.31,1.54,.55,.99,.32,1.72,.63,2.16,.93,.71,.51,1.07,1.12,1.07,1.89,0,.86-.37,1.52-1.11,2"/>
          <rect class="cls-1" x="57.09" y="131.15" width="1.04" height="9.24"/>
          <path class="cls-1" d="M70.94,138.13v2.28h-1.05v-2.28h-4.03v-.94l4.12-6.03h.96v6.08h1.32v.9h-1.32Zm-1.05-5.2l-2.96,4.3h2.96v-4.3Z"/>
          <path class="cls-1" d="M79.49,135.14c-.33,.41-.84,.94-1.58,1.59-1.25,1.1-1.99,2.01-2.22,2.74h4.47v.91h-5.91c.21-.84,.58-1.63,1.09-2.35,.43-.59,1.05-1.25,1.88-1.97,.71-.62,1.2-1.1,1.46-1.46,.3-.41,.46-.82,.46-1.24,0-.39-.16-.73-.48-.99-.36-.28-.86-.44-1.51-.44-1.21,0-1.86,.75-1.97,2.22l-.98-.37c.09-.84,.4-1.52,.92-2.03,.51-.49,1.17-.74,2.03-.74,.92,0,1.64,.21,2.19,.6,.53,.42,.81,1,.81,1.73,0,.59-.24,1.18-.68,1.77"/>
          <path class="cls-1" d="M89.66,137.16c-.31-.4-.74-.9-1.3-1.49-.62-.63-1.14-1.11-1.54-1.42l.68-.74c1.05,.83,2.06,1.81,3.02,2.94l-.86,.72Z"/>
          <path class="cls-1" d="M102.18,139.64c-.59,.58-1.32,.86-2.18,.86-1.39,0-2.33-.63-2.83-1.93l.95-.39c.37,.94,.99,1.41,1.88,1.41,.56,0,1.05-.2,1.43-.6,.43-.44,.65-1.04,.65-1.83,0-1.49-.59-2.25-1.78-2.25-.81,0-1.41,.38-1.79,1.14h-.93v-4.88h5.12v.93h-4.1v2.55c.38-.42,.95-.65,1.7-.65,.86,0,1.54,.3,2.04,.86,.5,.56,.75,1.34,.75,2.31,0,1.04-.31,1.87-.93,2.49"/>
          <path class="cls-1" d="M110.39,139.77c-.59,.49-1.32,.73-2.18,.73-1.63,0-2.61-.7-2.93-2.14l.98-.32c.21,1.04,.86,1.55,1.96,1.55,.59,0,1.08-.15,1.46-.49,.37-.33,.56-.72,.56-1.18,0-.51-.18-.93-.53-1.29-.37-.34-.82-.52-1.35-.52h-1.14v-.92h.99c.38,0,.77-.18,1.15-.56,.37-.36,.56-.76,.56-1.16,0-1-.55-1.51-1.64-1.51-.95,0-1.52,.49-1.7,1.48l-.96-.3c.12-.59,.4-1.08,.82-1.46,.47-.42,1.1-.63,1.85-.63,.82,0,1.47,.23,1.96,.66,.47,.44,.71,1.03,.71,1.76,0,.91-.46,1.6-1.35,2.05,.5,.17,.92,.48,1.23,.91,.3,.44,.44,.93,.44,1.49,0,.75-.3,1.37-.89,1.86"/>
          <path class="cls-1" d="M118.23,131.36c.12,0,.18,.05,.18,.17v.55c0,.15-.06,.22-.18,.22h-5.03c-.12,0-.18-.07-.18-.22v-.55c0-.11,.06-.17,.18-.17h5.03Zm-.64,5.84c.15,0,.24,.05,.24,.15v4.07c0,.11-.09,.17-.24,.17h-.58c-.16,0-.24-.06-.24-.17v-.49h-2.19v.66c0,.11-.09,.17-.24,.17h-.58c-.15,0-.22-.05-.22-.17v-4.18c0-.14,.07-.21,.22-.21h3.82Zm0-3.86c.12,0,.18,.08,.18,.23v.44c0,.15-.06,.22-.18,.22h-3.76c-.12,0-.18-.07-.18-.22v-.44c0-.14,.06-.23,.18-.23h3.76Zm0,1.87c.12,0,.18,.08,.18,.23v.44c0,.14-.06,.21-.18,.21h-3.76c-.12,0-.18-.07-.18-.21v-.44c0-.14,.06-.23,.18-.23h3.76Zm0-5.82c.12,0,.18,.07,.18,.21v.45c0,.14-.06,.21-.18,.21h-3.64c-.12,0-.18-.07-.18-.21v-.45c0-.14,.06-.21,.18-.21h3.64Zm-.81,8.68h-2.19v1.98h2.19v-1.98Zm3.12-.62c.07,.01,.12,.05,.12,.12s-.1,.16-.28,.27c-.18,.85-.33,1.45-.44,1.84-.12,.37-.27,.73-.43,1.07-.12,0-.21-.03-.28-.07-.15-.08-.31-.15-.5-.18-.06-.03-.09-.07-.09-.12,.06-.1,.12-.21,.18-.34,.15-.28,.27-.57,.37-.91,.09-.31,.16-.68,.24-1.12,.04-.24,.07-.49,.09-.76,0-.03,.01-.04,.06-.04l.98,.25Zm5.85-8.06c.1,0,.16,.07,.16,.21-.02,1.55-.06,2.66-.15,3.33-.12,.82-.25,1.42-.43,1.81-.16,.42-.61,.63-1.32,.63-.59,0-.9-.08-.92-.28-.05-.21-.16-.46-.36-.77v-.1c.46,.07,.89,.1,1.27,.1,.3,0,.49-.14,.58-.42,.09-.22,.18-.67,.25-1.34,.06-.48,.1-1.25,.13-2.31h-2.28c-.07,.59-.16,1.11-.27,1.57-.13,.45-.28,.86-.43,1.21-.16,.34-.34,.63-.55,.89-.24,.28-.52,.52-.87,.74-.37,.23-.89,.45-1.54,.7-.09,0-.15-.03-.18-.11-.15-.17-.27-.34-.39-.51-.06-.05-.07-.08-.07-.1,0-.03,.02-.04,.04-.04,.47-.13,.9-.3,1.29-.52,.25-.13,.47-.28,.68-.48,.19-.18,.36-.38,.49-.6,.03-.06,.07-.13,.12-.18-.34-.24-.7-.45-1.05-.65-.39-.19-.7-.35-.93-.44,0-.05,.15-.25,.44-.62,.04-.05,.09-.1,.13-.1,.49,.22,.9,.42,1.23,.62,.18,.12,.36,.24,.52,.34,.09-.31,.16-.62,.22-.96,.04-.25,.07-.52,.11-.77h-2.49c-.12,0-.16-.07-.16-.21v-.45c0-.14,.04-.21,.16-.21h6.54Zm-4.28,7.58c0,.08-.04,.17-.12,.27v3.08c0,.15,.03,.23,.12,.23h2.59c.24,0,.47-.42,.7-1.27l.93,.55c-.37,1.1-.81,1.64-1.33,1.64h-3.3c-.5,0-.74-.22-.74-.66v-3.9c0-.11,.03-.17,.1-.17,.7,.05,1.05,.14,1.05,.22m1.72-.17c.18,.38,.34,.79,.47,1.21,0,.04-.31,.14-.92,.28-.06-.28-.18-.62-.33-1.03-.19-.47-.43-.93-.72-1.39,0-.06,.25-.21,.75-.44,.3,.49,.55,.94,.74,1.36m2.78,.8c.22,.45,.41,.91,.58,1.39,0,.04-.31,.14-.92,.28-.06-.32-.21-.72-.41-1.19-.24-.53-.53-1.07-.92-1.6,0-.06,.25-.21,.75-.45,.37,.58,.68,1.1,.92,1.57"/>
          <path class="cls-1" d="M132.33,131.36c.12,0,.18,.08,.18,.22v.44c0,.16-.06,.23-.18,.23h-4.28c-.12,0-.18-.07-.18-.23v-.44c0-.14,.06-.22,.18-.22h4.28Zm-.52,5.93c.15,0,.24,.06,.24,.17v4.12c0,.11-.09,.17-.24,.17h-.57c-.12,0-.18-.06-.18-.17v-.66h-1.91v.66c0,.11-.07,.17-.22,.17h-.58c-.12,0-.18-.06-.18-.17v-4.07c0-.14,.06-.23,.18-.23h3.46Zm.06-3.95c.12,0,.18,.08,.18,.23v.44c0,.15-.06,.22-.18,.22h-3.48c-.12,0-.16-.07-.16-.22v-.44c0-.14,.04-.23,.16-.23h3.48Zm0,1.98c.12,0,.18,.07,.18,.21v.45c0,.14-.06,.21-.18,.21h-3.48c-.12,0-.16-.07-.16-.21v-.45c0-.14,.04-.21,.16-.21h3.48Zm0-5.94c.12,0,.18,.07,.18,.21v.45c0,.14-.06,.21-.18,.21h-3.3c-.12,0-.18-.07-.18-.21v-.45c0-.14,.06-.21,.18-.21h3.3Zm-.81,8.79h-1.91v1.87h1.91v-1.87Zm5.67-8.84c.09,0,.18,.03,.24,.07,.18,.2,.28,.32,.28,.37-.18,.6-.36,1.07-.52,1.39-.19,.42-.38,.76-.59,1.03-.18,.24-.4,.47-.64,.66h3.66c-.15-.17-.28-.35-.4-.55-.34-.45-.8-1.29-1.39-2.53l.64-.55c.18,.38,.36,.72,.52,1.01,.03-.03,.06-.04,.09-.07,.18-.14,.36-.29,.52-.48,.15-.17,.27-.37,.37-.56,.03-.04,.04-.07,.06-.07l.67,.47c.09,.05,.15,.11,.15,.19s-.06,.11-.18,.11c-.09,0-.15,.03-.18,.07-.41,.45-.8,.77-1.13,.98,.1,.18,.21,.34,.3,.45,.12,.17,.22,.31,.33,.44,.06-.03,.1-.07,.15-.11,.21-.14,.41-.32,.61-.53,.16-.19,.31-.39,.43-.62,.03-.04,.05-.07,.07-.07l.67,.45c.09,.06,.15,.13,.15,.21s-.06,.11-.18,.11c-.09,0-.16,.03-.21,.08-.43,.45-.83,.8-1.2,1.05,.12,.14,.24,.25,.36,.36,.43,.44,.86,.72,1.29,.86,0,.07-.04,.11-.1,.14-.3,.23-.49,.41-.61,.55-.04,.05-.12,.07-.22,.07-.49-.3-.95-.72-1.38-1.25v.44c0,.14-.06,.21-.18,.21h-3.88c-.12,0-.16-.07-.16-.21v-.35c-.28,.2-.58,.37-.89,.51-.28,.15-.64,.28-1.08,.39-.12,0-.21-.03-.25-.11-.12-.14-.22-.28-.31-.42-.06-.05-.07-.1-.07-.12,0-.03,.02-.04,.06-.07,.27-.06,.52-.14,.79-.24,.47-.17,.87-.39,1.2-.66h.01c-.18-.18-.36-.35-.53-.49-.25-.2-.46-.32-.61-.41,0-.04,.13-.23,.41-.56,.03-.05,.07-.1,.1-.1,.33,.23,.61,.42,.82,.59,.15,.15,.29,.28,.41,.39,.07-.08,.15-.17,.21-.25,.21-.28,.37-.6,.52-.97,.06-.14,.13-.32,.21-.52h-2.44c-.09,0-.12-.05-.12-.17v-.44c0-.11,.03-.17,.12-.17h3.06Zm3.02,9.41c.15,.06,.22,.13,.22,.21,0,.05-.04,.1-.12,.11-.09,0-.15,.06-.16,.14-.25,.66-.51,1.17-.74,1.51h2.06c.12,0,.18,.07,.18,.21v.44c0,.14-.06,.23-.18,.23h-7.74c-.12,0-.18-.08-.18-.23v-.44c0-.14,.06-.21,.18-.21h5.14c-.15-.06-.28-.11-.4-.17-.09-.03-.12-.04-.12-.06,0-.03,.01-.05,.04-.1,.21-.32,.37-.62,.49-.87,.16-.32,.28-.64,.37-.97,.01-.1,.04-.15,.07-.15l.89,.35Zm.16-3.87c.15,0,.22,.05,.22,.17v2.86c0,.11-.08,.17-.22,.17h-5.61c-.16,0-.24-.06-.24-.17v-2.86c0-.11,.08-.17,.24-.17h5.61Zm-3.79,4.57c.18,.3,.31,.6,.43,.93,0,.03-.31,.13-.92,.28-.06-.21-.15-.46-.3-.77-.16-.34-.37-.69-.64-1.04,0-.06,.25-.21,.76-.45,.27,.39,.49,.74,.66,1.05m3.04-3.74h-4.1v1.53h4.1v-1.53Z"/>
          <path class="cls-1" d="M144.64,131.97v-2.74c0-.11,.07-.17,.24-.17,.73,0,1.1,.05,1.1,.17,0,.13-.06,.2-.15,.21-.1,.01-.15,.11-.15,.28v2.25h1.33c.12,0,.18,.08,.18,.22v.44c0,.16-.06,.23-.18,.23h-1.14c.19,.63,.37,1.12,.53,1.49,.19,.52,.55,1.11,1.05,1.76,.04,.04,.07,.1,.07,.15,0,.03-.03,.07-.09,.11-.1,.12-.24,.25-.4,.39-.06,.07-.12,.1-.15,.1s-.09-.03-.15-.1c-.36-.49-.65-1.05-.9-1.67-.06-.14-.12-.28-.16-.44v6.99c0,.11-.07,.17-.22,.17h-.58c-.16,0-.24-.06-.24-.17v-5.64c-.15,.42-.28,.82-.43,1.17-.24,.62-.52,1.19-.84,1.73-.12,0-.19-.03-.24-.08-.21-.08-.41-.18-.62-.3-.09,0-.12-.01-.12-.07,.43-.67,.77-1.34,1.04-1.98,.27-.6,.47-1.2,.62-1.79,.12-.39,.25-1,.41-1.83h-1.55c-.12,0-.18-.07-.18-.23v-.44c0-.14,.06-.22,.18-.22h1.73Zm5.21,7.24c.06,.07,.1,.13,.1,.18,0,.03-.03,.05-.09,.05-.12,.01-.19,.04-.24,.08-.25,.31-.52,.58-.8,.82-.36,.28-.78,.56-1.3,.86-.12,0-.19-.04-.22-.11-.19-.15-.36-.28-.47-.39-.07-.03-.1-.07-.1-.1,0-.03,.01-.06,.04-.07,.24-.07,.44-.17,.62-.28,.34-.21,.64-.45,.9-.7,.21-.21,.46-.48,.73-.8,.02-.04,.05-.07,.07-.07l.76,.53Zm5.89-2.01c.07,0,.12,.06,.12,.16v.44c0,.15-.04,.22-.12,.22h-3.58v2.7c0,.69-.61,1.04-1.79,1.04h-.64c-.07,0-.11-.1-.11-.27-.03-.21-.1-.45-.25-.73v-.04c.33,.05,.64,.1,.93,.1,.53,0,.82-.17,.82-.49v-2.31h-3.7c-.09,0-.12-.07-.12-.22v-.44c0-.1,.03-.16,.12-.16h8.32Zm.06-7.59c.07,0,.12,.05,.12,.17v.44c0,.15-.04,.22-.12,.22h-2.6v1.1h2.09c.15,0,.22,.05,.22,.17v2.68c0,.11-.07,.17-.22,.17h-7.4c-.16,0-.24-.05-.24-.17v-2.68c0-.11,.07-.17,.24-.17h2.03v-1.1h-2.38c-.07,0-.1-.07-.1-.22v-.44c0-.11,.03-.17,.1-.17h8.28Zm-.98,5.88c.06,0,.1,.05,.1,.17v.44c0,.15-.04,.23-.1,.23h-6.43c-.09,0-.12-.07-.12-.23v-.44c0-.11,.03-.17,.12-.17h6.43Zm-4.92-3.12h-1.21v1.36h1.21v-1.36Zm2.31-1.93h-1.33v1.1h1.33v-1.1Zm0,1.93h-1.33v1.36h1.33v-1.36Zm2.25,0h-1.27v1.36h1.27v-1.36Zm.55,7.26c.37,.37,.7,.69,.96,.99,0,0-.03,.04-.07,.1-.3,.37-.44,.56-.44,.56-.41-.48-.84-.89-1.29-1.26-.37-.31-.68-.52-.92-.66,0-.06,.13-.24,.4-.58,.05-.06,.09-.08,.12-.08,.5,.34,.92,.66,1.25,.94"/>
          <path class="cls-1" d="M159.41,132.12c.37,.24,.7,.45,.96,.62,0,.03-.03,.05-.07,.1-.3,.38-.44,.56-.46,.56-.41-.28-.83-.55-1.27-.8-.37-.2-.68-.32-.92-.41,0-.04,.13-.22,.4-.56,.05-.06,.09-.1,.12-.1,.5,.22,.92,.42,1.24,.59m4.55,6.23v-.89c0-.11,.07-.17,.22-.17,.74,0,1.11,.06,1.11,.17,0,.13-.06,.2-.15,.21-.11,.01-.15,.11-.15,.28v.39h5.32c.12,0,.18,.07,.18,.21v.44c0,.15-.06,.23-.18,.23h-5.32v2.53c0,.1-.09,.15-.24,.15h-.58c-.15,0-.22-.05-.22-.15v-2.53h-6.13c-.12,0-.18-.07-.18-.23v-.44c0-.14,.06-.21,.18-.21h6.13Zm-2.87-4.51c.21,.45,.32,.69,.32,.72,0,.04-.03,.08-.07,.11-.52,.65-1.01,1.18-1.47,1.63-.25,.25-.56,.52-.92,.81-.06,.09-.09,.18-.09,.3s-.05,.17-.12,.17c-.06,0-.34-.25-.83-.79-.06-.03-.09-.07-.09-.15,0-.03,.01-.07,.07-.11,.29-.15,.59-.35,.89-.6,.41-.32,.81-.7,1.21-1.12,.34-.35,.64-.69,.9-1,.03-.04,.06-.07,.11-.07,.03,0,.04,.04,.07,.11m-.68-4.08c.34,.24,.64,.45,.89,.62,0,.03-.03,.05-.07,.1-.29,.38-.44,.56-.44,.56-.38-.28-.77-.55-1.18-.8-.34-.2-.62-.33-.85-.41,0-.04,.14-.22,.42-.56,.03-.06,.07-.1,.1-.1,.46,.22,.85,.42,1.14,.59m4.41-.48c0,.08-.03,.13-.07,.13-.15,.01-.24,.07-.27,.15-.19,.38-.37,.7-.53,.98h2.34c.12-.17,.21-.31,.28-.42,.15-.28,.3-.65,.43-1.07,.01-.05,.04-.1,.09-.1,.8,.34,1.21,.52,1.21,.55,0,.04-.06,.07-.18,.1-.12,.03-.21,.08-.27,.19-.12,.26-.25,.49-.4,.75h2.75c.06,0,.11,.05,.11,.17v.44c0,.11-.05,.17-.11,.17h-2.96v.99h2.6c.07,0,.12,.05,.12,.17v.44c0,.14-.05,.21-.12,.21h-2.6v.94h2.6c.07,0,.12,.05,.12,.17v.44c0,.14-.05,.21-.12,.21h-2.6v1h3.24c.07,0,.12,.05,.12,.15v.45c0,.14-.04,.21-.12,.21h-6.89v.55c0,.11-.07,.17-.22,.17h-.47c-.15,0-.22-.05-.22-.17v-5.13c-.27,.27-.59,.58-.99,.92-.09,0-.18-.04-.25-.13-.14-.1-.27-.21-.4-.32-.06-.04-.09-.1-.09-.15,.33-.28,.65-.59,.99-.92,.43-.41,.8-.87,1.12-1.39,.28-.45,.5-.89,.65-1.32,0-.07,.03-.11,.06-.11,.68,.34,1.04,.55,1.04,.6m1.39,2.04h-2.6v.99h2.6v-.99Zm0,1.8h-2.6v.94h2.6v-.94Zm0,1.76h-2.6v1h2.6v-1Z"/>
        </g>
        <g>
          <path class="cls-3" d="M45.02,47.3c0-24.88,20.11-44.99,44.94-44.99s44.94,20.11,44.94,44.99-20.12,44.89-44.94,44.89-44.94-20.1-44.94-44.89"/>
          <polygon class="cls-2" points="58.96 66.69 58.96 28.07 65.24 28.07 72.28 46.78 72.28 28.07 78.87 28.07 78.87 66.49 73.22 66.49 66.22 46.32 66.22 66.69 58.96 66.69"/>
          <path class="cls-2" d="M91.25,67.15c-6.64,0-10.26-4.61-9.95-11.97h6.89c0,3.63,.11,6.22,3.16,6.22,1.55,0,2.33-1.6,2.33-4.14,0-6.95-11.72-7.73-11.72-19.18,0-6.01,2.75-10.26,9.59-10.26,5.65,0,8.76,2.59,8.91,11.71h-6.22c0-3.78-.67-6.16-2.75-6.16-1.87,0-3.16,1.51-2.75,4.15,1.09,6.89,12.03,8.45,12.24,19.07,.21,9.18-6.74,10.57-9.75,10.57"/>
          <polygon class="cls-2" points="103.85 66.49 103.85 28.08 119.82 28.08 119.82 33.99 111.47 33.99 111.47 43.83 117.43 43.83 117.43 50.47 111.47 50.47 111.47 66.49 103.85 66.49"/>
          <path class="cls-2" d="M117.79,66.84c1.6,0,2.96-1.24,2.96-2.96s-1.35-3.01-2.96-3.01-3.01,1.3-3.01,3.01,1.4,2.96,3.01,2.96m-2.44-2.96c0-1.45,1.09-2.49,2.44-2.49s2.44,1.04,2.44,2.49-1.09,2.44-2.44,2.44-2.44-1.04-2.44-2.44m1.82,.21h.62l.89,1.5h.57l-.99-1.5c.52-.1,.94-.37,.94-.98,0-.67-.41-.93-1.25-.93h-1.3v3.42h.52v-1.5Zm0-.42v-1.09h.72c.36,0,.73,.11,.73,.52,0,.52-.42,.57-.83,.57h-.62Z"/>
        </g>
      </g>
      <g>
        <g>
          <path class="cls-1" d="M397.59,112.78c.15,0,.22,.05,.22,.17v3.63c0,.34,.06,.57,.16,.74,.07,.17,.19,.31,.37,.4,.21,.11,.48,.2,.77,.25,.38,.06,.83,.08,1.3,.08h3.14c1.21,0,2.66-.12,4.34-.38,.06-.03,.13-.05,.22-.05,.06,0,.11,.03,.11,.05-.12,.37-.21,.75-.27,1.14-.03,.15-.11,.24-.25,.24h-7.29c-.36,0-.7-.03-1.02-.08-.34-.06-.66-.13-.98-.21-.28-.11-.55-.24-.78-.41-.16-.14-.34-.39-.52-.73l-.06-.05c-.06,0-.1,.01-.1,.04-.98,.72-1.53,1.21-1.62,1.46-.03,.05-.07,.1-.13,.1-.06,0-.25-.24-.56-.72-.06-.08-.07-.18-.07-.28,.56-.25,1.27-.67,2.13-1.29,.04-.03,.07-.13,.07-.3v-2.91h-1.85c-.12,0-.18-.07-.18-.23v-.44c0-.14,.06-.22,.18-.22h2.67Zm-.75-2.56c.4,.28,.74,.53,1.04,.76,0,.01-.03,.06-.07,.11-.3,.4-.44,.59-.44,.59-.45-.35-.92-.67-1.42-.97-.41-.24-.74-.41-1.01-.51,0-.05,.15-.25,.46-.62,.04-.05,.09-.1,.12-.1,.53,.27,.98,.51,1.33,.73m.28-3c.38,.25,.71,.48,.99,.67,0,.01-.03,.06-.08,.11-.29,.41-.44,.6-.44,.6-.43-.31-.89-.6-1.36-.87-.38-.21-.71-.37-.96-.45,0-.05,.15-.25,.46-.62,.04-.05,.09-.1,.12-.1,.52,.24,.95,.45,1.27,.65m9.15-.53c.13,0,.22,.03,.27,.06,.21,.14,.31,.25,.31,.32l-2.92,1.9c.24,.11,.44,.21,.65,.3,0,.03-.03,.05-.07,.11-.07,.1-.13,.17-.18,.22h2.58c.18,0,.28,.1,.28,.27v6.65c0,.28-.19,.49-.58,.63-.36,.13-.83,.21-1.39,.25-.12,0-.18-.04-.18-.15-.03-.18-.14-.46-.34-.84,0-.03,.03-.04,.12-.04,.65,0,1.05-.03,1.17-.1,.15-.05,.22-.15,.22-.31v-1.03h-2.49v2.36c0,.11-.09,.15-.23,.15h-.58c-.16,0-.24-.04-.24-.15v-2.36h-2.31v2.25c0,.11-.09,.17-.23,.17h-.58c-.12,0-.16-.06-.16-.17v-7.37c0-.14,.05-.21,.16-.21h3.79c-.41-.18-.84-.35-1.26-.51-.58-.2-1.05-.35-1.42-.44,0-.04,.13-.23,.4-.56,.03-.05,.07-.08,.12-.08,.72,.21,1.32,.41,1.79,.58l1.75-1.08h-5.21c-.12,0-.18-.07-.18-.21v-.44c0-.11,.06-.17,.18-.17h6.77Zm-3.6,3.78h-2.31v1.38h2.31v-1.38Zm0,2.21h-2.31v1.42h2.31v-1.42Zm1.05-.83h2.49v-1.38h-2.49v1.38Zm0,2.25h2.49v-1.42h-2.49v1.42Z"/>
          <path class="cls-1" d="M412.33,112.57c.18,0,.28,.06,.28,.17v3.29c0,.17,.01,.4,.04,.66,.18,.36,.43,.67,.74,.93,.4,.25,.99,.4,1.79,.4h4.04c.36,0,.95-.04,1.81-.13,.78-.08,1.39-.15,1.81-.25,.06,0,.12-.01,.18-.01,.07,0,.12,.04,.12,.11-.18,.31-.34,.6-.46,.86-.03,.2-.12,.3-.3,.3h-7.19c-1.04,0-1.87-.25-2.49-.73-.3-.28-.55-.65-.78-1.14-.5,.47-.93,.87-1.32,1.27-.23,.13-.36,.28-.37,.48,0,.15-.04,.24-.1,.24-.04,0-.1-.04-.18-.13l-.74-1.03c.24-.03,.93-.47,2.06-1.32,.16-.07,.25-.24,.25-.49v-2.59h-1.79c-.12,0-.18-.07-.18-.21v-.45c0-.14,.06-.21,.18-.21h2.61Zm-.84-2.57c.38,.27,.73,.51,1,.7,0,.01-.03,.06-.06,.11-.3,.41-.44,.6-.46,.6-.44-.32-.9-.63-1.38-.91-.4-.21-.73-.37-.99-.47,0-.04,.15-.25,.46-.62,.04-.05,.09-.1,.12-.1,.53,.25,.96,.48,1.3,.68m.49-3.03c.39,.25,.71,.47,.99,.65,0,.03-.03,.07-.07,.13-.3,.4-.44,.59-.44,.59-.43-.31-.89-.58-1.36-.83-.38-.2-.71-.35-.96-.44,0-.04,.15-.25,.46-.62,.05-.06,.09-.1,.12-.1,.52,.22,.95,.44,1.27,.62m8.86-.4c.15,0,.24,.06,.24,.17v4.23h1.1c.18,0,.28,.06,.28,.16v5.48c0,.23-.19,.41-.56,.52-.36,.11-.83,.18-1.41,.21-.1,0-.16-.06-.18-.17-.03-.2-.13-.49-.34-.89,0-.03,.03-.04,.12-.04,.64,0,1.01-.01,1.13-.06,.13-.04,.21-.12,.21-.24v-4.16h-6.71v5.16c0,.11-.09,.17-.24,.17h-.57c-.15,0-.22-.06-.22-.17v-5.82c0-.1,.07-.16,.22-.16h.99v-4.23c0-.11,.07-.17,.22-.17h5.73Zm-3.58,4.4v-2.1c0-.11,.08-.17,.22-.17h2.55v-1.31h-4.1v3.57h1.33Zm2.65,1.86c.15,0,.24,.06,.24,.17v2.8c0,.11-.09,.17-.24,.17h-3.7c-.15,0-.22-.06-.22-.17v-2.8c0-.11,.07-.17,.22-.17h3.7Zm-.8,.83h-2.09v1.48h2.09v-1.48Zm.92-4.12h-1.73v1.44h1.73v-1.44Z"/>
          <path class="cls-1" d="M436.78,106.75c.15,0,.23,.05,.23,.15v11.98c0,.11-.09,.17-.23,.17h-.58c-.16,0-.24-.06-.24-.17v-.44h-10.17v.44c0,.11-.09,.17-.24,.17h-.58c-.15,0-.22-.06-.22-.17v-11.98c0-.1,.07-.15,.22-.15h11.8Zm-.82,.81h-10.17v10h10.17v-10Zm-4.98,7.26c0,.44-.01,.67-.04,.72-1.21,.32-2.43,.62-3.66,.87-.15,.27-.25,.39-.34,.39s-.25-.37-.52-1.11c.56-.08,1.26-.21,2.07-.41,.81-.18,1.58-.38,2.31-.61,.02-.01,.05-.03,.07-.03,.06,0,.1,.05,.1,.17m.51-5.6c-.01-.29-.03-.6-.03-.94,0-.11,.03-.17,.1-.17l.92,.07c.16,0,.25,.04,.25,.1,0,.11-.04,.2-.12,.23-.09,.04-.12,.17-.12,.38v.34h1.91c-.24-.19-.49-.36-.72-.53-.22-.14-.4-.24-.55-.29,0-.04,.13-.24,.4-.58,.05-.05,.09-.08,.12-.08,.3,.17,.55,.31,.74,.44,.22,.17,.41,.31,.59,.45,0,.01-.03,.04-.07,.1-.22,.28-.36,.45-.4,.51h.99c.07,0,.12,.06,.12,.16v.44c0,.15-.04,.22-.12,.22h-2.99c0,.53,.03,.99,.06,1.35,.06,.67,.16,1.29,.33,1.86,.06,.25,.13,.49,.19,.69,.21-.34,.38-.7,.55-1.11,.21-.48,.39-1,.51-1.56,.01-.08,.06-.12,.15-.12,.77,.25,1.15,.42,1.15,.49,0,.11-.06,.18-.18,.23-.12,0-.19,.05-.25,.15-.24,.73-.51,1.39-.8,1.98-.21,.38-.43,.72-.65,1.03,.14,.27,.28,.49,.46,.67,.16,.11,.29,.17,.38,.17,.06,0,.14-.08,.24-.25,.1-.18,.22-.47,.34-.85,.04,0,.1,.04,.16,.13,.1,.17,.23,.32,.41,.46,.12,.07,.18,.17,.18,.29-.21,.42-.4,.75-.56,.97-.27,.34-.51,.51-.71,.51-.12,0-.22-.01-.34-.07-.21-.08-.42-.25-.64-.49-.21-.2-.4-.45-.59-.76-.42,.42-.9,.81-1.44,1.17-.06,.03-.12,.04-.18,.04-.12,0-.21-.04-.27-.15-.12-.14-.24-.27-.37-.38-.09-.03-.12-.1-.12-.18,0-.03,.03-.04,.09-.07,.25-.1,.5-.25,.75-.45,.38-.25,.74-.58,1.05-.94-.15-.34-.28-.7-.38-1.1-.18-.67-.31-1.39-.4-2.14-.06-.42-.09-.94-.12-1.56h-4.87c-.08,0-.1-.07-.1-.22v-.44c0-.1,.03-.16,.1-.16h4.84Zm-.96,1.7c.15,0,.24,.06,.24,.15v2.81c0,.11-.09,.16-.24,.16h-3.46c-.16,0-.24-.04-.24-.16v-2.81c0-.1,.07-.15,.24-.15h3.46Zm-.76,.82h-1.95v1.49h1.95v-1.49Z"/>
          <path class="cls-1" d="M446.42,106.41c0,.13-.04,.2-.13,.21-.1,.01-.15,.11-.15,.28v.77h5.67c.15,0,.22,.05,.22,.17v2.69c0,.11-.07,.17-.22,.17h-.57c-.16,0-.24-.05-.24-.17v-1.97h-10.71v1.97c0,.11-.07,.17-.22,.17h-.58c-.16,0-.23-.05-.23-.17v-2.63c0-.14,.07-.22,.23-.22h5.61v-1.27c0-.1,.07-.15,.22-.15,.73,0,1.09,.05,1.09,.15m3.48,3.36c.1,0,.16,.07,.16,.21v.44c0,.15-.06,.22-.16,.22h-3.7c-.28,.23-.53,.41-.75,.56,.43,.51,.78,.93,1.08,1.28,.21,.34,.4,.65,.55,.93,.95-.62,1.76-1.21,2.43-1.79,.15-.1,.28-.15,.4-.15,.06,0,.13,.04,.22,.1,.62,.39,.93,.63,.93,.71,0,.16-.06,.23-.18,.23l-.34-.05c-.15,0-.33,.07-.53,.19-.65,.4-1.41,.9-2.28,1.52,.27,.41,.55,.77,.84,1.08,.44,.49,.9,.89,1.38,1.18,.62,.47,1.39,.85,2.28,1.14,.1,.03,.16,.06,.16,.1,0,.07-.03,.13-.09,.17-.22,.16-.42,.33-.58,.49-.06,.07-.1,.11-.15,.11-.68-.25-1.23-.53-1.67-.84-.62-.37-1.2-.84-1.7-1.41-.15-.14-.31-.31-.46-.51,0,.08,.01,.15,.01,.22,0,.42-.06,.85-.16,1.27-.15,.44-.29,.77-.47,1.03-.22,.25-.51,.47-.86,.62-.5,.18-1.01,.28-1.51,.28-.16,0-.23-.08-.23-.24-.12-.37-.25-.65-.4-.82,0-.11,.03-.15,.12-.15l.34,.06c.74,0,1.24-.11,1.51-.32,.22-.17,.37-.4,.46-.7,.12-.31,.18-.65,.18-1.01,0-.22-.03-.44-.06-.66-.24,.21-.49,.39-.73,.56-.56,.45-1.15,.85-1.75,1.18-.68,.37-1.42,.7-2.25,1.01-1.02,.37-1.6,.55-1.75,.55-.07,0-.15-.07-.21-.2-.15-.17-.31-.34-.49-.51-.09-.08-.12-.14-.12-.18,1.11-.25,2.06-.52,2.86-.8,.77-.28,1.55-.66,2.34-1.12,.47-.31,1.08-.79,1.82-1.45-.15-.35-.32-.7-.52-1.05-.24,.21-.47,.39-.71,.56-.49,.4-.99,.72-1.49,1-.59,.31-1.23,.6-1.94,.87-.87,.31-1.38,.47-1.49,.47-.06,0-.14-.06-.19-.18-.15-.17-.31-.34-.49-.52-.09-.08-.12-.14-.12-.18,.95-.21,1.75-.44,2.43-.66,.68-.24,1.35-.55,2.03-.93,.39-.24,.88-.62,1.47-1.14-.21-.25-.43-.52-.67-.8-.07,.05-.13,.08-.18,.11-.58,.36-1.2,.69-1.87,.98-.77,.34-1.52,.62-2.3,.85-.12,0-.19-.03-.25-.08-.19-.17-.38-.34-.56-.49-.03-.06-.05-.1-.05-.14,.73-.18,1.32-.37,1.79-.53,.68-.22,1.39-.55,2.13-.94,.33-.18,.75-.47,1.29-.83h-3.26c-.12,0-.16-.07-.16-.22v-.44c0-.14,.04-.21,.16-.21h8.45Z"/>
          <path class="cls-1" d="M457,116.67c.07,.08,.12,.14,.12,.18,0,.04-.03,.07-.09,.07-.12,.03-.19,.06-.22,.1-.25,.35-.52,.66-.8,.94-.32,.32-.75,.64-1.26,.98-.12,0-.21-.04-.24-.11-.21-.16-.38-.28-.52-.4-.09-.03-.12-.07-.12-.1s.01-.06,.06-.07c.24-.1,.43-.21,.59-.34,.33-.24,.62-.51,.89-.82,.21-.25,.45-.56,.71-.94,.01-.05,.04-.08,.07-.08l.8,.57Zm1.15-9.91c0,.08-.03,.12-.09,.12-.16,.01-.27,.06-.31,.14-.15,.25-.28,.46-.4,.66h8.96c.12,0,.18,.08,.18,.23v.44c0,.15-.06,.22-.18,.22h-1.21v2.57h1.85c.12,0,.18,.08,.18,.22v.44c0,.15-.06,.22-.18,.22h-1.85v2.68h1.45c.1,0,.16,.09,.16,.23v.44c0,.15-.06,.22-.16,.22h-11.92c-.12,0-.18-.07-.18-.22v-.44c0-.14,.06-.23,.18-.23h1.51v-2.68h-2.03c-.12,0-.18-.07-.18-.22v-.44c0-.14,.06-.22,.18-.22h2.03v-1.96c-.3,.28-.71,.65-1.27,1.08-.12,0-.21-.04-.28-.13-.15-.1-.28-.21-.43-.32-.07-.04-.1-.1-.1-.15,.34-.28,.68-.56,1.04-.87,.44-.4,.84-.83,1.17-1.32,.3-.43,.52-.85,.68-1.27,0-.07,.03-.11,.06-.11,.77,.37,1.15,.59,1.15,.66m.58,1.81h-1.55v2.57h1.55v-2.57Zm0,3.46h-1.55v2.69h1.55v-2.69Zm.64,4.18c.41,.67,.82,1.38,1.17,2.14,0,.13-.05,.2-.1,.23-.36,.21-.62,.32-.83,.32-.37-.93-.71-1.69-1.04-2.31,0-.1,.21-.24,.64-.44,.09,0,.13,.03,.16,.06m2.03-7.64h-1.62v2.57h1.62v-2.57Zm0,3.46h-1.62v2.69h1.62v-2.69Zm.87,4.18c.52,.69,.99,1.42,1.44,2.19,0,.12-.03,.19-.09,.21-.36,.23-.64,.34-.83,.34-.47-.96-.92-1.73-1.33-2.36,0-.1,.21-.24,.64-.44,.09,0,.15,.03,.18,.06m1.79-7.64h-1.63v2.57h1.63v-2.57Zm0,3.46h-1.63v2.69h1.63v-2.69Zm2.19,5.11c.41,.41,.75,.76,1.05,1.1,0,.01-.03,.05-.07,.11-.3,.39-.45,.6-.46,.6-.44-.52-.92-.98-1.41-1.41-.41-.34-.75-.59-1.02-.73,0-.06,.15-.25,.46-.62,.05-.06,.09-.1,.12-.1,.53,.38,.98,.73,1.33,1.04"/>
          <path class="cls-1" d="M398.8,127.61c0,.08-.04,.12-.1,.12-.16,.01-.27,.06-.31,.14-.03,.07-.06,.13-.09,.17,.33,.49,.59,.84,.83,1.07,.36,.39,.78,.74,1.29,1.07,0,.1-.03,.17-.09,.21-.15,.11-.33,.27-.55,.45-.03,0-.06-.01-.09-.04-.3-.18-.59-.42-.86-.72-.3-.33-.61-.76-.96-1.29-.38,.62-.77,1.11-1.16,1.48-.29,.32-.81,.79-1.55,1.41-.12,0-.21-.04-.3-.13-.13-.1-.27-.21-.41-.32-.07-.04-.1-.1-.1-.15,.38-.31,.77-.65,1.15-1,.5-.47,.95-.99,1.32-1.55,.33-.49,.59-.99,.77-1.46,0-.07,.03-.11,.06-.11,.77,.37,1.15,.59,1.15,.66m1.04,3.73c.07,0,.12,.05,.12,.17v.44c0,.15-.04,.22-.12,.22h-1.57v1.7h1.91c.12,0,.18,.08,.18,.22v.44c0,.16-.06,.23-.18,.23h-1.91v3.7c.68-.11,1.35-.23,2-.34,.03,0,.06-.01,.09-.01,.07,0,.12,.04,.12,.11,0,.48-.03,.72-.06,.76-1.6,.25-3.23,.49-4.86,.72-.15,.25-.27,.39-.36,.39s-.28-.39-.58-1.15c.74-.08,1.63-.19,2.67-.34v-3.84h-2.31c-.12,0-.18-.07-.18-.23v-.44c0-.14,.06-.22,.18-.22h2.31v-1.7h-1.62c-.09,0-.12-.07-.12-.22v-.44c0-.11,.03-.17,.12-.17h4.16Zm-4.1,4.08c.37,.72,.71,1.49,1.04,2.31,0,.14-.03,.21-.09,.21-.34,.22-.61,.34-.78,.34-.33-.99-.62-1.82-.92-2.48,0-.1,.21-.24,.64-.44,.06,0,.09,.03,.12,.05m4.56,.16c.12,.05,.18,.11,.18,.17,0,.07-.05,.11-.1,.14-.09,0-.15,.05-.16,.15-.24,.79-.48,1.39-.71,1.81-.06,.1-.09,.14-.12,.14-.06,0-.13-.01-.22-.07-.18-.07-.34-.14-.49-.21-.07-.01-.1-.03-.1-.04,0-.03,0-.06,.03-.11,.22-.37,.38-.7,.5-.99,.16-.37,.28-.74,.37-1.11,.01-.1,.04-.15,.07-.15l.76,.27Zm3.37-7.85c.09,.06,.15,.1,.15,.15,0,.13-.06,.2-.18,.21-.09,.06-.14,.15-.16,.3-.09,1.21-.31,2.31-.67,3.26-.39,.92-.92,1.63-1.58,2.17-.12,0-.19-.03-.22-.1-.18-.14-.33-.27-.44-.39-.06-.06-.09-.11-.09-.17,0-.08,.03-.14,.12-.17,.36-.27,.64-.56,.87-.89,.24-.32,.43-.67,.59-1.04,.12-.37,.22-.79,.31-1.27,.09-.56,.15-1.25,.16-2.05,0-.15,.06-.24,.19-.24l.95,.23Zm3.33,6.37c.15,0,.24,.06,.24,.16v5.55c0,.11-.09,.17-.24,.17h-.58c-.12,0-.16-.06-.16-.17v-.66h-3.66v.66c0,.11-.07,.17-.22,.17h-.58c-.12,0-.18-.06-.18-.17v-5.5c0-.14,.06-.21,.18-.21h5.2Zm-.74,.87h-3.66v3.3h3.66v-3.3Zm.16-7.19c0,.11-.04,.17-.12,.18-.07,.01-.1,.1-.1,.25v3.46c0,.41,.67,.6,2.01,.6v.93c-2.01,0-3.01-.42-3.01-1.26v-4.22c0-.07,.06-.11,.18-.11,.68,0,1.04,.05,1.04,.17"/>
          <path class="cls-1" d="M410.42,137c0,.27-.01,.6-.04,1.03-.03,.55-.04,1.08-.07,1.62-.06,0-.16-.01-.28-.04-.21-.03-.38-.08-.56-.15-.09-.01-.13-.05-.13-.14,.03-.17,.06-.37,.09-.59,.06-.44,.1-1.04,.13-1.83,.01-.05,.06-.1,.12-.1,.51,.08,.75,.16,.75,.21m2.77-6.86h1.57c.07,0,.12,.05,.12,.17v.44c0,.14-.04,.21-.12,.21h-1.57v1.38h1.57c.07,0,.12,.05,.12,.17v.44c0,.15-.04,.23-.12,.23h-1.57v1.36h1.97c.12,0,.18,.05,.18,.17-.03,1.46-.07,2.5-.15,3.14-.09,.77-.21,1.33-.36,1.7-.15,.4-.55,.6-1.17,.6-.55,0-.83-.08-.84-.24-.04-.18-.15-.39-.33-.65v-.1h1.17c.24,0,.4-.14,.48-.41,.09-.2,.15-.58,.19-1.14-.12,.04-.26,.08-.44,.11-.03-.15-.09-.35-.18-.59-.11-.25-.24-.52-.4-.79,0-.06,.21-.18,.64-.38,.18,.29,.31,.56,.43,.82,0,.03,.01,.04,.01,.04,.03-.41,.04-.9,.06-1.46h-3.81v.49c0,.11-.07,.17-.22,.17h-.58c-.12,0-.18-.05-.18-.17v-7.75c0-.1,.06-.15,.18-.15h5.26c.07,0,.12,.05,.12,.15v.45c0,.14-.04,.21-.12,.21h-1.91v1.38Zm-2.55,0h1.57v-1.38h-1.57v1.38Zm1.57,.81h-1.57v1.38h1.57v-1.38Zm0,2.21h-1.57v1.37h1.57v-1.37Zm-.67,3.72c.11,.62,.19,1.25,.27,1.87,0,.11-.07,.15-.22,.15l-.65,.13v-2.04c0-.05,.03-.08,.12-.11l.46-.1s.01,.04,.03,.1m1.05-.39c.3,.57,.53,1.15,.71,1.71,0,.11-.07,.16-.19,.16l-.62,.12c-.06,0-.09-.04-.1-.14-.09-.47-.24-1.04-.47-1.73,0-.05,.04-.1,.13-.11l.44-.11s.08,.04,.11,.1m7.18-8.67c.07,.07,.12,.13,.12,.17,0,.11-.07,.15-.22,.15-.14,0-.22,.03-.28,.07,.23,.38,.49,.7,.75,.98,.36,.38,.73,.68,1.08,.9,.49,.37,1.08,.66,1.79,.89,.07,.01,.12,.04,.12,.07,0,.07-.03,.13-.07,.17-.21,.16-.38,.31-.55,.45-.05,.07-.09,.1-.14,.1-.53-.18-.96-.39-1.3-.64-.49-.28-.93-.65-1.33-1.08-.27-.28-.56-.63-.89-1.08-.18,.28-.36,.51-.53,.7-.24,.31-.52,.63-.84,.96s-.67,.62-.99,.89c-.34,.25-.61,.44-.82,.55-.09,0-.16-.04-.21-.13-.12-.17-.25-.32-.4-.46-.1-.04-.15-.08-.15-.13,0-.03,.01-.04,.06-.07,.46-.22,.85-.45,1.16-.67,.41-.31,.84-.69,1.27-1.17,.28-.31,.52-.62,.7-.9,.19-.31,.37-.65,.55-1.03,.06-.07,.1-.11,.15-.11l.98,.44Zm-1.87,8.78c.09,.08,.13,.14,.13,.18,0,.08-.04,.13-.1,.16-.09,0-.15,.04-.16,.12-.07,.23-.13,.41-.19,.58,.12,.17,.23,.31,.35,.42,.16,.2,.44,.41,.85,.63,.04,.03,.07,.04,.07,.05,0,.03-.04,.07-.1,.11-.1,.14-.25,.28-.43,.44-.06,.07-.12,.11-.16,.11-.03,0-.07-.01-.13-.04-.27-.2-.5-.42-.71-.67-.05-.04-.08-.08-.11-.14-.15,.31-.31,.6-.47,.89-.19,.27-.39,.52-.59,.75-.12,0-.22-.03-.31-.06-.18-.08-.36-.14-.53-.19-.06-.03-.09-.06-.09-.08,0-.04,0-.07,.03-.08,.34-.34,.64-.75,.9-1.23,.15-.28,.29-.57,.41-.88,.12-.34,.25-.78,.37-1.3,.01-.05,.04-.08,.07-.08l.9,.33Zm.55-3.84c.15,0,.22,.06,.22,.17v2.86c0,.11-.07,.17-.22,.17h-2.31c-.16,0-.24-.06-.24-.17v-2.86c0-.11,.07-.17,.24-.17h2.31Zm-.7,.77h-.93v1.64h.93v-1.64Zm3.12-2.36c.07,0,.12,.05,.12,.17v.44c0,.16-.04,.23-.12,.23h-3.88c-.09,0-.12-.07-.12-.23v-.44c0-.11,.03-.17,.12-.17h3.88Zm.55,5.33c.09,.07,.15,.13,.15,.17,0,.08-.04,.14-.12,.15-.09,0-.13,.04-.15,.13-.09,.32-.18,.59-.27,.8,.1,.21,.22,.39,.34,.55,.18,.25,.37,.47,.56,.62,.25,.24,.56,.44,.95,.6,.03,0,.06,.03,.06,.06,0,.06-.03,.1-.06,.15-.21,.14-.4,.3-.56,.45-.05,.07-.09,.11-.12,.11-.28-.14-.52-.3-.7-.47-.25-.21-.49-.47-.7-.75-.07-.11-.15-.21-.21-.34-.1,.2-.21,.4-.31,.59-.18,.25-.37,.51-.58,.73-.12,0-.22-.03-.3-.05-.18-.07-.36-.14-.53-.2-.08-.03-.1-.05-.1-.08,0-.04,.01-.07,.04-.08,.33-.34,.61-.75,.86-1.22,.15-.28,.28-.58,.4-.89,.12-.34,.24-.76,.36-1.3,.01-.04,.04-.07,.07-.07l.9,.32Zm.67-3.74c.15,0,.22,.06,.22,.17v2.86c0,.11-.07,.17-.22,.17h-2.37c-.16,0-.24-.06-.24-.17v-2.86c0-.11,.07-.17,.24-.17h2.37Zm-.7,.77h-.98v1.64h.98v-1.64Z"/>
          <path class="cls-1" d="M428.74,129.8c.12,0,.18,.08,.18,.22v.44c0,.16-.06,.23-.18,.23h-4.28c-.12,0-.18-.07-.18-.23v-.44c0-.14,.06-.22,.18-.22h4.28Zm-.52,5.93c.15,0,.24,.06,.24,.17v4.12c0,.11-.09,.17-.24,.17h-.58c-.12,0-.18-.06-.18-.17v-.66h-1.91v.66c0,.11-.07,.17-.22,.17h-.58c-.12,0-.18-.06-.18-.17v-4.07c0-.14,.06-.23,.18-.23h3.46Zm.06-3.95c.12,0,.18,.08,.18,.23v.44c0,.15-.06,.22-.18,.22h-3.48c-.12,0-.16-.07-.16-.22v-.44c0-.14,.04-.23,.16-.23h3.48Zm0,1.98c.12,0,.18,.07,.18,.21v.45c0,.14-.06,.21-.18,.21h-3.48c-.12,0-.16-.07-.16-.21v-.45c0-.14,.04-.21,.16-.21h3.48Zm0-5.94c.12,0,.18,.07,.18,.21v.45c0,.14-.06,.21-.18,.21h-3.3c-.12,0-.18-.07-.18-.21v-.45c0-.14,.06-.21,.18-.21h3.3Zm-.81,8.79h-1.91v1.87h1.91v-1.87Zm5.67-8.84c.09,0,.18,.03,.24,.07,.18,.2,.28,.32,.28,.37-.18,.6-.36,1.07-.52,1.39-.19,.42-.38,.76-.59,1.03-.18,.24-.4,.47-.64,.66h3.66c-.15-.17-.28-.35-.4-.55-.34-.45-.8-1.29-1.39-2.53l.63-.55c.18,.38,.36,.72,.52,1.01,.03-.03,.06-.04,.09-.07,.18-.14,.36-.29,.52-.48,.15-.17,.27-.37,.37-.56,.03-.04,.04-.07,.06-.07l.67,.47c.09,.05,.15,.11,.15,.19s-.06,.11-.18,.11c-.09,0-.15,.03-.18,.07-.42,.45-.8,.77-1.13,.98,.11,.18,.21,.34,.3,.45,.12,.17,.22,.31,.33,.44,.06-.03,.1-.07,.15-.11,.21-.14,.41-.32,.61-.53,.16-.19,.31-.39,.43-.62,.03-.04,.04-.07,.07-.07l.67,.45c.09,.06,.15,.13,.15,.21s-.06,.11-.18,.11c-.09,0-.16,.03-.21,.08-.43,.45-.83,.8-1.2,1.05,.12,.14,.24,.25,.36,.36,.43,.44,.86,.72,1.29,.86,0,.07-.04,.11-.1,.14-.29,.23-.49,.41-.61,.55-.04,.05-.12,.07-.22,.07-.49-.3-.95-.72-1.38-1.25v.44c0,.14-.06,.21-.18,.21h-3.88c-.12,0-.16-.07-.16-.21v-.35c-.28,.2-.58,.37-.89,.51-.28,.15-.63,.28-1.08,.39-.12,0-.21-.03-.25-.11-.12-.14-.22-.28-.31-.42-.06-.05-.07-.1-.07-.12,0-.03,.02-.04,.06-.07,.27-.06,.52-.14,.78-.24,.48-.17,.87-.39,1.2-.66h.01c-.18-.18-.35-.35-.53-.49-.25-.2-.46-.32-.61-.41,0-.04,.14-.23,.42-.56,.03-.05,.07-.1,.1-.1,.33,.23,.61,.42,.81,.59,.15,.15,.3,.28,.41,.39,.07-.08,.15-.17,.21-.25,.21-.28,.37-.6,.52-.97,.06-.14,.13-.32,.21-.52h-2.44c-.09,0-.12-.05-.12-.17v-.44c0-.11,.03-.17,.12-.17h3.06Zm3.02,9.41c.15,.06,.22,.13,.22,.21,0,.05-.04,.1-.12,.11-.09,0-.15,.06-.16,.14-.25,.66-.5,1.17-.74,1.51h2.06c.12,0,.18,.07,.18,.21v.44c0,.14-.06,.23-.18,.23h-7.74c-.12,0-.18-.08-.18-.23v-.44c0-.14,.06-.21,.18-.21h5.14c-.15-.06-.28-.11-.4-.17-.09-.03-.12-.04-.12-.06,0-.03,.01-.05,.04-.1,.21-.32,.37-.62,.49-.87,.16-.32,.28-.64,.37-.97,.01-.1,.04-.15,.07-.15l.89,.35Zm.16-3.87c.15,0,.22,.05,.22,.17v2.86c0,.11-.07,.17-.22,.17h-5.61c-.16,0-.24-.06-.24-.17v-2.86c0-.11,.07-.17,.24-.17h5.61Zm-3.79,4.57c.18,.3,.31,.6,.43,.93,0,.03-.31,.13-.92,.28-.06-.21-.15-.46-.3-.77-.16-.34-.37-.69-.64-1.04,0-.06,.25-.21,.75-.45,.27,.39,.49,.74,.67,1.05m3.04-3.74h-4.1v1.53h4.1v-1.53Z"/>
          <path class="cls-1" d="M444.23,129.8c.12,0,.18,.05,.18,.17v.55c0,.15-.06,.22-.18,.22h-5.03c-.12,0-.18-.07-.18-.22v-.55c0-.11,.06-.17,.18-.17h5.03Zm-.64,5.84c.15,0,.24,.05,.24,.15v4.07c0,.11-.09,.17-.24,.17h-.58c-.16,0-.24-.06-.24-.17v-.49h-2.19v.66c0,.11-.09,.17-.24,.17h-.58c-.15,0-.22-.05-.22-.17v-4.18c0-.14,.07-.21,.22-.21h3.82Zm0-3.86c.12,0,.18,.08,.18,.23v.44c0,.15-.06,.22-.18,.22h-3.76c-.12,0-.18-.07-.18-.22v-.44c0-.14,.06-.23,.18-.23h3.76Zm0,1.87c.12,0,.18,.08,.18,.23v.44c0,.14-.06,.21-.18,.21h-3.76c-.12,0-.18-.07-.18-.21v-.44c0-.14,.06-.23,.18-.23h3.76Zm0-5.82c.12,0,.18,.07,.18,.21v.45c0,.14-.06,.21-.18,.21h-3.64c-.12,0-.18-.07-.18-.21v-.45c0-.14,.06-.21,.18-.21h3.64Zm-.81,8.68h-2.19v1.98h2.19v-1.98Zm3.12-.62c.07,.01,.12,.05,.12,.12s-.1,.16-.28,.27c-.18,.85-.33,1.45-.44,1.84-.12,.37-.27,.73-.43,1.07-.12,0-.21-.03-.28-.07-.15-.08-.31-.15-.5-.18-.06-.03-.09-.07-.09-.12,.06-.1,.12-.21,.18-.34,.15-.28,.27-.57,.37-.91,.09-.31,.16-.68,.24-1.12,.04-.24,.07-.49,.09-.76,0-.03,.01-.04,.06-.04l.98,.25Zm5.85-8.06c.1,0,.16,.07,.16,.21-.02,1.55-.06,2.66-.15,3.33-.12,.82-.25,1.42-.43,1.81-.16,.42-.61,.63-1.32,.63-.59,0-.9-.08-.92-.28-.05-.21-.16-.46-.36-.77v-.1c.46,.07,.89,.1,1.27,.1,.3,0,.49-.14,.58-.42,.09-.22,.18-.67,.25-1.34,.06-.48,.1-1.25,.13-2.31h-2.28c-.07,.59-.16,1.11-.27,1.57-.13,.45-.28,.86-.43,1.21-.16,.34-.34,.63-.55,.89-.24,.28-.52,.52-.87,.74-.37,.23-.89,.45-1.54,.7-.09,0-.15-.03-.18-.11-.15-.17-.27-.34-.39-.51-.06-.05-.07-.08-.07-.1,0-.03,.02-.04,.04-.04,.47-.13,.9-.3,1.29-.52,.25-.13,.47-.28,.68-.48,.19-.18,.36-.38,.49-.6,.03-.06,.07-.13,.12-.18-.34-.24-.7-.45-1.05-.65-.39-.19-.7-.35-.93-.44,0-.05,.15-.25,.44-.62,.04-.05,.09-.1,.13-.1,.49,.22,.9,.42,1.23,.62,.18,.12,.36,.24,.52,.34,.09-.31,.16-.62,.22-.96,.04-.25,.07-.52,.11-.77h-2.49c-.12,0-.16-.07-.16-.21v-.45c0-.14,.04-.21,.16-.21h6.54Zm-4.28,7.58c0,.08-.04,.17-.12,.27v3.08c0,.15,.03,.23,.12,.23h2.59c.24,0,.47-.42,.7-1.27l.93,.55c-.37,1.1-.81,1.64-1.33,1.64h-3.3c-.5,0-.74-.22-.74-.66v-3.9c0-.11,.03-.17,.1-.17,.7,.05,1.05,.14,1.05,.22m1.72-.17c.18,.38,.34,.79,.47,1.21,0,.04-.31,.14-.92,.28-.06-.28-.18-.62-.33-1.03-.19-.47-.43-.93-.72-1.39,0-.06,.25-.21,.75-.44,.3,.49,.55,.94,.74,1.36m2.78,.8c.22,.45,.41,.91,.58,1.39,0,.04-.31,.14-.92,.28-.06-.32-.21-.72-.41-1.19-.24-.53-.53-1.07-.92-1.6,0-.06,.25-.21,.75-.45,.37,.58,.68,1.1,.92,1.57"/>
          <path class="cls-1" d="M458.33,129.8c.12,0,.18,.08,.18,.22v.44c0,.16-.06,.23-.18,.23h-4.28c-.12,0-.18-.07-.18-.23v-.44c0-.14,.06-.22,.18-.22h4.28Zm-.52,5.93c.15,0,.24,.06,.24,.17v4.12c0,.11-.09,.17-.24,.17h-.58c-.12,0-.18-.06-.18-.17v-.66h-1.91v.66c0,.11-.07,.17-.22,.17h-.58c-.12,0-.18-.06-.18-.17v-4.07c0-.14,.06-.23,.18-.23h3.46Zm.06-3.95c.12,0,.18,.08,.18,.23v.44c0,.15-.06,.22-.18,.22h-3.48c-.12,0-.16-.07-.16-.22v-.44c0-.14,.04-.23,.16-.23h3.48Zm0,1.98c.12,0,.18,.07,.18,.21v.45c0,.14-.06,.21-.18,.21h-3.48c-.12,0-.16-.07-.16-.21v-.45c0-.14,.04-.21,.16-.21h3.48Zm0-5.94c.12,0,.18,.07,.18,.21v.45c0,.14-.06,.21-.18,.21h-3.3c-.12,0-.18-.07-.18-.21v-.45c0-.14,.06-.21,.18-.21h3.3Zm-.81,8.79h-1.91v1.87h1.91v-1.87Zm5.67-8.84c.09,0,.18,.03,.24,.07,.18,.2,.28,.32,.28,.37-.18,.6-.36,1.07-.52,1.39-.19,.42-.38,.76-.59,1.03-.18,.24-.4,.47-.64,.66h3.66c-.15-.17-.28-.35-.4-.55-.34-.45-.8-1.29-1.39-2.53l.63-.55c.18,.38,.36,.72,.52,1.01,.03-.03,.06-.04,.09-.07,.18-.14,.36-.29,.52-.48,.15-.17,.27-.37,.37-.56,.03-.04,.04-.07,.06-.07l.67,.47c.09,.05,.15,.11,.15,.19s-.06,.11-.18,.11c-.09,0-.15,.03-.18,.07-.42,.45-.8,.77-1.13,.98,.11,.18,.21,.34,.3,.45,.12,.17,.22,.31,.33,.44,.06-.03,.1-.07,.15-.11,.21-.14,.41-.32,.61-.53,.16-.19,.31-.39,.43-.62,.03-.04,.04-.07,.07-.07l.67,.45c.09,.06,.15,.13,.15,.21s-.06,.11-.18,.11c-.09,0-.16,.03-.21,.08-.43,.45-.83,.8-1.2,1.05,.12,.14,.24,.25,.36,.36,.43,.44,.86,.72,1.29,.86,0,.07-.04,.11-.1,.14-.29,.23-.49,.41-.61,.55-.04,.05-.12,.07-.22,.07-.49-.3-.95-.72-1.38-1.25v.44c0,.14-.06,.21-.18,.21h-3.88c-.12,0-.16-.07-.16-.21v-.35c-.28,.2-.58,.37-.89,.51-.28,.15-.63,.28-1.08,.39-.12,0-.21-.03-.25-.11-.12-.14-.22-.28-.31-.42-.06-.05-.07-.1-.07-.12,0-.03,.02-.04,.06-.07,.27-.06,.52-.14,.78-.24,.48-.17,.87-.39,1.2-.66h.01c-.18-.18-.35-.35-.53-.49-.25-.2-.46-.32-.61-.41,0-.04,.14-.23,.42-.56,.03-.05,.07-.1,.1-.1,.33,.23,.61,.42,.81,.59,.15,.15,.3,.28,.41,.39,.07-.08,.15-.17,.21-.25,.21-.28,.37-.6,.52-.97,.06-.14,.13-.32,.21-.52h-2.44c-.09,0-.12-.05-.12-.17v-.44c0-.11,.03-.17,.12-.17h3.06Zm3.02,9.41c.15,.06,.22,.13,.22,.21,0,.05-.04,.1-.12,.11-.09,0-.15,.06-.16,.14-.25,.66-.5,1.17-.74,1.51h2.06c.12,0,.18,.07,.18,.21v.44c0,.14-.06,.23-.18,.23h-7.74c-.12,0-.18-.08-.18-.23v-.44c0-.14,.06-.21,.18-.21h5.14c-.15-.06-.28-.11-.4-.17-.09-.03-.12-.04-.12-.06,0-.03,.01-.05,.04-.1,.21-.32,.37-.62,.49-.87,.16-.32,.28-.64,.37-.97,.01-.1,.04-.15,.07-.15l.89,.35Zm.16-3.87c.15,0,.22,.05,.22,.17v2.86c0,.11-.07,.17-.22,.17h-5.61c-.16,0-.24-.06-.24-.17v-2.86c0-.11,.07-.17,.24-.17h5.61Zm-3.79,4.57c.18,.3,.31,.6,.43,.93,0,.03-.31,.13-.92,.28-.06-.21-.15-.46-.3-.77-.16-.34-.37-.69-.64-1.04,0-.06,.25-.21,.75-.45,.27,.39,.49,.74,.67,1.05m3.04-3.74h-4.1v1.53h4.1v-1.53Z"/>
        </g>
        <g>
          <polygon class="cls-1" points="397.8 22.36 405.5 22.36 405.5 64.72 426.15 64.72 426.15 71.23 397.8 71.23 397.8 22.36"/>
          <polygon class="cls-1" points="437.45 22.36 466.4 22.36 466.4 28.8 445.16 28.8 445.16 43.74 463.22 43.74 463.22 50.18 445.16 50.18 445.16 71.23 437.45 71.23 437.45 22.36"/>
          <circle class="cls-4" cx="430.99" cy="45.69" r="44.94" transform="translate(15.32 168.41) rotate(-22.5)"/>
        </g>
      </g>
    </g>
  </g>
</svg>