<?xml version="1.0" encoding="UTF-8"?>
<svg id="_圖層_2" data-name="圖層 2" xmlns="http://www.w3.org/2000/svg" viewBox="0 0 568.8 118.82">
  <defs>
    <style>
      .cls-1, .cls-2 {
        fill: #fff;
      }

      .cls-2 {
        stroke: #fff;
        stroke-miterlimit: 10;
        stroke-width: .75px;
      }

      .cls-3 {
        fill: #e5e5e5;
      }
    </style>
  </defs>
  <g id="_圖層_3" data-name="圖層 3">
    <g>
      <g>
        <path class="cls-3" d="M2.31,83.84H36.82c.31,0,.47,.16,.47,.47v1.55c0,.42-.16,.62-.47,.62h-14.69c1.09,.78,1.63,1.24,1.63,1.4,0,.34-.21,.51-.62,.51-.49,0-.95,.35-1.36,1.05-1.09,1.5-2.62,3.45-4.59,5.83-2.2,2.59-4.56,4.86-7.07,6.8-1.48,1.19-3.51,2.53-6.1,4-.39,0-.67-.13-.86-.39-.42-.49-.83-.96-1.24-1.4-.26-.1-.39-.23-.39-.39,0-.18,.09-.31,.27-.39,3.11-1.45,5.65-2.98,7.62-4.59,2.33-1.81,4.37-3.76,6.1-5.83,1.68-2.05,3.17-4.25,4.47-6.61H2.31c-.31,0-.47-.21-.47-.62v-1.55c0-.31,.16-.47,.47-.47Zm16.32,11.23c2.07,0,3.11,.14,3.11,.43,0,.36-.13,.56-.39,.58-.26,.03-.39,.3-.39,.82v21.18c0,.29-.26,.43-.78,.43h-1.55c-.42,0-.62-.14-.62-.43v-22.58c0-.29,.21-.43,.62-.43Zm6.53-3.62c2.82,1.97,5.13,3.81,6.92,5.52,2.1,2.1,3.89,3.99,5.36,5.67,0,.05-.07,.17-.19,.35-.86,1.24-1.31,1.87-1.36,1.87-2.25-2.69-4.68-5.16-7.27-7.38-2.05-1.81-3.77-3.1-5.17-3.85,0-.13,.44-.75,1.32-1.87,.16-.21,.29-.31,.39-.31Z"/>
        <path class="cls-3" d="M53.88,89.6c1.97,.41,2.95,.73,2.95,.93,0,.29-.16,.49-.47,.62-.26,.21-.4,.49-.43,.86-.21,2.67-.47,4.87-.78,6.61-.21,.96-.45,1.94-.74,2.95-.08,.21-.16,.31-.23,.31-.88-.26-1.65-.44-2.29-.54-.23-.05-.35-.18-.35-.39,.47-1.27,.86-2.67,1.17-4.2,.34-1.53,.61-3.74,.82-6.65,0-.34,.12-.5,.35-.5Zm4.97-7.62c1.97,0,2.95,.16,2.95,.47,0,.36-.13,.56-.39,.58s-.39,.3-.39,.82v34.24c0,.29-.21,.43-.62,.43h-1.55c-.41,0-.62-.14-.62-.43v-35.64c0-.31,.21-.47,.62-.47Zm5.6,7.62c.26,0,.41,.05,.47,.16,.67,2.18,1.3,4.52,1.87,7.03,0,.36-.08,.56-.23,.58-.93,.65-1.68,.97-2.25,.97-.54-3-1.06-5.5-1.55-7.5,0-.26,.57-.67,1.71-1.24Zm13.56-7.73c2.36,.93,3.54,1.45,3.54,1.55,0,.16-.21,.3-.62,.43-.47,.1-.82,.43-1.05,.97-.6,1.53-1.28,3.07-2.06,4.62h9.02c.41,0,.62,.17,.62,.51v27.95c0,.34-.21,.5-.62,.5h-1.55c-.42,0-.62-.17-.62-.5v-2.64h-13.21v2.64c0,.34-.21,.5-.62,.5h-1.55c-.42,0-.62-.17-.62-.5v-27.79c0-.44,.21-.66,.62-.66h5.25c.57-.85,1-1.57,1.28-2.14,.7-1.35,1.31-2.99,1.83-4.94,.05-.34,.18-.5,.39-.5Zm-6.57,19.08h13.21v-9.02h-13.21v9.02Zm0,11.82h13.21v-9.29h-13.21v9.29Z"/>
        <path class="cls-3" d="M104.2,110.58h34.51c.31,0,.47,.21,.47,.62v1.55c0,.52-.16,.78-.47,.78h-34.51c-.31,0-.47-.26-.47-.78v-1.55c0-.41,.16-.62,.47-.62Zm3.73-22.85h27.05c.31,0,.47,.22,.47,.66v1.55c0,.49-.16,.74-.47,.74h-27.05c-.31,0-.47-.25-.47-.74v-1.55c0-.44,.16-.66,.47-.66Z"/>
        <path class="cls-3" d="M163.22,103.32c.13,0,.22,.1,.27,.31,.65,1.42,.97,2.19,.97,2.29,0,.15-.08,.31-.23,.47-1.35,2.46-2.64,4.55-3.89,6.26-.67,.98-1.5,2.05-2.49,3.19-.16,.29-.23,.66-.23,1.13,0,.31-.1,.47-.31,.47-.18,0-1.02-.83-2.53-2.49-.16-.08-.25-.23-.27-.47,0-.18,.06-.32,.19-.43,.83-.6,1.64-1.36,2.45-2.29,1.14-1.3,2.25-2.75,3.34-4.35,.96-1.4,1.77-2.68,2.45-3.85,.08-.16,.17-.23,.27-.23Zm-7.77-16.05h7.62c.31,0,.47,.21,.47,.62v1.55c0,.44-.16,.66-.47,.66h-7.62c-.29,0-.43-.22-.43-.66v-1.55c0-.41,.14-.62,.43-.62Zm20.37,5.6l3.03,.5c.26,.05,.39,.14,.39,.27s-.12,.31-.35,.54c-.34,.18-.53,.48-.58,.89-.16,1.5-.31,2.84-.47,4,.05,1.76,.25,3.32,.58,4.66,.36,1.42,.87,2.77,1.52,4.04,.54,1.06,1.23,2.07,2.06,3.03,1.09,1.22,2.2,2.19,3.34,2.92,1.32,.91,2.86,1.62,4.62,2.14,0,.23-.13,.43-.39,.58-.49,.52-.96,1.04-1.4,1.55-.29,.26-.47,.39-.54,.39-2.41-1.14-3.96-2.02-4.66-2.64-1.17-.78-2.19-1.79-3.07-3.03-.93-1.09-1.72-2.27-2.37-3.54-.47-.91-.89-1.94-1.28-3.11-.13,.44-.27,.87-.43,1.28-.67,1.81-1.52,3.38-2.53,4.7-1.17,1.68-2.36,3.07-3.58,4.16-.78,.6-1.8,1.27-3.07,2.02-.49,0-.83-.16-1.01-.47-.31-.54-.73-1.1-1.24-1.67-.16-.16-.23-.29-.23-.39,0-.23,.05-.42,.16-.54,1.4-.47,2.68-1.21,3.85-2.22,1.4-1.01,2.62-2.32,3.65-3.92,.73-1.14,1.36-2.47,1.9-4,.54-1.45,.97-3.25,1.28-5.4,.31-1.63,.47-3.59,.47-5.87,.05-.6,.17-.89,.35-.89Zm-3.89-10.26l2.8,1.05c.31,.21,.47,.38,.47,.51,0,.31-.16,.52-.47,.62-.36,0-.58,.18-.66,.54-.29,.96-.56,1.81-.82,2.56h15.78c.39,0,.63,.07,.74,.2,.54,.47,.82,.82,.82,1.05l-5.32,9.99c-.1,.18-.23,.27-.39,.27-1.58-.42-2.37-.76-2.37-1.05l4.39-7.97h-14.61c-.13,.34-.25,.63-.35,.89-.73,1.48-1.49,2.89-2.29,4.24-.78,1.14-1.62,2.18-2.53,3.11-.36,0-.66-.04-.89-.12-.54-.26-1.09-.49-1.63-.7-.18-.08-.27-.17-.27-.27,0-.16,.05-.27,.16-.35,1.45-1.37,2.73-3.08,3.85-5.13,.65-1.17,1.22-2.4,1.71-3.69,.54-1.42,1.08-3.23,1.59-5.4,.1-.23,.21-.35,.31-.35Z"/>
        <path class="cls-3" d="M206.55,91.81c1.58,.67,2.89,1.32,3.93,1.94,1.19,.78,2.21,1.46,3.07,2.06,0,.05-.07,.16-.19,.31-.78,1.14-1.18,1.71-1.21,1.71-1.32-.99-2.71-1.87-4.16-2.64-1.19-.65-2.19-1.11-2.99-1.4,0-.13,.41-.71,1.24-1.75,.13-.16,.23-.23,.31-.23Zm8.08,8.51c.13,0,.22,.12,.27,.35,.67,1.43,1.01,2.19,1.01,2.29,0,.26-.09,.48-.27,.66-1.43,3.29-2.79,6.1-4.08,8.43-.7,1.32-1.55,2.77-2.57,4.35-.18,.36-.27,.85-.27,1.48,0,.34-.1,.5-.31,.5-.18,0-1.02-.84-2.53-2.53-.16-.08-.25-.23-.27-.47,0-.23,.06-.43,.19-.58,.85-.83,1.71-1.87,2.57-3.11,1.17-1.74,2.31-3.69,3.42-5.87,1.01-1.89,1.87-3.62,2.57-5.17,.1-.23,.19-.35,.27-.35Zm-4.82-17.41c1.53,.73,2.79,1.4,3.77,2.02,1.14,.73,2.11,1.4,2.92,2.02,0,.05-.07,.17-.19,.35-.78,1.11-1.18,1.67-1.21,1.67-1.24-.96-2.57-1.84-3.96-2.64-1.14-.65-2.1-1.1-2.88-1.36,0-.18,.41-.78,1.24-1.79,.13-.18,.23-.27,.31-.27Zm9.79,1.71h19.74c.31,0,.47,.22,.47,.66v1.21c0,.41-.16,.62-.47,.62h-8.24v11.08h10.11c.31,0,.47,.19,.47,.58v1.28c0,.39-.16,.58-.47,.58h-10.11v14.77c0,2-1.61,2.99-4.82,2.99h-3.11c-.18,0-.27-.26-.27-.78-.03-.57-.25-1.26-.66-2.06v-.16c1.37,.21,2.67,.31,3.89,.31,1.45,0,2.18-.47,2.18-1.4v-13.68h-10.73c-.31,0-.47-.19-.47-.58v-1.28c0-.39,.16-.58,.47-.58h10.73v-11.08h-8.71c-.31,0-.47-.21-.47-.62v-1.21c0-.44,.16-.66,.47-.66Z"/>
        <path class="cls-3" d="M257.02,104.37h16.01v-2.95c0-.31,.21-.47,.62-.47,1.97,0,2.95,.16,2.95,.47,0,.36-.13,.57-.39,.62-.26,.03-.39,.29-.39,.78v1.55h15.9c.29,0,.43,.22,.43,.66v1.21c0,.41-.14,.62-.43,.62h-14.69c1.48,1.48,2.79,2.64,3.93,3.5,1.53,1.22,3.35,2.33,5.48,3.34,1.79,.83,3.59,1.45,5.4,1.87,0,.21-.14,.36-.43,.47-.57,.6-1.08,1.15-1.52,1.67-.18,.26-.31,.39-.39,.39-2.72-1.04-4.94-2.11-6.65-3.22-1.97-1.22-3.63-2.51-4.97-3.89-.67-.62-1.36-1.32-2.06-2.1v9.21c0,.29-.21,.43-.62,.43h-1.55c-.41,0-.62-.14-.62-.43v-8.74c-.88,.8-1.67,1.5-2.37,2.1-1.58,1.27-3.26,2.43-5.05,3.5-2.1,1.17-4.18,2.15-6.26,2.95-.26,0-.47-.09-.62-.27-.49-.47-.97-.92-1.44-1.36-.08-.18-.12-.31-.12-.39,1.97-.65,3.58-1.3,4.82-1.94,1.84-.83,3.74-1.97,5.71-3.42,1.06-.78,2.46-2,4.2-3.65h-14.89c-.31,0-.47-.21-.47-.62v-1.21c0-.44,.16-.66,.47-.66Zm1.24-15.39c1.48,.42,2.68,.8,3.61,1.17,1.06,.42,1.98,.8,2.76,1.17,0,.03-.07,.14-.19,.35-.78,1.14-1.18,1.71-1.21,1.71-1.19-.6-2.46-1.11-3.81-1.55-1.09-.39-2-.66-2.72-.82,0-.13,.4-.71,1.21-1.75,.13-.18,.25-.27,.35-.27Zm8.71,4.98c.13,0,.21,.1,.23,.31,.57,1.24,.85,1.92,.85,2.02,0,.08-.09,.17-.27,.27-1.66,1.24-3.25,2.29-4.78,3.15-.83,.49-1.84,1.02-3.03,1.59-.21,.18-.31,.38-.31,.58,0,.31-.1,.47-.31,.47-.16,0-.89-.74-2.21-2.21-.13-.08-.21-.22-.23-.43,0-.1,.06-.18,.19-.23,.93-.31,1.88-.7,2.84-1.17,1.32-.67,2.62-1.42,3.89-2.25,1.11-.7,2.05-1.36,2.8-1.98,.1-.08,.22-.12,.35-.12Zm-5.91-11.35c1.42,.65,2.59,1.23,3.5,1.75,1.06,.67,1.97,1.28,2.72,1.83,0,.03-.06,.13-.19,.31-.75,1.17-1.15,1.75-1.2,1.75-1.17-.88-2.4-1.67-3.69-2.37-1.06-.57-1.96-.98-2.68-1.24,0-.13,.42-.71,1.24-1.75,.13-.18,.23-.27,.31-.27Zm9.64,4.08h4.78c.05-1.17,.06-2.49,.04-3.96,0-.29,.16-.43,.47-.43l2.76,.23c.23,0,.35,.13,.35,.39,0,.36-.16,.62-.47,.78-.31,0-.47,.14-.47,.43-.03,.91-.06,1.76-.12,2.57h6.49c.41,0,.62,.19,.62,.58v9.83c0,.31,.1,.52,.31,.62,.23,.18,.6,.27,1.09,.27h.62c.7,0,1.17-.25,1.4-.74,.29-.65,.54-1.85,.78-3.61,0-.18,.16-.27,.47-.27,.1,0,.29,.05,.54,.16,.34,.13,.75,.27,1.24,.43,.36,.08,.54,.29,.54,.62-.44,2.12-.91,3.81-1.4,5.05-.39,.78-1.22,1.17-2.49,1.17h-3.11c-1.01,0-1.79-.17-2.33-.51-.31-.23-.47-.65-.47-1.24v-9.91h-4.51c-.13,1.22-.3,2.27-.51,3.15-.54,2.18-1.28,3.96-2.21,5.36-1.01,1.5-2.33,2.88-3.96,4.12-.34,0-.58-.03-.74-.08-.52-.31-1.02-.61-1.52-.89-.26-.05-.39-.16-.39-.31,0-.08,.08-.17,.23-.27,1.81-1.14,3.25-2.62,4.31-4.43,.96-1.68,1.62-3.52,1.98-5.52,.08-.36,.14-.74,.19-1.13h-4.55c-.31,0-.47-.19-.47-.58v-1.28c0-.39,.16-.58,.47-.58Z"/>
        <path class="cls-3" d="M330.85,84.31h32.65c.31,0,.47,.22,.47,.66v1.21c0,.44-.16,.66-.47,.66h-14.92v.12l-.04,3.15h10.92c.41,0,.62,.14,.62,.43v15.7c0,.34-.21,.51-.62,.51h-1.55c-.42,0-.62-.17-.62-.51v-1.05h-8.94c-.1,.85-.26,1.55-.47,2.1-.34,1.58-1.01,2.97-2.02,4.16-.13,.16-.26,.3-.39,.43,.34,.21,.71,.4,1.13,.58,1.74,.8,3.54,1.41,5.4,1.83,2.1,.49,4.38,.87,6.84,1.13,1.76,.21,3.63,.31,5.6,.31,0,.18-.1,.41-.31,.7-.29,.62-.54,1.23-.78,1.83-.05,.29-.16,.43-.31,.43-2.46-.16-4.6-.38-6.41-.66-2.07-.31-3.95-.7-5.63-1.17-2.07-.57-3.95-1.26-5.64-2.06-.7-.36-1.32-.73-1.87-1.09-.44,.34-.89,.66-1.36,.97-2,1.35-4.28,2.42-6.84,3.23-1.63,.52-2.75,.78-3.34,.78-.18,0-.32-.12-.43-.35-.36-.73-.74-1.36-1.13-1.9-.21-.1-.31-.18-.31-.23,0-.15,.08-.23,.23-.23,2.2-.26,3.99-.63,5.36-1.13,1.79-.6,3.28-1.31,4.47-2.14,.39-.21,.74-.43,1.05-.66-.96-.91-1.97-2.15-3.03-3.73,0-.1,.83-.43,2.49-.97,.7,1.22,1.5,2.2,2.41,2.95,.03,.03,.05,.05,.08,.08,.1-.13,.21-.26,.31-.39,.8-.85,1.31-1.79,1.52-2.8,.23-.57,.4-1.23,.5-1.98h-8.55v1.05c0,.34-.21,.51-.62,.51h-1.52c-.44,0-.66-.17-.66-.51v-15.55c0-.39,.22-.58,.66-.58h10.96l.04-2.06v-1.21h-14.92c-.31,0-.47-.22-.47-.66v-1.21c0-.44,.16-.66,.47-.66Zm6.06,12.13h8.78l.04-3.89h-8.82v3.89Zm0,6.22h8.71l.04-3.73h-8.75v3.73Zm11.54-3.73l-.04,3.73h8.86v-3.73h-8.82Zm.08-6.38l-.04,3.89h8.78v-3.89h-8.75Z"/>
        <path class="cls-3" d="M397.34,91.31l3.19,2.1c.16,.21,.23,.34,.23,.39,0,.29-.17,.45-.51,.51-.7,.03-1.1,.17-1.21,.43-.73,1.27-1.55,2.62-2.49,4.04h18.81c.31,0,.47,.16,.47,.47v1.55c0,.42-.16,.62-.47,.62h-7.81c-.47,1.4-1.01,2.69-1.63,3.89-.86,1.74-1.83,3.2-2.92,4.39-.21,.29-.43,.54-.66,.78,.41,.21,.82,.4,1.21,.58,4.09,2.07,7.57,3.95,10.42,5.64,0,.03-.08,.13-.23,.31-.83,1.22-1.27,1.83-1.32,1.83-3.86-2.33-7.94-4.48-12.24-6.45-.36,.26-.74,.52-1.13,.78-1.45,.96-3.21,1.88-5.29,2.76-2.51,1.06-5.52,2.03-9.02,2.92-.26,0-.41-.09-.47-.27-.36-.49-.76-1.1-1.21-1.83-.23-.18-.35-.36-.35-.54,.7,0,1.63-.17,2.8-.5,1.53-.29,3.16-.7,4.9-1.24,2.33-.83,4.31-1.7,5.95-2.6,.36-.26,.71-.5,1.05-.74-2.98-1.3-5.57-2.27-7.77-2.92-.57,.67-1.17,1.37-1.79,2.1-.21,0-.39-.06-.54-.19-.49-.26-1.02-.48-1.59-.66-.13-.05-.19-.18-.19-.39,2.41-2.9,4.26-5.3,5.56-7.19,.1-.13,.21-.27,.31-.43h-10.53c-.31,0-.47-.21-.47-.62v-1.55c0-.31,.16-.47,.47-.47h12.28c.96-1.42,1.81-2.84,2.57-4.24,.65-1.22,1.09-2.18,1.32-2.88,.1-.23,.21-.35,.31-.35Zm.16-8.55c2.1,0,3.15,.17,3.15,.5s-.14,.53-.43,.58c-.26,.03-.39,.29-.39,.78v2.06h13.68c.41,0,.62,.14,.62,.43v7.81c0,.29-.21,.43-.62,.43h-1.55c-.42,0-.62-.14-.62-.43v-5.79h-27.05v5.79c0,.29-.21,.43-.62,.43h-1.55c-.42,0-.62-.14-.62-.43v-7.66c0-.39,.21-.58,.62-.58h14.77v-3.42c0-.34,.21-.5,.62-.5Zm7.19,18.66h-9.83c-.03,.05-.05,.1-.08,.16-.91,1.3-2.05,2.79-3.42,4.47,3.13,1.14,5.92,2.23,8.36,3.26,.05-.05,.1-.09,.16-.12,1.17-1.14,2.16-2.43,2.99-3.89,.62-1.01,1.23-2.3,1.83-3.89Z"/>
        <path class="cls-3" d="M435.53,95.66l2.6,1.09c.44,.18,.66,.39,.66,.62,0,.44-.16,.76-.47,.97-.44,0-.73,.33-.86,.97-1.17,4.87-2.33,8.64-3.5,11.31-.26,.62-.47,.93-.62,.93-.21,0-.45-.1-.74-.31-.6-.29-1.17-.53-1.71-.74-.23-.1-.35-.18-.35-.23,0-.13,.06-.34,.19-.62,1.14-2.33,1.98-4.37,2.53-6.1,.83-2.28,1.44-4.56,1.83-6.84,.13-.7,.27-1.05,.43-1.05Zm6.69-4l2.91,.31c.34,.05,.51,.14,.51,.27,0,.26-.09,.42-.27,.47-.23,.03-.35,.19-.35,.5v19.39c0,1.24,.73,1.87,2.18,1.87h7.46c2.18,0,3.5-.36,3.96-1.09,.52-.62,1.17-2.95,1.94-7,.36,.6,.95,1.13,1.75,1.59,.39,.16,.58,.35,.58,.58-1.06,4.38-1.88,6.79-2.45,7.23-.57,.98-1.77,1.48-3.61,1.48h-9.95c-3.21,0-4.82-.99-4.82-2.95v-22.23c0-.28,.05-.43,.16-.43Zm1.87-8.9c.16,0,.39,.08,.7,.23,3.03,1.37,6.12,3.12,9.25,5.25,.31,.16,.47,.35,.47,.58,0,.16-.05,.29-.16,.39l-.82,1.13c-.29,.13-.53,.19-.74,.19s-.48-.14-.82-.43c-2.98-1.89-5.86-3.46-8.63-4.7-.54-.16-.82-.36-.82-.62,0-.15,.04-.3,.12-.43l1.01-1.44c.16-.1,.3-.16,.43-.16Zm13.37,12.48c2.28,1.45,4.15,2.81,5.6,4.08,1.71,1.61,3.16,3.03,4.35,4.28,0,.05-.08,.18-.23,.39-.93,1.29-1.43,1.94-1.48,1.94-1.87-2.02-3.83-3.85-5.91-5.48-1.66-1.37-3.06-2.34-4.2-2.92,0-.16,.49-.83,1.48-2.02,.16-.18,.29-.27,.39-.27Z"/>
        <path class="cls-3" d="M491.6,81.71l2.92,1.32c.23,.21,.35,.39,.35,.54,0,.29-.26,.43-.78,.43-.23,0-.43,.04-.58,.12,1.19,1.24,2.2,2.14,3.03,2.68,1.3,.96,2.86,1.84,4.7,2.64,0,.26-.08,.45-.23,.58-.39,.31-.88,.74-1.48,1.28-.08,0-.18-.04-.31-.12-1.09-.44-2.15-1.04-3.19-1.79-.03,0-.05-.01-.08-.04v1.17c0,.42-.1,.62-.31,.62h-7.15c-.21,0-.31-.21-.31-.62v-.23c-.05,.03-.09,.07-.12,.12-.93,.85-1.87,1.61-2.8,2.25-.91,.67-1.65,1.15-2.21,1.44-.23,0-.44-.12-.62-.35-.31-.57-.69-1.04-1.13-1.4-.29-.16-.43-.3-.43-.43,0-.05,.06-.1,.19-.16,1.27-.6,2.32-1.18,3.15-1.75,1.19-.8,2.37-1.83,3.54-3.07,.78-.8,1.41-1.58,1.91-2.33,.54-.78,1.05-1.65,1.52-2.6,.18-.21,.32-.31,.43-.31Zm-4.2,25.3v7.31c.39-.1,.76-.21,1.13-.31,2.18-.57,4.25-1.19,6.22-1.87-.34-.78-.71-1.54-1.13-2.29,0-.21,.67-.63,2.02-1.28,.91,1.74,1.64,3.34,2.21,4.82,.52,1.3,.97,2.69,1.36,4.2,0,.1-.83,.38-2.49,.82-.16-1.01-.48-2.22-.97-3.61-.05-.18-.1-.34-.16-.47-3.65,1.27-7.37,2.41-11.15,3.42-.39,.73-.7,1.09-.93,1.09s-.75-1.09-1.55-3.26c.86-.13,1.79-.31,2.8-.54v-20.91c0-.31,.16-.47,.47-.47h12.59c.42,0,.62,.16,.62,.47v12.28c0,.42-.21,.62-.62,.62h-10.42Zm0-11.04v3.11h8.4v-3.11h-8.4Zm0,5.44v3.26h8.4v-3.26h-8.4Zm2.25-12.59h5.6c-.99-.8-2.06-1.79-3.23-2.95-.54,.8-1.1,1.49-1.67,2.06-.21,.31-.44,.61-.7,.89Zm15.47-6.53c2.28,.41,3.42,.79,3.42,1.13,0,.18-.18,.38-.54,.58-.26,.1-.43,.36-.51,.78-.18,1.14-.47,2.49-.85,4.04h10.14c.39,0,.63,.06,.74,.19,.54,.44,.82,.8,.82,1.09l-3.73,8.75c-.08,.16-.18,.23-.31,.23-1.45-.41-2.18-.78-2.18-1.09l2.95-6.68h-9.09c-.16,.44-.3,.88-.43,1.32-.65,2.15-1.62,4.46-2.92,6.92-.08,0-.29-.05-.62-.15-.49-.13-1.08-.25-1.75-.35-.18-.1-.27-.28-.27-.54,.78-1.29,1.44-2.55,1.98-3.77,.8-1.79,1.52-4.02,2.14-6.69,.41-1.84,.65-3.65,.7-5.44,0-.21,.1-.31,.31-.31Zm2.02,12.63c2.28,.31,3.42,.51,3.42,.58,0,.26-.1,.4-.31,.43-.31,.18-.47,.5-.47,.97v2.49c0,.52-.01,1.04-.04,1.55,.13,1.55,.32,2.83,.58,3.81,.41,1.48,.93,2.97,1.55,4.47,.6,1.22,1.45,2.47,2.57,3.77,1.27,1.42,2.77,2.75,4.51,3.96,0,.16-.12,.29-.35,.39-.44,.34-.93,.7-1.48,1.09-.18,.16-.4,.23-.66,.23-1.06-.83-2.14-1.8-3.23-2.92-1.3-1.4-2.31-2.76-3.03-4.08-.49-.91-.96-1.96-1.4-3.15-.18,.65-.39,1.3-.62,1.94-.65,1.63-1.48,3.12-2.49,4.47-.73,1.11-1.9,2.31-3.54,3.58-.16,0-.3-.1-.43-.31-.39-.44-.82-.82-1.28-1.13-.21-.13-.31-.26-.31-.39,1.74-1.48,2.92-2.67,3.54-3.58,.75-1.04,1.35-2.2,1.79-3.5,.52-1.24,.92-2.9,1.21-4.97,.21-1.68,.31-3.43,.31-5.25v-4.04c0-.29,.05-.43,.16-.43Z"/>
        <path class="cls-3" d="M537.73,83.84h27.05c.52,0,.78,.21,.78,.62v29.77c0,1.24-.64,2.22-1.9,2.92-1.22,.52-2.81,.88-4.78,1.09-.29,0-.45-.17-.5-.51-.05-.54-.35-1.37-.89-2.49,0-.13,.13-.2,.39-.2,2.33,0,3.72-.17,4.16-.5,.49-.29,.74-.76,.74-1.44v-6.37h-10.11v10.38c0,.31-.21,.47-.62,.47h-1.55c-.42,0-.62-.16-.62-.47v-10.38h-10.53c-.05,.34-.1,.66-.16,.97-.34,2.25-.99,4.51-1.94,6.76-.52,1.37-1.23,2.68-2.14,3.92-.18,0-.31-.03-.39-.08-.44-.44-.93-.82-1.48-1.13-.1-.13-.16-.3-.16-.51,.83-1.14,1.57-2.71,2.21-4.7,.65-2.07,1.1-4.25,1.36-6.53,.31-2.38,.47-5.27,.47-8.67v-12.32c0-.41,.21-.62,.62-.62Zm1.87,20.37h10.26v-7.77h-9.95v.35c0,2.83-.1,5.3-.31,7.42Zm.31-10.26h9.95v-7.62h-9.95v7.62Zm12.75-7.62v7.62h10.11v-7.62h-10.11Zm0,17.88h10.11v-7.77h-10.11v7.77Z"/>
      </g>
      <g>
        <path class="cls-1" d="M7.55,32.58l.89,.19c0,3.5-.19,5.89-.56,7.17-.47,1.38-1.25,2.34-2.34,2.91-.69,.31-1.39,.47-2.11,.47-1,0-1.83-.3-2.48-.89-.62-.5-.94-1.2-.94-2.11,0-.5,.69-1.09,2.06-1.78,1.47-.66,2.61-1.42,3.42-2.3,.81-.81,1.5-2.03,2.06-3.66ZM6.75,.33c1.62,.44,3.17,.88,4.64,1.31,1.44,.41,2.16,.84,2.16,1.31,0,.53-.42,.86-1.27,.98-.81,.16-1.27,.33-1.36,.52-.28,.5-.55,.95-.8,1.36h24.98s.39-.39,1.08-1.17c1-1.12,1.64-1.69,1.92-1.69s1.14,.64,2.58,1.92c.91,.78,1.36,1.27,1.36,1.45,0,.5-.25,.75-.75,.75h-4.12v10.55c.22-.22,.56-.62,1.03-1.22,.91-1.09,1.44-1.64,1.59-1.64,.47,0,1.2,.55,2.2,1.64,1.03,1.06,1.55,1.7,1.55,1.92,0,.5-.27,.75-.8,.75h-5.58v11.3h.19c.09-.06,.47-.52,1.12-1.36,.84-.97,1.34-1.45,1.5-1.45,.44,0,1.14,.5,2.11,1.5s1.45,1.61,1.45,1.83c0,.53-.19,.8-.56,.8H6.98c-2.72,0-4.66,.06-5.81,.19l-.8-1.88c1.34,.22,3.22,.34,5.62,.38v-11.3c-2.34,.06-4.02,.14-5.02,.23l-.8-1.88c1.41,.22,3.34,.34,5.81,.38v-7.12c-1.38,1.28-3.12,2.58-5.25,3.89l-.56-.52c1.84-2.31,3.22-4.42,4.12-6.33,1-2.06,1.81-4.53,2.44-7.41ZM14.86,17.81V7.08h-3.94v10.73h3.94Zm-3.94,12.56h3.94v-11.3h-3.94v11.3Zm3.7,2.39c1.84,.91,3.31,1.89,4.41,2.95,.94,1.03,1.41,1.98,1.41,2.86,0,1.62-.3,2.73-.89,3.33-.81,.94-1.69,1.41-2.62,1.41-.66,0-1.19-.25-1.59-.75-.38-.34-.56-1.34-.56-3,0-1.81-.28-3.94-.84-6.38l.7-.42Zm8.86-14.95V7.08h-3.75v10.73h3.75Zm-3.75,12.56h3.75v-11.3h-3.75v11.3Zm4.83,2.06c2.59,1.19,4.36,2.23,5.3,3.14,1.25,1.25,1.88,2.31,1.88,3.19,0,1.22-.28,2.19-.84,2.91-.72,.69-1.52,1.03-2.39,1.03-.62,0-1.09-.14-1.41-.42-.38-.22-.69-1.17-.94-2.86-.22-2.12-.92-4.28-2.11-6.47l.52-.52Zm7.55-14.62V7.08h-3.8v10.73h3.8Zm-3.8,12.56h3.8v-11.3h-3.8v11.3Zm6.61,2.2c2.75,1.03,4.83,2.11,6.23,3.23,1.72,1.34,2.58,2.59,2.58,3.75s-.44,2.14-1.31,2.86c-.47,.44-1.11,.66-1.92,.66-.62,0-1.16-.19-1.59-.56-.47-.34-.86-1.19-1.17-2.53-.44-2-1.58-4.34-3.42-7.03l.61-.38Z"/>
        <path class="cls-1" d="M65.66,0c1.62,.47,3.03,.88,4.22,1.22,1.56,.44,2.34,.83,2.34,1.17,0,.41-.44,.69-1.31,.84-.66,.09-1.06,.23-1.22,.42,2.88,.88,4.97,1.81,6.28,2.81,1.38,1.19,2.06,2.58,2.06,4.17,0,.66-.27,1.27-.8,1.83-.34,.41-.83,.61-1.45,.61-.47,0-.92-.16-1.36-.47,.78,.88,1.17,1.42,1.17,1.64,0,.47-.17,.7-.52,.7h-4.92v6.42h.61c.09-.03,.5-.5,1.22-1.41,.91-1.09,1.42-1.64,1.55-1.64,.47,0,1.22,.55,2.25,1.64,.12,.16,.25,.3,.38,.42,1.34-1.12,2.33-2.27,2.95-3.42,.81-1.31,1.39-2.88,1.73-4.69,.28-1.97,.42-5.27,.42-9.89,1.47,.25,2.61,.47,3.42,.66,2.19,.5,3.28,.91,3.28,1.22,0,.47-.19,.83-.56,1.08-.81,.31-1.25,.59-1.31,.84-.31,4.06-.83,6.78-1.55,8.16-.72,1.94-1.75,3.48-3.09,4.64-1.19,1.12-2.66,1.94-4.41,2.44,.19,.25,.28,.42,.28,.52,0,.47-.25,.7-.75,.7h-6.42v12.98c2.59-.31,5.09-.7,7.5-1.17l.38,.8c-4.75,2.88-9.81,4.95-15.19,6.23-.62,.06-.94,.23-.94,.52-.03,.16-.08,.38-.14,.66-.12,.44-.31,.66-.56,.66-.66,0-1.44-1.16-2.34-3.47-.25-.62-.67-1.67-1.27-3.14,2.59-.16,5.11-.34,7.55-.56v-13.5h-.8c-2.72,0-4.64,.06-5.77,.19l-.8-1.88c1.53,.28,3.72,.42,6.56,.42h.8v-6.42c-1.59,.03-2.8,.11-3.61,.23l-.52-1.41c-1.06,.75-2.2,1.53-3.42,2.34l-.33-.75c1.44-1.62,3-3.86,4.69-6.7,1.41-2.31,2.64-5.2,3.7-8.67Zm-6,25.5c1.38,.84,2.45,1.78,3.23,2.81,.72,1,1.08,1.92,1.08,2.77,0,1.44-.27,2.41-.8,2.91-.72,.84-1.5,1.27-2.34,1.27-.44,0-.78-.23-1.03-.7-.22-.31-.33-1.23-.33-2.77,0-1.66-.17-3.62-.52-5.91l.7-.38Zm1.83-12.09c1.47,.19,3.44,.28,5.91,.28h2.06c.06-.03,.44-.48,1.12-1.36,.84-1,1.33-1.5,1.45-1.5,.38,0,.88,.31,1.5,.94-.25-.34-.48-.75-.7-1.22-.84-1.84-2.17-3.64-3.98-5.39-1.22,2-2.5,3.67-3.84,5.02-1.03,1.09-2.2,2.17-3.52,3.23Zm11.72,11.3c1.41,.5,2.77,1,4.08,1.5,.47,.16,.86,.33,1.17,.52,0-1.09-.08-2.39-.23-3.89,1.88,.53,3.78,1.22,5.72,2.06h7.08c.72-.75,1.41-1.42,2.06-2.02,.47-.5,.89-.75,1.27-.75,.41,0,1.33,.45,2.77,1.36,1.69,1.16,2.53,1.95,2.53,2.39s-.33,.91-.98,1.41c-.5,.41-.75,.86-.75,1.36v6.98c0,1.56,.06,3.69,.19,6.38,0,.59-.86,1.05-2.58,1.36-.78,.09-1.36,.14-1.73,.14-.84,0-1.27-.5-1.27-1.5v-2.25h-8.86v2.44c0,.59-.8,1.05-2.39,1.36-.69,.09-1.2,.14-1.55,.14-1,0-1.5-.5-1.5-1.5,.16-.91,.23-1.91,.23-3v-11.02c-.09,.03-.19,.05-.28,.05-.62,.06-.97,.14-1.03,.23-1.66,2.28-3.66,4.34-6,6.19l-.56-.52c1.12-2.88,2-6.02,2.62-9.42Zm10.45,13.73h8.86v-12.19h-8.86v12.19ZM89.33,2.39c1.88,.19,3.7,.42,5.48,.7,1.09,.06,1.64,.34,1.64,.84,0,.19-.33,.42-.98,.7-.75,.34-1.12,.73-1.12,1.17V14.77c0,1.19,.06,1.83,.19,1.92,.19,.09,.41,.14,.66,.14,.62,0,1.12-.03,1.5-.09,.56-.09,1-.41,1.31-.94,.16-.28,.25-.42,.28-.42,.56,0,1.3,.39,2.2,1.17,.81,.94,1.22,1.66,1.22,2.16,0,.53-.19,.95-.56,1.27-.41,.28-1.03,.5-1.88,.66-1.19,.22-2.55,.33-4.08,.33-2.22,0-3.62-.16-4.22-.47-.34-.22-.62-.53-.84-.94-.28-.62-.42-1.66-.42-3.09V6.19c0-1.22-.12-2.48-.38-3.8Z"/>
        <path class="cls-1" d="M134.18,.14c2.69,.38,4.44,.69,5.25,.94,2.12,.38,3.19,.81,3.19,1.31,0,.53-.45,.97-1.36,1.31-.88,.22-1.31,.59-1.31,1.12v3.98c.88,3.06,1.88,5.72,3,7.97,.41,.91,.86,1.77,1.36,2.58,.84-1.06,1.7-2.31,2.58-3.75,1.47-2.22,2.67-4.62,3.61-7.22,1.69,1.06,3.25,2.05,4.69,2.95,1.38,.97,2.06,1.69,2.06,2.16,0,.5-.31,.75-.94,.75l-2.86-.19c-2,2.06-4.84,4.17-8.53,6.33,1.28,2.06,2.75,3.86,4.41,5.39,2.5,2.41,5.7,4.62,9.61,6.66l-.38,.94c-1.16,.31-2.2,1.31-3.14,3-.62,1.25-1.08,1.88-1.36,1.88-.62,0-1.88-.97-3.75-2.91-2.41-2.53-4.41-5.23-6-8.11-1.66-3.16-2.94-6.31-3.84-9.47-.16-.53-.33-1.06-.52-1.59v21.89c0,2.16-.7,3.66-2.11,4.5-1.59,1-3.19,1.5-4.78,1.5-.53,0-.88-.48-1.03-1.45-.31-1.5-2.36-3.02-6.14-4.55l.23-1.17c3.31,.53,5.73,.8,7.27,.8,.78,0,1.17-.33,1.17-.98V17.02c-.19,.12-.44,.23-.75,.33-.97,.28-1.53,.61-1.69,.98-1.69,5.16-3.92,9.2-6.7,12.14-2.69,2.88-6.03,5.28-10.03,7.22l-.38-.61c2.38-2.12,4.31-4.27,5.81-6.42,1.44-2.03,2.67-4.36,3.7-6.98,1.06-2.53,1.84-5.3,2.34-8.3-5.41,0-8.61,.06-9.61,.19l-.7-1.88c2,.25,3.64,.38,4.92,.38h5.02c.47-.53,.89-.97,1.27-1.31,.72-.75,1.28-1.12,1.69-1.12s1.39,.64,2.95,1.92c.97,.72,1.69,1.33,2.16,1.83V5.25c0-.97-.12-2.67-.38-5.11Z"/>
        <path class="cls-1" d="M185.55,8.58c1.72,.31,3.12,.59,4.22,.84,1.47,.28,2.2,.62,2.2,1.03,0,.25-.39,.48-1.17,.7-.62,.09-.98,.25-1.08,.47-1,1.31-2.41,2.62-4.22,3.94h2.53c.09-.06,.55-.59,1.36-1.59,1.03-1.19,1.62-1.78,1.78-1.78,.53,0,1.31,.59,2.34,1.78,1.06,1.19,1.59,1.91,1.59,2.16,0,.47-.23,.7-.7,.7h-15.42c-2.72,0-4.66,.06-5.81,.19l-.7-1.83c1.5,.25,3.67,.38,6.52,.38h5.25c.78-1.91,1.22-4.23,1.31-6.98Zm-4.69-8.58c1.97,.19,3.86,.44,5.67,.75,1.12,.06,1.69,.38,1.69,.94,0,.19-.34,.42-1.03,.7-.69,.31-1.03,.7-1.03,1.17v2.77h1.5c.09-.03,.5-.5,1.22-1.41,.91-1.03,1.44-1.55,1.59-1.55,.47,0,1.2,.52,2.2,1.55,1.03,1.09,1.55,1.75,1.55,1.97,0,.53-.27,.8-.8,.8h-13.45c-2.72,0-4.66,.06-5.81,.19l-.8-1.88c1.53,.22,3.73,.33,6.61,.33h1.27V3.94c0-1.28-.12-2.59-.38-3.94Zm-6,18.52c1.94,.53,3.89,1.22,5.86,2.06h6.7c.44-.41,.77-.75,.98-1.03,.81-.81,1.38-1.22,1.69-1.22,.44,0,1.38,.53,2.81,1.59,1.34,1.06,2.02,1.8,2.02,2.2,0,.28-.31,.69-.94,1.22-.84,.56-1.27,1.08-1.27,1.55v14.86c0,1.5-.81,2.64-2.44,3.42-1.25,.59-2.33,.89-3.23,.89-.28,0-.55-.56-.8-1.69-.34-1.34-1.69-2.48-4.03-3.42l.19-.89c1.91,.34,3.45,.52,4.64,.52,.66,0,.98-.42,.98-1.27v-4.55h-7.88v9.42c0,.59-.72,1.05-2.16,1.36-.66,.09-1.12,.14-1.41,.14-1.03,0-1.55-.5-1.55-1.5,.12-1.5,.19-3,.19-4.5v-12.8c0-2.16-.12-4.28-.38-6.38Zm2.86-10.31c1.62,.47,2.84,.97,3.66,1.5,1.03,.62,1.55,1.2,1.55,1.73,0,1.09-.39,1.98-1.17,2.67-.47,.44-1.06,.66-1.78,.66-.31,0-.58-.11-.8-.33-.19-.22-.36-.75-.52-1.59-.19-1.19-.7-2.61-1.55-4.27l.61-.38Zm2.44,17.86h7.88v-4.12h-7.88v4.12Zm0,5.44h7.88v-4.12h-7.88v4.12ZM211.42,2.06c.41,0,1.45,.77,3.14,2.3,1.06,.97,1.59,1.58,1.59,1.83,0,.47-.33,.7-.98,.7h-14.06v4.36h5.81c.56-.66,1.02-1.2,1.36-1.64,.38-.44,.73-.66,1.08-.66,.53,0,1.44,.48,2.72,1.45,1.47,1,2.2,1.7,2.2,2.11,0,.31-.25,.66-.75,1.03-.44,.28-.69,.56-.75,.84v3.42c0,.5-.72,.88-2.16,1.12-.62,.09-1.11,.14-1.45,.14-.69,0-1.09-.25-1.22-.75h-7.03v4.12h5.86s.41-.38,1.12-1.12c.94-1.09,1.56-1.64,1.88-1.64s1.19,.64,2.62,1.92c.88,.75,1.31,1.22,1.31,1.41,0,.53-.25,.8-.75,.8h-12.05v3.94h4.5c.06,0,.5-.47,1.31-1.41,1.09-1.31,1.8-1.97,2.11-1.97,.34,0,1.34,.73,3,2.2,.97,.91,1.45,1.48,1.45,1.73,0,.47-.23,.7-.7,.7h-11.67v4.36h3.98s.47-.48,1.31-1.45c1.16-1.41,1.91-2.11,2.25-2.11s1.33,.77,2.95,2.3c.59,.53,1,.97,1.22,1.31l.84-2.53,.98,.19c.09,3.41,.17,5.11,.23,5.11,.09,1,.42,1.7,.98,2.11,.44,.38,.66,.8,.66,1.27,0,1.16-.38,1.95-1.12,2.39-.38,.28-1.06,.5-2.06,.66-1.66,.31-3.86,.47-6.61,.47-4.31,0-7.06-.16-8.25-.47-.94-.25-1.59-.83-1.97-1.73-.28-.66-.42-1.66-.42-3V20.77c0-1.97-.14-3.97-.42-6,2.31,.59,4.36,1.34,6.14,2.25h6.28v-4.5h-6.8v.56c0,.62-.75,1.08-2.25,1.36-.66,.09-1.16,.14-1.5,.14-.97,0-1.45-.3-1.45-.89,.12-.84,.19-1.47,.19-1.88V4.12c0-1.59-.2-2.97-.61-4.12,1.44,.16,3.14,.39,5.11,.7,1.84,.19,2.77,.52,2.77,.98,0,.5-.44,.91-1.31,1.22-.62,.25-.94,.66-.94,1.22v1.5h6.61c.06,0,.52-.5,1.36-1.5,1.22-1.38,2-2.06,2.34-2.06Zm.8,32.58h-11.3v1.17c0,1.53,.19,2.39,.56,2.58,.59,.25,2.28,.38,5.06,.38,2.44,0,3.86-.2,4.27-.61,.47-.25,.81-1.03,1.03-2.34l.38-1.17Z"/>
        <path class="cls-1" d="M242.78,25.31c1.47,.5,2.88,1,4.22,1.5,1.31,.53,1.97,1.08,1.97,1.64,0,.25-.31,.41-.94,.47-.66,.09-1.03,.2-1.12,.33-1.03,2.31-2.25,4.47-3.66,6.47,2.84-.44,5.58-.91,8.2-1.41l.19,.52c-5.19,3.06-10.7,5.28-16.55,6.66-.59,.06-.89,.23-.89,.52-.06,.16-.12,.38-.19,.66-.12,.44-.31,.66-.56,.66-.62,0-1.36-1.09-2.2-3.28-.25-.56-.64-1.55-1.17-2.95,3.88-.25,7.61-.61,11.2-1.08,.66-3.34,1.16-6.91,1.5-10.69Zm-12.56-21.38c1.53,.22,3.72,.33,6.56,.33h5.62c.12-.03,.66-.67,1.59-1.92,1.16-1.47,1.83-2.2,2.02-2.2,.59,0,1.55,.72,2.86,2.16,1.31,1.38,1.97,2.22,1.97,2.53,0,.53-.3,.8-.89,.8h-13.17c-2.72,0-4.66,.06-5.81,.19l-.75-1.88Zm1.73,5.44c1.75,.44,3.56,1.06,5.44,1.88h5.02c.75-.78,1.44-1.45,2.06-2.02,.47-.56,.92-.84,1.36-.84,.38,0,1.28,.47,2.72,1.41,1.66,1.16,2.48,1.95,2.48,2.39s-.31,.91-.94,1.41c-.47,.41-.7,.86-.7,1.36v2.06c0,1.53,.06,3.61,.19,6.23,0,.59-.84,1.03-2.53,1.31-.72,.09-1.25,.14-1.59,.14-.88,0-1.31-.48-1.31-1.45v-.61h-6.75v.98c0,.59-.78,1.03-2.34,1.31-.62,.09-1.09,.14-1.41,.14-1,0-1.5-.42-1.5-1.27,.09-.91,.14-1.92,.14-3.05v-7.45c0-1.09-.11-2.41-.33-3.94Zm2.58,16.69c1.69,1.12,2.95,2.2,3.8,3.23,.88,1.12,1.31,2.11,1.31,2.95,0,1.25-.31,2.25-.94,3-.5,.5-1.08,.75-1.73,.75-1.62,0-2.44-1.08-2.44-3.23,0-2.34-.17-4.47-.52-6.38l.52-.33Zm2.86-4.69h6.75V12.52h-6.75v8.86Zm13.45-18.42c1.53,.28,3.73,.42,6.61,.42h9.52c.12-.06,.61-.59,1.45-1.59,1-1.19,1.59-1.78,1.78-1.78,.47,0,1.23,.59,2.3,1.78,1.09,1.19,1.64,1.91,1.64,2.16,0,.47-.25,.7-.75,.7h-8.62c-1.09,2.22-2.38,4.16-3.84,5.81h3.28c.72-.81,1.39-1.53,2.02-2.16,.5-.53,.95-.8,1.36-.8s1.34,.44,2.81,1.31c1.72,1.19,2.58,2,2.58,2.44,0,.41-.31,.83-.94,1.27-.47,.38-.7,.83-.7,1.36v13.88c0,1.47,.06,3.47,.19,6,0,.59-.81,1.03-2.44,1.31-.66,.12-1.16,.19-1.5,.19-.88,0-1.31-.5-1.31-1.5v-.56h-8.81v.56c0,.38-.31,.69-.94,.94,1.31,.75,2.47,1.39,3.47,1.92,1.31,.69,1.97,1.23,1.97,1.64,0,.38-.33,.61-.98,.7-.72,0-1.14,.14-1.27,.42-1.38,.81-2.86,1.56-4.45,2.25-1.81,.78-4.66,1.59-8.53,2.44l-.38-.75c2.28-1.19,4.28-2.48,6-3.89,2-1.69,3.38-3.27,4.12-4.73-.34,.16-.8,.28-1.36,.38-.66,.12-1.12,.19-1.41,.19-1.12,0-1.69-.5-1.69-1.5,.25-3.41,.38-6.42,.38-9.05v-8.25c0-2.25-.12-5-.38-8.25,2.25,.56,4.33,1.31,6.23,2.25h.23c.41-1.62,.73-3.56,.98-5.81h-2.02c-2.72,0-4.66,.06-5.81,.19l-.8-1.88Zm6.61,14.3h8.81v-5.44h-8.81v5.44Zm0,7.12h8.81v-5.86h-8.81v5.86Zm0,7.5h8.81v-6.19h-8.81v6.19Zm6.19,2.95c2.88,.62,5.19,1.31,6.94,2.06,2.5,1.03,3.75,2.11,3.75,3.23,0,1-.27,1.78-.8,2.34-.75,.81-1.48,1.22-2.2,1.22-.56,0-1.11-.42-1.64-1.27-.72-1.12-1.7-2.39-2.95-3.8-.62-.69-1.86-1.69-3.7-3l.61-.8Z"/>
      </g>
      <line class="cls-2" x1="294.8" y1="24.56" x2="568.8" y2="24.56"/>
    </g>
  </g>
</svg>