<?xml version="1.0" encoding="UTF-8"?>
<svg id="_圖層_2" data-name="圖層 2" xmlns="http://www.w3.org/2000/svg" viewBox="0 0 253.78 61.33">
  <defs>
    <style>
      .cls-1 {
        fill: #fff;
      }

      .cls-2 {
        fill: none;
        stroke: #fff;
        stroke-miterlimit: 10;
        stroke-width: .5px;
      }
    </style>
  </defs>
  <g id="_圖層_1-2" data-name="圖層 1">
    <g>
      <g>
        <path class="cls-1" d="M20.07,7.2c-.1,4.8-.1,9.7-.1,14.64v2.35c0,4.8,0,9.65,.1,14.5l5.14,.43v1.68H8.06v-1.68l5.14-.43c.05-4.75,.05-9.6,.05-14.5v-2.35c0-4.85,0-9.79-.05-14.64H5.76l-2.02,7.92H1.06l.34-9.94H31.88l.29,9.94h-2.69l-1.97-7.92h-7.44Z"/>
        <path class="cls-1" d="M71.67,22.99c0,12.05-7.82,18.72-16.56,18.72s-16.61-6.48-16.61-18.72S46.42,4.32,55.11,4.32s16.56,6.53,16.56,18.67Zm-16.56,16.75c6.43,0,9.46-7.39,9.46-16.75s-3.02-16.71-9.46-16.71-9.41,7.49-9.41,16.71,2.98,16.75,9.41,16.75Z"/>
        <path class="cls-1" d="M97.01,7.2c-.1,4.8-.1,9.7-.1,14.64v2.35c0,4.8,0,9.65,.1,14.5l5.14,.43v1.68h-17.14v-1.68l5.14-.43c.05-4.75,.05-9.6,.05-14.5v-2.35c0-4.85,0-9.79-.05-14.64h-7.44l-2.02,7.92h-2.69l.34-9.94h30.48l.29,9.94h-2.69l-1.97-7.92h-7.44Z"/>
        <path class="cls-1" d="M148.61,22.99c0,12.05-7.82,18.72-16.56,18.72s-16.61-6.48-16.61-18.72,7.92-18.67,16.61-18.67,16.56,6.53,16.56,18.67Zm-16.56,16.75c6.43,0,9.46-7.39,9.46-16.75s-3.02-16.71-9.46-16.71-9.41,7.49-9.41,16.71,2.98,16.75,9.41,16.75Z"/>
        <path class="cls-1" d="M167.43,19.83c-.19,.43-.62,.77-1.49,.91v22.95c-.1,.34-2.21,1.39-4.18,1.39h-.96V23.86c-1.39,1.49-2.93,2.93-4.51,4.22l-.53-.48c3.55-5.23,6.82-13.01,8.26-17.95l5.18,2.5h2.88c.24-1.49,.58-3.31,.86-5.33h-3.6l-.43-1.39h4.22c.24-1.82,.43-3.65,.62-5.23l6.29,.62c-.1,.72-.72,1.25-1.73,1.39l-.48,3.22h2.5l2.4-2.5,4.9,3.65c-.29,.38-1.01,.77-1.97,.96v4.18l1.87-2.74s2.5,2.26,3.89,3.79c-.1,.53-.58,.77-1.25,.77h-21.55v-.05c-1.01,1.63-2.26,3.5-3.7,5.38l2.5,.96Zm2.06-16.71c-.24,.48-.67,.77-1.82,.67-2.5,3.17-6.77,7.34-11.14,10.13l-.48-.48c2.83-3.89,5.66-9.79,6.91-13.44l6.53,3.12Zm11.81,33.51v7.3c0,.24-1.54,1.15-4.13,1.15h-.86v-8.45h-3.41l-1.82,2.02-4.32-2.83c.43-.38,1.1-.82,1.78-1.06,.43-1.68,.91-3.79,1.2-5.33h-2.16l-.38-1.34h9.12v-4.18h-1.44v.29c0,.38-2.21,1.44-4.13,1.44h-.67V13.92l4.99,2.02h5.81l2.16-2.26,4.56,3.36c-.19,.34-.77,.67-1.54,.82v5.81c-.05,.34-2.45,1.2-3.94,1.2h-.82v3.22h1.39l2.11-2.98s2.4,2.11,3.79,3.55c-.1,.53-.58,.77-1.2,.77h-6.1v5.81h1.97l2.5-3.17s2.78,2.21,4.56,3.79c-.14,.53-.62,.77-1.3,.77h-7.73Zm-4.99-1.39v-5.81h-1.92c-.43,1.68-.96,3.98-1.39,5.81h3.31Zm-1.44-12.72h6.43v-5.23h-6.43v5.23Zm1.92-10.37h4.03V6.82h-3.17l-.86,5.33Zm19.87,.05s3.02,2.4,4.85,4.18c-.14,.53-.62,.77-1.3,.77h-3.17v21.6c0,3.55-.86,5.95-6.72,6.43-.1-1.58-.34-2.83-1.01-3.6s-1.68-1.34-3.98-1.73v-.62s4.56,.29,5.57,.29c.77,0,.96-.29,.96-.86V17.14h-4.18l-.38-1.39h6.72l2.64-3.55Zm-8.78-6.14l-.38-1.34h5.18l2.69-3.46s3.02,2.4,4.85,4.03c-.1,.53-.62,.77-1.25,.77h-11.09Z"/>
        <path class="cls-1" d="M207.74,10.8c12.19,1.78,7.78,10.75,3.22,7.3-.34-2.5-2.02-5.28-3.6-7.01l.38-.29Zm13.97-3.07c-1.82,6.1-5.14,17.38-5.76,20.02-.38,1.68-.72,3.36-.72,4.61,.14,2.54,2.02,4.37,1.87,8.69-.1,2.4-1.58,3.94-3.84,3.94-1.06,0-2.11-.67-2.45-2.5,.86-5.04,.67-9.5-.48-10.27-.62-.48-1.44-.67-2.5-.77v-.96h2.16c.72,0,.91,0,1.39-1.01q.96-1.82,9.5-21.94l.82,.19ZM211.01,.38c12.72,1.97,8.3,11.19,3.5,7.78-.48-2.64-2.3-5.57-3.94-7.49l.43-.29Zm28.9,10.56c-.19,.58-.72,.86-2.11,1.01,3.26,5.38,10.18,9.31,15.99,11.28l-.1,.67c-2.26,.67-3.79,2.88-4.13,5.04-.43-.29-.86-.58-1.3-.86-.29,.19-.67,.29-1.25,.38v14.93c0,.19-1.73,1.2-4.61,1.2h-.96v-3.7h-11.71v2.83c0,.38-1.63,1.3-4.42,1.3h-.96V26.07c-2.11,1.44-4.27,2.74-6.43,3.74l-.34-.48c6.34-4.9,12.91-14.02,14.4-20.21l7.92,1.82Zm-19.39,3.5c3.36-3.94,6.24-10.13,7.49-14.31l7.01,3.26c-.24,.48-.67,.86-1.82,.72-2.64,3.7-7.15,8.11-12.24,10.8l-.43-.48Zm23.19,9.5c-2.93-3.22-5.28-7.15-6.62-11.47-2.26,4.56-6.48,9.02-11.28,12.58l4.42,1.68h11.04l2.45-2.78Zm-2.26,15.55v-11.43h-11.71v11.43h11.71ZM238.18,.77c17.33,3.55,14.26,15.12,8.4,11.86-1.63-3.89-5.62-8.5-8.83-11.52l.43-.34Z"/>
      </g>
      <line class="cls-2" y1="61.08" x2="41.03" y2="61.08"/>
    </g>
  </g>
</svg>