<?xml version="1.0" encoding="UTF-8"?>
<svg id="_圖層_2" data-name="圖層 2" xmlns="http://www.w3.org/2000/svg" viewBox="0 0 576.41 261.29">
  <defs>
    <style>
      .cls-1 {
        fill: #fff;
      }
    </style>
  </defs>
  <g id="_圖層_1-2" data-name="圖層 1">
    <g>
      <path class="cls-1" d="M12.47,3.67H7.23V19.99h-2V3.67H0V1.84H12.47v1.83Z"/>
      <path class="cls-1" d="M15.4,11.13c0-2.91,.79-5.24,2.37-6.98s3.72-2.61,6.42-2.61c2.5,0,4.51,.85,6.04,2.55s2.29,3.9,2.29,6.59c0,2.9-.77,5.23-2.31,6.98s-3.65,2.64-6.32,2.64-4.61-.86-6.16-2.57-2.33-3.91-2.33-6.6Zm2.1-.19c0,2.18,.58,3.98,1.73,5.41s2.7,2.14,4.64,2.14c2.07,0,3.68-.67,4.83-2.02s1.73-3.18,1.73-5.49-.56-4.26-1.67-5.6-2.69-2.02-4.73-2.02-3.57,.72-4.76,2.15-1.78,3.24-1.78,5.43Z"/>
      <path class="cls-1" d="M47.96,3.67h-5.24V19.99h-2V3.67h-5.23V1.84h12.47v1.83Z"/>
      <path class="cls-1" d="M50.89,11.13c0-2.91,.79-5.24,2.37-6.98s3.72-2.61,6.42-2.61c2.5,0,4.51,.85,6.04,2.55s2.29,3.9,2.29,6.59c0,2.9-.77,5.23-2.31,6.98s-3.65,2.64-6.32,2.64-4.61-.86-6.16-2.57-2.33-3.91-2.33-6.6Zm2.1-.19c0,2.18,.58,3.98,1.73,5.41s2.7,2.14,4.64,2.14c2.07,0,3.68-.67,4.83-2.02s1.73-3.18,1.73-5.49-.56-4.26-1.67-5.6-2.69-2.02-4.73-2.02-3.57,.72-4.76,2.15-1.78,3.24-1.78,5.43Z"/>
      <path class="cls-1" d="M78.17,6.89l-1.15,2.18v12.12h-1.18V10.99c-.66,1-1.29,1.82-1.89,2.47l-.91-.87c1.55-1.69,2.95-3.82,4.2-6.39l.94,.68Zm.34-6.18c-1.63,2.41-3.11,4.18-4.42,5.33l-1.01-.74c1.52-1.35,2.98-3.05,4.39-5.1l1.03,.5Zm10.65,17.7h-4.3v2.8h-1.2v-2.8h-4.65l.48-3.41h-.94v-1.12h5.11v-1.66h-4.05V7.95h8.47v4.27h-3.22v1.66h3.91v1.12h-3.91v2.29h4.3v1.12Zm.19-12.18h-10.75v-1.12h3.32l.57-2.06h-2.93V1.9h3.16l.41-1.61h1.2l-.38,1.61h3.81v3.21h1.58v1.12Zm-5.68,11.05v-2.29h-2.98l-.3,2.29h3.28Zm3.16-6.25v-1.99h-6.02v1.99h6.02Zm-.26-5.93V3.05h-2.86l-.5,2.06h3.36Zm7.51,3.36h-1.44v11.02c0,.48-.12,.87-.38,1.16s-.51,.45-.77,.47-.94,.04-2.02,.04l-.34-1.22c.31,.02,.62,.04,.91,.04,.64,0,1.04-.05,1.2-.15s.24-.28,.24-.53V8.47h-2.47v-1.22h5.06v1.22Zm-.29-6.16h-4.38V1.08h4.38v1.23Z"/>
      <path class="cls-1" d="M104.25,9.69l-.74,1.03c-.96-.98-2.25-2.01-3.87-3.07l.77-1.01c1.48,.95,2.75,1.97,3.83,3.05Zm.41,3.84c-1.23,3.02-2.55,5.54-3.98,7.58l-.94-.91c1.38-1.95,2.68-4.41,3.89-7.38l1.03,.71Zm.43-10.22l-.79,.96c-1.12-1.14-2.39-2.18-3.8-3.11l.8-1.03c1.27,.86,2.53,1.92,3.79,3.18Zm15.57,8.54l-.79,1.05c-3.41-2.41-5.83-4.67-7.25-6.8-1.89,2.37-4.35,4.6-7.37,6.7l-.9-.87c3.88-2.66,6.59-5.28,8.13-7.85l1.12,.46c-.05,.11-.12,.26-.23,.46,1.73,2.59,4.16,4.88,7.29,6.84ZM111.39,.89c-1.8,2.1-3.59,3.74-5.36,4.92l-.96-.89c1.81-1.18,3.59-2.79,5.33-4.83l.98,.8Zm6.41,20.32h-1.25v-1.61h-7.92v1.61h-1.27V12.05h10.44v9.16Zm-1.25-2.82v-5.09h-7.92v5.09h7.92Zm3.57-13.42l-.83,.87c-1.66-1.85-3.52-3.44-5.6-4.76l.82-.91c2.39,1.58,4.26,3.18,5.61,4.8Z"/>
      <path class="cls-1" d="M136.83,2.38h-4.65v1.15h4.17v1.05h-9.53v-1.05h4.15v-1.15h-4.9V1.3h4.9V.21h1.21V1.3h4.65v1.08Zm10.1,17.27h-3.84v1.51h-1.24v-1.51h-15.75v-1.1h3.98v-6h-1.24v-1.12h15.91v1.12h-1.66v6h3.84v1.1Zm-10.95-10.1h-7.54c-.16,1.36-.61,2.69-1.35,3.98l-.93-.74c.38-.57,.69-1.32,.93-2.24s.36-2.54,.36-4.85h8.52v3.84Zm-4.77-1.08v-1.68h-2.58c.02,.34,0,.89-.05,1.68h2.62Zm10.63,5.33v-1.25h-10.54v1.25h10.54Zm0,2.34v-1.29h-10.54v1.29h10.54Zm0,2.4v-1.39h-10.54v1.39h10.54Zm-7.08-10.08v-1.68h-2.36v1.68h2.36Zm12.35,1.65l-.57,1.01c-1.84-.36-3.48-.88-4.9-1.56-1.09,.55-2.58,1.02-4.49,1.42l-.71-.98c1.77-.34,3.11-.7,4.01-1.1-.96-.62-1.87-1.38-2.73-2.29h-.66v-1.05h8.36v1.05c-.69,.9-1.55,1.68-2.59,2.33,1.2,.48,2.62,.88,4.29,1.17Zm-.21-5.59h-2.66c-.87,0-1.3-.38-1.3-1.15V1.95h-3.6c-.15,1.45-.73,2.51-1.76,3.16l-.76-.83c.98-.58,1.46-1.72,1.46-3.43h5.82V3.12c0,.26,.14,.39,.41,.39h2.38v1.03Zm-2.98,2.09h-4.72c.58,.57,1.37,1.15,2.37,1.73,1.03-.57,1.82-1.15,2.36-1.73Z"/>
      <path class="cls-1" d="M171.79,21.21h-1.28v-1.56h-11.34v1.58h-1.32V12.91c-1.86,.68-3.39,1.19-4.58,1.54l-.73-1.17c3.76-1.02,6.96-2.24,9.61-3.68-.96-1.38-2.29-2.8-3.98-4.24-1.21,.79-2.56,1.56-4.05,2.32l-1.03-1.03c3.62-1.55,6.65-3.75,9.09-6.57l1.24,.57c-.34,.42-.78,.89-1.31,1.39h9.33v1.05c-2.6,3.5-6.11,6.35-10.54,8.54h10.9v9.57Zm-1.28-2.8v-5.5h-11.34v5.5h11.34Zm-.96-15.07h-8.75c-.54,.46-1.07,.89-1.61,1.29,1.56,1.39,2.92,2.82,4.08,4.28,2.53-1.61,4.62-3.46,6.28-5.57Z"/>
      <path class="cls-1" d="M199.77,19.61l-.28,1.28c-4.47,0-7.69-.03-9.66-.08s-3.54-.33-4.7-.83-2.09-1.12-2.77-1.86c-.75,1.08-1.67,2.16-2.75,3.25l-.91-.77c2.48-2.38,4.01-4.96,4.61-7.77h-3.89v-1.21c1.72-2.15,2.91-3.8,3.59-4.95h-4.07v-1.17h5.55v1.17c-.89,1.36-2.06,2.99-3.5,4.9h3.57v1.25c-.38,1.51-.9,2.92-1.58,4.24,.55,.7,1.28,1.25,2.17,1.63s1.84,.65,2.85,.79,2.52,.22,4.53,.22c1.61,0,4.02-.03,7.24-.09Zm-16.03-15.81l-.89,.9c-.66-.98-1.77-2.11-3.33-3.38l.81-.84c1.41,1.05,2.54,2.16,3.41,3.32Zm14.64,8.13h-5.37c-.88,.84-1.86,1.61-2.95,2.3v3c.69-.09,1.81-.39,3.38-.88l.18,1.17c-1.53,.48-3.12,.9-4.76,1.28l-.38-1.11c.25-.23,.38-.45,.38-.67v-2.09c-1.27,.67-2.25,1.13-2.95,1.37l-.71-1.03c2.69-1.01,4.71-2.12,6.07-3.34h-4.39V7.49h11.52v4.44Zm1.08-5.93h-13.91v-1.2h6.4v-1.76h-5.57V1.85h5.57V.27h1.23l-.02,1.58h5.57v1.2h-5.57v1.76h6.3v1.2Zm-2.37,4.68v-1.99h-9.02v1.99h9.02Zm2.11,7.09l-.87,.86c-1.7-1.71-3.5-3.13-5.4-4.27l.77-.89c.48,.25,1.09,.63,1.8,1.15,.8-.49,1.61-1.16,2.41-1.99l.91,.84c-.76,.73-1.53,1.36-2.32,1.88,1.44,1.24,2.33,2.05,2.68,2.43Z"/>
      <path class="cls-1" d="M211.77,5.61h-2.34v4.44c.65-.36,1.22-.72,1.72-1.08l.27,1.28c-.32,.21-.98,.62-1.99,1.24v7.99c0,.64-.16,1.09-.47,1.35s-1,.39-2.06,.39c-.3,0-.6-.01-.88-.04l-.36-1.24c.2,.02,.88,.02,2.04,.02,.35,0,.53-.21,.53-.62v-7.14c-1.04,.6-1.93,1.07-2.66,1.39l-.34-1.24c1.04-.46,2.04-.98,3-1.56V5.61h-2.88v-1.2h2.88V.21h1.21V4.42h2.34v1.2Zm14.33,5.17h-9.32c-.36,.59-.77,1.17-1.22,1.72h9.53c0,1.62-.09,3.18-.28,4.68s-.35,2.42-.51,2.77-.43,.66-.81,.91-1.14,.38-2.27,.38c-.32,0-.7-.02-1.15-.05l-.46-1.24c.36,.02,.76,.04,1.2,.04,1.32,0,2.07-.1,2.24-.3s.34-.94,.5-2.21,.27-2.53,.32-3.77h-1.44c-1.12,2.86-3.59,5.34-7.39,7.44l-.87-.94c3.44-1.79,5.73-3.96,6.87-6.5h-2.21c-1.45,1.93-3.6,3.64-6.45,5.12l-.87-1.01c2.31-1.01,4.24-2.38,5.78-4.11h-2.98c-.71,.66-1.77,1.39-3.19,2.21l-.74-1.03c2.2-1.12,3.85-2.49,4.96-4.1h-3.16v-1.21h13.92v1.21Zm-1.7-2.79h-11.26V.8h11.26V7.99Zm-1.23-4.2V1.99h-8.78v1.8h8.78Zm0,3v-1.83h-8.78v1.83h8.78Z"/>
      <path class="cls-1" d="M238.49,.75c-.62,1.23-1.5,2.57-2.64,4.03,.93,2.02,1.39,5.12,1.39,9.32,0,2.89-.24,4.81-.71,5.77s-1.27,1.43-2.39,1.43h-1.31l-.32-1.21h1.46c.34,0,.69-.09,1.03-.28s.59-.79,.75-1.82,.23-2.14,.23-3.35c0-.83-.04-2.02-.12-3.56-1.11,1.72-2.3,3.21-3.57,4.49l-.77-.94c1.52-1.48,2.92-3.32,4.2-5.52-.15-1.22-.4-2.32-.76-3.3-.88,.86-1.74,1.52-2.59,1.99l-.96-.87c1.11-.56,2.12-1.35,3.02-2.36-.49-1.03-1.33-2.15-2.52-3.36l.76-.93c1.02,.99,1.89,2.09,2.6,3.28,.71-.91,1.43-2.07,2.16-3.48l1.05,.66Zm13.63,12.9h-12.74v-5.32c-.59,.5-1,.84-1.23,1.01l-.64-.91c1.29-.96,2.48-2.41,3.57-4.35l1.01,.57c-.13,.27-.29,.53-.46,.77h3.75c-.21-.48-.41-.87-.6-1.17l1.22-.29,.69,1.46h5.21v1.05h-5.43v1.3h5.13v1.1h-5.13v1.29h5.13v1.05h-5.13v1.32h5.64v1.1Zm.55,6.57l-.48,.96c-2.14-.25-4.29-.75-6.46-1.51-1.96,.78-4.42,1.33-7.38,1.64l-.48-.98c2.59-.22,4.75-.64,6.48-1.25-1.72-.88-3.05-1.88-4.01-3h-1.28v-1.05h11.95l-.02,1.05c-1.3,1.41-2.59,2.41-3.89,3,1.55,.53,3.41,.91,5.57,1.15Zm-8.45-16.34h-1.12v-1.1h-4.44V1.68h4.44V.27h1.12V3.89Zm1.09,3.89v-1.3h-4.35l-.39,.46v.84h4.73Zm0,2.39v-1.29h-4.73v1.29h4.73Zm0,2.38v-1.32h-4.73v1.32h4.73Zm4.2,3.53h-7.76c.84,.88,2.16,1.71,3.96,2.5,1.65-.71,2.91-1.54,3.8-2.5Zm3.05-13.29h-4.39v1.1h-1.2V.27h1.2V1.68h4.39v1.11Z"/>
      <path class="cls-1" d="M278.83,7.46l-.68,1.12c-4.58-2.02-7.83-4.21-9.76-6.6-1.9,2.59-5.2,4.79-9.89,6.6l-.64-1.2c4.11-1.45,7.09-3.29,8.95-5.5h-2.33V.67h4.56c1.77,2.59,5.03,4.86,9.8,6.8Zm-.57,13.22h-19.8v-1.2h9.29v-4.61h-6.61v-1.21h6.61v-4.44h-6.57v-1.17h14.37v1.17h-6.55v4.44h6.53v1.21h-6.53v4.61h9.27v1.2Z"/>
      <path class="cls-1" d="M291.86,15.19c-1.93,1.11-4.3,2.37-7.1,3.77l-.53-1.05c1.45-.71,2.6-1.3,3.43-1.76v-6.53h-2.84v-1.12h2.84V2.98h-3.07V1.83h7.22v1.15h-2.95v5.52h2.52v1.12h-2.52v5.86c.88-.41,1.86-.96,2.93-1.63l.07,1.34Zm4.49-.74c-2.04,2.26-3.7,3.82-4.97,4.7l-.79-.98c1.55-1.11,3.26-2.7,5.11-4.77l.64,1.05Zm9.07,3.91l-.71,1.03c-2.58-2.29-4.48-5.11-5.72-8.45v8.27c0,.55-.17,1.04-.5,1.45s-1.1,.62-2.3,.62c-.52,0-1.02-.03-1.49-.09l-.34-1.2c.7,.06,1.32,.09,1.89,.09,.63,0,1.04-.07,1.24-.21s.29-.38,.29-.73V5.64h-6.12v-1.15h6.12V.21h1.22V4.49h6.36v1.15h-6.36v1.18c.13,1.36,.54,2.76,1.23,4.2,1.42-1.05,2.64-2.24,3.64-3.57l.96,.79c-.99,1.29-2.37,2.59-4.12,3.91,.85,1.86,2.43,3.93,4.72,6.22Zm-8.95-7.37l-1.03,.74c-.74-1.31-1.75-2.61-3.02-3.9l1.01-.75c1.41,1.49,2.43,2.8,3.05,3.91Zm7.78-8.13l-.98,.83c-.58-.78-1.36-1.54-2.33-2.27l.87-.87c.93,.67,1.75,1.44,2.45,2.31Z"/>
      <path class="cls-1" d="M331.73,11.13l-.57,1.25c-3.95-.79-7.2-1.96-9.77-3.5-2.74,1.44-6.04,2.6-9.9,3.48l-.66-1.28c3.44-.63,6.54-1.63,9.32-3-1.82-1.29-3.21-2.5-4.18-3.62-1.39,1.01-2.77,1.9-4.12,2.68l-.91-.94c3.28-1.8,6.01-3.88,8.19-6.21l1.1,.67c-.41,.51-.79,.91-1.15,1.21h9.4v1.24c-1.5,1.88-3.45,3.55-5.85,5.02,2.37,1.35,5.41,2.35,9.12,3Zm-2.73,10.14h-1.32v-1.59h-12.12v1.59h-1.35V12.91h14.79v8.36Zm-1.32-2.88v-4.23h-12.12v4.23h12.12Zm-.87-15.27h-9.16c-.19,.21-.4,.41-.64,.6,1.15,1.31,2.61,2.54,4.38,3.68,2.2-1.31,4.01-2.74,5.43-4.28Z"/>
      <path class="cls-1" d="M358.24,20.26l-.86,1.08c-2.58-1.65-4.64-3.56-6.18-5.72s-2.69-4.85-3.45-8.06c-.97,5.62-4.24,10.19-9.81,13.71l-.82-1.09c1.41-.9,2.78-1.98,4.09-3.23s2.4-2.58,3.26-3.98,1.52-3.31,1.99-5.75h-8.91v-1.24h9.14c.25-1.97,.39-3.91,.41-5.84h1.37c-.08,2.09-.23,4.04-.46,5.84h9.83v1.24h-8.89c.86,3.43,2.04,6.12,3.55,8.06s3.42,3.6,5.73,4.99Z"/>
      <path class="cls-1" d="M384.62,19.51l-.64,1.08c-3.08-1.05-5.63-2.4-7.65-4.05,.13,.59,.2,1.26,.2,2,0,.7-.13,1.26-.4,1.67s-.66,.68-1.17,.8-1.38,.18-2.61,.18l-.41-1.17c.34-.02,1.04-.02,2.11-.02,.88,0,1.32-.62,1.32-1.86,0-.43-.07-.86-.2-1.28-3.16,1.91-6.8,3.14-10.95,3.69l-.64-1.08c4.41-.52,8.14-1.74,11.18-3.64-.09-.36-.27-.68-.53-.96-2.9,1.58-6.12,2.6-9.67,3.07l-.6-1.12c3.65-.36,6.82-1.29,9.53-2.79-.24-.27-.53-.49-.87-.67-2.42,1.05-4.96,1.68-7.63,1.89l-.53-1.08c2.75-.14,5.36-.75,7.83-1.82h-5.31v-1.11h14.2v1.11h-6.55c-.33,.21-.64,.39-.94,.53,.8,.5,1.51,1.27,2.12,2.3,2.12-.43,4.15-1.14,6.09-2.13l.89,.82c-1.53,.81-3.34,1.51-5.43,2.09,2.1,1.6,4.52,2.79,7.24,3.57Zm-.14-16.54h-20.84V1.8h10.01c-.16-.31-.42-.75-.79-1.32l1.12-.43c.35,.52,.67,1.11,.96,1.76h9.53v1.17Zm-.62,9.5h-1.21v-2.43h-17.06v2.47h-1.22v-3.6h19.49v3.55Zm-2.6-4.76h-14.27v-3.62h14.27v3.62Zm-1.27-1.12v-1.37h-11.81v1.37h11.81Z"/>
      <path class="cls-1" d="M410.97,13.97h-10.79v5.38c0,.14,.07,.28,.21,.42s.29,.21,.45,.21h1.88c3.46,0,5.44-.05,5.95-.16s.76-1.21,.76-3.32l1.3,.43c-.09,1.75-.29,2.86-.62,3.32s-.72,.74-1.2,.83-2.32,.14-5.54,.14c-1.42,0-2.38-.01-2.89-.04s-.9-.22-1.18-.57-.42-.73-.42-1.13v-5.5h-8.77v-1.25h8.77v-3.95c-2.1,.16-3.71,.26-4.83,.28l-.5-1.22c5.86-.22,10.18-.84,12.96-1.88l.73,1.12c-2.02,.67-4.38,1.17-7.05,1.49v4.15h10.79v1.25Zm-.84-5.04h-1.29V4.05h-16.65v4.88h-1.28V2.77h9c-.42-.87-.83-1.57-1.22-2.1l1.2-.5c.43,.64,.89,1.51,1.39,2.6h8.85v6.16Z"/>
      <path class="cls-1" d="M429.17,12.19l-.84,.91c-1.16-1.27-2.45-2.42-3.87-3.43l.89-.94c1.59,1.2,2.87,2.35,3.82,3.46Z"/>
      <path class="cls-1" d="M449.85,2.36h-2.5V19.39c0,.51-.15,.92-.46,1.24s-.76,.49-1.38,.52-1.31,.04-2.1,.01l-.33-1.29c.57,.03,1.09,.05,1.55,.05,.66,0,1.08-.06,1.25-.19s.25-.31,.25-.56V2.36h-3.75V1.1h7.46v1.25Zm13.92-.15h-5.3c-.37,1.02-.74,1.91-1.11,2.67h5.29v11.64h-7.42l.71,.77c-1.35,1.36-3.21,2.69-5.59,3.98l-.83-.98c2.16-1.09,3.95-2.35,5.39-3.77h-3.19V4.88h4.3c.48-.98,.84-1.87,1.08-2.67h-5.91V1.01h12.57v1.2Zm-2.36,6v-2.09h-8.44v2.09h8.44Zm0,3.43v-2.18h-8.44v2.18h8.44Zm0,3.68v-2.45h-8.44v2.45h8.44Zm2.29,5.11l-.77,.98c-1.11-1.03-2.66-2.14-4.65-3.32l.77-.98c1.8,1.03,3.35,2.14,4.65,3.32Z"/>
      <path class="cls-1" d="M471.92,15.55c-.46,2.35-.98,4.25-1.57,5.68l-1.17-.38c.72-1.83,1.25-3.69,1.58-5.59l1.16,.28Zm6.6-1.35l-1.08,.41c-.23-.66-.45-1.14-.66-1.46-2.02,.55-4.32,1.02-6.9,1.42l-.36-1.15c1.66-1.39,3.25-3.21,4.77-5.45-1.44,.2-2.84,.34-4.22,.41l-.29-1.12c1.83-1.91,3.36-4.29,4.58-7.14l1.18,.43c-1.11,2.55-2.44,4.73-3.98,6.53,1.16-.05,2.37-.18,3.62-.41,.7-1.06,1.29-2.05,1.78-2.98l1.17,.5c-2.25,3.91-4.44,6.87-6.57,8.88,1.37-.16,2.94-.48,4.72-.98-.33-.63-.65-1.18-.96-1.63l1.07-.48c1.07,1.66,1.78,3.06,2.13,4.22Zm-3.36,6.22l-1.2,.07c-.09-1.68-.33-3.34-.7-4.99l1.18-.09c.42,1.87,.66,3.54,.71,5.02Zm15.07-.16l-.67,.97c-1.44-.84-2.79-1.95-4.05-3.33-1.35,1.38-2.86,2.5-4.51,3.36l-.82-.98c1.52-.69,3.03-1.8,4.51-3.34-1.44-2.02-2.49-4.65-3.16-7.9-.37,4.88-1.51,8.94-3.43,12.16l-.98-.76c.4-.59,.73-1.23,1.01-1.92l-.96,.29c-.33-1.29-.74-2.41-1.24-3.36l1.1-.29c.5,.88,.91,1.9,1.22,3.07,1.53-3.36,2.32-8.77,2.36-16.22h-1.97V.77h9.5c-.38,2.34-.89,4.59-1.54,6.76h2.93c-.47,4.18-1.54,7.32-3.2,9.41,1.09,1.26,2.39,2.36,3.91,3.32Zm-3.62-18.25h-4.78c-.03,1.88-.09,3.71-.16,5.52h3.6c.61-1.98,1.06-3.82,1.35-5.52Zm1.51,6.77h-5.4c.52,2.86,1.45,5.25,2.79,7.17,1.32-1.7,2.19-4.09,2.61-7.17Z"/>
      <path class="cls-1" d="M505.12,4.46l-.89,.8c-1.27-1.55-2.46-2.75-3.57-3.59-.55,.87-1.18,1.64-1.86,2.33h4.1v1.17h-4.25v-.96c-.56,.65-1.34,1.39-2.34,2.21l-.82-.98c2.17-1.7,3.75-3.51,4.75-5.45l1.18,.39c-.02,.09-.07,.22-.15,.39,1.27,.92,2.55,2.15,3.87,3.69Zm-1.1,9.84h-5.81v5.04c1.93-.92,3.23-1.57,3.89-1.95-.18-.41-.48-.93-.91-1.56l.94-.7c.77,1.07,1.39,2.3,1.88,3.68l-.94,.71c-.12-.38-.29-.74-.48-1.08-1.88,1.02-3.68,1.92-5.4,2.71l-.62-1.15c.29-.31,.43-.65,.43-1.01V6.64h7.03v7.66Zm-1.22-4.49v-1.97h-4.59v1.97h4.59Zm0,3.23v-2.09h-4.59v2.09h4.59Zm13.75,7.42l-.76,.94c-1.67-1.02-3.07-2.19-4.18-3.5-1.31,1.27-2.8,2.36-4.46,3.26l-.81-.98c1.84-.94,3.34-2.02,4.51-3.26-1.38-2.16-2.28-5.29-2.7-9.36h-.89c-.02,3.66-.2,6.47-.53,8.41s-.96,3.68-1.88,5.21l-1.11-.57c.88-1.41,1.48-3.02,1.82-4.83s.51-4.28,.51-7.43V.77h10.2V1.97h-8.96V6.36h8.13c-.18,4.54-1.19,8.07-3.02,10.61,.99,1.25,2.38,2.42,4.15,3.5Zm-2.45-12.91h-4.75c.3,3.62,1.06,6.39,2.3,8.33,1.4-2.08,2.21-4.86,2.45-8.33Z"/>
      <path class="cls-1" d="M542.95,3.71h-17.23v7.39c0,3.94-.89,7.26-2.67,9.96l-1.05-.71c1.63-2.5,2.45-5.47,2.45-8.91V2.5h8.29c-.21-.64-.52-1.34-.94-2.09l1.34-.29c.34,.7,.71,1.49,1.09,2.38h8.73v1.22Zm-1.05,5.05h-7.61v3.81h6.96v8.7h-1.25v-1.57h-11.16v1.57h-1.28V12.57h5.47V4.88h1.25v2.66h7.61v1.23Zm-1.9,9.69v-4.58h-11.16v4.58h11.16Z"/>
      <path class="cls-1" d="M569.3,15.27h-4.32v3.69c0,.96-.23,1.58-.7,1.86s-1.29,.42-2.49,.42c-.55,0-1.15-.02-1.78-.07l-.53-1.24c.92,.02,1.66,.04,2.21,.04,.74,0,1.26-.02,1.56-.05s.45-.28,.45-.73v-3.9h-15.25v-1.21h15.25v-2.23h-13.03v-1.16h7.68v-2.16h-8.81v-1.17h8.81v-1.62h1.23v1.62h8.68v1.17h-8.68v2.16h7.63v1.16h-2.24v2.23h4.32v1.21Zm-10.63-11.67h-6.68c-.8,1.02-1.6,1.86-2.41,2.52l-.98-.86c1.66-1.2,3.01-2.92,4.05-5.17l1.24,.41c-.32,.61-.69,1.25-1.1,1.92h5.88v1.17Zm-2.91,2.57l-1.2,.5c-.37-.6-.88-1.21-1.55-1.84l1.09-.5c.52,.35,1.07,.96,1.65,1.84Zm1.9,13.14l-1.01,.79c-1.2-1.33-2.39-2.41-3.57-3.23l.97-.82c1.6,1.2,2.8,2.29,3.61,3.27Zm11.34-15.7h-7.61c-.53,.62-1.02,1.11-1.46,1.46l-.96-.71c1.39-1.24,2.38-2.64,2.98-4.18l1.18,.43c-.33,.73-.64,1.34-.94,1.83h6.81v1.17Zm-2.98,2.52l-1.2,.6c-.38-.61-.94-1.24-1.68-1.89l1.17-.57c.7,.57,1.26,1.19,1.7,1.86Z"/>
      <path class="cls-1" d="M22.01,67.65l-.29,1.28c-1.45,.04-2.82,.06-4.12,.06-2.82,0-4.83-.07-6.03-.22s-2.38-.42-3.55-.83-2.21-1.08-3.11-2.01c-1.14,1.44-2.22,2.56-3.25,3.36l-.86-.98c1.2-.94,2.26-2.04,3.19-3.32-.89-1.2-1.64-2.78-2.25-4.72l1.12-.46c.45,1.7,1.05,3.03,1.79,4.01,.84-1.75,1.32-3.8,1.42-6.15H1.63v-1.12c1.48-1.87,2.96-4.02,4.44-6.46H1.15v-1.2H7.42v1.2c-1.46,2.46-2.86,4.58-4.21,6.36H7.37c-.16,3.53-.77,6.33-1.85,8.4,.76,.77,1.61,1.38,2.56,1.82s1.96,.72,3.04,.86,3.2,.21,6.38,.21c1.58,0,3.08-.03,4.51-.08Zm-.19-13.01h-1.71v3.41h-5.47v1.99h5.95v1.17h-5.95v1.97h6.77v1.18h-6.77v2.38h-1.2v-2.38H7.49v-1.18h5.95v-1.97h-5.04v-1.17h5.04v-1.99h-4.58v-1.2h4.58v-2.21H7.51v-1.22h5.93v-2.09h-4.56v-1.18h4.56v-1.79h1.2v1.79h5.47v3.27h1.71v1.22Zm-2.93-1.22v-2.04h-4.25v2.04h4.25Zm0,3.43v-2.21h-4.25v2.21h4.25Z"/>
      <path class="cls-1" d="M37.9,51.02h-6.74c-.7,.92-1.57,1.82-2.6,2.68l-1.08-.74c1.71-1.34,3.12-2.99,4.23-4.95l1.2,.43c-.28,.49-.59,.96-.91,1.42h5.91v1.15Zm10.44,12.14h-9.8v6.02h-1.29v-6.02h-9.77v-1.12h9.77v-1.1h1.29v1.1h9.8v1.12Zm-13.03,1.97c-1.76,1.23-4.07,2.41-6.94,3.53l-.87-1.08c2.77-.96,5.08-2.06,6.94-3.3l.87,.86Zm1.39-9.74h-3.46v3.5c.82-.13,1.96-.39,3.43-.77v1.18c-2.98,.7-5.77,1.25-8.36,1.68l-.34-1.1,3.98-.73v-3.76h-3.5v-1.16h8.24v1.16Zm-1.25-2.13l-1.08,.55c-.55-.83-1.06-1.47-1.54-1.92l1.1-.53c.71,.73,1.21,1.36,1.51,1.9Zm12.98,4.38c0,.91-.18,1.59-.54,2.06s-1.01,.7-1.95,.7c-1.3,0-1.95-.46-1.95-1.37v-3.6h-2.32c-.11,1.02-.32,1.82-.63,2.43,.62,.37,1.3,.89,2.06,1.58l-.83,.74c-.6-.52-1.23-1-1.88-1.43-.72,.76-1.54,1.32-2.45,1.7l-1.01-.89c1.09-.41,1.92-.89,2.47-1.44-.77-.48-1.41-.84-1.92-1.08l.82-.84c.54,.27,1.11,.59,1.72,.98,.25-.52,.39-1.1,.41-1.75h-2.61v-1.12h7.39v4.51c0,.27,.27,.4,.82,.4,.49,0,.81-.18,.96-.55s.22-.85,.22-1.44l1.22,.41Zm-.05-6.62h-7.35c-.96,1.13-1.88,2.02-2.75,2.66l-1.1-.74c1.8-1.33,3.28-2.94,4.43-4.83l1.16,.48c-.29,.48-.58,.91-.87,1.28h6.48v1.15Zm.09,16.8l-.83,.94c-1.89-1.25-4.18-2.4-6.87-3.46l.87-.98c2.7,1.12,4.97,2.29,6.83,3.5Zm-3.39-14.36l-1.1,.5c-.43-.88-.88-1.57-1.34-2.09l1.15-.43c.59,.65,1.02,1.32,1.29,2.02Z"/>
      <path class="cls-1" d="M61.68,59.09c-.9,.32-1.96,.66-3.2,1.01v7.37c0,.46-.13,.83-.4,1.11s-.68,.43-1.25,.47-1.05,.05-1.46,.05l-.61-.02-.34-1.27c1.02,.05,1.72,.07,2.12,.07,.18,0,.34-.07,.47-.21s.2-.3,.2-.5v-6.64c-1.46,.41-2.51,.7-3.14,.87l-.27-1.21c.83-.2,1.96-.51,3.41-.93v-5.77h-3.07v-1.22h3.07v-4.07h1.27v4.07h2.81v1.22h-2.81v5.33c.95-.26,1.93-.58,2.95-.96l.25,1.22Zm13.08-2.82h-10.32c-.52,0-.94-.16-1.24-.48s-.46-.71-.46-1.18v-6.39h1.24v2.31h9.89v1.23h-9.89v2.64c0,.16,.07,.32,.22,.46s.3,.21,.46,.21h10.1v1.21Zm-1.3,12.93h-1.22v-1.34h-8.11v1.34h-1.28v-10.86h10.61v10.86Zm-1.22-6.81v-2.79h-8.11v2.79h8.11Zm0,4.24v-3.05h-8.11v3.05h8.11Z"/>
      <path class="cls-1" d="M99.65,69.21h-1.28v-1.56h-11.34v1.58h-1.32v-8.32c-1.86,.68-3.39,1.19-4.58,1.54l-.73-1.17c3.76-1.02,6.96-2.24,9.61-3.68-.96-1.38-2.29-2.8-3.98-4.24-1.21,.79-2.56,1.56-4.05,2.32l-1.03-1.03c3.62-1.55,6.65-3.75,9.09-6.57l1.24,.57c-.34,.42-.78,.89-1.31,1.39h9.33v1.05c-2.6,3.5-6.11,6.35-10.54,8.54h10.9v9.57Zm-1.28-2.8v-5.5h-11.34v5.5h11.34Zm-.96-15.07h-8.75c-.54,.46-1.07,.89-1.61,1.29,1.56,1.39,2.92,2.82,4.08,4.28,2.53-1.61,4.62-3.46,6.28-5.57Z"/>
      <path class="cls-1" d="M113.54,53.73h-2.57v4.66c.8-.34,1.55-.72,2.27-1.16l.27,1.28c-.96,.51-1.81,.91-2.54,1.22v7.55c0,.78-.23,1.29-.69,1.53s-1.05,.36-1.78,.36h-1.08l-.46-1.17,2.18-.05c.4,0,.6-.21,.6-.62v-7.03c-.75,.38-1.64,.72-2.66,1.01l-.36-1.09c.95-.34,1.95-.75,3.02-1.22v-5.26h-3.12v-1.2h3.12v-4.37h1.23v4.37h2.57v1.2Zm14.29,13.35l-.82,1.1c-2.59-1.98-4.61-4.23-6.05-6.74v7.79h-1.28v-7.68c-1.43,2.41-3.57,4.6-6.43,6.55l-.86-1.01c3.1-2.01,5.27-4.21,6.5-6.6h-5.21v-1.17h6v-2.33h1.28v2.33h6.62v1.17h-5.71c1.23,2.42,3.22,4.61,5.95,6.57Zm-1.44-17.98c-2.95,1.2-6.94,1.93-11.95,2.17l-.55-1.16c4.92-.21,8.86-.9,11.82-2.06l.68,1.05Zm-9,7.63l-1.09,.54c-.56-1.45-1.21-2.77-1.93-3.96l1.03-.66c.84,1.34,1.5,2.7,1.99,4.08Zm4.24-1.01l-1.17,.39c-.3-1.3-.75-2.6-1.35-3.89l1.1-.47c.61,1.26,1.08,2.58,1.42,3.97Zm5.52-3.74c-.65,1.96-1.46,3.7-2.45,5.23l-1.15-.42c1.02-1.73,1.82-3.46,2.4-5.21l1.2,.41Z"/>
      <path class="cls-1" d="M152.88,67.49c0,.65-.23,1.1-.7,1.36s-1.51,.39-3.13,.39c-.37,0-.72,0-1.07-.02l-.39-1.31c.59,.05,1.17,.07,1.73,.07,1.14,0,1.8-.05,1.99-.14s.28-.25,.28-.46v-5.79h-6.79v7.03h-1.3v-7.03h-6.84c-.38,3.29-1.21,5.81-2.47,7.56l-1.12-.79c1.62-2.39,2.43-5.27,2.43-8.65v-11.02h17.38v18.8Zm-9.36-13.12v-4.37h-6.71v4.37h6.71Zm0,5.98v-4.66h-6.71v4.66h6.71Zm8.09-5.98v-4.37h-6.79v4.37h6.79Zm0,5.98v-4.66h-6.79v4.66h6.79Z"/>
      <path class="cls-1" d="M169.59,60.94c-.58-.3-.87-.69-.87-1.16,0-.23,.1-.46,.29-.7s.47-.36,.83-.36c.75,0,1.12,.49,1.12,1.48,0,.8-.47,1.58-1.42,2.33l-.5-.39c.36-.48,.54-.88,.54-1.21Z"/>
      <path class="cls-1" d="M194.14,65.57c-1.38,1.33-3.87,2.63-7.46,3.91l-.77-1.1c3.38-1.12,5.81-2.33,7.28-3.62l.96,.81Zm12.71-1.77h-20.88v-1.21h3.8v-10.54h-3.55v-1.2h3.55v-2.5h1.3v2.5h10.63v-2.5h1.29v2.5h3.43v1.2h-3.43v10.54h3.87v1.21Zm-5.16-9.22v-2.52h-10.63v2.52h10.63Zm0,4.01v-2.88h-10.63v2.88h10.63Zm0,4.01v-2.82h-10.63v2.82h10.63Zm5.18,5.84l-.76,1.05c-1.98-1.28-4.48-2.49-7.49-3.62l.6-1.03c3.34,1.23,5.89,2.43,7.65,3.6Z"/>
      <path class="cls-1" d="M219.88,64.03c-1.8,1.52-4.08,2.77-6.83,3.75l-.8-1.07c3.11-1.15,5.32-2.32,6.62-3.5l1.01,.82Zm12.68-1.85l-1.08,.73c-.37-.56-.84-1.19-1.42-1.88-3.11,.33-5.26,.54-6.46,.64v6.08c0,.35-.12,.65-.35,.89s-.5,.39-.79,.46-.82,.09-1.61,.09c-.44,0-.84-.01-1.22-.04l-.53-1.27c.45,.02,.91,.04,1.39,.04,.82,0,1.32-.02,1.51-.06s.28-.22,.28-.55v-5.52c-3.52,.22-6.16,.36-7.95,.42l-.38-1.05c2.93-1.06,5.81-2.35,8.64-3.86-2.77,.16-5.25,.27-7.42,.33l-.32-.88c3.62-1.32,6.52-2.98,8.7-4.97l1.2,.69c-1.66,1.44-3.65,2.73-5.98,3.87,.78-.03,1.53-.06,2.24-.1s1.42-.08,2.1-.13c1.32-.11,2.05-.21,2.19-.29,1.03-.65,2.03-1.35,2.99-2.1l1.11,.77c-2.57,1.98-6.43,4.11-11.58,6.41,3.88-.14,7.62-.45,11.24-.91-.37-.42-.98-1-1.83-1.75l1.08-.73c1.8,1.62,3.2,3.18,4.21,4.65Zm-7.32-13.38c-2.23,2.02-5.59,3.62-10.08,4.79l-.96-1.1c4.46-.97,7.78-2.43,9.96-4.39l1.08,.7Zm7.92,18l-.82,1.03c-1.73-1.43-3.74-2.68-6.05-3.75l.82-1.01c2.3,1.09,4.31,2.34,6.05,3.73Z"/>
      <path class="cls-1" d="M250.95,50.09h-5.79c-.34,1.59-.75,3.02-1.22,4.28h6.12c-.33,4.73-1.47,8.14-3.42,10.22s-4.42,3.63-7.41,4.65l-.71-1.08c3.47-1.2,6.09-2.95,7.85-5.27-1.24-1.39-2.75-2.77-4.51-4.12-.77,1.12-1.59,2.08-2.45,2.89l-.84-.94c2.52-2.26,4.27-5.8,5.23-10.63h-4.27l-.02-1.24h11.45v1.24Zm-2.26,5.54h-5.2c-.34,.84-.65,1.52-.91,2.04,1.32,1.03,2.81,2.38,4.46,4.03,.87-1.61,1.42-3.63,1.65-6.07Zm4.97,9.27h-1.22v-14.95h1.22v14.95Zm5.21,2.4c0,.53-.14,.97-.43,1.31s-.59,.55-.92,.63-1.08,.12-2.25,.12c-.59,0-1.18-.01-1.76-.04l-.46-1.37c.69,.09,1.47,.13,2.34,.13,1.05,0,1.68-.06,1.89-.18s.3-.33,.3-.64v-18.96h1.28v19.01Z"/>
      <path class="cls-1" d="M286.01,58.1h-17.64v2.38c0,4.08-.82,7.03-2.47,8.86l-.87-.87c.67-.82,1.19-1.83,1.56-3.04s.55-2.37,.55-3.49v-5.04h18.87v1.2Zm-.6-6.62h-3.67c-.82,.96-1.68,1.73-2.58,2.31,2.05,.53,3.76,1.07,5.12,1.61l-.68,.98c-1.84-.72-3.81-1.33-5.93-1.83-2.41,1.02-5.25,1.58-8.52,1.68l-.42-1.1c3.09-.23,5.43-.58,7.01-1.05-1.88-.43-3.75-.79-5.62-1.08l.55-.98c2.49,.39,4.77,.85,6.84,1.37,.99-.52,1.85-1.16,2.57-1.9h-13.72v-1.17h9c-.22-.52-.56-1.08-1.03-1.66l1.12-.5c.56,.77,.98,1.49,1.27,2.17h8.7v1.17Zm.39,17.16h-17.24v-1.15h8.26v-2.26h-5.86v-1.17h5.86v-2.11h-5.14c-.55,.74-1.17,1.41-1.86,1.99l-.75-1.01c1.23-1.04,2.27-2.41,3.14-4.12l1.16,.38c-.31,.64-.61,1.18-.89,1.62h4.35v-1.97h1.2v1.97h6.6v1.15h-6.6v2.11h6.09v1.17h-6.09v2.26h7.78v1.15Z"/>
      <path class="cls-1" d="M300.55,69.19h-1.24v-1.7h-5.31v1.7h-1.29v-10.51h7.84v10.51Zm-1.27-2.92v-6.34h-5.29v6.34h5.29Zm10.08-10.32h-14.13v-7.12h14.13v7.12Zm-1.25-1.2v-4.71h-11.61v4.71h11.61Zm3.18,14.44h-1.28v-1.7h-5.34v1.7h-1.28v-10.51h7.9v10.51Zm-1.28-2.92v-6.34h-5.34v6.34h5.34Z"/>
      <path class="cls-1" d="M326.4,51.89h-8.5v-1.25h3.75c-.21-.7-.53-1.4-.96-2.11l1.1-.5c.48,.77,.87,1.64,1.17,2.61h3.43v1.25Zm-.67,7.01h-7.37v-1.21h7.37v1.21Zm.02-3.53h-7.37v-1.21h7.37v1.21Zm-.36,13.34h-1.24v-1.31h-4.35v1.77h-1.24v-7.99h6.83v7.54Zm-1.24-2.54v-3.71h-4.35v3.71h4.35Zm14.64,2.1l-.71,1.03c-2.43-.8-4.3-1.73-5.62-2.77-1.54,1.09-3.46,1.97-5.75,2.64l-.75-1.03c2.41-.71,4.23-1.53,5.45-2.45-1.66-1.52-2.86-3.56-3.62-6.12h-.82v-1.22h10.05v1.22c-1.03,2.8-2.23,4.85-3.6,6.14,1.36,.98,3.15,1.83,5.38,2.55Zm-.09-11.33h-2.33c-1.15,0-1.72-.55-1.72-1.65v-5.17h-4.23c-.04,2.21-.33,3.85-.88,4.93s-1.31,1.92-2.28,2.54l-.94-.87c.95-.6,1.69-1.43,2.2-2.48s.75-2.82,.71-5.31h6.62v6c0,.54,.27,.81,.8,.81h2.06v1.21Zm-3.05,2.64h-6.6c.83,2.36,1.95,4.14,3.38,5.33,1.43-1.32,2.5-3.1,3.22-5.33Z"/>
      <path class="cls-1" d="M354.26,52.35h-9.94v-1.25h4.54c-.35-.81-.83-1.67-1.43-2.57l1.2-.48c.53,.73,1.07,1.75,1.63,3.05h4.01v1.25Zm-1.22,3.43h-7.61v-1.21h7.61v1.21Zm0,3.38h-7.61v-1.17h7.61v1.17Zm0,9.84h-1.23v-1.17h-5.13v1.36h-1.24v-7.72h7.61v7.54Zm-1.23-2.45v-3.89h-5.13v3.89h5.13Zm13.44-10.17h-4.79v12.86h-1.3v-12.86h-4.78v-1.28h4.78v-6.83h1.3v6.83h4.79v1.28Z"/>
      <path class="cls-1" d="M378.46,64.99c-1.34,1.24-3.62,2.51-6.87,3.8l-.84-1.11c2.78-.92,5.05-2.1,6.82-3.53l.89,.84Zm12.86-2.29h-9.53v6.5h-1.29v-6.5h-9.55v-1.17h9.55v-2.06h1.29v2.06h9.53v1.17Zm-10.75-7.41l-.77,.9c-1.38-1.16-2.61-2.02-3.67-2.57-.73,1.15-2.08,2.09-4.05,2.81l-.74-1.08c1.07-.35,1.99-.79,2.75-1.3s1.26-1.18,1.5-2,.36-2.07,.36-3.75h1.2c.02,.56-.02,1.39-.12,2.5,.89-.42,1.82-1.04,2.78-1.85l.75,.98c-1.07,.9-2.33,1.68-3.77,2.33l-.07,.28c1.75,1.06,3.04,1.98,3.87,2.74Zm-6.39-3.59l-1.05,.63c-.3-.73-.86-1.71-1.68-2.95l1.01-.57c.73,.84,1.3,1.8,1.72,2.89Zm16.54,8.79h-1.22v-2.11h-16.73v2.11h-1.27v-3.32h19.22v3.32Zm.39-5.11l-.74,.94c-1.3-.95-2.79-1.81-4.46-2.6-.86,1.01-2.21,1.86-4.05,2.55l-.73-1.03c1.91-.77,3.16-1.54,3.77-2.33s.89-2.31,.83-4.59h1.23c.02,.81-.02,1.68-.12,2.61,.9-.39,2.04-1.1,3.42-2.13l.8,.86c-1.26,1.06-2.73,1.95-4.42,2.65-.06,.17-.11,.29-.14,.35,1.99,.99,3.53,1.9,4.61,2.72Zm-6.82-3.68l-1.05,.56c-.46-1.1-1-2.09-1.61-2.98l1.03-.66c.59,.9,1.14,1.92,1.63,3.07Zm7.23,16.16l-.77,.96c-1.6-1.17-3.89-2.39-6.88-3.66l.93-1.01c3.3,1.57,5.54,2.8,6.73,3.7Z"/>
      <path class="cls-1" d="M403.95,48.75c-.62,1.23-1.5,2.57-2.64,4.03,.93,2.02,1.39,5.12,1.39,9.32,0,2.89-.24,4.81-.71,5.77s-1.27,1.43-2.39,1.43h-1.31l-.32-1.21h1.46c.34,0,.69-.09,1.03-.28s.59-.79,.75-1.82,.23-2.14,.23-3.35c0-.83-.04-2.02-.12-3.56-1.11,1.72-2.3,3.21-3.57,4.49l-.77-.94c1.52-1.48,2.92-3.32,4.2-5.52-.15-1.22-.4-2.32-.76-3.3-.88,.86-1.74,1.52-2.59,1.99l-.96-.87c1.11-.56,2.12-1.35,3.02-2.36-.49-1.03-1.33-2.15-2.52-3.36l.76-.93c1.02,.99,1.89,2.09,2.6,3.28,.71-.91,1.43-2.07,2.16-3.48l1.05,.66Zm13.63,12.9h-12.74v-5.32c-.59,.5-1,.84-1.23,1.01l-.64-.91c1.29-.96,2.48-2.41,3.57-4.35l1.01,.57c-.13,.27-.29,.53-.46,.77h3.75c-.21-.48-.41-.87-.6-1.17l1.22-.29,.69,1.46h5.21v1.05h-5.43v1.3h5.13v1.1h-5.13v1.29h5.13v1.05h-5.13v1.32h5.64v1.1Zm.55,6.57l-.48,.96c-2.14-.25-4.29-.75-6.46-1.51-1.96,.78-4.42,1.33-7.38,1.64l-.48-.98c2.59-.22,4.75-.64,6.48-1.25-1.72-.88-3.05-1.88-4.01-3h-1.28v-1.05h11.95l-.02,1.05c-1.3,1.41-2.59,2.41-3.89,3,1.55,.53,3.41,.91,5.57,1.15Zm-8.45-16.34h-1.12v-1.1h-4.44v-1.11h4.44v-1.41h1.12v3.62Zm1.09,3.89v-1.3h-4.35l-.39,.46v.84h4.73Zm0,2.39v-1.29h-4.73v1.29h4.73Zm0,2.38v-1.32h-4.73v1.32h4.73Zm4.2,3.53h-7.76c.84,.88,2.16,1.71,3.96,2.5,1.65-.71,2.91-1.54,3.8-2.5Zm3.05-13.29h-4.39v1.1h-1.2v-3.62h1.2v1.41h4.39v1.11Z"/>
      <path class="cls-1" d="M441.48,51.23c-3.72,4.37-9.55,7.19-17.5,8.47l-.57-1.27c3.64-.48,6.7-1.27,9.19-2.36-.97-1.02-2.34-2.17-4.12-3.46-1.23,.69-2.52,1.29-3.87,1.8l-.76-1.1c3.88-1.45,6.72-3.2,8.52-5.24l1.28,.48c-.45,.63-.97,1.18-1.55,1.63h9.39v1.03Zm2.7,8.62c0,.24-.44,.95-1.32,2.13-.48,.64-1.01,1.24-1.59,1.79s-1.2,1.06-1.88,1.54-1.47,.95-2.4,1.42-2.06,.9-3.41,1.3-2.73,.7-4.14,.9-2.75,.3-4.02,.3l-.6-1.29c4.3,0,7.96-.66,10.99-1.97-1.01-1.21-2.41-2.49-4.21-3.84-1.5,.79-3.3,1.42-5.41,1.9l-.7-1.2c5.08-.94,9.02-3.11,11.81-6.53l1.2,.5c-.55,.66-1.14,1.3-1.77,1.91h7.44v1.14Zm-4.57-8.43h-9.12c-.17,.15-.45,.33-.83,.55,1.46,1.05,2.84,2.23,4.15,3.53,2.17-1.03,4.11-2.39,5.8-4.08Zm3.08,8.52h-7.39c-.71,.55-1.52,1.07-2.43,1.58,1.45,1.12,2.84,2.38,4.17,3.8,2.57-1.4,4.45-3.19,5.65-5.38Z"/>
      <path class="cls-1" d="M469.73,69.23h-1.2v-1.68h-16.28v1.63h-1.25v-20.47h18.73v20.52Zm-1.2-2.87v-16.46h-16.28v16.46h16.28Zm-7.92-3.68c-3.02,.87-5.43,1.42-7.23,1.66l-.16-1.18c1.92-.23,4.35-.76,7.29-1.61l.11,1.12Zm7.12-.64c-.2,.84-.47,1.58-.8,2.2s-.6,1-.8,1.15-.49,.22-.85,.22c-.73,0-1.48-.83-2.23-2.48-.8,.95-1.68,1.79-2.62,2.52l-.96-.86c1.01-.66,2.01-1.65,3-2.95-.78-2.26-1.26-4.77-1.43-7.54h-7.8v-1.14h7.7c-.04-.75-.05-1.59-.02-2.52h1.21c-.02,.69,0,1.53,.05,2.52h5.3v1.14h-5.25c.2,2.59,.55,4.69,1.08,6.3,.88-1.39,1.67-3.02,2.38-4.88l1.1,.48c-.8,2.06-1.79,3.98-2.95,5.77,.27,.68,.54,1.23,.83,1.66s.49,.64,.61,.64c.38,0,.84-.95,1.39-2.86l1.08,.62Zm-8.18-1.22h-5.21v-4.64h5.21v4.64Zm-1.21-1.21v-2.27h-2.8v2.27h2.8Zm7.8-7.34l-1.05,.5c-.33-.57-.74-1.12-1.23-1.64l1.03-.57c.52,.53,.94,1.1,1.25,1.71Z"/>
      <path class="cls-1" d="M484.8,51.89h-8.5v-1.25h3.75c-.21-.7-.53-1.4-.96-2.11l1.1-.5c.48,.77,.87,1.64,1.17,2.61h3.43v1.25Zm-.67,7.01h-7.37v-1.21h7.37v1.21Zm.02-3.53h-7.37v-1.21h7.37v1.21Zm-.36,13.34h-1.24v-1.31h-4.35v1.77h-1.24v-7.99h6.83v7.54Zm-1.24-2.54v-3.71h-4.35v3.71h4.35Zm14.64,2.1l-.71,1.03c-2.43-.8-4.3-1.73-5.62-2.77-1.54,1.09-3.46,1.97-5.75,2.64l-.75-1.03c2.41-.71,4.23-1.53,5.45-2.45-1.66-1.52-2.86-3.56-3.62-6.12h-.82v-1.22h10.05v1.22c-1.03,2.8-2.23,4.85-3.6,6.14,1.36,.98,3.15,1.83,5.38,2.55Zm-.09-11.33h-2.33c-1.15,0-1.72-.55-1.72-1.65v-5.17h-4.23c-.04,2.21-.33,3.85-.88,4.93s-1.31,1.92-2.28,2.54l-.94-.87c.95-.6,1.69-1.43,2.2-2.48s.75-2.82,.71-5.31h6.62v6c0,.54,.27,.81,.8,.81h2.06v1.21Zm-3.05,2.64h-6.6c.83,2.36,1.95,4.14,3.38,5.33,1.43-1.32,2.5-3.1,3.22-5.33Z"/>
      <path class="cls-1" d="M512.66,52.35h-9.94v-1.25h4.54c-.35-.81-.83-1.67-1.43-2.57l1.2-.48c.53,.73,1.07,1.75,1.63,3.05h4.01v1.25Zm-1.22,3.43h-7.61v-1.21h7.61v1.21Zm0,3.38h-7.61v-1.17h7.61v1.17Zm0,9.84h-1.23v-1.17h-5.13v1.36h-1.24v-7.72h7.61v7.54Zm-1.23-2.45v-3.89h-5.13v3.89h5.13Zm13.44-10.17h-4.79v12.86h-1.3v-12.86h-4.78v-1.28h4.78v-6.83h1.3v6.83h4.79v1.28Z"/>
      <path class="cls-1" d="M549.91,63.71h-20.84v-1.22h1.8l-.09-12.48c1.27-.25,2.86-.83,4.77-1.75l.6,1.08c-1.28,.62-2.66,1.15-4.15,1.61-.03,1.05-.03,1.96,0,2.75h3.64v1.18h-3.62c.03,1.07,.03,2.12,0,3.14h3.46v1.23h-3.41v3.23h14.84c.05-1.87,.07-2.96,.07-3.27h-3.29v-1.2h3.32c.02-.51,.02-1.55,.02-3.14h-3.32v-1.21h3.32c.05-.66,.07-1.34,.07-2.06,0-.4,0-.77-.02-1.1h-3.26v-1.17h4.54c-.09,6.32-.18,10.7-.25,13.15h1.8v1.22Zm-12.82,1.9c-2.06,1.54-4.33,2.75-6.81,3.62l-.89-1.05c2.67-.84,4.9-1.95,6.69-3.33l1.01,.76Zm1.32-9.41c-.36,2.42-1.05,4.34-2.06,5.74l-1.03-.8c1.01-1.24,1.66-2.98,1.95-5.23l1.15,.28Zm4.24-5.2h-4.12c-.13,.95-.26,1.8-.39,2.54h4.37c-.11,4.27-.35,6.73-.72,7.38s-1.03,.97-1.96,.97c-.5,0-.84,0-1.01-.02l-.41-1.23c.56,.03,1,.05,1.32,.05,.64,0,1.04-.25,1.19-.75s.28-2.24,.39-5.23h-4.64c.27-1.38,.61-3.58,1.03-6.62l1.16,.12c-.05,.52-.12,1.06-.2,1.64h3.98v1.15Zm6.98,17.18l-.9,.87c-1.97-1.29-4.16-2.42-6.59-3.39l.87-.9c2.86,1.22,5.07,2.36,6.62,3.42Z"/>
      <path class="cls-1" d="M576.41,64.88h-5.06v2.34c0,1.34-.75,2.02-2.24,2.02-.59,0-1.33-.02-2.23-.05l-.57-1.2c.51,.02,1.14,.04,1.89,.04,.94,0,1.48-.04,1.64-.13s.23-.25,.23-.48v-2.54h-14.52v-1.12h14.52v-1.21h1.28v1.21h5.06v1.12Zm-.32-14.02h-9.45v1.65h7.58v6.53h-1.25c1.14,.99,2.12,2.07,2.93,3.22l-1.01,.69c-.44-.64-.82-1.12-1.15-1.44-6.45,.49-12.25,.75-17.4,.77l-.32-1.11c2.91,.02,6.04-.04,9.36-.19v-1.95h-7.63v-6.53h7.63v-1.65h-9.53v-1.1h9.53v-1.49h1.25v1.49h9.45v1.1Zm-10.7,4.34v-1.61h-6.39v1.61h6.39Zm0,2.77v-1.7h-6.39v1.7h6.39Zm-1.56,9.64l-.8,.96c-1.13-.97-2.31-1.76-3.53-2.38l.8-.93c1.12,.53,2.29,1.31,3.53,2.34Zm9.16-12.41v-1.61h-6.35v1.61h6.35Zm0,2.77v-1.7h-6.35v1.7h6.35Zm-.28,2.52c-.45-.45-.74-.73-.89-.84l.79-.6h-5.96v1.88c2.52-.13,4.54-.28,6.07-.43Z"/>
      <path class="cls-1" d="M13.2,109.72l-.74,1.04c-1.62-1.8-3.11-3.2-4.46-4.21v10.63h-1.24v-10.91c-1.67,2.89-3.32,5.14-4.95,6.74l-.77-1.03c.75-.75,1.49-1.6,2.21-2.56s1.49-2.14,2.3-3.56,1.21-2.16,1.21-2.24v-.16H1.17v-1.2H6.75v-3.48c-1.45,.23-2.93,.43-4.44,.57l-.48-1.25c3.85-.32,7.11-.96,9.76-1.92l.8,1.16c-1.34,.45-2.8,.84-4.39,1.15v3.77h4.68v1.2H7.99v1.58c1.73,1.23,3.47,2.79,5.2,4.68Zm2.77,3.08h-1.25v-14.88h1.25v14.88Zm5.45,2.04c0,1.01-.28,1.65-.84,1.92s-1.46,.41-2.69,.41h-1.85l-.5-1.32c1.17,.05,2.1,.07,2.79,.07,.62,0,1.02,0,1.2-.03s.33-.11,.46-.28,.19-.34,.19-.54v-18.84h1.25v18.61Z"/>
      <path class="cls-1" d="M48.5,116.26l-.86,1.08c-2.58-1.65-4.64-3.56-6.18-5.72s-2.69-4.85-3.45-8.06c-.97,5.62-4.24,10.19-9.81,13.71l-.82-1.09c1.41-.9,2.78-1.98,4.09-3.23s2.4-2.58,3.26-3.98,1.52-3.31,1.99-5.75h-8.91v-1.24h9.14c.25-1.97,.39-3.91,.41-5.84h1.37c-.08,2.09-.23,4.04-.46,5.84h9.83v1.24h-8.89c.86,3.43,2.04,6.12,3.55,8.06s3.42,3.6,5.73,4.99Z"/>
      <path class="cls-1" d="M74.78,116.14l-.61,1.16c-4.65-.8-7.94-2.61-9.88-5.43-1.02,1.59-2.48,2.84-4.37,3.75-1.41,.68-3.25,1.23-5.5,1.64l-.57-1.15c2.17-.39,3.89-.86,5.17-1.41,1.86-.8,3.22-1.9,4.09-3.3h-8.81v-1.14h9.36c.23-.72,.38-1.39,.47-2.03l1.18,.18c-.12,.7-.26,1.31-.43,1.85h9.41v1.14h-8.93c1.91,2.54,5.05,4.12,9.42,4.73Zm-13.97-7.63h-1.16v-4.64h-2.67c-.12,1.88-.83,3.33-2.11,4.34l-.9-.74c1.2-1.09,1.8-2.29,1.83-3.6h-1.59v-1.15h5.45v-2.18h-4.31v-3.81h1.18v2.66h3.13v-3.16h1.16v12.28Zm12.88-10.68l-.07,1.04c-3.09,2.27-6.9,3.55-11.44,3.84l-.54-1.04c2.3-.11,4.38-.46,6.25-1.07-.75-.67-1.68-1.32-2.8-1.93-.64,.23-1.63,.57-2.98,1.01l-.61-1c2.77-.78,4.86-1.63,6.27-2.55l1.09,.63c-.18,.14-.44,.3-.77,.48l5.6,.59Zm1.02,6.84h-2.3v2.02c0,1-.45,1.54-1.36,1.63-.62,.05-1.34,.06-2.17,.02l-.36-1.04c.46,.02,1.13,0,2.02-.02,.18,0,.34-.08,.47-.23s.2-.3,.2-.47v-1.9h-9.35v-1.12h9.35v-1.92h1.21v1.92h2.3v1.12Zm-9.27-4.27c-.86,.24-1.64,.43-2.34,.55l-.36-.84c.84-.14,1.68-.33,2.5-.57l.21,.87Zm2.06,6.41l-.68,.82c-.88-.62-1.91-1.19-3.09-1.69l.61-.93c1.07,.45,2.12,1.04,3.16,1.79Zm4.34-8.02l-5.46-.59c.82,.47,1.73,1.13,2.72,1.98,1.18-.5,2.09-.96,2.74-1.39Zm2.65,10.08l-.59,.89c-.5-.38-1.09-.71-1.76-1.01l.56-.9c.66,.24,1.25,.58,1.78,1.02Z"/>
      <path class="cls-1" d="M90.39,108.94c-.58-.3-.87-.69-.87-1.16,0-.23,.1-.46,.29-.7s.47-.36,.83-.36c.75,0,1.12,.49,1.12,1.48,0,.8-.47,1.58-1.42,2.33l-.5-.39c.36-.48,.54-.88,.54-1.21Z"/>
      <path class="cls-1" d="M120.68,101.11l-.66,1.1c-1.75-1.7-3.74-3.23-5.96-4.61-.54,.62-1.42,1.44-2.65,2.44h5.39v1.09h-5.48v-1.02c-1.46,1.08-2.8,1.95-4.01,2.62l-.66-1.08c3.11-1.68,5.48-3.56,7.11-5.64l1.32,.33c-.05,.12-.12,.21-.2,.28,2.35,1.57,4.28,3.06,5.79,4.48Zm-1.56,16.1h-1.16v-1.22h-6.94v1.22h-1.2v-5.27c-.38,2.23-1.11,3.96-2.19,5.21l-.89-.79c1.49-2.28,2.24-5.06,2.24-8.33v-5.51h10.14v6.66h-8.94c-.02,.41-.08,1.01-.19,1.82h9.13v6.21Zm-1.18-11.95v-1.57h-7.7v1.57h7.7Zm0,2.79v-1.64h-7.7v1.64h7.7Zm.02,6.81v-2.72h-6.94v2.72h6.94Zm9.09,.28c0,.55-.14,1-.43,1.35-.33,.38-.79,.6-1.37,.66-.69,.03-1.39,.05-2.1,.06h-.95l-.46-1.3c1.04,.03,2.15,.02,3.34-.02,.2,0,.38-.11,.53-.3s.22-.38,.22-.58v-18.76h1.22v18.9Zm-4.04-2.37h-1.2s0-15.42,0-15.42h1.2v15.42Z"/>
      <path class="cls-1" d="M136.68,110.38c-.75,1.91-1.66,3.55-2.73,4.92l-1.05-.73c.9-1.08,1.79-2.66,2.68-4.75l1.1,.55Zm7.32-1.92h-4.85v8.81h-1.2v-8.81h-4.9v-1.15h4.9v-2.36h-4.63v-1.2h2.93c-.14-.75-.56-1.94-1.25-3.56l.84-.57h-2.36v-1.24h4.42c-.23-.55-.57-1.13-1.01-1.73l1.15-.5c.38,.52,.79,1.27,1.23,2.24h4.2v1.24h-1.92l.89,.55c-.29,.88-.79,2.08-1.49,3.59h2.79v1.2h-4.59v2.36h4.85v1.15Zm-2.81-8.84h-4.99c.64,1.56,1.1,2.94,1.37,4.14h2.02c.68-1.34,1.21-2.72,1.61-4.14Zm2.1,13.44l-1.11,.67c-.37-.98-.92-2.11-1.65-3.4l1.01-.57c.67,1.02,1.26,2.12,1.76,3.3Zm10.54-7.88h-2.59v12.11h-1.23v-12.11h-3.57c0,5.35-1.02,9.41-3.05,12.18l-1.01-.77c1.04-1.55,1.78-3.12,2.22-4.73s.66-3.73,.66-6.38v-7.2c3.02-.41,5.48-1.1,7.38-2.05l.94,.98c-2.12,.98-4.5,1.68-7.12,2.1v4.68h7.37v1.2Z"/>
      <path class="cls-1" d="M169.13,97.05c-1.02,.46-2.27,.87-3.73,1.23v3.83h3.55v1.23h-3.55v1.22c1.51,1.48,2.69,2.85,3.55,4.12l-.89,1.01c-.73-1.16-1.61-2.3-2.66-3.42v10.86h-1.22v-11.25c-1.02,2.05-2.32,4.07-3.89,6.05l-.87-1.05c2.1-2.43,3.64-4.94,4.63-7.54h-4.54v-1.23h4.66v-3.5c-.67,.15-1.83,.36-3.48,.62l-.68-1.2c3.15-.34,5.91-1.01,8.29-1.99l.82,1.01Zm11.41,13.71l-2.45,.38v6.02h-1.27v-5.82l-7.9,1.2-.09-1.24,7.99-1.23v-13.88h1.27v13.64l2.4-.32,.05,1.25Zm-5.71-3.11l-.87,.96c-1.01-1.38-2.48-2.79-4.42-4.22l.8-.96c1.87,1.34,3.36,2.75,4.49,4.22Zm.55-6.46l-.76,1.07c-1.33-1.45-2.76-2.7-4.3-3.73l.71-.96c1.48,.93,2.93,2.14,4.35,3.62Z"/>
      <path class="cls-1" d="M193.66,106.63c-.92,.41-1.93,.83-3.02,1.25v7.72c0,.45-.18,.85-.54,1.18s-1.37,.47-3.04,.43l-.5-1.34c.48,.02,.94,.04,1.37,.04,.67,0,1.09-.05,1.24-.15s.23-.27,.23-.51v-6.91c-.87,.3-1.93,.62-3.19,.98l-.43-1.14c1.34-.4,2.54-.78,3.62-1.15v-5.4h-3.43v-1.24h3.43v-4.23h1.23v4.23h2.71v1.24h-2.71v4.9c.67-.2,1.56-.55,2.66-1.05l.36,1.15Zm13.27,9.6l-.71,1.09c-2.54-1.12-4.54-2.34-6-3.66-2.04,1.43-4.41,2.64-7.12,3.63,0,0-.01,0-.02,0s-.02-.02-.04-.05-.09-.11-.19-.25-.28-.42-.53-.81c2.5-.77,4.84-1.9,7.01-3.38-1.6-1.82-2.79-4.05-3.57-6.7h-1.1v-1.22h4.97v-3.91h-5.31v-1.22h5.31v-3.59h1.29v3.59h5.59v1.22h-5.59v3.91h4.49v1.22c-.48,1.76-1.07,3.15-1.79,4.17s-1.52,1.9-2.41,2.63c1.34,1.25,3.25,2.36,5.73,3.33Zm-2.78-10.12h-7.08c.7,2.33,1.77,4.3,3.21,5.93,1.93-1.55,3.22-3.52,3.87-5.93Z"/>
      <path class="cls-1" d="M225.03,108.19l-.84,.91c-1.16-1.27-2.45-2.42-3.87-3.43l.89-.94c1.59,1.2,2.87,2.35,3.82,3.46Z"/>
      <path class="cls-1" d="M259.37,112.08c-.06,1.38-.24,2.43-.52,3.15s-.66,1.19-1.11,1.4-1.4,.31-2.84,.31-2.28-.05-2.67-.15-.7-.31-.92-.64-.33-.76-.33-1.29v-8.29l-4.25,.27c-.12,2.84-.79,5.04-2,6.62s-3,2.84-5.36,3.8l-.73-1.18c2.18-.91,3.83-2,4.95-3.25s1.71-3.22,1.78-5.92c-1.46,.06-2.86,.11-4.21,.14l-.43-1.37c1.98-1.05,3.88-2.89,5.7-5.5h-7.56v-1.29h8.44c.38-.6,.89-1.52,1.51-2.77l1.25,.43c-.42,.86-.84,1.64-1.25,2.33h10.57v1.29h-11.4c-1.73,2.56-3.35,4.39-4.85,5.5,3.58,.04,7.33-.2,11.26-.71-1.09-.98-2.21-1.9-3.36-2.74l1.01-.88c2.76,2.12,4.9,4.09,6.43,5.91l-1.03,.93c-.39-.52-1.04-1.24-1.95-2.18-.98,.16-2.05,.3-3.22,.43v8.33c0,.38,.14,.62,.41,.75s.93,.19,1.96,.19c1.22,0,1.99-.07,2.32-.21s.57-.45,.73-.94,.28-1.5,.37-3.04l1.32,.55Z"/>
      <path class="cls-1" d="M270,105.69l-.8,.96c-1.14-1.12-2.55-2.24-4.24-3.35l.74-.96c1.52,.91,2.95,2.02,4.3,3.35Zm.19,4.14c-1.47,3.32-2.83,5.78-4.08,7.38l-1.03-.71c1.42-1.88,2.78-4.35,4.08-7.39l1.03,.73Zm0-9.96l-.83,.98c-.84-1.16-2.03-2.38-3.55-3.66l.86-.9c1.45,1.16,2.63,2.35,3.53,3.57Zm15.75-.27h-3.29v3.29h-3.76v1.95h6.23v10.82c0,.41-.16,.78-.49,1.1s-.88,.48-1.68,.48h-1.24l-.47-1.24,2.18-.02c.35,0,.53-.18,.53-.53v-9.41h-5.06v11.16h-1.18v-11.16h-5.16v11.16h-1.15v-12.35h6.3v-1.95h-3.67v-3.29h-3.28v-1.2h3.28v-2.11h1.21v2.11h6.19v-2.11h1.22v2.11h3.29v1.2Zm-8.61,14.4l-.84,.82c-.52-.93-.91-1.88-1.17-2.84-.41,1.07-.89,2-1.46,2.79l-.87-.68c.99-1.39,1.63-3.16,1.92-5.3h-1.23v-1.11h2.12c.05,2.59,.56,4.69,1.54,6.32Zm4.1-12.27v-2.13h-6.19v2.13h6.19Zm2.06,12.18l-.8,.84c-.6-.91-1.05-1.97-1.34-3.2-.45,1.41-.89,2.49-1.35,3.25l-.8-.87c.8-1.45,1.37-3.16,1.69-5.13h-1.05v-1.11h2.04c.02,2.55,.56,4.62,1.61,6.22Z"/>
      <path class="cls-1" d="M311.76,110.73h-9.66c-.46,1.45-1.36,2.66-2.7,3.63s-3.75,1.93-7.22,2.87l-.73-1.1c2.52-.6,4.59-1.32,6.2-2.16s2.66-1.92,3.16-3.24h-8.59v-1.12h8.87c.14-.45,.22-1.06,.25-1.84l1.24,.05c-.04,.82-.1,1.42-.19,1.79h9.36v1.12Zm.64-3.71h-20.88v-1.22h9.8v-2.24h-7.78v-1.15h7.78v-2.19h-8.74v-1.17h18.75v1.17h-8.77v2.19h7.8v1.15h-7.8v2.24h9.84v1.22Zm-12.8-9.07l-1.12,.74c-.57-.63-1.4-1.27-2.5-1.91l1.18-.75c.99,.58,1.8,1.22,2.44,1.92Zm12.61,18.39l-.77,1.03c-2.51-1.59-5.4-3-8.68-4.21l.67-1.05c2.92,1.02,5.85,2.43,8.79,4.23Zm-4.71-19.56c-.69,.69-1.55,1.32-2.59,1.91l-1.15-.74c.95-.49,1.83-1.12,2.64-1.88l1.1,.7Z"/>
      <path class="cls-1" d="M338.74,113.23h-9.8v2.4c0,.46-.15,.82-.44,1.07s-.64,.38-1.05,.38l-2.85,.02-.41-1.2c.46,.02,.92,.04,1.38,.04,1.09,0,1.72-.05,1.9-.14s.27-.29,.27-.57v-1.99h-9.84v-1.12h9.84v-.96c1.52-.53,2.81-1.05,3.89-1.56h-9.66v-1.12h12.22v1.12c-1.63,.83-3.39,1.6-5.26,2.31v.21h9.8v1.12Zm-.5-3.23h-1.25v-3.02h-17.34v3.02h-1.21v-4.15h1.25l-.09-8.65c1.57-.19,3.07-.57,4.49-1.15l.55,.96c-1.09,.49-2.38,.87-3.84,1.12v1.71h3.87v1.1h-3.84l.02,1.85h3.8v1.12h-3.75l.02,1.92h14.72l.02-1.92h-3.8v-1.12h3.82l.02-1.85h-3.84v-1.1h3.89l.05-1.73h-4.15v-1.1h5.37l-.21,8.84h1.44v4.15Zm-6.8-5.5l-.79,.77c-.22-.22-.92-.8-2.11-1.76-1.2,.82-2.16,1.39-2.91,1.7l-.6-.98c.43-.17,1.3-.65,2.61-1.43-.27-.25-.61-.51-1.02-.77s-.7-.46-.88-.6l.71-.75c1.16,.8,1.86,1.29,2.07,1.46,.89-.7,1.41-1.16,1.56-1.38l.9,.62c-.14,.2-.67,.7-1.58,1.49,.34,.24,1.02,.79,2.02,1.63Zm-.07-4.58l-.79,.69c-.6-.58-1.28-1.13-2.04-1.65-.79,.54-1.7,1.05-2.74,1.54l-.53-.96c.71-.3,1.5-.74,2.38-1.3-.55-.49-1.13-.93-1.73-1.31l.8-.7c.95,.7,1.56,1.15,1.83,1.37,.73-.58,1.29-1.11,1.68-1.61l.91,.48c-.3,.45-.88,1.05-1.73,1.83,.29,.16,.95,.71,1.97,1.63Z"/>
      <path class="cls-1" d="M352.61,116.73h-1.21v-2.06h-5.18v2.54h-1.22v-17.02h2.23c.6-1.07,1.17-2.45,1.71-4.12l1.2,.25c-.28,.84-.82,2.14-1.63,3.88h4.1v16.54Zm-1.21-10.17v-5.16h-5.18v5.16h5.18Zm0,6.89v-5.68h-5.18v5.68h5.18Zm13.23-13.23c-.09,3.59-.27,6.93-.52,10.02s-.51,4.9-.77,5.45-.59,.94-.99,1.17-1.17,.35-2.29,.35c-.49,0-1.14-.01-1.93-.04l-.39-1.22c.66,.02,1.36,.04,2.12,.04,.71,0,1.17,0,1.37-.02s.41-.12,.63-.3,.38-.4,.47-.64,.22-1.17,.38-2.76,.29-3.35,.39-5.27,.18-3.78,.22-5.58h-6.26c-.84,1.66-1.8,3.25-2.91,4.75l-.98-.69c2.1-2.76,3.59-5.83,4.46-9.22l1.22,.32c-.39,1.28-.83,2.5-1.31,3.67h7.1Zm-4.42,10.76l-1.01,.71c-.77-1.78-1.93-3.64-3.48-5.59l1.03-.67c1.44,1.73,2.59,3.58,3.46,5.54Z"/>
      <path class="cls-1" d="M379.2,99.89h-8.5v-1.25h3.75c-.21-.7-.53-1.4-.96-2.11l1.1-.5c.48,.77,.87,1.64,1.17,2.61h3.43v1.25Zm-.67,7.01h-7.37v-1.21h7.37v1.21Zm.02-3.53h-7.37v-1.21h7.37v1.21Zm-.36,13.34h-1.24v-1.31h-4.35v1.77h-1.24v-7.99h6.83v7.54Zm-1.24-2.54v-3.71h-4.35v3.71h4.35Zm14.64,2.1l-.71,1.03c-2.43-.8-4.3-1.73-5.62-2.77-1.54,1.09-3.46,1.97-5.75,2.64l-.75-1.03c2.41-.71,4.23-1.53,5.45-2.45-1.66-1.52-2.86-3.56-3.62-6.12h-.82v-1.22h10.05v1.22c-1.03,2.8-2.23,4.85-3.6,6.14,1.36,.98,3.15,1.83,5.38,2.55Zm-.09-11.33h-2.33c-1.15,0-1.72-.55-1.72-1.65v-5.17h-4.23c-.04,2.21-.33,3.85-.88,4.93s-1.31,1.92-2.28,2.54l-.94-.87c.95-.6,1.69-1.43,2.2-2.48s.75-2.82,.71-5.31h6.62v6c0,.54,.27,.81,.8,.81h2.06v1.21Zm-3.05,2.64h-6.6c.83,2.36,1.95,4.14,3.38,5.33,1.43-1.32,2.5-3.1,3.22-5.33Z"/>
      <path class="cls-1" d="M407.06,100.35h-9.94v-1.25h4.54c-.35-.81-.83-1.67-1.43-2.57l1.2-.48c.53,.73,1.07,1.75,1.63,3.05h4.01v1.25Zm-1.22,3.43h-7.61v-1.21h7.61v1.21Zm0,3.38h-7.61v-1.17h7.61v1.17Zm0,9.84h-1.23v-1.17h-5.13v1.36h-1.24v-7.72h7.61v7.54Zm-1.23-2.45v-3.89h-5.13v3.89h5.13Zm13.44-10.17h-4.79v12.86h-1.3v-12.86h-4.78v-1.28h4.78v-6.83h1.3v6.83h4.79v1.28Z"/>
      <path class="cls-1" d="M433.59,108.94c-.58-.3-.87-.69-.87-1.16,0-.23,.1-.46,.29-.7s.47-.36,.83-.36c.75,0,1.12,.49,1.12,1.48,0,.8-.47,1.58-1.42,2.33l-.5-.39c.36-.48,.54-.88,.54-1.21Z"/>
      <path class="cls-1" d="M458.49,107.13c-1.24,.61-2.44,1.15-3.6,1.62v6.86c0,.57-.23,.98-.68,1.24s-1.29,.38-2.52,.38c-.38,0-.77-.01-1.2-.04l-.4-1.34c.64,.04,1.25,.06,1.82,.06,.81,0,1.3-.03,1.46-.09s.25-.19,.25-.38v-6.22c-1.31,.45-2.56,.82-3.75,1.11l-.21-1.23c1.44-.36,2.76-.77,3.96-1.22v-5.86h-3.55v-1.24h3.55v-4.69h1.27v4.69h3.6v1.24h-3.6v5.33c.9-.31,2.07-.83,3.53-1.56l.07,1.34Zm12.2-8.93h-4.23v17.05c0,.51-.14,.91-.41,1.2s-.62,.48-1.03,.57-1.14,.13-2.19,.13c-.53,0-1.17-.01-1.92-.04l-.35-1.29c.9,.03,1.72,.05,2.46,.05,1.02,0,1.64-.04,1.84-.13s.3-.28,.3-.57v-16.97h-6.62v-1.29h12.14v1.29Z"/>
      <path class="cls-1" d="M497.35,115.54l-.23,1.23c-.8,.02-3.68,.02-8.61,.02-4.07,0-6.96-.88-8.67-2.65-.96,1.34-1.89,2.4-2.78,3.18l-.94-.84c2.23-1.82,3.79-4.38,4.68-7.68h-4.03v-1.11c1.1-1.33,2.34-2.96,3.73-4.91h-4.18v-1.25h5.79v1.25c-.7,.98-1.89,2.6-3.6,4.84h3.62v1.18c-.42,1.58-.99,3.02-1.71,4.34,.82,.79,1.71,1.36,2.67,1.71s1.97,.56,3.03,.64,3.2,.12,6.43,.12c2.41,0,4.01-.02,4.82-.07Zm-16.1-15.71l-.94,.83c-1-1.31-2.18-2.5-3.53-3.55l.87-.89c1.51,1.14,2.71,2.34,3.6,3.61Zm15.82,5.39h-14.17v-1.17h6.61v-3.46h-3.87c-.72,1.11-1.22,1.86-1.51,2.24l-1.03-.66c1.31-1.64,2.3-3.51,2.95-5.61l1.17,.27c-.32,1.05-.65,1.92-.98,2.59h3.27v-3.18h1.22v3.18h5.18v1.17h-5.18v3.46h6.34v1.17Zm-1.44,7.8h-10.92v-5.75h10.92v5.75Zm-1.25-1.17v-3.36h-8.41v3.36h8.41Z"/>
      <path class="cls-1" d="M523.63,116.59h-20.91v-1.22h10.16v-6.48h-7.69v-1.28h7.69v-5.47h-6.5c-.91,1.67-1.91,3.06-3,4.16l-1.01-.87c2.12-2.2,3.68-5.01,4.65-8.43l1.24,.32c-.32,1.16-.73,2.33-1.24,3.53h5.86v-4.71h1.29v4.71h9.12v1.29h-9.12v5.47h8.02v1.28h-8.02v6.48h9.46v1.22Z"/>
      <path class="cls-1" d="M534.67,109.17c-1.31,3.11-2.86,5.79-4.63,8.04l-.96-.9c1.75-2.1,3.26-4.73,4.54-7.9l1.05,.76Zm-.5-3.38l-.79,1.01c-1.3-1.3-2.73-2.39-4.28-3.27l.77-1.05c1.54,.94,2.97,2.04,4.29,3.32Zm.5-6.27l-.74,1.01c-1.3-1.3-2.71-2.43-4.23-3.39l.82-.98c1.55,.98,2.94,2.11,4.15,3.36Zm15.39,4.7h-7.1v4.09h5.52v8.87h-1.24v-1.72h-9.75v1.72h-1.24v-8.87h5.52v-4.09h-7.16v-1.17h7.16v-4.15c-2.13,.21-4.12,.3-5.98,.28l-.53-1.2c5.12,.02,9.46-.54,13.01-1.68l.67,1.08c-1.59,.55-3.58,.99-5.98,1.31v4.35h7.1v1.17Zm-2.82,10.07v-4.76h-9.75v4.76h9.75Z"/>
      <path class="cls-1" d="M575.06,110.04h-8.45v7.2h-1.27v-7.2h-8.5v-9.55h8.5v-4.25h1.27v4.25h8.45v9.55Zm-9.71-1.29v-6.98h-7.23v6.98h7.23Zm8.43,0v-6.98h-7.16v6.98h7.16Z"/>
      <path class="cls-1" d="M9.41,164.73h-1.21v-2.06H3.02v2.54H1.8v-17.02h2.23c.6-1.07,1.17-2.45,1.71-4.12l1.2,.25c-.28,.84-.82,2.14-1.63,3.88h4.1v16.54Zm-1.21-10.17v-5.16H3.02v5.16h5.18Zm0,6.89v-5.68H3.02v5.68h5.18Zm13.23-13.23c-.09,3.59-.27,6.93-.52,10.02s-.51,4.9-.77,5.45-.59,.94-.99,1.17-1.17,.35-2.29,.35c-.49,0-1.14-.01-1.93-.04l-.39-1.22c.66,.02,1.36,.04,2.12,.04,.71,0,1.17,0,1.37-.02s.41-.12,.63-.3,.38-.4,.47-.64,.22-1.17,.38-2.76,.29-3.35,.39-5.27,.18-3.78,.22-5.58h-6.26c-.84,1.66-1.8,3.25-2.91,4.75l-.98-.69c2.1-2.76,3.59-5.83,4.46-9.22l1.22,.32c-.39,1.28-.83,2.5-1.31,3.67h7.1Zm-4.42,10.76l-1.01,.71c-.77-1.78-1.93-3.64-3.48-5.59l1.03-.67c1.44,1.73,2.59,3.58,3.46,5.54Z"/>
      <path class="cls-1" d="M48.38,164.66H27.53v-1.12h9.82v-1.92h-8.68v-1.17h8.68v-1.95h-7.44v-7.03h7.44v-1.88h-9.27v-1.12h9.27v-2.04c-2.25,.11-4.78,.16-7.58,.16l-.39-1.08c6.56,.07,12.2-.34,16.92-1.22l.64,1.01c-1.77,.42-4.57,.77-8.4,1.03v2.13h9.32v1.12h-9.32v1.92h7.49v6.98h-7.49v1.95h8.77v1.17h-8.77v1.92h9.84v1.12Zm-11.04-10.24v-1.76h-6.19v1.76h6.19Zm0,2.95v-1.88h-6.19v1.88h6.19Zm7.44-2.95v-1.76h-6.25v1.76h6.25Zm0,2.95v-1.88h-6.25v1.88h6.25Z"/>
      <path class="cls-1" d="M56.42,160.56c-.47,1.98-.98,3.52-1.54,4.63l-1.1-.5c.67-1.38,1.19-2.88,1.56-4.49l1.08,.36Zm7.97-.98h-10.49v-1.15h4.69v-2.33h-4.05v-1.12h4.05v-2.02h-3.89v-8.16h8.98v8.16h-3.89v2.02h3.94v1.12h-3.94v2.33h4.61v1.15Zm-5.8-7.75v-5.91h-2.7v5.91h2.7Zm-.48-1.37l-.96,.41c-.19-1.12-.46-2.29-.82-3.48l.89-.41c.45,1.38,.74,2.54,.89,3.48Zm.67,14.36l-1.2,.19c.02-.31,.02-.64,.02-.98,0-1.16-.1-2.31-.29-3.46l1.2-.12c.18,1.47,.27,2.93,.27,4.37Zm2.81-.46l-1.14,.28c-.07-1.34-.32-2.74-.76-4.22l1.12-.2c.38,1.34,.64,2.71,.77,4.14Zm.88-12.53v-5.91h-2.68v5.91h2.68Zm-.35-4.49c-.24,1.38-.57,2.57-.98,3.6l-.94-.39c.45-1.2,.75-2.39,.91-3.57l1.01,.36Zm2.32,16.42l-1.08,.35c-.27-1.37-.67-2.62-1.2-3.76l1.15-.27c.55,1.29,.93,2.52,1.12,3.68Zm10.37-14.21h-5.06v4.63h4.03v11.02h-1.24v-1.84h-5.88v1.84h-1.28v-11.02h3.09v-9.9h1.28v4.1h5.06v1.17Zm-2.27,12.57v-6.74h-5.88v6.74h5.88Z"/>
      <path class="cls-1" d="M101.11,164.61h-20.84v-1.24h9.82v-5.52h-7.58v-1.23h16.46v1.23h-7.62v5.52h9.75v1.24Zm-.89-13.42h-1.24v-3.3h-5.38v4.39c0,.45,.29,.67,.87,.67h5.61v1.22h-5.67c-1.34,0-2.02-.63-2.02-1.89v-4.39h-3.12c-.56,3.84-3.09,6.26-7.58,7.24l-.69-1.12c4.32-.86,6.63-2.9,6.94-6.12h-5.5v3.21h-1.23v-4.44h9c-.26-.67-.58-1.37-.96-2.09l1.15-.43c.37,.65,.75,1.49,1.14,2.52h8.68v4.54Z"/>
      <path class="cls-1" d="M116.13,152.52h-7.15v12.64h-1.28v-20.41h8.43v7.77Zm-1.24-4.56v-2.02h-5.91v2.02h5.91Zm0,3.39v-2.19h-5.91v2.19h5.91Zm6.94,11.64h-9.39v-8.52h9.39v8.52Zm-1.23-4.95v-2.4h-6.94v2.4h6.94Zm0,3.77v-2.58h-6.94v2.58h6.94Zm6.02,1.44c0,.6-.18,1.07-.53,1.42s-1,.52-1.93,.52h-1.28l-.46-1.24c.38,.03,1.09,.05,2.16,.05,.23,0,.42-.08,.57-.25s.23-.36,.23-.57v-10.65h-7.07v-7.77h8.31v18.5Zm-1.24-15.29v-2.02h-5.84v2.02h5.84Zm0,3.39v-2.19h-5.84v2.19h5.84Z"/>
      <path class="cls-1" d="M143.19,156.94c-.58-.3-.87-.69-.87-1.16,0-.23,.1-.46,.29-.7s.47-.36,.83-.36c.75,0,1.12,.49,1.12,1.48,0,.8-.47,1.58-1.42,2.33l-.5-.39c.36-.48,.54-.88,.54-1.21Z"/>
      <path class="cls-1" d="M165.43,144.69c-.17,.52-.49,1.35-.96,2.47l-.71,1.66v16.49h-1.23v-14.1c-.9,1.57-1.74,2.81-2.52,3.73l-.69-1.15c1.68-2.01,3.35-5.2,5.02-9.59l1.1,.48Zm15,3.29h-7.08v2.84h5.91v6.19h-6.02c-.13,1.93-.54,3.47-1.21,4.63,2.09,1.2,4.88,2.01,8.38,2.45l-.48,1.21c-3.46-.41-6.34-1.3-8.64-2.65-1.45,1.55-3.46,2.45-6.02,2.72l-.5-1.14c2.48-.33,4.31-1.09,5.47-2.3-1.48-1.09-2.62-2.22-3.43-3.41l1.05-.6c.67,.98,1.7,1.98,3.07,3.02,.56-.85,.91-2.16,1.05-3.94h-5.93v-6.19h6.02v-2.84h-6.79v-1.17h6.79v-2.43h1.28v2.43h7.08v1.17Zm-8.4,4.03h-4.68v3.8h4.63c.05-1.39,.07-2.66,.05-3.8Zm5.98,3.8v-3.8h-4.63c0,1.24-.02,2.51-.07,3.8h4.7Z"/>
      <path class="cls-1" d="M205.68,163.49c0,.65-.23,1.1-.7,1.36s-1.51,.39-3.13,.39c-.37,0-.72,0-1.07-.02l-.39-1.31c.59,.05,1.17,.07,1.73,.07,1.14,0,1.8-.05,1.99-.14s.28-.25,.28-.46v-5.79h-6.79v7.03h-1.3v-7.03h-6.84c-.38,3.29-1.21,5.81-2.47,7.56l-1.12-.79c1.62-2.39,2.43-5.27,2.43-8.65v-11.02h17.38v18.8Zm-9.36-13.12v-4.37h-6.71v4.37h6.71Zm0,5.98v-4.66h-6.71v4.66h6.71Zm8.09-5.98v-4.37h-6.79v4.37h6.79Zm0,5.98v-4.66h-6.79v4.66h6.79Z"/>
      <path class="cls-1" d="M219.65,163.51c0,.48-.13,.89-.39,1.22s-.73,.5-1.4,.5h-.91l-.34-1.15h1.54c.07,0,.15-.04,.25-.13s.14-.16,.14-.23v-3.3c-1.4,.77-2.48,1.29-3.25,1.58l-.33-.6c-.41,1.64-.94,2.9-1.57,3.79l-.95-.55c1.13-1.92,1.7-3.95,1.7-6.07v-4.77h5.52v9.71Zm1.61-10.08h-1.15v-1.37h-6.41v1.37h-1.17v-2.5h1.24v-6.12h6.64v6.12h.84v2.5Zm-1.99-5.68v-1.8h-4.37v4.99h1.46v-3.19h2.91Zm-.74,11.3v-4.15h-3.29v1.37c.83,.25,1.79,.61,2.88,1.08l-.53,1.03c-.52-.25-1.3-.56-2.36-.94-.03,1.45-.1,2.6-.21,3.46,1.12-.48,2.29-1.1,3.5-1.85Zm.71-8.11v-2.11h-1.75v2.11h1.75Zm13.88,13.79h-12.02v-1.12h3.67c-.14-.72-.44-1.56-.89-2.52h-1.2v-3.96h9.12v3.96h-1.42c-.39,1.02-.73,1.86-1.03,2.52h3.77v1.12Zm-.14-9h-11.38v-1.1h11.38v1.1Zm-.53-2.71h-10.11v-6.82h3.02v-1.97h1.05v1.97h1.99v-1.97h1.07v1.97h2.98v6.82Zm-7.09-3.94v-1.82h-1.97v1.82h1.97Zm0,2.93v-1.92h-1.97v1.92h1.97Zm5.24,7.99v-1.8h-6.7v1.8h6.7Zm-1.54,1.08h-3.91l.89,2.52h2.02c.43-.92,.77-1.76,1.01-2.52Zm-.66-12v-1.82h-1.99v1.82h1.99Zm0,2.93v-1.92h-1.99v1.92h1.99Zm2.95-2.93v-1.82h-1.89v1.82h1.89Zm0,2.93v-1.92h-1.89v1.92h1.89Z"/>
      <path class="cls-1" d="M240.41,157.8c-.08,2.16-.3,4.11-.66,5.82l-1.12-.26c.38-1.53,.63-3.42,.75-5.67l1.03,.11Zm6.94-11.79h-2.72v2.31h2.26v1.12h-2.26v2.25h2.26v1.18h-2.26v2.38h2.26c.03,1.34,.05,2.42,.05,3.25,0,1.7-.05,3.05-.16,4.08s-.28,1.69-.51,1.99-.54,.5-.9,.59-1.03,.13-1.98,.13l-.36-1.23c.3,.02,.78,.02,1.44,.02,.49,0,.84-.22,1.04-.66s.3-2,.3-4.68c0-.87-.02-1.64-.06-2.32h-5.89v-11.59h7.49v1.17Zm-5.29,17.31l-.98,.14c.03-.75,.05-1.48,.05-2.19,0-1.25-.05-2.37-.14-3.35l.91-.14c.13,2.24,.2,3.66,.2,4.27,0,.45-.01,.87-.04,1.28Zm1.35-15.02v-2.29h-2.33v2.29h2.33Zm0,3.4v-2.23h-2.33v2.23h2.33Zm0,3.56v-2.38h-2.33v2.38h2.33Zm.5,7.1l-.96,.14c-.05-1.78-.22-3.34-.5-4.68l.89-.2c.27,1.3,.46,2.88,.57,4.73Zm1.49-1.28l-.82,.2c-.09-.9-.33-2.15-.71-3.75l.76-.19c.19,.53,.45,1.78,.77,3.74Zm14.27-11.09l-.62,1.03c-2.34-1.25-4.28-2.95-5.81-5.09-1.27,1.73-3.09,3.4-5.45,4.99l-.74-1.01c2.71-1.76,4.68-3.7,5.91-5.81l1.22,.39c-.05,.12-.12,.26-.21,.43,1.45,2.09,3.36,3.77,5.71,5.06Zm-6.67,12.98l-.87,.89c-.35-.54-.94-1.22-1.77-2.04-.73,1.38-1.48,2.51-2.26,3.4l-.98-.67c1.47-1.77,2.52-3.73,3.16-5.88l1.14,.39c-.23,.69-.43,1.23-.6,1.63,.75,.66,1.48,1.43,2.18,2.29Zm-.32-4.88h-4.58v-5.71h4.58v5.71Zm-1.15-1.12v-3.46h-2.31v3.46h2.31Zm4.85-6.27h-6.41v-1.15h6.41v1.15Zm3.26,13.66l-.89,.83c-.96-1.26-1.93-2.27-2.92-3.05-.64,1.18-1.37,2.25-2.19,3.2l-.98-.75c1.4-1.51,2.51-3.52,3.34-6.02l1.17,.41c-.23,.66-.5,1.35-.83,2.06,1.44,1.2,2.54,2.31,3.3,3.32Zm-1.08-6.27h-4.63v-5.71h4.63v5.71Zm-1.12-1.12v-3.46h-2.38v3.46h2.38Z"/>
      <path class="cls-1" d="M286.12,163.99l-.46,1.2c-4.8-.29-8.77-1.06-11.92-2.32-2.01,1.39-4.68,2.21-8.02,2.45l-.63-1.23c2.97-.1,5.39-.7,7.28-1.79-1.67-.8-3.14-1.71-4.42-2.74l1.01-.79c1.2,1.05,2.66,1.94,4.39,2.68,.81-.88,1.34-2.13,1.58-3.75h-7.44v-8.98h7.56v-2.66h-9.76v-1.17h20.61v1.17h-9.57v2.66h7.34v8.98h-7.46c-.26,1.81-.79,3.22-1.58,4.23,3.08,1.15,6.91,1.84,11.5,2.06Zm-11.06-11.5v-2.57h-6.23v2.57h6.23Zm-.02,1.17h-6.21v2.84h6.16c.05-.63,.07-1.24,.07-1.83,0-.34,0-.68-.02-1.01Zm7.35,2.84v-2.84h-6.02c0,1.28-.02,2.23-.07,2.84h6.09Zm0-4.01v-2.57h-6.02v2.57h6.02Z"/>
      <path class="cls-1" d="M301.9,157.92c-4.3,3.04-7.66,5.13-10.08,6.28l-.5-1.15,2.25-1.22v-17.4h1.28v16.63c1.67-.91,3.98-2.42,6.91-4.51l.14,1.37Zm2.13-5.61l-1.15,.6c-1.03-2.07-2.55-4.27-4.56-6.6l1.22-.59c2.2,2.7,3.7,4.89,4.49,6.59Zm8.21,12.12l-.96,.87c-1.05-1.62-2.63-3.54-4.73-5.74-1.42,1.94-3.68,3.88-6.79,5.84l-.94-1.03c2.2-1.2,4.1-2.66,5.68-4.37s2.66-3.75,3.23-6.12,.89-5.62,.98-9.76h1.34c-.17,6.98-1.11,11.76-2.8,14.36,2.31,2.48,3.98,4.47,4.99,5.95Z"/>
      <path class="cls-1" d="M338.44,147.53h-20.2v-1.15h9.5c-.06-.46-.29-1.1-.69-1.92l1.22-.39c.27,.55,.53,1.32,.77,2.31h9.4v1.15Zm-1.03,15.8c0,.56-.14,1.02-.43,1.36s-.98,.52-2.09,.52c-.36,0-.8-.01-1.31-.04l-.41-1.24c.97,.04,1.62,.06,1.95,.06,.7,0,1.05-.29,1.05-.88v-6.67h-15.6v8.75h-1.23v-9.96h18.07v8.1Zm-2.34-9.7h-13.44v-4.56h13.44v4.56Zm-1.32-1.17v-2.18h-10.83v2.18h10.83Zm-.48,10.3h-9.84v-4.69h9.84v4.69Zm-1.28-1.16v-2.36h-7.27v2.36h7.27Z"/>
      <path class="cls-1" d="M348.86,150.12c-1.27,2.29-2.5,4.02-3.71,5.19l-.84-.94c1.16-1.14,2.3-2.77,3.43-4.9l1.12,.64Zm5.6,12.41l-.91,.94c-.81-1.18-1.72-2.27-2.72-3.27-1.31,2.09-3.14,3.79-5.5,5.12l-.96-.91c2.57-1.48,4.4-3.17,5.5-5.09-.76-.77-1.92-1.77-3.48-3l.87-.91c1.36,1.12,2.43,2.04,3.22,2.73,.67-1.34,1.18-2.72,1.54-4.12l1.17,.6c-.4,1.3-.97,2.77-1.72,4.42,1.05,1.09,2.05,2.26,3,3.5Zm.71-14.13h-10.54v-1.23h5.11c-.24-.78-.59-1.63-1.05-2.54l1.1-.6c.47,.89,.88,1.94,1.23,3.14h4.15v1.23Zm.02,5.73l-1.05,.77c-.65-1.59-1.69-3.15-3.12-4.69l.96-.79c1.48,1.61,2.55,3.18,3.21,4.7Zm10.2,10.14l-.71,1.15c-1.78-1.04-3.29-2.3-4.54-3.8-1.27,1.39-3,2.63-5.18,3.73l-.87-1.16c2.05-.76,3.81-1.98,5.27-3.67-.98-1.62-1.69-3.43-2.13-5.43l1.23-.43c.34,1.7,.92,3.28,1.72,4.76,1.49-2.38,2.34-5.79,2.54-10.23h-3.71c-.58,1.79-1.39,3.57-2.43,5.36l-1.01-.71c1.64-2.89,2.79-6.12,3.43-9.68l1.22,.36c-.22,1.18-.51,2.32-.87,3.43h5.81v1.24h-1.15c-.4,5.26-1.43,9.04-3.09,11.36,1.02,1.48,2.51,2.72,4.45,3.73Z"/>
      <path class="cls-1" d="M381.03,147.64h-6.57c-1.03,1.32-2.02,2.33-2.95,3.02l-.82-.88c1.93-1.54,3.43-3.41,4.49-5.6l1.18,.53c-.62,1.05-.99,1.63-1.09,1.76h5.77v1.17Zm.23,16.37l-1.08,.6c-.38-.91-.7-1.57-.96-1.97-2.46,.88-4.66,1.55-6.6,2.02l-.6-1.05c.21-.23,.32-.5,.32-.79v-11.5h8.27v7.44h-7.01v4.36c1.45-.34,3.1-.85,4.95-1.51-.25-.47-.55-.91-.91-1.31l1.05-.63c1.15,1.54,2,2.99,2.57,4.35Zm-1.86-9.62v-1.88h-5.79v1.88h5.79Zm0,3.14v-1.97h-5.79v1.97h5.79Zm-.98-7.17l-1.14,.5c-.3-.62-.76-1.3-1.36-2.04l1.17-.5c.56,.7,1,1.38,1.32,2.04Zm12.94-2.72h-7.62c-.73,1.12-1.48,2.04-2.25,2.74l-.96-.82c1.55-1.39,2.76-3.19,3.64-5.4l1.15,.48c-.19,.57-.47,1.18-.86,1.83h6.89v1.17Zm-.94,14.21c0,.73-.22,1.21-.67,1.41s-1.6,.31-3.46,.31l-.5-1.24c1.97,0,3.03-.03,3.19-.1s.24-.21,.24-.43v-9.29h-5.16v12.8h-1.22v-13.97h7.58v10.51Zm-2.45-11.59l-1.12,.48c-.38-.63-.89-1.29-1.52-1.97l1.14-.43c.62,.65,1.13,1.29,1.51,1.92Z"/>
      <path class="cls-1" d="M408.36,150.48l-.98,.8c-.26-.48-.56-.96-.91-1.44-2.9,.41-5.88,.7-8.95,.86l-.46-1.03c1.47-1.13,2.76-2.94,3.87-5.43l1.24,.32c-.95,2-1.99,3.63-3.14,4.9,2.51-.2,4.72-.43,6.64-.69-.42-.59-1.09-1.35-2.02-2.26l1.09-.69c1.8,1.81,3,3.37,3.62,4.68Zm-1.56,13.35c0,.4-.15,.73-.44,1.01s-.62,.43-.97,.46-1.12,.05-2.29,.05l-.5-1.21c.38,.02,.76,.04,1.12,.04,.77,0,1.27-.03,1.49-.08s.33-.2,.33-.43v-3.9c-2.3,1.04-4.18,1.81-5.66,2.32l-.55-.81c-.18,1.42-.56,2.77-1.14,4.03l-1.1-.63c.73-1.89,1.1-3.8,1.1-5.73v-6.46h8.6v11.36Zm-1.25-5.43v-4.73h-6.07v1.71c1.66,.3,3.39,.77,5.2,1.42l-.57,1.08c-1.85-.62-3.39-1.04-4.63-1.28v2.33c0,.67-.03,1.33-.09,1.97,1.56-.48,3.62-1.32,6.16-2.5Zm12.48,2.73c-.08,1.21-.25,2.1-.5,2.65s-.56,.92-.91,1.08-1,.25-1.95,.25l-3.6-.05c-.54,0-.97-.15-1.3-.46s-.49-.72-.49-1.24v-9.02h1.22v3.48h6.89v1.15h-6.89v4.28c0,.46,.29,.69,.87,.69,2.44,0,3.83-.02,4.17-.06s.62-.2,.82-.47,.36-1.14,.48-2.58l1.2,.3Zm-.26-7.77h-6.98c-.44,0-.79-.16-1.07-.47s-.42-.68-.42-1.11v-7.46h1.2v3h6.87v1.15h-6.87v3.14c0,.38,.21,.57,.64,.57h6.63v1.18Z"/>
      <path class="cls-1" d="M436.23,156.19l-.84,.91c-1.16-1.27-2.45-2.42-3.87-3.43l.89-.94c1.59,1.2,2.87,2.35,3.82,3.46Z"/>
      <path class="cls-1" d="M470.9,161.09h-10.05v4.05h-1.22v-4.05h-9.77v-1.22h9.77v-2.24h-7.54v-8.32h7.36v-5.07h1.23v1.59h7.22v1.22h-7.22v2.26h7.92v8.32h-7.76v2.24h10.05v1.22Zm-3.53-8.36v-2.23h-14.04v2.23h14.04Zm0,3.68v-2.47h-14.04v2.47h14.04Z"/>
      <path class="cls-1" d="M497.3,163.65l-.3,1.25c-.77,.02-1.54,.02-2.3,.02-4.23,0-7.61-.2-10.14-.59s-4.54-1.51-6.02-3.35c-.36,1.8-.78,3.2-1.25,4.2l-1.01-.64c1.01-2.5,1.54-5.77,1.58-9.82l1.21,.18c-.02,1.48-.12,2.93-.29,4.34,.49,.96,1.21,1.74,2.17,2.33v-8.47h-4.44v-1.2h4.44v-3.2h-3.8v-1.22h3.8v-3.27h1.2v3.27h3.23v1.22h-3.23v3.2h3.55v1.2h-3.55v2.84h3.23v1.22h-3.23v5.14c1.02,.56,2.52,.94,4.52,1.12s4.6,.28,7.82,.28c.98,0,1.92-.02,2.82-.05Zm-.14-6.35c-.23,2.81-.89,4.22-1.98,4.22-.75,0-1.46-.7-2.12-2.11-.84,1.19-1.75,2.1-2.74,2.73l-.88-.76c1.35-.98,2.41-2.11,3.16-3.39-.76-2.39-1.28-5.38-1.56-8.95h-3.2v9.22c1.04-.54,1.95-1.08,2.74-1.62l.19,1.3c-1.45,.88-2.81,1.62-4.08,2.2l-.57-.98c.35-.22,.53-.5,.53-.86v-10.46h4.3c-.07-1.23-.11-2.44-.11-3.61h1.11c.02,.79,.07,1.99,.16,3.61h4.77v1.2h-4.68c.16,2.76,.55,5.26,1.17,7.51,.8-1.61,1.45-3.56,1.92-5.86l1.16,.46c-.71,2.79-1.6,5.16-2.67,7.11,.27,.71,.54,1.23,.81,1.56s.47,.5,.57,.5c.12,0,.29-.32,.49-.97s.32-1.53,.36-2.64l1.12,.59Zm-1.01-10.88l-.89,.76c-.48-.62-1.04-1.25-1.68-1.89l.84-.75c.62,.52,1.2,1.14,1.72,1.88Z"/>
      <path class="cls-1" d="M505.13,149.54c-.28,2.3-.69,4.23-1.22,5.81l-1.23-.34c.55-1.72,.95-3.6,1.18-5.64l1.27,.16Zm5.09,2.21l-.79,.93c-.66-.79-1.3-1.46-1.92-2.02v14.5h-1.25v-20.98h1.25v4.88c.95,.8,1.85,1.7,2.71,2.7Zm13.32,12.9h-13.7v-1.24h6.69v-6.27h-5.54v-1.22h5.54v-5.31h-3.48c-.61,1.6-1.3,2.97-2.09,4.1l-1.03-.64c1.61-2.74,2.65-5.53,3.12-8.36l1.24,.27c-.22,1.27-.49,2.39-.81,3.36h3.05v-5.09h1.32v5.09h5.27v1.27h-5.27v5.31h4.72v1.22h-4.72v6.27h5.68v1.24Z"/>
      <path class="cls-1" d="M540.36,150.48l-.98,.8c-.26-.48-.56-.96-.91-1.44-2.9,.41-5.88,.7-8.95,.86l-.46-1.03c1.47-1.13,2.76-2.94,3.87-5.43l1.24,.32c-.95,2-1.99,3.63-3.14,4.9,2.51-.2,4.72-.43,6.64-.69-.42-.59-1.09-1.35-2.02-2.26l1.09-.69c1.8,1.81,3,3.37,3.62,4.68Zm-1.56,13.35c0,.4-.15,.73-.44,1.01s-.62,.43-.97,.46-1.12,.05-2.29,.05l-.5-1.21c.38,.02,.76,.04,1.12,.04,.77,0,1.27-.03,1.49-.08s.33-.2,.33-.43v-3.9c-2.3,1.04-4.18,1.81-5.66,2.32l-.55-.81c-.18,1.42-.56,2.77-1.14,4.03l-1.1-.63c.73-1.89,1.1-3.8,1.1-5.73v-6.46h8.6v11.36Zm-1.25-5.43v-4.73h-6.07v1.71c1.66,.3,3.39,.77,5.2,1.42l-.57,1.08c-1.85-.62-3.39-1.04-4.63-1.28v2.33c0,.67-.03,1.33-.09,1.97,1.56-.48,3.62-1.32,6.16-2.5Zm12.48,2.73c-.08,1.21-.25,2.1-.5,2.65s-.56,.92-.91,1.08-1,.25-1.95,.25l-3.6-.05c-.54,0-.97-.15-1.3-.46s-.49-.72-.49-1.24v-9.02h1.22v3.48h6.89v1.15h-6.89v4.28c0,.46,.29,.69,.87,.69,2.44,0,3.83-.02,4.17-.06s.62-.2,.82-.47,.36-1.14,.48-2.58l1.2,.3Zm-.26-7.77h-6.98c-.44,0-.79-.16-1.07-.47s-.42-.68-.42-1.11v-7.46h1.2v3h6.87v1.15h-6.87v3.14c0,.38,.21,.57,.64,.57h6.63v1.18Z"/>
      <path class="cls-1" d="M564.77,152.04h-7.05v13.17h-1.25v-20.37h8.31v7.2Zm-1.23-4.22v-1.8h-5.82v1.8h5.82Zm0,3.05v-1.92h-5.82v1.92h5.82Zm9.29,11.82h-2.52v2.04h-1.25v-2.04h-9.98v-1.1h2.45v-7.08h-2.18v-1.12h13.22v1.12h-2.25v7.08h2.52v1.1Zm-3.77-6.71v-1.46h-6.3v1.46h6.3Zm0,2.73v-1.61h-6.3v1.61h6.3Zm0,2.88v-1.75h-6.3v1.75h6.3Zm6.34,1.88c0,.66-.18,1.12-.54,1.41s-1.12,.42-2.27,.42c-.32,0-.66,0-1.03-.02l-.57-1.23c1.2,.02,2.03,.01,2.5,0s.7-.28,.7-.78v-11.21h-7.03v-7.2h8.25v18.62Zm-1.22-15.64v-1.8h-5.81v1.8h5.81Zm0,3.05v-1.92h-5.81v1.92h5.81Z"/>
      <path class="cls-1" d="M20.45,213.21h-1.28v-1.56H7.83v1.58h-1.32v-8.32c-1.86,.68-3.39,1.19-4.58,1.54l-.73-1.17c3.76-1.02,6.96-2.24,9.61-3.68-.96-1.38-2.29-2.8-3.98-4.24-1.21,.79-2.56,1.56-4.05,2.32l-1.03-1.03c3.62-1.55,6.65-3.75,9.09-6.57l1.24,.57c-.34,.42-.78,.89-1.31,1.39h9.33v1.05c-2.6,3.5-6.11,6.35-10.54,8.54h10.9v9.57Zm-1.28-2.8v-5.5H7.83v5.5h11.34Zm-.96-15.07H9.46c-.54,.46-1.07,.89-1.61,1.29,1.56,1.39,2.92,2.82,4.08,4.28,2.53-1.61,4.62-3.46,6.28-5.57Z"/>
      <path class="cls-1" d="M37.59,204.94c-.58-.3-.87-.69-.87-1.16,0-.23,.1-.46,.29-.7s.47-.36,.83-.36c.75,0,1.12,.49,1.12,1.48,0,.8-.47,1.58-1.42,2.33l-.5-.39c.36-.48,.54-.88,.54-1.21Z"/>
      <path class="cls-1" d="M56.42,207.53c-.37,2.29-.87,4.11-1.51,5.47l-1.17-.62c.67-1.3,1.18-3.01,1.51-5.14l1.17,.29Zm6.32-1.54l-1.1,.57c-.09-.44-.25-.9-.48-1.39-2.16,.55-4.45,1-6.89,1.35l-.34-1.17c1.76-1.26,3.35-2.91,4.78-4.95-1.87,.2-3.29,.33-4.28,.39l-.23-1.09c1.76-1.94,3.21-4.39,4.37-7.36l1.1,.48c-.95,2.51-2.14,4.7-3.57,6.57,1.42-.06,2.58-.16,3.48-.29,.55-.87,1.02-1.71,1.43-2.54l1.11,.6c-1.88,3.45-3.81,6.06-5.81,7.83,1.65-.26,3.09-.56,4.32-.91-.14-.41-.37-.86-.68-1.35l1.11-.53c.8,1.43,1.36,2.7,1.68,3.8Zm-3.22,6.34l-1.34,.19c.03-1.29-.11-2.91-.43-4.88l1.15-.28c.41,1.87,.62,3.52,.62,4.97Zm3.22-1.03l-1.17,.46c-.24-1.3-.64-2.68-1.18-4.14l1.05-.46c.65,1.46,1.08,2.84,1.3,4.14Zm11.93-14.54h-5.52v3.67h4.75v1.17h-10.56v-1.17h4.61v-3.67h-5.27v-1.16h5.27v-3.28h1.21v3.28h5.52v1.16Zm-1.39,16.43h-1.22v-1.36h-6.87v1.36h-1.23v-8.8h9.32v8.8Zm-1.22-2.59v-5.02h-6.87v5.02h6.87Z"/>
      <path class="cls-1" d="M101.3,199.15l-.81,1.05c-4.03-1.68-7.29-3.81-9.77-6.4-2.16,2.18-5.4,4.32-9.71,6.42l-.8-1.08c4.38-1.86,7.87-4.25,10.49-7.17l1.22,.48c-.06,.18-.18,.36-.35,.53,2.51,2.52,5.75,4.58,9.74,6.16Zm-3.02,14.12h-1.27v-1.59h-12.55v1.59h-1.3v-9.54h15.12v9.54Zm-1.27-2.86v-5.4h-12.55v5.4h12.55Zm-.05-10.01h-12.43v-1.28h12.43v1.28Z"/>
      <path class="cls-1" d="M124.92,213.29h-1.35v-2.12h-12.67v2.12h-1.39v-20.52h15.41v20.52Zm-1.35-12.08v-7.15h-12.67v7.15h12.67Zm0,8.67v-7.39h-12.67v7.39h12.67Z"/>
      <path class="cls-1" d="M140.68,208.03c-1.8,1.52-4.08,2.77-6.83,3.75l-.8-1.07c3.11-1.15,5.32-2.32,6.62-3.5l1.01,.82Zm12.68-1.85l-1.08,.73c-.37-.56-.84-1.19-1.42-1.88-3.11,.33-5.26,.54-6.46,.64v6.08c0,.35-.12,.65-.35,.89s-.5,.39-.79,.46-.82,.09-1.61,.09c-.44,0-.84-.01-1.22-.04l-.53-1.27c.45,.02,.91,.04,1.39,.04,.82,0,1.32-.02,1.51-.06s.28-.22,.28-.55v-5.52c-3.52,.22-6.16,.36-7.95,.42l-.38-1.05c2.93-1.06,5.81-2.35,8.64-3.86-2.77,.16-5.25,.27-7.42,.33l-.32-.88c3.62-1.32,6.52-2.98,8.7-4.97l1.2,.69c-1.66,1.44-3.65,2.73-5.98,3.87,.78-.03,1.53-.06,2.24-.1s1.42-.08,2.1-.13c1.32-.11,2.05-.21,2.19-.29,1.03-.65,2.03-1.35,2.99-2.1l1.11,.77c-2.57,1.98-6.43,4.11-11.58,6.41,3.88-.14,7.62-.45,11.24-.91-.37-.42-.98-1-1.83-1.75l1.08-.73c1.8,1.62,3.2,3.18,4.21,4.65Zm-7.32-13.38c-2.23,2.02-5.59,3.62-10.08,4.79l-.96-1.1c4.46-.97,7.78-2.43,9.96-4.39l1.08,.7Zm7.92,18l-.82,1.03c-1.73-1.43-3.74-2.68-6.05-3.75l.82-1.01c2.3,1.09,4.31,2.34,6.05,3.73Z"/>
      <path class="cls-1" d="M162.15,202.9c-.28,2.4-.77,4.62-1.46,6.67l-1.23-.53c.71-1.7,1.21-3.86,1.51-6.48l1.18,.34Zm4.84-1.56h-2.73v11.85h-1.25v-11.85h-3.38v-1.23h3.38v-7.9h1.25v7.9h2.73v1.23Zm-4.77-3.25l-1.18,.53c-.2-1.16-.62-2.54-1.24-4.12l1.05-.53c.48,1.02,.93,2.39,1.37,4.12Zm5.3-3.74c-.21,1.16-.65,2.65-1.31,4.49l-1.18-.53c.56-1.2,1.02-2.68,1.37-4.42l1.12,.46Zm.36,12.94l-1.15,.57c-.31-1.5-.82-3.05-1.51-4.66l1.03-.55c.7,1.54,1.24,3.09,1.63,4.64Zm11.45,4.29c0,.52-.19,.92-.58,1.18s-1.17,.4-2.35,.4c-.41,0-.85-.02-1.3-.05l-.4-1.22c.59,.04,1.29,.06,2.1,.06,.55,0,.9-.05,1.06-.16s.24-.26,.24-.45v-1.92h-8.32c-.47,1.53-1.13,2.79-1.99,3.79l-1.08-.81c1.44-1.48,2.16-3.64,2.16-6.5v-3.64h10.46v9.33Zm1.1-10.77h-12.57v-1.18h5.68v-1.68h-4.82v-1.1h4.82v-1.64h-5.16v-1.17h5.16v-1.85h1.23v1.85h5.2v1.17h-5.2v1.64h4.65v1.1h-4.65v1.68h5.66v1.18Zm-2.33,7.38v-1.82h-7.99c0,.57-.04,1.18-.12,1.82h8.11Zm0-3.02v-1.75h-7.99v1.75h7.99Z"/>
      <path class="cls-1" d="M206.9,212.11h-20.98v-1.24h9.82v-16.35h-8.81v-1.32h18.87v1.32h-8.75v16.35h9.86v1.24Z"/>
      <path class="cls-1" d="M233.23,206.02h-10.79c-1.02,.95-2.18,1.79-3.48,2.52v3.09c1.68-.28,3.34-.68,4.99-1.2v1.24c-2.33,.65-4.43,1.14-6.32,1.46l-.41-1.1c.32-.13,.48-.37,.48-.71v-2.04c-1.75,.84-3.26,1.4-4.54,1.7l-.67-1.15c3.16-.77,5.88-2.04,8.16-3.82h-8.33v-1.17h10.16c-.12-.23-.27-.5-.46-.82l1.15-.46c.2,.34,.41,.77,.64,1.28h9.41v1.17Zm-7.17-8.4h-6.05v1.37h4.82v2.64c0,.3-.12,.59-.36,.87s-.5,.41-.76,.41l-2.36,.07-.38-1.17c.34,.02,.68,.04,1.04,.04,.74,0,1.19-.04,1.34-.13s.23-.24,.23-.47v-1.12h-3.57v3.7h-1.25v-3.7h-3.81v2.86h-1.28v-3.98h5.09v-1.37h-6.39v-1.15h6.39v-1.46h-3.94c-.18,.31-.42,.62-.71,.94l-1.15-.53c.89-.91,1.56-1.96,2.02-3.14l1.15,.38c-.25,.55-.46,.96-.62,1.25h3.26v-1.66h1.25v1.66h5.06v1.1h-5.06v1.46h6.05v1.15Zm7.12,14.57l-.74,1.09c-4.05-1.41-6.74-3.46-8.07-6.13l1.11-.46c.52,.91,1.19,1.75,2.02,2.5,1.55-.77,2.8-1.61,3.74-2.52l.96,.8c-.76,.74-1.98,1.58-3.67,2.52,1.05,.77,2.6,1.5,4.65,2.2Zm-4.44-12.12h-1.27v-6.69h1.27v6.69Zm3.84,1.44c0,.58-.22,1.02-.67,1.32s-1.79,.42-4.04,.35l-.38-1.24c1.41,0,2.34,0,2.81,.01s.76-.06,.87-.22,.17-.3,.17-.44v-9.06h1.23v9.27Z"/>
      <path class="cls-1" d="M259.75,211.54l-.23,1.23c-.8,.02-3.68,.02-8.61,.02-4.07,0-6.96-.88-8.67-2.65-.96,1.34-1.89,2.4-2.78,3.18l-.94-.84c2.23-1.82,3.79-4.38,4.68-7.68h-4.03v-1.11c1.1-1.33,2.34-2.96,3.73-4.91h-4.18v-1.25h5.79v1.25c-.7,.98-1.89,2.6-3.6,4.84h3.62v1.18c-.42,1.58-.99,3.02-1.71,4.34,.82,.79,1.71,1.36,2.67,1.71s1.97,.56,3.03,.64,3.2,.12,6.43,.12c2.41,0,4.01-.02,4.82-.07Zm-16.1-15.71l-.94,.83c-1-1.31-2.18-2.5-3.53-3.55l.87-.89c1.51,1.14,2.71,2.34,3.6,3.61Zm15.82,5.39h-14.17v-1.17h6.61v-3.46h-3.87c-.72,1.11-1.22,1.86-1.51,2.24l-1.03-.66c1.31-1.64,2.3-3.51,2.95-5.61l1.17,.27c-.32,1.05-.65,1.92-.98,2.59h3.27v-3.18h1.22v3.18h5.18v1.17h-5.18v3.46h6.34v1.17Zm-1.44,7.8h-10.92v-5.75h10.92v5.75Zm-1.25-1.17v-3.36h-8.41v3.36h8.41Z"/>
      <path class="cls-1" d="M274.15,213.19h-1.24v-1.7h-5.31v1.7h-1.29v-10.51h7.84v10.51Zm-1.27-2.92v-6.34h-5.29v6.34h5.29Zm10.08-10.32h-14.13v-7.12h14.13v7.12Zm-1.25-1.2v-4.71h-11.61v4.71h11.61Zm3.18,14.44h-1.28v-1.7h-5.34v1.7h-1.28v-10.51h7.9v10.51Zm-1.28-2.92v-6.34h-5.34v6.34h5.34Z"/>
      <path class="cls-1" d="M301.56,197.18h-2.71v2.29h-1.25v-2.29h-3.19c-.39,1.62-1.08,2.81-2.06,3.59l-.87-.87c1.26-1.02,1.89-2.75,1.89-5.19,0-.38-.01-.83-.04-1.34,2.82-.17,5.14-.51,6.96-1.01l.67,1.05c-1.9,.49-4.02,.83-6.36,1.01,0,.17-.02,.71-.07,1.63h7.03v1.12Zm7.88,12.34h-10.22l.6,.87c-2.18,1.33-4.75,2.25-7.71,2.78l-.62-1.05c3.13-.63,5.59-1.5,7.37-2.59h-4.25v-9.23h14.84v9.23Zm-1.22-6.57v-1.51h-12.34v1.51h12.34Zm0,2.68v-1.58h-12.34v1.58h12.34Zm0,2.79v-1.71h-12.34v1.71h12.34Zm4.03-11.24h-3.7v2.31h-1.2v-2.31h-3.6c-.38,1.16-.9,2.02-1.56,2.6l-.91-.82c1.07-.9,1.61-2.43,1.61-4.58,0-.29,0-.61-.02-.96,2.43-.07,4.99-.43,7.68-1.08l.66,1.05c-2.62,.57-5,.93-7.14,1.08,0,.69-.02,1.21-.07,1.58h8.26v1.12Zm.16,15.05l-.64,1.04c-2.14-.8-4.61-1.47-7.42-1.99l.69-1.11c3.16,.65,5.61,1.34,7.37,2.06Z"/>
      <path class="cls-1" d="M327.99,204.94c-.58-.3-.87-.69-.87-1.16,0-.23,.1-.46,.29-.7s.47-.36,.83-.36c.75,0,1.12,.49,1.12,1.48,0,.8-.47,1.58-1.42,2.33l-.5-.39c.36-.48,.54-.88,.54-1.21Z"/>
      <path class="cls-1" d="M364.97,206.57c-.15,2.77-.45,4.46-.91,5.06s-1.18,.94-2.14,1.02-3.75,.12-8.34,.12c-2.05,0-3.54,0-4.45-.03s-1.56-.24-1.95-.66-.58-1.06-.58-1.91v-11.85h1.29v3.05h13.97v-7.18h-16.77v-1.29h18.05v9.71h-15.25v7.95c0,.23,.08,.44,.25,.63s.36,.3,.59,.32,1.54,.04,3.96,.04c5.98,0,9.3-.11,9.94-.32s1-1.92,1.06-5.1l1.3,.46Z"/>
      <path class="cls-1" d="M381.34,194.38c-.61,3.63-1.81,6.34-3.62,8.13s-3.95,3.12-6.45,3.99l-.62-1.1c3.23-1.12,5.63-2.8,7.18-5.02-.94-1-2.06-1.95-3.36-2.86-1.14,1.39-2.16,2.38-3.05,2.98l-.89-.89c2.19-1.49,4.04-3.98,5.57-7.46l1.15,.39c-.16,.48-.45,1.1-.86,1.85h4.95Zm-6.2,13.56c-1.16,2.2-2.35,3.95-3.57,5.23l-.94-.88c1.16-1.2,2.31-2.87,3.43-5.02l1.08,.67Zm.75-6.64c-1.31,.55-2.59,1-3.82,1.34l-.34-1.12c1.55-.48,2.85-.96,3.89-1.44l.27,1.23Zm3.94-5.74h-4.07c-.12,.26-.33,.6-.62,1.03,1.12,.76,2.23,1.65,3.34,2.67,.61-1.04,1.06-2.27,1.35-3.7Zm-.2,17.33l-1.27,.33c-.12-2.05-.38-3.81-.77-5.27l1.22-.36c.47,1.71,.74,3.48,.82,5.31Zm11.45-13.88h-5.25c-.46,3.63-2.72,6.14-6.77,7.54l-.75-1.03c3.88-1.28,5.96-3.45,6.22-6.5h-3.07v-1.17h3.19c.1-1.24,.18-3.12,.25-5.65h1.2c-.03,1.89-.09,3.77-.19,5.65h5.18v1.17Zm-5.54,13.76l-1.23,.47c-.3-1.52-.93-3.27-1.86-5.27l1.2-.46c.76,1.59,1.39,3.34,1.9,5.26Zm6.05-7.16l-.94,.94c-1.09-1.64-2.56-3.3-4.42-4.97l1.01-.76c1.55,1.39,3,2.99,4.35,4.79Zm-1.08-9.67l-1.1,.62c-.56-1.2-1.2-2.19-1.92-2.95l1.1-.62c.81,.93,1.45,1.91,1.92,2.95Zm.98,16.77l-1.15,.63c-.64-1.66-1.59-3.44-2.86-5.36l1.12-.57c1.16,1.77,2.12,3.53,2.88,5.3Z"/>
      <path class="cls-1" d="M417.96,208.51c-.12,1.38-.38,2.53-.77,3.45s-.88,1.39-1.45,1.39c-.61,0-1.34-.52-2.18-1.55s-1.46-2.1-1.84-3.2c-1.81,1.84-3.71,3.4-5.71,4.69l-.94-.98c2.66-1.72,4.7-3.42,6.12-5.1-.77-2.82-1.27-6.07-1.49-9.76h-8.87v3.26h6.41c-.02,1.98-.12,3.75-.29,5.3s-.36,2.51-.56,2.87-.5,.64-.87,.85-1.08,.31-2.12,.31c-.32,0-.71-.01-1.18-.04l-.4-1.3c.55,.09,1.1,.13,1.63,.13,.68,0,1.13-.05,1.35-.16s.39-.24,.53-.4,.29-.91,.46-2.26,.26-2.7,.26-4.05h-5.18c-.15,4.4-1.09,8.21-2.81,11.43l-.98-.89c1.71-3.09,2.57-7.02,2.57-11.81v-4.46h9.98c-.06-1.75-.09-3.09-.09-4.03h1.25c0,1.23,.04,2.57,.12,4.03h6.62v1.23h-6.57c.12,3.09,.52,5.96,1.2,8.61,1.34-1.84,2.43-4.05,3.25-6.64l1.27,.41c-1.12,3.07-2.48,5.65-4.05,7.75,.44,1.24,.99,2.28,1.66,3.1s1.12,1.24,1.34,1.24c.24,0,.49-.45,.73-1.36s.37-1.8,.37-2.68l1.28,.64Zm-1.3-13.39l-1.08,.77c-.7-.84-1.61-1.68-2.75-2.52l1.01-.82c1.1,.73,2.04,1.59,2.82,2.57Z"/>
      <path class="cls-1" d="M443.88,204c0,1.55-.08,3.05-.25,4.52s-.33,2.42-.5,2.85-.4,.79-.71,1.08-.73,.51-1.26,.65-1.38,.21-2.53,.21l-.48-1.37c.36,.03,1.1,.05,2.23,.05,.39,0,.73-.09,1.01-.26s.48-.42,.6-.74,.25-.98,.39-2,.23-2.27,.27-3.77h-14.74c-1.12,1.34-2.38,2.59-3.76,3.73l-.73-1.17c3.72-2.95,6.16-6.56,7.32-10.83h-6.39v-1.25h6.67c.36-1.59,.59-2.79,.7-3.6l1.22,.27c-.12,.88-.32,1.99-.62,3.33h8.84c-.23,1.35-.52,2.75-.84,4.18h2.38c-.15,1.29-.39,2.66-.73,4.12h1.92Zm-14.57-9.39l-1.1,.68c-.54-.81-1.21-1.64-2.02-2.47l1.08-.68c.78,.79,1.46,1.61,2.04,2.47Zm.62,12.48c-.67,2.23-1.53,4.16-2.57,5.79l-1.15-.62c.99-1.46,1.86-3.29,2.59-5.47l1.12,.3Zm11.26-6h-10.69c-.41,.86-.97,1.83-1.7,2.91h11.86c.22-1.08,.39-2.05,.53-2.91Zm-1.54-4.15h-7.64c-.24,.91-.57,1.89-.98,2.93h7.97c.21-.84,.43-1.81,.66-2.93Zm-6.25,15.6l-1.32,.25c.06-1.59-.14-3.51-.62-5.74l1.18-.26c.38,1.69,.63,3.61,.76,5.75Zm3.82-1.27l-1.23,.45c-.27-1.65-.71-3.22-1.31-4.72l1.15-.39c.52,1.37,.99,2.92,1.39,4.66Zm3.43-1.32l-1.14,.53c-.34-1.12-.86-2.34-1.58-3.67l1.08-.53c.61,1.05,1.16,2.28,1.64,3.67Z"/>
      <path class="cls-1" d="M454.82,198.89l-1.15,2.18v12.12h-1.18v-10.2c-.66,1-1.29,1.82-1.89,2.47l-.91-.87c1.55-1.69,2.95-3.82,4.2-6.39l.94,.68Zm.34-6.18c-1.63,2.41-3.11,4.18-4.42,5.33l-1.01-.74c1.52-1.35,2.98-3.05,4.39-5.1l1.03,.5Zm10.65,17.7h-4.3v2.8h-1.2v-2.8h-4.65l.48-3.41h-.94v-1.12h5.11v-1.66h-4.05v-4.27h8.47v4.27h-3.22v1.66h3.91v1.12h-3.91v2.29h4.3v1.12Zm.19-12.18h-10.75v-1.12h3.32l.57-2.06h-2.93v-1.15h3.16l.41-1.61h1.2l-.38,1.61h3.81v3.21h1.58v1.12Zm-5.68,11.05v-2.29h-2.98l-.3,2.29h3.28Zm3.16-6.25v-1.99h-6.02v1.99h6.02Zm-.26-5.93v-2.06h-2.86l-.5,2.06h3.36Zm7.51,3.36h-1.44v11.02c0,.48-.12,.87-.38,1.16s-.51,.45-.77,.47-.94,.04-2.02,.04l-.34-1.22c.31,.02,.62,.04,.91,.04,.64,0,1.04-.05,1.2-.15s.24-.28,.24-.53v-10.83h-2.47v-1.22h5.06v1.22Zm-.29-6.16h-4.38v-1.23h4.38v1.23Z"/>
      <path class="cls-1" d="M480.91,201.69l-.74,1.03c-.96-.98-2.25-2.01-3.87-3.07l.77-1.01c1.48,.95,2.75,1.97,3.83,3.05Zm.41,3.84c-1.23,3.02-2.55,5.54-3.98,7.58l-.94-.91c1.38-1.95,2.68-4.41,3.89-7.38l1.03,.71Zm.43-10.22l-.79,.96c-1.12-1.14-2.39-2.18-3.8-3.11l.8-1.03c1.27,.86,2.53,1.92,3.79,3.18Zm15.57,8.54l-.79,1.05c-3.41-2.41-5.83-4.67-7.25-6.8-1.89,2.37-4.35,4.6-7.37,6.7l-.9-.87c3.88-2.66,6.59-5.28,8.13-7.85l1.12,.46c-.05,.11-.12,.26-.23,.46,1.73,2.59,4.16,4.88,7.29,6.84Zm-9.28-10.97c-1.8,2.1-3.59,3.74-5.36,4.92l-.96-.89c1.81-1.18,3.59-2.79,5.33-4.83l.98,.8Zm6.41,20.32h-1.25v-1.61h-7.92v1.61h-1.27v-9.16h10.44v9.16Zm-1.25-2.82v-5.09h-7.92v5.09h7.92Zm3.57-13.42l-.83,.87c-1.66-1.85-3.52-3.44-5.6-4.76l.82-.91c2.39,1.58,4.26,3.18,5.61,4.8Z"/>
      <path class="cls-1" d="M523.75,206.54l-.71,1.12c-3.7-1.39-6.44-3.31-8.24-5.75h-3.3c-1.89,2.39-4.62,4.25-8.19,5.57l-.62-1.12c3.22-1.1,5.64-2.58,7.28-4.44h-5.19v-9.16h16.9v9.16h-5.27c1.48,1.94,3.93,3.48,7.36,4.63Zm-14.04-1.32c.23,4.12-1.52,6.78-5.23,7.99l-.77-1.08c.93-.26,1.79-.67,2.57-1.25s1.35-1.23,1.69-1.96,.52-1.97,.52-3.71h1.22Zm2.86-8.54v-2.73h-6.55v2.73h6.55Zm0,4.03v-2.85h-6.55v2.85h6.55Zm7.83-4.03v-2.73h-6.55v2.73h6.55Zm0,4.03v-2.85h-6.55v2.85h6.55Zm-2.93,12.48h-1.3v-7.97h1.3v7.97Z"/>
      <path class="cls-1" d="M548.66,206.04h-8.45v7.2h-1.27v-7.2h-8.5v-9.55h8.5v-4.25h1.27v4.25h8.45v9.55Zm-9.71-1.29v-6.98h-7.23v6.98h7.23Zm8.43,0v-6.98h-7.16v6.98h7.16Z"/>
      <path class="cls-1" d="M563.81,212.73h-1.21v-2.06h-5.18v2.54h-1.22v-17.02h2.23c.6-1.07,1.17-2.45,1.71-4.12l1.2,.25c-.28,.84-.82,2.14-1.63,3.88h4.1v16.54Zm-1.21-10.17v-5.16h-5.18v5.16h5.18Zm0,6.89v-5.68h-5.18v5.68h5.18Zm13.23-13.23c-.09,3.59-.27,6.93-.52,10.02s-.51,4.9-.77,5.45-.59,.94-.99,1.17-1.17,.35-2.29,.35c-.49,0-1.14-.01-1.93-.04l-.39-1.22c.66,.02,1.36,.04,2.12,.04,.71,0,1.17,0,1.37-.02s.41-.12,.63-.3,.38-.4,.47-.64,.22-1.17,.38-2.76,.29-3.35,.39-5.27,.18-3.78,.22-5.58h-6.26c-.84,1.66-1.8,3.25-2.91,4.75l-.98-.69c2.1-2.76,3.59-5.83,4.46-9.22l1.22,.32c-.39,1.28-.83,2.5-1.31,3.67h7.1Zm-4.42,10.76l-1.01,.71c-.77-1.78-1.93-3.64-3.48-5.59l1.03-.67c1.44,1.73,2.59,3.58,3.46,5.54Z"/>
      <path class="cls-1" d="M20.45,261.21h-1.28v-1.56H7.83v1.58h-1.32v-8.32c-1.86,.68-3.39,1.19-4.58,1.54l-.73-1.17c3.76-1.02,6.96-2.24,9.61-3.68-.96-1.38-2.29-2.8-3.98-4.24-1.21,.79-2.56,1.56-4.05,2.32l-1.03-1.03c3.62-1.55,6.65-3.75,9.09-6.57l1.24,.57c-.34,.42-.78,.89-1.31,1.39h9.33v1.05c-2.6,3.5-6.11,6.35-10.54,8.54h10.9v9.57Zm-1.28-2.8v-5.5H7.83v5.5h11.34Zm-.96-15.07H9.46c-.54,.46-1.07,.89-1.61,1.29,1.56,1.39,2.92,2.82,4.08,4.28,2.53-1.61,4.62-3.46,6.28-5.57Z"/>
      <path class="cls-1" d="M34.64,261.23h-1.23v-8.89h-3.02c-.13,3.73-.73,6.71-1.8,8.95l-1.12-.59c1.17-2.38,1.76-5.27,1.76-8.66v-11.57h1.2v5.71h2.86v-5.92h1.2v7.2h-4.05v3.69h4.23v10.08Zm13.77-4.38h-3.82v4.38h-1.22v-4.38h-7.72v-1.25h7.72v-3.71h-1.95c-.93,1.43-2.21,2.52-3.84,3.26l-.81-1.01c1.4-.65,2.45-1.4,3.14-2.25h-3.43v-9.29h2.81c.38-.55,.8-1.37,1.27-2.47l1.25,.32c-.21,.49-.56,1.21-1.05,2.16h6.41v9.29h-2.58v3.71h3.82v1.25Zm-7.22-13.05h-3.48v2.75h3.46c.03-1.16,.04-2.07,.02-2.75Zm-.08,3.93h-3.4v2.95h2.87c.28-.96,.46-1.95,.53-2.95Zm4.83,2.95v-2.95h-3.57c-.12,1.22-.29,2.2-.53,2.95h4.1Zm0-4.12v-2.75h-3.5c0,.84-.02,1.76-.05,2.75h3.55Z"/>
      <path class="cls-1" d="M56.55,250.9c-.28,2.4-.77,4.62-1.46,6.67l-1.23-.53c.71-1.7,1.21-3.86,1.51-6.48l1.18,.34Zm4.84-1.56h-2.73v11.85h-1.25v-11.85h-3.38v-1.23h3.38v-7.9h1.25v7.9h2.73v1.23Zm-4.77-3.25l-1.18,.53c-.2-1.16-.62-2.54-1.24-4.12l1.05-.53c.48,1.02,.93,2.39,1.37,4.12Zm5.3-3.74c-.21,1.16-.65,2.65-1.31,4.49l-1.18-.53c.56-1.2,1.02-2.68,1.37-4.42l1.12,.46Zm.36,12.94l-1.15,.57c-.31-1.5-.82-3.05-1.51-4.66l1.03-.55c.7,1.54,1.24,3.09,1.63,4.64Zm11.45,4.29c0,.52-.19,.92-.58,1.18s-1.17,.4-2.35,.4c-.41,0-.85-.02-1.3-.05l-.4-1.22c.59,.04,1.29,.06,2.1,.06,.55,0,.9-.05,1.06-.16s.24-.26,.24-.45v-1.92h-8.32c-.47,1.53-1.13,2.79-1.99,3.79l-1.08-.81c1.44-1.48,2.16-3.64,2.16-6.5v-3.64h10.46v9.33Zm1.1-10.77h-12.57v-1.18h5.68v-1.68h-4.82v-1.1h4.82v-1.64h-5.16v-1.17h5.16v-1.85h1.23v1.85h5.2v1.17h-5.2v1.64h4.65v1.1h-4.65v1.68h5.66v1.18Zm-2.33,7.38v-1.82h-7.99c0,.57-.04,1.18-.12,1.82h8.11Zm0-3.02v-1.75h-7.99v1.75h7.99Z"/>
      <path class="cls-1" d="M89.35,261.19h-1.24v-1.7h-5.31v1.7h-1.29v-10.51h7.84v10.51Zm-1.27-2.92v-6.34h-5.29v6.34h5.29Zm10.08-10.32h-14.13v-7.12h14.13v7.12Zm-1.25-1.2v-4.71h-11.61v4.71h11.61Zm3.18,14.44h-1.28v-1.7h-5.34v1.7h-1.28v-10.51h7.9v10.51Zm-1.28-2.92v-6.34h-5.34v6.34h5.34Z"/>
      <path class="cls-1" d="M117.15,248.37c.67,0,1.25,.23,1.72,.69s.71,1.04,.71,1.73-.22,1.27-.66,1.72-1,.68-1.69,.68c-.62,0-1.18-.2-1.66-.6s-.72-1.02-.72-1.85c0-.77,.24-1.36,.73-1.77s1.01-.61,1.55-.61Zm1.45,2.44c0-.41-.14-.75-.42-1s-.62-.38-1.02-.38-.72,.14-.98,.42-.39,.6-.39,.97c0,.34,.12,.67,.38,.97s.59,.46,1.02,.46c.41,0,.74-.13,1.01-.4s.4-.61,.4-1.03Z"/>
    </g>
  </g>
</svg>