<?xml version="1.0" encoding="UTF-8"?>
<svg id="_圖層_2" data-name="圖層 2" xmlns="http://www.w3.org/2000/svg" viewBox="0 0 151.13 34.74">
  <defs>
    <style>
      .cls-1 {
        fill: #fff;
      }
    </style>
  </defs>
  <g id="_圖層_1-2" data-name="圖層 1">
    <g>
      <path class="cls-1" d="M94.24,1.69c5.34,0,10.68,.03,16.02-.02,1.06,0,1.44,.24,1.42,1.36-.06,3.25-.03,6.5,.03,9.76,.02,.9-.16,1.33-1.18,1.24-1.08-.1-2.39,.31-3.19-.18-.72-.44-.45-1.87-.63-2.86-.61-3.31-4.6-5.74-7.69-4.75-.51,.16-.45,.49-.45,.83-.06,7.12-.1,14.25-.18,21.37,0,.78,.41,.8,.97,.79,1.56-.02,3.11,.03,4.67-.03,.76-.03,.94,.24,.97,.97,.17,3.61,.19,3.62-3.34,3.6-5.65-.03-11.3-.12-16.95-.12-1,0-1.32-.25-1.32-1.28,.02-3.14-.03-3.14,3.15-3.14q3.39,0,3.39-3.31c0-6.14-.02-12.29,.03-18.43,0-1.11-.3-1.35-1.4-1.29-4.69,.23-6.76,2.15-7.03,6.83-.05,.85-.34,.99-1.1,1.01-3.56,.09-3.55,.12-3.57-3.36-.01-2.53,.02-5.06-.11-7.59-.07-1.23,.35-1.44,1.47-1.43,5.34,.06,10.68,.02,16.02,.02v.03Z"/>
      <path class="cls-1" d="M17.57,1.86c5.34,0,10.68,.03,16.01-.02,1.04-.01,1.29,.3,1.28,1.3-.03,3.25,0,6.5,.09,9.75,.03,.96-.24,1.29-1.21,1.21-1.03-.08-2.2,.26-3.07-.12-1.08-.46-.41-1.82-.64-2.76-.86-3.49-4.34-5.76-7.76-4.96-.64,.15-.51,.55-.51,.92-.02,7.07,0,14.14-.04,21.21,0,.83,.38,.9,1.04,.89,1.5-.04,3.01,0,4.51-.05,.72-.02,.97,.19,1.01,.95,.22,3.67,.24,3.68-3.39,3.67-5.6,0-11.19-.05-16.79-.02-1.06,0-1.42-.25-1.42-1.36,.02-3.18-.03-3.18,3.15-3.18s3.27,0,3.29-3.29c.03-6.14,.02-12.28,.11-18.42,.01-1.09-.25-1.39-1.36-1.33-3.8,.23-6.79,1.6-7,6.52-.05,1.07-.41,1.35-1.47,1.34-3.2-.04-3.21,0-3.28-3.22C.08,8.29,.11,5.71,0,3.14c-.05-1.11,.34-1.37,1.4-1.36,5.39,.05,10.78,.02,16.17,.02,0,.02,0,.04,0,.06Z"/>
      <path class="cls-1" d="M62.85,1.14C59.13,.06,55.33-.22,51.5,.44c-5.14,.89-9.54,3.03-12.42,7.59-4.88,7.72-2.68,23.35,11.27,26.13,3.98,.79,7.92,.8,11.84-.19,7.8-1.98,12.16-8.12,12.16-17,0-8.02-4.08-13.69-11.5-15.83Zm1.23,22.57c-.95,3.53-4.2,5.9-8.11,6.01-3.84,.11-7.65-2.5-8.71-5.97-.65-2.13-1.07-4.29-.96-6.63-.16-2.1,.34-4.21,1-6.27,.99-3.09,3.35-4.62,6.39-5.14,1.83-.31,3.71-.23,5.53,.35,3.49,1.11,4.98,3.7,5.52,7.11,.57,3.58,.27,7.08-.66,10.55Z"/>
      <path class="cls-1" d="M140.06,1.18c-3.95-1.26-8.01-1.49-12.09-.77-6.35,1.12-11.45,4.07-13.51,10.51-2.08,6.54-1.17,12.76,3.46,18.05,3.81,4.35,8.97,5.6,14.55,5.6,.47,0,.93,.02,1.4,0,6.39-.31,11.83-2.37,15.08-8.31,1.57-2.86,2.08-6.01,2.18-9.22,.23-7.6-3.93-13.57-11.07-15.85Zm.82,21.95c-.99,3.81-3.97,6.27-7.74,6.41-4.3,.16-8.03-2.17-9.21-5.92-1.33-4.23-1.41-8.5,.03-12.73,1.29-3.79,5.44-6.17,9.5-5.48,1.84,.31,3.62,.76,5.14,1.95,2.35,1.85,2.63,4.54,2.99,7.19,.1,.76,.02,1.54,.02,2.32,.14,2.13-.18,4.21-.72,6.26Z"/>
    </g>
  </g>
</svg>