<?xml version="1.0" encoding="UTF-8"?>
<svg id="_圖層_2" data-name="圖層 2" xmlns="http://www.w3.org/2000/svg" viewBox="0 0 230.24 33.19">
  <defs>
    <style>
      .cls-1 {
        fill: #fff;
      }
    </style>
  </defs>
  <g id="_圖層_1-2" data-name="圖層 1">
    <g>
      <path class="cls-1" d="M0,3.48c1.15,.19,2.8,.28,4.96,.28H13.78c-.07-1.36-.21-2.61-.42-3.76,1.15,.12,2.61,.33,4.39,.63,1.41,.23,2.11,.49,2.11,.77,0,.38-.39,.72-1.16,1.02-.56,.16-.84,.47-.84,.91v.42h7.07c.07-.05,.45-.47,1.12-1.27,.8-1.01,1.27-1.51,1.41-1.51,.42,0,1.09,.48,2,1.44,.91,.98,1.37,1.58,1.37,1.79,0,.35-.19,.53-.56,.53h-12.41v3.23h5.66c.07-.02,.45-.46,1.12-1.3,.8-1.01,1.27-1.51,1.41-1.51,.42,0,1.09,.49,2,1.48,.91,.96,1.37,1.56,1.37,1.79,0,.38-.19,.56-.56,.56H7.31c-2.04,0-3.49,.05-4.36,.14l-.56-1.44c1.15,.19,2.79,.28,4.92,.28h6.5v-3.23H4.96c-2.04,0-3.49,.05-4.36,.14l-.6-1.41Zm9.88,13.78c1.62,.35,2.72,.66,3.3,.91,.8,.35,1.2,.67,1.2,.95,0,.89-.21,1.61-.63,2.14-.07,.07-.16,.14-.28,.21h4.5c.4-1.29,.7-2.69,.91-4.22,1.08,.4,2.12,.79,3.13,1.16,1.01,.4,1.51,.82,1.51,1.27,0,.16-.25,.28-.74,.35-.49,.05-.76,.11-.81,.18-.61,.47-1.31,.89-2.11,1.27h5.45c.09-.02,.49-.48,1.2-1.37,.84-1.05,1.35-1.58,1.51-1.58,.45,0,1.14,.52,2.07,1.55,.94,1.01,1.41,1.63,1.41,1.86,0,.38-.22,.56-.67,.56H4.96c-2.04,0-3.49,.05-4.36,.14l-.6-1.41c1.15,.16,2.8,.25,4.96,.25h5.98c-.09-.21-.19-.52-.28-.91-.14-.94-.54-1.89-1.2-2.85l.42-.46Zm-5.52,6.05c1.45,.4,2.92,.93,4.39,1.58h13.32c.45-.44,.81-.82,1.09-1.12,.3-.3,.61-.46,.91-.46,.4,0,1.11,.38,2.14,1.12,1.2,.8,1.79,1.36,1.79,1.69,0,.28-.2,.56-.6,.84-.4,.23-.63,.47-.7,.7v3.83c0,.44-.61,.78-1.83,1.02-.59,.07-1.01,.11-1.27,.11-.63,0-.95-.33-.95-.98v-.42H8.72v.56c0,.47-.62,.81-1.86,1.02-.56,.07-.97,.11-1.23,.11-.75,0-1.12-.38-1.12-1.12,.12-.68,.18-1.43,.18-2.25v-3.09c0-.87-.11-1.91-.32-3.13Zm.6-13.5c1.38,.38,2.81,.9,4.29,1.58h12.45c.4-.56,.76-1.03,1.09-1.41,.28-.4,.56-.6,.84-.6,.42,0,1.12,.36,2.11,1.09,1.15,.75,1.72,1.29,1.72,1.62,0,.21-.19,.45-.56,.7-.33,.23-.52,.47-.56,.7v3.94c0,.4-.6,.69-1.79,.88-.54,.05-.93,.07-1.16,.07-.68,0-1.02-.32-1.02-.95v-.46H9v.46c0,.45-.6,.77-1.79,.98-.49,.07-.87,.11-1.12,.11-.75,0-1.12-.36-1.12-1.09,.09-.68,.14-1.43,.14-2.25v-2.25c0-.87-.05-1.91-.14-3.13Zm3.76,20.43h13.96v-4.39H8.72v4.39Zm13.64-14.2v-3.69H9v3.69h13.36Z"/>
      <path class="cls-1" d="M42.13,24.19c1.24,.35,2.33,.66,3.27,.91,1.22,.33,1.83,.62,1.83,.88,0,.33-.36,.54-1.09,.63-.59,.07-.94,.2-1.05,.39-.68,1.27-1.42,2.31-2.21,3.13-.89,.98-2.07,1.96-3.55,2.92l-.28-.56c.56-.87,1.15-2.07,1.76-3.62,.52-1.24,.96-2.8,1.34-4.68Zm-1.93-22.78c1.64,.38,3.18,.89,4.61,1.55h2.99c.4-.42,.77-.81,1.12-1.16,.52-.54,.88-.81,1.09-.81,.42,0,1.16,.36,2.21,1.09,1.24,.98,1.86,1.65,1.86,2,0,.3-.27,.65-.81,1.02-.49,.45-.74,.84-.74,1.2V15.43l.28,7.21c0,.45-.66,.79-1.97,1.02-.56,.07-.98,.11-1.27,.11-.66,0-.98-.37-.98-1.12v-.56h-4.18v.7c0,.47-.61,.81-1.83,1.02-.52,.07-.89,.11-1.12,.11-.84,0-1.27-.37-1.27-1.12,.16-2.74,.25-5.14,.25-7.21V7.84c0-1.76-.08-3.9-.25-6.43Zm4.22,7.03h4.18V3.94h-4.18v4.5Zm0,6.33h4.18v-5.38h-4.18v5.38Zm0,6.33h4.18v-5.38h-4.18v5.38Zm3.76,3.34c1.95,.96,3.27,1.81,3.97,2.53,.94,.98,1.41,1.84,1.41,2.57,0,.8-.19,1.44-.56,1.93-.47,.47-1,.7-1.58,.7-.52,0-.9-.11-1.16-.32-.28-.19-.53-.91-.74-2.18-.19-1.57-.76-3.16-1.72-4.78l.39-.46ZM68.18,6.05c.28,0,1.11,.63,2.5,1.9,.87,.77,1.3,1.25,1.3,1.44,0,.4-.23,.6-.7,.6h-7.91v8.54h1.16c.52-.61,1-1.15,1.44-1.62,.33-.4,.64-.6,.95-.6,.28,0,.94,.32,1.97,.95,1.22,.82,1.83,1.39,1.83,1.72,0,.3-.25,.62-.74,.95-.38,.3-.56,.65-.56,1.02v6.43c0,1.1,.05,2.61,.14,4.54,0,.47-.59,.81-1.76,1.02-.52,.07-.91,.11-1.2,.11-.63,0-.95-.38-.95-1.12v-1.97h-8.05v2.07c0,.49-.54,.84-1.62,1.05-.47,.07-.81,.11-1.02,.11-.75,0-1.12-.39-1.12-1.16,.09-1.1,.14-2.21,.14-3.34v-7.07c0-1.62-.09-3.21-.28-4.78,1.52,.45,3.09,1.01,4.71,1.69h.91V3.2c0-1.03-.11-2.1-.32-3.2,1.66,.14,3.26,.35,4.78,.63,.96,.05,1.44,.3,1.44,.77,0,.14-.29,.34-.88,.6-.66,.26-.98,.57-.98,.95v6.05h1.86s.41-.41,1.09-1.23c.94-1.15,1.56-1.72,1.86-1.72Zm-10.58,22.89h8.05v-9.39h-8.05v9.39Z"/>
      <path class="cls-1" d="M83.42,12.48l.88,.14c0,4.52-.13,7.63-.39,9.32-.28,1.76-.75,3.01-1.41,3.76-.42,.38-.86,.56-1.3,.56-.8,0-1.46-.22-2-.67-.47-.4-.7-.96-.7-1.69s.46-1.59,1.37-2.6c.96-1.01,1.7-2.14,2.21-3.41,.56-1.2,1.01-3,1.34-5.41Zm4.11-4.78c1.15,.12,2.47,.28,3.97,.49,1.38,.21,2.07,.48,2.07,.81,0,.42-.36,.76-1.09,1.02-.47,.19-.71,.49-.74,.91v15.93c0,.84,.25,1.32,.74,1.44,1.01,.16,2.55,.25,4.64,.25,1.24,0,2.25-.13,3.02-.39,.61-.16,1.01-.45,1.2-.84,.16-.28,.38-.89,.63-1.83,.26-1.17,.54-2.73,.84-4.68l.88,.28c.07,2.02,.11,3.28,.11,3.8,0,1.24,.34,2.11,1.02,2.6,.82,.68,1.23,1.25,1.23,1.72,0,.77-.42,1.41-1.27,1.9-.68,.35-1.42,.59-2.21,.7-1.36,.23-3.18,.35-5.45,.35-3.49,0-5.82-.12-7-.35-.94-.21-1.59-.66-1.97-1.34-.26-.47-.39-1.3-.39-2.5V11.81c0-1.41-.08-2.78-.25-4.11Zm3.06-7.17c3.49,.87,5.92,1.79,7.28,2.78,1.17,.94,1.76,2.03,1.76,3.27,0,.63-.27,1.24-.81,1.83-.38,.4-.86,.6-1.44,.6-.91,0-1.71-.69-2.39-2.07-.87-2.02-2.41-3.95-4.64-5.8l.25-.6Zm12.69,11.67c2.84,1.81,4.83,3.41,5.98,4.82,1.08,1.38,1.62,2.6,1.62,3.66s-.3,1.96-.91,2.71c-.54,.7-1.17,1.05-1.9,1.05-.42,0-.8-.14-1.12-.42-.26-.33-.59-1.45-.98-3.38-.4-2.18-1.52-4.8-3.38-7.88l.7-.56Z"/>
      <path class="cls-1" d="M117.99,7.45c1.03,.16,2.48,.25,4.36,.25V3.48c0-.66-.09-1.82-.28-3.48,1.9,.26,3.12,.48,3.66,.67,1.5,.28,2.25,.61,2.25,.98,0,.33-.3,.63-.91,.91-.63,.14-.95,.4-.95,.77v3.8c.19-.21,.39-.43,.6-.67,.8-.96,1.27-1.44,1.41-1.44,.4,0,1.03,.47,1.9,1.41,.89,.94,1.34,1.5,1.34,1.69,0,.4-.2,.6-.6,.6h-4.64v6.19c1.83-.4,3.57-.82,5.24-1.27l.28,.53c-1.85,1.31-3.69,2.45-5.52,3.41v11.25c0,1.5-.45,2.54-1.34,3.13-1.01,.73-2.02,1.09-3.02,1.09-.26,0-.42-.34-.49-1.02-.12-1.08-1.08-2.14-2.88-3.2l.14-.7c1.36,.28,2.34,.42,2.95,.42s.88-.19,.88-.56v-8.61c-.28,.09-.56,.2-.84,.32-.26,.07-.45,.3-.56,.7-.09,.14-.19,.33-.28,.56-.16,.35-.41,.53-.74,.53-.28,0-.63-.9-1.05-2.71-.14-.49-.35-1.31-.63-2.46,1.43-.21,2.8-.44,4.11-.7v-6.89c-1.76,0-3.04,.05-3.83,.14l-.53-1.41Zm14.17,3.34c2.2,.68,3.9,1.34,5.1,1.97h2.5c.49-.52,.9-.94,1.23-1.27,.56-.54,1.01-.81,1.34-.81,.49,0,1.28,.43,2.36,1.3,1.05,.8,1.58,1.43,1.58,1.9,0,.38-.32,.76-.95,1.16-.7,.28-1.05,.66-1.05,1.12v10.55c0,.63,.11,1.03,.32,1.2,.21,.14,.6,.21,1.16,.21l.77-.11c.38,0,.68-.48,.91-1.44,.19-1.01,.46-2.37,.81-4.08l.7,.28,.28,2.67c0,.61,.26,1.29,.77,2.04,.7,.75,1.05,1.28,1.05,1.58,0,.94-.5,1.6-1.51,2-1.17,.47-2.44,.7-3.8,.7-2.32,0-3.6-.14-3.83-.42-1.03-.38-1.55-1.7-1.55-3.97V13.75h-3.83v4.78c0,2.39-.23,4.48-.7,6.26-.66,1.62-1.76,3.12-3.3,4.5-1.36,1.12-3.2,2.24-5.52,3.34l-.42-.6c2.25-1.73,3.76-3.38,4.54-4.92,1.01-1.9,1.51-4.76,1.51-8.58,0-3.56-.15-6.14-.46-7.73Zm4.5-10.79c1.57,.14,3.08,.33,4.54,.56,.91,.05,1.37,.28,1.37,.7,0,.16-.26,.38-.77,.63-.61,.28-.91,.63-.91,1.05v3.34h3.09c.12-.05,.54-.55,1.27-1.51,.89-1.12,1.42-1.69,1.58-1.69,.49,0,1.24,.54,2.25,1.62,1.03,1.1,1.55,1.77,1.55,2,0,.4-.23,.6-.7,.6h-14.2c-2.04,0-3.49,.05-4.36,.14l-.6-1.41c1.17,.16,2.82,.25,4.96,.25h1.27V3.09c0-1.01-.11-2.04-.32-3.09Z"/>
      <path class="cls-1" d="M158.4,9.39c2.13,.59,3.61,1.18,4.43,1.79,.7,.63,1.05,1.36,1.05,2.18,0,.7-.29,1.36-.88,1.97-.42,.47-.97,.7-1.65,.7-.42,0-.8-.53-1.12-1.58-.42-1.5-1.17-2.94-2.25-4.32l.42-.74Zm9.98-1.27l.74,.14c-1.29,4.71-2.26,8.39-2.92,11.04-.61,2.58-.91,4.34-.91,5.27,0,.68,.05,1.42,.14,2.21,.4,1.57,.6,2.8,.6,3.69,0,.68-.18,1.15-.53,1.41-.3,.4-.84,.6-1.62,.6-.89,0-1.57-.2-2.04-.6-.33-.26-.49-.73-.49-1.41,0-.47,.12-1.18,.35-2.14,.07-.75,.11-1.34,.11-1.76,0-.82-.15-1.46-.46-1.93-.33-.49-1.36-.94-3.09-1.34l.14-.81c1.71,0,2.82-.11,3.34-.32,.49-.3,.88-.86,1.16-1.65l5.48-12.41Zm-6.86-7.31c2.27,.56,3.86,1.17,4.75,1.83,.75,.59,1.12,1.29,1.12,2.11,0,.7-.29,1.37-.88,2-.42,.47-.96,.7-1.62,.7-.52,0-.95-.53-1.3-1.58-.49-1.5-1.34-2.94-2.53-4.32l.46-.74Zm7.28,9.6c1.17,.19,2.82,.28,4.96,.28h10.55c.09-.05,.49-.54,1.2-1.48,.82-1.08,1.31-1.62,1.48-1.62,.45,0,1.16,.53,2.14,1.58,1.01,1.03,1.51,1.66,1.51,1.9,0,.4-.25,.6-.74,.6h-11.32l-2.29,5.59h7.03c.59-.54,.98-.93,1.2-1.16,.68-.61,1.12-.91,1.34-.91,.38,0,1.15,.48,2.32,1.44,1.15,.91,1.72,1.55,1.72,1.9,0,.4-.33,.75-.98,1.05-.63,.26-.95,.53-.95,.81-1.08,4.99-1.95,8.09-2.6,9.28-.52,1.1-1.35,1.92-2.5,2.46-1.01,.52-1.89,.77-2.64,.77-.38,0-.76-.49-1.16-1.48-.42-1.17-2.1-2.43-5.03-3.76l.14-.67c2.39,.66,4.11,.98,5.17,.98s1.8-.38,2.18-1.12c.54-.98,1.31-3.84,2.32-8.58h-7.95l-.74,1.79c-.35,.68-1.24,1.02-2.67,1.02-1.31,0-1.97-.34-1.97-1.02l3.94-8.4h-.7c-2.04,0-3.49,.05-4.36,.14l-.6-1.41Zm2.29-7.59c1.12,.19,2.75,.28,4.89,.28h5.94c.07-.05,.46-.54,1.16-1.48,.87-1.08,1.37-1.62,1.51-1.62,.45,0,1.16,.53,2.14,1.58,.98,1.03,1.48,1.66,1.48,1.9,0,.4-.22,.6-.67,.6h-11.57c-2.04,0-3.49,.05-4.36,.14l-.53-1.41Z"/>
      <path class="cls-1" d="M210.41,3.48c-1.2,.35-2.55,.65-4.08,.88V13.89h.98c.07-.02,.41-.41,1.02-1.16,.77-.89,1.22-1.34,1.34-1.34,.4,0,.98,.43,1.76,1.3,.28,.3,.5,.56,.67,.77,0-1.45-.07-3.18-.21-5.17-.02,.07-.05,.12-.07,.14-1.03,1.36-2.44,2.61-4.22,3.76l-.6-.39c1.01-2.02,1.68-4.28,2-6.79,1.03,.38,1.98,.76,2.85,1.16,1.2,.4,1.79,.82,1.79,1.27,0,.14-.12,.27-.35,.39,.96,.26,1.86,.6,2.71,1.02h2.53V3.09c0-.96-.08-1.96-.25-2.99,1.52,.16,3,.36,4.43,.6,.89,.05,1.34,.28,1.34,.7,0,.14-.28,.34-.84,.6-.56,.26-.84,.57-.84,.95v5.91h1.69c.42-.42,.8-.81,1.12-1.16,.52-.54,.88-.81,1.09-.81,.42,0,1.15,.35,2.18,1.05,1.2,.91,1.79,1.54,1.79,1.86,0,.3-.27,.63-.81,.98-.4,.42-.6,.81-.6,1.16v12.94l.28,6.89c0,.47-.63,.81-1.9,1.02-.54,.07-.94,.11-1.2,.11-.68,0-1.02-.38-1.02-1.12v-2.11h-9.28v2.36c0,.42-.54,.73-1.62,.91-.47,.07-.81,.11-1.02,.11-.84,0-1.27-.34-1.27-1.02,.19-2.48,.28-4.68,.28-6.57V14.91h-5.77v1.83c1.69,1.03,2.89,1.96,3.62,2.78,.84,.96,1.27,1.82,1.27,2.57,0,.7-.2,1.3-.6,1.79-.38,.47-.82,.7-1.34,.7-.33,0-.63-.11-.91-.32-.21-.21-.46-.98-.74-2.32-.21-.96-.64-2.05-1.3-3.27v8.05c0,2.27,.04,4.09,.11,5.45,0,.42-.59,.73-1.76,.91-.54,.07-.94,.11-1.2,.11-.66,0-.98-.34-.98-1.02,.12-1.27,.18-3.08,.18-5.45v-3.3c-.75,1.31-1.45,2.36-2.11,3.13-.89,1.2-1.89,2.24-2.99,3.13l-.53-.28c2.72-4.99,4.59-9.8,5.62-14.41v-.07h-.6c-2.04,0-3.49,.05-4.36,.14l-.53-1.41c1.12,.16,2.75,.25,4.89,.25h.6V4.75c-1.62,.14-3.36,.23-5.24,.28l-.25-.81c2.91-.49,5.21-1.05,6.93-1.69,1.66-.66,3.2-1.5,4.61-2.53,1.12,.75,1.96,1.3,2.5,1.65,1.12,.77,1.69,1.34,1.69,1.69,0,.28-.22,.42-.67,.42l-1.83-.28Zm-11.81,2.81c1.31,.68,2.23,1.27,2.74,1.76,.49,.52,.74,.96,.74,1.34,0,.84-.23,1.55-.7,2.11-.45,.56-.95,.84-1.51,.84-.14,0-.28-.07-.42-.21-.07-.16-.16-.7-.28-1.62-.14-1.05-.53-2.32-1.16-3.8l.6-.42Zm17.12,11.71h2.81V9.81h-2.81v8.19Zm0,10.69h2.81v-9.7h-2.81v9.7Zm6.64-18.88v8.19h2.64V9.81h-2.64Zm0,9.18v9.7h2.64v-9.7h-2.64Z"/>
    </g>
  </g>
</svg>